<svg xmlns="http://www.w3.org/2000/svg" width="112.714" height="15.52" viewBox="0 0 112.714 15.52">
  <g id="Group_2" data-name="Group 2" transform="translate(-686 -4791)">
    <path id="Icon_ionic-ios-star" data-name="Icon ionic-ios-star" d="M18.33,8.747H12.842L11.174,3.77a.6.6,0,0,0-1.134,0L8.372,8.747H2.847a.6.6,0,0,0-.6.6.439.439,0,0,0,.011.1.574.574,0,0,0,.25.422l4.51,3.179L5.291,18.078a.6.6,0,0,0,.205.672.577.577,0,0,0,.336.146.731.731,0,0,0,.373-.134l4.4-3.138,4.4,3.138a.7.7,0,0,0,.373.134.536.536,0,0,0,.332-.146.591.591,0,0,0,.205-.672l-1.731-5.033,4.473-3.208.108-.093a.57.57,0,0,0-.44-1Z" transform="translate(683.75 4787.625)" fill="#ffbf00"/>
    <path id="Icon_ionic-ios-star-2" data-name="Icon ionic-ios-star" d="M18.33,8.747H12.842L11.174,3.77a.6.6,0,0,0-1.134,0L8.372,8.747H2.847a.6.6,0,0,0-.6.6.439.439,0,0,0,.011.1.574.574,0,0,0,.25.422l4.51,3.179L5.291,18.078a.6.6,0,0,0,.205.672.577.577,0,0,0,.336.146.731.731,0,0,0,.373-.134l4.4-3.138,4.4,3.138a.7.7,0,0,0,.373.134.536.536,0,0,0,.332-.146.591.591,0,0,0,.205-.672l-1.731-5.033,4.473-3.208.108-.093a.57.57,0,0,0-.44-1Z" transform="translate(707.75 4787.625)" fill="#ffbf00"/>
    <path id="Icon_ionic-ios-star-3" data-name="Icon ionic-ios-star" d="M18.33,8.747H12.842L11.174,3.77a.6.6,0,0,0-1.134,0L8.372,8.747H2.847a.6.6,0,0,0-.6.6.439.439,0,0,0,.011.1.574.574,0,0,0,.25.422l4.51,3.179L5.291,18.078a.6.6,0,0,0,.205.672.577.577,0,0,0,.336.146.731.731,0,0,0,.373-.134l4.4-3.138,4.4,3.138a.7.7,0,0,0,.373.134.536.536,0,0,0,.332-.146.591.591,0,0,0,.205-.672l-1.731-5.033,4.473-3.208.108-.093a.57.57,0,0,0-.44-1Z" transform="translate(731.75 4787.625)" fill="#ffbf00"/>
    <path id="Icon_ionic-ios-star-4" data-name="Icon ionic-ios-star" d="M18.33,8.747H12.842L11.174,3.77a.6.6,0,0,0-1.134,0L8.372,8.747H2.847a.6.6,0,0,0-.6.6.439.439,0,0,0,.011.1.574.574,0,0,0,.25.422l4.51,3.179L5.291,18.078a.6.6,0,0,0,.205.672.577.577,0,0,0,.336.146.731.731,0,0,0,.373-.134l4.4-3.138,4.4,3.138a.7.7,0,0,0,.373.134.536.536,0,0,0,.332-.146.591.591,0,0,0,.205-.672l-1.731-5.033,4.473-3.208.108-.093a.57.57,0,0,0-.44-1Z" transform="translate(755.75 4787.625)" fill="#ffbf00"/>
    <path id="Icon_ionic-ios-star-half" data-name="Icon ionic-ios-star-half" d="M18.33,8.747H12.842L11.174,3.77a.6.6,0,0,0-1.134,0L8.372,8.747H2.847a.6.6,0,0,0-.6.6.439.439,0,0,0,.011.1.574.574,0,0,0,.25.422l4.511,3.179L5.291,18.078a.6.6,0,0,0,.205.672.577.577,0,0,0,.336.146.731.731,0,0,0,.373-.134l4.4-3.138,4.4,3.138a.7.7,0,0,0,.373.134.536.536,0,0,0,.332-.146.591.591,0,0,0,.205-.672l-1.731-5.033,4.473-3.208.108-.093a.57.57,0,0,0-.44-1Zm-1.768,1.313L13.584,12.2a1.048,1.048,0,0,0-.381,1.186l1.123,3.272a.15.15,0,0,1-.228.172l-2.888-2.059,0,0a1.391,1.391,0,0,1-.6-1.138V5.811a.073.073,0,0,1,.142-.022h0l1.1,3.291a1.043,1.043,0,0,0,.989.713h3.63A.149.149,0,0,1,16.561,10.061Z" transform="translate(779.75 4787.625)" fill="#ffbf00"/>
  </g>
</svg>
