<svg xmlns="http://www.w3.org/2000/svg" width="122.919" height="88" viewBox="0 0 122.919 88">
  <g id="Group_203" data-name="Group 203" transform="translate(-14644.081 -2185)">
    <path id="Path_810" data-name="Path 810" d="M90.7,67c-.19.29-.38.57-.58.85a33,33,0,0,1-60-16.31c0-.34-.05-.68-.07-1A244.531,244.531,0,0,0,60.63,60.77,249.421,249.421,0,0,0,90.7,67Z" transform="translate(14640.98 2185)" fill="none" stroke="#f7dcb9" stroke-width="3"/>
    <path id="Ellipse_89" data-name="Ellipse 89" d="M3,0A3,3,0,1,1,0,3,3,3,0,0,1,3,0Z" transform="translate(14714 2185)" fill="#f7dcb9"/>
    <path id="Ellipse_90" data-name="Ellipse 90" d="M3,0A3,3,0,1,1,0,3,3,3,0,0,1,3,0Z" transform="translate(14761 2186)" fill="#f7dcb9"/>
    <path id="Ellipse_91" data-name="Ellipse 91" d="M3,0A3,3,0,1,1,0,3,3,3,0,0,1,3,0Z" transform="translate(14753 2216)" fill="#f7dcb9"/>
    <path id="Ellipse_92" data-name="Ellipse 92" d="M3,0A3,3,0,1,1,0,3,3,3,0,0,1,3,0Z" transform="translate(14645 2243)" fill="#f7dcb9"/>
    <path id="Ellipse_93" data-name="Ellipse 93" d="M3,0A3,3,0,1,1,0,3,3,3,0,0,1,3,0Z" transform="translate(14670 2267)" fill="#f7dcb9"/>
    <g id="Ellipse_94" data-name="Ellipse 94" transform="translate(14647 2257)">
      <path id="Path_1028" data-name="Path 1028" d="M6,0A6,6,0,1,1,0,6,6,6,0,0,1,6,0Z" fill="none"/>
      <path id="Path_1029" data-name="Path 1029" d="M6,3A3,3,0,1,0,9,6,3,3,0,0,0,6,3M6,0A6,6,0,1,1,0,6,6,6,0,0,1,6,0Z" fill="#f7dcb9"/>
    </g>
    <g id="Ellipse_95" data-name="Ellipse 95" transform="translate(14735 2194)">
      <path id="Path_1030" data-name="Path 1030" d="M6,0A6,6,0,1,1,0,6,6,6,0,0,1,6,0Z" fill="none"/>
      <path id="Path_1031" data-name="Path 1031" d="M6,3A3,3,0,1,0,9,6,3,3,0,0,0,6,3M6,0A6,6,0,1,1,0,6,6,6,0,0,1,6,0Z" fill="#f7dcb9"/>
    </g>
    <path id="Path_811" data-name="Path 811" d="M96,49a32.88,32.88,0,0,1-5.3,18,249.419,249.419,0,0,1-30.07-6.21A244.538,244.538,0,0,1,30.05,50.5q0-.75,0-1.5A32.92,32.92,0,0,1,37.2,28.43l.7-.84A33,33,0,0,1,95.44,42.82c.07.36.13.72.19,1.08A33,33,0,0,1,96,49Z" transform="translate(14640.98 2185)" fill="none" stroke="#f7dcb9" stroke-width="3"/>
    <path id="Path_812" data-name="Path 812" d="M37.2,28.43A32.92,32.92,0,0,0,30,49v1.5C13.68,43.65,3.46,36.5,4.72,31.8S19,26,37.2,28.43Z" transform="translate(14640.98 2185)" fill="none" stroke="#f7dcb9" stroke-width="3"/>
    <path id="Path_813" data-name="Path 813" d="M123.53,63.66c-1.3,4.83-14.42,5.84-32.83,3.32A33.15,33.15,0,0,0,95.63,43.9C113.5,51.06,124.86,58.71,123.53,63.66Z" transform="translate(14640.98 2185)" fill="none" stroke="#f7dcb9" stroke-width="3"/>
  </g>
</svg>
