<svg xmlns="http://www.w3.org/2000/svg" width="806" height="544.079" viewBox="0 0 806 544.079">
  <g id="Group_242" data-name="Group 242" transform="translate(-14060 -14461.98)">
    <path id="Path_1002" data-name="Path 1002" d="M3.96-4.78v-2.1H7a3.1,3.1,0,0,0,1.59-.37,2.508,2.508,0,0,0,.97-1.02A3.124,3.124,0,0,0,9.9-9.74a3.168,3.168,0,0,0-.34-1.49,2.442,2.442,0,0,0-.97-1.01A3.17,3.17,0,0,0,7-12.6H3.96v-2.1H6.72a7.163,7.163,0,0,1,3.07.59,4.3,4.3,0,0,1,1.9,1.66,4.818,4.818,0,0,1,.65,2.55v.32a4.831,4.831,0,0,1-.65,2.54,4.28,4.28,0,0,1-1.9,1.67,7.163,7.163,0,0,1-3.07.59ZM1.96,0V-14.7h2.4V0Zm12.8,0V-10.78h1.86v4.5h-.08a5.1,5.1,0,0,1,1.02-3.47,3.826,3.826,0,0,1,3.02-1.15h.38v2.06h-.72a3.154,3.154,0,0,0-2.33.81,3.125,3.125,0,0,0-.81,2.31V0Zm8.8,0V-10.78H25.9V0ZM21.98-8.98v-1.8H25.9v1.8Zm2.34-3.3a1.386,1.386,0,0,1-1.07-.38,1.39,1.39,0,0,1-.35-.98,1.4,1.4,0,0,1,.35-.97A1.366,1.366,0,0,1,24.32-15a1.394,1.394,0,0,1,1.09.39,1.4,1.4,0,0,1,.35.97,1.39,1.39,0,0,1-.35.98A1.415,1.415,0,0,1,24.32-12.28ZM29.38,0V-10.78h1.86v4.64h-.22a7.774,7.774,0,0,1,.41-2.7,3.446,3.446,0,0,1,1.24-1.68,3.527,3.527,0,0,1,2.07-.58h.1a3.563,3.563,0,0,1,2.09.58,3.446,3.446,0,0,1,1.24,1.68,7.774,7.774,0,0,1,.41,2.7h-.64a7.605,7.605,0,0,1,.42-2.7,3.479,3.479,0,0,1,1.26-1.68,3.574,3.574,0,0,1,2.08-.58h.1a3.61,3.61,0,0,1,2.1.58,3.479,3.479,0,0,1,1.26,1.68,7.605,7.605,0,0,1,.42,2.7V0H43.24V-6.48a2.665,2.665,0,0,0-.59-1.84,2.074,2.074,0,0,0-1.63-.66,2.233,2.233,0,0,0-1.72.69,2.7,2.7,0,0,0-.64,1.91V0H36.3V-6.48a2.7,2.7,0,0,0-.58-1.84,2.043,2.043,0,0,0-1.62-.66,2.265,2.265,0,0,0-1.73.69,2.675,2.675,0,0,0-.65,1.91V0ZM55.34,0V-3.22h-.38V-6.86a2.06,2.06,0,0,0-.52-1.52A2.089,2.089,0,0,0,52.9-8.9q-.56,0-1.24.02t-1.33.05q-.65.03-1.15.07v-2.02q.44-.04.97-.07t1.1-.05q.57-.02,1.09-.02a7.57,7.57,0,0,1,2.72.42,3.084,3.084,0,0,1,1.61,1.33,4.812,4.812,0,0,1,.53,2.43V0Zm-3.5.28a4.834,4.834,0,0,1-2.06-.41,3.061,3.061,0,0,1-1.36-1.2,3.571,3.571,0,0,1-.48-1.89,3.192,3.192,0,0,1,.55-1.92,3.293,3.293,0,0,1,1.57-1.14,7,7,0,0,1,2.44-.38h2.7v1.54H52.44a2.326,2.326,0,0,0-1.62.51,1.715,1.715,0,0,0-.56,1.33,1.654,1.654,0,0,0,.56,1.31,2.389,2.389,0,0,0,1.62.49,3.076,3.076,0,0,0,1.18-.23,2.069,2.069,0,0,0,.93-.77A2.883,2.883,0,0,0,54.96-4l.6.78a4.539,4.539,0,0,1-.55,1.91A3.02,3.02,0,0,1,53.77-.13,4.151,4.151,0,0,1,51.84.28ZM60.46,0V-10.78h1.86v4.5h-.08a5.1,5.1,0,0,1,1.02-3.47,3.826,3.826,0,0,1,3.02-1.15h.38v2.06h-.72a3.154,3.154,0,0,0-2.33.81,3.125,3.125,0,0,0-.81,2.31V0Zm8.12,4.22V2.16h1.78a3.3,3.3,0,0,0,1.06-.15,1.484,1.484,0,0,0,.72-.52A3.043,3.043,0,0,0,72.6.5l3.14-11.28H78L74.6,1.06a5.046,5.046,0,0,1-.89,1.82A3.281,3.281,0,0,1,72.27,3.9a6.07,6.07,0,0,1-2.09.32ZM71.9-.24v-1.9h2.32v1.9Zm-.58,0L67.66-10.78h2.38L73.54-.24ZM79.78,0V-2.82H82.5V0Zm0-7.16V-9.98H82.5v2.82Z" transform="translate(14060 14477)" fill="#262626"/>
    <path id="Path_1014" data-name="Path 1014" d="M6.82.36A7.522,7.522,0,0,1,3.63-.25,4.564,4.564,0,0,1,1.64-1.93,4.433,4.433,0,0,1,.96-4.36H3.32a2.449,2.449,0,0,0,.34,1.22,2.552,2.552,0,0,0,1.1.99,4.552,4.552,0,0,0,2.06.39A4.847,4.847,0,0,0,8.77-2.1,2.552,2.552,0,0,0,9.91-3a2.2,2.2,0,0,0,.37-1.24,1.63,1.63,0,0,0-.72-1.37A4.249,4.249,0,0,0,7.4-6.26L5.94-6.4A5.253,5.253,0,0,1,2.72-7.65a3.692,3.692,0,0,1-1.2-2.87,4.233,4.233,0,0,1,.65-2.36A4.411,4.411,0,0,1,4-14.45a6.23,6.23,0,0,1,2.74-.57,6.328,6.328,0,0,1,2.78.57,4.335,4.335,0,0,1,1.83,1.6A4.5,4.5,0,0,1,12-10.4H9.64a2.5,2.5,0,0,0-.31-1.21,2.365,2.365,0,0,0-.95-.93,3.32,3.32,0,0,0-1.64-.36,3.323,3.323,0,0,0-1.59.34,2.388,2.388,0,0,0-.95.88,2.237,2.237,0,0,0-.32,1.16,1.816,1.816,0,0,0,.56,1.31,2.653,2.653,0,0,0,1.72.67l1.44.12a7.662,7.662,0,0,1,2.67.65,4.408,4.408,0,0,1,1.76,1.41,3.546,3.546,0,0,1,.63,2.12,4.073,4.073,0,0,1-.73,2.4A4.792,4.792,0,0,1,9.89-.22,7.53,7.53,0,0,1,6.82.36Zm13.24,0a5.773,5.773,0,0,1-2.44-.48,4.788,4.788,0,0,1-1.7-1.27,5.427,5.427,0,0,1-.99-1.78A6.379,6.379,0,0,1,14.6-5.2v-.38a6.44,6.44,0,0,1,.33-2.05,5.427,5.427,0,0,1,.99-1.78,4.75,4.75,0,0,1,1.67-1.26,5.517,5.517,0,0,1,2.35-.47,5.186,5.186,0,0,1,2.9.76,4.806,4.806,0,0,1,1.74,1.97,5.96,5.96,0,0,1,.58,2.61v.94H15.6V-6.44h7.98l-.64.8a4.707,4.707,0,0,0-.34-1.87,2.674,2.674,0,0,0-1-1.22,2.983,2.983,0,0,0-1.66-.43,3.006,3.006,0,0,0-1.74.48,2.855,2.855,0,0,0-1.04,1.32,5.26,5.26,0,0,0-.34,1.98,5.162,5.162,0,0,0,.34,1.93,2.864,2.864,0,0,0,1.06,1.34,3.2,3.2,0,0,0,1.84.49,3.2,3.2,0,0,0,1.84-.49,1.973,1.973,0,0,0,.88-1.15h2.18a4.322,4.322,0,0,1-.89,1.92A4.388,4.388,0,0,1,22.38-.08,5.806,5.806,0,0,1,20.06.36Zm12.3,0a5.757,5.757,0,0,1-2.41-.47,4.7,4.7,0,0,1-1.7-1.28,5.56,5.56,0,0,1-1-1.8,6.318,6.318,0,0,1-.33-2.01v-.36a6.268,6.268,0,0,1,.34-2.05A5.5,5.5,0,0,1,28.28-9.4a4.893,4.893,0,0,1,1.69-1.27,5.568,5.568,0,0,1,2.37-.47,5.667,5.667,0,0,1,2.47.52,4.386,4.386,0,0,1,1.75,1.47,4.267,4.267,0,0,1,.74,2.21H35.04a2.416,2.416,0,0,0-.81-1.52,2.725,2.725,0,0,0-1.89-.62,2.912,2.912,0,0,0-1.72.48A2.911,2.911,0,0,0,29.6-7.29a5.007,5.007,0,0,0-.34,1.91,5.1,5.1,0,0,0,.33,1.88,2.817,2.817,0,0,0,1.02,1.32,3,3,0,0,0,1.75.48,3.167,3.167,0,0,0,1.41-.29,2.55,2.55,0,0,0,.95-.78,2.22,2.22,0,0,0,.42-1.13h2.28a4.1,4.1,0,0,1-.74,2.25,4.571,4.571,0,0,1-1.8,1.48A5.82,5.82,0,0,1,32.36.36ZM44.9.36a6.217,6.217,0,0,1-2.5-.47,5.493,5.493,0,0,1-1.82-1.25,5.319,5.319,0,0,1-1.12-1.77,5.673,5.673,0,0,1-.38-2.05v-.4a5.623,5.623,0,0,1,.39-2.06,5.459,5.459,0,0,1,1.14-1.79,5.41,5.41,0,0,1,1.83-1.25,6.226,6.226,0,0,1,2.46-.46,6.153,6.153,0,0,1,2.45.46,5.544,5.544,0,0,1,1.83,1.25,5.381,5.381,0,0,1,1.15,1.79,5.623,5.623,0,0,1,.39,2.06v.4a5.673,5.673,0,0,1-.38,2.05,5.319,5.319,0,0,1-1.12,1.77A5.493,5.493,0,0,1,47.4-.11,6.217,6.217,0,0,1,44.9.36Zm0-2.04a3.463,3.463,0,0,0,1.88-.49A3.192,3.192,0,0,0,47.97-3.5a4.229,4.229,0,0,0,.41-1.88,4.19,4.19,0,0,0-.42-1.9,3.26,3.26,0,0,0-1.2-1.33A3.425,3.425,0,0,0,44.9-9.1a3.425,3.425,0,0,0-1.86.49,3.26,3.26,0,0,0-1.2,1.33,4.19,4.19,0,0,0-.42,1.9,4.229,4.229,0,0,0,.41,1.88,3.192,3.192,0,0,0,1.19,1.33A3.463,3.463,0,0,0,44.9-1.68ZM53.4,0V-10.78h1.86v4.62h-.22a7.445,7.445,0,0,1,.43-2.7,3.389,3.389,0,0,1,1.31-1.67,3.93,3.93,0,0,1,2.18-.57h.1a3.54,3.54,0,0,1,2.98,1.26,5.906,5.906,0,0,1,.98,3.68V0H60.68V-6.48a2.555,2.555,0,0,0-.64-1.81,2.282,2.282,0,0,0-1.76-.69,2.469,2.469,0,0,0-1.84.71,2.575,2.575,0,0,0-.7,1.89V0ZM70.76.36a5.162,5.162,0,0,1-2.11-.42,5.036,5.036,0,0,1-1.66-1.18A5.317,5.317,0,0,1,65.9-3a6.088,6.088,0,0,1-.38-2.18v-.38a6.26,6.26,0,0,1,.37-2.17A5.421,5.421,0,0,1,66.94-9.5a4.837,4.837,0,0,1,1.63-1.19,5.059,5.059,0,0,1,2.11-.43,4.649,4.649,0,0,1,2.23.53,3.985,3.985,0,0,1,1.6,1.62,6.08,6.08,0,0,1,.67,2.77l-.8-1.1v-7.3h2.34V0H74.86V-4.68h.52a6.068,6.068,0,0,1-.71,2.86A4.135,4.135,0,0,1,73-.17,4.785,4.785,0,0,1,70.76.36Zm.44-2.02a3.335,3.335,0,0,0,1.63-.4,3.059,3.059,0,0,0,1.18-1.17,3.523,3.523,0,0,0,.45-1.81V-5.9A3.165,3.165,0,0,0,74-7.64a3.067,3.067,0,0,0-1.2-1.1,3.494,3.494,0,0,0-1.62-.38,3.189,3.189,0,0,0-1.73.47,3.192,3.192,0,0,0-1.17,1.31,4.33,4.33,0,0,0-.42,1.96,4.292,4.292,0,0,0,.43,1.98,3.1,3.1,0,0,0,1.19,1.29A3.311,3.311,0,0,0,71.2-1.66ZM86.66,0V-3.22h-.38V-6.86a2.06,2.06,0,0,0-.52-1.52,2.089,2.089,0,0,0-1.54-.52q-.56,0-1.24.02t-1.33.05q-.65.03-1.15.07v-2.02q.44-.04.97-.07t1.1-.05q.57-.02,1.09-.02a7.57,7.57,0,0,1,2.72.42,3.084,3.084,0,0,1,1.61,1.33,4.812,4.812,0,0,1,.53,2.43V0Zm-3.5.28A4.834,4.834,0,0,1,81.1-.13a3.061,3.061,0,0,1-1.36-1.2,3.571,3.571,0,0,1-.48-1.89,3.192,3.192,0,0,1,.55-1.92,3.293,3.293,0,0,1,1.57-1.14,7,7,0,0,1,2.44-.38h2.7v1.54H83.76a2.326,2.326,0,0,0-1.62.51,1.715,1.715,0,0,0-.56,1.33,1.654,1.654,0,0,0,.56,1.31,2.389,2.389,0,0,0,1.62.49,3.076,3.076,0,0,0,1.18-.23,2.069,2.069,0,0,0,.93-.77A2.883,2.883,0,0,0,86.28-4l.6.78a4.539,4.539,0,0,1-.55,1.91A3.02,3.02,0,0,1,85.09-.13,4.151,4.151,0,0,1,83.16.28ZM91.78,0V-10.78h1.86v4.5h-.08a5.1,5.1,0,0,1,1.02-3.47A3.826,3.826,0,0,1,97.6-10.9h.38v2.06h-.72a3.154,3.154,0,0,0-2.33.81,3.125,3.125,0,0,0-.81,2.31V0ZM99.9,4.22V2.16h1.78a3.3,3.3,0,0,0,1.06-.15,1.484,1.484,0,0,0,.72-.52,3.043,3.043,0,0,0,.46-.99l3.14-11.28h2.26l-3.4,11.84a5.046,5.046,0,0,1-.89,1.82,3.281,3.281,0,0,1-1.44,1.02,6.07,6.07,0,0,1-2.09.32Zm3.32-4.46v-1.9h2.32v1.9Zm-.58,0L98.98-10.78h2.38l3.5,10.54ZM111.1,0V-2.82h2.72V0Zm0-7.16V-9.98h2.72v2.82Z" transform="translate(14650 14477)" fill="#262626"/>
    <path id="Path_1004" data-name="Path 1004" d="M1.96,0V-14.6H5.88L12.66-2.06h.66l-.4.36V-14.6H15.2V0H11.24L4.46-12.54H3.8l.4-.36V0ZM23.58.36a5.773,5.773,0,0,1-2.44-.48,4.788,4.788,0,0,1-1.7-1.27,5.427,5.427,0,0,1-.99-1.78,6.379,6.379,0,0,1-.33-2.03v-.38a6.44,6.44,0,0,1,.33-2.05,5.427,5.427,0,0,1,.99-1.78,4.75,4.75,0,0,1,1.67-1.26,5.517,5.517,0,0,1,2.35-.47,5.186,5.186,0,0,1,2.9.76A4.806,4.806,0,0,1,28.1-8.41a5.96,5.96,0,0,1,.58,2.61v.94H19.12V-6.44H27.1l-.64.8a4.707,4.707,0,0,0-.34-1.87,2.674,2.674,0,0,0-1-1.22,2.983,2.983,0,0,0-1.66-.43,3.006,3.006,0,0,0-1.74.48,2.855,2.855,0,0,0-1.04,1.32,5.26,5.26,0,0,0-.34,1.98,5.162,5.162,0,0,0,.34,1.93,2.864,2.864,0,0,0,1.06,1.34,3.2,3.2,0,0,0,1.84.49,3.2,3.2,0,0,0,1.84-.49,1.973,1.973,0,0,0,.88-1.15h2.18a4.322,4.322,0,0,1-.89,1.92A4.388,4.388,0,0,1,25.9-.08,5.806,5.806,0,0,1,23.58.36ZM34.9.32A3.579,3.579,0,0,1,31.98-.91a5.571,5.571,0,0,1-1.02-3.63v-6.24H33.3v6.56a2.459,2.459,0,0,0,.62,1.77,2.212,2.212,0,0,0,1.68.65,2.4,2.4,0,0,0,1.77-.69,2.554,2.554,0,0,0,.69-1.89v-6.4H40.4V0H38.54V-4.6h.24a7.427,7.427,0,0,1-.43,2.71A3.444,3.444,0,0,1,37.09-.24,3.657,3.657,0,0,1,35,.32ZM48.3.12a6.227,6.227,0,0,1-2.26-.36,2.609,2.609,0,0,1-1.39-1.24,5.08,5.08,0,0,1-.47-2.38V-13.92H46.4V-3.66a1.746,1.746,0,0,0,.45,1.29,1.717,1.717,0,0,0,1.27.45h1.8V.12ZM42.4-9.04v-1.74h7.52v1.74ZM52.46,0V-10.78h1.86v4.5h-.08a5.1,5.1,0,0,1,1.02-3.47,3.826,3.826,0,0,1,3.02-1.15h.38v2.06h-.72a3.154,3.154,0,0,0-2.33.81,3.125,3.125,0,0,0-.81,2.31V0ZM67.2,0V-3.22h-.38V-6.86a2.06,2.06,0,0,0-.52-1.52,2.089,2.089,0,0,0-1.54-.52q-.56,0-1.24.02t-1.33.05q-.65.03-1.15.07v-2.02q.44-.04.97-.07t1.1-.05q.57-.02,1.09-.02a7.57,7.57,0,0,1,2.72.42,3.084,3.084,0,0,1,1.61,1.33,4.812,4.812,0,0,1,.53,2.43V0ZM63.7.28a4.834,4.834,0,0,1-2.06-.41,3.061,3.061,0,0,1-1.36-1.2,3.571,3.571,0,0,1-.48-1.89,3.192,3.192,0,0,1,.55-1.92,3.293,3.293,0,0,1,1.57-1.14,7,7,0,0,1,2.44-.38h2.7v1.54H64.3a2.326,2.326,0,0,0-1.62.51,1.715,1.715,0,0,0-.56,1.33,1.654,1.654,0,0,0,.56,1.31,2.389,2.389,0,0,0,1.62.49,3.076,3.076,0,0,0,1.18-.23,2.069,2.069,0,0,0,.93-.77A2.883,2.883,0,0,0,66.82-4l.6.78a4.539,4.539,0,0,1-.55,1.91A3.02,3.02,0,0,1,65.63-.13,4.151,4.151,0,0,1,63.7.28ZM72.44,0V-14.6H74.8V0ZM71.02-12.8v-1.8H74.8v1.8ZM77.82,0V-2.82h2.72V0Zm0-7.16V-9.98h2.72v2.82Z" transform="translate(14060 14669)" fill="#262626"/>
    <path id="Path_1015" data-name="Path 1015" d="M6.82.36A7.522,7.522,0,0,1,3.63-.25,4.564,4.564,0,0,1,1.64-1.93,4.433,4.433,0,0,1,.96-4.36H3.32a2.449,2.449,0,0,0,.34,1.22,2.552,2.552,0,0,0,1.1.99,4.552,4.552,0,0,0,2.06.39A4.847,4.847,0,0,0,8.77-2.1,2.552,2.552,0,0,0,9.91-3a2.2,2.2,0,0,0,.37-1.24,1.63,1.63,0,0,0-.72-1.37A4.249,4.249,0,0,0,7.4-6.26L5.94-6.4A5.253,5.253,0,0,1,2.72-7.65a3.692,3.692,0,0,1-1.2-2.87,4.233,4.233,0,0,1,.65-2.36A4.411,4.411,0,0,1,4-14.45a6.23,6.23,0,0,1,2.74-.57,6.328,6.328,0,0,1,2.78.57,4.335,4.335,0,0,1,1.83,1.6A4.5,4.5,0,0,1,12-10.4H9.64a2.5,2.5,0,0,0-.31-1.21,2.365,2.365,0,0,0-.95-.93,3.32,3.32,0,0,0-1.64-.36,3.323,3.323,0,0,0-1.59.34,2.388,2.388,0,0,0-.95.88,2.237,2.237,0,0,0-.32,1.16,1.816,1.816,0,0,0,.56,1.31,2.653,2.653,0,0,0,1.72.67l1.44.12a7.662,7.662,0,0,1,2.67.65,4.408,4.408,0,0,1,1.76,1.41,3.546,3.546,0,0,1,.63,2.12,4.073,4.073,0,0,1-.73,2.4A4.792,4.792,0,0,1,9.89-.22,7.53,7.53,0,0,1,6.82.36ZM19.06.32A3.579,3.579,0,0,1,16.14-.91a5.571,5.571,0,0,1-1.02-3.63v-6.24h2.34v6.56a2.459,2.459,0,0,0,.62,1.77,2.212,2.212,0,0,0,1.68.65,2.4,2.4,0,0,0,1.77-.69,2.554,2.554,0,0,0,.69-1.89v-6.4h2.34V0H22.7V-4.6h.24a7.427,7.427,0,0,1-.43,2.71A3.444,3.444,0,0,1,21.25-.24a3.657,3.657,0,0,1-2.09.56ZM32.72.36a5.757,5.757,0,0,1-2.41-.47,4.7,4.7,0,0,1-1.7-1.28,5.56,5.56,0,0,1-1-1.8,6.318,6.318,0,0,1-.33-2.01v-.36a6.268,6.268,0,0,1,.34-2.05A5.5,5.5,0,0,1,28.64-9.4a4.893,4.893,0,0,1,1.69-1.27,5.568,5.568,0,0,1,2.37-.47,5.667,5.667,0,0,1,2.47.52,4.386,4.386,0,0,1,1.75,1.47,4.267,4.267,0,0,1,.74,2.21H35.4a2.416,2.416,0,0,0-.81-1.52,2.725,2.725,0,0,0-1.89-.62,2.912,2.912,0,0,0-1.72.48,2.911,2.911,0,0,0-1.02,1.31,5.007,5.007,0,0,0-.34,1.91,5.1,5.1,0,0,0,.33,1.88,2.817,2.817,0,0,0,1.02,1.32,3,3,0,0,0,1.75.48,3.167,3.167,0,0,0,1.41-.29,2.55,2.55,0,0,0,.95-.78A2.22,2.22,0,0,0,35.5-3.9h2.28a4.1,4.1,0,0,1-.74,2.25,4.571,4.571,0,0,1-1.8,1.48A5.82,5.82,0,0,1,32.72.36Zm12.16,0a5.757,5.757,0,0,1-2.41-.47,4.7,4.7,0,0,1-1.7-1.28,5.56,5.56,0,0,1-1-1.8,6.318,6.318,0,0,1-.33-2.01v-.36a6.268,6.268,0,0,1,.34-2.05A5.5,5.5,0,0,1,40.8-9.4a4.893,4.893,0,0,1,1.69-1.27,5.568,5.568,0,0,1,2.37-.47,5.667,5.667,0,0,1,2.47.52,4.386,4.386,0,0,1,1.75,1.47,4.267,4.267,0,0,1,.74,2.21H47.56a2.416,2.416,0,0,0-.81-1.52,2.725,2.725,0,0,0-1.89-.62,2.912,2.912,0,0,0-1.72.48,2.911,2.911,0,0,0-1.02,1.31,5.007,5.007,0,0,0-.34,1.91,5.1,5.1,0,0,0,.33,1.88,2.817,2.817,0,0,0,1.02,1.32,3,3,0,0,0,1.75.48,3.167,3.167,0,0,0,1.41-.29,2.55,2.55,0,0,0,.95-.78,2.22,2.22,0,0,0,.42-1.13h2.28a4.1,4.1,0,0,1-.74,2.25A4.571,4.571,0,0,1,47.4-.17,5.82,5.82,0,0,1,44.88.36Zm12.18,0a5.773,5.773,0,0,1-2.44-.48,4.788,4.788,0,0,1-1.7-1.27,5.427,5.427,0,0,1-.99-1.78A6.379,6.379,0,0,1,51.6-5.2v-.38a6.44,6.44,0,0,1,.33-2.05,5.427,5.427,0,0,1,.99-1.78,4.75,4.75,0,0,1,1.67-1.26,5.517,5.517,0,0,1,2.35-.47,5.186,5.186,0,0,1,2.9.76,4.806,4.806,0,0,1,1.74,1.97,5.96,5.96,0,0,1,.58,2.61v.94H52.6V-6.44h7.98l-.64.8a4.707,4.707,0,0,0-.34-1.87,2.674,2.674,0,0,0-1-1.22,2.983,2.983,0,0,0-1.66-.43,3.006,3.006,0,0,0-1.74.48,2.855,2.855,0,0,0-1.04,1.32,5.26,5.26,0,0,0-.34,1.98,5.162,5.162,0,0,0,.34,1.93,2.864,2.864,0,0,0,1.06,1.34,3.2,3.2,0,0,0,1.84.49,3.2,3.2,0,0,0,1.84-.49,1.973,1.973,0,0,0,.88-1.15h2.18a4.322,4.322,0,0,1-.89,1.92A4.387,4.387,0,0,1,59.38-.08,5.806,5.806,0,0,1,57.06.36ZM68.4.32A5.5,5.5,0,0,1,65.01-.6a3.172,3.172,0,0,1-1.27-2.54H65.9a1.592,1.592,0,0,0,.62,1.1,2.9,2.9,0,0,0,1.9.5,3.069,3.069,0,0,0,1.76-.44,1.3,1.3,0,0,0,.64-1.1,1.122,1.122,0,0,0-.47-.95,3.353,3.353,0,0,0-1.59-.47L67.7-4.6a4.868,4.868,0,0,1-2.63-.98,2.654,2.654,0,0,1-.97-2.16,3,3,0,0,1,.54-1.82,3.451,3.451,0,0,1,1.49-1.14,5.6,5.6,0,0,1,2.19-.4,5.187,5.187,0,0,1,3.1.85,2.971,2.971,0,0,1,1.22,2.49H70.5a1.393,1.393,0,0,0-.58-1.04,2.575,2.575,0,0,0-1.6-.42,2.506,2.506,0,0,0-1.53.4,1.227,1.227,0,0,0-.53,1.02,1.065,1.065,0,0,0,.4.88,2.56,2.56,0,0,0,1.3.42l1.06.1a5.757,5.757,0,0,1,2.89,1.01,2.663,2.663,0,0,1,1.07,2.25,2.967,2.967,0,0,1-.58,1.82A3.75,3.75,0,0,1,70.79-.11,6.166,6.166,0,0,1,68.4.32Zm10.86,0A5.5,5.5,0,0,1,75.87-.6,3.172,3.172,0,0,1,74.6-3.14h2.16a1.592,1.592,0,0,0,.62,1.1,2.9,2.9,0,0,0,1.9.5,3.069,3.069,0,0,0,1.76-.44,1.3,1.3,0,0,0,.64-1.1,1.122,1.122,0,0,0-.47-.95,3.353,3.353,0,0,0-1.59-.47l-1.06-.1a4.868,4.868,0,0,1-2.63-.98,2.654,2.654,0,0,1-.97-2.16,3,3,0,0,1,.54-1.82,3.451,3.451,0,0,1,1.49-1.14,5.6,5.6,0,0,1,2.19-.4,5.187,5.187,0,0,1,3.1.85A2.971,2.971,0,0,1,83.5-7.76H81.36a1.393,1.393,0,0,0-.58-1.04,2.575,2.575,0,0,0-1.6-.42,2.506,2.506,0,0,0-1.53.4,1.227,1.227,0,0,0-.53,1.02,1.065,1.065,0,0,0,.4.88,2.56,2.56,0,0,0,1.3.42l1.06.1a5.757,5.757,0,0,1,2.89,1.01,2.663,2.663,0,0,1,1.07,2.25,2.967,2.967,0,0,1-.58,1.82A3.75,3.75,0,0,1,81.65-.11,6.166,6.166,0,0,1,79.26.32ZM85.98,0V-2.82H88.7V0Zm0-7.16V-9.98H88.7v2.82Z" transform="translate(14650 14669)" fill="#262626"/>
    <path id="Path_1016" data-name="Path 1016" d="M1.96,0V-14.6H4.34V0ZM3.94,0V-2.08h6.84V0Zm0-6.38V-8.46h6.28v2.08Zm0-6.14V-14.6H10.6v2.08ZM13.68,0V-10.78h1.86v4.5h-.08a5.1,5.1,0,0,1,1.02-3.47A3.826,3.826,0,0,1,19.5-10.9h.38v2.06h-.72a3.154,3.154,0,0,0-2.33.81,3.125,3.125,0,0,0-.81,2.31V0Zm8.28,0V-10.78h1.86v4.5h-.08a5.1,5.1,0,0,1,1.02-3.47,3.826,3.826,0,0,1,3.02-1.15h.38v2.06h-.72a3.154,3.154,0,0,0-2.33.81,3.125,3.125,0,0,0-.81,2.31V0ZM35.2.36a6.217,6.217,0,0,1-2.5-.47,5.493,5.493,0,0,1-1.82-1.25,5.319,5.319,0,0,1-1.12-1.77,5.673,5.673,0,0,1-.38-2.05v-.4a5.623,5.623,0,0,1,.39-2.06,5.459,5.459,0,0,1,1.14-1.79,5.41,5.41,0,0,1,1.83-1.25,6.226,6.226,0,0,1,2.46-.46,6.153,6.153,0,0,1,2.45.46,5.544,5.544,0,0,1,1.83,1.25,5.381,5.381,0,0,1,1.15,1.79,5.622,5.622,0,0,1,.39,2.06v.4a5.673,5.673,0,0,1-.38,2.05,5.319,5.319,0,0,1-1.12,1.77A5.493,5.493,0,0,1,37.7-.11,6.217,6.217,0,0,1,35.2.36Zm0-2.04a3.463,3.463,0,0,0,1.88-.49A3.192,3.192,0,0,0,38.27-3.5a4.229,4.229,0,0,0,.41-1.88,4.19,4.19,0,0,0-.42-1.9,3.26,3.26,0,0,0-1.2-1.33A3.425,3.425,0,0,0,35.2-9.1a3.425,3.425,0,0,0-1.86.49,3.26,3.26,0,0,0-1.2,1.33,4.19,4.19,0,0,0-.42,1.9,4.229,4.229,0,0,0,.41,1.88,3.192,3.192,0,0,0,1.19,1.33A3.463,3.463,0,0,0,35.2-1.68ZM43.7,0V-10.78h1.86v4.5h-.08A5.1,5.1,0,0,1,46.5-9.75a3.826,3.826,0,0,1,3.02-1.15h.38v2.06h-.72a3.154,3.154,0,0,0-2.33.81,3.125,3.125,0,0,0-.81,2.31V0Zm7.86,0V-2.82h2.72V0Zm0-7.16V-9.98h2.72v2.82Z" transform="translate(14650 14861)" fill="#262626"/>
    <path id="Path_1005" data-name="Path 1005" d="M-30.63,0l1.695-10.95h1.02L-29.625,0Zm3.5,0,1.695-10.95h1.02L-26.13,0Zm-4.95-3.225v-.84h8.565v.84Zm.54-3.66v-.84H-23v.84ZM-20.715,0V-10.95h1.14V0Zm.84-5.055V-6.09l4.845-.015V-5.07Zm0-4.875v-1.02h5.13v1.02ZM-9.315.255A4.672,4.672,0,0,1-11.37-.173a3.35,3.35,0,0,1-1.372-1.163,2.97,2.97,0,0,1-.488-1.68,2.706,2.706,0,0,1,.292-1.268,2.907,2.907,0,0,1,.773-.945,3.238,3.238,0,0,1,1.05-.562v-.15a3.077,3.077,0,0,1-.855-.5,2.586,2.586,0,0,1-.638-.788,2.3,2.3,0,0,1-.247-1.095,2.543,2.543,0,0,1,.472-1.545,3.074,3.074,0,0,1,1.275-1,4.411,4.411,0,0,1,1.792-.352,4.436,4.436,0,0,1,1.815.352,3.027,3.027,0,0,1,1.26,1,2.571,2.571,0,0,1,.465,1.545A2.421,2.421,0,0,1-6.008-7.23a2.361,2.361,0,0,1-.63.788,3.191,3.191,0,0,1-.863.5v.15a3.138,3.138,0,0,1,1.065.57,2.926,2.926,0,0,1,.765.945,2.719,2.719,0,0,1,.285,1.26,2.97,2.97,0,0,1-.488,1.68A3.359,3.359,0,0,1-7.238-.173,4.7,4.7,0,0,1-9.315.255Zm0-.96A3.538,3.538,0,0,0-7.785-1a2.264,2.264,0,0,0,.967-.833A2.234,2.234,0,0,0-6.48-3.06a2.235,2.235,0,0,0-.33-1.215A2.231,2.231,0,0,0-7.77-5.1a3.577,3.577,0,0,0-1.545-.3,3.5,3.5,0,0,0-1.515.3,2.231,2.231,0,0,0-.96.825,2.235,2.235,0,0,0-.33,1.215,2.273,2.273,0,0,0,.33,1.223A2.214,2.214,0,0,0-10.83-1,3.5,3.5,0,0,0-9.315-.705Zm0-5.6a2.884,2.884,0,0,0,1.778-.5A1.734,1.734,0,0,0-6.87-8.28a1.714,1.714,0,0,0-.667-1.47,2.916,2.916,0,0,0-1.778-.495,2.888,2.888,0,0,0-1.762.495,1.714,1.714,0,0,0-.667,1.47A1.726,1.726,0,0,0-11.07-6.8,2.864,2.864,0,0,0-9.315-6.3Zm9.36-4.935a4.126,4.126,0,0,1,1.86.383A3.216,3.216,0,0,1,3.142-9.78a4.852,4.852,0,0,1,.7,1.642A9.031,9.031,0,0,1,4.065-6.06v.63A6.009,6.009,0,0,1,2.82-1.343,4.689,4.689,0,0,1-.9.075q-.51,0-.915-.03t-.87-.09V-1.02q.465.075.9.105t.945.03a4.15,4.15,0,0,0,2.265-.548A3.083,3.083,0,0,0,2.662-3.015,7.252,7.252,0,0,0,3.045-5.52V-6.585l.3-.885A4.157,4.157,0,0,1,2.9-5.535,2.917,2.917,0,0,1,1.695-4.32a3.8,3.8,0,0,1-1.83.42,3.821,3.821,0,0,1-1.98-.48,3.105,3.105,0,0,1-1.223-1.3A4.068,4.068,0,0,1-3.75-7.53a4.074,4.074,0,0,1,.428-1.875A3.224,3.224,0,0,1-2.055-10.74,4.08,4.08,0,0,1,.045-11.235Zm0,.99a2.913,2.913,0,0,0-1.507.36,2.274,2.274,0,0,0-.908.975,3.106,3.106,0,0,0-.3,1.38,3.124,3.124,0,0,0,.293,1.373,2.216,2.216,0,0,0,.885.96A2.816,2.816,0,0,0-.03-4.845a3.2,3.2,0,0,0,1.492-.33,2.388,2.388,0,0,0,.99-.937A2.8,2.8,0,0,0,2.8-7.545a2.971,2.971,0,0,0-.3-1.32,2.4,2.4,0,0,0-.915-1A2.877,2.877,0,0,0,.045-10.245ZM9.915.255a4,4,0,0,1-2.085-.5A3.35,3.35,0,0,1,6.555-1.575a3.739,3.739,0,0,1-.435-1.77H7.215A2.719,2.719,0,0,0,7.537-2.01a2.389,2.389,0,0,0,.922.93,2.874,2.874,0,0,0,1.455.345,2.926,2.926,0,0,0,1.455-.337A2.325,2.325,0,0,0,12.292-2a2.762,2.762,0,0,0,.323-1.342A2.828,2.828,0,0,0,12.3-4.68a2.347,2.347,0,0,0-.922-.952,2.867,2.867,0,0,0-1.463-.352,3.6,3.6,0,0,0-1.185.2,2.519,2.519,0,0,0-.975.593H6.72l.57-5.76h5.445v.975H7.9l.315-.39-.45,4.5L7.425-5.94a3.457,3.457,0,0,1,1.1-.735,3.626,3.626,0,0,1,1.44-.27,3.922,3.922,0,0,1,2.07.51A3.391,3.391,0,0,1,13.3-5.123a3.54,3.54,0,0,1,.427,1.688v.2a3.492,3.492,0,0,1-.435,1.687A3.38,3.38,0,0,1,12.007-.248,4.04,4.04,0,0,1,9.915.255ZM17.655,0V-10.365l.495.39H15.165v-.975H18.78V0Zm5.61.06V-.99H26.25a4.861,4.861,0,0,0,1.943-.36,4.055,4.055,0,0,0,1.4-.983,4.125,4.125,0,0,0,.855-1.433,5.16,5.16,0,0,0,.285-1.725,5.13,5.13,0,0,0-.292-1.755A4.142,4.142,0,0,0,29.58-8.67a3.78,3.78,0,0,0-1.4-.945,5.206,5.206,0,0,0-1.928-.33H23.265V-11H26.13a6.6,6.6,0,0,1,2.55.45,5.1,5.1,0,0,1,1.8,1.222A5,5,0,0,1,31.545-7.59a5.727,5.727,0,0,1,.345,1.95v.285a5.686,5.686,0,0,1-.345,1.935,5.278,5.278,0,0,1-1.05,1.748A5.08,5.08,0,0,1,28.7-.413,6.421,6.421,0,0,1,26.13.06Zm-.84,0V-11h1.14V.06Z" transform="translate(14110 14622)" fill="#262626"/>
    <path id="Path_1011" data-name="Path 1011" d="M-28.3,0-26.6-10.95h1.02L-27.293,0Zm3.5,0,1.695-10.95h1.02L-23.8,0Zm-4.95-3.225v-.84h8.565v.84Zm.54-3.66v-.84h8.55v.84ZM-18.383,0V-10.95h1.14V0Zm.84-5.055V-6.09l4.845-.015V-5.07Zm0-4.875v-1.02h5.13v1.02ZM-9.983,0V-10.95h1.14V0Zm.84-5.055V-6.09L-4.3-6.105V-5.07Zm0-4.875v-1.02h5.13v1.02ZM-1.583,0V-10.95h1.14V0Zm.84-5.055V-6.09L4.1-6.105V-5.07Zm0-4.875v-1.02h5.13v1.02ZM6.817,0V-10.95h1.14V0Zm.84-5.055V-6.09L12.5-6.105V-5.07Zm0-4.875v-1.02h5.13v1.02ZM15.217,0V-10.95h1.14V0Zm.84-5.055V-6.09L20.9-6.105V-5.07Zm0-4.875v-1.02h5.13v1.02ZM23.618,0V-10.95h1.14V0Zm.84-5.055V-6.09L29.3-6.105V-5.07Zm0-4.875v-1.02h5.13v1.02Z" transform="translate(14110 14814)" fill="#262626"/>
    <path id="Path_1012" data-name="Path 1012" d="M-34.8,0l1.7-10.95h1.02L-33.795,0Zm3.5,0,1.695-10.95h1.02L-30.3,0Zm-4.95-3.225v-.84h8.565v.84Zm.54-3.66v-.84h8.55v.84ZM-25.38,0V-1.665a2.953,2.953,0,0,1,.18-1.1,2.1,2.1,0,0,1,.63-.825,5.251,5.251,0,0,1,1.23-.72l2.145-1.005a3.346,3.346,0,0,0,1.245-.945,2.386,2.386,0,0,0,.465-1.53,2.443,2.443,0,0,0-.653-1.807,2.422,2.422,0,0,0-1.792-.653,2.454,2.454,0,0,0-1.793.653,2.411,2.411,0,0,0-.667,1.807h-1.095a3.751,3.751,0,0,1,.4-1.755,3.008,3.008,0,0,1,1.2-1.237,3.854,3.854,0,0,1,1.95-.458,3.8,3.8,0,0,1,1.95.458,3.073,3.073,0,0,1,1.185,1.215A3.491,3.491,0,0,1-18.39-7.89v.21a2.923,2.923,0,0,1-.668,1.958,5.1,5.1,0,0,1-1.747,1.3l-2.16,1a2.539,2.539,0,0,0-1.028.713,1.574,1.574,0,0,0-.263.938V-.435l-.33-.54h6.375V0Zm10.545.06V-.99h2.985a4.861,4.861,0,0,0,1.943-.36,4.055,4.055,0,0,0,1.4-.983A4.125,4.125,0,0,0-7.65-3.765,5.16,5.16,0,0,0-7.365-5.49a5.13,5.13,0,0,0-.293-1.755A4.142,4.142,0,0,0-8.52-8.67a3.78,3.78,0,0,0-1.4-.945,5.206,5.206,0,0,0-1.928-.33h-2.985V-11h2.865a6.6,6.6,0,0,1,2.55.45,5.1,5.1,0,0,1,1.8,1.222A5,5,0,0,1-6.555-7.59,5.727,5.727,0,0,1-6.21-5.64v.285A5.686,5.686,0,0,1-6.555-3.42,5.278,5.278,0,0,1-7.6-1.673,5.08,5.08,0,0,1-9.4-.413,6.421,6.421,0,0,1-11.97.06Zm-.84,0V-11h1.14V.06ZM-4.245,0V-1.665a2.953,2.953,0,0,1,.18-1.1,2.1,2.1,0,0,1,.63-.825A5.251,5.251,0,0,1-2.2-4.3L-.06-5.31a3.346,3.346,0,0,0,1.245-.945,2.386,2.386,0,0,0,.465-1.53A2.443,2.443,0,0,0,1-9.593a2.422,2.422,0,0,0-1.793-.653,2.454,2.454,0,0,0-1.793.653,2.411,2.411,0,0,0-.668,1.807H-4.35a3.751,3.751,0,0,1,.4-1.755,3.008,3.008,0,0,1,1.2-1.237,3.854,3.854,0,0,1,1.95-.458,3.8,3.8,0,0,1,1.95.458A3.073,3.073,0,0,1,2.34-9.563,3.491,3.491,0,0,1,2.745-7.89v.21a2.923,2.923,0,0,1-.668,1.958A5.1,5.1,0,0,1,.33-4.425l-2.16,1a2.539,2.539,0,0,0-1.028.713,1.574,1.574,0,0,0-.262.938V-.435l-.33-.54H2.925V0ZM6.3.06V-.99H9.285a4.861,4.861,0,0,0,1.943-.36,4.055,4.055,0,0,0,1.4-.983,4.125,4.125,0,0,0,.855-1.433A5.16,5.16,0,0,0,13.77-5.49a5.13,5.13,0,0,0-.293-1.755,4.142,4.142,0,0,0-.862-1.425,3.78,3.78,0,0,0-1.4-.945,5.206,5.206,0,0,0-1.928-.33H6.3V-11H9.165a6.6,6.6,0,0,1,2.55.45,5.1,5.1,0,0,1,1.8,1.222A5,5,0,0,1,14.58-7.59a5.727,5.727,0,0,1,.345,1.95v.285A5.686,5.686,0,0,1,14.58-3.42a5.278,5.278,0,0,1-1.05,1.748,5.08,5.08,0,0,1-1.792,1.26A6.421,6.421,0,0,1,9.165.06Zm-.84,0V-11H6.6V.06ZM16.89,0V-1.665a2.953,2.953,0,0,1,.18-1.1,2.1,2.1,0,0,1,.63-.825,5.251,5.251,0,0,1,1.23-.72L21.075-5.31a3.346,3.346,0,0,0,1.245-.945,2.386,2.386,0,0,0,.465-1.53,2.443,2.443,0,0,0-.653-1.807,2.422,2.422,0,0,0-1.792-.653,2.454,2.454,0,0,0-1.793.653,2.411,2.411,0,0,0-.667,1.807H16.785a3.751,3.751,0,0,1,.4-1.755,3.008,3.008,0,0,1,1.2-1.237,3.854,3.854,0,0,1,1.95-.458,3.8,3.8,0,0,1,1.95.458,3.073,3.073,0,0,1,1.185,1.215A3.491,3.491,0,0,1,23.88-7.89v.21a2.923,2.923,0,0,1-.668,1.958,5.1,5.1,0,0,1-1.747,1.3l-2.16,1a2.539,2.539,0,0,0-1.028.713,1.574,1.574,0,0,0-.263.938V-.435l-.33-.54H24.06V0ZM27.435.06V-.99H30.42a4.861,4.861,0,0,0,1.943-.36,4.055,4.055,0,0,0,1.4-.983,4.125,4.125,0,0,0,.855-1.433A5.16,5.16,0,0,0,34.9-5.49a5.13,5.13,0,0,0-.292-1.755A4.142,4.142,0,0,0,33.75-8.67a3.78,3.78,0,0,0-1.4-.945,5.206,5.206,0,0,0-1.928-.33H27.435V-11H30.3a6.6,6.6,0,0,1,2.55.45,5.1,5.1,0,0,1,1.8,1.222A5,5,0,0,1,35.715-7.59a5.727,5.727,0,0,1,.345,1.95v.285a5.685,5.685,0,0,1-.345,1.935,5.278,5.278,0,0,1-1.05,1.748,5.08,5.08,0,0,1-1.792,1.26A6.421,6.421,0,0,1,30.3.06Zm-.84,0V-11h1.14V.06Z" transform="translate(14226 14814)" fill="#262626"/>
    <path id="Path_1013" data-name="Path 1013" d="M-30.232,0l1.695-10.95h1.02L-29.227,0Zm3.5,0,1.695-10.95h1.02L-25.732,0Zm-4.95-3.225v-.84h8.565v.84Zm.54-3.66v-.84h8.55v.84ZM-20.317,0V-10.95h1.14V0Zm.87,0V-1.035h5.475V0Zm0-5.055v-1.02h4.965v1.02Zm0-4.86V-10.95h5.31v1.035ZM-11.272,0V-10.95h1.14V0Zm.87,0V-1.035h5.475V0Zm0-5.055v-1.02h4.965v1.02Zm0-4.86V-10.95h5.31v1.035ZM-2.227,0V-10.95h1.14V0Zm.87,0V-1.035H4.118V0Zm0-5.055v-1.02H3.608v1.02Zm0-4.86V-10.95h5.31v1.035ZM6.818,0V-10.95h1.14V0Zm.87,0V-1.035h5.475V0Zm0-5.055v-1.02h4.965v1.02Zm0-4.86V-10.95H13v1.035ZM15.863,0V-10.95H17V0Zm.87,0V-1.035h5.475V0Zm0-5.055v-1.02H21.7v1.02Zm0-4.86V-10.95h5.31v1.035ZM24.907,0V-10.95h1.14V0Zm.87,0V-1.035h5.475V0Zm0-5.055v-1.02h4.965v1.02Zm0-4.86V-10.95h5.31v1.035Z" transform="translate(14342 14814)" fill="#262626"/>
    <path id="Path_1017" data-name="Path 1017" d="M-32.91,0l1.7-10.95h1.02L-31.9,0Zm3.5,0,1.695-10.95h1.02L-28.41,0Zm-4.95-3.225v-.84H-25.8v.84Zm.54-3.66v-.84h8.55v.84ZM-19.53.285A4.126,4.126,0,0,1-21.39-.1,3.216,3.216,0,0,1-22.627-1.17a4.852,4.852,0,0,1-.7-1.643A9.031,9.031,0,0,1-23.55-4.89v-.63A6.009,6.009,0,0,1-22.3-9.608a4.689,4.689,0,0,1,3.72-1.418q.51,0,.915.03t.87.09v.975q-.465-.075-.9-.1t-.945-.03a4.15,4.15,0,0,0-2.265.548,3.083,3.083,0,0,0-1.237,1.582A7.252,7.252,0,0,0-22.53-5.43v1.065l-.3.885a4.157,4.157,0,0,1,.443-1.935A2.917,2.917,0,0,1-21.18-6.63a3.8,3.8,0,0,1,1.83-.42,3.821,3.821,0,0,1,1.98.48,3.105,3.105,0,0,1,1.222,1.3,4.068,4.068,0,0,1,.413,1.845,4.074,4.074,0,0,1-.428,1.875A3.224,3.224,0,0,1-17.43-.21,4.08,4.08,0,0,1-19.53.285Zm0-.99a2.913,2.913,0,0,0,1.508-.36,2.274,2.274,0,0,0,.907-.975,3.106,3.106,0,0,0,.3-1.38,3.124,3.124,0,0,0-.292-1.373,2.216,2.216,0,0,0-.885-.96,2.816,2.816,0,0,0-1.462-.352,3.2,3.2,0,0,0-1.493.33,2.388,2.388,0,0,0-.99.938,2.8,2.8,0,0,0-.352,1.432,2.971,2.971,0,0,0,.3,1.32,2.4,2.4,0,0,0,.915,1A2.877,2.877,0,0,0-19.53-.705Zm9.09.96A4.113,4.113,0,0,1-12.472-.21,3.169,3.169,0,0,1-13.74-1.47a3.566,3.566,0,0,1-.435-1.74h1.1a2.371,2.371,0,0,0,.7,1.808,2.7,2.7,0,0,0,1.935.668,3.034,3.034,0,0,0,1.388-.3,2.162,2.162,0,0,0,.915-.855,2.521,2.521,0,0,0,.323-1.29A2.426,2.426,0,0,0-8.52-4.995a2.606,2.606,0,0,0-1.9-.69,2.675,2.675,0,0,0-.825.112,2.9,2.9,0,0,0-.615.278l-.615-1.05,4.365-3.39-.12-.24H-13.74v-.975h6.555v1.62l-3.87,3.015-.735.015a3.548,3.548,0,0,1,.615-.2,3.438,3.438,0,0,1,.8-.082,4.035,4.035,0,0,1,1.973.45,3.185,3.185,0,0,1,1.252,1.2,3.23,3.23,0,0,1,.435,1.65v.21A3.255,3.255,0,0,1-7.155-1.44,3.242,3.242,0,0,1-8.415-.21,4.07,4.07,0,0,1-10.44.255Zm7.23-.2V-.99H-.225a4.861,4.861,0,0,0,1.943-.36,4.055,4.055,0,0,0,1.4-.983,4.125,4.125,0,0,0,.855-1.433A5.16,5.16,0,0,0,4.26-5.49a5.13,5.13,0,0,0-.293-1.755A4.142,4.142,0,0,0,3.105-8.67a3.78,3.78,0,0,0-1.4-.945,5.206,5.206,0,0,0-1.928-.33H-3.21V-11H-.345a6.6,6.6,0,0,1,2.55.45,5.1,5.1,0,0,1,1.8,1.222A5,5,0,0,1,5.07-7.59a5.727,5.727,0,0,1,.345,1.95v.285A5.686,5.686,0,0,1,5.07-3.42,5.278,5.278,0,0,1,4.02-1.673,5.08,5.08,0,0,1,2.228-.413,6.421,6.421,0,0,1-.345.06Zm-.84,0V-11h1.14V.06Zm14.85-11.3a4.126,4.126,0,0,1,1.86.383A3.216,3.216,0,0,1,13.9-9.78a4.852,4.852,0,0,1,.7,1.642A9.031,9.031,0,0,1,14.82-6.06v.63a6.009,6.009,0,0,1-1.245,4.088A4.689,4.689,0,0,1,9.855.075q-.51,0-.915-.03t-.87-.09V-1.02q.465.075.9.105t.945.03a4.15,4.15,0,0,0,2.265-.548,3.083,3.083,0,0,0,1.238-1.582A7.252,7.252,0,0,0,13.8-5.52V-6.585l.3-.885a4.157,4.157,0,0,1-.443,1.935A2.917,2.917,0,0,1,12.45-4.32a3.8,3.8,0,0,1-1.83.42,3.821,3.821,0,0,1-1.98-.48,3.105,3.105,0,0,1-1.223-1.3A4.068,4.068,0,0,1,7.005-7.53a4.074,4.074,0,0,1,.427-1.875A3.224,3.224,0,0,1,8.7-10.74,4.08,4.08,0,0,1,10.8-11.235Zm0,.99a2.913,2.913,0,0,0-1.507.36,2.274,2.274,0,0,0-.908.975,3.106,3.106,0,0,0-.3,1.38,3.124,3.124,0,0,0,.292,1.373,2.216,2.216,0,0,0,.885.96,2.816,2.816,0,0,0,1.463.352,3.2,3.2,0,0,0,1.492-.33,2.388,2.388,0,0,0,.99-.937,2.8,2.8,0,0,0,.352-1.432,2.971,2.971,0,0,0-.3-1.32,2.4,2.4,0,0,0-.915-1A2.877,2.877,0,0,0,10.8-10.245ZM21.15.285A4.126,4.126,0,0,1,19.29-.1,3.216,3.216,0,0,1,18.052-1.17a4.852,4.852,0,0,1-.7-1.643A9.031,9.031,0,0,1,17.13-4.89v-.63a6.009,6.009,0,0,1,1.245-4.087,4.689,4.689,0,0,1,3.72-1.418q.51,0,.915.03t.87.09v.975q-.465-.075-.9-.1t-.945-.03a4.15,4.15,0,0,0-2.265.548,3.083,3.083,0,0,0-1.237,1.582A7.252,7.252,0,0,0,18.15-5.43v1.065l-.3.885a4.157,4.157,0,0,1,.443-1.935A2.917,2.917,0,0,1,19.5-6.63a3.8,3.8,0,0,1,1.83-.42,3.821,3.821,0,0,1,1.98.48,3.105,3.105,0,0,1,1.222,1.3,4.068,4.068,0,0,1,.413,1.845,4.074,4.074,0,0,1-.428,1.875A3.224,3.224,0,0,1,23.25-.21,4.08,4.08,0,0,1,21.15.285Zm0-.99a2.913,2.913,0,0,0,1.508-.36,2.274,2.274,0,0,0,.907-.975,3.106,3.106,0,0,0,.3-1.38,3.124,3.124,0,0,0-.292-1.373,2.216,2.216,0,0,0-.885-.96,2.816,2.816,0,0,0-1.462-.352,3.2,3.2,0,0,0-1.493.33,2.388,2.388,0,0,0-.99.938,2.8,2.8,0,0,0-.352,1.432,2.971,2.971,0,0,0,.3,1.32,2.4,2.4,0,0,0,.915,1A2.877,2.877,0,0,0,21.15-.705Zm9.09.96A4.113,4.113,0,0,1,28.207-.21,3.169,3.169,0,0,1,26.94-1.47,3.566,3.566,0,0,1,26.5-3.21h1.1A2.371,2.371,0,0,0,28.3-1.4a2.7,2.7,0,0,0,1.935.668,3.034,3.034,0,0,0,1.388-.3,2.162,2.162,0,0,0,.915-.855,2.521,2.521,0,0,0,.323-1.29,2.426,2.426,0,0,0-.705-1.815,2.606,2.606,0,0,0-1.9-.69,2.675,2.675,0,0,0-.825.112,2.9,2.9,0,0,0-.615.278L28.2-6.345l4.365-3.39-.12-.24h-5.5v-.975h6.555v1.62l-3.87,3.015L28.89-6.3a3.548,3.548,0,0,1,.615-.2,3.438,3.438,0,0,1,.795-.082,4.035,4.035,0,0,1,1.972.45,3.185,3.185,0,0,1,1.253,1.2,3.23,3.23,0,0,1,.435,1.65v.21a3.255,3.255,0,0,1-.435,1.635,3.242,3.242,0,0,1-1.26,1.23A4.07,4.07,0,0,1,30.24.255Z" transform="translate(14700 14814)" fill="#262626"/>
    <path id="Path_1006" data-name="Path 1006" d="M-34.8,0l1.7-10.95h1.02L-33.795,0Zm3.5,0,1.695-10.95h1.02L-30.3,0Zm-4.95-3.225v-.84h8.565v.84Zm.54-3.66v-.84h8.55v.84ZM-25.38,0V-1.665a2.953,2.953,0,0,1,.18-1.1,2.1,2.1,0,0,1,.63-.825,5.251,5.251,0,0,1,1.23-.72l2.145-1.005a3.346,3.346,0,0,0,1.245-.945,2.386,2.386,0,0,0,.465-1.53,2.443,2.443,0,0,0-.653-1.807,2.422,2.422,0,0,0-1.792-.653,2.454,2.454,0,0,0-1.793.653,2.411,2.411,0,0,0-.667,1.807h-1.095a3.751,3.751,0,0,1,.4-1.755,3.008,3.008,0,0,1,1.2-1.237,3.854,3.854,0,0,1,1.95-.458,3.8,3.8,0,0,1,1.95.458,3.073,3.073,0,0,1,1.185,1.215A3.491,3.491,0,0,1-18.39-7.89v.21a2.923,2.923,0,0,1-.668,1.958,5.1,5.1,0,0,1-1.747,1.3l-2.16,1a2.539,2.539,0,0,0-1.028.713,1.574,1.574,0,0,0-.263.938V-.435l-.33-.54h6.375V0Zm10.545.06V-.99h2.985a4.861,4.861,0,0,0,1.943-.36,4.055,4.055,0,0,0,1.4-.983A4.125,4.125,0,0,0-7.65-3.765,5.16,5.16,0,0,0-7.365-5.49a5.13,5.13,0,0,0-.293-1.755A4.142,4.142,0,0,0-8.52-8.67a3.78,3.78,0,0,0-1.4-.945,5.206,5.206,0,0,0-1.928-.33h-2.985V-11h2.865a6.6,6.6,0,0,1,2.55.45,5.1,5.1,0,0,1,1.8,1.222A5,5,0,0,1-6.555-7.59,5.727,5.727,0,0,1-6.21-5.64v.285A5.686,5.686,0,0,1-6.555-3.42,5.278,5.278,0,0,1-7.6-1.673,5.08,5.08,0,0,1-9.4-.413,6.421,6.421,0,0,1-11.97.06Zm-.84,0V-11h1.14V.06ZM-4.245,0V-1.665a2.953,2.953,0,0,1,.18-1.1,2.1,2.1,0,0,1,.63-.825A5.251,5.251,0,0,1-2.2-4.3L-.06-5.31a3.346,3.346,0,0,0,1.245-.945,2.386,2.386,0,0,0,.465-1.53A2.443,2.443,0,0,0,1-9.593a2.422,2.422,0,0,0-1.793-.653,2.454,2.454,0,0,0-1.793.653,2.411,2.411,0,0,0-.668,1.807H-4.35a3.751,3.751,0,0,1,.4-1.755,3.008,3.008,0,0,1,1.2-1.237,3.854,3.854,0,0,1,1.95-.458,3.8,3.8,0,0,1,1.95.458A3.073,3.073,0,0,1,2.34-9.563,3.491,3.491,0,0,1,2.745-7.89v.21a2.923,2.923,0,0,1-.668,1.958A5.1,5.1,0,0,1,.33-4.425l-2.16,1a2.539,2.539,0,0,0-1.028.713,1.574,1.574,0,0,0-.262.938V-.435l-.33-.54H2.925V0ZM6.3.06V-.99H9.285a4.861,4.861,0,0,0,1.943-.36,4.055,4.055,0,0,0,1.4-.983,4.125,4.125,0,0,0,.855-1.433A5.16,5.16,0,0,0,13.77-5.49a5.13,5.13,0,0,0-.293-1.755,4.142,4.142,0,0,0-.862-1.425,3.78,3.78,0,0,0-1.4-.945,5.206,5.206,0,0,0-1.928-.33H6.3V-11H9.165a6.6,6.6,0,0,1,2.55.45,5.1,5.1,0,0,1,1.8,1.222A5,5,0,0,1,14.58-7.59a5.727,5.727,0,0,1,.345,1.95v.285A5.686,5.686,0,0,1,14.58-3.42a5.278,5.278,0,0,1-1.05,1.748,5.08,5.08,0,0,1-1.792,1.26A6.421,6.421,0,0,1,9.165.06Zm-.84,0V-11H6.6V.06ZM16.89,0V-1.665a2.953,2.953,0,0,1,.18-1.1,2.1,2.1,0,0,1,.63-.825,5.251,5.251,0,0,1,1.23-.72L21.075-5.31a3.346,3.346,0,0,0,1.245-.945,2.386,2.386,0,0,0,.465-1.53,2.443,2.443,0,0,0-.653-1.807,2.422,2.422,0,0,0-1.792-.653,2.454,2.454,0,0,0-1.793.653,2.411,2.411,0,0,0-.667,1.807H16.785a3.751,3.751,0,0,1,.4-1.755,3.008,3.008,0,0,1,1.2-1.237,3.854,3.854,0,0,1,1.95-.458,3.8,3.8,0,0,1,1.95.458,3.073,3.073,0,0,1,1.185,1.215A3.491,3.491,0,0,1,23.88-7.89v.21a2.923,2.923,0,0,1-.668,1.958,5.1,5.1,0,0,1-1.747,1.3l-2.16,1a2.539,2.539,0,0,0-1.028.713,1.574,1.574,0,0,0-.263.938V-.435l-.33-.54H24.06V0ZM27.435.06V-.99H30.42a4.861,4.861,0,0,0,1.943-.36,4.055,4.055,0,0,0,1.4-.983,4.125,4.125,0,0,0,.855-1.433A5.16,5.16,0,0,0,34.9-5.49a5.13,5.13,0,0,0-.292-1.755A4.142,4.142,0,0,0,33.75-8.67a3.78,3.78,0,0,0-1.4-.945,5.206,5.206,0,0,0-1.928-.33H27.435V-11H30.3a6.6,6.6,0,0,1,2.55.45,5.1,5.1,0,0,1,1.8,1.222A5,5,0,0,1,35.715-7.59a5.727,5.727,0,0,1,.345,1.95v.285a5.685,5.685,0,0,1-.345,1.935,5.278,5.278,0,0,1-1.05,1.748,5.08,5.08,0,0,1-1.792,1.26A6.421,6.421,0,0,1,30.3.06Zm-.84,0V-11h1.14V.06Z" transform="translate(14226 14622)" fill="#262626"/>
    <path id="Path_1018" data-name="Path 1018" d="M-31.515,0l1.695-10.95h1.02L-30.51,0Zm3.5,0,1.695-10.95h1.02L-27.015,0Zm-4.95-3.225v-.84h8.565v.84Zm.54-3.66v-.84h8.55v.84ZM-17.79.255A4.454,4.454,0,0,1-19.77-.15a3.584,3.584,0,0,1-1.35-1.133,4.959,4.959,0,0,1-.773-1.71,8.671,8.671,0,0,1-.247-2.123v-.7a7.751,7.751,0,0,1,.472-2.82,4.094,4.094,0,0,1,1.44-1.9,4.094,4.094,0,0,1,2.438-.69,4.06,4.06,0,0,1,2.43.69,4.114,4.114,0,0,1,1.432,1.9,7.751,7.751,0,0,1,.472,2.82v.7A8.671,8.671,0,0,1-13.7-2.993a4.959,4.959,0,0,1-.772,1.71A3.584,3.584,0,0,1-15.825-.15,4.417,4.417,0,0,1-17.79.255Zm0-1.02a2.726,2.726,0,0,0,2.407-1.14A6.344,6.344,0,0,0-14.6-5.46,6.367,6.367,0,0,0-15.4-9.1a2.754,2.754,0,0,0-2.392-1.118A2.77,2.77,0,0,0-20.2-9.1,6.3,6.3,0,0,0-21-5.49a6.418,6.418,0,0,0,.788,3.578A2.736,2.736,0,0,0-17.79-.765ZM-9.105,0V-10.365l.495.39H-11.6v-.975H-7.98V0ZM-1.59.255A4.113,4.113,0,0,1-3.623-.21,3.169,3.169,0,0,1-4.89-1.47a3.566,3.566,0,0,1-.435-1.74H-4.23A2.371,2.371,0,0,0-3.525-1.4,2.7,2.7,0,0,0-1.59-.735,3.034,3.034,0,0,0-.2-1.035,2.162,2.162,0,0,0,.712-1.89a2.521,2.521,0,0,0,.323-1.29A2.426,2.426,0,0,0,.33-4.995a2.606,2.606,0,0,0-1.9-.69,2.675,2.675,0,0,0-.825.112,2.9,2.9,0,0,0-.615.278l-.615-1.05L.735-9.735l-.12-.24H-4.89v-.975H1.665v1.62l-3.87,3.015L-2.94-6.3a3.548,3.548,0,0,1,.615-.2,3.438,3.438,0,0,1,.8-.082,4.035,4.035,0,0,1,1.973.45,3.185,3.185,0,0,1,1.253,1.2,3.23,3.23,0,0,1,.435,1.65v.21A3.255,3.255,0,0,1,1.695-1.44,3.242,3.242,0,0,1,.435-.21,4.07,4.07,0,0,1-1.59.255Zm9.375,0A4,4,0,0,1,5.7-.248,3.35,3.35,0,0,1,4.425-1.575a3.739,3.739,0,0,1-.435-1.77H5.085A2.719,2.719,0,0,0,5.407-2.01a2.389,2.389,0,0,0,.922.93,2.874,2.874,0,0,0,1.455.345A2.926,2.926,0,0,0,9.24-1.072,2.325,2.325,0,0,0,10.162-2a2.762,2.762,0,0,0,.323-1.342A2.828,2.828,0,0,0,10.17-4.68a2.347,2.347,0,0,0-.922-.952,2.867,2.867,0,0,0-1.463-.352,3.6,3.6,0,0,0-1.185.2,2.519,2.519,0,0,0-.975.593H4.59l.57-5.76H10.6v.975H5.775l.315-.39-.45,4.5L5.295-5.94a3.457,3.457,0,0,1,1.1-.735,3.626,3.626,0,0,1,1.44-.27,3.922,3.922,0,0,1,2.07.51,3.391,3.391,0,0,1,1.267,1.313,3.54,3.54,0,0,1,.427,1.688v.2a3.492,3.492,0,0,1-.435,1.687A3.38,3.38,0,0,1,9.877-.248,4.04,4.04,0,0,1,7.785.255Zm9.255,0a4,4,0,0,1-2.085-.5A3.35,3.35,0,0,1,13.68-1.575a3.739,3.739,0,0,1-.435-1.77h1.1a2.719,2.719,0,0,0,.323,1.335,2.389,2.389,0,0,0,.922.93,2.874,2.874,0,0,0,1.455.345,2.926,2.926,0,0,0,1.455-.337A2.325,2.325,0,0,0,19.417-2a2.762,2.762,0,0,0,.323-1.342,2.828,2.828,0,0,0-.315-1.335,2.347,2.347,0,0,0-.922-.952,2.867,2.867,0,0,0-1.463-.352,3.6,3.6,0,0,0-1.185.2,2.519,2.519,0,0,0-.975.593H13.845l.57-5.76H19.86v.975H15.03l.315-.39-.45,4.5L14.55-5.94a3.457,3.457,0,0,1,1.1-.735,3.626,3.626,0,0,1,1.44-.27,3.922,3.922,0,0,1,2.07.51,3.391,3.391,0,0,1,1.267,1.313,3.54,3.54,0,0,1,.428,1.688v.2a3.492,3.492,0,0,1-.435,1.687A3.38,3.38,0,0,1,19.132-.248,4.04,4.04,0,0,1,17.04.255Zm7.11-.2V-.99h2.985a4.861,4.861,0,0,0,1.943-.36,4.055,4.055,0,0,0,1.4-.983,4.125,4.125,0,0,0,.855-1.433A5.16,5.16,0,0,0,31.62-5.49a5.13,5.13,0,0,0-.292-1.755,4.142,4.142,0,0,0-.862-1.425,3.78,3.78,0,0,0-1.4-.945,5.206,5.206,0,0,0-1.928-.33H24.15V-11h2.865a6.6,6.6,0,0,1,2.55.45,5.1,5.1,0,0,1,1.8,1.222A5,5,0,0,1,32.43-7.59a5.727,5.727,0,0,1,.345,1.95v.285A5.686,5.686,0,0,1,32.43-3.42a5.278,5.278,0,0,1-1.05,1.748,5.08,5.08,0,0,1-1.792,1.26A6.421,6.421,0,0,1,27.015.06Zm-.84,0V-11h1.14V.06Z" transform="translate(14700 14622)" fill="#262626"/>
    <path id="Path_1024" data-name="Path 1024" d="M-32.888,0l1.7-10.95h1.02L-31.882,0Zm3.5,0L-27.7-10.95h1.02L-28.387,0Zm-4.95-3.225v-.84h8.565v.84Zm.54-3.66v-.84h8.55v.84ZM-22.972,0V-10.95h1.14V0Zm.84-5.055V-6.09l4.845-.015V-5.07Zm0-4.875v-1.02H-17v1.02ZM-14.572,0V-10.95h1.14V0Zm.84-5.055V-6.09l4.845-.015V-5.07Zm0-4.875v-1.02H-8.6v1.02Zm6.615,7.2V-4.14l4.65-7.02.78.615L-6.1-3.855l.12.225h7.14v.9ZM-1.387,0V-7.71h1.05V0Zm5.52.06V-.99H7.118A4.861,4.861,0,0,0,9.06-1.35a4.055,4.055,0,0,0,1.4-.983,4.125,4.125,0,0,0,.855-1.433A5.16,5.16,0,0,0,11.6-5.49a5.13,5.13,0,0,0-.293-1.755,4.142,4.142,0,0,0-.862-1.425,3.78,3.78,0,0,0-1.4-.945,5.206,5.206,0,0,0-1.928-.33H4.133V-11H7a6.6,6.6,0,0,1,2.55.45,5.1,5.1,0,0,1,1.8,1.222A5,5,0,0,1,12.413-7.59a5.727,5.727,0,0,1,.345,1.95v.285a5.686,5.686,0,0,1-.345,1.935,5.278,5.278,0,0,1-1.05,1.748A5.08,5.08,0,0,1,9.57-.413,6.421,6.421,0,0,1,7,.06Zm-.84,0V-11h1.14V.06Zm10.98-2.79V-4.14l4.65-7.02.78.615-4.41,6.69.12.225h7.14v.9ZM20,0V-7.71h1.05V0Zm5.52.06V-.99h2.985a4.861,4.861,0,0,0,1.943-.36,4.055,4.055,0,0,0,1.4-.983,4.125,4.125,0,0,0,.855-1.433,5.16,5.16,0,0,0,.285-1.725A5.13,5.13,0,0,0,32.7-7.245a4.142,4.142,0,0,0-.862-1.425,3.78,3.78,0,0,0-1.4-.945,5.206,5.206,0,0,0-1.928-.33H25.522V-11h2.865a6.6,6.6,0,0,1,2.55.45,5.1,5.1,0,0,1,1.8,1.222A5,5,0,0,1,33.8-7.59a5.727,5.727,0,0,1,.345,1.95v.285A5.685,5.685,0,0,1,33.8-3.42a5.278,5.278,0,0,1-1.05,1.748A5.08,5.08,0,0,1,30.96-.413,6.421,6.421,0,0,1,28.388.06Zm-.84,0V-11h1.14V.06Z" transform="translate(14700 15006)" fill="#262626"/>
    <path id="Path_1019" data-name="Path 1019" d="M-32.393,0l1.7-10.95h1.02L-31.388,0Zm3.5,0L-27.2-10.95h1.02L-27.892,0Zm-4.95-3.225v-.84h8.565v.84Zm.54-3.66v-.84h8.55v.84ZM-22.477,0V-10.95h1.14V0Zm.84-5.055V-6.09l4.845-.015V-5.07Zm0-4.875v-1.02h5.13v1.02Zm6.615,7.2V-4.14l4.65-7.02.78.615L-14-3.855l.12.225h7.14v.9ZM-9.292,0V-7.71h1.05V0Zm4.68,0V-10.95h1.14V0Zm.84-5.055V-6.09l4.845-.015V-5.07Zm0-4.875v-1.02h5.13v1.02ZM8.377.255A5.6,5.6,0,0,1,5.865-.262,4.818,4.818,0,0,1,4.17-1.62a5.634,5.634,0,0,1-.952-1.823,6.533,6.533,0,0,1-.3-1.913V-5.64a6.765,6.765,0,0,1,.307-2,5.383,5.383,0,0,1,.96-1.808,4.725,4.725,0,0,1,1.673-1.3,5.55,5.55,0,0,1,2.415-.488,5.565,5.565,0,0,1,2.438.495,4.127,4.127,0,0,1,1.642,1.387,4.531,4.531,0,0,1,.75,2.108H11.947a3.225,3.225,0,0,0-.63-1.628,3.172,3.172,0,0,0-1.3-.983,4.479,4.479,0,0,0-1.747-.33,4.266,4.266,0,0,0-1.823.368A3.626,3.626,0,0,0,5.137-8.8a4.59,4.59,0,0,0-.8,1.5,5.921,5.921,0,0,0-.27,1.808,5.849,5.849,0,0,0,.263,1.755,4.514,4.514,0,0,0,.8,1.507,3.791,3.791,0,0,0,1.35,1.05A4.383,4.383,0,0,0,8.377-.8a4.109,4.109,0,0,0,2.52-.758,3.268,3.268,0,0,0,1.26-2.183h1.155a4.82,4.82,0,0,1-.78,2.033A4.288,4.288,0,0,1,10.875-.27,5.5,5.5,0,0,1,8.377.255Zm6.3-2.985V-4.14l4.65-7.02.78.615L15.7-3.855l.12.225h7.14v.9ZM20.407,0V-7.71h1.05V0ZM28.9.255a4.454,4.454,0,0,1-1.98-.405,3.584,3.584,0,0,1-1.35-1.133,4.959,4.959,0,0,1-.773-1.71,8.671,8.671,0,0,1-.247-2.123v-.7a7.751,7.751,0,0,1,.472-2.82,4.094,4.094,0,0,1,1.44-1.9,4.094,4.094,0,0,1,2.438-.69,4.06,4.06,0,0,1,2.43.69,4.114,4.114,0,0,1,1.432,1.9,7.751,7.751,0,0,1,.472,2.82v.7a8.671,8.671,0,0,1-.247,2.123,4.959,4.959,0,0,1-.772,1.71A3.584,3.584,0,0,1,30.862-.15,4.417,4.417,0,0,1,28.9.255Zm0-1.02A2.726,2.726,0,0,0,31.3-1.905a6.344,6.344,0,0,0,.788-3.555,6.367,6.367,0,0,0-.8-3.638A2.754,2.754,0,0,0,28.9-10.215,2.77,2.77,0,0,0,26.49-9.1a6.3,6.3,0,0,0-.8,3.608,6.418,6.418,0,0,0,.788,3.578A2.736,2.736,0,0,0,28.9-.765Z" transform="translate(14816 14622)" fill="#262626"/>
    <path id="Path_1003" data-name="Path 1003" d="M15,0H85a15,15,0,0,1,15,15V85a15,15,0,0,1-15,15H15A15,15,0,0,1,0,85V15A15,15,0,0,1,15,0Z" transform="translate(14060 14499)" fill="#f8951d"/>
    <g id="Path_1007" data-name="Path 1007" transform="translate(14060 14691)" fill="#fff">
      <path d="M 85 99.5 L 15 99.5 C 11.1269063949585 99.5 7.485640048980713 97.99172973632812 4.746960163116455 95.25303649902344 C 2.008266687393188 92.51435852050781 0.5 88.87309265136719 0.5 85 L 0.5 15 C 0.5 11.1269063949585 2.008266687393188 7.485640048980713 4.746960163116455 4.746960163116455 C 7.485640048980713 2.008266687393188 11.1269063949585 0.5 15 0.5 L 85 0.5 C 88.87309265136719 0.5 92.51435852050781 2.008266687393188 95.25303649902344 4.746960163116455 C 97.99172973632812 7.485640048980713 99.5 11.1269063949585 99.5 15 L 99.5 85 C 99.5 88.87309265136719 97.99172973632812 92.51435852050781 95.25303649902344 95.25303649902344 C 92.51435852050781 97.99172973632812 88.87309265136719 99.5 85 99.5 Z" stroke="none"/>
      <path d="M 15 1 C 11.26046752929688 1 7.744758605957031 2.456253051757812 5.100509643554688 5.100509643554688 C 2.456253051757812 7.744758605957031 1 11.26046752929688 1 15 L 1 85 C 1 88.73953247070312 2.456253051757812 92.25524139404297 5.100509643554688 94.89949035644531 C 7.744758605957031 97.54374694824219 11.26046752929688 99 15 99 L 85 99 C 88.73953247070312 99 92.25524139404297 97.54374694824219 94.89949035644531 94.89949035644531 C 97.54374694824219 92.25524139404297 99 88.73953247070312 99 85 L 99 15 C 99 11.26046752929688 97.54374694824219 7.744758605957031 94.89949035644531 5.100509643554688 C 92.25524139404297 2.456253051757812 88.73953247070312 1 85 1 L 15 1 M 15 0 L 85 0 C 93.28426361083984 0 100 6.715736389160156 100 15 L 100 85 C 100 93.28426361083984 93.28426361083984 100 85 100 L 15 100 C 6.715736389160156 100 0 93.28426361083984 0 85 L 0 15 C 0 6.715736389160156 6.715736389160156 0 15 0 Z" stroke="none" fill="#262626"/>
    </g>
    <path id="Path_1008" data-name="Path 1008" d="M15,0H85a15,15,0,0,1,15,15V85a15,15,0,0,1-15,15H15A15,15,0,0,1,0,85V15A15,15,0,0,1,15,0Z" transform="translate(14176 14691)" fill="#2d2d2d"/>
    <path id="Path_1009" data-name="Path 1009" d="M15,0H85a15,15,0,0,1,15,15V85a15,15,0,0,1-15,15H15A15,15,0,0,1,0,85V15A15,15,0,0,1,15,0Z" transform="translate(14292 14691)" fill="#eee"/>
    <path id="Path_1020" data-name="Path 1020" d="M15,0H85a15,15,0,0,1,15,15V85a15,15,0,0,1-15,15H15A15,15,0,0,1,0,85V15A15,15,0,0,1,15,0Z" transform="translate(14650 14691)" fill="#63d963"/>
    <path id="Path_1021" data-name="Path 1021" d="M15,0H85a15,15,0,0,1,15,15V85a15,15,0,0,1-15,15H15A15,15,0,0,1,0,85V15A15,15,0,0,1,15,0Z" transform="translate(14650 14883)" fill="#ff4d4d"/>
    <path id="Path_1010" data-name="Path 1010" d="M15,0H85a15,15,0,0,1,15,15V85a15,15,0,0,1-15,15H15A15,15,0,0,1,0,85V15A15,15,0,0,1,15,0Z" transform="translate(14176 14499)" fill="#2d2d2d"/>
    <path id="Path_1022" data-name="Path 1022" d="M15,0H85a15,15,0,0,1,15,15V85a15,15,0,0,1-15,15H15A15,15,0,0,1,0,85V15A15,15,0,0,1,15,0Z" transform="translate(14650 14499)" fill="#01355d"/>
    <path id="Path_1023" data-name="Path 1023" d="M15,0H85a15,15,0,0,1,15,15V85a15,15,0,0,1-15,15H15A15,15,0,0,1,0,85V15A15,15,0,0,1,15,0Z" transform="translate(14766 14499)" fill="#f4fc40"/>
  </g>
</svg>
