<svg xmlns="http://www.w3.org/2000/svg" width="752.243" height="148.105" viewBox="0 0 752.243 148.105">
  <g id="Group_240" data-name="Group 240" transform="translate(-14103 -13613)">
    <path id="Path_957" data-name="Path 957" d="M-30.585,0V-10.95h1.14V0Zm.84,0V-1.035H-24.6V0Zm10.26.255A4.125,4.125,0,0,1-21.255-.1a3.433,3.433,0,0,1-1.23-.945A4.011,4.011,0,0,1-23.2-2.37a4.993,4.993,0,0,1-.233-1.515V-4.1A4.945,4.945,0,0,1-23.2-5.6a3.928,3.928,0,0,1,.712-1.32,3.524,3.524,0,0,1,1.208-.937,3.863,3.863,0,0,1,1.7-.353A3.666,3.666,0,0,1-17.5-7.65a3.553,3.553,0,0,1,1.253,1.418,4.175,4.175,0,0,1,.42,1.852V-3.8h-7.1v-.87H-16.6l-.285.435A3.676,3.676,0,0,0-17.2-5.783a2.429,2.429,0,0,0-.9-1.05,2.671,2.671,0,0,0-1.478-.383,2.61,2.61,0,0,0-1.545.435,2.665,2.665,0,0,0-.923,1.155A4.127,4.127,0,0,0-22.35-3.99a4.253,4.253,0,0,0,.307,1.642A2.59,2.59,0,0,0-21.1-1.17a2.8,2.8,0,0,0,1.612.435,2.774,2.774,0,0,0,1.68-.473,1.926,1.926,0,0,0,.8-1.117h1.05a2.967,2.967,0,0,1-.63,1.373A3.179,3.179,0,0,1-17.8-.06,4.23,4.23,0,0,1-19.485.255Zm8.85,2.85q-.555,0-1.118-.053t-1.073-.127v-.96q.54.075,1.132.128t1.118.052a4.542,4.542,0,0,0,1.815-.3A1.839,1.839,0,0,0-7.792.893,4.245,4.245,0,0,0-7.5-.825v-1.59l.42-1.11a4.239,4.239,0,0,1-.48,1.958A3.153,3.153,0,0,1-8.775-.315a3.458,3.458,0,0,1-1.74.435,3.585,3.585,0,0,1-1.552-.33,3.553,3.553,0,0,1-1.192-.908,4.25,4.25,0,0,1-.765-1.313,4.445,4.445,0,0,1-.27-1.545v-.21a4.34,4.34,0,0,1,.27-1.523A4.084,4.084,0,0,1-13.26-7a3.518,3.518,0,0,1,1.207-.885,3.794,3.794,0,0,1,1.582-.323,3.506,3.506,0,0,1,1.83.465A3.267,3.267,0,0,1-7.417-6.45a4.286,4.286,0,0,1,.472,1.935L-7.3-4.71V-7.935h.885V-.87a5.317,5.317,0,0,1-.42,2.3A2.594,2.594,0,0,1-8.182,2.7,6.189,6.189,0,0,1-10.635,3.105Zm.315-4.02a2.941,2.941,0,0,0,1.448-.353,2.622,2.622,0,0,0,1.012-1,2.93,2.93,0,0,0,.375-1.5V-4.5a2.67,2.67,0,0,0-.382-1.44A2.7,2.7,0,0,0-8.88-6.9a2.949,2.949,0,0,0-1.44-.345,2.714,2.714,0,0,0-1.515.42,2.756,2.756,0,0,0-.99,1.132A3.653,3.653,0,0,0-13.17-4.08a3.671,3.671,0,0,0,.352,1.635,2.7,2.7,0,0,0,1,1.125A2.761,2.761,0,0,0-10.32-.915ZM1.23,0V-2.385H1.05V-5.2A1.855,1.855,0,0,0,.585-6.563a1.943,1.943,0,0,0-1.44-.472q-.45,0-.907.015t-.87.037q-.413.023-.727.053v-.99l.675-.06q.345-.03.712-.037t.713-.008a5.314,5.314,0,0,1,1.957.3,2.064,2.064,0,0,1,1.088.938A3.547,3.547,0,0,1,2.13-5.1V0ZM-1.455.21A3.485,3.485,0,0,1-2.94-.09a2.262,2.262,0,0,1-1-.87A2.574,2.574,0,0,1-4.29-2.34a2.391,2.391,0,0,1,.368-1.35,2.3,2.3,0,0,1,1.065-.848A4.359,4.359,0,0,1-1.17-4.83H1.155v.855h-2.4a2.078,2.078,0,0,0-1.447.457,1.537,1.537,0,0,0-.5,1.193A1.479,1.479,0,0,0-2.67-1.133,2.141,2.141,0,0,0-1.245-.69,2.86,2.86,0,0,0-.18-.893a1.9,1.9,0,0,0,.855-.69A2.444,2.444,0,0,0,1.05-2.925l.33.465A3.234,3.234,0,0,1,.96-.983,2.3,2.3,0,0,1-.015-.09,3.249,3.249,0,0,1-1.455.21ZM5.01,0V-10.95H6.135V0ZM3.855-10.035v-.915h2.28v.915ZM8.805,0V-1.665a2.953,2.953,0,0,1,.18-1.1,2.1,2.1,0,0,1,.63-.825,5.251,5.251,0,0,1,1.23-.72L12.99-5.31a3.346,3.346,0,0,0,1.245-.945,2.386,2.386,0,0,0,.465-1.53,2.443,2.443,0,0,0-.653-1.807,2.422,2.422,0,0,0-1.792-.653,2.454,2.454,0,0,0-1.793.653A2.411,2.411,0,0,0,9.8-7.785H8.7A3.751,3.751,0,0,1,9.105-9.54a3.008,3.008,0,0,1,1.2-1.237,3.854,3.854,0,0,1,1.95-.458,3.8,3.8,0,0,1,1.95.458A3.073,3.073,0,0,1,15.39-9.563a3.491,3.491,0,0,1,.4,1.673v.21a2.923,2.923,0,0,1-.668,1.958,5.1,5.1,0,0,1-1.748,1.3l-2.16,1a2.539,2.539,0,0,0-1.028.713,1.574,1.574,0,0,0-.262.938V-.435L9.6-.975h6.375V0Zm12.69.255a4,4,0,0,1-2.085-.5,3.35,3.35,0,0,1-1.275-1.328,3.739,3.739,0,0,1-.435-1.77h1.1a2.719,2.719,0,0,0,.323,1.335,2.389,2.389,0,0,0,.922.93,2.874,2.874,0,0,0,1.455.345,2.926,2.926,0,0,0,1.455-.337A2.325,2.325,0,0,0,23.872-2a2.762,2.762,0,0,0,.323-1.342A2.828,2.828,0,0,0,23.88-4.68a2.347,2.347,0,0,0-.922-.952,2.867,2.867,0,0,0-1.463-.352,3.6,3.6,0,0,0-1.185.2,2.519,2.519,0,0,0-.975.593H18.3l.57-5.76h5.445v.975h-4.83l.315-.39-.45,4.5L19-5.94A3.457,3.457,0,0,1,20.1-6.675a3.626,3.626,0,0,1,1.44-.27,3.922,3.922,0,0,1,2.07.51,3.391,3.391,0,0,1,1.267,1.313,3.54,3.54,0,0,1,.428,1.688v.2a3.492,3.492,0,0,1-.435,1.687A3.38,3.38,0,0,1,23.587-.248,4.04,4.04,0,0,1,21.495.255ZM29.235,0V-10.365l.495.39H26.745v-.975H30.36V0Z" transform="translate(14365 13758)" fill="#262626"/>
    <path id="Path_958" data-name="Path 958" d="M-11.137,0V-1.665a2.953,2.953,0,0,1,.18-1.1,2.1,2.1,0,0,1,.63-.825A5.251,5.251,0,0,1-9.1-4.3L-6.952-5.31a3.346,3.346,0,0,0,1.245-.945,2.386,2.386,0,0,0,.465-1.53,2.443,2.443,0,0,0-.653-1.807,2.422,2.422,0,0,0-1.793-.653,2.454,2.454,0,0,0-1.793.653,2.411,2.411,0,0,0-.668,1.807h-1.1a3.751,3.751,0,0,1,.405-1.755,3.008,3.008,0,0,1,1.2-1.237,3.854,3.854,0,0,1,1.95-.458,3.8,3.8,0,0,1,1.95.458A3.073,3.073,0,0,1-4.552-9.563,3.491,3.491,0,0,1-4.147-7.89v.21a2.923,2.923,0,0,1-.668,1.958,5.1,5.1,0,0,1-1.747,1.3l-2.16,1a2.539,2.539,0,0,0-1.028.713,1.574,1.574,0,0,0-.262.938V-.435l-.33-.54h6.375V0ZM1.553.255a4,4,0,0,1-2.085-.5A3.35,3.35,0,0,1-1.807-1.575a3.739,3.739,0,0,1-.435-1.77h1.095A2.719,2.719,0,0,0-.825-2.01,2.389,2.389,0,0,0,.1-1.08a2.874,2.874,0,0,0,1.455.345,2.926,2.926,0,0,0,1.455-.337A2.325,2.325,0,0,0,3.93-2a2.762,2.762,0,0,0,.323-1.342A2.828,2.828,0,0,0,3.938-4.68a2.347,2.347,0,0,0-.923-.952,2.867,2.867,0,0,0-1.463-.352,3.6,3.6,0,0,0-1.185.2,2.519,2.519,0,0,0-.975.593H-1.642l.57-5.76H4.373v.975H-.457l.315-.39-.45,4.5L-.937-5.94a3.457,3.457,0,0,1,1.1-.735,3.626,3.626,0,0,1,1.44-.27,3.922,3.922,0,0,1,2.07.51A3.391,3.391,0,0,1,4.935-5.123a3.54,3.54,0,0,1,.427,1.688v.2a3.492,3.492,0,0,1-.435,1.687A3.38,3.38,0,0,1,3.645-.248,4.04,4.04,0,0,1,1.553.255ZM9.293,0V-10.365l.495.39H6.8v-.975h3.615V0Z" transform="translate(14785 13758)" fill="#262626"/>
    <path id="Path_443" data-name="Path 443" d="M13.226,227.51H32.107l-9.954,56.445H57.637l-3.272,18.559H0Z" transform="translate(14103 13423.102)"/>
    <path id="Path_444" data-name="Path 444" d="M436.764,227.51H493.6l-3.288,18.655H452.45l-1.9,10.769h31.122l-3.068,17.4h-31.12l-1.7,9.617h37.858l-3.273,18.559H423.54Z" transform="translate(13749.479 13423.102)"/>
    <path id="Path_445" data-name="Path 445" d="M929.735,251.484h35.681l-7.722,43.752H942.8l1.238-7.02a21.4,21.4,0,0,1-8.993,6.345,30.928,30.928,0,0,1-11.19,2.116,34.108,34.108,0,0,1-14.638-3.077A31.16,31.16,0,0,1,891.9,272.878a34.767,34.767,0,0,1-.46-15.145,42.553,42.553,0,0,1,5.8-15.145,51.4,51.4,0,0,1,24.621-20.721,41.826,41.826,0,0,1,15.724-3.077,33.311,33.311,0,0,1,16.987,4.279,31.218,31.218,0,0,1,11.559,11.394L948.8,245.043a15.278,15.278,0,0,0-5.887-5.621,17.6,17.6,0,0,0-8.6-2.068,21.823,21.823,0,0,0-8.154,1.587A25.281,25.281,0,0,0,919,243.267a25.991,25.991,0,0,0-5.413,6.492,23.508,23.508,0,0,0-2.976,7.98,19.356,19.356,0,0,0,.165,7.982,16.28,16.28,0,0,0,3.125,6.49,15.54,15.54,0,0,0,5.642,4.326,17.821,17.821,0,0,0,7.595,1.587,20.5,20.5,0,0,0,9.514-2.314,25.549,25.549,0,0,0,7.839-6.249l.374-2.116H926.922Z" transform="translate(13359.444 13430.38)"/>
    <path id="Path_446" data-name="Path 446" d="M1433.614,227.51l16.661,75h-20.683l-2.149-10.962h-29.126l-6.013,10.962H1371.62l43.212-75Zm-13.735,24.616-12.042,22.021h16.225Z" transform="translate(12958.138 13423.102)"/>
    <path id="Path_447" data-name="Path 447" d="M1947.846,227.51h18.88l-9.952,56.445h35.484l-3.273,18.559H1934.62Z" transform="translate(12488.213 13423.102)"/>
    <path id="Path_959" data-name="Path 959" d="M20.582,0A20.582,20.582,0,1,1,0,20.582,20.582,20.582,0,0,1,20.582,0Z" transform="translate(14489.285 13655.456)" fill="#f8951d"/>
    <path id="Path_960" data-name="Path 960" d="M20.582,0A20.582,20.582,0,1,1,0,20.582,20.582,20.582,0,0,1,20.582,0Z" transform="translate(14537.477 13655.456)" fill="#f8951d"/>
    <path id="Path_961" data-name="Path 961" d="M20.582,0A20.582,20.582,0,1,1,0,20.582,20.582,20.582,0,0,1,20.582,0Z" transform="translate(14585.915 13655.456)" fill="#f8951d"/>
    <path id="Path_448" data-name="Path 448" d="M2426.242,335.211H2410.51v-4.234l7.686-7.139q.661-.615,1.157-1.106a9.163,9.163,0,0,0,.793-.9,3.435,3.435,0,0,0,.46-.8,2.239,2.239,0,0,0,.152-.813,1.733,1.733,0,0,0-.557-1.323,2.154,2.154,0,0,0-1.531-.519,2.512,2.512,0,0,0-1.754.63,2.349,2.349,0,0,0-.7,1.835v.645h-5.431v-.645a8,8,0,0,1,.724-3.515,7.363,7.363,0,0,1,1.866-2.465,7.728,7.728,0,0,1,2.561-1.443,8.81,8.81,0,0,1,2.81-.476,8.423,8.423,0,0,1,2.911.5,7.362,7.362,0,0,1,2.422,1.443,7,7,0,0,1,1.671,2.283,7.164,7.164,0,0,1,.627,3.052,6.883,6.883,0,0,1-.447,2.536,9.628,9.628,0,0,1-1.114,2.073,12.284,12.284,0,0,1-1.461,1.708q-.794.77-1.461,1.415l-1.838,1.681h6.181Z" transform="translate(12090.997 13351.789)" fill="#fff"/>
    <path id="Path_449" data-name="Path 449" d="M2717.113,321.773h-7.866l-.243,2.1a4.055,4.055,0,0,1,1.23-.387,11.241,11.241,0,0,1,1.473-.083,6.719,6.719,0,0,1,6.347,4.316,7.95,7.95,0,0,1-.107,5.894,7.216,7.216,0,0,1-1.711,2.42,8.1,8.1,0,0,1-2.6,1.59,8.842,8.842,0,0,1-3.23.582,9.1,9.1,0,0,1-2.662-.374,9.412,9.412,0,0,1-4.122-2.531,11.153,11.153,0,0,1-1.407-1.819l4.6-2.739a5.73,5.73,0,0,0,1.635,1.549,3.693,3.693,0,0,0,1.933.526,2.808,2.808,0,0,0,1.984-.661,2.149,2.149,0,0,0,.716-1.633,2.824,2.824,0,0,0-.107-.747,2.244,2.244,0,0,0-.352-.719,1.775,1.775,0,0,0-.661-.539,2.267,2.267,0,0,0-1.015-.208,3.581,3.581,0,0,0-1.526.36,5.838,5.838,0,0,0-1.637,1.245l-4.565-2.171,2.029-11.538h11.865Z" transform="translate(11847.514 13349.066)" fill="#fff"/>
    <path id="Path_450" data-name="Path 450" d="M3014.2,318.657l4.662-1.617h3.655v21.368h-5.427V323.34l-2.89,1.015Z" transform="translate(11587.109 13348.373)" fill="#fff"/>
    <path id="Path_451" data-name="Path 451" d="M2477.661,545.81h72.41a10.581,10.581,0,0,1,10.581,10.581H2467.08A10.581,10.581,0,0,1,2477.661,545.81Z" transform="translate(12043.779 13157.424)"/>
    <path id="Path_452" data-name="Path 452" d="M2401.661,616.81h97.7a10.581,10.581,0,0,1,10.581,10.581H2391.08A10.581,10.581,0,0,1,2401.661,616.81Z" transform="translate(12107.215 13098.161)"/>
    <path id="Path_453" data-name="Path 453" d="M2626.585,3.36,2626.222,2a2.69,2.69,0,0,0-3.293-1.9l-17.488,4.672a2.69,2.69,0,0,0-1.9,3.293l.364,1.359a2.688,2.688,0,0,0,3.042,1.959l17.984-4.8a2.693,2.693,0,0,0,1.66-3.215Z" transform="translate(11929.959 13612.996)"/>
    <path id="Path_454" data-name="Path 454" d="M2669.589,164.06l-.364-1.359a2.69,2.69,0,0,0-3.293-1.9l-17.488,4.672a2.692,2.692,0,0,0-1.911,3.3l.364,1.357a2.688,2.688,0,0,0,3.042,1.959l17.984-4.8A2.691,2.691,0,0,0,2669.589,164.06Z" transform="translate(11894.07 13478.863)"/>
    <path id="Path_455" data-name="Path 455" d="M2418.49,77.827a8.281,8.281,0,0,0,.76.732l.182.152.177.137c.121.1.235.165.351.253a7.037,7.037,0,0,0,1.323.726,4.815,4.815,0,0,0,2.354.372c.184-.02.362-.055.541-.089l.537-.1c.357-.064.712-.141,1.07-.212s.713-.149,1.066-.226.711-.155,1.065-.238c.708-.165,1.413-.331,2.118-.508l1.056-.266,1.053-.276q1.052-.279,2.1-.574t2.094-.6l2.088-.62,2.081-.641,2.078-.661,2.073-.678,2.07-.693,2.063-.711c.688-.24,1.375-.479,2.06-.727s1.371-.5,2.055-.746l-.284-1.06,3.035-1.238,1.6,5.971,17.926-4.8L2471.25,55.82l-17.931,4.8,1.6,5.971-3.247.446-.283-1.061c-.719.122-1.437.253-2.149.384s-1.433.263-2.149.4l-2.149.418-2.139.433-2.134.451-2.129.466-2.111.486-2.118.508q-1.059.255-2.113.527c-.7.18-1.405.367-2.106.554l-1.05.289-1.048.3c-.7.2-1.4.407-2.088.622-.349.1-.694.213-1.04.331s-.693.22-1.038.331-.689.228-1.033.35l-.514.182c-.165.06-.344.117-.513.193a4.783,4.783,0,0,0-1.853,1.5,6.849,6.849,0,0,0-.78,1.288c-.061.129-.123.251-.177.4l-.086.207-.081.223a8.394,8.394,0,0,0-.3,1.015Z" transform="translate(12084.336 13566.407)"/>
    <path id="Path_962" data-name="Path 962" d="M0,0H6.743V1.653H0Z" transform="matrix(0.904, -0.428, 0.428, 0.904, 14562.114, 13648.851)"/>
    <path id="Path_963" data-name="Path 963" d="M0,0H6.743V1.653H0Z" transform="matrix(0.904, -0.428, 0.428, 0.904, 14538.639, 13658.769)"/>
    <path id="Path_964" data-name="Path 964" d="M0,0H6.743V1.653H0Z" transform="matrix(0.997, -0.074, 0.074, 0.997, 14563.405, 13652.185)"/>
    <path id="Path_965" data-name="Path 965" d="M0,0H6.743V1.653H0Z" transform="matrix(0.997, -0.074, 0.074, 0.997, 14537.945, 13652.845)"/>
    <path id="Path_966" data-name="Path 966" d="M20.948,0A20.948,20.948,0,1,1,0,20.948,20.948,20.948,0,0,1,20.948,0Z" transform="translate(14715 13656.21)" fill="#f8951d"/>
    <path id="Path_967" data-name="Path 967" d="M20.948,0A20.948,20.948,0,1,1,0,20.948,20.948,20.948,0,0,1,20.948,0Z" transform="translate(14764.047 13656.21)" fill="#f8951d"/>
    <path id="Path_968" data-name="Path 968" d="M20.948,0A20.948,20.948,0,1,1,0,20.948,20.948,20.948,0,0,1,20.948,0Z" transform="translate(14813.347 13656.21)" fill="#f8951d"/>
    <path id="Path_448-2" data-name="Path 448" d="M2426.521,335.606H2410.51V331.3l7.822-7.265q.673-.626,1.178-1.126a9.321,9.321,0,0,0,.808-.912,3.489,3.489,0,0,0,.468-.813,2.276,2.276,0,0,0,.155-.828,1.763,1.763,0,0,0-.567-1.346,2.193,2.193,0,0,0-1.558-.528,2.557,2.557,0,0,0-1.785.641,2.391,2.391,0,0,0-.708,1.868v.656h-5.527v-.656a8.143,8.143,0,0,1,.737-3.577,7.5,7.5,0,0,1,1.9-2.509,7.867,7.867,0,0,1,2.607-1.469,8.967,8.967,0,0,1,2.86-.485,8.573,8.573,0,0,1,2.963.5,7.491,7.491,0,0,1,2.465,1.469,7.123,7.123,0,0,1,1.7,2.324,7.293,7.293,0,0,1,.638,3.106,7.011,7.011,0,0,1-.455,2.581,9.8,9.8,0,0,1-1.134,2.11,12.511,12.511,0,0,1-1.487,1.738q-.808.784-1.488,1.44l-1.871,1.711h6.291Z" transform="translate(12316.93 13352.707)" fill="#fff"/>
    <path id="Path_449-2" data-name="Path 449" d="M2717.378,321.872h-8.005l-.248,2.14a4.125,4.125,0,0,1,1.252-.394,11.441,11.441,0,0,1,1.5-.084,6.838,6.838,0,0,1,6.46,4.393,8.092,8.092,0,0,1-.109,6,7.345,7.345,0,0,1-1.742,2.463,8.247,8.247,0,0,1-2.642,1.619,9,9,0,0,1-3.288.592,9.262,9.262,0,0,1-2.709-.38,9.578,9.578,0,0,1-4.195-2.576,11.354,11.354,0,0,1-1.432-1.851L2706.9,331a5.831,5.831,0,0,0,1.664,1.577,3.758,3.758,0,0,0,1.967.535,2.859,2.859,0,0,0,2.019-.673,2.188,2.188,0,0,0,.729-1.662,2.873,2.873,0,0,0-.109-.761,2.281,2.281,0,0,0-.359-.732,1.806,1.806,0,0,0-.673-.549,2.307,2.307,0,0,0-1.033-.212,3.644,3.644,0,0,0-1.553.367,5.944,5.944,0,0,0-1.666,1.267l-4.646-2.209,2.065-11.743h12.076Z" transform="translate(12074.302 13349.994)" fill="#fff"/>
    <path id="Path_450-2" data-name="Path 450" d="M3014.2,318.686l4.745-1.646h3.72v21.747h-5.524V323.452l-2.941,1.033Z" transform="translate(11814.814 13349.304)" fill="#fff"/>
    <path id="Path_451-2" data-name="Path 451" d="M2477.849,545.81h73.7a10.769,10.769,0,0,1,10.769,10.768H2467.08A10.769,10.769,0,0,1,2477.849,545.81Z" transform="translate(12269.877 13159.026)"/>
    <path id="Path_452-2" data-name="Path 452" d="M2401.849,616.81h99.44a10.768,10.768,0,0,1,10.769,10.768H2391.08A10.768,10.768,0,0,1,2401.849,616.81Z" transform="translate(12333.09 13099.973)"/>
    <path id="Path_453-2" data-name="Path 453" d="M2627,3.419l-.37-1.383A2.737,2.737,0,0,0,2623.275.1l-17.8,4.755a2.738,2.738,0,0,0-1.938,3.352l.37,1.383a2.736,2.736,0,0,0,3.1,1.994l18.3-4.89A2.741,2.741,0,0,0,2627,3.419Z" transform="translate(12156.457 13612.996)"/>
    <path id="Path_454-2" data-name="Path 454" d="M2670,164.119l-.37-1.383a2.738,2.738,0,0,0-3.352-1.938l-17.8,4.755a2.74,2.74,0,0,0-1.945,3.36l.37,1.381a2.736,2.736,0,0,0,3.1,1.994l18.3-4.89A2.739,2.739,0,0,0,2670,164.119Z" transform="translate(12120.695 13479.335)"/>
    <path id="Path_455-2" data-name="Path 455" d="M2418.49,78.218a8.438,8.438,0,0,0,.774.745l.185.155.18.14c.123.1.239.168.357.257a7.168,7.168,0,0,0,1.346.739,4.9,4.9,0,0,0,2.4.379c.187-.02.368-.056.55-.091l.547-.1c.363-.066.725-.143,1.089-.215s.725-.151,1.085-.231.723-.158,1.083-.242c.72-.168,1.438-.337,2.155-.517l1.075-.271,1.072-.281q1.07-.284,2.139-.584t2.132-.609l2.125-.631,2.118-.653,2.115-.673,2.11-.69,2.106-.705,2.1-.724c.7-.244,1.4-.488,2.1-.74s1.4-.5,2.092-.759l-.29-1.079,3.089-1.26,1.63,6.077,18.244-4.89-4-14.945-18.249,4.89,1.628,6.077-3.3.454-.288-1.08c-.732.125-1.462.257-2.187.39s-1.459.268-2.187.406l-2.187.426-2.177.441-2.172.459-2.167.474-2.148.495-2.156.517q-1.078.259-2.15.537c-.717.183-1.43.374-2.143.564l-1.069.294-1.067.3c-.71.205-1.42.414-2.125.633-.355.106-.707.217-1.059.337s-.7.224-1.056.337-.7.232-1.052.357l-.523.185c-.168.061-.35.119-.522.2a4.867,4.867,0,0,0-1.886,1.526,6.982,6.982,0,0,0-.794,1.311c-.062.131-.125.256-.18.4l-.087.21-.083.227a8.549,8.549,0,0,0-.306,1.033Z" transform="translate(12310.291 13566.571)"/>
    <path id="Path_969" data-name="Path 969" d="M0,0H6.863V1.683H0Z" transform="matrix(0.904, -0.428, 0.428, 0.904, 14789.122, 13649.487)"/>
    <path id="Path_970" data-name="Path 970" d="M0,0H6.863V1.683H0Z" transform="matrix(0.904, -0.428, 0.428, 0.904, 14765.23, 13659.582)"/>
    <path id="Path_971" data-name="Path 971" d="M0,0H6.863V1.683H0Z" transform="matrix(0.997, -0.074, 0.074, 0.997, 14790.437, 13652.881)"/>
    <path id="Path_972" data-name="Path 972" d="M0,0H6.863V1.683H0Z" transform="matrix(0.997, -0.074, 0.074, 0.997, 14764.524, 13653.554)"/>
  </g>
</svg>
