<svg xmlns="http://www.w3.org/2000/svg" width="420" height="488.341" viewBox="0 0 420 488.341">
  <g id="Group_241" data-name="Group 241" transform="translate(-14147 -13821.765)">
    <path id="Path_973" data-name="Path 973" d="M-89.693,0V-10.95h1.14V0Zm.84,0V-1.035h5.145V0Zm10.26.255A4.125,4.125,0,0,1-80.363-.1a3.433,3.433,0,0,1-1.23-.945,4.011,4.011,0,0,1-.712-1.327,4.993,4.993,0,0,1-.233-1.515V-4.1a4.945,4.945,0,0,1,.233-1.5,3.928,3.928,0,0,1,.712-1.32,3.524,3.524,0,0,1,1.208-.937,3.863,3.863,0,0,1,1.7-.353,3.666,3.666,0,0,1,2.077.555,3.553,3.553,0,0,1,1.253,1.418,4.175,4.175,0,0,1,.42,1.852V-3.8h-7.1v-.87h6.315L-76-4.23a3.676,3.676,0,0,0-.307-1.553,2.43,2.43,0,0,0-.9-1.05,2.671,2.671,0,0,0-1.478-.383,2.61,2.61,0,0,0-1.545.435,2.665,2.665,0,0,0-.923,1.155,4.127,4.127,0,0,0-.308,1.635,4.253,4.253,0,0,0,.308,1.642,2.59,2.59,0,0,0,.945,1.178,2.8,2.8,0,0,0,1.613.435,2.774,2.774,0,0,0,1.68-.473,1.926,1.926,0,0,0,.8-1.117h1.05A2.967,2.967,0,0,1-75.7-.953a3.179,3.179,0,0,1-1.215.893A4.23,4.23,0,0,1-78.592.255Zm8.85,2.85q-.555,0-1.118-.053t-1.073-.127v-.96q.54.075,1.132.128t1.118.052a4.542,4.542,0,0,0,1.815-.3A1.839,1.839,0,0,0-66.9.893a4.245,4.245,0,0,0,.293-1.718v-1.59l.42-1.11a4.239,4.239,0,0,1-.48,1.958A3.153,3.153,0,0,1-67.883-.315a3.457,3.457,0,0,1-1.74.435,3.585,3.585,0,0,1-1.553-.33,3.553,3.553,0,0,1-1.192-.908,4.25,4.25,0,0,1-.765-1.313,4.445,4.445,0,0,1-.27-1.545v-.21a4.34,4.34,0,0,1,.27-1.523A4.084,4.084,0,0,1-72.368-7a3.519,3.519,0,0,1,1.207-.885,3.794,3.794,0,0,1,1.583-.323,3.506,3.506,0,0,1,1.83.465,3.267,3.267,0,0,1,1.222,1.29,4.286,4.286,0,0,1,.473,1.935l-.36-.195V-7.935h.885V-.87a5.317,5.317,0,0,1-.42,2.3A2.594,2.594,0,0,1-67.29,2.7,6.189,6.189,0,0,1-69.743,3.105Zm.315-4.02a2.941,2.941,0,0,0,1.447-.353,2.622,2.622,0,0,0,1.013-1,2.93,2.93,0,0,0,.375-1.5V-4.5a2.67,2.67,0,0,0-.382-1.44,2.7,2.7,0,0,0-1.013-.96,2.949,2.949,0,0,0-1.44-.345,2.714,2.714,0,0,0-1.515.42,2.756,2.756,0,0,0-.99,1.132,3.653,3.653,0,0,0-.345,1.613,3.671,3.671,0,0,0,.353,1.635,2.7,2.7,0,0,0,1,1.125A2.761,2.761,0,0,0-69.428-.915ZM-57.878,0V-2.385h-.18V-5.2a1.855,1.855,0,0,0-.465-1.358,1.943,1.943,0,0,0-1.44-.472q-.45,0-.908.015t-.87.037q-.413.023-.728.053v-.99l.675-.06q.345-.03.713-.037t.713-.008a5.314,5.314,0,0,1,1.957.3,2.064,2.064,0,0,1,1.088.938A3.547,3.547,0,0,1-56.978-5.1V0Zm-2.685.21a3.485,3.485,0,0,1-1.485-.3,2.262,2.262,0,0,1-1-.87A2.574,2.574,0,0,1-63.4-2.34a2.391,2.391,0,0,1,.368-1.35,2.3,2.3,0,0,1,1.065-.848,4.359,4.359,0,0,1,1.688-.293h2.325v.855h-2.4a2.078,2.078,0,0,0-1.448.457,1.537,1.537,0,0,0-.5,1.193,1.479,1.479,0,0,0,.525,1.192,2.141,2.141,0,0,0,1.425.442,2.86,2.86,0,0,0,1.065-.2,1.9,1.9,0,0,0,.855-.69,2.444,2.444,0,0,0,.375-1.343l.33.465a3.234,3.234,0,0,1-.42,1.477,2.3,2.3,0,0,1-.975.893A3.249,3.249,0,0,1-60.563.21ZM-54.1,0V-10.95h1.125V0Zm-1.155-10.035v-.915h2.28v.915ZM-50.3,0V-1.665a2.953,2.953,0,0,1,.18-1.1,2.1,2.1,0,0,1,.63-.825,5.251,5.251,0,0,1,1.23-.72l2.145-1.005a3.346,3.346,0,0,0,1.245-.945,2.386,2.386,0,0,0,.465-1.53,2.443,2.443,0,0,0-.653-1.807,2.422,2.422,0,0,0-1.792-.653,2.454,2.454,0,0,0-1.792.653,2.411,2.411,0,0,0-.668,1.807h-1.095A3.751,3.751,0,0,1-50-9.54a3.008,3.008,0,0,1,1.2-1.237,3.854,3.854,0,0,1,1.95-.458,3.8,3.8,0,0,1,1.95.458,3.073,3.073,0,0,1,1.185,1.215,3.491,3.491,0,0,1,.405,1.673v.21a2.923,2.923,0,0,1-.668,1.958,5.1,5.1,0,0,1-1.747,1.3l-2.16,1a2.539,2.539,0,0,0-1.028.713,1.574,1.574,0,0,0-.263.938V-.435l-.33-.54h6.375V0Zm12.69.255a4,4,0,0,1-2.085-.5,3.35,3.35,0,0,1-1.275-1.328,3.739,3.739,0,0,1-.435-1.77h1.095A2.719,2.719,0,0,0-39.99-2.01a2.389,2.389,0,0,0,.923.93,2.874,2.874,0,0,0,1.455.345,2.926,2.926,0,0,0,1.455-.337A2.325,2.325,0,0,0-35.235-2a2.762,2.762,0,0,0,.323-1.342,2.828,2.828,0,0,0-.315-1.335,2.347,2.347,0,0,0-.923-.952,2.867,2.867,0,0,0-1.463-.352,3.6,3.6,0,0,0-1.185.2,2.519,2.519,0,0,0-.975.593h-1.035l.57-5.76h5.445v.975h-4.83l.315-.39-.45,4.5L-40.1-5.94a3.457,3.457,0,0,1,1.1-.735,3.626,3.626,0,0,1,1.44-.27,3.922,3.922,0,0,1,2.07.51A3.391,3.391,0,0,1-34.23-5.123,3.54,3.54,0,0,1-33.8-3.435v.2a3.492,3.492,0,0,1-.435,1.687A3.38,3.38,0,0,1-35.52-.248,4.04,4.04,0,0,1-37.613.255ZM-29.873,0V-10.365l.495.39h-2.985v-.975h3.615V0Zm12.1.255A3.547,3.547,0,0,1-19.605-.21a3.227,3.227,0,0,1-1.23-1.305,4.353,4.353,0,0,1-.472-1.935h.345V0h-.9V-10.95h1.125v5.475l-.435,1.005A4.4,4.4,0,0,1-20.685-6.5a3.163,3.163,0,0,1,1.23-1.267,3.53,3.53,0,0,1,1.762-.435,3.67,3.67,0,0,1,1.575.33,3.657,3.657,0,0,1,1.207.9,3.959,3.959,0,0,1,.765,1.313A4.668,4.668,0,0,1-13.883-4.1v.21a4.508,4.508,0,0,1-.27,1.552A4.245,4.245,0,0,1-14.925-1a3.61,3.61,0,0,1-1.223.922A3.772,3.772,0,0,1-17.768.255Zm-.12-.99a2.7,2.7,0,0,0,1.545-.435,2.83,2.83,0,0,0,.99-1.17,3.837,3.837,0,0,0,.345-1.65,3.754,3.754,0,0,0-.352-1.658A2.77,2.77,0,0,0-16.365-6.8a2.751,2.751,0,0,0-1.522-.42,3.019,3.019,0,0,0-1.47.36A2.67,2.67,0,0,0-20.4-5.843,2.986,2.986,0,0,0-20.783-4.3v.735A2.816,2.816,0,0,0-20.4-2.093a2.7,2.7,0,0,0,1.042,1A3.019,3.019,0,0,0-17.888-.735ZM-11.6,0V-7.935h.9V-4.62h-.09a3.7,3.7,0,0,1,.765-2.573,3.113,3.113,0,0,1,2.4-.832h.255v1.02h-.465A2.68,2.68,0,0,0-9.8-6.338a2.635,2.635,0,0,0-.675,1.957V0ZM-.758,0V-2.385h-.18V-5.2A1.855,1.855,0,0,0-1.4-6.563a1.943,1.943,0,0,0-1.44-.472q-.45,0-.907.015t-.87.037q-.413.023-.727.053v-.99l.675-.06q.345-.03.713-.037t.713-.008a5.314,5.314,0,0,1,1.957.3A2.064,2.064,0,0,1-.2-6.788,3.547,3.547,0,0,1,.142-5.1V0ZM-3.443.21a3.485,3.485,0,0,1-1.485-.3,2.262,2.262,0,0,1-1-.87,2.574,2.574,0,0,1-.353-1.38A2.391,2.391,0,0,1-5.91-3.69a2.3,2.3,0,0,1,1.065-.848A4.359,4.359,0,0,1-3.158-4.83H-.833v.855h-2.4a2.078,2.078,0,0,0-1.447.457,1.537,1.537,0,0,0-.5,1.193,1.479,1.479,0,0,0,.525,1.192A2.141,2.141,0,0,0-3.233-.69a2.86,2.86,0,0,0,1.065-.2,1.9,1.9,0,0,0,.855-.69A2.444,2.444,0,0,0-.938-2.925l.33.465a3.234,3.234,0,0,1-.42,1.477A2.3,2.3,0,0,1-2-.09,3.249,3.249,0,0,1-3.443.21ZM2.948,0V-7.935h.9v3.33h-.18A4.959,4.959,0,0,1,4-6.51a2.641,2.641,0,0,1,.99-1.23,2.966,2.966,0,0,1,1.665-.435H6.7a2.665,2.665,0,0,1,2.235.938,4.174,4.174,0,0,1,.735,2.633V0H8.558V-4.845a2.387,2.387,0,0,0-.57-1.665A2.035,2.035,0,0,0,6.4-7.14a2.252,2.252,0,0,0-1.687.652A2.352,2.352,0,0,0,4.073-4.77V0Zm12.78.255a3.794,3.794,0,0,1-1.582-.323,3.659,3.659,0,0,1-1.23-.9,4.12,4.12,0,0,1-.8-1.32,4.483,4.483,0,0,1-.278-1.583v-.21a4.507,4.507,0,0,1,.27-1.552,4.153,4.153,0,0,1,.773-1.32A3.677,3.677,0,0,1,14.1-7.868a3.686,3.686,0,0,1,1.6-.338,3.518,3.518,0,0,1,1.77.435A3.256,3.256,0,0,1,18.7-6.517a4.216,4.216,0,0,1,.495,2l-.495-.93V-10.95h1.125V0h-.9V-3.525h.36a4.356,4.356,0,0,1-.517,2.092A3.2,3.2,0,0,1,17.49-.165,3.686,3.686,0,0,1,15.728.255Zm.15-.99A2.976,2.976,0,0,0,17.34-1.1a2.6,2.6,0,0,0,1.028-1.028,3.085,3.085,0,0,0,.375-1.538v-.72a2.86,2.86,0,0,0-.375-1.477,2.662,2.662,0,0,0-1.028-1,3.007,3.007,0,0,0-1.477-.36,2.742,2.742,0,0,0-1.538.428A2.811,2.811,0,0,0,13.32-5.625a3.767,3.767,0,0,0-.352,1.65,3.771,3.771,0,0,0,.36,1.68,2.742,2.742,0,0,0,1.02,1.148A2.826,2.826,0,0,0,15.878-.735ZM31.058,0V-2.385h-.18V-5.2a1.855,1.855,0,0,0-.465-1.358,1.943,1.943,0,0,0-1.44-.472q-.45,0-.908.015t-.87.037q-.412.023-.728.053v-.99l.675-.06q.345-.03.712-.037t.712-.008a5.314,5.314,0,0,1,1.958.3,2.064,2.064,0,0,1,1.087.938A3.547,3.547,0,0,1,31.958-5.1V0ZM28.373.21a3.485,3.485,0,0,1-1.485-.3,2.262,2.262,0,0,1-1-.87,2.574,2.574,0,0,1-.353-1.38,2.391,2.391,0,0,1,.368-1.35,2.3,2.3,0,0,1,1.065-.848,4.359,4.359,0,0,1,1.688-.293h2.325v.855h-2.4a2.078,2.078,0,0,0-1.448.457,1.537,1.537,0,0,0-.5,1.193,1.479,1.479,0,0,0,.525,1.192,2.141,2.141,0,0,0,1.425.442,2.86,2.86,0,0,0,1.065-.2,1.9,1.9,0,0,0,.855-.69,2.444,2.444,0,0,0,.375-1.343l.33.465a3.234,3.234,0,0,1-.42,1.477,2.3,2.3,0,0,1-.975.893A3.249,3.249,0,0,1,28.373.21Zm9.27-.12a3.83,3.83,0,0,1-1.425-.24,1.829,1.829,0,0,1-.93-.818,3.127,3.127,0,0,1-.33-1.553v-7.92h1.08v8.085A1.414,1.414,0,0,0,36.413-1.3a1.458,1.458,0,0,0,1.065.367H38.9V.09Zm-4.11-7.17v-.855H38.9v.855ZM43.958.09a3.83,3.83,0,0,1-1.425-.24,1.829,1.829,0,0,1-.93-.818,3.127,3.127,0,0,1-.33-1.553v-7.92h1.08v8.085A1.414,1.414,0,0,0,42.728-1.3a1.458,1.458,0,0,0,1.065.367h1.425V.09Zm-4.11-7.17v-.855h5.37v.855ZM47.393,0V-7.935h.9V-4.62H48.2a3.7,3.7,0,0,1,.765-2.573,3.113,3.113,0,0,1,2.4-.832h.255v1.02h-.465a2.68,2.68,0,0,0-1.965.668,2.635,2.635,0,0,0-.675,1.957V0Zm6.465,0V-7.935h1.11V0ZM52.583-7.035v-.9h2.385v.9ZM54.1-9.405a.791.791,0,0,1-.608-.217.772.772,0,0,1-.2-.547.772.772,0,0,1,.2-.547.791.791,0,0,1,.608-.218.766.766,0,0,1,.6.218.789.789,0,0,1,.195.547.789.789,0,0,1-.195.547A.766.766,0,0,1,54.1-9.405Zm7.92,9.66A3.546,3.546,0,0,1,60.18-.21a3.227,3.227,0,0,1-1.23-1.305,4.353,4.353,0,0,1-.473-1.935h.345V0h-.9V-10.95h1.125v5.475L58.613-4.47A4.4,4.4,0,0,1,59.1-6.5,3.163,3.163,0,0,1,60.33-7.77a3.53,3.53,0,0,1,1.763-.435,3.67,3.67,0,0,1,1.575.33,3.657,3.657,0,0,1,1.208.9,3.959,3.959,0,0,1,.765,1.313A4.668,4.668,0,0,1,65.9-4.1v.21a4.507,4.507,0,0,1-.27,1.552A4.245,4.245,0,0,1,64.86-1a3.61,3.61,0,0,1-1.223.922A3.772,3.772,0,0,1,62.018.255Zm-.12-.99a2.7,2.7,0,0,0,1.545-.435,2.83,2.83,0,0,0,.99-1.17,3.837,3.837,0,0,0,.345-1.65,3.754,3.754,0,0,0-.352-1.658A2.77,2.77,0,0,0,63.42-6.8a2.751,2.751,0,0,0-1.522-.42,3.019,3.019,0,0,0-1.47.36,2.67,2.67,0,0,0-1.042,1.013A2.986,2.986,0,0,0,59-4.3v.735a2.816,2.816,0,0,0,.382,1.477,2.7,2.7,0,0,0,1.042,1A3.019,3.019,0,0,0,61.9-.735Zm9.03.96A2.64,2.64,0,0,1,68.753-.7,3.972,3.972,0,0,1,68-3.27V-7.95h1.11v4.905A2.362,2.362,0,0,0,69.66-1.4,1.945,1.945,0,0,0,71.183-.8,2.13,2.13,0,0,0,72.81-1.44a2.413,2.413,0,0,0,.608-1.725V-7.95h1.125V0h-.9V-3.315h.18a5.11,5.11,0,0,1-.315,1.9A2.579,2.579,0,0,1,72.563-.2a2.771,2.771,0,0,1-1.59.428ZM80.363.09a3.83,3.83,0,0,1-1.425-.24,1.829,1.829,0,0,1-.93-.818,3.127,3.127,0,0,1-.33-1.553v-7.92h1.08v8.085A1.414,1.414,0,0,0,79.133-1.3,1.458,1.458,0,0,0,80.2-.93h1.425V.09Zm-4.11-7.17v-.855h5.37v.855ZM87.038.255A4.125,4.125,0,0,1,85.268-.1a3.433,3.433,0,0,1-1.23-.945,4.011,4.011,0,0,1-.712-1.327,4.993,4.993,0,0,1-.233-1.515V-4.1a4.945,4.945,0,0,1,.233-1.5,3.928,3.928,0,0,1,.712-1.32,3.524,3.524,0,0,1,1.208-.937,3.863,3.863,0,0,1,1.7-.353,3.666,3.666,0,0,1,2.077.555,3.553,3.553,0,0,1,1.253,1.418A4.175,4.175,0,0,1,90.7-4.38V-3.8H83.6v-.87h6.315l-.285.435a3.676,3.676,0,0,0-.307-1.553,2.43,2.43,0,0,0-.9-1.05,2.671,2.671,0,0,0-1.478-.383A2.61,2.61,0,0,0,85.4-6.78a2.665,2.665,0,0,0-.923,1.155,4.127,4.127,0,0,0-.308,1.635,4.253,4.253,0,0,0,.308,1.642,2.59,2.59,0,0,0,.945,1.178,2.8,2.8,0,0,0,1.612.435,2.774,2.774,0,0,0,1.68-.473,1.926,1.926,0,0,0,.8-1.117h1.05a2.967,2.967,0,0,1-.63,1.373,3.179,3.179,0,0,1-1.215.893A4.23,4.23,0,0,1,87.038.255Z" transform="translate(14357 14307)" fill="#262626"/>
    <path id="Path_974" data-name="Path 974" d="M6.375.255A5.6,5.6,0,0,1,3.863-.262a4.818,4.818,0,0,1-1.7-1.358,5.634,5.634,0,0,1-.952-1.823,6.533,6.533,0,0,1-.3-1.913V-5.64a6.765,6.765,0,0,1,.307-2,5.383,5.383,0,0,1,.96-1.808,4.725,4.725,0,0,1,1.672-1.3,5.55,5.55,0,0,1,2.415-.488,5.565,5.565,0,0,1,2.438.495A4.127,4.127,0,0,1,10.35-9.353a4.531,4.531,0,0,1,.75,2.108H9.945a3.225,3.225,0,0,0-.63-1.628,3.172,3.172,0,0,0-1.3-.983,4.479,4.479,0,0,0-1.747-.33,4.266,4.266,0,0,0-1.822.368A3.626,3.626,0,0,0,3.135-8.8,4.59,4.59,0,0,0,2.34-7.3,5.921,5.921,0,0,0,2.07-5.49a5.849,5.849,0,0,0,.263,1.755,4.514,4.514,0,0,0,.8,1.507,3.791,3.791,0,0,0,1.35,1.05A4.383,4.383,0,0,0,6.375-.8,4.109,4.109,0,0,0,8.9-1.553a3.268,3.268,0,0,0,1.26-2.183H11.31A4.82,4.82,0,0,1,10.53-1.7,4.288,4.288,0,0,1,8.873-.27,5.5,5.5,0,0,1,6.375.255ZM13.44,0V-10.95h1.125V0ZM12.285-10.035v-.915h2.28v.915ZM22.305,0V-2.385h-.18V-5.2a1.855,1.855,0,0,0-.465-1.358,1.943,1.943,0,0,0-1.44-.472q-.45,0-.908.015t-.87.037q-.412.023-.728.053v-.99l.675-.06q.345-.03.712-.037t.712-.008a5.314,5.314,0,0,1,1.958.3,2.064,2.064,0,0,1,1.087.938A3.547,3.547,0,0,1,23.205-5.1V0ZM19.62.21a3.485,3.485,0,0,1-1.485-.3,2.262,2.262,0,0,1-1-.87,2.574,2.574,0,0,1-.353-1.38,2.391,2.391,0,0,1,.368-1.35,2.3,2.3,0,0,1,1.065-.848,4.359,4.359,0,0,1,1.688-.293H22.23v.855h-2.4a2.078,2.078,0,0,0-1.448.457,1.537,1.537,0,0,0-.5,1.193,1.479,1.479,0,0,0,.525,1.192A2.141,2.141,0,0,0,19.83-.69a2.86,2.86,0,0,0,1.065-.2,1.9,1.9,0,0,0,.855-.69,2.444,2.444,0,0,0,.375-1.343l.33.465a3.234,3.234,0,0,1-.42,1.477,2.3,2.3,0,0,1-.975.893A3.249,3.249,0,0,1,19.62.21Zm8.895.015A3.66,3.66,0,0,1,26.16-.443a2.228,2.228,0,0,1-.84-1.793h1.05A1.522,1.522,0,0,0,26.888-1.2a2.319,2.319,0,0,0,1.627.465,2.455,2.455,0,0,0,1.6-.442,1.349,1.349,0,0,0,.532-1.072,1.058,1.058,0,0,0-.443-.908A2.655,2.655,0,0,0,28.92-3.57l-.9-.09a3.258,3.258,0,0,1-1.747-.668A1.844,1.844,0,0,1,25.6-5.835a2.121,2.121,0,0,1,.36-1.23,2.365,2.365,0,0,1,1.013-.818,3.733,3.733,0,0,1,1.537-.293,3.379,3.379,0,0,1,2.078.6,2.045,2.045,0,0,1,.817,1.71H30.36a1.253,1.253,0,0,0-.48-.96,2.077,2.077,0,0,0-1.365-.39,2.043,2.043,0,0,0-1.387.405,1.273,1.273,0,0,0-.458.99A1.071,1.071,0,0,0,27.015-5a1.825,1.825,0,0,0,1.08.4l.9.09a4.016,4.016,0,0,1,1.958.69,1.852,1.852,0,0,1,.757,1.59,2.144,2.144,0,0,1-.4,1.268,2.609,2.609,0,0,1-1.118.878A4.162,4.162,0,0,1,28.515.225Zm7.935,0A3.66,3.66,0,0,1,34.1-.443a2.228,2.228,0,0,1-.84-1.793h1.05A1.522,1.522,0,0,0,34.823-1.2a2.319,2.319,0,0,0,1.627.465,2.455,2.455,0,0,0,1.6-.442A1.349,1.349,0,0,0,38.58-2.25a1.058,1.058,0,0,0-.443-.908,2.655,2.655,0,0,0-1.282-.412l-.9-.09a3.258,3.258,0,0,1-1.748-.668,1.844,1.844,0,0,1-.667-1.508,2.121,2.121,0,0,1,.36-1.23,2.365,2.365,0,0,1,1.013-.818,3.733,3.733,0,0,1,1.537-.293,3.379,3.379,0,0,1,2.078.6,2.045,2.045,0,0,1,.817,1.71H38.3a1.253,1.253,0,0,0-.48-.96,2.077,2.077,0,0,0-1.365-.39,2.043,2.043,0,0,0-1.388.405,1.273,1.273,0,0,0-.457.99A1.071,1.071,0,0,0,34.95-5a1.825,1.825,0,0,0,1.08.4l.9.09a4.016,4.016,0,0,1,1.958.69,1.852,1.852,0,0,1,.757,1.59,2.144,2.144,0,0,1-.4,1.268A2.609,2.609,0,0,1,38.13-.09,4.162,4.162,0,0,1,36.45.225ZM42.3,0V-7.935h1.11V0ZM41.025-7.035v-.9H43.41v.9Zm1.515-2.37a.791.791,0,0,1-.608-.217.772.772,0,0,1-.2-.547.772.772,0,0,1,.2-.547.791.791,0,0,1,.608-.218.766.766,0,0,1,.6.218.789.789,0,0,1,.195.547.789.789,0,0,1-.195.547A.766.766,0,0,1,42.54-9.405ZM49.71.255A4.037,4.037,0,0,1,47.963-.1a3.516,3.516,0,0,1-1.238-.96A4.264,4.264,0,0,1,45.983-2.4a4.626,4.626,0,0,1-.247-1.485V-4.1a4.6,4.6,0,0,1,.247-1.493,4.1,4.1,0,0,1,.743-1.32,3.6,3.6,0,0,1,1.238-.945,3.962,3.962,0,0,1,1.717-.353,4.127,4.127,0,0,1,1.763.36A3.178,3.178,0,0,1,52.7-6.825a3.128,3.128,0,0,1,.57,1.56h-1.08a2.232,2.232,0,0,0-.772-1.372,2.571,2.571,0,0,0-1.733-.548,2.707,2.707,0,0,0-1.568.428A2.639,2.639,0,0,0,47.175-5.6,4.016,4.016,0,0,0,46.86-3.99a4.086,4.086,0,0,0,.315,1.612,2.7,2.7,0,0,0,.945,1.185,2.7,2.7,0,0,0,1.59.443,2.937,2.937,0,0,0,1.283-.263,2.358,2.358,0,0,0,.885-.712,1.991,1.991,0,0,0,.4-.99h1.08a2.862,2.862,0,0,1-.562,1.568A3.355,3.355,0,0,1,51.5-.113,4.2,4.2,0,0,1,49.71.255Z" transform="translate(14147 13833)" fill="#262626"/>
    <path id="Path_975" data-name="Path 975" d="M-56.865,0V-10.95h1.485l3.45,7.575h.27l3.435-7.575h1.515V0h-1.14V-9.675l.09.015-3.33,7.35h-1.5l-3.345-7.35.12-.015V0ZM-39.99.255A4.279,4.279,0,0,1-41.783-.1a3.914,3.914,0,0,1-1.305-.945A4.179,4.179,0,0,1-43.9-2.37a4.215,4.215,0,0,1-.278-1.5v-.21a4.176,4.176,0,0,1,.285-1.508,4.113,4.113,0,0,1,.825-1.327,4.05,4.05,0,0,1,1.313-.937,4.2,4.2,0,0,1,1.762-.353,4.24,4.24,0,0,1,1.778.353,4.05,4.05,0,0,1,1.313.938,4.008,4.008,0,0,1,.817,1.327,4.276,4.276,0,0,1,.278,1.508v.21a4.319,4.319,0,0,1-.27,1.5,4.07,4.07,0,0,1-.8,1.327A3.9,3.9,0,0,1-38.19-.1,4.331,4.331,0,0,1-39.99.255Zm0-1.005a3.01,3.01,0,0,0,1.673-.443,2.907,2.907,0,0,0,1.043-1.17,3.585,3.585,0,0,0,.36-1.612A3.558,3.558,0,0,0-37.283-5.6,2.839,2.839,0,0,0-38.34-6.758a3.071,3.071,0,0,0-1.65-.428,3.042,3.042,0,0,0-1.635.428A2.839,2.839,0,0,0-42.683-5.6a3.558,3.558,0,0,0-.368,1.628,3.585,3.585,0,0,0,.36,1.612,2.907,2.907,0,0,0,1.042,1.17A2.982,2.982,0,0,0-39.99-.75ZM-30.255.255a3.794,3.794,0,0,1-1.582-.323,3.659,3.659,0,0,1-1.23-.9,4.12,4.12,0,0,1-.795-1.32A4.483,4.483,0,0,1-34.14-3.87v-.21a4.507,4.507,0,0,1,.27-1.552,4.153,4.153,0,0,1,.772-1.32,3.676,3.676,0,0,1,1.215-.915,3.686,3.686,0,0,1,1.6-.338,3.518,3.518,0,0,1,1.77.435,3.256,3.256,0,0,1,1.23,1.253,4.216,4.216,0,0,1,.495,2l-.495-.93V-10.95h1.125V0h-.9V-3.525h.36a4.356,4.356,0,0,1-.517,2.092A3.2,3.2,0,0,1-28.493-.165,3.686,3.686,0,0,1-30.255.255Zm.15-.99a2.976,2.976,0,0,0,1.462-.36,2.6,2.6,0,0,0,1.028-1.028A3.085,3.085,0,0,0-27.24-3.66v-.72a2.86,2.86,0,0,0-.375-1.477,2.662,2.662,0,0,0-1.028-1,3.007,3.007,0,0,0-1.477-.36,2.742,2.742,0,0,0-1.538.428,2.811,2.811,0,0,0-1,1.162,3.767,3.767,0,0,0-.353,1.65,3.771,3.771,0,0,0,.36,1.68,2.742,2.742,0,0,0,1.02,1.148A2.826,2.826,0,0,0-30.105-.735Zm10.17.99A4.125,4.125,0,0,1-21.705-.1a3.433,3.433,0,0,1-1.23-.945,4.011,4.011,0,0,1-.712-1.327,4.993,4.993,0,0,1-.233-1.515V-4.1a4.945,4.945,0,0,1,.233-1.5,3.928,3.928,0,0,1,.712-1.32,3.524,3.524,0,0,1,1.208-.937,3.863,3.863,0,0,1,1.7-.353,3.666,3.666,0,0,1,2.077.555A3.553,3.553,0,0,1-16.7-6.233a4.175,4.175,0,0,1,.42,1.852V-3.8h-7.1v-.87h6.315l-.285.435a3.676,3.676,0,0,0-.307-1.553,2.429,2.429,0,0,0-.9-1.05,2.671,2.671,0,0,0-1.478-.383,2.61,2.61,0,0,0-1.545.435,2.665,2.665,0,0,0-.923,1.155A4.127,4.127,0,0,0-22.8-3.99a4.253,4.253,0,0,0,.307,1.642,2.59,2.59,0,0,0,.945,1.178,2.8,2.8,0,0,0,1.612.435,2.774,2.774,0,0,0,1.68-.473,1.926,1.926,0,0,0,.8-1.117h1.05a2.967,2.967,0,0,1-.63,1.373,3.179,3.179,0,0,1-1.215.893A4.23,4.23,0,0,1-19.935.255ZM-14.115,0V-7.935h.9V-4.62h-.09a3.7,3.7,0,0,1,.765-2.573,3.113,3.113,0,0,1,2.4-.832h.255v1.02h-.465a2.68,2.68,0,0,0-1.965.668A2.635,2.635,0,0,0-12.99-4.38V0ZM-8.07,0V-7.935h.9v3.33h-.18A4.959,4.959,0,0,1-7.02-6.51a2.641,2.641,0,0,1,.99-1.23,2.966,2.966,0,0,1,1.665-.435h.045a2.665,2.665,0,0,1,2.235.938A4.174,4.174,0,0,1-1.35-4.605V0H-2.46V-4.845A2.387,2.387,0,0,0-3.03-6.51a2.035,2.035,0,0,0-1.59-.63,2.252,2.252,0,0,0-1.687.652A2.352,2.352,0,0,0-6.945-4.77V0Z" transform="translate(14567 13833)" fill="#262626"/>
    <g id="Path_976" data-name="Path 976" transform="translate(14147 13845)" fill="#fff">
      <path d="M 414.5 10.5 L 5.5 10.5 C 2.743000030517578 10.5 0.5 8.256999969482422 0.5 5.5 C 0.5 2.743000030517578 2.743000030517578 0.5 5.5 0.5 L 414.5 0.5 C 417.2569885253906 0.5 419.5 2.743000030517578 419.5 5.5 C 419.5 8.256999969482422 417.2569885253906 10.5 414.5 10.5 Z" stroke="none"/>
      <path d="M 5.5 1 C 3.0186767578125 1 1 3.018684387207031 1 5.5 C 1 7.981315612792969 3.0186767578125 10 5.5 10 L 414.5 10 C 416.9813232421875 10 419 7.981315612792969 419 5.5 C 419 3.018684387207031 416.9813232421875 1 414.5 1 L 5.5 1 M 5.5 0 L 414.5 0 C 417.5375671386719 0 420 2.462421417236328 420 5.5 C 420 8.537578582763672 417.5375671386719 11 414.5 11 L 5.5 11 C 2.462432861328125 11 0 8.537578582763672 0 5.5 C 0 2.462421417236328 2.462432861328125 0 5.5 0 Z" stroke="none" fill="#f7dcb9"/>
    </g>
    <path id="Path_977" data-name="Path 977" d="M13.5,0A13.5,13.5,0,1,1,0,13.5,13.5,13.5,0,0,1,13.5,0Z" transform="translate(14264 13837)" fill="#f7dcb9"/>
    <path id="Path_978" data-name="Path 978" d="M1.71,0V-10.95H3.2l3.45,7.575h.27L10.35-10.95h1.515V0h-1.14V-9.675l.09.015L7.485-2.31h-1.5L2.64-9.66l.12-.015V0ZM19.86,0V-2.385h-.18V-5.2a1.855,1.855,0,0,0-.465-1.358,1.943,1.943,0,0,0-1.44-.472q-.45,0-.907.015T16-6.983q-.413.023-.727.053v-.99l.675-.06q.345-.03.712-.037t.713-.008a5.314,5.314,0,0,1,1.957.3,2.064,2.064,0,0,1,1.088.938A3.547,3.547,0,0,1,20.76-5.1V0ZM17.175.21a3.485,3.485,0,0,1-1.485-.3,2.262,2.262,0,0,1-1-.87,2.574,2.574,0,0,1-.352-1.38,2.391,2.391,0,0,1,.367-1.35,2.3,2.3,0,0,1,1.065-.848A4.359,4.359,0,0,1,17.46-4.83h2.325v.855h-2.4a2.078,2.078,0,0,0-1.448.457,1.537,1.537,0,0,0-.5,1.193,1.479,1.479,0,0,0,.525,1.192,2.141,2.141,0,0,0,1.425.442,2.86,2.86,0,0,0,1.065-.2,1.9,1.9,0,0,0,.855-.69,2.444,2.444,0,0,0,.375-1.343l.33.465a3.234,3.234,0,0,1-.42,1.477,2.3,2.3,0,0,1-.975.893A3.249,3.249,0,0,1,17.175.21Zm9.27-.12A3.83,3.83,0,0,1,25.02-.15a1.829,1.829,0,0,1-.93-.818,3.127,3.127,0,0,1-.33-1.553v-7.92h1.08v8.085A1.414,1.414,0,0,0,25.215-1.3,1.458,1.458,0,0,0,26.28-.93h1.425V.09Zm-4.11-7.17v-.855h5.37v.855ZM32.625.225A2.64,2.64,0,0,1,30.45-.7,3.972,3.972,0,0,1,29.7-3.27V-7.95h1.11v4.905A2.362,2.362,0,0,0,31.358-1.4,1.945,1.945,0,0,0,32.88-.8a2.13,2.13,0,0,0,1.627-.645,2.413,2.413,0,0,0,.608-1.725V-7.95H36.24V0h-.9V-3.315h.18a5.11,5.11,0,0,1-.315,1.9A2.579,2.579,0,0,1,34.26-.2a2.771,2.771,0,0,1-1.59.428ZM39.18,0V-7.935h.9V-4.62h-.09a3.7,3.7,0,0,1,.765-2.573,3.113,3.113,0,0,1,2.4-.832h.255v1.02h-.465a2.68,2.68,0,0,0-1.965.668,2.635,2.635,0,0,0-.675,1.957V0Zm9.255.255A4.125,4.125,0,0,1,46.665-.1a3.433,3.433,0,0,1-1.23-.945,4.012,4.012,0,0,1-.713-1.327,4.993,4.993,0,0,1-.232-1.515V-4.1a4.945,4.945,0,0,1,.232-1.5,3.928,3.928,0,0,1,.713-1.32,3.524,3.524,0,0,1,1.208-.937,3.863,3.863,0,0,1,1.7-.353,3.666,3.666,0,0,1,2.077.555,3.553,3.553,0,0,1,1.253,1.418A4.175,4.175,0,0,1,52.1-4.38V-3.8H45v-.87h6.315l-.285.435a3.676,3.676,0,0,0-.308-1.553,2.429,2.429,0,0,0-.9-1.05,2.671,2.671,0,0,0-1.478-.383A2.61,2.61,0,0,0,46.8-6.78a2.665,2.665,0,0,0-.922,1.155A4.127,4.127,0,0,0,45.57-3.99a4.253,4.253,0,0,0,.308,1.642,2.59,2.59,0,0,0,.945,1.178,2.8,2.8,0,0,0,1.612.435,2.774,2.774,0,0,0,1.68-.473,1.926,1.926,0,0,0,.795-1.117h1.05a2.967,2.967,0,0,1-.63,1.373,3.179,3.179,0,0,1-1.215.893A4.23,4.23,0,0,1,48.435.255Z" transform="translate(14147 13903)" fill="#262626"/>
    <path id="Path_979" data-name="Path 979" d="M-59.28-4.29-62.8-10.95h1.2l3.1,5.955-.48-.2h1.665l-.495.2,2.94-5.955h1.125L-57.06-4.29ZM-58.74,0V-4.545h1.125V0Zm9.54.255A4.279,4.279,0,0,1-50.992-.1,3.914,3.914,0,0,1-52.3-1.043a4.179,4.179,0,0,1-.81-1.327,4.215,4.215,0,0,1-.278-1.5v-.21A4.176,4.176,0,0,1-53.1-5.588a4.113,4.113,0,0,1,.825-1.327,4.05,4.05,0,0,1,1.313-.937A4.2,4.2,0,0,1-49.2-8.205a4.24,4.24,0,0,1,1.778.353,4.05,4.05,0,0,1,1.313.938,4.008,4.008,0,0,1,.817,1.327,4.276,4.276,0,0,1,.278,1.508v.21a4.319,4.319,0,0,1-.27,1.5,4.07,4.07,0,0,1-.8,1.327A3.9,3.9,0,0,1-47.4-.1,4.331,4.331,0,0,1-49.2.255Zm0-1.005a3.01,3.01,0,0,0,1.673-.443,2.907,2.907,0,0,0,1.043-1.17,3.585,3.585,0,0,0,.36-1.612A3.558,3.558,0,0,0-46.492-5.6,2.839,2.839,0,0,0-47.55-6.758a3.071,3.071,0,0,0-1.65-.428,3.042,3.042,0,0,0-1.635.428A2.839,2.839,0,0,0-51.892-5.6a3.558,3.558,0,0,0-.368,1.628,3.585,3.585,0,0,0,.36,1.612,2.907,2.907,0,0,0,1.042,1.17A2.982,2.982,0,0,0-49.2-.75Zm9.225.975A2.64,2.64,0,0,1-42.15-.7,3.972,3.972,0,0,1-42.9-3.27V-7.95h1.11v4.905A2.362,2.362,0,0,0-41.242-1.4,1.945,1.945,0,0,0-39.72-.8a2.13,2.13,0,0,0,1.627-.645,2.413,2.413,0,0,0,.607-1.725V-7.95h1.125V0h-.9V-3.315h.18a5.11,5.11,0,0,1-.315,1.9A2.579,2.579,0,0,1-38.34-.2a2.771,2.771,0,0,1-1.59.428ZM-33.42,0V-10.95h1.125v6.2l-.33.255A5.3,5.3,0,0,1-32.3-6.435a2.734,2.734,0,0,1,.975-1.282,2.793,2.793,0,0,1,1.642-.457h.06a2.608,2.608,0,0,1,2.183.945A4.15,4.15,0,0,1-26.7-4.605V0h-1.11V-4.845a2.338,2.338,0,0,0-.585-1.68A2.071,2.071,0,0,0-29.97-7.14a2.195,2.195,0,0,0-1.695.682,2.538,2.538,0,0,0-.63,1.793V0Zm12.4.09A3.83,3.83,0,0,1-22.44-.15a1.829,1.829,0,0,1-.93-.818A3.127,3.127,0,0,1-23.7-2.52v-7.92h1.08v8.085A1.414,1.414,0,0,0-22.245-1.3,1.458,1.458,0,0,0-21.18-.93h1.425V.09Zm-4.11-7.17v-.855h5.37v.855ZM-17.355,0V-8.55A2.4,2.4,0,0,1-16.71-10.4a2.752,2.752,0,0,1,1.935-.6h1.005v.96h-1.215a1.3,1.3,0,0,0-.96.33,1.258,1.258,0,0,0-.33.93V0ZM-18.51-7.005v-.87H-13.6v.87Zm9.3,7.23A2.64,2.64,0,0,1-11.385-.7a3.972,3.972,0,0,1-.75-2.573V-7.95h1.11v4.905A2.362,2.362,0,0,0-10.477-1.4,1.945,1.945,0,0,0-8.955-.8,2.13,2.13,0,0,0-7.327-1.44,2.413,2.413,0,0,0-6.72-3.165V-7.95h1.125V0h-.9V-3.315h.18a5.11,5.11,0,0,1-.315,1.9A2.579,2.579,0,0,1-7.575-.2a2.771,2.771,0,0,1-1.59.428ZM-2.58,0V-10.95h1.125V0ZM-3.735-10.035v-.915h2.28v.915Z" transform="translate(14567 13903)" fill="#262626"/>
    <g id="Path_980" data-name="Path 980" transform="translate(14147 13915)" fill="#fff">
      <path d="M 414.5 10.5 L 5.5 10.5 C 2.743000030517578 10.5 0.5 8.256999969482422 0.5 5.5 C 0.5 2.743000030517578 2.743000030517578 0.5 5.5 0.5 L 414.5 0.5 C 417.2569885253906 0.5 419.5 2.743000030517578 419.5 5.5 C 419.5 8.256999969482422 417.2569885253906 10.5 414.5 10.5 Z" stroke="none"/>
      <path d="M 5.5 1 C 3.0186767578125 1 1 3.018684387207031 1 5.5 C 1 7.981315612792969 3.0186767578125 10 5.5 10 L 414.5 10 C 416.9813232421875 10 419 7.981315612792969 419 5.5 C 419 3.018684387207031 416.9813232421875 1 414.5 1 L 5.5 1 M 5.5 0 L 414.5 0 C 417.5375671386719 0 420 2.462421417236328 420 5.5 C 420 8.537578582763672 417.5375671386719 11 414.5 11 L 5.5 11 C 2.462432861328125 11 0 8.537578582763672 0 5.5 C 0 2.462421417236328 2.462432861328125 0 5.5 0 Z" stroke="none" fill="#f7dcb9"/>
    </g>
    <path id="Path_981" data-name="Path 981" d="M13.5,0A13.5,13.5,0,1,1,0,13.5,13.5,13.5,0,0,1,13.5,0Z" transform="translate(14234 13907)" fill="#f7dcb9"/>
    <path id="Path_982" data-name="Path 982" d="M1.71,0V-10.95H2.85V0Zm.84-5.055V-6.09L7.4-6.105V-5.07Zm0-4.875v-1.02H7.68v1.02ZM13.02.255A4.125,4.125,0,0,1,11.25-.1a3.433,3.433,0,0,1-1.23-.945A4.011,4.011,0,0,1,9.307-2.37a4.993,4.993,0,0,1-.233-1.515V-4.1a4.945,4.945,0,0,1,.233-1.5,3.928,3.928,0,0,1,.713-1.32,3.524,3.524,0,0,1,1.207-.937,3.863,3.863,0,0,1,1.7-.353,3.666,3.666,0,0,1,2.077.555A3.553,3.553,0,0,1,16.26-6.233a4.175,4.175,0,0,1,.42,1.852V-3.8h-7.1v-.87H15.9l-.285.435a3.676,3.676,0,0,0-.307-1.553,2.429,2.429,0,0,0-.9-1.05,2.671,2.671,0,0,0-1.477-.383,2.61,2.61,0,0,0-1.545.435,2.665,2.665,0,0,0-.923,1.155,4.127,4.127,0,0,0-.307,1.635,4.253,4.253,0,0,0,.307,1.642,2.59,2.59,0,0,0,.945,1.178,2.8,2.8,0,0,0,1.613.435,2.774,2.774,0,0,0,1.68-.473,1.926,1.926,0,0,0,.8-1.117h1.05a2.967,2.967,0,0,1-.63,1.373A3.179,3.179,0,0,1,14.7-.06,4.23,4.23,0,0,1,13.02.255ZM18.84,0V-7.95h.9v3.345h-.18a5.236,5.236,0,0,1,.307-1.89,2.66,2.66,0,0,1,.923-1.237,2.6,2.6,0,0,1,1.56-.443H22.4a2.637,2.637,0,0,1,1.56.435,2.569,2.569,0,0,1,.915,1.23,5.4,5.4,0,0,1,.3,1.905h-.36a5.236,5.236,0,0,1,.307-1.89,2.64,2.64,0,0,1,.93-1.237,2.639,2.639,0,0,1,1.568-.443h.045a2.672,2.672,0,0,1,1.568.435,2.594,2.594,0,0,1,.93,1.23,5.283,5.283,0,0,1,.307,1.905V0H29.34V-4.86a2.528,2.528,0,0,0-.51-1.665,1.8,1.8,0,0,0-1.47-.615,2.01,2.01,0,0,0-1.568.637,2.461,2.461,0,0,0-.577,1.718V0H24.09V-4.86a2.528,2.528,0,0,0-.51-1.665,1.8,1.8,0,0,0-1.47-.615,2.01,2.01,0,0,0-1.568.637,2.461,2.461,0,0,0-.577,1.718V0ZM33.69,0V-7.935H34.8V0ZM32.415-7.035v-.9H34.8v.9Zm1.515-2.37a.791.791,0,0,1-.608-.217.772.772,0,0,1-.2-.547.772.772,0,0,1,.2-.547.791.791,0,0,1,.608-.218.766.766,0,0,1,.6.218.789.789,0,0,1,.195.547.789.789,0,0,1-.195.547A.766.766,0,0,1,33.93-9.405ZM37.755,0V-7.935h.9v3.33h-.18a4.959,4.959,0,0,1,.33-1.905,2.641,2.641,0,0,1,.99-1.23,2.966,2.966,0,0,1,1.665-.435H41.5a2.665,2.665,0,0,1,2.235.938,4.174,4.174,0,0,1,.735,2.633V0h-1.11V-4.845a2.387,2.387,0,0,0-.57-1.665,2.035,2.035,0,0,0-1.59-.63,2.252,2.252,0,0,0-1.687.652A2.352,2.352,0,0,0,38.88-4.77V0ZM47.7,0V-7.935h1.11V0ZM46.425-7.035v-.9H48.81v.9Zm1.515-2.37a.791.791,0,0,1-.608-.217.772.772,0,0,1-.2-.547.772.772,0,0,1,.2-.547.791.791,0,0,1,.608-.218.766.766,0,0,1,.6.218.789.789,0,0,1,.195.547.789.789,0,0,1-.195.547A.766.766,0,0,1,47.94-9.405ZM51.765,0V-7.935h.9v3.33h-.18a4.959,4.959,0,0,1,.33-1.905,2.641,2.641,0,0,1,.99-1.23,2.966,2.966,0,0,1,1.665-.435h.045a2.665,2.665,0,0,1,2.235.938,4.175,4.175,0,0,1,.735,2.633V0h-1.11V-4.845A2.387,2.387,0,0,0,56.8-6.51a2.035,2.035,0,0,0-1.59-.63,2.252,2.252,0,0,0-1.687.652A2.352,2.352,0,0,0,52.89-4.77V0ZM64.6.255A4.125,4.125,0,0,1,62.835-.1a3.433,3.433,0,0,1-1.23-.945,4.012,4.012,0,0,1-.713-1.327,4.993,4.993,0,0,1-.232-1.515V-4.1a4.945,4.945,0,0,1,.232-1.5,3.928,3.928,0,0,1,.713-1.32,3.524,3.524,0,0,1,1.208-.937,3.863,3.863,0,0,1,1.7-.353,3.666,3.666,0,0,1,2.077.555,3.553,3.553,0,0,1,1.253,1.418,4.175,4.175,0,0,1,.42,1.852V-3.8h-7.1v-.87h6.315L67.2-4.23a3.676,3.676,0,0,0-.307-1.553,2.43,2.43,0,0,0-.9-1.05,2.671,2.671,0,0,0-1.478-.383,2.61,2.61,0,0,0-1.545.435,2.665,2.665,0,0,0-.922,1.155A4.127,4.127,0,0,0,61.74-3.99a4.253,4.253,0,0,0,.308,1.642,2.59,2.59,0,0,0,.945,1.178A2.8,2.8,0,0,0,64.6-.735a2.774,2.774,0,0,0,1.68-.473,1.926,1.926,0,0,0,.8-1.117h1.05A2.967,2.967,0,0,1,67.5-.953a3.179,3.179,0,0,1-1.215.893A4.23,4.23,0,0,1,64.6.255Z" transform="translate(14147 13973)" fill="#262626"/>
    <path id="Path_983" data-name="Path 983" d="M-73.95,0V-10.95h1.485l3.45,7.575h.27l3.435-7.575H-63.8V0h-1.14V-9.675l.09.015-3.33,7.35h-1.5L-73.02-9.66l.12-.015V0ZM-55.8,0V-2.385h-.18V-5.2a1.855,1.855,0,0,0-.465-1.358,1.943,1.943,0,0,0-1.44-.472q-.45,0-.908.015t-.87.037q-.413.023-.728.053v-.99l.675-.06q.345-.03.713-.037t.713-.008a5.314,5.314,0,0,1,1.957.3,2.064,2.064,0,0,1,1.088.938A3.547,3.547,0,0,1-54.9-5.1V0Zm-2.685.21a3.485,3.485,0,0,1-1.485-.3,2.262,2.262,0,0,1-1-.87,2.574,2.574,0,0,1-.353-1.38,2.391,2.391,0,0,1,.368-1.35,2.3,2.3,0,0,1,1.065-.848A4.359,4.359,0,0,1-58.2-4.83h2.325v.855h-2.4a2.078,2.078,0,0,0-1.448.457,1.537,1.537,0,0,0-.5,1.193A1.479,1.479,0,0,0-59.7-1.133a2.141,2.141,0,0,0,1.425.442,2.86,2.86,0,0,0,1.065-.2,1.9,1.9,0,0,0,.855-.69,2.444,2.444,0,0,0,.375-1.343l.33.465a3.234,3.234,0,0,1-.42,1.477,2.3,2.3,0,0,1-.975.893A3.249,3.249,0,0,1-58.485.21Zm8.9.015a3.66,3.66,0,0,1-2.355-.668,2.228,2.228,0,0,1-.84-1.793h1.05A1.522,1.522,0,0,0-51.218-1.2a2.319,2.319,0,0,0,1.627.465,2.455,2.455,0,0,0,1.6-.442A1.349,1.349,0,0,0-47.46-2.25a1.058,1.058,0,0,0-.443-.908,2.655,2.655,0,0,0-1.282-.412l-.9-.09a3.258,3.258,0,0,1-1.748-.668A1.844,1.844,0,0,1-52.5-5.835a2.121,2.121,0,0,1,.36-1.23,2.365,2.365,0,0,1,1.013-.818,3.733,3.733,0,0,1,1.537-.293,3.379,3.379,0,0,1,2.077.6,2.045,2.045,0,0,1,.818,1.71h-1.05a1.253,1.253,0,0,0-.48-.96,2.077,2.077,0,0,0-1.365-.39,2.043,2.043,0,0,0-1.387.405,1.273,1.273,0,0,0-.458.99A1.071,1.071,0,0,0-51.09-5a1.825,1.825,0,0,0,1.08.4l.9.09a4.016,4.016,0,0,1,1.958.69,1.852,1.852,0,0,1,.757,1.59,2.144,2.144,0,0,1-.4,1.268A2.609,2.609,0,0,1-47.91-.09,4.162,4.162,0,0,1-49.59.225Zm8.775.03A4.037,4.037,0,0,1-42.563-.1a3.516,3.516,0,0,1-1.238-.96A4.264,4.264,0,0,1-44.543-2.4a4.626,4.626,0,0,1-.247-1.485V-4.1a4.6,4.6,0,0,1,.247-1.493,4.1,4.1,0,0,1,.743-1.32,3.6,3.6,0,0,1,1.238-.945,3.962,3.962,0,0,1,1.717-.353,4.127,4.127,0,0,1,1.763.36,3.178,3.178,0,0,1,1.252,1.02,3.128,3.128,0,0,1,.57,1.56h-1.08a2.232,2.232,0,0,0-.772-1.372,2.571,2.571,0,0,0-1.733-.548,2.707,2.707,0,0,0-1.568.428A2.639,2.639,0,0,0-43.35-5.6a4.016,4.016,0,0,0-.315,1.613,4.086,4.086,0,0,0,.315,1.612,2.7,2.7,0,0,0,.945,1.185,2.7,2.7,0,0,0,1.59.443,2.937,2.937,0,0,0,1.283-.263,2.358,2.358,0,0,0,.885-.712,1.991,1.991,0,0,0,.4-.99h1.08a2.862,2.862,0,0,1-.562,1.568,3.355,3.355,0,0,1-1.3,1.035A4.2,4.2,0,0,1-40.815.255Zm8.46-.03A2.64,2.64,0,0,1-34.53-.7a3.972,3.972,0,0,1-.75-2.573V-7.95h1.11v4.905A2.362,2.362,0,0,0-33.623-1.4,1.945,1.945,0,0,0-32.1-.8a2.13,2.13,0,0,0,1.627-.645,2.413,2.413,0,0,0,.608-1.725V-7.95h1.125V0h-.9V-3.315h.18a5.11,5.11,0,0,1-.315,1.9A2.579,2.579,0,0,1-30.72-.2a2.771,2.771,0,0,1-1.59.428ZM-25.725,0V-10.95H-24.6V0ZM-26.88-10.035v-.915h2.28v.915ZM-21.27,0V-7.935h1.11V0Zm-1.275-7.035v-.9h2.385v.9Zm1.515-2.37a.791.791,0,0,1-.608-.217.772.772,0,0,1-.2-.547.772.772,0,0,1,.2-.547.791.791,0,0,1,.608-.218.766.766,0,0,1,.6.218.79.79,0,0,1,.195.547.789.789,0,0,1-.195.547A.766.766,0,0,1-21.03-9.405ZM-17.205,0V-7.935h.9v3.33h-.18a4.959,4.959,0,0,1,.33-1.905,2.641,2.641,0,0,1,.99-1.23A2.966,2.966,0,0,1-13.5-8.175h.045a2.665,2.665,0,0,1,2.235.938,4.174,4.174,0,0,1,.735,2.633V0H-11.6V-4.845a2.387,2.387,0,0,0-.57-1.665,2.035,2.035,0,0,0-1.59-.63,2.252,2.252,0,0,0-1.687.652A2.352,2.352,0,0,0-16.08-4.77V0Zm12.84.255A4.125,4.125,0,0,1-6.135-.1a3.433,3.433,0,0,1-1.23-.945A4.011,4.011,0,0,1-8.078-2.37,4.993,4.993,0,0,1-8.31-3.885V-4.1a4.945,4.945,0,0,1,.233-1.5,3.928,3.928,0,0,1,.713-1.32,3.524,3.524,0,0,1,1.207-.937,3.863,3.863,0,0,1,1.7-.353,3.666,3.666,0,0,1,2.077.555A3.553,3.553,0,0,1-1.125-6.233,4.175,4.175,0,0,1-.705-4.38V-3.8H-7.8v-.87h6.315l-.285.435a3.676,3.676,0,0,0-.307-1.553,2.429,2.429,0,0,0-.9-1.05,2.671,2.671,0,0,0-1.477-.383A2.61,2.61,0,0,0-6-6.78a2.665,2.665,0,0,0-.923,1.155A4.127,4.127,0,0,0-7.23-3.99a4.253,4.253,0,0,0,.307,1.642A2.59,2.59,0,0,0-5.978-1.17a2.8,2.8,0,0,0,1.613.435,2.774,2.774,0,0,0,1.68-.473,1.926,1.926,0,0,0,.8-1.117H-.84A2.967,2.967,0,0,1-1.47-.953,3.179,3.179,0,0,1-2.685-.06,4.23,4.23,0,0,1-4.365.255Z" transform="translate(14567 13973)" fill="#262626"/>
    <g id="Path_984" data-name="Path 984" transform="translate(14147 13985)" fill="#fff">
      <path d="M 414.5 10.5 L 5.5 10.5 C 2.743000030517578 10.5 0.5 8.256999969482422 0.5 5.5 C 0.5 2.743000030517578 2.743000030517578 0.5 5.5 0.5 L 414.5 0.5 C 417.2569885253906 0.5 419.5 2.743000030517578 419.5 5.5 C 419.5 8.256999969482422 417.2569885253906 10.5 414.5 10.5 Z" stroke="none"/>
      <path d="M 5.5 1 C 3.0186767578125 1 1 3.018684387207031 1 5.5 C 1 7.981315612792969 3.0186767578125 10 5.5 10 L 414.5 10 C 416.9813232421875 10 419 7.981315612792969 419 5.5 C 419 3.018684387207031 416.9813232421875 1 414.5 1 L 5.5 1 M 5.5 0 L 414.5 0 C 417.5375671386719 0 420 2.462421417236328 420 5.5 C 420 8.537578582763672 417.5375671386719 11 414.5 11 L 5.5 11 C 2.462432861328125 11 0 8.537578582763672 0 5.5 C 0 2.462421417236328 2.462432861328125 0 5.5 0 Z" stroke="none" fill="#f7dcb9"/>
    </g>
    <path id="Path_985" data-name="Path 985" d="M13.5,0A13.5,13.5,0,1,1,0,13.5,13.5,13.5,0,0,1,13.5,0Z" transform="translate(14354 13977)" fill="#f7dcb9"/>
    <path id="Path_986" data-name="Path 986" d="M2.55-4.005V-5.01H5.1a2.741,2.741,0,0,0,1.44-.338,2.1,2.1,0,0,0,.825-.9A2.857,2.857,0,0,0,7.635-7.5a2.892,2.892,0,0,0-.27-1.267A2.058,2.058,0,0,0,6.54-9.66,2.791,2.791,0,0,0,5.1-9.99H2.55V-11H4.905a4.832,4.832,0,0,1,2.183.435,2.951,2.951,0,0,1,1.29,1.2,3.536,3.536,0,0,1,.427,1.755v.21a3.548,3.548,0,0,1-.427,1.748A2.938,2.938,0,0,1,7.088-4.44a4.832,4.832,0,0,1-2.183.435ZM1.71,0V-11H2.85V0Zm9.27,0V-10.95H12.1V0ZM9.825-10.035v-.915H12.1v.915ZM19.845,0V-2.385h-.18V-5.2A1.855,1.855,0,0,0,19.2-6.563a1.943,1.943,0,0,0-1.44-.472q-.45,0-.907.015t-.87.037q-.413.023-.728.053v-.99l.675-.06q.345-.03.713-.037t.712-.008a5.314,5.314,0,0,1,1.958.3,2.064,2.064,0,0,1,1.087.938A3.547,3.547,0,0,1,20.745-5.1V0ZM17.16.21a3.485,3.485,0,0,1-1.485-.3,2.262,2.262,0,0,1-1-.87,2.574,2.574,0,0,1-.352-1.38,2.391,2.391,0,0,1,.367-1.35,2.3,2.3,0,0,1,1.065-.848,4.359,4.359,0,0,1,1.687-.293H19.77v.855h-2.4a2.078,2.078,0,0,0-1.447.457,1.537,1.537,0,0,0-.5,1.193,1.479,1.479,0,0,0,.525,1.192A2.141,2.141,0,0,0,17.37-.69a2.86,2.86,0,0,0,1.065-.2,1.9,1.9,0,0,0,.855-.69,2.444,2.444,0,0,0,.375-1.343l.33.465a3.234,3.234,0,0,1-.42,1.477A2.3,2.3,0,0,1,18.6-.09,3.249,3.249,0,0,1,17.16.21Zm5.67,2.88v-1h1.02a2.809,2.809,0,0,0,.9-.128,1.36,1.36,0,0,0,.63-.442,2.711,2.711,0,0,0,.435-.87l2.67-8.58H29.58L26.79.96A3.342,3.342,0,0,1,26.13,2.2a2.42,2.42,0,0,1-1,.683,3.938,3.938,0,0,1-1.335.21ZM25.41-.2V-1.14h1.425V-.2Zm-.135,0-2.88-7.74H23.55L26.325-.2Zm6.5.2V-8.55a2.4,2.4,0,0,1,.645-1.845A2.752,2.752,0,0,1,34.35-11h1.005v.96H34.14a1.3,1.3,0,0,0-.96.33,1.258,1.258,0,0,0-.33.93V0ZM30.615-7.005v-.87h4.9v.87Zm9.3,7.23A2.64,2.64,0,0,1,37.74-.7a3.972,3.972,0,0,1-.75-2.573V-7.95H38.1v4.905A2.362,2.362,0,0,0,38.647-1.4,1.945,1.945,0,0,0,40.17-.8,2.13,2.13,0,0,0,41.8-1.44,2.413,2.413,0,0,0,42.4-3.165V-7.95H43.53V0h-.9V-3.315h.18a5.11,5.11,0,0,1-.315,1.9A2.579,2.579,0,0,1,41.55-.2a2.771,2.771,0,0,1-1.59.428ZM46.545,0V-10.95H47.67V0ZM45.39-10.035v-.915h2.28v.915Z" transform="translate(14147 14043)" fill="#262626"/>
    <path id="Path_987" data-name="Path 987" d="M-101.5.255a5.464,5.464,0,0,1-2.325-.443,3.251,3.251,0,0,1-1.432-1.23A3.308,3.308,0,0,1-105.75-3.2h1.14a2.366,2.366,0,0,0,.308,1.178,2.214,2.214,0,0,0,.99.885A4.1,4.1,0,0,0-101.5-.8a4.282,4.282,0,0,0,1.717-.3,2.279,2.279,0,0,0,1.02-.81,2.021,2.021,0,0,0,.337-1.14,1.677,1.677,0,0,0-.622-1.327,3.25,3.25,0,0,0-1.868-.638l-1.26-.12a3.693,3.693,0,0,1-2.243-.878,2.578,2.578,0,0,1-.832-2,3.075,3.075,0,0,1,.45-1.665,3.136,3.136,0,0,1,1.283-1.14,4.4,4.4,0,0,1,2-.42,4.468,4.468,0,0,1,2.033.427,3.1,3.1,0,0,1,1.3,1.178,3.316,3.316,0,0,1,.45,1.74h-1.14a2.425,2.425,0,0,0-.27-1.125A2.026,2.026,0,0,0-100-9.863a3.123,3.123,0,0,0-1.515-.323,3.158,3.158,0,0,0-1.463.3,2,2,0,0,0-.855.8,2.171,2.171,0,0,0-.277,1.08,1.67,1.67,0,0,0,.525,1.245,2.356,2.356,0,0,0,1.515.585l1.26.12a5.105,5.105,0,0,1,1.9.488A3.049,3.049,0,0,1-97.71-4.538a2.65,2.65,0,0,1,.42,1.493,2.939,2.939,0,0,1-.517,1.71A3.4,3.4,0,0,1-99.27-.165,5.469,5.469,0,0,1-101.5.255Zm10.245,0A4.279,4.279,0,0,1-93.052-.1a3.914,3.914,0,0,1-1.305-.945,4.179,4.179,0,0,1-.81-1.327,4.215,4.215,0,0,1-.278-1.5v-.21a4.176,4.176,0,0,1,.285-1.508,4.113,4.113,0,0,1,.825-1.327,4.05,4.05,0,0,1,1.313-.937,4.2,4.2,0,0,1,1.763-.353,4.24,4.24,0,0,1,1.777.353,4.05,4.05,0,0,1,1.313.938,4.009,4.009,0,0,1,.818,1.327,4.276,4.276,0,0,1,.277,1.508v.21a4.319,4.319,0,0,1-.27,1.5,4.07,4.07,0,0,1-.8,1.327A3.9,3.9,0,0,1-89.46-.1,4.331,4.331,0,0,1-91.26.255Zm0-1.005a3.01,3.01,0,0,0,1.673-.443,2.907,2.907,0,0,0,1.042-1.17,3.585,3.585,0,0,0,.36-1.612A3.558,3.558,0,0,0-88.552-5.6,2.839,2.839,0,0,0-89.61-6.758a3.071,3.071,0,0,0-1.65-.428,3.042,3.042,0,0,0-1.635.428A2.839,2.839,0,0,0-93.952-5.6a3.558,3.558,0,0,0-.368,1.628,3.585,3.585,0,0,0,.36,1.612,2.907,2.907,0,0,0,1.043,1.17A2.982,2.982,0,0,0-91.26-.75ZM-84.78,3V-7.935h.9V-4.53l-.27.03a4.612,4.612,0,0,1,.518-2.025,3.1,3.1,0,0,1,1.245-1.253,3.634,3.634,0,0,1,1.762-.428,3.65,3.65,0,0,1,1.582.338,3.677,3.677,0,0,1,1.215.915,4.044,4.044,0,0,1,.765,1.32A4.623,4.623,0,0,1-76.8-4.08v.21a4.507,4.507,0,0,1-.27,1.553A4.153,4.153,0,0,1-77.842-1a3.677,3.677,0,0,1-1.215.915,3.686,3.686,0,0,1-1.6.338,3.572,3.572,0,0,1-1.732-.428A3.268,3.268,0,0,1-83.662-1.44a4.394,4.394,0,0,1-.533-2.07l.54,1.125V3Zm3.975-3.735a2.732,2.732,0,0,0,1.545-.428,2.769,2.769,0,0,0,.99-1.17,3.85,3.85,0,0,0,.345-1.642,3.754,3.754,0,0,0-.352-1.658,2.841,2.841,0,0,0-1-1.155,2.705,2.705,0,0,0-1.53-.428,3.019,3.019,0,0,0-1.47.36,2.67,2.67,0,0,0-1.042,1.013A2.986,2.986,0,0,0-83.7-4.3v.735a2.816,2.816,0,0,0,.382,1.477,2.7,2.7,0,0,0,1.042,1A3.019,3.019,0,0,0-80.805-.735ZM-74.52,0V-10.95h1.125v6.2l-.33.255A5.3,5.3,0,0,1-73.4-6.435a2.734,2.734,0,0,1,.975-1.282,2.793,2.793,0,0,1,1.643-.457h.06a2.608,2.608,0,0,1,2.183.945A4.15,4.15,0,0,1-67.8-4.605V0h-1.11V-4.845a2.338,2.338,0,0,0-.585-1.68A2.071,2.071,0,0,0-71.07-7.14a2.195,2.195,0,0,0-1.695.682,2.538,2.538,0,0,0-.63,1.793V0Zm9.945,0V-7.935h1.11V0ZM-65.85-7.035v-.9h2.385v.9Zm1.515-2.37a.791.791,0,0,1-.607-.217.772.772,0,0,1-.2-.547.772.772,0,0,1,.2-.547.791.791,0,0,1,.607-.218.766.766,0,0,1,.6.218.789.789,0,0,1,.195.547.789.789,0,0,1-.195.547A.766.766,0,0,1-64.335-9.405ZM-58,.225A3.66,3.66,0,0,1-60.36-.443a2.228,2.228,0,0,1-.84-1.793h1.05A1.522,1.522,0,0,0-59.632-1.2,2.319,2.319,0,0,0-58-.735a2.455,2.455,0,0,0,1.6-.442,1.349,1.349,0,0,0,.533-1.072,1.058,1.058,0,0,0-.443-.908A2.655,2.655,0,0,0-57.6-3.57l-.9-.09a3.258,3.258,0,0,1-1.748-.668,1.844,1.844,0,0,1-.667-1.508,2.121,2.121,0,0,1,.36-1.23,2.365,2.365,0,0,1,1.013-.818A3.733,3.733,0,0,1-58-8.175a3.379,3.379,0,0,1,2.077.6,2.045,2.045,0,0,1,.818,1.71h-1.05a1.253,1.253,0,0,0-.48-.96A2.077,2.077,0,0,0-58-7.215a2.043,2.043,0,0,0-1.387.405,1.273,1.273,0,0,0-.458.99A1.071,1.071,0,0,0-59.5-5a1.825,1.825,0,0,0,1.08.4l.9.09a4.016,4.016,0,0,1,1.958.69,1.852,1.852,0,0,1,.757,1.59,2.144,2.144,0,0,1-.4,1.268,2.609,2.609,0,0,1-1.118.878A4.162,4.162,0,0,1-58,.225Zm8.31-.135A3.83,3.83,0,0,1-51.12-.15a1.829,1.829,0,0,1-.93-.818,3.127,3.127,0,0,1-.33-1.553v-7.92h1.08v8.085A1.414,1.414,0,0,0-50.925-1.3,1.458,1.458,0,0,0-49.86-.93h1.425V.09ZM-53.8-7.08v-.855h5.37v.855ZM-45.84,0V-7.935h1.11V0Zm-1.275-7.035v-.9h2.385v.9Zm1.515-2.37a.791.791,0,0,1-.608-.217.772.772,0,0,1-.2-.547.772.772,0,0,1,.2-.547.791.791,0,0,1,.608-.218.766.766,0,0,1,.6.218.789.789,0,0,1,.195.547A.789.789,0,0,1-45-9.623.766.766,0,0,1-45.6-9.405Zm7.17,9.66A4.037,4.037,0,0,1-40.177-.1a3.516,3.516,0,0,1-1.238-.96A4.264,4.264,0,0,1-42.157-2.4,4.626,4.626,0,0,1-42.4-3.885V-4.1a4.6,4.6,0,0,1,.247-1.493,4.1,4.1,0,0,1,.743-1.32,3.6,3.6,0,0,1,1.238-.945,3.962,3.962,0,0,1,1.717-.353,4.127,4.127,0,0,1,1.763.36,3.178,3.178,0,0,1,1.252,1.02,3.128,3.128,0,0,1,.57,1.56h-1.08a2.232,2.232,0,0,0-.772-1.372,2.571,2.571,0,0,0-1.733-.548,2.707,2.707,0,0,0-1.568.428A2.639,2.639,0,0,0-40.965-5.6,4.016,4.016,0,0,0-41.28-3.99a4.086,4.086,0,0,0,.315,1.612,2.7,2.7,0,0,0,.945,1.185,2.7,2.7,0,0,0,1.59.443,2.937,2.937,0,0,0,1.283-.263,2.358,2.358,0,0,0,.885-.712,1.991,1.991,0,0,0,.4-.99h1.08a2.862,2.862,0,0,1-.562,1.568,3.355,3.355,0,0,1-1.3,1.035A4.2,4.2,0,0,1-38.43.255ZM-27.885,0V-2.385h-.18V-5.2a1.855,1.855,0,0,0-.465-1.358,1.943,1.943,0,0,0-1.44-.472q-.45,0-.908.015t-.87.037q-.413.023-.728.053v-.99l.675-.06q.345-.03.712-.037t.712-.008a5.314,5.314,0,0,1,1.958.3,2.064,2.064,0,0,1,1.087.938A3.547,3.547,0,0,1-26.985-5.1V0ZM-30.57.21a3.485,3.485,0,0,1-1.485-.3,2.262,2.262,0,0,1-1-.87A2.574,2.574,0,0,1-33.4-2.34a2.391,2.391,0,0,1,.368-1.35,2.3,2.3,0,0,1,1.065-.848,4.359,4.359,0,0,1,1.688-.293h2.325v.855h-2.4a2.078,2.078,0,0,0-1.448.457,1.537,1.537,0,0,0-.5,1.193,1.479,1.479,0,0,0,.525,1.192A2.141,2.141,0,0,0-30.36-.69a2.86,2.86,0,0,0,1.065-.2,1.9,1.9,0,0,0,.855-.69,2.444,2.444,0,0,0,.375-1.343l.33.465a3.234,3.234,0,0,1-.42,1.477,2.3,2.3,0,0,1-.975.893A3.249,3.249,0,0,1-30.57.21ZM-21.3.09a3.83,3.83,0,0,1-1.425-.24,1.829,1.829,0,0,1-.93-.818,3.127,3.127,0,0,1-.33-1.553v-7.92h1.08v8.085A1.414,1.414,0,0,0-22.53-1.3a1.458,1.458,0,0,0,1.065.367h1.425V.09Zm-4.11-7.17v-.855h5.37v.855ZM-14.625.255A4.125,4.125,0,0,1-16.4-.1a3.433,3.433,0,0,1-1.23-.945,4.011,4.011,0,0,1-.712-1.327,4.993,4.993,0,0,1-.233-1.515V-4.1a4.945,4.945,0,0,1,.233-1.5,3.928,3.928,0,0,1,.712-1.32,3.524,3.524,0,0,1,1.208-.937,3.863,3.863,0,0,1,1.7-.353,3.666,3.666,0,0,1,2.077.555,3.553,3.553,0,0,1,1.253,1.418,4.175,4.175,0,0,1,.42,1.852V-3.8h-7.1v-.87h6.315l-.285.435a3.676,3.676,0,0,0-.307-1.553,2.429,2.429,0,0,0-.9-1.05,2.671,2.671,0,0,0-1.477-.383,2.61,2.61,0,0,0-1.545.435,2.665,2.665,0,0,0-.923,1.155A4.127,4.127,0,0,0-17.49-3.99a4.253,4.253,0,0,0,.307,1.642,2.59,2.59,0,0,0,.945,1.178,2.8,2.8,0,0,0,1.612.435,2.774,2.774,0,0,0,1.68-.473,1.926,1.926,0,0,0,.8-1.117h1.05a2.967,2.967,0,0,1-.63,1.373,3.179,3.179,0,0,1-1.215.893A4.23,4.23,0,0,1-14.625.255Zm9.075,0A3.794,3.794,0,0,1-7.133-.068a3.659,3.659,0,0,1-1.23-.9,4.12,4.12,0,0,1-.8-1.32A4.483,4.483,0,0,1-9.435-3.87v-.21a4.507,4.507,0,0,1,.27-1.552,4.153,4.153,0,0,1,.773-1.32,3.677,3.677,0,0,1,1.215-.915,3.686,3.686,0,0,1,1.6-.338,3.518,3.518,0,0,1,1.77.435A3.256,3.256,0,0,1-2.58-6.517a4.216,4.216,0,0,1,.495,2l-.495-.93V-10.95h1.125V0h-.9V-3.525H-2a4.356,4.356,0,0,1-.518,2.092A3.2,3.2,0,0,1-3.788-.165,3.686,3.686,0,0,1-5.55.255Zm.15-.99A2.976,2.976,0,0,0-3.938-1.1,2.6,2.6,0,0,0-2.91-2.123,3.085,3.085,0,0,0-2.535-3.66v-.72A2.86,2.86,0,0,0-2.91-5.858a2.662,2.662,0,0,0-1.028-1,3.007,3.007,0,0,0-1.477-.36,2.742,2.742,0,0,0-1.538.428A2.811,2.811,0,0,0-7.958-5.625a3.767,3.767,0,0,0-.352,1.65A3.771,3.771,0,0,0-7.95-2.3,2.742,2.742,0,0,0-6.93-1.148,2.826,2.826,0,0,0-5.4-.735Z" transform="translate(14567 14043)" fill="#262626"/>
    <g id="Path_988" data-name="Path 988" transform="translate(14147 14055)" fill="#fff">
      <path d="M 414.5 10.5 L 5.5 10.5 C 2.743000030517578 10.5 0.5 8.256999969482422 0.5 5.5 C 0.5 2.743000030517578 2.743000030517578 0.5 5.5 0.5 L 414.5 0.5 C 417.2569885253906 0.5 419.5 2.743000030517578 419.5 5.5 C 419.5 8.256999969482422 417.2569885253906 10.5 414.5 10.5 Z" stroke="none"/>
      <path d="M 5.5 1 C 3.0186767578125 1 1 3.018684387207031 1 5.5 C 1 7.981315612792969 3.0186767578125 10 5.5 10 L 414.5 10 C 416.9813232421875 10 419 7.981315612792969 419 5.5 C 419 3.018684387207031 416.9813232421875 1 414.5 1 L 5.5 1 M 5.5 0 L 414.5 0 C 417.5375671386719 0 420 2.462421417236328 420 5.5 C 420 8.537578582763672 417.5375671386719 11 414.5 11 L 5.5 11 C 2.462432861328125 11 0 8.537578582763672 0 5.5 C 0 2.462421417236328 2.462432861328125 0 5.5 0 Z" stroke="none" fill="#f7dcb9"/>
    </g>
    <path id="Path_989" data-name="Path 989" d="M13.5,0A13.5,13.5,0,1,1,0,13.5,13.5,13.5,0,0,1,13.5,0Z" transform="translate(14520 14047)" fill="#f7dcb9"/>
    <path id="Path_990" data-name="Path 990" d="M1.71,0V-10.95H2.85V0Zm.87,0V-1.035H8.055V0Zm0-5.055v-1.02H7.545v1.02Zm0-4.86V-10.95H7.89v1.035ZM13.665.255A4.037,4.037,0,0,1,11.917-.1a3.516,3.516,0,0,1-1.237-.96A4.263,4.263,0,0,1,9.938-2.4,4.626,4.626,0,0,1,9.69-3.885V-4.1a4.6,4.6,0,0,1,.248-1.493,4.1,4.1,0,0,1,.743-1.32,3.6,3.6,0,0,1,1.237-.945,3.962,3.962,0,0,1,1.718-.353,4.127,4.127,0,0,1,1.762.36,3.178,3.178,0,0,1,1.253,1.02,3.128,3.128,0,0,1,.57,1.56H16.14a2.232,2.232,0,0,0-.772-1.372,2.571,2.571,0,0,0-1.733-.548,2.707,2.707,0,0,0-1.568.428A2.639,2.639,0,0,0,11.13-5.6a4.016,4.016,0,0,0-.315,1.613,4.086,4.086,0,0,0,.315,1.612,2.7,2.7,0,0,0,.945,1.185,2.7,2.7,0,0,0,1.59.443,2.937,2.937,0,0,0,1.283-.263,2.358,2.358,0,0,0,.885-.712,1.991,1.991,0,0,0,.4-.99h1.08a2.862,2.862,0,0,1-.563,1.568,3.355,3.355,0,0,1-1.3,1.035A4.2,4.2,0,0,1,13.665.255Zm9.27,0A4.279,4.279,0,0,1,21.142-.1a3.914,3.914,0,0,1-1.305-.945,4.179,4.179,0,0,1-.81-1.327,4.215,4.215,0,0,1-.278-1.5v-.21a4.176,4.176,0,0,1,.285-1.508,4.113,4.113,0,0,1,.825-1.327,4.05,4.05,0,0,1,1.313-.937,4.2,4.2,0,0,1,1.763-.353,4.24,4.24,0,0,1,1.778.353,4.05,4.05,0,0,1,1.313.938,4.008,4.008,0,0,1,.817,1.327A4.276,4.276,0,0,1,27.12-4.08v.21a4.319,4.319,0,0,1-.27,1.5,4.07,4.07,0,0,1-.8,1.327A3.9,3.9,0,0,1,24.735-.1,4.331,4.331,0,0,1,22.935.255Zm0-1.005a3.01,3.01,0,0,0,1.673-.443,2.907,2.907,0,0,0,1.042-1.17,3.585,3.585,0,0,0,.36-1.612A3.558,3.558,0,0,0,25.642-5.6a2.839,2.839,0,0,0-1.058-1.155,3.071,3.071,0,0,0-1.65-.428,3.042,3.042,0,0,0-1.635.428A2.839,2.839,0,0,0,20.243-5.6a3.558,3.558,0,0,0-.368,1.628,3.585,3.585,0,0,0,.36,1.612,2.907,2.907,0,0,0,1.043,1.17A2.982,2.982,0,0,0,22.935-.75Zm6.48.75V-7.935h.9v3.33h-.18a4.959,4.959,0,0,1,.33-1.905,2.641,2.641,0,0,1,.99-1.23,2.966,2.966,0,0,1,1.665-.435h.045a2.665,2.665,0,0,1,2.235.938,4.175,4.175,0,0,1,.735,2.633V0h-1.11V-4.845a2.387,2.387,0,0,0-.57-1.665,2.035,2.035,0,0,0-1.59-.63,2.252,2.252,0,0,0-1.687.652A2.352,2.352,0,0,0,30.54-4.77V0ZM42.5.255A4.279,4.279,0,0,1,40.7-.1,3.914,3.914,0,0,1,39.4-1.043a4.179,4.179,0,0,1-.81-1.327,4.215,4.215,0,0,1-.278-1.5v-.21A4.176,4.176,0,0,1,38.6-5.588a4.113,4.113,0,0,1,.825-1.327,4.05,4.05,0,0,1,1.313-.937A4.2,4.2,0,0,1,42.5-8.205a4.24,4.24,0,0,1,1.777.353,4.05,4.05,0,0,1,1.313.938A4.008,4.008,0,0,1,46.4-5.588,4.276,4.276,0,0,1,46.68-4.08v.21a4.319,4.319,0,0,1-.27,1.5,4.07,4.07,0,0,1-.8,1.327A3.9,3.9,0,0,1,44.3-.1,4.331,4.331,0,0,1,42.5.255Zm0-1.005a3.01,3.01,0,0,0,1.672-.443,2.907,2.907,0,0,0,1.043-1.17,3.585,3.585,0,0,0,.36-1.612A3.558,3.558,0,0,0,45.2-5.6a2.839,2.839,0,0,0-1.057-1.155,3.071,3.071,0,0,0-1.65-.428,3.042,3.042,0,0,0-1.635.428A2.839,2.839,0,0,0,39.8-5.6a3.558,3.558,0,0,0-.368,1.628,3.585,3.585,0,0,0,.36,1.612,2.907,2.907,0,0,0,1.042,1.17A2.982,2.982,0,0,0,42.5-.75Zm6.48.75V-7.95h.9v3.345h-.18A5.236,5.236,0,0,1,50-6.5a2.66,2.66,0,0,1,.922-1.237,2.6,2.6,0,0,1,1.56-.443h.045a2.637,2.637,0,0,1,1.56.435,2.569,2.569,0,0,1,.915,1.23,5.4,5.4,0,0,1,.3,1.905h-.36a5.236,5.236,0,0,1,.308-1.89,2.64,2.64,0,0,1,.93-1.237,2.639,2.639,0,0,1,1.567-.443H57.8a2.672,2.672,0,0,1,1.568.435,2.594,2.594,0,0,1,.93,1.23A5.283,5.283,0,0,1,60.6-4.605V0H59.475V-4.86a2.528,2.528,0,0,0-.51-1.665A1.8,1.8,0,0,0,57.5-7.14a2.01,2.01,0,0,0-1.568.637,2.461,2.461,0,0,0-.577,1.718V0H54.225V-4.86a2.528,2.528,0,0,0-.51-1.665,1.8,1.8,0,0,0-1.47-.615,2.01,2.01,0,0,0-1.568.637A2.461,2.461,0,0,0,50.1-4.785V0Zm14.85,0V-7.935h1.11V0ZM62.55-7.035v-.9h2.385v.9Zm1.515-2.37a.791.791,0,0,1-.608-.217.772.772,0,0,1-.2-.547.772.772,0,0,1,.2-.547.791.791,0,0,1,.608-.218.766.766,0,0,1,.6.218.79.79,0,0,1,.195.547.79.79,0,0,1-.195.547A.766.766,0,0,1,64.065-9.405Zm7.17,9.66A4.037,4.037,0,0,1,69.487-.1a3.516,3.516,0,0,1-1.237-.96A4.263,4.263,0,0,1,67.507-2.4a4.626,4.626,0,0,1-.248-1.485V-4.1a4.6,4.6,0,0,1,.248-1.493,4.1,4.1,0,0,1,.743-1.32,3.6,3.6,0,0,1,1.237-.945,3.962,3.962,0,0,1,1.718-.353,4.127,4.127,0,0,1,1.762.36,3.178,3.178,0,0,1,1.253,1.02,3.128,3.128,0,0,1,.57,1.56H73.71a2.232,2.232,0,0,0-.772-1.372,2.571,2.571,0,0,0-1.732-.548,2.707,2.707,0,0,0-1.568.428A2.639,2.639,0,0,0,68.7-5.6a4.016,4.016,0,0,0-.315,1.613A4.086,4.086,0,0,0,68.7-2.378a2.7,2.7,0,0,0,.945,1.185,2.7,2.7,0,0,0,1.59.443,2.937,2.937,0,0,0,1.283-.263,2.358,2.358,0,0,0,.885-.712,1.991,1.991,0,0,0,.4-.99h1.08a2.862,2.862,0,0,1-.562,1.568,3.355,3.355,0,0,1-1.3,1.035A4.2,4.2,0,0,1,71.235.255ZM81.78,0V-2.385H81.6V-5.2a1.855,1.855,0,0,0-.465-1.358,1.943,1.943,0,0,0-1.44-.472q-.45,0-.907.015t-.87.037q-.413.023-.728.053v-.99l.675-.06q.345-.03.712-.037t.713-.008a5.314,5.314,0,0,1,1.958.3,2.064,2.064,0,0,1,1.088.938A3.547,3.547,0,0,1,82.68-5.1V0ZM79.095.21a3.485,3.485,0,0,1-1.485-.3,2.262,2.262,0,0,1-1-.87,2.574,2.574,0,0,1-.353-1.38,2.391,2.391,0,0,1,.368-1.35,2.3,2.3,0,0,1,1.065-.848A4.359,4.359,0,0,1,79.38-4.83H81.7v.855H79.3a2.078,2.078,0,0,0-1.447.457,1.537,1.537,0,0,0-.5,1.193,1.479,1.479,0,0,0,.525,1.192A2.141,2.141,0,0,0,79.3-.69a2.86,2.86,0,0,0,1.065-.2,1.9,1.9,0,0,0,.855-.69A2.444,2.444,0,0,0,81.6-2.925l.33.465a3.234,3.234,0,0,1-.42,1.477,2.3,2.3,0,0,1-.975.893A3.249,3.249,0,0,1,79.095.21ZM85.56,0V-10.95h1.125V0ZM84.4-10.035v-.915h2.28v.915Z" transform="translate(14147 14113)" fill="#262626"/>
    <path id="Path_991" data-name="Path 991" d="M-70.68,0V-10.95h1.14V0Zm.84,0V-1.035h5.145V0Zm9.6.225A2.64,2.64,0,0,1-62.415-.7a3.972,3.972,0,0,1-.75-2.573V-7.95h1.11v4.905A2.362,2.362,0,0,0-61.508-1.4,1.945,1.945,0,0,0-59.985-.8a2.13,2.13,0,0,0,1.627-.645,2.413,2.413,0,0,0,.607-1.725V-7.95h1.125V0h-.9V-3.315h.18a5.11,5.11,0,0,1-.315,1.9A2.579,2.579,0,0,1-58.605-.2,2.771,2.771,0,0,1-60.2.225ZM-54.66,0l2.94-4.185v.3l-2.76-4.05h1.23l2.1,3.12h.21l1.995-3.12h1.155l-2.595,3.93V-4.29L-47.295,0h-1.23l-2.43-3.375h-.195L-53.505,0ZM-42.9.225A2.64,2.64,0,0,1-45.075-.7a3.972,3.972,0,0,1-.75-2.573V-7.95h1.11v4.905A2.362,2.362,0,0,0-44.167-1.4,1.945,1.945,0,0,0-42.645-.8a2.13,2.13,0,0,0,1.627-.645,2.413,2.413,0,0,0,.607-1.725V-7.95h1.125V0h-.9V-3.315H-40a5.11,5.11,0,0,1-.315,1.9A2.579,2.579,0,0,1-41.265-.2a2.771,2.771,0,0,1-1.59.428ZM-36.345,0V-7.935h.9V-4.62h-.09a3.7,3.7,0,0,1,.765-2.573,3.113,3.113,0,0,1,2.4-.832h.255v1.02h-.465a2.68,2.68,0,0,0-1.965.668A2.635,2.635,0,0,0-35.22-4.38V0Zm6.465,0V-7.935h1.11V0Zm-1.275-7.035v-.9h2.385v.9Zm1.515-2.37a.791.791,0,0,1-.608-.217.772.772,0,0,1-.2-.547.772.772,0,0,1,.2-.547.791.791,0,0,1,.608-.218.766.766,0,0,1,.6.218.79.79,0,0,1,.195.547.789.789,0,0,1-.195.547A.766.766,0,0,1-29.64-9.405Zm7.38,9.66A4.279,4.279,0,0,1-24.052-.1a3.914,3.914,0,0,1-1.305-.945,4.179,4.179,0,0,1-.81-1.327,4.215,4.215,0,0,1-.278-1.5v-.21a4.176,4.176,0,0,1,.285-1.508,4.113,4.113,0,0,1,.825-1.327,4.05,4.05,0,0,1,1.313-.937,4.2,4.2,0,0,1,1.763-.353,4.24,4.24,0,0,1,1.778.353,4.05,4.05,0,0,1,1.313.938,4.008,4.008,0,0,1,.817,1.327,4.276,4.276,0,0,1,.278,1.508v.21a4.319,4.319,0,0,1-.27,1.5,4.07,4.07,0,0,1-.8,1.327A3.9,3.9,0,0,1-20.46-.1,4.331,4.331,0,0,1-22.26.255Zm0-1.005a3.01,3.01,0,0,0,1.673-.443,2.907,2.907,0,0,0,1.042-1.17,3.585,3.585,0,0,0,.36-1.612A3.558,3.558,0,0,0-19.552-5.6,2.839,2.839,0,0,0-20.61-6.758a3.071,3.071,0,0,0-1.65-.428,3.042,3.042,0,0,0-1.635.428A2.839,2.839,0,0,0-24.952-5.6a3.558,3.558,0,0,0-.368,1.628,3.585,3.585,0,0,0,.36,1.612,2.907,2.907,0,0,0,1.043,1.17A2.982,2.982,0,0,0-22.26-.75Zm9.225.975A2.64,2.64,0,0,1-15.21-.7a3.972,3.972,0,0,1-.75-2.573V-7.95h1.11v4.905A2.362,2.362,0,0,0-14.3-1.4,1.945,1.945,0,0,0-12.78-.8a2.13,2.13,0,0,0,1.628-.645,2.413,2.413,0,0,0,.608-1.725V-7.95H-9.42V0h-.9V-3.315h.18a5.11,5.11,0,0,1-.315,1.9A2.579,2.579,0,0,1-11.4-.2a2.771,2.771,0,0,1-1.59.428Zm9.06,0A3.66,3.66,0,0,1-6.33-.443a2.228,2.228,0,0,1-.84-1.793h1.05A1.522,1.522,0,0,0-5.6-1.2a2.319,2.319,0,0,0,1.627.465,2.455,2.455,0,0,0,1.6-.442A1.349,1.349,0,0,0-1.845-2.25a1.058,1.058,0,0,0-.443-.908A2.655,2.655,0,0,0-3.57-3.57l-.9-.09a3.258,3.258,0,0,1-1.747-.668,1.844,1.844,0,0,1-.668-1.508,2.121,2.121,0,0,1,.36-1.23,2.365,2.365,0,0,1,1.013-.818,3.733,3.733,0,0,1,1.537-.293,3.379,3.379,0,0,1,2.078.6,2.045,2.045,0,0,1,.818,1.71H-2.13a1.253,1.253,0,0,0-.48-.96,2.077,2.077,0,0,0-1.365-.39,2.043,2.043,0,0,0-1.387.405,1.273,1.273,0,0,0-.458.99A1.071,1.071,0,0,0-5.475-5a1.825,1.825,0,0,0,1.08.4l.9.09a4.016,4.016,0,0,1,1.958.69A1.852,1.852,0,0,1-.78-2.235a2.144,2.144,0,0,1-.4,1.268A2.609,2.609,0,0,1-2.295-.09,4.162,4.162,0,0,1-3.975.225Z" transform="translate(14567 14113)" fill="#262626"/>
    <g id="Path_992" data-name="Path 992" transform="translate(14147 14125)" fill="#fff">
      <path d="M 414.5 10.5 L 5.5 10.5 C 2.743000030517578 10.5 0.5 8.256999969482422 0.5 5.5 C 0.5 2.743000030517578 2.743000030517578 0.5 5.5 0.5 L 414.5 0.5 C 417.2569885253906 0.5 419.5 2.743000030517578 419.5 5.5 C 419.5 8.256999969482422 417.2569885253906 10.5 414.5 10.5 Z" stroke="none"/>
      <path d="M 5.5 1 C 3.0186767578125 1 1 3.018684387207031 1 5.5 C 1 7.981315612792969 3.0186767578125 10 5.5 10 L 414.5 10 C 416.9813232421875 10 419 7.981315612792969 419 5.5 C 419 3.018684387207031 416.9813232421875 1 414.5 1 L 5.5 1 M 5.5 0 L 414.5 0 C 417.5375671386719 0 420 2.462421417236328 420 5.5 C 420 8.537578582763672 417.5375671386719 11 414.5 11 L 5.5 11 C 2.462432861328125 11 0 8.537578582763672 0 5.5 C 0 2.462421417236328 2.462432861328125 0 5.5 0 Z" stroke="none" fill="#f7dcb9"/>
    </g>
    <path id="Path_993" data-name="Path 993" d="M13.5,0A13.5,13.5,0,1,1,0,13.5,13.5,13.5,0,0,1,13.5,0Z" transform="translate(14167 14117)" fill="#f7dcb9"/>
    <path id="Path_994" data-name="Path 994" d="M6.5.255A5.988,5.988,0,0,1,4.1-.2,4.93,4.93,0,0,1,2.355-1.433,5.436,5.436,0,0,1,1.283-3.248,6.387,6.387,0,0,1,.915-5.415v-.27a6.038,6.038,0,0,1,.353-2.04A5.676,5.676,0,0,1,2.3-9.51a4.829,4.829,0,0,1,1.68-1.26,5.37,5.37,0,0,1,2.28-.465,5.361,5.361,0,0,1,2.37.5A4.323,4.323,0,0,1,10.3-9.33a4.174,4.174,0,0,1,.743,2.085H9.885a3.214,3.214,0,0,0-.637-1.62,3.212,3.212,0,0,0-1.3-.99,4.305,4.305,0,0,0-1.695-.33,4.256,4.256,0,0,0-1.74.345,3.668,3.668,0,0,0-1.32.975,4.5,4.5,0,0,0-.832,1.477A5.644,5.644,0,0,0,2.07-5.535a5.975,5.975,0,0,0,.3,1.943,4.279,4.279,0,0,0,.87,1.507,3.876,3.876,0,0,0,1.388.975A4.766,4.766,0,0,0,6.5-.765a4.924,4.924,0,0,0,2.272-.5A3.885,3.885,0,0,0,10.29-2.6l-.45,1.41v-3.24h1.08V-1.7A4.792,4.792,0,0,1,9.09-.262,6.149,6.149,0,0,1,6.5.255ZM6.09-4.185v-.96H11.9v.96ZM17.235.255A4.125,4.125,0,0,1,15.465-.1a3.433,3.433,0,0,1-1.23-.945,4.011,4.011,0,0,1-.713-1.327,4.993,4.993,0,0,1-.233-1.515V-4.1a4.945,4.945,0,0,1,.233-1.5,3.928,3.928,0,0,1,.713-1.32,3.524,3.524,0,0,1,1.207-.937,3.863,3.863,0,0,1,1.7-.353,3.666,3.666,0,0,1,2.077.555,3.553,3.553,0,0,1,1.253,1.418A4.175,4.175,0,0,1,20.9-4.38V-3.8H13.8v-.87h6.315l-.285.435a3.676,3.676,0,0,0-.307-1.553,2.429,2.429,0,0,0-.9-1.05,2.671,2.671,0,0,0-1.478-.383A2.61,2.61,0,0,0,15.6-6.78a2.665,2.665,0,0,0-.923,1.155A4.127,4.127,0,0,0,14.37-3.99a4.253,4.253,0,0,0,.307,1.642,2.59,2.59,0,0,0,.945,1.178,2.8,2.8,0,0,0,1.613.435,2.774,2.774,0,0,0,1.68-.473,1.926,1.926,0,0,0,.8-1.117h1.05a2.967,2.967,0,0,1-.63,1.373,3.179,3.179,0,0,1-1.215.893A4.23,4.23,0,0,1,17.235.255Zm9.375,0A4.279,4.279,0,0,1,24.818-.1a3.914,3.914,0,0,1-1.305-.945A4.179,4.179,0,0,1,22.7-2.37a4.215,4.215,0,0,1-.277-1.5v-.21a4.176,4.176,0,0,1,.285-1.508,4.113,4.113,0,0,1,.825-1.327,4.05,4.05,0,0,1,1.313-.937,4.2,4.2,0,0,1,1.763-.353,4.24,4.24,0,0,1,1.778.353,4.05,4.05,0,0,1,1.313.938,4.008,4.008,0,0,1,.818,1.327A4.276,4.276,0,0,1,30.8-4.08v.21a4.319,4.319,0,0,1-.27,1.5,4.07,4.07,0,0,1-.8,1.327A3.9,3.9,0,0,1,28.41-.1,4.331,4.331,0,0,1,26.61.255Zm0-1.005a3.01,3.01,0,0,0,1.673-.443,2.907,2.907,0,0,0,1.042-1.17,3.585,3.585,0,0,0,.36-1.612A3.558,3.558,0,0,0,29.318-5.6,2.839,2.839,0,0,0,28.26-6.758a3.071,3.071,0,0,0-1.65-.428,3.042,3.042,0,0,0-1.635.428A2.839,2.839,0,0,0,23.917-5.6a3.558,3.558,0,0,0-.367,1.628,3.585,3.585,0,0,0,.36,1.612,2.907,2.907,0,0,0,1.043,1.17A2.982,2.982,0,0,0,26.61-.75ZM33.09,0V-7.95h.9v3.345h-.18a5.236,5.236,0,0,1,.307-1.89,2.66,2.66,0,0,1,.923-1.237,2.6,2.6,0,0,1,1.56-.443h.045a2.637,2.637,0,0,1,1.56.435,2.569,2.569,0,0,1,.915,1.23,5.4,5.4,0,0,1,.3,1.905h-.36a5.236,5.236,0,0,1,.307-1.89,2.64,2.64,0,0,1,.93-1.237,2.639,2.639,0,0,1,1.568-.443h.045a2.672,2.672,0,0,1,1.568.435,2.594,2.594,0,0,1,.93,1.23,5.283,5.283,0,0,1,.307,1.905V0H43.59V-4.86a2.528,2.528,0,0,0-.51-1.665,1.8,1.8,0,0,0-1.47-.615,2.01,2.01,0,0,0-1.568.637,2.461,2.461,0,0,0-.577,1.718V0H38.34V-4.86a2.528,2.528,0,0,0-.51-1.665,1.8,1.8,0,0,0-1.47-.615,2.01,2.01,0,0,0-1.568.637,2.461,2.461,0,0,0-.577,1.718V0ZM50.835.255A4.125,4.125,0,0,1,49.065-.1a3.433,3.433,0,0,1-1.23-.945,4.012,4.012,0,0,1-.713-1.327,4.993,4.993,0,0,1-.232-1.515V-4.1a4.945,4.945,0,0,1,.232-1.5,3.928,3.928,0,0,1,.713-1.32,3.524,3.524,0,0,1,1.208-.937,3.863,3.863,0,0,1,1.7-.353,3.666,3.666,0,0,1,2.077.555,3.553,3.553,0,0,1,1.252,1.418,4.175,4.175,0,0,1,.42,1.852V-3.8H47.4v-.87h6.315l-.285.435a3.676,3.676,0,0,0-.308-1.553,2.429,2.429,0,0,0-.9-1.05,2.671,2.671,0,0,0-1.478-.383A2.61,2.61,0,0,0,49.2-6.78a2.665,2.665,0,0,0-.922,1.155A4.127,4.127,0,0,0,47.97-3.99a4.253,4.253,0,0,0,.308,1.642,2.59,2.59,0,0,0,.945,1.178,2.8,2.8,0,0,0,1.612.435,2.774,2.774,0,0,0,1.68-.473,1.926,1.926,0,0,0,.795-1.117h1.05a2.967,2.967,0,0,1-.63,1.373,3.179,3.179,0,0,1-1.215.893A4.23,4.23,0,0,1,50.835.255Zm8.7-.165A3.83,3.83,0,0,1,58.11-.15a1.829,1.829,0,0,1-.93-.818,3.127,3.127,0,0,1-.33-1.553v-7.92h1.08v8.085A1.414,1.414,0,0,0,58.3-1.3,1.458,1.458,0,0,0,59.37-.93h1.425V.09Zm-4.11-7.17v-.855h5.37v.855ZM62.97,0V-7.935h.9V-4.62h-.09a3.7,3.7,0,0,1,.765-2.573,3.113,3.113,0,0,1,2.4-.832H67.2v1.02h-.465a2.68,2.68,0,0,0-1.965.668,2.635,2.635,0,0,0-.675,1.957V0Zm6.465,0V-7.935h1.11V0ZM68.16-7.035v-.9h2.385v.9Zm1.515-2.37a.791.791,0,0,1-.607-.217.772.772,0,0,1-.2-.547.772.772,0,0,1,.2-.547.791.791,0,0,1,.607-.218.766.766,0,0,1,.6.218.789.789,0,0,1,.2.547.789.789,0,0,1-.2.547A.766.766,0,0,1,69.675-9.405Zm7.17,9.66A4.037,4.037,0,0,1,75.1-.1a3.516,3.516,0,0,1-1.237-.96A4.263,4.263,0,0,1,73.118-2.4a4.626,4.626,0,0,1-.248-1.485V-4.1a4.6,4.6,0,0,1,.248-1.493,4.1,4.1,0,0,1,.743-1.32A3.6,3.6,0,0,1,75.1-7.853a3.962,3.962,0,0,1,1.718-.353,4.127,4.127,0,0,1,1.762.36,3.178,3.178,0,0,1,1.253,1.02,3.128,3.128,0,0,1,.57,1.56H79.32a2.232,2.232,0,0,0-.772-1.372,2.571,2.571,0,0,0-1.732-.548,2.707,2.707,0,0,0-1.568.428A2.639,2.639,0,0,0,74.31-5.6a4.016,4.016,0,0,0-.315,1.613,4.086,4.086,0,0,0,.315,1.612,2.7,2.7,0,0,0,.945,1.185,2.7,2.7,0,0,0,1.59.443,2.937,2.937,0,0,0,1.283-.263,2.358,2.358,0,0,0,.885-.712,1.991,1.991,0,0,0,.4-.99h1.08a2.862,2.862,0,0,1-.562,1.568,3.355,3.355,0,0,1-1.3,1.035A4.2,4.2,0,0,1,76.845.255Z" transform="translate(14147 14183)" fill="#262626"/>
    <path id="Path_995" data-name="Path 995" d="M-54.1.255a5.608,5.608,0,0,1-2.475-.51,5.1,5.1,0,0,1-1.74-1.35,5.953,5.953,0,0,1-1.035-1.83A5.86,5.86,0,0,1-59.7-5.37v-.27a5.975,5.975,0,0,1,.353-2A5.546,5.546,0,0,1-58.29-9.45a5.185,5.185,0,0,1,1.755-1.3,5.714,5.714,0,0,1,2.43-.488,5.7,5.7,0,0,1,2.438.488,5.2,5.2,0,0,1,1.747,1.3,5.546,5.546,0,0,1,1.058,1.808,5.975,5.975,0,0,1,.352,2v.285a5.911,5.911,0,0,1-.337,1.928,5.776,5.776,0,0,1-1.035,1.823A5.173,5.173,0,0,1-51.63-.255,5.608,5.608,0,0,1-54.1.255Zm0-1.05a4.408,4.408,0,0,0,1.875-.382,4.047,4.047,0,0,0,1.395-1.05,4.772,4.772,0,0,0,.87-1.507,5.179,5.179,0,0,0,.3-1.755,5.312,5.312,0,0,0-.3-1.8,4.526,4.526,0,0,0-.878-1.492,4.129,4.129,0,0,0-1.4-1.028,4.446,4.446,0,0,0-1.86-.375,4.409,4.409,0,0,0-1.845.375,4.129,4.129,0,0,0-1.4,1.028,4.632,4.632,0,0,0-.885,1.492,5.2,5.2,0,0,0-.307,1.8,5.179,5.179,0,0,0,.3,1.755,4.772,4.772,0,0,0,.87,1.507,4.029,4.029,0,0,0,1.4,1.05A4.422,4.422,0,0,0-54.1-.8Zm7.95.8V-7.935h.9V-4.62h-.09a3.7,3.7,0,0,1,.765-2.573,3.113,3.113,0,0,1,2.4-.832h.255v1.02h-.465a2.68,2.68,0,0,0-1.965.668A2.635,2.635,0,0,0-45.03-4.38V0Zm8.97,3.105q-.555,0-1.118-.053t-1.073-.127v-.96q.54.075,1.133.128t1.117.052a4.542,4.542,0,0,0,1.815-.3,1.839,1.839,0,0,0,.967-.952A4.245,4.245,0,0,0-34.05-.825v-1.59l.42-1.11a4.239,4.239,0,0,1-.48,1.958A3.153,3.153,0,0,1-35.325-.315a3.458,3.458,0,0,1-1.74.435,3.585,3.585,0,0,1-1.552-.33,3.553,3.553,0,0,1-1.193-.908,4.25,4.25,0,0,1-.765-1.313,4.445,4.445,0,0,1-.27-1.545v-.21a4.34,4.34,0,0,1,.27-1.523A4.084,4.084,0,0,1-39.81-7,3.518,3.518,0,0,1-38.6-7.883a3.794,3.794,0,0,1,1.583-.323,3.506,3.506,0,0,1,1.83.465,3.267,3.267,0,0,1,1.222,1.29,4.286,4.286,0,0,1,.472,1.935l-.36-.195V-7.935h.885V-.87a5.316,5.316,0,0,1-.42,2.3A2.594,2.594,0,0,1-34.732,2.7,6.189,6.189,0,0,1-37.185,3.105Zm.315-4.02a2.941,2.941,0,0,0,1.448-.353,2.622,2.622,0,0,0,1.013-1,2.93,2.93,0,0,0,.375-1.5V-4.5a2.67,2.67,0,0,0-.382-1.44A2.7,2.7,0,0,0-35.43-6.9a2.949,2.949,0,0,0-1.44-.345,2.714,2.714,0,0,0-1.515.42,2.756,2.756,0,0,0-.99,1.132A3.653,3.653,0,0,0-39.72-4.08a3.671,3.671,0,0,0,.353,1.635,2.7,2.7,0,0,0,1,1.125A2.761,2.761,0,0,0-36.87-.915ZM-25.32,0V-2.385h-.18V-5.2a1.855,1.855,0,0,0-.465-1.358,1.943,1.943,0,0,0-1.44-.472q-.45,0-.908.015t-.87.037q-.412.023-.728.053v-.99l.675-.06q.345-.03.712-.037t.712-.008a5.314,5.314,0,0,1,1.958.3,2.064,2.064,0,0,1,1.087.938A3.547,3.547,0,0,1-24.42-5.1V0ZM-28,.21a3.485,3.485,0,0,1-1.485-.3,2.262,2.262,0,0,1-1-.87,2.574,2.574,0,0,1-.353-1.38,2.391,2.391,0,0,1,.368-1.35,2.3,2.3,0,0,1,1.065-.848A4.359,4.359,0,0,1-27.72-4.83h2.325v.855h-2.4a2.078,2.078,0,0,0-1.448.457,1.537,1.537,0,0,0-.5,1.193,1.479,1.479,0,0,0,.525,1.192A2.141,2.141,0,0,0-27.8-.69a2.86,2.86,0,0,0,1.065-.2,1.9,1.9,0,0,0,.855-.69A2.444,2.444,0,0,0-25.5-2.925l.33.465a3.234,3.234,0,0,1-.42,1.477,2.3,2.3,0,0,1-.975.893A3.249,3.249,0,0,1-28,.21Zm6.39-.21V-7.935h.9v3.33h-.18a4.959,4.959,0,0,1,.33-1.905,2.641,2.641,0,0,1,.99-1.23,2.966,2.966,0,0,1,1.665-.435h.045a2.665,2.665,0,0,1,2.235.938,4.174,4.174,0,0,1,.735,2.633V0H-16V-4.845a2.387,2.387,0,0,0-.57-1.665,2.035,2.035,0,0,0-1.59-.63,2.252,2.252,0,0,0-1.687.652A2.352,2.352,0,0,0-20.49-4.77V0Zm9.945,0V-7.935h1.11V0Zm-1.275-7.035v-.9h2.385v.9Zm1.515-2.37a.791.791,0,0,1-.608-.217.772.772,0,0,1-.2-.547.772.772,0,0,1,.2-.547.791.791,0,0,1,.608-.218.766.766,0,0,1,.6.218.789.789,0,0,1,.195.547.789.789,0,0,1-.195.547A.766.766,0,0,1-11.43-9.405ZM-4.26.255A4.037,4.037,0,0,1-6.007-.1a3.516,3.516,0,0,1-1.237-.96A4.263,4.263,0,0,1-7.987-2.4a4.626,4.626,0,0,1-.248-1.485V-4.1a4.6,4.6,0,0,1,.248-1.493,4.1,4.1,0,0,1,.742-1.32,3.6,3.6,0,0,1,1.237-.945A3.962,3.962,0,0,1-4.29-8.205a4.127,4.127,0,0,1,1.762.36,3.178,3.178,0,0,1,1.253,1.02A3.128,3.128,0,0,1-.7-5.265h-1.08a2.232,2.232,0,0,0-.772-1.372A2.571,2.571,0,0,0-4.29-7.185a2.707,2.707,0,0,0-1.568.428A2.639,2.639,0,0,0-6.795-5.6,4.016,4.016,0,0,0-7.11-3.99a4.086,4.086,0,0,0,.315,1.612A2.7,2.7,0,0,0-5.85-1.193,2.7,2.7,0,0,0-4.26-.75a2.937,2.937,0,0,0,1.283-.263,2.358,2.358,0,0,0,.885-.712,1.991,1.991,0,0,0,.4-.99h1.08a2.862,2.862,0,0,1-.563,1.568,3.355,3.355,0,0,1-1.3,1.035A4.2,4.2,0,0,1-4.26.255Z" transform="translate(14567 14183)" fill="#262626"/>
    <g id="Path_996" data-name="Path 996" transform="translate(14147 14195)" fill="#fff">
      <path d="M 414.5 10.5 L 5.5 10.5 C 2.743000030517578 10.5 0.5 8.256999969482422 0.5 5.5 C 0.5 2.743000030517578 2.743000030517578 0.5 5.5 0.5 L 414.5 0.5 C 417.2569885253906 0.5 419.5 2.743000030517578 419.5 5.5 C 419.5 8.256999969482422 417.2569885253906 10.5 414.5 10.5 Z" stroke="none"/>
      <path d="M 5.5 1 C 3.0186767578125 1 1 3.018684387207031 1 5.5 C 1 7.981315612792969 3.0186767578125 10 5.5 10 L 414.5 10 C 416.9813232421875 10 419 7.981315612792969 419 5.5 C 419 3.018684387207031 416.9813232421875 1 414.5 1 L 5.5 1 M 5.5 0 L 414.5 0 C 417.5375671386719 0 420 2.462421417236328 420 5.5 C 420 8.537578582763672 417.5375671386719 11 414.5 11 L 5.5 11 C 2.462432861328125 11 0 8.537578582763672 0 5.5 C 0 2.462421417236328 2.462432861328125 0 5.5 0 Z" stroke="none" fill="#f7dcb9"/>
    </g>
    <path id="Path_997" data-name="Path 997" d="M13.5,0A13.5,13.5,0,1,1,0,13.5,13.5,13.5,0,0,1,13.5,0Z" transform="translate(14394 14187)" fill="#f7dcb9"/>
    <path id="Path_998" data-name="Path 998" d="M.5,0,4.53-10.95H6.57L10.74,0H9.57L5.685-10.23l.615.315H4.725l.645-.315L1.635,0Zm2.16-3.48L3.03-4.515H8.115l.39,1.035ZM16.785.255A3.546,3.546,0,0,1,14.948-.21a3.227,3.227,0,0,1-1.23-1.305,4.353,4.353,0,0,1-.472-1.935h.345V0h-.9V-10.95h1.125v5.475L13.38-4.47A4.4,4.4,0,0,1,13.868-6.5,3.163,3.163,0,0,1,15.1-7.77a3.53,3.53,0,0,1,1.763-.435,3.67,3.67,0,0,1,1.575.33,3.657,3.657,0,0,1,1.208.9,3.959,3.959,0,0,1,.765,1.313A4.668,4.668,0,0,1,20.67-4.1v.21a4.508,4.508,0,0,1-.27,1.552A4.245,4.245,0,0,1,19.628-1,3.61,3.61,0,0,1,18.4-.083,3.772,3.772,0,0,1,16.785.255Zm-.12-.99A2.7,2.7,0,0,0,18.21-1.17a2.83,2.83,0,0,0,.99-1.17,3.837,3.837,0,0,0,.345-1.65,3.754,3.754,0,0,0-.352-1.658A2.77,2.77,0,0,0,18.188-6.8a2.751,2.751,0,0,0-1.522-.42,3.019,3.019,0,0,0-1.47.36,2.67,2.67,0,0,0-1.042,1.013A2.986,2.986,0,0,0,13.77-4.3v.735a2.816,2.816,0,0,0,.382,1.477,2.7,2.7,0,0,0,1.042,1A3.019,3.019,0,0,0,16.665-.735Zm8.79.96A3.66,3.66,0,0,1,23.1-.443a2.228,2.228,0,0,1-.84-1.793h1.05A1.522,1.522,0,0,0,23.827-1.2a2.319,2.319,0,0,0,1.627.465,2.455,2.455,0,0,0,1.6-.442,1.349,1.349,0,0,0,.532-1.072,1.058,1.058,0,0,0-.443-.908A2.655,2.655,0,0,0,25.86-3.57l-.9-.09a3.258,3.258,0,0,1-1.747-.668,1.844,1.844,0,0,1-.668-1.508,2.121,2.121,0,0,1,.36-1.23,2.365,2.365,0,0,1,1.013-.818,3.733,3.733,0,0,1,1.537-.293,3.379,3.379,0,0,1,2.078.6,2.045,2.045,0,0,1,.817,1.71H27.3a1.253,1.253,0,0,0-.48-.96,2.077,2.077,0,0,0-1.365-.39,2.043,2.043,0,0,0-1.387.405,1.273,1.273,0,0,0-.458.99A1.071,1.071,0,0,0,23.955-5a1.825,1.825,0,0,0,1.08.4l.9.09a4.016,4.016,0,0,1,1.958.69,1.852,1.852,0,0,1,.757,1.59,2.144,2.144,0,0,1-.4,1.268,2.609,2.609,0,0,1-1.118.878A4.162,4.162,0,0,1,25.455.225ZM33.765.09A3.83,3.83,0,0,1,32.34-.15a1.829,1.829,0,0,1-.93-.818,3.127,3.127,0,0,1-.33-1.553v-7.92h1.08v8.085A1.414,1.414,0,0,0,32.535-1.3,1.458,1.458,0,0,0,33.6-.93h1.425V.09Zm-4.11-7.17v-.855h5.37v.855ZM37.2,0V-7.935h.9V-4.62h-.09a3.7,3.7,0,0,1,.765-2.573,3.113,3.113,0,0,1,2.4-.832h.255v1.02h-.465A2.68,2.68,0,0,0,39-6.338a2.635,2.635,0,0,0-.675,1.957V0ZM48.045,0V-2.385h-.18V-5.2A1.855,1.855,0,0,0,47.4-6.563a1.943,1.943,0,0,0-1.44-.472q-.45,0-.908.015t-.87.037q-.413.023-.728.053v-.99l.675-.06q.345-.03.713-.037t.713-.008a5.314,5.314,0,0,1,1.957.3,2.064,2.064,0,0,1,1.088.938A3.547,3.547,0,0,1,48.945-5.1V0ZM45.36.21a3.485,3.485,0,0,1-1.485-.3,2.262,2.262,0,0,1-1-.87,2.574,2.574,0,0,1-.353-1.38,2.391,2.391,0,0,1,.368-1.35,2.3,2.3,0,0,1,1.065-.848,4.359,4.359,0,0,1,1.688-.293H47.97v.855h-2.4a2.078,2.078,0,0,0-1.448.457,1.537,1.537,0,0,0-.5,1.193,1.479,1.479,0,0,0,.525,1.192A2.141,2.141,0,0,0,45.57-.69a2.86,2.86,0,0,0,1.065-.2,1.9,1.9,0,0,0,.855-.69,2.444,2.444,0,0,0,.375-1.343l.33.465a3.234,3.234,0,0,1-.42,1.477A2.3,2.3,0,0,1,46.8-.09,3.249,3.249,0,0,1,45.36.21Zm9.735.045A4.037,4.037,0,0,1,53.347-.1a3.516,3.516,0,0,1-1.238-.96A4.264,4.264,0,0,1,51.367-2.4a4.626,4.626,0,0,1-.247-1.485V-4.1a4.6,4.6,0,0,1,.247-1.493,4.1,4.1,0,0,1,.743-1.32,3.6,3.6,0,0,1,1.238-.945,3.962,3.962,0,0,1,1.717-.353,4.127,4.127,0,0,1,1.763.36,3.178,3.178,0,0,1,1.252,1.02,3.128,3.128,0,0,1,.57,1.56H57.57A2.232,2.232,0,0,0,56.8-6.638a2.571,2.571,0,0,0-1.733-.548,2.707,2.707,0,0,0-1.568.428A2.639,2.639,0,0,0,52.56-5.6a4.016,4.016,0,0,0-.315,1.613,4.086,4.086,0,0,0,.315,1.612A2.7,2.7,0,0,0,53.5-1.193a2.7,2.7,0,0,0,1.59.443,2.937,2.937,0,0,0,1.283-.263,2.358,2.358,0,0,0,.885-.712,1.991,1.991,0,0,0,.4-.99h1.08a2.862,2.862,0,0,1-.562,1.568,3.355,3.355,0,0,1-1.3,1.035A4.2,4.2,0,0,1,55.095.255ZM63.69.09a3.83,3.83,0,0,1-1.425-.24,1.829,1.829,0,0,1-.93-.818A3.127,3.127,0,0,1,61-2.52v-7.92h1.08v8.085A1.414,1.414,0,0,0,62.46-1.3a1.458,1.458,0,0,0,1.065.367H64.95V.09ZM59.58-7.08v-.855h5.37v.855Z" transform="translate(14147 14253)" fill="#262626"/>
    <path id="Path_999" data-name="Path 999" d="M-44.9,0V-10.95h1.14V0Zm.84,0V-1.035h5.145V0Zm7.41,0V-7.935h1.11V0ZM-37.92-7.035v-.9h2.385v.9Zm1.515-2.37a.791.791,0,0,1-.608-.217.772.772,0,0,1-.2-.547.772.772,0,0,1,.2-.547.791.791,0,0,1,.608-.218.766.766,0,0,1,.6.218.789.789,0,0,1,.195.547.789.789,0,0,1-.195.547A.766.766,0,0,1-36.4-9.405Zm6.7,9.5a3.83,3.83,0,0,1-1.425-.24,1.829,1.829,0,0,1-.93-.818,3.127,3.127,0,0,1-.33-1.553v-7.92h1.08v8.085A1.414,1.414,0,0,0-30.93-1.3a1.458,1.458,0,0,0,1.065.367h1.425V.09Zm-4.11-7.17v-.855h5.37v.855ZM-23.025.255A4.125,4.125,0,0,1-24.8-.1a3.433,3.433,0,0,1-1.23-.945,4.011,4.011,0,0,1-.712-1.327,4.993,4.993,0,0,1-.233-1.515V-4.1a4.945,4.945,0,0,1,.233-1.5,3.928,3.928,0,0,1,.712-1.32,3.524,3.524,0,0,1,1.208-.937,3.863,3.863,0,0,1,1.7-.353,3.666,3.666,0,0,1,2.077.555,3.553,3.553,0,0,1,1.253,1.418,4.175,4.175,0,0,1,.42,1.852V-3.8H-26.46v-.87h6.315l-.285.435a3.676,3.676,0,0,0-.307-1.553,2.429,2.429,0,0,0-.9-1.05,2.671,2.671,0,0,0-1.477-.383,2.61,2.61,0,0,0-1.545.435,2.665,2.665,0,0,0-.923,1.155A4.127,4.127,0,0,0-25.89-3.99a4.253,4.253,0,0,0,.307,1.642,2.59,2.59,0,0,0,.945,1.178,2.8,2.8,0,0,0,1.613.435,2.774,2.774,0,0,0,1.68-.473,1.926,1.926,0,0,0,.8-1.117h1.05a2.967,2.967,0,0,1-.63,1.373,3.179,3.179,0,0,1-1.215.893A4.23,4.23,0,0,1-23.025.255ZM-17.2,0V-7.935h.9V-4.62h-.09a3.7,3.7,0,0,1,.765-2.573,3.113,3.113,0,0,1,2.4-.832h.255v1.02h-.465a2.68,2.68,0,0,0-1.965.668A2.635,2.635,0,0,0-16.08-4.38V0ZM-6.36,0V-2.385h-.18V-5.2a1.855,1.855,0,0,0-.465-1.358,1.943,1.943,0,0,0-1.44-.472q-.45,0-.908.015t-.87.037q-.413.023-.728.053v-.99l.675-.06q.345-.03.713-.037t.712-.008a5.314,5.314,0,0,1,1.957.3A2.064,2.064,0,0,1-5.8-6.788,3.547,3.547,0,0,1-5.46-5.1V0ZM-9.045.21a3.485,3.485,0,0,1-1.485-.3,2.262,2.262,0,0,1-1-.87,2.574,2.574,0,0,1-.352-1.38,2.391,2.391,0,0,1,.367-1.35,2.3,2.3,0,0,1,1.065-.848A4.359,4.359,0,0,1-8.76-4.83h2.325v.855h-2.4a2.078,2.078,0,0,0-1.448.457,1.537,1.537,0,0,0-.5,1.193,1.479,1.479,0,0,0,.525,1.192A2.141,2.141,0,0,0-8.835-.69a2.86,2.86,0,0,0,1.065-.2,1.9,1.9,0,0,0,.855-.69A2.444,2.444,0,0,0-6.54-2.925l.33.465A3.234,3.234,0,0,1-6.63-.983a2.3,2.3,0,0,1-.975.893A3.249,3.249,0,0,1-9.045.21ZM-2.58,0V-10.95h1.125V0ZM-3.735-10.035v-.915h2.28v.915Z" transform="translate(14567 14253)" fill="#262626"/>
    <g id="Path_1000" data-name="Path 1000" transform="translate(14147 14265)" fill="#fff">
      <path d="M 414.5 10.5 L 5.5 10.5 C 2.743000030517578 10.5 0.5 8.256999969482422 0.5 5.5 C 0.5 2.743000030517578 2.743000030517578 0.5 5.5 0.5 L 414.5 0.5 C 417.2569885253906 0.5 419.5 2.743000030517578 419.5 5.5 C 419.5 8.256999969482422 417.2569885253906 10.5 414.5 10.5 Z" stroke="none"/>
      <path d="M 5.5 1 C 3.0186767578125 1 1 3.018684387207031 1 5.5 C 1 7.981315612792969 3.0186767578125 10 5.5 10 L 414.5 10 C 416.9813232421875 10 419 7.981315612792969 419 5.5 C 419 3.018684387207031 416.9813232421875 1 414.5 1 L 5.5 1 M 5.5 0 L 414.5 0 C 417.5375671386719 0 420 2.462421417236328 420 5.5 C 420 8.537578582763672 417.5375671386719 11 414.5 11 L 5.5 11 C 2.462432861328125 11 0 8.537578582763672 0 5.5 C 0 2.462421417236328 2.462432861328125 0 5.5 0 Z" stroke="none" fill="#f7dcb9"/>
    </g>
    <path id="Path_1001" data-name="Path 1001" d="M13.5,0A13.5,13.5,0,1,1,0,13.5,13.5,13.5,0,0,1,13.5,0Z" transform="translate(14424 14257)" fill="#f7dcb9"/>
  </g>
</svg>
