<svg xmlns="http://www.w3.org/2000/svg" width="1080" height="179.28" viewBox="0 0 1080 179.28">
  <g id="Group_232" data-name="Group 232" transform="translate(-14342 -1977)">
    <path id="Path_871" data-name="Path 871" d="M70,0A70,70,0,1,1,0,70,70,70,0,0,1,70,0Z" transform="translate(14342 1977)" fill="#f7dcb9"/>
    <path id="Path_872" data-name="Path 872" d="M-52.54,0V-14.6h2.78V0Zm2.38,0V-2.4h6.62V0Zm0-6.22v-2.4h6.1v2.4Zm0-5.98v-2.4h6.46v2.4ZM-40.84,0V-10.86h2.2V-6.2h-.2a7.823,7.823,0,0,1,.42-2.75,3.441,3.441,0,0,1,1.25-1.68,3.572,3.572,0,0,1,2.07-.57h.12a3.609,3.609,0,0,1,2.09.57,3.386,3.386,0,0,1,1.24,1.68,8,8,0,0,1,.41,2.75h-.7a7.657,7.657,0,0,1,.43-2.75,3.5,3.5,0,0,1,1.26-1.68,3.572,3.572,0,0,1,2.07-.57h.12a3.657,3.657,0,0,1,2.1.57,3.473,3.473,0,0,1,1.27,1.68,7.657,7.657,0,0,1,.43,2.75V0h-2.78V-6.46a2.428,2.428,0,0,0-.52-1.63,1.838,1.838,0,0,0-1.48-.61,1.993,1.993,0,0,0-1.54.63,2.4,2.4,0,0,0-.58,1.69V0h-2.78V-6.46a2.428,2.428,0,0,0-.52-1.63,1.838,1.838,0,0,0-1.48-.61,1.993,1.993,0,0,0-1.54.63,2.4,2.4,0,0,0-.58,1.69V0Zm19.56,4V-10.86h2.2v4.68l-.34-.02a6.416,6.416,0,0,1,.69-2.78,4.021,4.021,0,0,1,1.63-1.67,4.726,4.726,0,0,1,2.28-.55,5.023,5.023,0,0,1,2.09.42,4.671,4.671,0,0,1,1.6,1.18A5.375,5.375,0,0,1-10.1-7.83a6.416,6.416,0,0,1,.36,2.17v.42a6.646,6.646,0,0,1-.35,2.19,5.35,5.35,0,0,1-1.02,1.78,4.7,4.7,0,0,1-1.61,1.2,4.99,4.99,0,0,1-2.1.43,4.876,4.876,0,0,1-2.23-.51,3.908,3.908,0,0,1-1.63-1.58,6.064,6.064,0,0,1-.7-2.77l.88,1.34V4Zm5.76-5.98a2.8,2.8,0,0,0,1.57-.44A2.975,2.975,0,0,0-12.9-3.65a4.078,4.078,0,0,0,.38-1.79,3.982,3.982,0,0,0-.38-1.8,2.943,2.943,0,0,0-1.05-1.19,2.843,2.843,0,0,0-1.57-.43,3.215,3.215,0,0,0-1.51.36,2.846,2.846,0,0,0-1.12,1.06,3.148,3.148,0,0,0-.43,1.68v.8a2.819,2.819,0,0,0,.44,1.6A3,3,0,0,0-17-2.34,3.192,3.192,0,0,0-15.52-1.98ZM-.72,0V-3.22h-.46V-6.8a1.9,1.9,0,0,0-.46-1.4,1.935,1.935,0,0,0-1.42-.46q-.5,0-1.2.02t-1.41.05q-.71.03-1.27.07v-2.36q.46-.04,1.04-.08t1.19-.05q.61-.01,1.15-.01a7.629,7.629,0,0,1,2.79.44A3.331,3.331,0,0,1,.91-9.2a4.7,4.7,0,0,1,.57,2.46V0Zm-3.5.28A4.8,4.8,0,0,1-6.29-.14a3.2,3.2,0,0,1-1.38-1.2,3.463,3.463,0,0,1-.49-1.88,3.1,3.1,0,0,1,.59-1.96A3.533,3.533,0,0,1-5.91-6.32,7.5,7.5,0,0,1-3.4-6.7H-.88v1.66H-3.44a2.094,2.094,0,0,0-1.47.47,1.571,1.571,0,0,0-.51,1.21,1.54,1.54,0,0,0,.51,1.2,2.123,2.123,0,0,0,1.47.46,2.688,2.688,0,0,0,1.07-.21,1.838,1.838,0,0,0,.82-.72,2.777,2.777,0,0,0,.37-1.39l.68.78a4.616,4.616,0,0,1-.55,1.92A3,3,0,0,1-2.29-.13,4.151,4.151,0,0,1-4.22.28ZM9.18.14A6.684,6.684,0,0,1,6.71-.25,2.728,2.728,0,0,1,5.26-1.57a5.514,5.514,0,0,1-.48-2.51l.02-9.84H7.4L7.38-3.9a1.664,1.664,0,0,0,.43,1.23,1.664,1.664,0,0,0,1.23.43h1.7V.14ZM3.06-8.82v-2.04h7.68v2.04ZM13.08,0V-14.6h2.78v8.52h-.48a8.081,8.081,0,0,1,.42-2.78,3.615,3.615,0,0,1,1.25-1.74,3.512,3.512,0,0,1,2.11-.6h.12A3.305,3.305,0,0,1,22.1-9.92a6.129,6.129,0,0,1,.96,3.72V0H20.28V-6.46a2.238,2.238,0,0,0-.59-1.64,2.077,2.077,0,0,0-1.55-.6,2.16,2.16,0,0,0-1.65.67,2.451,2.451,0,0,0-.63,1.75V0ZM26.56,0V-10.86h2.78V0ZM25.04-8.78v-2.08h4.3v2.08Zm2.54-3.38a1.556,1.556,0,0,1-1.21-.43,1.561,1.561,0,0,1-.39-1.09,1.524,1.524,0,0,1,.39-1.08,1.577,1.577,0,0,1,1.21-.42,1.543,1.543,0,0,1,1.2.42,1.548,1.548,0,0,1,.38,1.08,1.585,1.585,0,0,1-.38,1.09A1.523,1.523,0,0,1,27.58-12.16ZM36.48.34a5.747,5.747,0,0,1-3.51-.95,3.257,3.257,0,0,1-1.33-2.63h2.5a1.539,1.539,0,0,0,.62,1.02,2.753,2.753,0,0,0,1.76.46,3.036,3.036,0,0,0,1.59-.36,1.1,1.1,0,0,0,.59-.98,1,1,0,0,0-.45-.86,3.272,3.272,0,0,0-1.53-.42l-.96-.1a5.067,5.067,0,0,1-2.8-1.04,2.8,2.8,0,0,1-.98-2.24,3.082,3.082,0,0,1,.56-1.88,3.432,3.432,0,0,1,1.55-1.15,6.16,6.16,0,0,1,2.27-.39,5.478,5.478,0,0,1,3.24.88,3.108,3.108,0,0,1,1.3,2.58H38.4a1.307,1.307,0,0,0-.56-.96,2.422,2.422,0,0,0-1.5-.4,2.329,2.329,0,0,0-1.36.34,1.035,1.035,0,0,0-.48.88.926.926,0,0,0,.39.8,2.779,2.779,0,0,0,1.27.38l.96.1a5.739,5.739,0,0,1,3.01,1.06A2.8,2.8,0,0,1,41.22-3.2a3.038,3.038,0,0,1-.59,1.87A3.836,3.836,0,0,1,38.98-.1,6.494,6.494,0,0,1,36.48.34Zm11.9.04A5.842,5.842,0,0,1,45.93-.1a4.95,4.95,0,0,1-1.74-1.29A5.643,5.643,0,0,1,43.15-3.2a6.134,6.134,0,0,1-.35-2.04v-.38a6.338,6.338,0,0,1,.35-2.09,5.393,5.393,0,0,1,1.04-1.8,5.031,5.031,0,0,1,1.71-1.26,5.585,5.585,0,0,1,2.36-.47,5.322,5.322,0,0,1,2.95.77A4.888,4.888,0,0,1,53-8.45a6.136,6.136,0,0,1,.6,2.69v1H43.98v-1.7h7.88L51-5.62a4.735,4.735,0,0,0-.3-1.78,2.4,2.4,0,0,0-.91-1.14,2.735,2.735,0,0,0-1.53-.4,2.781,2.781,0,0,0-1.56.42,2.6,2.6,0,0,0-.97,1.21,4.891,4.891,0,0,0-.33,1.89,4.791,4.791,0,0,0,.32,1.81,2.674,2.674,0,0,0,.98,1.24,2.919,2.919,0,0,0,1.68.45,3.032,3.032,0,0,0,1.66-.41,1.829,1.829,0,0,0,.82-1.01h2.56a4.6,4.6,0,0,1-.92,1.96,4.516,4.516,0,0,1-1.73,1.3A5.9,5.9,0,0,1,48.38.38Z" transform="translate(14412 2152)" fill="#262626"/>
    <path id="Path_437" data-name="Path 437" d="M-1.65,0V-38.52L.99-36.48H-10.59V-43.8H6.81V0Z" transform="translate(14413.59 2068.8)" fill="#fff"/>
    <path id="Path_873" data-name="Path 873" d="M70,0A70,70,0,1,1,0,70,70,70,0,0,1,70,0Z" transform="translate(14530 1977)" fill="#f7dcb9"/>
    <path id="Path_439" data-name="Path 439" d="M-14.91,0V-8.4a12.171,12.171,0,0,1,.87-4.8,9.288,9.288,0,0,1,2.88-3.63,24.2,24.2,0,0,1,5.31-3.03l7.44-3.3a11.338,11.338,0,0,0,4.23-3.09,7.286,7.286,0,0,0,1.47-4.71A6.851,6.851,0,0,0,5.4-36.03,7.264,7.264,0,0,0,.03-37.92,7.2,7.2,0,0,0-5.34-36a7.284,7.284,0,0,0-1.89,5.34h-8.22a15.4,15.4,0,0,1,1.74-7.35,12.573,12.573,0,0,1,5.16-5.16A17.571,17.571,0,0,1,.03-45.06,17.8,17.8,0,0,1,8.61-43.2a12.715,12.715,0,0,1,5.16,4.95,13.757,13.757,0,0,1,1.74,6.87v.78a12.26,12.26,0,0,1-2.76,8.19,22.425,22.425,0,0,1-8.1,5.67l-7.44,3.3a8,8,0,0,0-2.94,1.89,3.992,3.992,0,0,0-.84,2.67v3.84L-8.61-7.26h24.3V0Z" transform="translate(14599.45 2069.06)" fill="#fff"/>
    <path id="Path_874" data-name="Path 874" d="M-29.31.08V-2.56h3.02a5.514,5.514,0,0,0,2.03-.35,4.221,4.221,0,0,0,1.51-.99,4.37,4.37,0,0,0,.95-1.51,5.4,5.4,0,0,0,.33-1.93,5.524,5.524,0,0,0-.33-1.97,4.167,4.167,0,0,0-.95-1.49,4.029,4.029,0,0,0-1.51-.94,5.979,5.979,0,0,0-2.03-.32h-3.02V-14.7h2.84a9.452,9.452,0,0,1,3.46.58,6.854,6.854,0,0,1,2.46,1.59,6.68,6.68,0,0,1,1.47,2.3,7.458,7.458,0,0,1,.49,2.67v.44a7.219,7.219,0,0,1-.49,2.6A7.021,7.021,0,0,1-20.55-2.2,7.086,7.086,0,0,1-23.01-.54a8.907,8.907,0,0,1-3.46.62Zm-2.44,0V-14.7h2.84V.08Zm20.34.3A5.842,5.842,0,0,1-13.86-.1,4.95,4.95,0,0,1-15.6-1.39,5.643,5.643,0,0,1-16.64-3.2a6.134,6.134,0,0,1-.35-2.04v-.38a6.338,6.338,0,0,1,.35-2.09,5.393,5.393,0,0,1,1.04-1.8,5.031,5.031,0,0,1,1.71-1.26,5.585,5.585,0,0,1,2.36-.47,5.322,5.322,0,0,1,2.95.77A4.888,4.888,0,0,1-6.79-8.45a6.136,6.136,0,0,1,.6,2.69v1h-9.62v-1.7h7.88l-.86.84a4.735,4.735,0,0,0-.3-1.78A2.4,2.4,0,0,0-10-8.54a2.735,2.735,0,0,0-1.53-.4,2.781,2.781,0,0,0-1.56.42,2.6,2.6,0,0,0-.97,1.21,4.891,4.891,0,0,0-.33,1.89,4.791,4.791,0,0,0,.32,1.81,2.674,2.674,0,0,0,.98,1.24,2.919,2.919,0,0,0,1.68.45,3.032,3.032,0,0,0,1.66-.41,1.829,1.829,0,0,0,.82-1.01h2.56a4.6,4.6,0,0,1-.92,1.96A4.516,4.516,0,0,1-9.02-.08,5.9,5.9,0,0,1-11.41.38ZM-3.63,0V-11.24A3.442,3.442,0,0,1-2.6-13.99a4.551,4.551,0,0,1,3.05-.89H1.57v2.14H.25a1.286,1.286,0,0,0-.95.33,1.258,1.258,0,0,0-.33.93V0ZM-4.97-8.76V-10.8H1.47v2.04ZM3.79,0V-10.86H6.57V0ZM2.41-8.78v-2.08H6.57v2.08Zm2.38-3.38a1.528,1.528,0,0,1-1.19-.43,1.561,1.561,0,0,1-.39-1.09,1.524,1.524,0,0,1,.39-1.08,1.549,1.549,0,0,1,1.19-.42A1.577,1.577,0,0,1,6-14.76a1.524,1.524,0,0,1,.39,1.08A1.561,1.561,0,0,1,6-12.59,1.556,1.556,0,0,1,4.79-12.16ZM9.77,0V-10.86h2.2V-6.2h-.2a7.564,7.564,0,0,1,.44-2.77,3.4,3.4,0,0,1,1.31-1.67,3.932,3.932,0,0,1,2.17-.56h.12a3.541,3.541,0,0,1,2.94,1.25,5.887,5.887,0,0,1,1,3.73V0H16.97V-6.46a2.3,2.3,0,0,0-.57-1.62,2.027,2.027,0,0,0-1.57-.62,2.231,2.231,0,0,0-1.65.63,2.284,2.284,0,0,0-.63,1.69V0ZM27.59.38A5.842,5.842,0,0,1,25.14-.1,4.95,4.95,0,0,1,23.4-1.39,5.643,5.643,0,0,1,22.36-3.2a6.134,6.134,0,0,1-.35-2.04v-.38a6.338,6.338,0,0,1,.35-2.09,5.393,5.393,0,0,1,1.04-1.8,5.031,5.031,0,0,1,1.71-1.26,5.585,5.585,0,0,1,2.36-.47,5.322,5.322,0,0,1,2.95.77,4.888,4.888,0,0,1,1.79,2.02,6.136,6.136,0,0,1,.6,2.69v1H23.19v-1.7h7.88l-.86.84a4.735,4.735,0,0,0-.3-1.78A2.4,2.4,0,0,0,29-8.54a2.735,2.735,0,0,0-1.53-.4,2.781,2.781,0,0,0-1.56.42,2.6,2.6,0,0,0-.97,1.21,4.891,4.891,0,0,0-.33,1.89,4.791,4.791,0,0,0,.32,1.81,2.674,2.674,0,0,0,.98,1.24,2.919,2.919,0,0,0,1.68.45,3.032,3.032,0,0,0,1.66-.41,1.829,1.829,0,0,0,.82-1.01h2.56a4.6,4.6,0,0,1-.92,1.96,4.516,4.516,0,0,1-1.73,1.3A5.9,5.9,0,0,1,27.59.38Z" transform="translate(14600 2152)" fill="#262626"/>
    <path id="Path_875" data-name="Path 875" d="M70,0A70,70,0,1,1,0,70,70,70,0,0,1,70,0Z" transform="translate(14718 1977)" fill="#f7dcb9"/>
    <path id="Path_440" data-name="Path 440" d="M-.42,1.14A18.312,18.312,0,0,1-9.09-.78a13.8,13.8,0,0,1-5.55-5.13,13.7,13.7,0,0,1-1.92-7.17h8.22A6.626,6.626,0,0,0-6.21-7.95,8.246,8.246,0,0,0-.42-6a8.984,8.984,0,0,0,4.23-.93A6.668,6.668,0,0,0,6.54-9.51a7.437,7.437,0,0,0,.96-3.81,7.134,7.134,0,0,0-2.1-5.31A7.848,7.848,0,0,0-.36-20.7a9.4,9.4,0,0,0-3.15.48,8.627,8.627,0,0,0-2.37,1.26l-3.9-6.72,14.4-9.84-.54-1.02H-14.76V-43.8H13.86v8.76L-.96-25.2l-4.62-.84a17.082,17.082,0,0,1,2.46-.57,18.376,18.376,0,0,1,2.88-.21,19.637,19.637,0,0,1,8.55,1.71A12.987,12.987,0,0,1,13.8-20.4a12.52,12.52,0,0,1,1.92,6.9v.78A13.061,13.061,0,0,1,13.8-5.79,13.789,13.789,0,0,1,8.28-.75,18.509,18.509,0,0,1-.42,1.14Z" transform="translate(14788.56 2068.8)" fill="#fff"/>
    <path id="Path_876" data-name="Path 876" d="M-30.97,0V-14.6h2.84V0Zm10.76.36a5.182,5.182,0,0,1-2.1-.42,4.9,4.9,0,0,1-1.66-1.18,5.379,5.379,0,0,1-1.08-1.77,6.17,6.17,0,0,1-.38-2.19v-.42a6.344,6.344,0,0,1,.37-2.18,5.493,5.493,0,0,1,1.04-1.78,4.733,4.733,0,0,1,1.62-1.19,5.059,5.059,0,0,1,2.11-.43,4.483,4.483,0,0,1,2.25.55A3.957,3.957,0,0,1-16.49-9a6.384,6.384,0,0,1,.64,2.76l-.82-.96v-7.4h2.78V0h-2.2V-4.62h.48a6.082,6.082,0,0,1-.68,2.77A4.116,4.116,0,0,1-17.92-.19,4.71,4.71,0,0,1-20.21.36Zm.62-2.34a3.087,3.087,0,0,0,1.5-.37A2.781,2.781,0,0,0-17-3.43a3.281,3.281,0,0,0,.41-1.67v-.8a2.907,2.907,0,0,0-.42-1.61,2.834,2.834,0,0,0-1.1-1,3.186,3.186,0,0,0-1.48-.35,2.943,2.943,0,0,0-1.59.43,2.935,2.935,0,0,0-1.08,1.21,4.021,4.021,0,0,0-.39,1.82,3.875,3.875,0,0,0,.4,1.81A2.947,2.947,0,0,0-21.16-2.4,2.959,2.959,0,0,0-19.59-1.98ZM-5.87.38A5.842,5.842,0,0,1-8.32-.1a4.95,4.95,0,0,1-1.74-1.29A5.643,5.643,0,0,1-11.1-3.2a6.134,6.134,0,0,1-.35-2.04v-.38a6.338,6.338,0,0,1,.35-2.09,5.393,5.393,0,0,1,1.04-1.8,5.031,5.031,0,0,1,1.71-1.26,5.585,5.585,0,0,1,2.36-.47,5.322,5.322,0,0,1,2.95.77A4.888,4.888,0,0,1-1.25-8.45a6.136,6.136,0,0,1,.6,2.69v1h-9.62v-1.7h7.88l-.86.84a4.735,4.735,0,0,0-.3-1.78,2.4,2.4,0,0,0-.91-1.14,2.735,2.735,0,0,0-1.53-.4,2.781,2.781,0,0,0-1.56.42,2.6,2.6,0,0,0-.97,1.21,4.891,4.891,0,0,0-.33,1.89,4.791,4.791,0,0,0,.32,1.81,2.674,2.674,0,0,0,.98,1.24,2.919,2.919,0,0,0,1.68.45,3.032,3.032,0,0,0,1.66-.41,1.829,1.829,0,0,0,.82-1.01H-.83a4.6,4.6,0,0,1-.92,1.96A4.516,4.516,0,0,1-3.48-.08,5.9,5.9,0,0,1-5.87.38ZM8.25,0V-3.22H7.79V-6.8a1.9,1.9,0,0,0-.46-1.4,1.935,1.935,0,0,0-1.42-.46q-.5,0-1.2.02T3.3-8.59q-.71.03-1.27.07v-2.36q.46-.04,1.04-.08t1.19-.05q.61-.01,1.15-.01a7.629,7.629,0,0,1,2.79.44A3.331,3.331,0,0,1,9.88-9.2a4.7,4.7,0,0,1,.57,2.46V0ZM4.75.28A4.8,4.8,0,0,1,2.68-.14,3.2,3.2,0,0,1,1.3-1.34,3.463,3.463,0,0,1,.81-3.22,3.1,3.1,0,0,1,1.4-5.18,3.533,3.533,0,0,1,3.06-6.32,7.5,7.5,0,0,1,5.57-6.7H8.09v1.66H5.53a2.094,2.094,0,0,0-1.47.47,1.571,1.571,0,0,0-.51,1.21,1.54,1.54,0,0,0,.51,1.2,2.123,2.123,0,0,0,1.47.46A2.688,2.688,0,0,0,6.6-1.91a1.838,1.838,0,0,0,.82-.72,2.777,2.777,0,0,0,.37-1.39l.68.78a4.616,4.616,0,0,1-.55,1.92A3,3,0,0,1,6.68-.13,4.151,4.151,0,0,1,4.75.28ZM18.15.14a6.684,6.684,0,0,1-2.47-.39,2.728,2.728,0,0,1-1.45-1.32,5.514,5.514,0,0,1-.48-2.51l.02-9.84h2.6L16.35-3.9a1.664,1.664,0,0,0,.43,1.23,1.664,1.664,0,0,0,1.23.43h1.7V.14ZM12.03-8.82v-2.04h7.68v2.04ZM26.85.38A5.842,5.842,0,0,1,24.4-.1a4.95,4.95,0,0,1-1.74-1.29A5.643,5.643,0,0,1,21.62-3.2a6.134,6.134,0,0,1-.35-2.04v-.38a6.338,6.338,0,0,1,.35-2.09,5.393,5.393,0,0,1,1.04-1.8,5.031,5.031,0,0,1,1.71-1.26,5.585,5.585,0,0,1,2.36-.47,5.322,5.322,0,0,1,2.95.77,4.888,4.888,0,0,1,1.79,2.02,6.136,6.136,0,0,1,.6,2.69v1H22.45v-1.7h7.88l-.86.84a4.735,4.735,0,0,0-.3-1.78,2.4,2.4,0,0,0-.91-1.14,2.735,2.735,0,0,0-1.53-.4,2.781,2.781,0,0,0-1.56.42,2.6,2.6,0,0,0-.97,1.21,4.891,4.891,0,0,0-.33,1.89,4.791,4.791,0,0,0,.32,1.81,2.674,2.674,0,0,0,.98,1.24,2.919,2.919,0,0,0,1.68.45,3.032,3.032,0,0,0,1.66-.41,1.829,1.829,0,0,0,.82-1.01h2.56a4.6,4.6,0,0,1-.92,1.96,4.516,4.516,0,0,1-1.73,1.3A5.9,5.9,0,0,1,26.85.38Z" transform="translate(14788 2152)" fill="#262626"/>
    <path id="Path_877" data-name="Path 877" d="M70,0A70,70,0,1,1,0,70,70,70,0,0,1,70,0Z" transform="translate(14906 1977)" fill="#f7dcb9"/>
    <path id="Path_441" data-name="Path 441" d="M-17.58-9.06V-18.3L-.42-45,6-40.62-9.12-16.98l.72,1.2H18.48v6.72ZM5.34,0V-31.38H13.2V0Z" transform="translate(14975.58 2070)" fill="#fff"/>
    <path id="Path_878" data-name="Path 878" d="M-47.49-4.48V-6.94h2.84a2.863,2.863,0,0,0,1.45-.34,2.264,2.264,0,0,0,.9-.94,2.964,2.964,0,0,0,.31-1.38,2.964,2.964,0,0,0-.31-1.38,2.2,2.2,0,0,0-.9-.93,2.933,2.933,0,0,0-1.45-.33h-2.84V-14.7h2.6a7.385,7.385,0,0,1,3.13.6,4.43,4.43,0,0,1,1.97,1.71,4.936,4.936,0,0,1,.68,2.63v.32a4.936,4.936,0,0,1-.68,2.63,4.491,4.491,0,0,1-1.97,1.72,7.28,7.28,0,0,1-3.13.61ZM-49.93,0V-14.7h2.84V0Zm13.02,0V-10.86h2.2v4.6h-.06a5.414,5.414,0,0,1,1-3.54A3.609,3.609,0,0,1-30.83-11h.4v2.42h-.76a2.98,2.98,0,0,0-2.17.75,2.893,2.893,0,0,0-.77,2.17V0Zm13.48.38a6.54,6.54,0,0,1-2.54-.46,5.472,5.472,0,0,1-1.86-1.25,5.381,5.381,0,0,1-1.15-1.79,5.675,5.675,0,0,1-.39-2.08v-.42a5.609,5.609,0,0,1,.41-2.13,5.545,5.545,0,0,1,1.18-1.8,5.461,5.461,0,0,1,1.87-1.24,6.5,6.5,0,0,1,2.48-.45,6.5,6.5,0,0,1,2.48.45,5.461,5.461,0,0,1,1.87,1.24,5.411,5.411,0,0,1,1.17,1.8,5.732,5.732,0,0,1,.4,2.13v.42a5.675,5.675,0,0,1-.39,2.08,5.381,5.381,0,0,1-1.15,1.79A5.472,5.472,0,0,1-20.91-.08,6.484,6.484,0,0,1-23.43.38Zm0-2.38a3.117,3.117,0,0,0,1.72-.45,2.858,2.858,0,0,0,1.06-1.22,4.085,4.085,0,0,0,.36-1.75,4.04,4.04,0,0,0-.37-1.77,2.9,2.9,0,0,0-1.08-1.22,3.09,3.09,0,0,0-1.69-.45,3.09,3.09,0,0,0-1.69.45,2.971,2.971,0,0,0-1.09,1.22,3.95,3.95,0,0,0-.38,1.77,3.991,3.991,0,0,0,.37,1.75,2.925,2.925,0,0,0,1.07,1.22A3.117,3.117,0,0,0-23.43-2ZM-10.35.14a6.684,6.684,0,0,1-2.47-.39,2.728,2.728,0,0,1-1.45-1.32,5.514,5.514,0,0,1-.48-2.51l.02-9.84h2.6L-12.15-3.9a1.664,1.664,0,0,0,.43,1.23,1.664,1.664,0,0,0,1.23.43h1.7V.14Zm-6.12-8.96v-2.04h7.68v2.04ZM-1.29.38A6.54,6.54,0,0,1-3.83-.08,5.472,5.472,0,0,1-5.69-1.33,5.381,5.381,0,0,1-6.84-3.12,5.675,5.675,0,0,1-7.23-5.2v-.42a5.609,5.609,0,0,1,.41-2.13,5.545,5.545,0,0,1,1.18-1.8,5.461,5.461,0,0,1,1.87-1.24,6.5,6.5,0,0,1,2.48-.45,6.5,6.5,0,0,1,2.48.45A5.461,5.461,0,0,1,3.06-9.55a5.411,5.411,0,0,1,1.17,1.8,5.732,5.732,0,0,1,.4,2.13v.42a5.675,5.675,0,0,1-.39,2.08A5.381,5.381,0,0,1,3.09-1.33,5.472,5.472,0,0,1,1.23-.08,6.484,6.484,0,0,1-1.29.38Zm0-2.38A3.117,3.117,0,0,0,.43-2.45,2.858,2.858,0,0,0,1.49-3.67a4.085,4.085,0,0,0,.36-1.75,4.04,4.04,0,0,0-.37-1.77A2.9,2.9,0,0,0,.4-8.41a3.09,3.09,0,0,0-1.69-.45,3.09,3.09,0,0,0-1.69.45A2.971,2.971,0,0,0-4.07-7.19a3.95,3.95,0,0,0-.38,1.77,3.991,3.991,0,0,0,.37,1.75A2.925,2.925,0,0,0-3.01-2.45,3.117,3.117,0,0,0-1.29-2ZM11.79.14A6.684,6.684,0,0,1,9.32-.25,2.728,2.728,0,0,1,7.87-1.57a5.514,5.514,0,0,1-.48-2.51l.02-9.84h2.6L9.99-3.9a1.664,1.664,0,0,0,.43,1.23,1.664,1.664,0,0,0,1.23.43h1.7V.14ZM5.67-8.82v-2.04h7.68v2.04Zm9.7,13.1V1.9h2.04a2.721,2.721,0,0,0,.97-.15,1.5,1.5,0,0,0,.65-.48,2.355,2.355,0,0,0,.4-.91l2.92-11.22h2.66L21.79.96a5.249,5.249,0,0,1-.9,1.95A3.228,3.228,0,0,1,19.4,3.96a6.843,6.843,0,0,1-2.25.32ZM18.75-.24v-2.2h2.32v2.2Zm-.94,0L14.29-10.86h2.8L20.43-.24ZM26.93,4V-10.86h2.2v4.68l-.34-.02a6.416,6.416,0,0,1,.69-2.78,4.021,4.021,0,0,1,1.63-1.67,4.726,4.726,0,0,1,2.28-.55,5.023,5.023,0,0,1,2.09.42,4.671,4.671,0,0,1,1.6,1.18,5.375,5.375,0,0,1,1.03,1.77,6.416,6.416,0,0,1,.36,2.17v.42a6.646,6.646,0,0,1-.35,2.19A5.35,5.35,0,0,1,37.1-1.27a4.7,4.7,0,0,1-1.61,1.2,4.99,4.99,0,0,1-2.1.43,4.876,4.876,0,0,1-2.23-.51,3.908,3.908,0,0,1-1.63-1.58,6.064,6.064,0,0,1-.7-2.77l.88,1.34V4Zm5.76-5.98a2.8,2.8,0,0,0,1.57-.44,2.975,2.975,0,0,0,1.05-1.23,4.078,4.078,0,0,0,.38-1.79,3.982,3.982,0,0,0-.38-1.8,2.943,2.943,0,0,0-1.05-1.19,2.843,2.843,0,0,0-1.57-.43,3.215,3.215,0,0,0-1.51.36,2.846,2.846,0,0,0-1.12,1.06,3.148,3.148,0,0,0-.43,1.68v.8a2.819,2.819,0,0,0,.44,1.6,3,3,0,0,0,1.14,1.02A3.192,3.192,0,0,0,32.69-1.98ZM45.77.38A5.842,5.842,0,0,1,43.32-.1a4.95,4.95,0,0,1-1.74-1.29A5.643,5.643,0,0,1,40.54-3.2a6.134,6.134,0,0,1-.35-2.04v-.38a6.338,6.338,0,0,1,.35-2.09,5.393,5.393,0,0,1,1.04-1.8,5.031,5.031,0,0,1,1.71-1.26,5.585,5.585,0,0,1,2.36-.47,5.322,5.322,0,0,1,2.95.77,4.888,4.888,0,0,1,1.79,2.02,6.136,6.136,0,0,1,.6,2.69v1H41.37v-1.7h7.88l-.86.84a4.735,4.735,0,0,0-.3-1.78,2.4,2.4,0,0,0-.91-1.14,2.735,2.735,0,0,0-1.53-.4,2.781,2.781,0,0,0-1.56.42,2.6,2.6,0,0,0-.97,1.21,4.891,4.891,0,0,0-.33,1.89,4.791,4.791,0,0,0,.32,1.81,2.674,2.674,0,0,0,.98,1.24,2.919,2.919,0,0,0,1.68.45,3.032,3.032,0,0,0,1.66-.41,1.829,1.829,0,0,0,.82-1.01h2.56a4.6,4.6,0,0,1-.92,1.96,4.516,4.516,0,0,1-1.73,1.3A5.9,5.9,0,0,1,45.77.38Z" transform="translate(14976 2152)" fill="#262626"/>
    <path id="Path_879" data-name="Path 879" d="M70,0A70,70,0,1,1,0,70,70,70,0,0,1,70,0Z" transform="translate(15094 1977)" fill="#f7dcb9"/>
    <path id="Path_442" data-name="Path 442" d="M.27,1.14A18.032,18.032,0,0,1-8.58-.9a14.33,14.33,0,0,1-5.64-5.43,14.6,14.6,0,0,1-1.95-7.41h8.22A7.627,7.627,0,0,0-6.9-9.72,7.366,7.366,0,0,0-3.99-6.99,9.059,9.059,0,0,0,.33-6,8.693,8.693,0,0,0,4.77-7.08a7.326,7.326,0,0,0,2.85-2.94,8.928,8.928,0,0,0,.99-4.26,8.976,8.976,0,0,0-.99-4.23,7.538,7.538,0,0,0-2.82-3A8.347,8.347,0,0,0,.39-22.62a10.068,10.068,0,0,0-4.08.84,7.559,7.559,0,0,0-3,2.22h-7.86l2.22-24.24H13.05v7.26H-8.61l3-2.34L-7.05-23.76l-2.04-.6a14.646,14.646,0,0,1,4.26-3.3,13.63,13.63,0,0,1,6.36-1.32A16.266,16.266,0,0,1,9.81-27a13.569,13.569,0,0,1,5.22,5.25,14.5,14.5,0,0,1,1.8,7.11v.78a14.717,14.717,0,0,1-1.92,7.32A14.666,14.666,0,0,1,9.3-.99,17.8,17.8,0,0,1,.27,1.14Z" transform="translate(15164.17 2068.8)" fill="#fff"/>
    <path id="Path_880" data-name="Path 880" d="M-16.75,0V-12.5h2.84V0Zm-4.22-12.1v-2.5H-9.69v2.5ZM-4.13.38A5.842,5.842,0,0,1-6.58-.1,4.95,4.95,0,0,1-8.32-1.39,5.643,5.643,0,0,1-9.36-3.2a6.134,6.134,0,0,1-.35-2.04v-.38a6.338,6.338,0,0,1,.35-2.09,5.393,5.393,0,0,1,1.04-1.8,5.031,5.031,0,0,1,1.71-1.26,5.585,5.585,0,0,1,2.36-.47,5.322,5.322,0,0,1,2.95.77A4.888,4.888,0,0,1,.49-8.45a6.136,6.136,0,0,1,.6,2.69v1H-8.53v-1.7H-.65l-.86.84a4.735,4.735,0,0,0-.3-1.78,2.4,2.4,0,0,0-.91-1.14,2.735,2.735,0,0,0-1.53-.4,2.781,2.781,0,0,0-1.56.42,2.6,2.6,0,0,0-.97,1.21,4.891,4.891,0,0,0-.33,1.89,4.791,4.791,0,0,0,.32,1.81,2.674,2.674,0,0,0,.98,1.24,2.919,2.919,0,0,0,1.68.45,3.032,3.032,0,0,0,1.66-.41,1.829,1.829,0,0,0,.82-1.01H.91A4.6,4.6,0,0,1-.01-1.38,4.516,4.516,0,0,1-1.74-.08,5.9,5.9,0,0,1-4.13.38ZM7.35.34A5.747,5.747,0,0,1,3.84-.61,3.257,3.257,0,0,1,2.51-3.24h2.5a1.539,1.539,0,0,0,.62,1.02,2.753,2.753,0,0,0,1.76.46,3.036,3.036,0,0,0,1.59-.36,1.1,1.1,0,0,0,.59-.98,1,1,0,0,0-.45-.86,3.272,3.272,0,0,0-1.53-.42l-.96-.1a5.067,5.067,0,0,1-2.8-1.04,2.8,2.8,0,0,1-.98-2.24,3.082,3.082,0,0,1,.56-1.88,3.432,3.432,0,0,1,1.55-1.15,6.16,6.16,0,0,1,2.27-.39,5.478,5.478,0,0,1,3.24.88,3.108,3.108,0,0,1,1.3,2.58H9.27a1.307,1.307,0,0,0-.56-.96,2.422,2.422,0,0,0-1.5-.4,2.329,2.329,0,0,0-1.36.34,1.035,1.035,0,0,0-.48.88.926.926,0,0,0,.39.8,2.779,2.779,0,0,0,1.27.38l.96.1A5.739,5.739,0,0,1,11-5.52,2.8,2.8,0,0,1,12.09-3.2a3.038,3.038,0,0,1-.59,1.87A3.836,3.836,0,0,1,9.85-.1,6.494,6.494,0,0,1,7.35.34ZM19.11.14a6.684,6.684,0,0,1-2.47-.39,2.728,2.728,0,0,1-1.45-1.32,5.514,5.514,0,0,1-.48-2.51l.02-9.84h2.6L17.31-3.9a1.664,1.664,0,0,0,.43,1.23,1.664,1.664,0,0,0,1.23.43h1.7V.14ZM12.99-8.82v-2.04h7.68v2.04Z" transform="translate(15164 2152)" fill="#262626"/>
    <path id="Path_881" data-name="Path 881" d="M70,0A70,70,0,1,1,0,70,70,70,0,0,1,70,0Z" transform="translate(15282 1977)" fill="#f7dcb9"/>
    <path id="Path_438" data-name="Path 438" d="M1.02,1.26A18.725,18.725,0,0,1-7.23-.39a14.531,14.531,0,0,1-5.49-4.53,19.175,19.175,0,0,1-3.06-6.69,32.924,32.924,0,0,1-.96-8.07v-2.64q0-10.74,5.43-16.29T4.62-44.16q2.28,0,4.26.12t3.96.36v7.14q-1.98-.24-4.05-.36t-4.47-.12A15.3,15.3,0,0,0-3.6-35.28a9.606,9.606,0,0,0-4.11,5.1,24.462,24.462,0,0,0-1.23,8.34v3.9l-1.92,2.76a15.393,15.393,0,0,1,1.83-7.65,11.33,11.33,0,0,1,4.89-4.56A16.014,16.014,0,0,1,3-28.92a16.017,16.017,0,0,1,7.98,1.86,12.719,12.719,0,0,1,5.07,5.16,16.006,16.006,0,0,1,1.77,7.68,15.764,15.764,0,0,1-2.04,8.07A14.007,14.007,0,0,1,9.99-.69,19.217,19.217,0,0,1,1.02,1.26ZM.84-5.88a10.13,10.13,0,0,0,4.8-1.05,7.143,7.143,0,0,0,3-2.91A8.714,8.714,0,0,0,9.66-14.1a9.059,9.059,0,0,0-.99-4.32A6.854,6.854,0,0,0,5.76-21.3a9.729,9.729,0,0,0-4.62-1.02,11.646,11.646,0,0,0-4.71.93,7.62,7.62,0,0,0-3.36,2.76A7.94,7.94,0,0,0-8.16-14.1a8.8,8.8,0,0,0,.99,4.2,7.1,7.1,0,0,0,3,2.94A10.493,10.493,0,0,0,.84-5.88Z" transform="translate(15351.74 2068.16)" fill="#fff"/>
    <path id="Path_882" data-name="Path 882" d="M-32.4,0V-14.6h2.84V0Zm10.98.14a6.684,6.684,0,0,1-2.47-.39,2.728,2.728,0,0,1-1.45-1.32,5.514,5.514,0,0,1-.48-2.51l.02-9.84h2.6L-23.22-3.9a1.664,1.664,0,0,0,.43,1.23,1.664,1.664,0,0,0,1.23.43h1.7V.14Zm-6.12-8.96v-2.04h7.68v2.04ZM-12.72.38A5.842,5.842,0,0,1-15.17-.1a4.95,4.95,0,0,1-1.74-1.29A5.643,5.643,0,0,1-17.95-3.2a6.134,6.134,0,0,1-.35-2.04v-.38a6.338,6.338,0,0,1,.35-2.09,5.393,5.393,0,0,1,1.04-1.8,5.031,5.031,0,0,1,1.71-1.26,5.585,5.585,0,0,1,2.36-.47,5.322,5.322,0,0,1,2.95.77A4.888,4.888,0,0,1-8.1-8.45a6.136,6.136,0,0,1,.6,2.69v1h-9.62v-1.7h7.88l-.86.84a4.735,4.735,0,0,0-.3-1.78,2.4,2.4,0,0,0-.91-1.14,2.735,2.735,0,0,0-1.53-.4,2.781,2.781,0,0,0-1.56.42,2.6,2.6,0,0,0-.97,1.21,4.891,4.891,0,0,0-.33,1.89,4.791,4.791,0,0,0,.32,1.81,2.674,2.674,0,0,0,.98,1.24,2.919,2.919,0,0,0,1.68.45,3.032,3.032,0,0,0,1.66-.41,1.829,1.829,0,0,0,.82-1.01h2.56A4.6,4.6,0,0,1-8.6-1.38a4.516,4.516,0,0,1-1.73,1.3A5.9,5.9,0,0,1-12.72.38ZM-5.18,0V-10.86h2.2v4.6h-.06a5.414,5.414,0,0,1,1-3.54A3.609,3.609,0,0,1,.9-11h.4v2.42H.54a2.98,2.98,0,0,0-2.17.75A2.893,2.893,0,0,0-2.4-5.66V0ZM9.68,0V-3.22H9.22V-6.8a1.9,1.9,0,0,0-.46-1.4,1.935,1.935,0,0,0-1.42-.46q-.5,0-1.2.02t-1.41.05q-.71.03-1.27.07v-2.36q.46-.04,1.04-.08t1.19-.05q.61-.01,1.15-.01a7.629,7.629,0,0,1,2.79.44A3.331,3.331,0,0,1,11.31-9.2a4.7,4.7,0,0,1,.57,2.46V0ZM6.18.28A4.8,4.8,0,0,1,4.11-.14a3.2,3.2,0,0,1-1.38-1.2,3.463,3.463,0,0,1-.49-1.88,3.1,3.1,0,0,1,.59-1.96A3.533,3.533,0,0,1,4.49-6.32,7.5,7.5,0,0,1,7-6.7H9.52v1.66H6.96a2.094,2.094,0,0,0-1.47.47,1.571,1.571,0,0,0-.51,1.21,1.54,1.54,0,0,0,.51,1.2,2.123,2.123,0,0,0,1.47.46,2.688,2.688,0,0,0,1.07-.21,1.838,1.838,0,0,0,.82-.72,2.777,2.777,0,0,0,.37-1.39l.68.78a4.616,4.616,0,0,1-.55,1.92A3,3,0,0,1,8.11-.13,4.151,4.151,0,0,1,6.18.28ZM19.58.14a6.684,6.684,0,0,1-2.47-.39,2.728,2.728,0,0,1-1.45-1.32,5.514,5.514,0,0,1-.48-2.51l.02-9.84h2.6L17.78-3.9a1.664,1.664,0,0,0,.43,1.23,1.664,1.664,0,0,0,1.23.43h1.7V.14ZM13.46-8.82v-2.04h7.68v2.04ZM28.28.38A5.842,5.842,0,0,1,25.83-.1a4.95,4.95,0,0,1-1.74-1.29A5.643,5.643,0,0,1,23.05-3.2a6.134,6.134,0,0,1-.35-2.04v-.38a6.338,6.338,0,0,1,.35-2.09,5.393,5.393,0,0,1,1.04-1.8,5.031,5.031,0,0,1,1.71-1.26,5.585,5.585,0,0,1,2.36-.47,5.322,5.322,0,0,1,2.95.77A4.888,4.888,0,0,1,32.9-8.45a6.136,6.136,0,0,1,.6,2.69v1H23.88v-1.7h7.88l-.86.84a4.735,4.735,0,0,0-.3-1.78,2.4,2.4,0,0,0-.91-1.14,2.735,2.735,0,0,0-1.53-.4,2.781,2.781,0,0,0-1.56.42,2.6,2.6,0,0,0-.97,1.21,4.891,4.891,0,0,0-.33,1.89,4.791,4.791,0,0,0,.32,1.81,2.674,2.674,0,0,0,.98,1.24,2.919,2.919,0,0,0,1.68.45,3.032,3.032,0,0,0,1.66-.41,1.829,1.829,0,0,0,.82-1.01h2.56a4.6,4.6,0,0,1-.92,1.96,4.516,4.516,0,0,1-1.73,1.3A5.9,5.9,0,0,1,28.28.38Z" transform="translate(15352 2152)" fill="#262626"/>
    <path id="Path_883" data-name="Path 883" d="M0,0H28V2H0Z" transform="translate(14492 2046)" fill="#f7dcb9"/>
    <path id="Path_884" data-name="Path 884" d="M0,0H28V2H0Z" transform="translate(14680 2046)" fill="#f7dcb9"/>
    <path id="Path_885" data-name="Path 885" d="M0,0H28V2H0Z" transform="translate(14868 2046)" fill="#f7dcb9"/>
    <path id="Path_886" data-name="Path 886" d="M0,0H28V2H0Z" transform="translate(15056 2046)" fill="#f7dcb9"/>
    <path id="Path_887" data-name="Path 887" d="M0,0H28V2H0Z" transform="translate(15244 2046)" fill="#f7dcb9"/>
  </g>
</svg>
