<svg xmlns="http://www.w3.org/2000/svg" width="770.59" height="353.34" viewBox="0 0 770.59 353.34">
  <g id="Group_232" data-name="Group 232" transform="translate(-13990.13 -3028)">
    <path id="Path_871" data-name="Path 871" d="M92,0A92,92,0,1,1,0,92,92,92,0,0,1,92,0Z" transform="translate(13992 3028)" fill="#f7dcb9" opacity="0.15"/>
    <path id="Path_872" data-name="Path 872" d="M92,0A92,92,0,1,1,0,92,92,92,0,0,1,92,0Z" transform="translate(14276 3028)" fill="#f7dcb9" opacity="0.15"/>
    <path id="Path_873" data-name="Path 873" d="M92,0A92,92,0,1,1,0,92,92,92,0,0,1,92,0Z" transform="translate(14560 3028)" fill="#f7dcb9" opacity="0.15"/>
    <path id="Path_874" data-name="Path 874" d="M33.93,19.34a5.059,5.059,0,0,1-2.11-.43,4.879,4.879,0,0,1-1.64-1.2,5.493,5.493,0,0,1-1.06-1.76,5.978,5.978,0,0,1-.37-2.11v-.28a6.01,6.01,0,0,1,.36-2.07,5.538,5.538,0,0,1,1.03-1.76,4.847,4.847,0,0,1,3.75-1.67,4.691,4.691,0,0,1,2.36.58,4.341,4.341,0,0,1,1.64,1.67,5.622,5.622,0,0,1,.66,2.67l-.66-1.24V4.4h1.5V19h-1.2V14.3h.48a5.808,5.808,0,0,1-.69,2.79,4.27,4.27,0,0,1-1.7,1.69A4.914,4.914,0,0,1,33.93,19.34Zm.2-1.32a3.968,3.968,0,0,0,1.95-.48,3.472,3.472,0,0,0,1.37-1.37,4.114,4.114,0,0,0,.5-2.05v-.96a3.813,3.813,0,0,0-.5-1.97,3.549,3.549,0,0,0-1.37-1.33,4.009,4.009,0,0,0-1.97-.48,3.656,3.656,0,0,0-2.05.57,3.749,3.749,0,0,0-1.34,1.55,5.023,5.023,0,0,0-.47,2.2,5.029,5.029,0,0,0,.48,2.24,3.656,3.656,0,0,0,1.36,1.53A3.768,3.768,0,0,0,34.13,18.02Zm13.88,1.32a5.705,5.705,0,0,1-2.39-.47,5.218,5.218,0,0,1-1.74-1.26,5.659,5.659,0,0,1-1.45-3.77v-.28a5.568,5.568,0,0,1,.38-2.01,5.484,5.484,0,0,1,1.1-1.77,5.4,5.4,0,0,1,1.75-1.25,6.16,6.16,0,0,1,4.72,0,5.4,5.4,0,0,1,1.75,1.25,5.345,5.345,0,0,1,1.09,1.77,5.7,5.7,0,0,1,.37,2.01v.28a5.758,5.758,0,0,1-.36,2,5.426,5.426,0,0,1-1.07,1.77,5.193,5.193,0,0,1-1.75,1.26A5.774,5.774,0,0,1,48.01,19.34Zm0-1.34a4.014,4.014,0,0,0,2.23-.59,3.876,3.876,0,0,0,1.39-1.56,5.053,5.053,0,0,0-.01-4.32,3.785,3.785,0,0,0-1.41-1.54,4.492,4.492,0,0,0-4.38,0,3.785,3.785,0,0,0-1.41,1.54,5.053,5.053,0,0,0-.01,4.32,3.876,3.876,0,0,0,1.39,1.56A3.976,3.976,0,0,0,48.01,18Zm8.64,1V8.42h1.2v4.44h-.24a6.612,6.612,0,0,1,.44-2.54,3.521,3.521,0,0,1,1.32-1.64,3.955,3.955,0,0,1,2.22-.58h.06a3.553,3.553,0,0,1,2.98,1.25,5.566,5.566,0,0,1,.98,3.51V19H64.13V12.54a3.182,3.182,0,0,0-.76-2.22,2.713,2.713,0,0,0-2.12-.84,3,3,0,0,0-2.25.87,3.137,3.137,0,0,0-.85,2.29V19ZM68.69,9.64V4.4h1.3V9.64Zm9.04,9.48a5.106,5.106,0,0,1-1.9-.32,2.439,2.439,0,0,1-1.24-1.09,4.169,4.169,0,0,1-.44-2.07V5.08h1.44V15.86a1.886,1.886,0,0,0,.5,1.41,1.944,1.944,0,0,0,1.42.49h1.9v1.36ZM72.25,9.56V8.42h7.16V9.56ZM87.07,19V4.4h1.5V19ZM85.53,5.62V4.4h3.04V5.62ZM93.01,19V8.42h1.48V19Zm-1.7-9.38V8.42h3.18v1.2Zm2.02-3.16a1.054,1.054,0,0,1-.81-.29,1.03,1.03,0,0,1-.27-.73,1.03,1.03,0,0,1,.27-.73,1.054,1.054,0,0,1,.81-.29,1.021,1.021,0,0,1,.8.29,1.053,1.053,0,0,1,.26.73,1.053,1.053,0,0,1-.26.73A1.021,1.021,0,0,1,93.33,6.46ZM105.63,19l-4.26-4.96H99.65l5.02-5.62h1.6l-4.5,5.02.1-.82L107.39,19Zm-7.2,0V4.4h1.5V19Zm15.18.34a5.5,5.5,0,0,1-2.36-.47,4.578,4.578,0,0,1-1.64-1.26,5.349,5.349,0,0,1-.95-1.77,6.658,6.658,0,0,1-.31-2.02v-.28a6.593,6.593,0,0,1,.31-2,5.238,5.238,0,0,1,.95-1.76,4.7,4.7,0,0,1,1.61-1.25,5.151,5.151,0,0,1,2.27-.47,4.888,4.888,0,0,1,2.77.74,4.737,4.737,0,0,1,1.67,1.89,5.567,5.567,0,0,1,.56,2.47v.78h-9.46V12.78h8.42l-.38.58a4.9,4.9,0,0,0-.41-2.07,3.239,3.239,0,0,0-1.2-1.4,3.562,3.562,0,0,0-1.97-.51,3.48,3.48,0,0,0-2.06.58,3.553,3.553,0,0,0-1.23,1.54,5.5,5.5,0,0,0-.41,2.18,5.671,5.671,0,0,0,.41,2.19,3.453,3.453,0,0,0,1.26,1.57,4.286,4.286,0,0,0,4.39-.05,2.568,2.568,0,0,0,1.06-1.49h1.4a3.956,3.956,0,0,1-.84,1.83,4.239,4.239,0,0,1-1.62,1.19A5.64,5.64,0,0,1,113.61,19.34Zm16.26-.22a5.106,5.106,0,0,1-1.9-.32,2.439,2.439,0,0,1-1.24-1.09,4.169,4.169,0,0,1-.44-2.07V5.08h1.44V15.86a1.886,1.886,0,0,0,.5,1.41,1.944,1.944,0,0,0,1.42.49h1.9v1.36Zm-5.48-9.56V8.42h7.16V9.56Zm14.7,9.78a5.705,5.705,0,0,1-2.39-.47,5.218,5.218,0,0,1-1.74-1.26,5.659,5.659,0,0,1-1.45-3.77v-.28a5.568,5.568,0,0,1,.38-2.01,5.484,5.484,0,0,1,1.1-1.77,5.4,5.4,0,0,1,1.75-1.25,6.16,6.16,0,0,1,4.72,0,5.4,5.4,0,0,1,1.75,1.25,5.344,5.344,0,0,1,1.09,1.77,5.7,5.7,0,0,1,.37,2.01v.28a5.758,5.758,0,0,1-.36,2,5.426,5.426,0,0,1-1.07,1.77,5.193,5.193,0,0,1-1.75,1.26A5.774,5.774,0,0,1,139.09,19.34Zm0-1.34a4.014,4.014,0,0,0,2.23-.59,3.876,3.876,0,0,0,1.39-1.56,5.053,5.053,0,0,0-.01-4.32,3.785,3.785,0,0,0-1.41-1.54,4.492,4.492,0,0,0-4.38,0,3.785,3.785,0,0,0-1.41,1.54,5.053,5.053,0,0,0-.01,4.32,3.876,3.876,0,0,0,1.39,1.56A3.976,3.976,0,0,0,139.09,18Zm15.66,1L151.03,8.42h1.54L156.25,19Zm.4,0V17.78h1.9V19Zm.82,0,3.22-10.58h1.48L157.39,19Zm7.92,0V8.42h1.48V19Zm-1.7-9.38V8.42h3.18v1.2Zm2.02-3.16a1.055,1.055,0,0,1-.81-.29,1.03,1.03,0,0,1-.27-.73,1.03,1.03,0,0,1,.27-.73,1.055,1.055,0,0,1,.81-.29,1.021,1.021,0,0,1,.8.29,1.053,1.053,0,0,1,.26.73,1.053,1.053,0,0,1-.26.73A1.021,1.021,0,0,1,164.21,6.46Zm8.44,12.84a4.88,4.88,0,0,1-3.14-.89,2.97,2.97,0,0,1-1.12-2.39h1.4a2.029,2.029,0,0,0,.69,1.38,3.092,3.092,0,0,0,2.17.62,3.273,3.273,0,0,0,2.13-.59,1.8,1.8,0,0,0,.71-1.43,1.41,1.41,0,0,0-.59-1.21,3.54,3.54,0,0,0-1.71-.55l-1.2-.12a4.344,4.344,0,0,1-2.33-.89,2.458,2.458,0,0,1-.89-2.01,2.829,2.829,0,0,1,.48-1.64,3.154,3.154,0,0,1,1.35-1.09,4.977,4.977,0,0,1,2.05-.39,4.505,4.505,0,0,1,2.77.8,2.727,2.727,0,0,1,1.09,2.28h-1.4a1.67,1.67,0,0,0-.64-1.28,2.769,2.769,0,0,0-1.82-.52,2.725,2.725,0,0,0-1.85.54,1.7,1.7,0,0,0-.61,1.32,1.428,1.428,0,0,0,.46,1.09,2.433,2.433,0,0,0,1.44.53l1.2.12a5.355,5.355,0,0,1,2.61.92,2.469,2.469,0,0,1,1.01,2.12,2.858,2.858,0,0,1-.53,1.69,3.479,3.479,0,0,1-1.49,1.17A5.549,5.549,0,0,1,172.65,19.3Zm7.8-.3V8.42h1.48V19Zm-1.7-9.38V8.42h3.18v1.2Zm2.02-3.16a1.055,1.055,0,0,1-.81-.29,1.03,1.03,0,0,1-.27-.73,1.03,1.03,0,0,1,.27-.73,1.055,1.055,0,0,1,.81-.29,1.021,1.021,0,0,1,.8.29,1.053,1.053,0,0,1,.26.73,1.053,1.053,0,0,1-.26.73A1.021,1.021,0,0,1,180.77,6.46Zm8.94,12.66a5.106,5.106,0,0,1-1.9-.32,2.439,2.439,0,0,1-1.24-1.09,4.169,4.169,0,0,1-.44-2.07V5.08h1.44V15.86a1.886,1.886,0,0,0,.5,1.41,1.944,1.944,0,0,0,1.42.49h1.9v1.36Zm-5.48-9.56V8.42h7.16V9.56ZM21.71,44.34a5.705,5.705,0,0,1-2.39-.47,5.218,5.218,0,0,1-1.74-1.26,5.659,5.659,0,0,1-1.45-3.77v-.28a5.568,5.568,0,0,1,.38-2.01,5.484,5.484,0,0,1,1.1-1.77,5.4,5.4,0,0,1,1.75-1.25,6.16,6.16,0,0,1,4.72,0,5.4,5.4,0,0,1,1.75,1.25,5.345,5.345,0,0,1,1.09,1.77,5.7,5.7,0,0,1,.37,2.01v.28a5.758,5.758,0,0,1-.36,2,5.426,5.426,0,0,1-1.07,1.77,5.193,5.193,0,0,1-1.75,1.26A5.774,5.774,0,0,1,21.71,44.34Zm0-1.34a4.014,4.014,0,0,0,2.23-.59,3.876,3.876,0,0,0,1.39-1.56,5.053,5.053,0,0,0-.01-4.32,3.785,3.785,0,0,0-1.41-1.54,4.094,4.094,0,0,0-2.2-.57,4.056,4.056,0,0,0-2.18.57,3.785,3.785,0,0,0-1.41,1.54,5.053,5.053,0,0,0-.01,4.32,3.876,3.876,0,0,0,1.39,1.56A3.976,3.976,0,0,0,21.71,43Zm8.94,1V32.4a3.207,3.207,0,0,1,.86-2.46,3.669,3.669,0,0,1,2.58-.8h1.14v1.28H33.81a1.734,1.734,0,0,0-1.28.44,1.677,1.677,0,0,0-.44,1.24V44Zm6.78,0V32.52a3.207,3.207,0,0,1,.86-2.46,3.669,3.669,0,0,1,2.58-.8h1.2v1.28H40.59a1.734,1.734,0,0,0-1.28.44,1.677,1.677,0,0,0-.44,1.24V44Zm7.36,0V33.42h1.48V44ZM29.11,34.56V33.42H42.03v1.14Zm14.04.06v-1.2h3.12v1.2Zm1.96-3.16a1.054,1.054,0,0,1-.81-.29,1.122,1.122,0,0,1,0-1.46,1.054,1.054,0,0,1,.81-.29,1.021,1.021,0,0,1,.8.29,1.155,1.155,0,0,1,0,1.46A1.021,1.021,0,0,1,45.11,31.46Zm9.56,12.88a5.383,5.383,0,0,1-2.33-.47,4.688,4.688,0,0,1-1.65-1.28,5.685,5.685,0,0,1-.99-1.79,6.168,6.168,0,0,1-.33-1.98v-.28a6.138,6.138,0,0,1,.33-1.99,5.471,5.471,0,0,1,.99-1.76,4.8,4.8,0,0,1,1.65-1.26,5.282,5.282,0,0,1,2.29-.47,5.5,5.5,0,0,1,2.35.48,4.237,4.237,0,0,1,1.67,1.36,4.17,4.17,0,0,1,.76,2.08H57.97a2.977,2.977,0,0,0-1.03-1.83,3.428,3.428,0,0,0-2.31-.73,3.609,3.609,0,0,0-2.09.57,3.519,3.519,0,0,0-1.25,1.54,5.355,5.355,0,0,0-.42,2.15,5.448,5.448,0,0,0,.42,2.15A3.427,3.427,0,0,0,54.67,43a3.916,3.916,0,0,0,1.71-.35,3.144,3.144,0,0,0,1.18-.95,2.655,2.655,0,0,0,.53-1.32h1.44a3.816,3.816,0,0,1-.75,2.09,4.474,4.474,0,0,1-1.73,1.38A5.606,5.606,0,0,1,54.67,44.34Zm12.04,0a5.5,5.5,0,0,1-2.36-.47,4.578,4.578,0,0,1-1.64-1.26,5.349,5.349,0,0,1-.95-1.77,6.658,6.658,0,0,1-.31-2.02v-.28a6.593,6.593,0,0,1,.31-2,5.238,5.238,0,0,1,.95-1.76,4.7,4.7,0,0,1,1.61-1.25,5.151,5.151,0,0,1,2.27-.47,4.888,4.888,0,0,1,2.77.74,4.737,4.737,0,0,1,1.67,1.89,5.567,5.567,0,0,1,.56,2.47v.78H62.13V37.78h8.42l-.38.58a4.9,4.9,0,0,0-.41-2.07,3.239,3.239,0,0,0-1.2-1.4,3.562,3.562,0,0,0-1.97-.51,3.48,3.48,0,0,0-2.06.58A3.553,3.553,0,0,0,63.3,36.5a5.5,5.5,0,0,0-.41,2.18,5.671,5.671,0,0,0,.41,2.19,3.453,3.453,0,0,0,1.26,1.57,4.286,4.286,0,0,0,4.39-.05,2.568,2.568,0,0,0,1.06-1.49h1.4a3.956,3.956,0,0,1-.84,1.83,4.239,4.239,0,0,1-1.62,1.19A5.64,5.64,0,0,1,66.71,44.34Zm11.1-.04a4.88,4.88,0,0,1-3.14-.89,2.97,2.97,0,0,1-1.12-2.39h1.4a2.029,2.029,0,0,0,.69,1.38,3.092,3.092,0,0,0,2.17.62,3.273,3.273,0,0,0,2.13-.59A1.8,1.8,0,0,0,80.65,41a1.41,1.41,0,0,0-.59-1.21,3.54,3.54,0,0,0-1.71-.55l-1.2-.12a4.344,4.344,0,0,1-2.33-.89,2.458,2.458,0,0,1-.89-2.01,2.829,2.829,0,0,1,.48-1.64,3.154,3.154,0,0,1,1.35-1.09,4.977,4.977,0,0,1,2.05-.39,4.505,4.505,0,0,1,2.77.8,2.727,2.727,0,0,1,1.09,2.28h-1.4a1.67,1.67,0,0,0-.64-1.28,2.769,2.769,0,0,0-1.82-.52,2.725,2.725,0,0,0-1.85.54,1.7,1.7,0,0,0-.61,1.32,1.428,1.428,0,0,0,.46,1.09,2.433,2.433,0,0,0,1.44.53l1.2.12a5.355,5.355,0,0,1,2.61.92,2.469,2.469,0,0,1,1.01,2.12,2.858,2.858,0,0,1-.53,1.69,3.479,3.479,0,0,1-1.49,1.17A5.549,5.549,0,0,1,77.81,44.3Zm12.2-.3V32.6a3.207,3.207,0,0,1,.86-2.46,3.669,3.669,0,0,1,2.58-.8h1.34v1.28H93.17a1.734,1.734,0,0,0-1.28.44,1.677,1.677,0,0,0-.44,1.24V44Zm-1.54-9.34V33.5h6.54v1.16Zm13.38,9.68a5.705,5.705,0,0,1-2.39-.47,5.218,5.218,0,0,1-1.74-1.26,5.659,5.659,0,0,1-1.45-3.77v-.28a5.568,5.568,0,0,1,.38-2.01,5.484,5.484,0,0,1,1.1-1.77,5.4,5.4,0,0,1,1.75-1.25,6.16,6.16,0,0,1,4.72,0,5.4,5.4,0,0,1,1.75,1.25,5.345,5.345,0,0,1,1.09,1.77,5.7,5.7,0,0,1,.37,2.01v.28a5.758,5.758,0,0,1-.36,2A5.426,5.426,0,0,1,106,42.61a5.193,5.193,0,0,1-1.75,1.26A5.774,5.774,0,0,1,101.85,44.34Zm0-1.34a4.014,4.014,0,0,0,2.23-.59,3.876,3.876,0,0,0,1.39-1.56,5.053,5.053,0,0,0-.01-4.32,3.785,3.785,0,0,0-1.41-1.54,4.492,4.492,0,0,0-4.38,0,3.785,3.785,0,0,0-1.41,1.54,5.052,5.052,0,0,0-.01,4.32,3.876,3.876,0,0,0,1.39,1.56A3.976,3.976,0,0,0,101.85,43Zm8.64,1V33.42h1.2v4.42h-.12a4.94,4.94,0,0,1,1.02-3.43,4.15,4.15,0,0,1,3.2-1.11h.34v1.36h-.62a3.573,3.573,0,0,0-2.62.89,3.514,3.514,0,0,0-.9,2.61V44Zm19.28.34a7.468,7.468,0,0,1-3.35-.69,6.424,6.424,0,0,1-2.26-1.81,7.512,7.512,0,0,1-1.27-2.43,8.71,8.71,0,0,1-.4-2.55v-.38a9.02,9.02,0,0,1,.41-2.67,7.177,7.177,0,0,1,1.28-2.41,6.3,6.3,0,0,1,2.23-1.73,8.316,8.316,0,0,1,6.47.01,5.5,5.5,0,0,1,2.19,1.85,6.041,6.041,0,0,1,1,2.81h-1.54a4.3,4.3,0,0,0-.84-2.17,4.229,4.229,0,0,0-1.73-1.31,5.972,5.972,0,0,0-2.33-.44,5.689,5.689,0,0,0-2.43.49,4.835,4.835,0,0,0-1.75,1.36,6.119,6.119,0,0,0-1.06,2,7.894,7.894,0,0,0-.36,2.41,7.8,7.8,0,0,0,.35,2.34,6.018,6.018,0,0,0,1.07,2.01,5.055,5.055,0,0,0,1.8,1.4,5.844,5.844,0,0,0,2.52.51,5.478,5.478,0,0,0,3.36-1.01,4.358,4.358,0,0,0,1.68-2.91h1.54a6.426,6.426,0,0,1-1.04,2.71,5.717,5.717,0,0,1-2.21,1.91A7.329,7.329,0,0,1,129.77,44.34Zm7.92-.34,5.38-14.6h2.72L151.35,44h-1.56l-5.18-13.64.82.42h-2.1l.86-.42L139.21,44Zm2.88-4.64.5-1.38h6.78l.52,1.38Zm16.68,4.94a4.88,4.88,0,0,1-3.14-.89,2.97,2.97,0,0,1-1.12-2.39h1.4a2.029,2.029,0,0,0,.69,1.38,3.092,3.092,0,0,0,2.17.62,3.273,3.273,0,0,0,2.13-.59,1.8,1.8,0,0,0,.71-1.43,1.41,1.41,0,0,0-.59-1.21,3.54,3.54,0,0,0-1.71-.55l-1.2-.12a4.344,4.344,0,0,1-2.33-.89,2.458,2.458,0,0,1-.89-2.01,2.829,2.829,0,0,1,.48-1.64,3.154,3.154,0,0,1,1.35-1.09,4.977,4.977,0,0,1,2.05-.39,4.505,4.505,0,0,1,2.77.8,2.727,2.727,0,0,1,1.09,2.28h-1.4a1.67,1.67,0,0,0-.64-1.28,2.769,2.769,0,0,0-1.82-.52,2.725,2.725,0,0,0-1.85.54,1.7,1.7,0,0,0-.61,1.32,1.428,1.428,0,0,0,.46,1.09,2.433,2.433,0,0,0,1.44.53l1.2.12a5.355,5.355,0,0,1,2.61.92,2.469,2.469,0,0,1,1.01,2.12,2.858,2.858,0,0,1-.53,1.69,3.479,3.479,0,0,1-1.49,1.17A5.549,5.549,0,0,1,157.25,44.3Zm18.34-.3V40.82h-.24V37.06a2.473,2.473,0,0,0-.62-1.81,2.591,2.591,0,0,0-1.92-.63q-.6,0-1.21.02t-1.16.05q-.55.03-.97.07V33.44l.9-.08q.46-.04.95-.05t.95-.01a7.085,7.085,0,0,1,2.61.4,2.752,2.752,0,0,1,1.45,1.25,4.729,4.729,0,0,1,.46,2.25V44Zm-3.58.28a4.646,4.646,0,0,1-1.98-.4,3.017,3.017,0,0,1-1.33-1.16,3.432,3.432,0,0,1-.47-1.84,3.188,3.188,0,0,1,.49-1.8,3.071,3.071,0,0,1,1.42-1.13,5.812,5.812,0,0,1,2.25-.39h3.1V38.7h-3.2a2.77,2.77,0,0,0-1.93.61,2.05,2.05,0,0,0-.67,1.59,1.972,1.972,0,0,0,.7,1.59,2.854,2.854,0,0,0,1.9.59,3.813,3.813,0,0,0,1.42-.27,2.526,2.526,0,0,0,1.14-.92,3.258,3.258,0,0,0,.5-1.79l.44.62a4.312,4.312,0,0,1-.56,1.97,3.067,3.067,0,0,1-1.3,1.19A4.332,4.332,0,0,1,172.01,44.28Zm8.52-.28V33.42h1.2v4.44h-.24a6.612,6.612,0,0,1,.44-2.54,3.521,3.521,0,0,1,1.32-1.64,3.955,3.955,0,0,1,2.22-.58h.06a3.553,3.553,0,0,1,2.98,1.25,5.566,5.566,0,0,1,.98,3.51V44h-1.48V37.54a3.182,3.182,0,0,0-.76-2.22,2.713,2.713,0,0,0-2.12-.84,3,3,0,0,0-2.25.87,3.137,3.137,0,0,0-.85,2.29V44Zm17.04.34a5.059,5.059,0,0,1-2.11-.43,4.879,4.879,0,0,1-1.64-1.2,5.493,5.493,0,0,1-1.06-1.76,5.978,5.978,0,0,1-.37-2.11v-.28a6.01,6.01,0,0,1,.36-2.07,5.538,5.538,0,0,1,1.03-1.76,4.847,4.847,0,0,1,3.75-1.67,4.691,4.691,0,0,1,2.36.58,4.341,4.341,0,0,1,1.64,1.67,5.622,5.622,0,0,1,.66,2.67l-.66-1.24V29.4h1.5V44h-1.2V39.3h.48a5.808,5.808,0,0,1-.69,2.79,4.27,4.27,0,0,1-1.7,1.69A4.914,4.914,0,0,1,197.57,44.34Zm.2-1.32a3.968,3.968,0,0,0,1.95-.48,3.472,3.472,0,0,0,1.37-1.37,4.114,4.114,0,0,0,.5-2.05v-.96a3.813,3.813,0,0,0-.5-1.97,3.549,3.549,0,0,0-1.37-1.33,4.009,4.009,0,0,0-1.97-.48,3.656,3.656,0,0,0-2.05.57,3.749,3.749,0,0,0-1.34,1.55,5.425,5.425,0,0,0,.01,4.44,3.656,3.656,0,0,0,1.36,1.53A3.768,3.768,0,0,0,197.77,43.02ZM72.21,69V54.4h1.5V69ZM70.67,55.62V54.4h3.04v1.22ZM84.03,69V65.82h-.24V62.06a2.473,2.473,0,0,0-.62-1.81,2.591,2.591,0,0,0-1.92-.63q-.6,0-1.21.02t-1.16.05q-.55.03-.97.07V58.44l.9-.08q.46-.04.95-.05t.95-.01a7.085,7.085,0,0,1,2.61.4,2.752,2.752,0,0,1,1.45,1.25,4.729,4.729,0,0,1,.46,2.25V69Zm-3.58.28a4.646,4.646,0,0,1-1.98-.4,3.016,3.016,0,0,1-1.33-1.16,3.432,3.432,0,0,1-.47-1.84,3.187,3.187,0,0,1,.49-1.8,3.071,3.071,0,0,1,1.42-1.13,5.812,5.812,0,0,1,2.25-.39h3.1V63.7h-3.2a2.77,2.77,0,0,0-1.93.61,2.05,2.05,0,0,0-.67,1.59,1.972,1.972,0,0,0,.7,1.59,2.854,2.854,0,0,0,1.9.59,3.813,3.813,0,0,0,1.42-.27,2.526,2.526,0,0,0,1.14-.92,3.258,3.258,0,0,0,.5-1.79l.44.62a4.312,4.312,0,0,1-.56,1.97,3.067,3.067,0,0,1-1.3,1.19A4.332,4.332,0,0,1,80.45,69.28ZM91.91,69l2.26-10.24h2.1L98.89,69h-1.3L94.97,58.82h.48L93.17,69Zm-.86,0V67.78h1.82V69Zm-.36,0L87.63,58.42h1.44L92.09,69Zm7.24,0V67.78h1.78V69Zm.78,0,2.64-10.58h1.38L100.03,69Zm5.84,4.12V71.78h1.36a3.746,3.746,0,0,0,1.2-.17,1.814,1.814,0,0,0,.84-.59,3.615,3.615,0,0,0,.58-1.16l3.56-11.44h1.46l-3.72,11.86a4.456,4.456,0,0,1-.88,1.65,3.227,3.227,0,0,1-1.34.91,5.25,5.25,0,0,1-1.78.28Zm3.44-4.38V67.48h1.9v1.26Zm-.18,0-3.84-10.32h1.54l3.7,10.32Zm12.6.6a5.5,5.5,0,0,1-2.36-.47,4.578,4.578,0,0,1-1.64-1.26,5.349,5.349,0,0,1-.95-1.77,6.658,6.658,0,0,1-.31-2.02v-.28a6.593,6.593,0,0,1,.31-2,5.238,5.238,0,0,1,.95-1.76,4.7,4.7,0,0,1,1.61-1.25,5.151,5.151,0,0,1,2.27-.47,4.888,4.888,0,0,1,2.77.74,4.737,4.737,0,0,1,1.67,1.89,5.567,5.567,0,0,1,.56,2.47v.78h-9.46V62.78h8.42l-.38.58a4.9,4.9,0,0,0-.41-2.07,3.239,3.239,0,0,0-1.2-1.4,3.562,3.562,0,0,0-1.97-.51,3.48,3.48,0,0,0-2.06.58A3.553,3.553,0,0,0,117,61.5a5.5,5.5,0,0,0-.41,2.18,5.671,5.671,0,0,0,.41,2.19,3.453,3.453,0,0,0,1.26,1.57,4.286,4.286,0,0,0,4.39-.05,2.568,2.568,0,0,0,1.06-1.49h1.4a3.956,3.956,0,0,1-.84,1.83,4.239,4.239,0,0,1-1.62,1.19A5.64,5.64,0,0,1,120.41,69.34Zm7.76-.34V58.42h1.2v4.42h-.12a4.94,4.94,0,0,1,1.02-3.43,4.15,4.15,0,0,1,3.2-1.11h.34v1.36h-.62a3.573,3.573,0,0,0-2.62.89,3.514,3.514,0,0,0-.9,2.61V69Zm11.4.3a4.88,4.88,0,0,1-3.14-.89,2.97,2.97,0,0,1-1.12-2.39h1.4a2.029,2.029,0,0,0,.69,1.38,3.092,3.092,0,0,0,2.17.62,3.273,3.273,0,0,0,2.13-.59,1.8,1.8,0,0,0,.71-1.43,1.41,1.41,0,0,0-.59-1.21,3.54,3.54,0,0,0-1.71-.55l-1.2-.12a4.344,4.344,0,0,1-2.33-.89,2.458,2.458,0,0,1-.89-2.01,2.829,2.829,0,0,1,.48-1.64,3.154,3.154,0,0,1,1.35-1.09,4.977,4.977,0,0,1,2.05-.39,4.505,4.505,0,0,1,2.77.8,2.727,2.727,0,0,1,1.09,2.28h-1.4a1.67,1.67,0,0,0-.64-1.28,2.769,2.769,0,0,0-1.82-.52,2.725,2.725,0,0,0-1.85.54,1.7,1.7,0,0,0-.61,1.32,1.428,1.428,0,0,0,.46,1.09,2.433,2.433,0,0,0,1.44.53l1.2.12a5.355,5.355,0,0,1,2.61.92,2.469,2.469,0,0,1,1.01,2.12,2.858,2.858,0,0,1-.53,1.69,3.479,3.479,0,0,1-1.49,1.17A5.549,5.549,0,0,1,139.57,69.3Zm6.74-.3V67.02h1.88V69Z" transform="translate(13974 3287)" fill="#262626"/>
    <path id="Path_875" data-name="Path 875" d="M8.71,19.34a5.705,5.705,0,0,1-2.39-.47,5.218,5.218,0,0,1-1.74-1.26,5.659,5.659,0,0,1-1.45-3.77v-.28a5.568,5.568,0,0,1,.38-2.01,5.484,5.484,0,0,1,1.1-1.77A5.4,5.4,0,0,1,6.36,8.53a5.6,5.6,0,0,1,2.35-.47,5.654,5.654,0,0,1,2.37.47,5.4,5.4,0,0,1,1.75,1.25,5.345,5.345,0,0,1,1.09,1.77,5.7,5.7,0,0,1,.37,2.01v.28a5.758,5.758,0,0,1-.36,2,5.426,5.426,0,0,1-1.07,1.77,5.193,5.193,0,0,1-1.75,1.26A5.774,5.774,0,0,1,8.71,19.34Zm0-1.34a4.014,4.014,0,0,0,2.23-.59,3.876,3.876,0,0,0,1.39-1.56,5.053,5.053,0,0,0-.01-4.32,3.785,3.785,0,0,0-1.41-1.54,4.094,4.094,0,0,0-2.2-.57,4.056,4.056,0,0,0-2.18.57,3.785,3.785,0,0,0-1.41,1.54,5.053,5.053,0,0,0-.01,4.32A3.876,3.876,0,0,0,6.5,17.41,3.976,3.976,0,0,0,8.71,18Zm8.94,1V7.6a3.207,3.207,0,0,1,.86-2.46,3.669,3.669,0,0,1,2.58-.8h1.34V5.62H20.81a1.734,1.734,0,0,0-1.28.44,1.677,1.677,0,0,0-.44,1.24V19ZM16.11,9.66V8.5h6.54V9.66ZM29.51,23V8.42h1.2v4.54l-.36.04a6.149,6.149,0,0,1,.69-2.7A4.128,4.128,0,0,1,32.7,8.63a5.149,5.149,0,0,1,4.46-.12,4.9,4.9,0,0,1,1.62,1.22,5.392,5.392,0,0,1,1.02,1.76,6.164,6.164,0,0,1,.35,2.07v.28a6.01,6.01,0,0,1-.36,2.07,5.538,5.538,0,0,1-1.03,1.76,4.847,4.847,0,0,1-3.75,1.67,4.763,4.763,0,0,1-2.31-.57A4.357,4.357,0,0,1,31,17.08a5.859,5.859,0,0,1-.71-2.76l.72,1.5V23Zm5.3-4.98a3.643,3.643,0,0,0,2.06-.57,3.692,3.692,0,0,0,1.32-1.56,5.134,5.134,0,0,0,.46-2.19,5.006,5.006,0,0,0-.47-2.21,3.788,3.788,0,0,0-1.33-1.54,3.607,3.607,0,0,0-2.04-.57,4.025,4.025,0,0,0-1.96.48,3.56,3.56,0,0,0-1.39,1.35,3.981,3.981,0,0,0-.51,2.05v.98a3.755,3.755,0,0,0,.51,1.97,3.6,3.6,0,0,0,1.39,1.33A4.025,4.025,0,0,0,34.81,18.02Zm12.8,1.32a5.5,5.5,0,0,1-2.36-.47,4.578,4.578,0,0,1-1.64-1.26,5.349,5.349,0,0,1-.95-1.77,6.658,6.658,0,0,1-.31-2.02v-.28a6.593,6.593,0,0,1,.31-2,5.238,5.238,0,0,1,.95-1.76,4.7,4.7,0,0,1,1.61-1.25,5.151,5.151,0,0,1,2.27-.47,4.888,4.888,0,0,1,2.77.74,4.737,4.737,0,0,1,1.67,1.89,5.567,5.567,0,0,1,.56,2.47v.78H43.03V12.78h8.42l-.38.58a4.9,4.9,0,0,0-.41-2.07,3.239,3.239,0,0,0-1.2-1.4,3.562,3.562,0,0,0-1.97-.51,3.48,3.48,0,0,0-2.06.58A3.553,3.553,0,0,0,44.2,11.5a5.5,5.5,0,0,0-.41,2.18,5.671,5.671,0,0,0,.41,2.19,3.453,3.453,0,0,0,1.26,1.57,4.286,4.286,0,0,0,4.39-.05,2.568,2.568,0,0,0,1.06-1.49h1.4a3.956,3.956,0,0,1-.84,1.83,4.239,4.239,0,0,1-1.62,1.19A5.64,5.64,0,0,1,47.61,19.34Zm12.5,0a5.705,5.705,0,0,1-2.39-.47,5.218,5.218,0,0,1-1.74-1.26,5.659,5.659,0,0,1-1.45-3.77v-.28a5.568,5.568,0,0,1,.38-2.01,5.484,5.484,0,0,1,1.1-1.77,5.4,5.4,0,0,1,1.75-1.25,6.16,6.16,0,0,1,4.72,0,5.4,5.4,0,0,1,1.75,1.25,5.345,5.345,0,0,1,1.09,1.77,5.7,5.7,0,0,1,.37,2.01v.28a5.758,5.758,0,0,1-.36,2,5.426,5.426,0,0,1-1.07,1.77,5.193,5.193,0,0,1-1.75,1.26A5.774,5.774,0,0,1,60.11,19.34Zm0-1.34a4.014,4.014,0,0,0,2.23-.59,3.876,3.876,0,0,0,1.39-1.56,5.053,5.053,0,0,0-.01-4.32,3.785,3.785,0,0,0-1.41-1.54,4.492,4.492,0,0,0-4.38,0,3.785,3.785,0,0,0-1.41,1.54,5.053,5.053,0,0,0-.01,4.32,3.876,3.876,0,0,0,1.39,1.56A3.976,3.976,0,0,0,60.11,18Zm8.64,5V8.42h1.2v4.54l-.36.04a6.149,6.149,0,0,1,.69-2.7,4.128,4.128,0,0,1,1.66-1.67,5.149,5.149,0,0,1,4.46-.12,4.9,4.9,0,0,1,1.62,1.22,5.392,5.392,0,0,1,1.02,1.76,6.164,6.164,0,0,1,.35,2.07v.28a6.01,6.01,0,0,1-.36,2.07A5.538,5.538,0,0,1,78,17.67a4.847,4.847,0,0,1-3.75,1.67,4.763,4.763,0,0,1-2.31-.57,4.357,4.357,0,0,1-1.7-1.69,5.859,5.859,0,0,1-.71-2.76l.72,1.5V23Zm5.3-4.98a3.643,3.643,0,0,0,2.06-.57,3.692,3.692,0,0,0,1.32-1.56,5.134,5.134,0,0,0,.46-2.19,5.006,5.006,0,0,0-.47-2.21,3.788,3.788,0,0,0-1.33-1.54,3.607,3.607,0,0,0-2.04-.57,4.025,4.025,0,0,0-1.96.48,3.56,3.56,0,0,0-1.39,1.35,3.981,3.981,0,0,0-.51,2.05v.98a3.754,3.754,0,0,0,.51,1.97,3.6,3.6,0,0,0,1.39,1.33A4.025,4.025,0,0,0,74.05,18.02Zm8.48.98V4.4h1.5V19ZM80.99,5.62V4.4h3.04V5.62ZM92.33,19.34a5.5,5.5,0,0,1-2.36-.47,4.578,4.578,0,0,1-1.64-1.26,5.349,5.349,0,0,1-.95-1.77,6.658,6.658,0,0,1-.31-2.02v-.28a6.593,6.593,0,0,1,.31-2,5.238,5.238,0,0,1,.95-1.76,4.7,4.7,0,0,1,1.61-1.25,5.151,5.151,0,0,1,2.27-.47,4.888,4.888,0,0,1,2.77.74,4.737,4.737,0,0,1,1.67,1.89,5.567,5.567,0,0,1,.56,2.47v.78H87.75V12.78h8.42l-.38.58a4.9,4.9,0,0,0-.41-2.07,3.239,3.239,0,0,0-1.2-1.4,3.562,3.562,0,0,0-1.97-.51,3.48,3.48,0,0,0-2.06.58,3.553,3.553,0,0,0-1.23,1.54,5.5,5.5,0,0,0-.41,2.18,5.671,5.671,0,0,0,.41,2.19,3.453,3.453,0,0,0,1.26,1.57,4.286,4.286,0,0,0,4.39-.05,2.568,2.568,0,0,0,1.06-1.49h1.4a3.956,3.956,0,0,1-.84,1.83,4.239,4.239,0,0,1-1.62,1.19A5.64,5.64,0,0,1,92.33,19.34ZM107.71,19l2.26-10.24h2.1L114.69,19h-1.3L110.77,8.82h.48L108.97,19Zm-.86,0V17.78h1.82V19Zm-.36,0L103.43,8.42h1.44L107.89,19Zm7.24,0V17.78h1.78V19Zm.78,0,2.64-10.58h1.38L115.83,19Zm13.16,0V15.82h-.24V12.06a2.473,2.473,0,0,0-.62-1.81,2.591,2.591,0,0,0-1.92-.63q-.6,0-1.21.02t-1.16.05q-.55.03-.97.07V8.44l.9-.08q.46-.04.95-.05t.95-.01a7.085,7.085,0,0,1,2.61.4,2.752,2.752,0,0,1,1.45,1.25,4.729,4.729,0,0,1,.46,2.25V19Zm-3.58.28a4.647,4.647,0,0,1-1.98-.4,3.016,3.016,0,0,1-1.33-1.16,3.432,3.432,0,0,1-.47-1.84,3.187,3.187,0,0,1,.49-1.8,3.071,3.071,0,0,1,1.42-1.13,5.812,5.812,0,0,1,2.25-.39h3.1V13.7h-3.2a2.77,2.77,0,0,0-1.93.61,2.05,2.05,0,0,0-.67,1.59,1.972,1.972,0,0,0,.7,1.59,2.854,2.854,0,0,0,1.9.59,3.813,3.813,0,0,0,1.42-.27,2.526,2.526,0,0,0,1.14-.92,3.258,3.258,0,0,0,.5-1.79l.44.62a4.312,4.312,0,0,1-.56,1.97,3.067,3.067,0,0,1-1.3,1.19A4.332,4.332,0,0,1,124.09,19.28Zm8.52-.28V8.42h1.2v4.44h-.24a6.612,6.612,0,0,1,.44-2.54,3.521,3.521,0,0,1,1.32-1.64,3.955,3.955,0,0,1,2.22-.58h.06a3.553,3.553,0,0,1,2.98,1.25,5.566,5.566,0,0,1,.98,3.51V19h-1.48V12.54a3.182,3.182,0,0,0-.76-2.22,2.713,2.713,0,0,0-2.12-.84,3,3,0,0,0-2.25.87,3.137,3.137,0,0,0-.85,2.29V19Zm16.54.12a5.106,5.106,0,0,1-1.9-.32,2.439,2.439,0,0,1-1.24-1.09,4.169,4.169,0,0,1-.44-2.07V5.08h1.44V15.86a1.886,1.886,0,0,0,.5,1.41,1.944,1.944,0,0,0,1.42.49h1.9v1.36Zm-5.48-9.56V8.42h7.16V9.56Zm18.56,9.56a5.106,5.106,0,0,1-1.9-.32,2.439,2.439,0,0,1-1.24-1.09,4.169,4.169,0,0,1-.44-2.07V5.08h1.44V15.86a1.886,1.886,0,0,0,.5,1.41,1.944,1.944,0,0,0,1.42.49h1.9v1.36Zm-5.48-9.56V8.42h7.16V9.56Zm14.7,9.78a5.705,5.705,0,0,1-2.39-.47,5.218,5.218,0,0,1-1.74-1.26,5.659,5.659,0,0,1-1.45-3.77v-.28a5.568,5.568,0,0,1,.38-2.01,5.484,5.484,0,0,1,1.1-1.77,5.4,5.4,0,0,1,1.75-1.25,6.16,6.16,0,0,1,4.72,0,5.4,5.4,0,0,1,1.75,1.25,5.344,5.344,0,0,1,1.09,1.77,5.7,5.7,0,0,1,.37,2.01v.28a5.758,5.758,0,0,1-.36,2,5.426,5.426,0,0,1-1.07,1.77,5.193,5.193,0,0,1-1.75,1.26A5.774,5.774,0,0,1,171.45,19.34Zm0-1.34a4.014,4.014,0,0,0,2.23-.59,3.876,3.876,0,0,0,1.39-1.56,5.053,5.053,0,0,0-.01-4.32,3.785,3.785,0,0,0-1.41-1.54,4.492,4.492,0,0,0-4.38,0,3.785,3.785,0,0,0-1.41,1.54,5.053,5.053,0,0,0-.01,4.32,3.876,3.876,0,0,0,1.39,1.56A3.976,3.976,0,0,0,171.45,18Zm16.96,1.3a3.52,3.52,0,0,1-2.9-1.23,5.3,5.3,0,0,1-1-3.43V8.4h1.48v6.54a3.149,3.149,0,0,0,.73,2.19,2.593,2.593,0,0,0,2.03.81,2.839,2.839,0,0,0,2.17-.86,3.218,3.218,0,0,0,.81-2.3V8.4h1.5V19h-1.2V14.58h.24a6.813,6.813,0,0,1-.42,2.53,3.439,3.439,0,0,1-1.26,1.62,3.694,3.694,0,0,1-2.12.57Zm12.08,0a4.88,4.88,0,0,1-3.14-.89,2.97,2.97,0,0,1-1.12-2.39h1.4a2.029,2.029,0,0,0,.69,1.38,3.092,3.092,0,0,0,2.17.62,3.273,3.273,0,0,0,2.13-.59,1.8,1.8,0,0,0,.71-1.43,1.41,1.41,0,0,0-.59-1.21,3.54,3.54,0,0,0-1.71-.55l-1.2-.12a4.344,4.344,0,0,1-2.33-.89,2.458,2.458,0,0,1-.89-2.01,2.829,2.829,0,0,1,.48-1.64,3.154,3.154,0,0,1,1.35-1.09,4.977,4.977,0,0,1,2.05-.39,4.505,4.505,0,0,1,2.77.8,2.727,2.727,0,0,1,1.09,2.28h-1.4a1.67,1.67,0,0,0-.64-1.28,2.769,2.769,0,0,0-1.82-.52,2.725,2.725,0,0,0-1.85.54,1.7,1.7,0,0,0-.61,1.32,1.428,1.428,0,0,0,.46,1.09,2.433,2.433,0,0,0,1.44.53l1.2.12a5.355,5.355,0,0,1,2.61.92,2.469,2.469,0,0,1,1.01,2.12,2.858,2.858,0,0,1-.53,1.69,3.479,3.479,0,0,1-1.49,1.17A5.549,5.549,0,0,1,200.49,19.3Zm11.66.04a5.5,5.5,0,0,1-2.36-.47,4.578,4.578,0,0,1-1.64-1.26,5.349,5.349,0,0,1-.95-1.77,6.658,6.658,0,0,1-.31-2.02v-.28a6.594,6.594,0,0,1,.31-2,5.238,5.238,0,0,1,.95-1.76,4.7,4.7,0,0,1,1.61-1.25,5.151,5.151,0,0,1,2.27-.47,4.888,4.888,0,0,1,2.77.74,4.737,4.737,0,0,1,1.67,1.89,5.567,5.567,0,0,1,.56,2.47v.78h-9.46V12.78h8.42l-.38.58a4.9,4.9,0,0,0-.41-2.07,3.239,3.239,0,0,0-1.2-1.4,3.562,3.562,0,0,0-1.97-.51,3.48,3.48,0,0,0-2.06.58,3.553,3.553,0,0,0-1.23,1.54,5.5,5.5,0,0,0-.41,2.18,5.671,5.671,0,0,0,.41,2.19A3.453,3.453,0,0,0,210,17.44a4.286,4.286,0,0,0,4.39-.05,2.568,2.568,0,0,0,1.06-1.49h1.4a3.956,3.956,0,0,1-.84,1.83,4.239,4.239,0,0,1-1.62,1.19A5.64,5.64,0,0,1,212.15,19.34ZM7.9,44.12A5.106,5.106,0,0,1,6,43.8a2.439,2.439,0,0,1-1.24-1.09,4.169,4.169,0,0,1-.44-2.07V30.08H5.76V40.86a1.886,1.886,0,0,0,.5,1.41,1.944,1.944,0,0,0,1.42.49h1.9v1.36ZM2.42,34.56V33.42H9.58v1.14ZM12.48,44V29.4h1.5v8.26l-.44.34a7.067,7.067,0,0,1,.43-2.58,3.645,3.645,0,0,1,1.3-1.71,3.724,3.724,0,0,1,2.19-.61h.08a3.477,3.477,0,0,1,2.91,1.26,5.534,5.534,0,0,1,.99,3.5V44H19.96V37.54a3.117,3.117,0,0,0-.78-2.24,2.761,2.761,0,0,0-2.1-.82,2.926,2.926,0,0,0-2.26.91,3.384,3.384,0,0,0-.84,2.39V44Zm17.12.34a5.5,5.5,0,0,1-2.36-.47,4.578,4.578,0,0,1-1.64-1.26,5.349,5.349,0,0,1-.95-1.77,6.658,6.658,0,0,1-.31-2.02v-.28a6.593,6.593,0,0,1,.31-2,5.238,5.238,0,0,1,.95-1.76,4.7,4.7,0,0,1,1.61-1.25,5.151,5.151,0,0,1,2.27-.47,4.888,4.888,0,0,1,2.77.74,4.737,4.737,0,0,1,1.67,1.89,5.567,5.567,0,0,1,.56,2.47v.78H25.02V37.78h8.42l-.38.58a4.9,4.9,0,0,0-.41-2.07,3.239,3.239,0,0,0-1.2-1.4,3.562,3.562,0,0,0-1.97-.51,3.48,3.48,0,0,0-2.06.58,3.553,3.553,0,0,0-1.23,1.54,5.5,5.5,0,0,0-.41,2.18,5.671,5.671,0,0,0,.41,2.19,3.453,3.453,0,0,0,1.26,1.57,3.732,3.732,0,0,0,2.15.58,3.7,3.7,0,0,0,2.24-.63A2.568,2.568,0,0,0,32.9,40.9h1.4a3.956,3.956,0,0,1-.84,1.83,4.239,4.239,0,0,1-1.62,1.19A5.64,5.64,0,0,1,29.6,44.34Zm11.1-.04a4.88,4.88,0,0,1-3.14-.89,2.97,2.97,0,0,1-1.12-2.39h1.4a2.029,2.029,0,0,0,.69,1.38,3.092,3.092,0,0,0,2.17.62,3.273,3.273,0,0,0,2.13-.59A1.8,1.8,0,0,0,43.54,41a1.41,1.41,0,0,0-.59-1.21,3.54,3.54,0,0,0-1.71-.55l-1.2-.12a4.344,4.344,0,0,1-2.33-.89,2.458,2.458,0,0,1-.89-2.01,2.829,2.829,0,0,1,.48-1.64,3.154,3.154,0,0,1,1.35-1.09,4.977,4.977,0,0,1,2.05-.39,4.505,4.505,0,0,1,2.77.8,2.727,2.727,0,0,1,1.09,2.28h-1.4a1.67,1.67,0,0,0-.64-1.28,2.769,2.769,0,0,0-1.82-.52,2.725,2.725,0,0,0-1.85.54,1.7,1.7,0,0,0-.61,1.32,1.428,1.428,0,0,0,.46,1.09,2.433,2.433,0,0,0,1.44.53l1.2.12a5.355,5.355,0,0,1,2.61.92,2.469,2.469,0,0,1,1.01,2.12,2.858,2.858,0,0,1-.53,1.69,3.479,3.479,0,0,1-1.49,1.17A5.549,5.549,0,0,1,40.7,44.3Zm11.66.04A5.5,5.5,0,0,1,50,43.87a4.578,4.578,0,0,1-1.64-1.26,5.349,5.349,0,0,1-.95-1.77,6.658,6.658,0,0,1-.31-2.02v-.28a6.593,6.593,0,0,1,.31-2,5.238,5.238,0,0,1,.95-1.76,4.7,4.7,0,0,1,1.61-1.25,5.151,5.151,0,0,1,2.27-.47,4.888,4.888,0,0,1,2.77.74,4.737,4.737,0,0,1,1.67,1.89,5.567,5.567,0,0,1,.56,2.47v.78H47.78V37.78H56.2l-.38.58a4.9,4.9,0,0,0-.41-2.07,3.239,3.239,0,0,0-1.2-1.4,3.562,3.562,0,0,0-1.97-.51,3.48,3.48,0,0,0-2.06.58,3.553,3.553,0,0,0-1.23,1.54,5.5,5.5,0,0,0-.41,2.18,5.671,5.671,0,0,0,.41,2.19,3.453,3.453,0,0,0,1.26,1.57,4.286,4.286,0,0,0,4.39-.05,2.568,2.568,0,0,0,1.06-1.49h1.4a3.956,3.956,0,0,1-.84,1.83,4.239,4.239,0,0,1-1.62,1.19A5.64,5.64,0,0,1,52.36,44.34Zm15.76-.04a4.88,4.88,0,0,1-3.14-.89,2.97,2.97,0,0,1-1.12-2.39h1.4a2.029,2.029,0,0,0,.69,1.38,3.092,3.092,0,0,0,2.17.62,3.273,3.273,0,0,0,2.13-.59A1.8,1.8,0,0,0,70.96,41a1.41,1.41,0,0,0-.59-1.21,3.54,3.54,0,0,0-1.71-.55l-1.2-.12a4.344,4.344,0,0,1-2.33-.89,2.458,2.458,0,0,1-.89-2.01,2.829,2.829,0,0,1,.48-1.64,3.154,3.154,0,0,1,1.35-1.09,4.977,4.977,0,0,1,2.05-.39,4.505,4.505,0,0,1,2.77.8,2.727,2.727,0,0,1,1.09,2.28h-1.4a1.67,1.67,0,0,0-.64-1.28,2.769,2.769,0,0,0-1.82-.52,2.725,2.725,0,0,0-1.85.54,1.7,1.7,0,0,0-.61,1.32,1.428,1.428,0,0,0,.46,1.09,2.433,2.433,0,0,0,1.44.53l1.2.12a5.355,5.355,0,0,1,2.61.92,2.469,2.469,0,0,1,1.01,2.12,2.858,2.858,0,0,1-.53,1.69,3.479,3.479,0,0,1-1.49,1.17A5.549,5.549,0,0,1,68.12,44.3Zm11.66.04a5.5,5.5,0,0,1-2.36-.47,4.578,4.578,0,0,1-1.64-1.26,5.349,5.349,0,0,1-.95-1.77,6.658,6.658,0,0,1-.31-2.02v-.28a6.593,6.593,0,0,1,.31-2,5.238,5.238,0,0,1,.95-1.76,4.7,4.7,0,0,1,1.61-1.25,5.151,5.151,0,0,1,2.27-.47,4.888,4.888,0,0,1,2.77.74,4.737,4.737,0,0,1,1.67,1.89,5.567,5.567,0,0,1,.56,2.47v.78H75.2V37.78h8.42l-.38.58a4.9,4.9,0,0,0-.41-2.07,3.239,3.239,0,0,0-1.2-1.4,3.562,3.562,0,0,0-1.97-.51,3.48,3.48,0,0,0-2.06.58,3.553,3.553,0,0,0-1.23,1.54,5.5,5.5,0,0,0-.41,2.18,5.671,5.671,0,0,0,.41,2.19,3.453,3.453,0,0,0,1.26,1.57,4.286,4.286,0,0,0,4.39-.05,2.568,2.568,0,0,0,1.06-1.49h1.4a3.956,3.956,0,0,1-.84,1.83,4.239,4.239,0,0,1-1.62,1.19A5.64,5.64,0,0,1,79.78,44.34ZM87.54,44V33.42h1.2v4.42h-.12a4.94,4.94,0,0,1,1.02-3.43,4.15,4.15,0,0,1,3.2-1.11h.34v1.36h-.62a3.573,3.573,0,0,0-2.62.89,3.514,3.514,0,0,0-.9,2.61V44Zm10.78,0L94.6,33.42h1.54L99.82,44Zm.4,0V42.78h1.9V44Zm.82,0,3.22-10.58h1.48L100.96,44Zm7.92,0V33.42h1.48V44Zm-1.7-9.38v-1.2h3.18v1.2Zm2.02-3.16a1.054,1.054,0,0,1-.81-.29,1.122,1.122,0,0,1,0-1.46,1.054,1.054,0,0,1,.81-.29,1.021,1.021,0,0,1,.8.29,1.155,1.155,0,0,1,0,1.46A1.021,1.021,0,0,1,107.78,31.46Zm9.56,12.88a5.383,5.383,0,0,1-2.33-.47,4.688,4.688,0,0,1-1.65-1.28,5.685,5.685,0,0,1-.99-1.79,6.168,6.168,0,0,1-.33-1.98v-.28a6.138,6.138,0,0,1,.33-1.99,5.471,5.471,0,0,1,.99-1.76,4.8,4.8,0,0,1,1.65-1.26,5.282,5.282,0,0,1,2.29-.47,5.5,5.5,0,0,1,2.35.48,4.237,4.237,0,0,1,1.67,1.36,4.17,4.17,0,0,1,.76,2.08h-1.44a2.977,2.977,0,0,0-1.03-1.83,3.428,3.428,0,0,0-2.31-.73,3.609,3.609,0,0,0-2.09.57,3.519,3.519,0,0,0-1.25,1.54,5.355,5.355,0,0,0-.42,2.15,5.448,5.448,0,0,0,.42,2.15A3.427,3.427,0,0,0,117.34,43a3.916,3.916,0,0,0,1.71-.35,3.144,3.144,0,0,0,1.18-.95,2.655,2.655,0,0,0,.53-1.32h1.44a3.816,3.816,0,0,1-.75,2.09,4.474,4.474,0,0,1-1.73,1.38A5.607,5.607,0,0,1,117.34,44.34Zm12.04,0a5.5,5.5,0,0,1-2.36-.47,4.578,4.578,0,0,1-1.64-1.26,5.349,5.349,0,0,1-.95-1.77,6.658,6.658,0,0,1-.31-2.02v-.28a6.593,6.593,0,0,1,.31-2,5.238,5.238,0,0,1,.95-1.76,4.7,4.7,0,0,1,1.61-1.25,5.151,5.151,0,0,1,2.27-.47,4.888,4.888,0,0,1,2.77.74,4.737,4.737,0,0,1,1.67,1.89,5.567,5.567,0,0,1,.56,2.47v.78H124.8V37.78h8.42l-.38.58a4.9,4.9,0,0,0-.41-2.07,3.239,3.239,0,0,0-1.2-1.4,3.562,3.562,0,0,0-1.97-.51,3.48,3.48,0,0,0-2.06.58,3.553,3.553,0,0,0-1.23,1.54,5.5,5.5,0,0,0-.41,2.18,5.671,5.671,0,0,0,.41,2.19,3.453,3.453,0,0,0,1.26,1.57,4.286,4.286,0,0,0,4.39-.05,2.568,2.568,0,0,0,1.06-1.49h1.4a3.956,3.956,0,0,1-.84,1.83,4.239,4.239,0,0,1-1.62,1.19A5.64,5.64,0,0,1,129.38,44.34Zm11.1-.04a4.88,4.88,0,0,1-3.14-.89,2.97,2.97,0,0,1-1.12-2.39h1.4a2.029,2.029,0,0,0,.69,1.38,3.092,3.092,0,0,0,2.17.62,3.273,3.273,0,0,0,2.13-.59,1.8,1.8,0,0,0,.71-1.43,1.41,1.41,0,0,0-.59-1.21,3.54,3.54,0,0,0-1.71-.55l-1.2-.12a4.344,4.344,0,0,1-2.33-.89,2.458,2.458,0,0,1-.89-2.01,2.829,2.829,0,0,1,.48-1.64,3.154,3.154,0,0,1,1.35-1.09,4.977,4.977,0,0,1,2.05-.39,4.505,4.505,0,0,1,2.77.8,2.727,2.727,0,0,1,1.09,2.28h-1.4a1.67,1.67,0,0,0-.64-1.28,2.769,2.769,0,0,0-1.82-.52,2.725,2.725,0,0,0-1.85.54,1.7,1.7,0,0,0-.61,1.32,1.428,1.428,0,0,0,.46,1.09,2.433,2.433,0,0,0,1.44.53l1.2.12a5.355,5.355,0,0,1,2.61.92,2.469,2.469,0,0,1,1.01,2.12,2.858,2.858,0,0,1-.53,1.69,3.479,3.479,0,0,1-1.49,1.17A5.549,5.549,0,0,1,140.48,44.3Zm16.64.04a5.705,5.705,0,0,1-2.39-.47,5.218,5.218,0,0,1-1.74-1.26,5.659,5.659,0,0,1-1.45-3.77v-.28a5.568,5.568,0,0,1,.38-2.01,5.484,5.484,0,0,1,1.1-1.77,5.4,5.4,0,0,1,1.75-1.25,6.16,6.16,0,0,1,4.72,0,5.4,5.4,0,0,1,1.75,1.25,5.344,5.344,0,0,1,1.09,1.77,5.7,5.7,0,0,1,.37,2.01v.28a5.758,5.758,0,0,1-.36,2,5.426,5.426,0,0,1-1.07,1.77,5.193,5.193,0,0,1-1.75,1.26A5.774,5.774,0,0,1,157.12,44.34Zm0-1.34a4.014,4.014,0,0,0,2.23-.59,3.876,3.876,0,0,0,1.39-1.56,5.053,5.053,0,0,0-.01-4.32,3.785,3.785,0,0,0-1.41-1.54,4.492,4.492,0,0,0-4.38,0,3.785,3.785,0,0,0-1.41,1.54,5.053,5.053,0,0,0-.01,4.32,3.876,3.876,0,0,0,1.39,1.56A3.976,3.976,0,0,0,157.12,43Zm8.64,1V33.42h1.2v4.44h-.24a6.612,6.612,0,0,1,.44-2.54,3.521,3.521,0,0,1,1.32-1.64,3.955,3.955,0,0,1,2.22-.58h.06a3.553,3.553,0,0,1,2.98,1.25,5.566,5.566,0,0,1,.98,3.51V44h-1.48V37.54a3.182,3.182,0,0,0-.76-2.22,2.713,2.713,0,0,0-2.12-.84,3,3,0,0,0-2.25.87,3.137,3.137,0,0,0-.85,2.29V44Zm12.8,0V29.4h1.5V44Zm-1.54-13.38V29.4h3.04v1.22ZM184.5,44V33.42h1.48V44Zm-1.7-9.38v-1.2h3.18v1.2Zm2.02-3.16a1.055,1.055,0,0,1-.81-.29,1.122,1.122,0,0,1,0-1.46,1.055,1.055,0,0,1,.81-.29,1.021,1.021,0,0,1,.8.29,1.155,1.155,0,0,1,0,1.46A1.021,1.021,0,0,1,184.82,31.46ZM189.92,44V33.42h1.2v4.44h-.24a6.612,6.612,0,0,1,.44-2.54,3.521,3.521,0,0,1,1.32-1.64,3.955,3.955,0,0,1,2.22-.58h.06a3.553,3.553,0,0,1,2.98,1.25,5.566,5.566,0,0,1,.98,3.51V44H197.4V37.54a3.182,3.182,0,0,0-.76-2.22,2.713,2.713,0,0,0-2.12-.84,3,3,0,0,0-2.25.87,3.137,3.137,0,0,0-.85,2.29V44Zm17.12.34a5.5,5.5,0,0,1-2.36-.47,4.577,4.577,0,0,1-1.64-1.26,5.349,5.349,0,0,1-.95-1.77,6.658,6.658,0,0,1-.31-2.02v-.28a6.593,6.593,0,0,1,.31-2,5.238,5.238,0,0,1,.95-1.76,4.7,4.7,0,0,1,1.61-1.25,5.151,5.151,0,0,1,2.27-.47,4.888,4.888,0,0,1,2.77.74,4.737,4.737,0,0,1,1.67,1.89,5.567,5.567,0,0,1,.56,2.47v.78h-9.46V37.78h8.42l-.38.58a4.9,4.9,0,0,0-.41-2.07,3.239,3.239,0,0,0-1.2-1.4,3.562,3.562,0,0,0-1.97-.51,3.48,3.48,0,0,0-2.06.58,3.553,3.553,0,0,0-1.23,1.54,5.5,5.5,0,0,0-.41,2.18,5.671,5.671,0,0,0,.41,2.19,3.453,3.453,0,0,0,1.26,1.57,4.286,4.286,0,0,0,4.39-.05,2.568,2.568,0,0,0,1.06-1.49h1.4a3.956,3.956,0,0,1-.84,1.83,4.239,4.239,0,0,1-1.62,1.19A5.64,5.64,0,0,1,207.04,44.34Zm7.32-.34V42.02h1.88V44Z" transform="translate(14258 3287)" fill="#262626"/>
    <path id="Path_876" data-name="Path 876" d="M44.76,19.34a5.705,5.705,0,0,1-2.39-.47,5.218,5.218,0,0,1-1.74-1.26,5.659,5.659,0,0,1-1.45-3.77v-.28a5.568,5.568,0,0,1,.38-2.01,5.484,5.484,0,0,1,1.1-1.77,5.4,5.4,0,0,1,1.75-1.25,6.16,6.16,0,0,1,4.72,0,5.4,5.4,0,0,1,1.75,1.25,5.345,5.345,0,0,1,1.09,1.77,5.7,5.7,0,0,1,.37,2.01v.28a5.758,5.758,0,0,1-.36,2,5.426,5.426,0,0,1-1.07,1.77,5.193,5.193,0,0,1-1.75,1.26A5.774,5.774,0,0,1,44.76,19.34Zm0-1.34a4.014,4.014,0,0,0,2.23-.59,3.876,3.876,0,0,0,1.39-1.56,5.053,5.053,0,0,0-.01-4.32,3.785,3.785,0,0,0-1.41-1.54,4.492,4.492,0,0,0-4.38,0,3.785,3.785,0,0,0-1.41,1.54,5.053,5.053,0,0,0-.01,4.32,3.876,3.876,0,0,0,1.39,1.56A3.976,3.976,0,0,0,44.76,18Zm8.94,1V7.6a3.207,3.207,0,0,1,.86-2.46,3.669,3.669,0,0,1,2.58-.8h1.34V5.62H56.86a1.734,1.734,0,0,0-1.28.44,1.677,1.677,0,0,0-.44,1.24V19ZM52.16,9.66V8.5H58.7V9.66ZM65.56,23V8.42h1.2v4.54L66.4,13a6.149,6.149,0,0,1,.69-2.7,4.128,4.128,0,0,1,1.66-1.67,5.149,5.149,0,0,1,4.46-.12,4.9,4.9,0,0,1,1.62,1.22,5.392,5.392,0,0,1,1.02,1.76,6.164,6.164,0,0,1,.35,2.07v.28a6.01,6.01,0,0,1-.36,2.07,5.538,5.538,0,0,1-1.03,1.76,4.847,4.847,0,0,1-3.75,1.67,4.763,4.763,0,0,1-2.31-.57,4.357,4.357,0,0,1-1.7-1.69,5.859,5.859,0,0,1-.71-2.76l.72,1.5V23Zm5.3-4.98a3.643,3.643,0,0,0,2.06-.57,3.692,3.692,0,0,0,1.32-1.56,5.134,5.134,0,0,0,.46-2.19,5.006,5.006,0,0,0-.47-2.21A3.788,3.788,0,0,0,72.9,9.95a3.607,3.607,0,0,0-2.04-.57,4.025,4.025,0,0,0-1.96.48,3.56,3.56,0,0,0-1.39,1.35A3.981,3.981,0,0,0,67,13.26v.98a3.754,3.754,0,0,0,.51,1.97,3.6,3.6,0,0,0,1.39,1.33A4.025,4.025,0,0,0,70.86,18.02Zm12.8,1.32a5.5,5.5,0,0,1-2.36-.47,4.578,4.578,0,0,1-1.64-1.26,5.349,5.349,0,0,1-.95-1.77,6.658,6.658,0,0,1-.31-2.02v-.28a6.593,6.593,0,0,1,.31-2,5.238,5.238,0,0,1,.95-1.76,4.7,4.7,0,0,1,1.61-1.25,5.151,5.151,0,0,1,2.27-.47,4.888,4.888,0,0,1,2.77.74,4.737,4.737,0,0,1,1.67,1.89,5.567,5.567,0,0,1,.56,2.47v.78H79.08V12.78H87.5l-.38.58a4.9,4.9,0,0,0-.41-2.07,3.239,3.239,0,0,0-1.2-1.4,3.562,3.562,0,0,0-1.97-.51,3.48,3.48,0,0,0-2.06.58,3.553,3.553,0,0,0-1.23,1.54,5.5,5.5,0,0,0-.41,2.18,5.671,5.671,0,0,0,.41,2.19,3.453,3.453,0,0,0,1.26,1.57,4.286,4.286,0,0,0,4.39-.05,2.568,2.568,0,0,0,1.06-1.49h1.4a3.956,3.956,0,0,1-.84,1.83,4.239,4.239,0,0,1-1.62,1.19A5.64,5.64,0,0,1,83.66,19.34Zm12.5,0a5.705,5.705,0,0,1-2.39-.47,5.218,5.218,0,0,1-1.74-1.26,5.659,5.659,0,0,1-1.45-3.77v-.28a5.568,5.568,0,0,1,.38-2.01,5.484,5.484,0,0,1,1.1-1.77,5.4,5.4,0,0,1,1.75-1.25,6.16,6.16,0,0,1,4.72,0,5.4,5.4,0,0,1,1.75,1.25,5.345,5.345,0,0,1,1.09,1.77,5.7,5.7,0,0,1,.37,2.01v.28a5.758,5.758,0,0,1-.36,2,5.426,5.426,0,0,1-1.07,1.77,5.193,5.193,0,0,1-1.75,1.26A5.774,5.774,0,0,1,96.16,19.34Zm0-1.34a4.014,4.014,0,0,0,2.23-.59,3.876,3.876,0,0,0,1.39-1.56,5.053,5.053,0,0,0-.01-4.32,3.785,3.785,0,0,0-1.41-1.54,4.492,4.492,0,0,0-4.38,0,3.785,3.785,0,0,0-1.41,1.54,5.053,5.053,0,0,0-.01,4.32,3.876,3.876,0,0,0,1.39,1.56A3.976,3.976,0,0,0,96.16,18Zm8.64,5V8.42H106v4.54l-.36.04a6.149,6.149,0,0,1,.69-2.7,4.128,4.128,0,0,1,1.66-1.67,5.149,5.149,0,0,1,4.46-.12,4.9,4.9,0,0,1,1.62,1.22,5.392,5.392,0,0,1,1.02,1.76,6.164,6.164,0,0,1,.35,2.07v.28a6.01,6.01,0,0,1-.36,2.07,5.538,5.538,0,0,1-1.03,1.76,4.847,4.847,0,0,1-3.75,1.67,4.763,4.763,0,0,1-2.31-.57,4.357,4.357,0,0,1-1.7-1.69,5.859,5.859,0,0,1-.71-2.76l.72,1.5V23Zm5.3-4.98a3.643,3.643,0,0,0,2.06-.57,3.692,3.692,0,0,0,1.32-1.56,5.134,5.134,0,0,0,.46-2.19,5.006,5.006,0,0,0-.47-2.21,3.788,3.788,0,0,0-1.33-1.54,3.607,3.607,0,0,0-2.04-.57,4.025,4.025,0,0,0-1.96.48,3.56,3.56,0,0,0-1.39,1.35,3.981,3.981,0,0,0-.51,2.05v.98a3.754,3.754,0,0,0,.51,1.97,3.6,3.6,0,0,0,1.39,1.33A4.025,4.025,0,0,0,110.1,18.02Zm8.48.98V4.4h1.5V19ZM117.04,5.62V4.4h3.04V5.62Zm11.34,13.72a5.5,5.5,0,0,1-2.36-.47,4.578,4.578,0,0,1-1.64-1.26,5.349,5.349,0,0,1-.95-1.77,6.658,6.658,0,0,1-.31-2.02v-.28a6.593,6.593,0,0,1,.31-2,5.238,5.238,0,0,1,.95-1.76,4.7,4.7,0,0,1,1.61-1.25,5.151,5.151,0,0,1,2.27-.47,4.888,4.888,0,0,1,2.77.74,4.737,4.737,0,0,1,1.67,1.89,5.567,5.567,0,0,1,.56,2.47v.78H123.8V12.78h8.42l-.38.58a4.9,4.9,0,0,0-.41-2.07,3.239,3.239,0,0,0-1.2-1.4,3.562,3.562,0,0,0-1.97-.51,3.48,3.48,0,0,0-2.06.58,3.553,3.553,0,0,0-1.23,1.54,5.5,5.5,0,0,0-.41,2.18,5.671,5.671,0,0,0,.41,2.19,3.453,3.453,0,0,0,1.26,1.57,4.286,4.286,0,0,0,4.39-.05,2.568,2.568,0,0,0,1.06-1.49h1.4a3.956,3.956,0,0,1-.84,1.83,4.239,4.239,0,0,1-1.62,1.19A5.64,5.64,0,0,1,128.38,19.34ZM141.1,19V7.6a3.207,3.207,0,0,1,.86-2.46,3.669,3.669,0,0,1,2.58-.8h1.34V5.62h-1.62a1.734,1.734,0,0,0-1.28.44,1.677,1.677,0,0,0-.44,1.24V19Zm-1.54-9.34V8.5h6.54V9.66ZM154.66,19V15.82h-.24V12.06a2.473,2.473,0,0,0-.62-1.81,2.591,2.591,0,0,0-1.92-.63q-.6,0-1.21.02t-1.16.05q-.55.03-.97.07V8.44l.9-.08q.46-.04.95-.05t.95-.01a7.085,7.085,0,0,1,2.61.4,2.752,2.752,0,0,1,1.45,1.25,4.729,4.729,0,0,1,.46,2.25V19Zm-3.58.28a4.646,4.646,0,0,1-1.98-.4,3.017,3.017,0,0,1-1.33-1.16,3.432,3.432,0,0,1-.47-1.84,3.188,3.188,0,0,1,.49-1.8,3.071,3.071,0,0,1,1.42-1.13,5.812,5.812,0,0,1,2.25-.39h3.1V13.7h-3.2a2.77,2.77,0,0,0-1.93.61,2.05,2.05,0,0,0-.67,1.59,1.972,1.972,0,0,0,.7,1.59,2.855,2.855,0,0,0,1.9.59,3.813,3.813,0,0,0,1.42-.27,2.526,2.526,0,0,0,1.14-.92,3.258,3.258,0,0,0,.5-1.79l.44.62a4.312,4.312,0,0,1-.56,1.97,3.067,3.067,0,0,1-1.3,1.19A4.332,4.332,0,0,1,151.08,19.28Zm12.98.06a5.382,5.382,0,0,1-2.33-.47,4.688,4.688,0,0,1-1.65-1.28,5.685,5.685,0,0,1-.99-1.79,6.168,6.168,0,0,1-.33-1.98v-.28a6.138,6.138,0,0,1,.33-1.99,5.471,5.471,0,0,1,.99-1.76,4.8,4.8,0,0,1,1.65-1.26,5.282,5.282,0,0,1,2.29-.47,5.5,5.5,0,0,1,2.35.48,4.237,4.237,0,0,1,1.67,1.36,4.17,4.17,0,0,1,.76,2.08h-1.44a2.977,2.977,0,0,0-1.03-1.83,3.428,3.428,0,0,0-2.31-.73,3.609,3.609,0,0,0-2.09.57,3.519,3.519,0,0,0-1.25,1.54,5.355,5.355,0,0,0-.42,2.15,5.448,5.448,0,0,0,.42,2.15A3.427,3.427,0,0,0,164.06,18a3.916,3.916,0,0,0,1.71-.35,3.144,3.144,0,0,0,1.18-.95,2.655,2.655,0,0,0,.53-1.32h1.44a3.816,3.816,0,0,1-.75,2.09,4.474,4.474,0,0,1-1.73,1.38A5.607,5.607,0,0,1,164.06,19.34Zm12.04,0a5.5,5.5,0,0,1-2.36-.47,4.578,4.578,0,0,1-1.64-1.26,5.349,5.349,0,0,1-.95-1.77,6.658,6.658,0,0,1-.31-2.02v-.28a6.594,6.594,0,0,1,.31-2,5.238,5.238,0,0,1,.95-1.76,4.7,4.7,0,0,1,1.61-1.25,5.151,5.151,0,0,1,2.27-.47,4.888,4.888,0,0,1,2.77.74,4.737,4.737,0,0,1,1.67,1.89,5.567,5.567,0,0,1,.56,2.47v.78h-9.46V12.78h8.42l-.38.58a4.9,4.9,0,0,0-.41-2.07,3.239,3.239,0,0,0-1.2-1.4,3.562,3.562,0,0,0-1.97-.51,3.48,3.48,0,0,0-2.06.58,3.553,3.553,0,0,0-1.23,1.54,5.5,5.5,0,0,0-.41,2.18,5.671,5.671,0,0,0,.41,2.19,3.453,3.453,0,0,0,1.26,1.57,4.286,4.286,0,0,0,4.39-.05,2.568,2.568,0,0,0,1.06-1.49h1.4a3.956,3.956,0,0,1-.84,1.83,4.239,4.239,0,0,1-1.62,1.19A5.64,5.64,0,0,1,176.1,19.34Zm-124.81,25a5.059,5.059,0,0,1-2.11-.43,4.879,4.879,0,0,1-1.64-1.2,5.493,5.493,0,0,1-1.06-1.76,5.978,5.978,0,0,1-.37-2.11v-.28a6.01,6.01,0,0,1,.36-2.07,5.538,5.538,0,0,1,1.03-1.76,4.847,4.847,0,0,1,3.75-1.67,4.691,4.691,0,0,1,2.36.58,4.341,4.341,0,0,1,1.64,1.67,5.622,5.622,0,0,1,.66,2.67l-.66-1.24V29.4h1.5V44h-1.2V39.3h.48a5.808,5.808,0,0,1-.69,2.79,4.27,4.27,0,0,1-1.7,1.69A4.914,4.914,0,0,1,51.29,44.34Zm.2-1.32a3.968,3.968,0,0,0,1.95-.48,3.472,3.472,0,0,0,1.37-1.37,4.114,4.114,0,0,0,.5-2.05v-.96a3.813,3.813,0,0,0-.5-1.97,3.549,3.549,0,0,0-1.37-1.33,4.009,4.009,0,0,0-1.97-.48,3.656,3.656,0,0,0-2.05.57,3.749,3.749,0,0,0-1.34,1.55,5.425,5.425,0,0,0,.01,4.44,3.656,3.656,0,0,0,1.36,1.53A3.768,3.768,0,0,0,51.49,43.02Zm9.7.98V33.42h1.48V44Zm-1.7-9.38v-1.2h3.18v1.2Zm2.02-3.16a1.054,1.054,0,0,1-.81-.29,1.122,1.122,0,0,1,0-1.46,1.054,1.054,0,0,1,.81-.29,1.021,1.021,0,0,1,.8.29,1.155,1.155,0,0,1,0,1.46A1.021,1.021,0,0,1,61.51,31.46ZM66.91,44V32.4a3.207,3.207,0,0,1,.86-2.46,3.669,3.669,0,0,1,2.58-.8h1.14v1.28H70.07a1.734,1.734,0,0,0-1.28.44,1.677,1.677,0,0,0-.44,1.24V44Zm6.78,0V32.52a3.207,3.207,0,0,1,.86-2.46,3.669,3.669,0,0,1,2.58-.8h1.2v1.28H76.85a1.734,1.734,0,0,0-1.28.44,1.677,1.677,0,0,0-.44,1.24V44Zm7.36,0V33.42h1.48V44ZM65.37,34.56V33.42H78.29v1.14Zm14.04.06v-1.2h3.12v1.2Zm1.96-3.16a1.054,1.054,0,0,1-.81-.29,1.122,1.122,0,0,1,0-1.46,1.054,1.054,0,0,1,.81-.29,1.021,1.021,0,0,1,.8.29,1.155,1.155,0,0,1,0,1.46A1.021,1.021,0,0,1,81.37,31.46Zm9.56,12.88a5.383,5.383,0,0,1-2.33-.47,4.688,4.688,0,0,1-1.65-1.28,5.685,5.685,0,0,1-.99-1.79,6.168,6.168,0,0,1-.33-1.98v-.28a6.138,6.138,0,0,1,.33-1.99,5.471,5.471,0,0,1,.99-1.76,4.8,4.8,0,0,1,1.65-1.26,5.282,5.282,0,0,1,2.29-.47,5.5,5.5,0,0,1,2.35.48,4.237,4.237,0,0,1,1.67,1.36,4.17,4.17,0,0,1,.76,2.08H94.23a2.977,2.977,0,0,0-1.03-1.83,3.428,3.428,0,0,0-2.31-.73,3.609,3.609,0,0,0-2.09.57,3.519,3.519,0,0,0-1.25,1.54,5.355,5.355,0,0,0-.42,2.15,5.448,5.448,0,0,0,.42,2.15A3.427,3.427,0,0,0,90.93,43a3.916,3.916,0,0,0,1.71-.35,3.144,3.144,0,0,0,1.18-.95,2.655,2.655,0,0,0,.53-1.32h1.44a3.816,3.816,0,0,1-.75,2.09,4.474,4.474,0,0,1-1.73,1.38A5.607,5.607,0,0,1,90.93,44.34Zm11.28-.04a3.52,3.52,0,0,1-2.9-1.23,5.3,5.3,0,0,1-1-3.43V33.4h1.48v6.54a3.149,3.149,0,0,0,.73,2.19,2.593,2.593,0,0,0,2.03.81,2.839,2.839,0,0,0,2.17-.86,3.218,3.218,0,0,0,.81-2.3V33.4h1.5V44h-1.2V39.58h.24a6.813,6.813,0,0,1-.42,2.53,3.438,3.438,0,0,1-1.26,1.62,3.694,3.694,0,0,1-2.12.57Zm8.84-.3V29.4h1.5V44Zm-1.54-13.38V29.4h3.04v1.22Zm10.76,13.5a5.106,5.106,0,0,1-1.9-.32,2.439,2.439,0,0,1-1.24-1.09,4.169,4.169,0,0,1-.44-2.07V30.08h1.44V40.86a1.886,1.886,0,0,0,.5,1.41,1.944,1.944,0,0,0,1.42.49h1.9v1.36Zm-5.48-9.56V33.42h7.16v1.14ZM125.41,44V33.42h1.48V44Zm-1.7-9.38v-1.2h3.18v1.2Zm2.02-3.16a1.054,1.054,0,0,1-.81-.29,1.122,1.122,0,0,1,0-1.46,1.054,1.054,0,0,1,.81-.29,1.021,1.021,0,0,1,.8.29,1.155,1.155,0,0,1,0,1.46A1.021,1.021,0,0,1,125.73,31.46Zm9.52,12.88a5.5,5.5,0,0,1-2.36-.47,4.577,4.577,0,0,1-1.64-1.26,5.349,5.349,0,0,1-.95-1.77,6.658,6.658,0,0,1-.31-2.02v-.28a6.593,6.593,0,0,1,.31-2,5.238,5.238,0,0,1,.95-1.76,4.7,4.7,0,0,1,1.61-1.25,5.151,5.151,0,0,1,2.27-.47,4.888,4.888,0,0,1,2.77.74,4.737,4.737,0,0,1,1.67,1.89,5.567,5.567,0,0,1,.56,2.47v.78h-9.46V37.78h8.42l-.38.58a4.9,4.9,0,0,0-.41-2.07,3.239,3.239,0,0,0-1.2-1.4,3.562,3.562,0,0,0-1.97-.51,3.48,3.48,0,0,0-2.06.58,3.553,3.553,0,0,0-1.23,1.54,5.5,5.5,0,0,0-.41,2.18,5.671,5.671,0,0,0,.41,2.19,3.453,3.453,0,0,0,1.26,1.57,4.286,4.286,0,0,0,4.39-.05,2.568,2.568,0,0,0,1.06-1.49h1.4a3.956,3.956,0,0,1-.84,1.83,4.239,4.239,0,0,1-1.62,1.19A5.64,5.64,0,0,1,135.25,44.34Zm11.1-.04a4.88,4.88,0,0,1-3.14-.89,2.97,2.97,0,0,1-1.12-2.39h1.4a2.029,2.029,0,0,0,.69,1.38,3.092,3.092,0,0,0,2.17.62,3.273,3.273,0,0,0,2.13-.59,1.8,1.8,0,0,0,.71-1.43,1.41,1.41,0,0,0-.59-1.21,3.54,3.54,0,0,0-1.71-.55l-1.2-.12a4.344,4.344,0,0,1-2.33-.89,2.458,2.458,0,0,1-.89-2.01,2.829,2.829,0,0,1,.48-1.64,3.154,3.154,0,0,1,1.35-1.09,4.977,4.977,0,0,1,2.05-.39,4.505,4.505,0,0,1,2.77.8,2.727,2.727,0,0,1,1.09,2.28h-1.4a1.67,1.67,0,0,0-.64-1.28,2.769,2.769,0,0,0-1.82-.52,2.725,2.725,0,0,0-1.85.54,1.7,1.7,0,0,0-.61,1.32,1.428,1.428,0,0,0,.46,1.09,2.433,2.433,0,0,0,1.44.53l1.2.12a5.355,5.355,0,0,1,2.61.92,2.469,2.469,0,0,1,1.01,2.12,2.858,2.858,0,0,1-.53,1.69,3.479,3.479,0,0,1-1.49,1.17A5.549,5.549,0,0,1,146.35,44.3Zm12.46-.3V33.42h1.48V44Zm-1.7-9.38v-1.2h3.18v1.2Zm2.02-3.16a1.055,1.055,0,0,1-.81-.29,1.122,1.122,0,0,1,0-1.46,1.055,1.055,0,0,1,.81-.29,1.021,1.021,0,0,1,.8.29,1.155,1.155,0,0,1,0,1.46A1.021,1.021,0,0,1,159.13,31.46ZM164.23,44V33.42h1.2v4.44h-.24a6.612,6.612,0,0,1,.44-2.54,3.521,3.521,0,0,1,1.32-1.64,3.955,3.955,0,0,1,2.22-.58h.06a3.553,3.553,0,0,1,2.98,1.25,5.566,5.566,0,0,1,.98,3.51V44h-1.48V37.54a3.182,3.182,0,0,0-.76-2.22,2.713,2.713,0,0,0-2.12-.84,3,3,0,0,0-2.25.87,3.137,3.137,0,0,0-.85,2.29V44ZM6.3,69.3a3.52,3.52,0,0,1-2.9-1.23,5.3,5.3,0,0,1-1-3.43V58.4H3.88v6.54a3.149,3.149,0,0,0,.73,2.19,2.593,2.593,0,0,0,2.03.81,2.839,2.839,0,0,0,2.17-.86,3.218,3.218,0,0,0,.81-2.3V58.4h1.5V69H9.92V64.58h.24a6.813,6.813,0,0,1-.42,2.53,3.438,3.438,0,0,1-1.26,1.62,3.7,3.7,0,0,1-2.12.57Zm8.74-.3V58.42h1.2v4.44H16a6.612,6.612,0,0,1,.44-2.54,3.521,3.521,0,0,1,1.32-1.64,3.955,3.955,0,0,1,2.22-.58h.06a3.553,3.553,0,0,1,2.98,1.25A5.566,5.566,0,0,1,24,62.86V69H22.52V62.54a3.182,3.182,0,0,0-.76-2.22,2.713,2.713,0,0,0-2.12-.84,3,3,0,0,0-2.25.87,3.137,3.137,0,0,0-.85,2.29V69Zm17.04.34a5.059,5.059,0,0,1-2.11-.43,4.879,4.879,0,0,1-1.64-1.2,5.493,5.493,0,0,1-1.06-1.76,5.978,5.978,0,0,1-.37-2.11v-.28a6.01,6.01,0,0,1,.36-2.07,5.538,5.538,0,0,1,1.03-1.76,4.847,4.847,0,0,1,3.75-1.67,4.691,4.691,0,0,1,2.36.58,4.341,4.341,0,0,1,1.64,1.67,5.622,5.622,0,0,1,.66,2.67l-.66-1.24V54.4h1.5V69h-1.2V64.3h.48a5.808,5.808,0,0,1-.69,2.79,4.27,4.27,0,0,1-1.7,1.69A4.914,4.914,0,0,1,32.08,69.34Zm.2-1.32a3.968,3.968,0,0,0,1.95-.48,3.472,3.472,0,0,0,1.37-1.37,4.114,4.114,0,0,0,.5-2.05v-.96a3.813,3.813,0,0,0-.5-1.97,3.549,3.549,0,0,0-1.37-1.33,4.009,4.009,0,0,0-1.97-.48,3.656,3.656,0,0,0-2.05.57,3.749,3.749,0,0,0-1.34,1.55,5.425,5.425,0,0,0,.01,4.44,3.656,3.656,0,0,0,1.36,1.53A3.768,3.768,0,0,0,32.28,68.02Zm13.56,1.32a5.5,5.5,0,0,1-2.36-.47,4.578,4.578,0,0,1-1.64-1.26,5.349,5.349,0,0,1-.95-1.77,6.658,6.658,0,0,1-.31-2.02v-.28a6.593,6.593,0,0,1,.31-2,5.238,5.238,0,0,1,.95-1.76,4.7,4.7,0,0,1,1.61-1.25,5.151,5.151,0,0,1,2.27-.47,4.888,4.888,0,0,1,2.77.74,4.737,4.737,0,0,1,1.67,1.89,5.567,5.567,0,0,1,.56,2.47v.78H41.26V62.78h8.42l-.38.58a4.9,4.9,0,0,0-.41-2.07,3.239,3.239,0,0,0-1.2-1.4,3.562,3.562,0,0,0-1.97-.51,3.48,3.48,0,0,0-2.06.58,3.553,3.553,0,0,0-1.23,1.54,5.5,5.5,0,0,0-.41,2.18,5.671,5.671,0,0,0,.41,2.19,3.453,3.453,0,0,0,1.26,1.57,4.286,4.286,0,0,0,4.39-.05,2.568,2.568,0,0,0,1.06-1.49h1.4a3.956,3.956,0,0,1-.84,1.83,4.239,4.239,0,0,1-1.62,1.19A5.64,5.64,0,0,1,45.84,69.34ZM53.6,69V58.42h1.2v4.42h-.12a4.94,4.94,0,0,1,1.02-3.43,4.15,4.15,0,0,1,3.2-1.11h.34v1.36h-.62a3.573,3.573,0,0,0-2.62.89,3.514,3.514,0,0,0-.9,2.61V69Zm11.4.3a4.88,4.88,0,0,1-3.14-.89,2.97,2.97,0,0,1-1.12-2.39h1.4a2.029,2.029,0,0,0,.69,1.38,3.092,3.092,0,0,0,2.17.62,3.273,3.273,0,0,0,2.13-.59A1.8,1.8,0,0,0,67.84,66a1.41,1.41,0,0,0-.59-1.21,3.54,3.54,0,0,0-1.71-.55l-1.2-.12a4.344,4.344,0,0,1-2.33-.89,2.458,2.458,0,0,1-.89-2.01,2.829,2.829,0,0,1,.48-1.64,3.154,3.154,0,0,1,1.35-1.09A4.977,4.977,0,0,1,65,58.1a4.505,4.505,0,0,1,2.77.8,2.727,2.727,0,0,1,1.09,2.28h-1.4a1.67,1.67,0,0,0-.64-1.28A2.769,2.769,0,0,0,65,59.38a2.725,2.725,0,0,0-1.85.54,1.7,1.7,0,0,0-.61,1.32A1.428,1.428,0,0,0,63,62.33a2.433,2.433,0,0,0,1.44.53l1.2.12a5.355,5.355,0,0,1,2.61.92,2.469,2.469,0,0,1,1.01,2.12,2.858,2.858,0,0,1-.53,1.69,3.479,3.479,0,0,1-1.49,1.17A5.549,5.549,0,0,1,65,69.3Zm11.08-.18a5.106,5.106,0,0,1-1.9-.32,2.439,2.439,0,0,1-1.24-1.09,4.169,4.169,0,0,1-.44-2.07V55.08h1.44V65.86a1.886,1.886,0,0,0,.5,1.41,1.944,1.944,0,0,0,1.42.49h1.9v1.36ZM70.6,59.56V58.42h7.16v1.14ZM87.06,69V65.82h-.24V62.06a2.473,2.473,0,0,0-.62-1.81,2.591,2.591,0,0,0-1.92-.63q-.6,0-1.21.02t-1.16.05q-.55.03-.97.07V58.44l.9-.08q.46-.04.95-.05t.95-.01a7.085,7.085,0,0,1,2.61.4,2.752,2.752,0,0,1,1.45,1.25,4.729,4.729,0,0,1,.46,2.25V69Zm-3.58.28a4.646,4.646,0,0,1-1.98-.4,3.016,3.016,0,0,1-1.33-1.16,3.432,3.432,0,0,1-.47-1.84,3.187,3.187,0,0,1,.49-1.8,3.071,3.071,0,0,1,1.42-1.13,5.812,5.812,0,0,1,2.25-.39h3.1V63.7h-3.2a2.77,2.77,0,0,0-1.93.61,2.05,2.05,0,0,0-.67,1.59,1.972,1.972,0,0,0,.7,1.59,2.854,2.854,0,0,0,1.9.59,3.813,3.813,0,0,0,1.42-.27,2.526,2.526,0,0,0,1.14-.92,3.258,3.258,0,0,0,.5-1.79l.44.62a4.312,4.312,0,0,1-.56,1.97,3.067,3.067,0,0,1-1.3,1.19A4.332,4.332,0,0,1,83.48,69.28ZM92,69V58.42h1.2v4.44h-.24a6.612,6.612,0,0,1,.44-2.54,3.521,3.521,0,0,1,1.32-1.64,3.955,3.955,0,0,1,2.22-.58H97a3.553,3.553,0,0,1,2.98,1.25,5.566,5.566,0,0,1,.98,3.51V69H99.48V62.54a3.182,3.182,0,0,0-.76-2.22,2.713,2.713,0,0,0-2.12-.84,3,3,0,0,0-2.25.87,3.137,3.137,0,0,0-.85,2.29V69Zm17.04.34a5.059,5.059,0,0,1-2.11-.43,4.879,4.879,0,0,1-1.64-1.2,5.493,5.493,0,0,1-1.06-1.76,5.978,5.978,0,0,1-.37-2.11v-.28a6.01,6.01,0,0,1,.36-2.07,5.538,5.538,0,0,1,1.03-1.76A4.847,4.847,0,0,1,109,58.06a4.691,4.691,0,0,1,2.36.58A4.341,4.341,0,0,1,113,60.31a5.622,5.622,0,0,1,.66,2.67L113,61.74V54.4h1.5V69h-1.2V64.3h.48a5.808,5.808,0,0,1-.69,2.79,4.27,4.27,0,0,1-1.7,1.69A4.914,4.914,0,0,1,109.04,69.34Zm.2-1.32a3.968,3.968,0,0,0,1.95-.48,3.472,3.472,0,0,0,1.37-1.37,4.114,4.114,0,0,0,.5-2.05v-.96a3.813,3.813,0,0,0-.5-1.97,3.55,3.55,0,0,0-1.37-1.33,4.009,4.009,0,0,0-1.97-.48,3.656,3.656,0,0,0-2.05.57,3.749,3.749,0,0,0-1.34,1.55,5.425,5.425,0,0,0,.01,4.44,3.656,3.656,0,0,0,1.36,1.53A3.768,3.768,0,0,0,109.24,68.02Zm9.7.98V58.42h1.48V69Zm-1.7-9.38v-1.2h3.18v1.2Zm2.02-3.16a1.054,1.054,0,0,1-.81-.29,1.122,1.122,0,0,1,0-1.46,1.054,1.054,0,0,1,.81-.29,1.021,1.021,0,0,1,.8.29,1.155,1.155,0,0,1,0,1.46A1.021,1.021,0,0,1,119.26,56.46ZM124.36,69V58.42h1.2v4.44h-.24a6.612,6.612,0,0,1,.44-2.54,3.521,3.521,0,0,1,1.32-1.64,3.955,3.955,0,0,1,2.22-.58h.06a3.553,3.553,0,0,1,2.98,1.25,5.566,5.566,0,0,1,.98,3.51V69h-1.48V62.54a3.182,3.182,0,0,0-.76-2.22,2.713,2.713,0,0,0-2.12-.84,3,3,0,0,0-2.25.87,3.137,3.137,0,0,0-.85,2.29V69Zm16.74,4.14q-.74,0-1.49-.07t-1.43-.17V71.62q.72.1,1.51.17t1.49.07a6.056,6.056,0,0,0,2.42-.4,2.452,2.452,0,0,0,1.29-1.27,5.66,5.66,0,0,0,.39-2.29V65.78l.56-1.48a5.653,5.653,0,0,1-.64,2.61,4.2,4.2,0,0,1-1.62,1.67,4.61,4.61,0,0,1-2.32.58,4.7,4.7,0,0,1-3.66-1.65,5.667,5.667,0,0,1-1.02-1.75,5.926,5.926,0,0,1-.36-2.06v-.28a5.787,5.787,0,0,1,.36-2.03,5.446,5.446,0,0,1,1.02-1.72,4.691,4.691,0,0,1,1.61-1.18,5.059,5.059,0,0,1,2.11-.43,4.675,4.675,0,0,1,2.44.62,4.357,4.357,0,0,1,1.63,1.72,5.715,5.715,0,0,1,.63,2.58l-.48-.26v-4.3h1.18v9.42a7.089,7.089,0,0,1-.56,3.06,3.458,3.458,0,0,1-1.79,1.7A8.252,8.252,0,0,1,141.1,73.14Zm.42-5.36a3.921,3.921,0,0,0,1.93-.47,3.5,3.5,0,0,0,1.35-1.33,3.907,3.907,0,0,0,.5-2V63a3.56,3.56,0,0,0-.51-1.92,3.6,3.6,0,0,0-1.35-1.28,3.932,3.932,0,0,0-1.92-.46,3.618,3.618,0,0,0-2.02.56,3.675,3.675,0,0,0-1.32,1.51,5.273,5.273,0,0,0,.01,4.33,3.593,3.593,0,0,0,1.33,1.5A3.681,3.681,0,0,0,141.52,67.78ZM155.24,69V54.4h1.5V69ZM153.7,55.62V54.4h3.04v1.22Zm11.34,13.72a5.5,5.5,0,0,1-2.36-.47,4.578,4.578,0,0,1-1.64-1.26,5.349,5.349,0,0,1-.95-1.77,6.658,6.658,0,0,1-.31-2.02v-.28a6.593,6.593,0,0,1,.31-2,5.238,5.238,0,0,1,.95-1.76,4.7,4.7,0,0,1,1.61-1.25,5.151,5.151,0,0,1,2.27-.47,4.888,4.888,0,0,1,2.77.74,4.737,4.737,0,0,1,1.67,1.89,5.567,5.567,0,0,1,.56,2.47v.78h-9.46V62.78h8.42l-.38.58a4.9,4.9,0,0,0-.41-2.07,3.239,3.239,0,0,0-1.2-1.4,3.562,3.562,0,0,0-1.97-.51,3.48,3.48,0,0,0-2.06.58,3.553,3.553,0,0,0-1.23,1.54,5.5,5.5,0,0,0-.41,2.18,5.671,5.671,0,0,0,.41,2.19,3.453,3.453,0,0,0,1.26,1.57,4.286,4.286,0,0,0,4.39-.05,2.568,2.568,0,0,0,1.06-1.49h1.4a3.956,3.956,0,0,1-.84,1.83,4.239,4.239,0,0,1-1.62,1.19A5.64,5.64,0,0,1,165.04,69.34Zm11.8,3.8q-.74,0-1.49-.07t-1.43-.17V71.62q.72.1,1.51.17t1.49.07a6.056,6.056,0,0,0,2.42-.4,2.452,2.452,0,0,0,1.29-1.27,5.66,5.66,0,0,0,.39-2.29V65.78l.56-1.48a5.653,5.653,0,0,1-.64,2.61,4.2,4.2,0,0,1-1.62,1.67,4.61,4.61,0,0,1-2.32.58,4.7,4.7,0,0,1-3.66-1.65,5.667,5.667,0,0,1-1.02-1.75,5.926,5.926,0,0,1-.36-2.06v-.28a5.787,5.787,0,0,1,.36-2.03,5.446,5.446,0,0,1,1.02-1.72,4.691,4.691,0,0,1,1.61-1.18,5.059,5.059,0,0,1,2.11-.43,4.675,4.675,0,0,1,2.44.62,4.357,4.357,0,0,1,1.63,1.72,5.715,5.715,0,0,1,.63,2.58l-.48-.26v-4.3h1.18v9.42a7.089,7.089,0,0,1-.56,3.06,3.458,3.458,0,0,1-1.79,1.7A8.252,8.252,0,0,1,176.84,73.14Zm.42-5.36a3.921,3.921,0,0,0,1.93-.47,3.5,3.5,0,0,0,1.35-1.33,3.907,3.907,0,0,0,.5-2V63a3.56,3.56,0,0,0-.51-1.92,3.6,3.6,0,0,0-1.35-1.28,3.932,3.932,0,0,0-1.92-.46,3.618,3.618,0,0,0-2.02.56,3.675,3.675,0,0,0-1.32,1.51,5.273,5.273,0,0,0,.01,4.33,3.593,3.593,0,0,0,1.33,1.5A3.681,3.681,0,0,0,177.26,67.78ZM192.66,69V65.82h-.24V62.06a2.473,2.473,0,0,0-.62-1.81,2.591,2.591,0,0,0-1.92-.63q-.6,0-1.21.02t-1.16.05q-.55.03-.97.07V58.44l.9-.08q.46-.04.95-.05t.95-.01a7.085,7.085,0,0,1,2.61.4,2.752,2.752,0,0,1,1.45,1.25,4.729,4.729,0,0,1,.46,2.25V69Zm-3.58.28a4.646,4.646,0,0,1-1.98-.4,3.016,3.016,0,0,1-1.33-1.16,3.432,3.432,0,0,1-.47-1.84,3.188,3.188,0,0,1,.49-1.8,3.071,3.071,0,0,1,1.42-1.13,5.812,5.812,0,0,1,2.25-.39h3.1V63.7h-3.2a2.77,2.77,0,0,0-1.93.61,2.05,2.05,0,0,0-.67,1.59,1.972,1.972,0,0,0,.7,1.59,2.855,2.855,0,0,0,1.9.59,3.813,3.813,0,0,0,1.42-.27,2.526,2.526,0,0,0,1.14-.92,3.258,3.258,0,0,0,.5-1.79l.44.62a4.312,4.312,0,0,1-.56,1.97,3.067,3.067,0,0,1-1.3,1.19A4.332,4.332,0,0,1,189.08,69.28ZM197.7,69V54.4h1.5V69Zm-1.54-13.38V54.4h3.04v1.22ZM216.62,69l-6.18-6.56a19.73,19.73,0,0,1-1.37-1.64,5.1,5.1,0,0,1-.73-1.35,4.372,4.372,0,0,1-.22-1.41,4.21,4.21,0,0,1,.47-2.08,2.945,2.945,0,0,1,1.49-1.27,6.869,6.869,0,0,1,2.64-.43q.7,0,1.5.06t1.5.14v1.32q-.44-.04-1.05-.09t-1.2-.08q-.59-.03-1.03-.03a3.133,3.133,0,0,0-2.22.64,2.446,2.446,0,0,0-.66,1.84,3.424,3.424,0,0,0,.44,1.73,9.874,9.874,0,0,0,1.38,1.77l7,7.44Zm-5.14.34a5.735,5.735,0,0,1-2.56-.55,4.359,4.359,0,0,1-1.76-1.52,3.922,3.922,0,0,1-.64-2.21v-.24a4.214,4.214,0,0,1,.81-2.55,6.1,6.1,0,0,1,2.01-1.77l.76,1.06a3.892,3.892,0,0,0-1.55,1.39,3.585,3.585,0,0,0-.59,1.99,2.879,2.879,0,0,0,.49,1.71,3.119,3.119,0,0,0,1.29,1.05,4.191,4.191,0,0,0,1.74.36,3.883,3.883,0,0,0,2.54-.85,5.226,5.226,0,0,0,1.58-2.48,12.8,12.8,0,0,0,.54-3.99h1.34a15.393,15.393,0,0,1-.38,3.57,8.164,8.164,0,0,1-1.14,2.71,5.232,5.232,0,0,1-1.89,1.72A5.439,5.439,0,0,1,211.48,69.34Zm2.18-8.38v-1.2h5.06v1.2ZM7.75,94V82.48a3.207,3.207,0,0,1,.86-2.46,3.669,3.669,0,0,1,2.58-.8h1.22V80.5h-1.5a1.734,1.734,0,0,0-1.28.44,1.677,1.677,0,0,0-.44,1.24V94ZM6.21,84.58V83.42h6.14v1.16ZM15.11,94V83.42h1.5V94Zm-1.64-9.38v-1.2h3.14v1.2Zm1.96-3.16a1.021,1.021,0,0,1-.8-.29,1.155,1.155,0,0,1,0-1.46,1.021,1.021,0,0,1,.8-.29,1.021,1.021,0,0,1,.8.29,1.155,1.155,0,0,1,0,1.46A1.021,1.021,0,0,1,15.43,81.46ZM20.53,94V83.42h1.2v4.44h-.24a6.612,6.612,0,0,1,.44-2.54,3.521,3.521,0,0,1,1.32-1.64,3.955,3.955,0,0,1,2.22-.58h.06a3.553,3.553,0,0,1,2.98,1.25,5.566,5.566,0,0,1,.98,3.51V94H28.01V87.54a3.182,3.182,0,0,0-.76-2.22,2.713,2.713,0,0,0-2.12-.84,3,3,0,0,0-2.25.87,3.137,3.137,0,0,0-.85,2.29V94Zm19.14,0V90.82h-.24V87.06a2.473,2.473,0,0,0-.62-1.81,2.591,2.591,0,0,0-1.92-.63q-.6,0-1.21.02t-1.16.05q-.55.03-.97.07V83.44l.9-.08q.46-.04.95-.05t.95-.01a7.085,7.085,0,0,1,2.61.4,2.752,2.752,0,0,1,1.45,1.25,4.729,4.729,0,0,1,.46,2.25V94Zm-3.58.28a4.646,4.646,0,0,1-1.98-.4,3.016,3.016,0,0,1-1.33-1.16,3.432,3.432,0,0,1-.47-1.84,3.187,3.187,0,0,1,.49-1.8,3.071,3.071,0,0,1,1.42-1.13,5.812,5.812,0,0,1,2.25-.39h3.1V88.7h-3.2a2.77,2.77,0,0,0-1.93.61,2.05,2.05,0,0,0-.67,1.59,1.972,1.972,0,0,0,.7,1.59,2.854,2.854,0,0,0,1.9.59,3.813,3.813,0,0,0,1.42-.27,2.526,2.526,0,0,0,1.14-.92,3.258,3.258,0,0,0,.5-1.79l.44.62a4.312,4.312,0,0,1-.56,1.97,3.067,3.067,0,0,1-1.3,1.19A4.332,4.332,0,0,1,36.09,94.28ZM44.61,94V83.42h1.2v4.44h-.24a6.612,6.612,0,0,1,.44-2.54,3.521,3.521,0,0,1,1.32-1.64,3.955,3.955,0,0,1,2.22-.58h.06a3.553,3.553,0,0,1,2.98,1.25,5.566,5.566,0,0,1,.98,3.51V94H52.09V87.54a3.182,3.182,0,0,0-.76-2.22,2.713,2.713,0,0,0-2.12-.84,3,3,0,0,0-2.25.87,3.137,3.137,0,0,0-.85,2.29V94Zm17.16.34a5.383,5.383,0,0,1-2.33-.47,4.688,4.688,0,0,1-1.65-1.28,5.685,5.685,0,0,1-.99-1.79,6.168,6.168,0,0,1-.33-1.98v-.28a6.138,6.138,0,0,1,.33-1.99,5.471,5.471,0,0,1,.99-1.76,4.8,4.8,0,0,1,1.65-1.26,5.283,5.283,0,0,1,2.29-.47,5.5,5.5,0,0,1,2.35.48,4.237,4.237,0,0,1,1.67,1.36,4.17,4.17,0,0,1,.76,2.08H65.07a2.977,2.977,0,0,0-1.03-1.83,3.428,3.428,0,0,0-2.31-.73,3.609,3.609,0,0,0-2.09.57,3.519,3.519,0,0,0-1.25,1.54,5.355,5.355,0,0,0-.42,2.15,5.448,5.448,0,0,0,.42,2.15A3.427,3.427,0,0,0,61.77,93a3.916,3.916,0,0,0,1.71-.35,3.143,3.143,0,0,0,1.18-.95,2.655,2.655,0,0,0,.53-1.32h1.44a3.816,3.816,0,0,1-.75,2.09,4.474,4.474,0,0,1-1.73,1.38A5.606,5.606,0,0,1,61.77,94.34ZM69.95,94V83.42h1.48V94Zm-1.7-9.38v-1.2h3.18v1.2Zm2.02-3.16a1.054,1.054,0,0,1-.81-.29,1.122,1.122,0,0,1,0-1.46,1.054,1.054,0,0,1,.81-.29,1.021,1.021,0,0,1,.8.29,1.155,1.155,0,0,1,0,1.46A1.021,1.021,0,0,1,70.27,81.46ZM81.81,94V90.82h-.24V87.06a2.473,2.473,0,0,0-.62-1.81,2.591,2.591,0,0,0-1.92-.63q-.6,0-1.21.02t-1.16.05q-.55.03-.97.07V83.44l.9-.08q.46-.04.95-.05t.95-.01a7.085,7.085,0,0,1,2.61.4,2.752,2.752,0,0,1,1.45,1.25,4.729,4.729,0,0,1,.46,2.25V94Zm-3.58.28a4.646,4.646,0,0,1-1.98-.4,3.016,3.016,0,0,1-1.33-1.16,3.432,3.432,0,0,1-.47-1.84,3.187,3.187,0,0,1,.49-1.8,3.071,3.071,0,0,1,1.42-1.13,5.812,5.812,0,0,1,2.25-.39h3.1V88.7h-3.2a2.77,2.77,0,0,0-1.93.61,2.05,2.05,0,0,0-.67,1.59,1.972,1.972,0,0,0,.7,1.59,2.854,2.854,0,0,0,1.9.59,3.813,3.813,0,0,0,1.42-.27,2.526,2.526,0,0,0,1.14-.92,3.258,3.258,0,0,0,.5-1.79l.44.62a4.312,4.312,0,0,1-.56,1.97,3.067,3.067,0,0,1-1.3,1.19A4.332,4.332,0,0,1,78.23,94.28ZM86.85,94V79.4h1.5V94ZM85.31,80.62V79.4h3.04v1.22Zm15.92,13.72a5.059,5.059,0,0,1-2.11-.43,4.879,4.879,0,0,1-1.64-1.2,5.493,5.493,0,0,1-1.06-1.76,5.978,5.978,0,0,1-.37-2.11v-.28a6.01,6.01,0,0,1,.36-2.07,5.538,5.538,0,0,1,1.03-1.76,4.847,4.847,0,0,1,3.75-1.67,4.691,4.691,0,0,1,2.36.58,4.341,4.341,0,0,1,1.64,1.67,5.622,5.622,0,0,1,.66,2.67l-.66-1.24V79.4h1.5V94h-1.2V89.3h.48a5.808,5.808,0,0,1-.69,2.79,4.27,4.27,0,0,1-1.7,1.69A4.914,4.914,0,0,1,101.23,94.34Zm.2-1.32a3.968,3.968,0,0,0,1.95-.48,3.472,3.472,0,0,0,1.37-1.37,4.114,4.114,0,0,0,.5-2.05v-.96a3.813,3.813,0,0,0-.5-1.97,3.549,3.549,0,0,0-1.37-1.33,4.009,4.009,0,0,0-1.97-.48,3.656,3.656,0,0,0-2.05.57,3.749,3.749,0,0,0-1.34,1.55,5.425,5.425,0,0,0,.01,4.44,3.656,3.656,0,0,0,1.36,1.53A3.768,3.768,0,0,0,101.43,93.02Zm13.88,1.32a5.705,5.705,0,0,1-2.39-.47,5.218,5.218,0,0,1-1.74-1.26,5.659,5.659,0,0,1-1.45-3.77v-.28a5.568,5.568,0,0,1,.38-2.01,5.484,5.484,0,0,1,1.1-1.77,5.4,5.4,0,0,1,1.75-1.25,6.16,6.16,0,0,1,4.72,0,5.4,5.4,0,0,1,1.75,1.25,5.345,5.345,0,0,1,1.09,1.77,5.7,5.7,0,0,1,.37,2.01v.28a5.758,5.758,0,0,1-.36,2,5.426,5.426,0,0,1-1.07,1.77,5.193,5.193,0,0,1-1.75,1.26A5.774,5.774,0,0,1,115.31,94.34Zm0-1.34a4.014,4.014,0,0,0,2.23-.59,3.876,3.876,0,0,0,1.39-1.56,5.053,5.053,0,0,0-.01-4.32,3.785,3.785,0,0,0-1.41-1.54,4.492,4.492,0,0,0-4.38,0,3.785,3.785,0,0,0-1.41,1.54,5.053,5.053,0,0,0-.01,4.32,3.876,3.876,0,0,0,1.39,1.56A3.976,3.976,0,0,0,115.31,93Zm13.1,1.34a5.383,5.383,0,0,1-2.33-.47,4.688,4.688,0,0,1-1.65-1.28,5.685,5.685,0,0,1-.99-1.79,6.168,6.168,0,0,1-.33-1.98v-.28a6.138,6.138,0,0,1,.33-1.99,5.471,5.471,0,0,1,.99-1.76,4.8,4.8,0,0,1,1.65-1.26,5.283,5.283,0,0,1,2.29-.47,5.5,5.5,0,0,1,2.35.48,4.237,4.237,0,0,1,1.67,1.36,4.17,4.17,0,0,1,.76,2.08h-1.44a2.977,2.977,0,0,0-1.03-1.83,3.428,3.428,0,0,0-2.31-.73,3.609,3.609,0,0,0-2.09.57,3.519,3.519,0,0,0-1.25,1.54,5.355,5.355,0,0,0-.42,2.15,5.448,5.448,0,0,0,.42,2.15A3.427,3.427,0,0,0,128.41,93a3.916,3.916,0,0,0,1.71-.35,3.143,3.143,0,0,0,1.18-.95,2.655,2.655,0,0,0,.53-1.32h1.44a3.816,3.816,0,0,1-.75,2.09,4.474,4.474,0,0,1-1.73,1.38A5.607,5.607,0,0,1,128.41,94.34Zm11.28-.04a3.52,3.52,0,0,1-2.9-1.23,5.3,5.3,0,0,1-1-3.43V83.4h1.48v6.54a3.149,3.149,0,0,0,.73,2.19,2.593,2.593,0,0,0,2.03.81,2.839,2.839,0,0,0,2.17-.86,3.218,3.218,0,0,0,.81-2.3V83.4h1.5V94h-1.2V89.58h.24a6.813,6.813,0,0,1-.42,2.53,3.439,3.439,0,0,1-1.26,1.62,3.7,3.7,0,0,1-2.12.57Zm8.74-.3V83.4h1.2v4.46h-.24a6.981,6.981,0,0,1,.41-2.52,3.547,3.547,0,0,1,1.23-1.65,3.473,3.473,0,0,1,2.08-.59h.06a3.516,3.516,0,0,1,2.08.58,3.425,3.425,0,0,1,1.22,1.64,7.2,7.2,0,0,1,.4,2.54h-.48a6.981,6.981,0,0,1,.41-2.52,3.311,3.311,0,0,1,3.33-2.24h.06a3.563,3.563,0,0,1,2.09.58,3.459,3.459,0,0,1,1.24,1.64,7.044,7.044,0,0,1,.41,2.54V94h-1.5V87.52a3.371,3.371,0,0,0-.68-2.22,2.4,2.4,0,0,0-1.96-.82,2.679,2.679,0,0,0-2.09.85,3.282,3.282,0,0,0-.77,2.29V94h-1.5V87.52a3.371,3.371,0,0,0-.68-2.22,2.4,2.4,0,0,0-1.96-.82,2.679,2.679,0,0,0-2.09.85,3.282,3.282,0,0,0-.77,2.29V94Zm23.66.34a5.5,5.5,0,0,1-2.36-.47,4.578,4.578,0,0,1-1.64-1.26,5.349,5.349,0,0,1-.95-1.77,6.658,6.658,0,0,1-.31-2.02v-.28a6.594,6.594,0,0,1,.31-2,5.238,5.238,0,0,1,.95-1.76,4.7,4.7,0,0,1,1.61-1.25,5.151,5.151,0,0,1,2.27-.47,4.888,4.888,0,0,1,2.77.74,4.737,4.737,0,0,1,1.67,1.89,5.567,5.567,0,0,1,.56,2.47v.78h-9.46V87.78h8.42l-.38.58a4.9,4.9,0,0,0-.41-2.07,3.239,3.239,0,0,0-1.2-1.4,3.562,3.562,0,0,0-1.97-.51,3.48,3.48,0,0,0-2.06.58,3.553,3.553,0,0,0-1.23,1.54,5.5,5.5,0,0,0-.41,2.18,5.671,5.671,0,0,0,.41,2.19,3.453,3.453,0,0,0,1.26,1.57,4.286,4.286,0,0,0,4.39-.05,2.568,2.568,0,0,0,1.06-1.49h1.4a3.956,3.956,0,0,1-.84,1.83,4.239,4.239,0,0,1-1.62,1.19A5.64,5.64,0,0,1,172.09,94.34Zm7.76-.34V83.42h1.2v4.44h-.24a6.612,6.612,0,0,1,.44-2.54,3.521,3.521,0,0,1,1.32-1.64,3.955,3.955,0,0,1,2.22-.58h.06a3.553,3.553,0,0,1,2.98,1.25,5.566,5.566,0,0,1,.98,3.51V94h-1.48V87.54a3.182,3.182,0,0,0-.76-2.22,2.713,2.713,0,0,0-2.12-.84,3,3,0,0,0-2.25.87,3.137,3.137,0,0,0-.85,2.29V94Zm16.54.12a5.106,5.106,0,0,1-1.9-.32,2.439,2.439,0,0,1-1.24-1.09,4.169,4.169,0,0,1-.44-2.07V80.08h1.44V90.86a1.886,1.886,0,0,0,.5,1.41,1.944,1.944,0,0,0,1.42.49h1.9v1.36Zm-5.48-9.56V83.42h7.16v1.14Zm13.32,9.74a4.88,4.88,0,0,1-3.14-.89,2.97,2.97,0,0,1-1.12-2.39h1.4a2.029,2.029,0,0,0,.69,1.38,3.092,3.092,0,0,0,2.17.62,3.273,3.273,0,0,0,2.13-.59,1.8,1.8,0,0,0,.71-1.43,1.41,1.41,0,0,0-.59-1.21,3.54,3.54,0,0,0-1.71-.55l-1.2-.12a4.344,4.344,0,0,1-2.33-.89,2.458,2.458,0,0,1-.89-2.01,2.829,2.829,0,0,1,.48-1.64,3.154,3.154,0,0,1,1.35-1.09,4.977,4.977,0,0,1,2.05-.39,4.505,4.505,0,0,1,2.77.8,2.727,2.727,0,0,1,1.09,2.28h-1.4a1.67,1.67,0,0,0-.64-1.28,2.769,2.769,0,0,0-1.82-.52,2.725,2.725,0,0,0-1.85.54,1.7,1.7,0,0,0-.61,1.32,1.428,1.428,0,0,0,.46,1.09,2.433,2.433,0,0,0,1.44.53l1.2.12a5.355,5.355,0,0,1,2.61.92,2.469,2.469,0,0,1,1.01,2.12,2.858,2.858,0,0,1-.53,1.69,3.479,3.479,0,0,1-1.49,1.17A5.549,5.549,0,0,1,204.23,94.3Zm6.74-.3V92.02h1.88V94Z" transform="translate(14542 3287)" fill="#262626"/>
    <path id="_76" data-name="76" d="M184,92A92,92,0,1,1,97.776.181L92,92Z" transform="translate(14276.001 3028.001)" fill="#f7dcb9"/>
    <path id="_84" data-name="84" d="M185,93a92,92,0,1,1-42.7-77.678L93,93Z" transform="translate(13991.001 3027.001)" fill="#f7dcb9"/>
    <path id="_89" data-name="89" d="M184,93a92,92,0,1,1-21.113-58.643L92,93Z" transform="translate(14560 3027.002)" fill="#f7dcb9"/>
    <path id="Path_877" data-name="Path 877" d="M15.33-12.74a6.5,6.5,0,0,1,3.395,5.915A6.587,6.587,0,0,1,16.363-1.47,9.754,9.754,0,0,1,9.94.49,9.74,9.74,0,0,1,3.5-1.47,6.608,6.608,0,0,1,1.155-6.825a6.509,6.509,0,0,1,3.36-5.915A5.936,5.936,0,0,1,1.96-17.815,6.47,6.47,0,0,1,4.253-23.1,8.644,8.644,0,0,1,9.94-24.99a8.575,8.575,0,0,1,5.67,1.89,6.492,6.492,0,0,1,2.275,5.285A5.879,5.879,0,0,1,15.33-12.74Zm-3.115-6.93a3.317,3.317,0,0,0-2.275-.77,3.317,3.317,0,0,0-2.275.77,2.654,2.654,0,0,0-.875,2.1,2.708,2.708,0,0,0,.875,2.118,3.271,3.271,0,0,0,2.275.787,3.271,3.271,0,0,0,2.275-.787,2.708,2.708,0,0,0,.875-2.118A2.654,2.654,0,0,0,12.215-19.67ZM7.053-4.953A4.447,4.447,0,0,0,9.94-4.06a4.447,4.447,0,0,0,2.887-.893,3.039,3.039,0,0,0,1.1-2.5,3,3,0,0,0-1.1-2.468,4.447,4.447,0,0,0-2.887-.892,4.447,4.447,0,0,0-2.888.892,3,3,0,0,0-1.1,2.468A3.039,3.039,0,0,0,7.053-4.953ZM40.39-8.645v4.48H37.765V0H32.9V-4.165H21.315v-4.48L29.47-24.5h5.18L26.534-8.645H32.9v-5.81h4.865v5.81ZM50.82-15.1a5.73,5.73,0,0,1-4.2,1.663A5.757,5.757,0,0,1,42.4-15.12a5.543,5.543,0,0,1-1.7-4.095,5.543,5.543,0,0,1,1.7-4.095,5.757,5.757,0,0,1,4.218-1.68,5.73,5.73,0,0,1,4.2,1.663,5.556,5.556,0,0,1,1.68,4.113A5.556,5.556,0,0,1,50.82-15.1ZM43.19-3.71,59.15-21.455l2.135,1.19L45.29-2.485Zm1.837-13.913a2.051,2.051,0,0,0,1.558.648,2.107,2.107,0,0,0,1.575-.648,2.2,2.2,0,0,0,.63-1.592,2.137,2.137,0,0,0-.63-1.575,2.137,2.137,0,0,0-1.575-.63,2.079,2.079,0,0,0-1.558.63,2.169,2.169,0,0,0-.612,1.575A2.23,2.23,0,0,0,45.027-17.623ZM62.65-1.26A5.7,5.7,0,0,1,58.45.42a5.7,5.7,0,0,1-4.2-1.68,5.572,5.572,0,0,1-1.68-4.1,5.572,5.572,0,0,1,1.68-4.1,5.7,5.7,0,0,1,4.2-1.68,5.7,5.7,0,0,1,4.2,1.68,5.572,5.572,0,0,1,1.68,4.1A5.572,5.572,0,0,1,62.65-1.26Zm-5.757-2.5a2.051,2.051,0,0,0,1.557.648,2.025,2.025,0,0,0,1.558-.665,2.247,2.247,0,0,0,.612-1.575,2.23,2.23,0,0,0-.612-1.592A2.051,2.051,0,0,0,58.45-7.6a2.051,2.051,0,0,0-1.557.648,2.23,2.23,0,0,0-.613,1.592A2.23,2.23,0,0,0,56.893-3.763Z" transform="translate(14051 3270)" fill="#262626"/>
    <path id="Path_878" data-name="Path 878" d="M.449-24.5H16.275v4.093L7.98,0H2.87l8.044-19.88H.449Zm23.868,7.945a8.789,8.789,0,0,1,6.2,2.467A8.14,8.14,0,0,1,32.9-8.05a8.162,8.162,0,0,1-2.485,6.143,8.842,8.842,0,0,1-6.4,2.4,8.817,8.817,0,0,1-6.388-2.38,8.178,8.178,0,0,1-2.468-6.16,8.637,8.637,0,0,1,1.435-4.935L24.22-24.5h5.53ZM21.1-5.145A4.076,4.076,0,0,0,24.01-4.06a4.139,4.139,0,0,0,2.922-1.085A3.767,3.767,0,0,0,28.1-8.05a3.725,3.725,0,0,0-1.172-2.87,4.139,4.139,0,0,0-2.922-1.085A4.115,4.115,0,0,0,21.1-10.937,3.74,3.74,0,0,0,19.95-8.05,3.8,3.8,0,0,0,21.1-5.145ZM44.345-15.1a5.73,5.73,0,0,1-4.2,1.663,5.757,5.757,0,0,1-4.218-1.68,5.543,5.543,0,0,1-1.7-4.095,5.543,5.543,0,0,1,1.7-4.095,5.757,5.757,0,0,1,4.218-1.68,5.73,5.73,0,0,1,4.2,1.663,5.556,5.556,0,0,1,1.68,4.113A5.556,5.556,0,0,1,44.345-15.1ZM36.715-3.71l15.96-17.745,2.135,1.19L38.815-2.485Zm1.837-13.913a2.051,2.051,0,0,0,1.558.648,2.107,2.107,0,0,0,1.575-.648,2.2,2.2,0,0,0,.63-1.592,2.137,2.137,0,0,0-.63-1.575,2.137,2.137,0,0,0-1.575-.63,2.079,2.079,0,0,0-1.558.63,2.169,2.169,0,0,0-.612,1.575A2.23,2.23,0,0,0,38.552-17.623ZM56.175-1.26a5.7,5.7,0,0,1-4.2,1.68,5.7,5.7,0,0,1-4.2-1.68,5.572,5.572,0,0,1-1.68-4.1,5.572,5.572,0,0,1,1.68-4.1,5.7,5.7,0,0,1,4.2-1.68,5.7,5.7,0,0,1,4.2,1.68,5.572,5.572,0,0,1,1.68,4.1A5.572,5.572,0,0,1,56.175-1.26Zm-5.757-2.5a2.051,2.051,0,0,0,1.557.648,2.025,2.025,0,0,0,1.558-.665,2.247,2.247,0,0,0,.612-1.575,2.23,2.23,0,0,0-.612-1.592A2.051,2.051,0,0,0,51.975-7.6a2.051,2.051,0,0,0-1.557.648,2.23,2.23,0,0,0-.613,1.592A2.23,2.23,0,0,0,50.418-3.763Z" transform="translate(14339 3270)" fill="#262626"/>
    <path id="Path_879" data-name="Path 879" d="M15.33-12.74a6.5,6.5,0,0,1,3.395,5.915A6.587,6.587,0,0,1,16.363-1.47,9.754,9.754,0,0,1,9.94.49,9.74,9.74,0,0,1,3.5-1.47,6.608,6.608,0,0,1,1.155-6.825a6.509,6.509,0,0,1,3.36-5.915A5.936,5.936,0,0,1,1.96-17.815,6.47,6.47,0,0,1,4.253-23.1,8.644,8.644,0,0,1,9.94-24.99a8.575,8.575,0,0,1,5.67,1.89,6.492,6.492,0,0,1,2.275,5.285A5.879,5.879,0,0,1,15.33-12.74Zm-3.115-6.93a3.317,3.317,0,0,0-2.275-.77,3.317,3.317,0,0,0-2.275.77,2.654,2.654,0,0,0-.875,2.1,2.708,2.708,0,0,0,.875,2.118,3.271,3.271,0,0,0,2.275.787,3.271,3.271,0,0,0,2.275-.787,2.708,2.708,0,0,0,.875-2.118A2.654,2.654,0,0,0,12.215-19.67ZM7.053-4.953A4.447,4.447,0,0,0,9.94-4.06a4.447,4.447,0,0,0,2.887-.893,3.039,3.039,0,0,0,1.1-2.5,3,3,0,0,0-1.1-2.468,4.447,4.447,0,0,0-2.887-.892,4.447,4.447,0,0,0-2.888.892,3,3,0,0,0-1.1,2.468A3.039,3.039,0,0,0,7.053-4.953ZM38.43-16.485A8.7,8.7,0,0,1,37-11.515h0L29.365,0h-5.53l5.456-7.98a8.708,8.708,0,0,1-6.209-2.432,8.158,8.158,0,0,1-2.4-6.073,8.135,8.135,0,0,1,2.468-6.125,8.817,8.817,0,0,1,6.388-2.38,8.9,8.9,0,0,1,6.423,2.362A8.121,8.121,0,0,1,38.43-16.485Zm-12.95,0a3.767,3.767,0,0,0,1.173,2.905A4.093,4.093,0,0,0,29.54-12.5a4.123,4.123,0,0,0,2.94-1.085,3.8,3.8,0,0,0,1.155-2.905,3.74,3.74,0,0,0-1.155-2.887,4.162,4.162,0,0,0-2.94-1.068,4.093,4.093,0,0,0-2.888,1.085A3.725,3.725,0,0,0,25.48-16.485ZM50.925-15.1a5.73,5.73,0,0,1-4.2,1.663,5.757,5.757,0,0,1-4.218-1.68,5.543,5.543,0,0,1-1.7-4.095,5.543,5.543,0,0,1,1.7-4.095,5.757,5.757,0,0,1,4.218-1.68,5.73,5.73,0,0,1,4.2,1.663,5.556,5.556,0,0,1,1.68,4.113A5.556,5.556,0,0,1,50.925-15.1ZM43.3-3.71l15.96-17.745,2.135,1.19L45.4-2.485Zm1.837-13.913a2.051,2.051,0,0,0,1.558.648,2.107,2.107,0,0,0,1.575-.648,2.2,2.2,0,0,0,.63-1.592,2.137,2.137,0,0,0-.63-1.575,2.137,2.137,0,0,0-1.575-.63,2.079,2.079,0,0,0-1.558.63,2.169,2.169,0,0,0-.612,1.575A2.23,2.23,0,0,0,45.132-17.623ZM62.755-1.26a5.7,5.7,0,0,1-4.2,1.68,5.7,5.7,0,0,1-4.2-1.68,5.572,5.572,0,0,1-1.68-4.1,5.572,5.572,0,0,1,1.68-4.1,5.7,5.7,0,0,1,4.2-1.68,5.7,5.7,0,0,1,4.2,1.68,5.572,5.572,0,0,1,1.68,4.1A5.572,5.572,0,0,1,62.755-1.26ZM57-3.763a2.051,2.051,0,0,0,1.557.648,2.025,2.025,0,0,0,1.558-.665,2.247,2.247,0,0,0,.612-1.575,2.23,2.23,0,0,0-.612-1.592A2.051,2.051,0,0,0,58.555-7.6,2.051,2.051,0,0,0,57-6.948a2.23,2.23,0,0,0-.613,1.592A2.23,2.23,0,0,0,57-3.763Z" transform="translate(14619 3270)" fill="#262626"/>
  </g>
</svg>
