<svg xmlns="http://www.w3.org/2000/svg" width="627.688" height="289.745" viewBox="0 0 627.688 289.745">
  <g id="Group_243" data-name="Group 243" transform="translate(-15944.792 -15082.5)">
    <path id="Path_1025" data-name="Path 1025" d="M2.265,0l4.62-9.825-.09-.15H.8v-.975h7.1v1.4L3.435,0ZM.8-8.145V-10.95h.96v2.805ZM13.17.255a4,4,0,0,1-2.085-.5A3.35,3.35,0,0,1,9.81-1.575a3.739,3.739,0,0,1-.435-1.77h1.1a2.719,2.719,0,0,0,.323,1.335,2.389,2.389,0,0,0,.922.93,2.874,2.874,0,0,0,1.455.345,2.926,2.926,0,0,0,1.455-.337A2.325,2.325,0,0,0,15.547-2a2.762,2.762,0,0,0,.323-1.342,2.828,2.828,0,0,0-.315-1.335,2.347,2.347,0,0,0-.923-.952,2.867,2.867,0,0,0-1.462-.352,3.6,3.6,0,0,0-1.185.2,2.519,2.519,0,0,0-.975.593H9.975l.57-5.76H15.99v.975H11.16l.315-.39-.45,4.5L10.68-5.94a3.457,3.457,0,0,1,1.1-.735,3.626,3.626,0,0,1,1.44-.27,3.922,3.922,0,0,1,2.07.51,3.391,3.391,0,0,1,1.267,1.313,3.54,3.54,0,0,1,.427,1.688v.2a3.492,3.492,0,0,1-.435,1.687A3.38,3.38,0,0,1,15.262-.248,4.04,4.04,0,0,1,13.17.255ZM19.185,3V-7.935h.9V-4.53l-.27.03a4.612,4.612,0,0,1,.517-2.025,3.1,3.1,0,0,1,1.245-1.253,3.634,3.634,0,0,1,1.763-.428,3.65,3.65,0,0,1,1.583.338,3.677,3.677,0,0,1,1.215.915,4.044,4.044,0,0,1,.765,1.32,4.623,4.623,0,0,1,.263,1.552v.21a4.508,4.508,0,0,1-.27,1.553A4.153,4.153,0,0,1,26.123-1a3.677,3.677,0,0,1-1.215.915,3.686,3.686,0,0,1-1.6.338,3.572,3.572,0,0,1-1.733-.428A3.268,3.268,0,0,1,20.3-1.44a4.394,4.394,0,0,1-.532-2.07l.54,1.125V3ZM23.16-.735A2.732,2.732,0,0,0,24.7-1.163a2.769,2.769,0,0,0,.99-1.17,3.85,3.85,0,0,0,.345-1.642,3.754,3.754,0,0,0-.353-1.658,2.841,2.841,0,0,0-1-1.155,2.705,2.705,0,0,0-1.53-.428,3.019,3.019,0,0,0-1.47.36,2.67,2.67,0,0,0-1.042,1.013A2.986,2.986,0,0,0,20.265-4.3v.735a2.816,2.816,0,0,0,.382,1.477,2.7,2.7,0,0,0,1.042,1A3.019,3.019,0,0,0,23.16-.735ZM28.3,0l2.94-4.185v.3l-2.76-4.05h1.23l2.1,3.12h.21l2-3.12h1.155l-2.6,3.93V-4.29L35.67,0H34.44L32.01-3.375h-.195L29.46,0ZM37.47,2.3l-.915-.33L37.86-1.65l.945.345ZM48.09.255A4,4,0,0,1,46-.248,3.35,3.35,0,0,1,44.73-1.575a3.739,3.739,0,0,1-.435-1.77H45.39a2.719,2.719,0,0,0,.323,1.335,2.389,2.389,0,0,0,.923.93,2.874,2.874,0,0,0,1.455.345,2.926,2.926,0,0,0,1.455-.337A2.325,2.325,0,0,0,50.467-2a2.762,2.762,0,0,0,.322-1.342,2.828,2.828,0,0,0-.315-1.335,2.347,2.347,0,0,0-.923-.952,2.867,2.867,0,0,0-1.463-.352,3.6,3.6,0,0,0-1.185.2,2.519,2.519,0,0,0-.975.593H44.895l.57-5.76H50.91v.975H46.08l.315-.39-.45,4.5L45.6-5.94a3.457,3.457,0,0,1,1.095-.735,3.626,3.626,0,0,1,1.44-.27,3.922,3.922,0,0,1,2.07.51,3.391,3.391,0,0,1,1.267,1.313A3.54,3.54,0,0,1,51.9-3.435v.2a3.492,3.492,0,0,1-.435,1.687A3.38,3.38,0,0,1,50.182-.248,4.04,4.04,0,0,1,48.09.255Zm10.08,0A4.454,4.454,0,0,1,56.19-.15a3.584,3.584,0,0,1-1.35-1.133,4.959,4.959,0,0,1-.772-1.71,8.671,8.671,0,0,1-.247-2.123v-.7a7.751,7.751,0,0,1,.472-2.82,4.094,4.094,0,0,1,1.44-1.9,4.094,4.094,0,0,1,2.438-.69,4.06,4.06,0,0,1,2.43.69,4.114,4.114,0,0,1,1.432,1.9A7.751,7.751,0,0,1,62.5-5.82v.7a8.671,8.671,0,0,1-.247,2.123,4.959,4.959,0,0,1-.772,1.71A3.584,3.584,0,0,1,60.135-.15,4.417,4.417,0,0,1,58.17.255Zm0-1.02a2.726,2.726,0,0,0,2.408-1.14,6.344,6.344,0,0,0,.787-3.555,6.367,6.367,0,0,0-.8-3.638,2.754,2.754,0,0,0-2.393-1.118A2.77,2.77,0,0,0,55.762-9.1a6.3,6.3,0,0,0-.8,3.608,6.418,6.418,0,0,0,.787,3.578A2.736,2.736,0,0,0,58.17-.765ZM65.13,3V-7.935h.9V-4.53l-.27.03a4.612,4.612,0,0,1,.518-2.025,3.1,3.1,0,0,1,1.245-1.253,3.634,3.634,0,0,1,1.762-.428,3.65,3.65,0,0,1,1.582.338,3.677,3.677,0,0,1,1.215.915,4.044,4.044,0,0,1,.765,1.32A4.623,4.623,0,0,1,73.11-4.08v.21a4.507,4.507,0,0,1-.27,1.553A4.153,4.153,0,0,1,72.067-1a3.677,3.677,0,0,1-1.215.915,3.686,3.686,0,0,1-1.6.338,3.572,3.572,0,0,1-1.732-.428A3.268,3.268,0,0,1,66.247-1.44a4.394,4.394,0,0,1-.533-2.07l.54,1.125V3ZM69.1-.735a2.732,2.732,0,0,0,1.545-.428,2.769,2.769,0,0,0,.99-1.17,3.85,3.85,0,0,0,.345-1.642,3.754,3.754,0,0,0-.352-1.658,2.841,2.841,0,0,0-1-1.155,2.705,2.705,0,0,0-1.53-.428,3.019,3.019,0,0,0-1.47.36,2.67,2.67,0,0,0-1.042,1.013A2.986,2.986,0,0,0,66.21-4.3v.735a2.816,2.816,0,0,0,.382,1.477,2.7,2.7,0,0,0,1.042,1A3.019,3.019,0,0,0,69.1-.735ZM74.25,0l2.94-4.185v.3l-2.76-4.05h1.23l2.1,3.12h.21l2-3.12H81.12l-2.6,3.93V-4.29L81.615,0h-1.23l-2.43-3.375H77.76L75.4,0Zm9.165,2.3-.915-.33L83.805-1.65l.945.345ZM93.8.255A4.113,4.113,0,0,1,91.763-.21,3.169,3.169,0,0,1,90.5-1.47a3.566,3.566,0,0,1-.435-1.74h1.1a2.371,2.371,0,0,0,.7,1.808A2.7,2.7,0,0,0,93.8-.735a3.034,3.034,0,0,0,1.387-.3A2.162,2.162,0,0,0,96.1-1.89a2.521,2.521,0,0,0,.323-1.29,2.426,2.426,0,0,0-.705-1.815,2.606,2.606,0,0,0-1.9-.69,2.675,2.675,0,0,0-.825.112,2.9,2.9,0,0,0-.615.278l-.615-1.05,4.365-3.39L96-9.975H90.5v-.975H97.05v1.62L93.18-6.315l-.735.015a3.548,3.548,0,0,1,.615-.2,3.438,3.438,0,0,1,.795-.082,4.035,4.035,0,0,1,1.973.45,3.185,3.185,0,0,1,1.252,1.2,3.23,3.23,0,0,1,.435,1.65v.21A3.255,3.255,0,0,1,97.08-1.44,3.242,3.242,0,0,1,95.82-.21,4.07,4.07,0,0,1,93.8.255Zm9.375,0a4,4,0,0,1-2.085-.5A3.35,3.35,0,0,1,99.81-1.575a3.739,3.739,0,0,1-.435-1.77h1.1a2.719,2.719,0,0,0,.322,1.335,2.389,2.389,0,0,0,.923.93,2.874,2.874,0,0,0,1.455.345,2.926,2.926,0,0,0,1.455-.337,2.325,2.325,0,0,0,.923-.93,2.762,2.762,0,0,0,.323-1.342,2.828,2.828,0,0,0-.315-1.335,2.347,2.347,0,0,0-.923-.952,2.867,2.867,0,0,0-1.463-.352,3.6,3.6,0,0,0-1.185.2,2.519,2.519,0,0,0-.975.593H99.975l.57-5.76h5.445v.975h-4.83l.315-.39-.45,4.5-.345-.075a3.457,3.457,0,0,1,1.1-.735,3.626,3.626,0,0,1,1.44-.27,3.922,3.922,0,0,1,2.07.51,3.391,3.391,0,0,1,1.268,1.313,3.54,3.54,0,0,1,.427,1.688v.2a3.492,3.492,0,0,1-.435,1.687,3.38,3.38,0,0,1-1.283,1.305A4.04,4.04,0,0,1,103.17.255ZM109.185,3V-7.935h.9V-4.53l-.27.03a4.612,4.612,0,0,1,.518-2.025,3.1,3.1,0,0,1,1.245-1.253,3.634,3.634,0,0,1,1.762-.428,3.65,3.65,0,0,1,1.582.338,3.677,3.677,0,0,1,1.215.915,4.044,4.044,0,0,1,.765,1.32,4.623,4.623,0,0,1,.262,1.552v.21a4.507,4.507,0,0,1-.27,1.553A4.153,4.153,0,0,1,116.123-1a3.677,3.677,0,0,1-1.215.915,3.686,3.686,0,0,1-1.6.338,3.572,3.572,0,0,1-1.732-.428A3.268,3.268,0,0,1,110.3-1.44a4.394,4.394,0,0,1-.533-2.07l.54,1.125V3ZM113.16-.735a2.732,2.732,0,0,0,1.545-.428,2.769,2.769,0,0,0,.99-1.17,3.85,3.85,0,0,0,.345-1.642,3.754,3.754,0,0,0-.352-1.658,2.841,2.841,0,0,0-1-1.155,2.705,2.705,0,0,0-1.53-.428,3.019,3.019,0,0,0-1.47.36,2.67,2.67,0,0,0-1.042,1.013,2.986,2.986,0,0,0-.382,1.538v.735a2.816,2.816,0,0,0,.382,1.477,2.7,2.7,0,0,0,1.042,1A3.019,3.019,0,0,0,113.16-.735ZM118.305,0l2.94-4.185v.3l-2.76-4.05h1.23l2.1,3.12h.21l2-3.12h1.155l-2.6,3.93V-4.29L125.67,0h-1.23l-2.43-3.375h-.195L119.46,0Zm9.165,2.3-.915-.33L127.86-1.65l.945.345ZM134.61,0V-1.665a2.953,2.953,0,0,1,.18-1.1,2.1,2.1,0,0,1,.63-.825,5.251,5.251,0,0,1,1.23-.72l2.145-1.005a3.346,3.346,0,0,0,1.245-.945,2.386,2.386,0,0,0,.465-1.53,2.443,2.443,0,0,0-.652-1.807,2.422,2.422,0,0,0-1.793-.653,2.454,2.454,0,0,0-1.792.653,2.411,2.411,0,0,0-.667,1.807h-1.1a3.751,3.751,0,0,1,.4-1.755,3.008,3.008,0,0,1,1.2-1.237,3.854,3.854,0,0,1,1.95-.458,3.8,3.8,0,0,1,1.95.458A3.073,3.073,0,0,1,141.2-9.563a3.491,3.491,0,0,1,.4,1.673v.21a2.923,2.923,0,0,1-.667,1.958,5.105,5.105,0,0,1-1.748,1.3l-2.16,1A2.539,2.539,0,0,0,136-2.708a1.574,1.574,0,0,0-.262.938V-.435l-.33-.54h6.375V0Zm13.515.255a4.454,4.454,0,0,1-1.98-.405,3.584,3.584,0,0,1-1.35-1.133,4.959,4.959,0,0,1-.773-1.71,8.671,8.671,0,0,1-.247-2.123v-.7a7.751,7.751,0,0,1,.473-2.82,4.094,4.094,0,0,1,1.44-1.9,4.094,4.094,0,0,1,2.438-.69,4.06,4.06,0,0,1,2.43.69,4.114,4.114,0,0,1,1.433,1.9,7.751,7.751,0,0,1,.472,2.82v.7a8.671,8.671,0,0,1-.247,2.123,4.959,4.959,0,0,1-.772,1.71A3.584,3.584,0,0,1,150.09-.15,4.417,4.417,0,0,1,148.125.255Zm0-1.02a2.726,2.726,0,0,0,2.408-1.14,6.344,6.344,0,0,0,.787-3.555,6.367,6.367,0,0,0-.8-3.638,2.754,2.754,0,0,0-2.393-1.118A2.77,2.77,0,0,0,145.718-9.1a6.3,6.3,0,0,0-.8,3.608,6.418,6.418,0,0,0,.788,3.578A2.736,2.736,0,0,0,148.125-.765ZM155.085,3V-7.935h.9V-4.53l-.27.03a4.612,4.612,0,0,1,.517-2.025,3.1,3.1,0,0,1,1.245-1.253,3.634,3.634,0,0,1,1.762-.428,3.65,3.65,0,0,1,1.583.338,3.677,3.677,0,0,1,1.215.915,4.044,4.044,0,0,1,.765,1.32,4.623,4.623,0,0,1,.262,1.552v.21a4.507,4.507,0,0,1-.27,1.553A4.153,4.153,0,0,1,162.023-1a3.677,3.677,0,0,1-1.215.915,3.686,3.686,0,0,1-1.6.338,3.572,3.572,0,0,1-1.732-.428A3.268,3.268,0,0,1,156.2-1.44a4.394,4.394,0,0,1-.533-2.07l.54,1.125V3ZM159.06-.735a2.732,2.732,0,0,0,1.545-.428,2.769,2.769,0,0,0,.99-1.17,3.85,3.85,0,0,0,.345-1.642,3.754,3.754,0,0,0-.352-1.658,2.841,2.841,0,0,0-1-1.155,2.705,2.705,0,0,0-1.53-.428,3.019,3.019,0,0,0-1.47.36,2.67,2.67,0,0,0-1.043,1.013,2.986,2.986,0,0,0-.382,1.538v.735a2.816,2.816,0,0,0,.382,1.477,2.7,2.7,0,0,0,1.043,1A3.019,3.019,0,0,0,159.06-.735ZM164.205,0l2.94-4.185v.3l-2.76-4.05h1.23l2.1,3.12h.21l2-3.12h1.155l-2.6,3.93V-4.29L171.57,0h-1.23l-2.43-3.375h-.195L165.36,0ZM183.54,0,178.9-4.92a14.8,14.8,0,0,1-1.027-1.23,3.827,3.827,0,0,1-.548-1.012,3.279,3.279,0,0,1-.165-1.057,3.157,3.157,0,0,1,.352-1.56,2.209,2.209,0,0,1,1.118-.953,5.151,5.151,0,0,1,1.98-.322q.525,0,1.125.045t1.125.1v.99q-.33-.03-.788-.068t-.9-.06q-.442-.022-.773-.023a2.349,2.349,0,0,0-1.665.48,1.835,1.835,0,0,0-.495,1.38,2.568,2.568,0,0,0,.33,1.3A7.405,7.405,0,0,0,179.61-5.58L184.86,0Zm-3.855.255a4.3,4.3,0,0,1-1.92-.413,3.269,3.269,0,0,1-1.32-1.14,2.941,2.941,0,0,1-.48-1.658v-.18a3.16,3.16,0,0,1,.608-1.913,4.573,4.573,0,0,1,1.507-1.327l.57.8a2.919,2.919,0,0,0-1.163,1.042,2.689,2.689,0,0,0-.443,1.493,2.159,2.159,0,0,0,.368,1.283,2.339,2.339,0,0,0,.967.787,3.143,3.143,0,0,0,1.3.27,2.913,2.913,0,0,0,1.9-.638,3.919,3.919,0,0,0,1.185-1.86,9.6,9.6,0,0,0,.4-2.993h1a11.545,11.545,0,0,1-.285,2.678,6.123,6.123,0,0,1-.855,2.033A3.923,3.923,0,0,1,181.628-.2,4.079,4.079,0,0,1,179.685.255ZM181.32-6.03v-.9h3.795v.9ZM192.225,0V-10.365l.495.39h-2.985v-.975h3.615V0Zm7.755.255a4,4,0,0,1-2.085-.5,3.35,3.35,0,0,1-1.275-1.328,3.739,3.739,0,0,1-.435-1.77h1.1A2.719,2.719,0,0,0,197.6-2.01a2.389,2.389,0,0,0,.923.93,2.874,2.874,0,0,0,1.455.345,2.926,2.926,0,0,0,1.455-.337,2.325,2.325,0,0,0,.923-.93,2.762,2.762,0,0,0,.323-1.342,2.828,2.828,0,0,0-.315-1.335,2.347,2.347,0,0,0-.923-.952,2.867,2.867,0,0,0-1.462-.352,3.6,3.6,0,0,0-1.185.2,2.519,2.519,0,0,0-.975.593h-1.035l.57-5.76H202.8v.975h-4.83l.315-.39-.45,4.5-.345-.075a3.457,3.457,0,0,1,1.1-.735,3.626,3.626,0,0,1,1.44-.27,3.922,3.922,0,0,1,2.07.51,3.391,3.391,0,0,1,1.268,1.313,3.54,3.54,0,0,1,.428,1.688v.2a3.492,3.492,0,0,1-.435,1.687,3.38,3.38,0,0,1-1.283,1.305A4.04,4.04,0,0,1,199.98.255ZM206,3V-7.935h.9V-4.53l-.27.03a4.612,4.612,0,0,1,.517-2.025,3.1,3.1,0,0,1,1.245-1.253,3.634,3.634,0,0,1,1.762-.428,3.65,3.65,0,0,1,1.583.338,3.677,3.677,0,0,1,1.215.915,4.044,4.044,0,0,1,.765,1.32,4.623,4.623,0,0,1,.262,1.552v.21a4.507,4.507,0,0,1-.27,1.553A4.153,4.153,0,0,1,212.933-1a3.677,3.677,0,0,1-1.215.915,3.686,3.686,0,0,1-1.6.338,3.572,3.572,0,0,1-1.732-.428,3.268,3.268,0,0,1-1.275-1.268,4.394,4.394,0,0,1-.533-2.07l.54,1.125V3ZM209.97-.735a2.732,2.732,0,0,0,1.545-.428,2.769,2.769,0,0,0,.99-1.17,3.85,3.85,0,0,0,.345-1.642,3.754,3.754,0,0,0-.352-1.658,2.841,2.841,0,0,0-1-1.155,2.705,2.705,0,0,0-1.53-.428,3.019,3.019,0,0,0-1.47.36,2.67,2.67,0,0,0-1.043,1.013,2.986,2.986,0,0,0-.382,1.538v.735a2.816,2.816,0,0,0,.382,1.477,2.7,2.7,0,0,0,1.043,1A3.019,3.019,0,0,0,209.97-.735ZM215.115,0l2.94-4.185v.3l-2.76-4.05h1.23l2.1,3.12h.21l2-3.12h1.155l-2.6,3.93V-4.29L222.48,0h-1.23l-2.43-3.375h-.195L216.27,0Z" transform="translate(16350 15136.2)" fill="#262626"/>
    <path id="Path_1026" data-name="Path 1026" d="M4.455.255A4.113,4.113,0,0,1,2.423-.21,3.169,3.169,0,0,1,1.155-1.47,3.566,3.566,0,0,1,.72-3.21h1.1A2.371,2.371,0,0,0,2.52-1.4a2.7,2.7,0,0,0,1.935.668,3.034,3.034,0,0,0,1.387-.3,2.162,2.162,0,0,0,.915-.855A2.521,2.521,0,0,0,7.08-3.18a2.426,2.426,0,0,0-.705-1.815,2.606,2.606,0,0,0-1.9-.69,2.675,2.675,0,0,0-.825.112A2.9,2.9,0,0,0,3.03-5.3l-.615-1.05L6.78-9.735l-.12-.24H1.155v-.975H7.71v1.62L3.84-6.315,3.105-6.3a3.548,3.548,0,0,1,.615-.2,3.438,3.438,0,0,1,.8-.082,4.035,4.035,0,0,1,1.973.45,3.185,3.185,0,0,1,1.253,1.2,3.23,3.23,0,0,1,.435,1.65v.21A3.255,3.255,0,0,1,7.74-1.44,3.242,3.242,0,0,1,6.48-.21,4.07,4.07,0,0,1,4.455.255Zm9.375,0a4,4,0,0,1-2.085-.5A3.35,3.35,0,0,1,10.47-1.575a3.739,3.739,0,0,1-.435-1.77h1.1a2.719,2.719,0,0,0,.323,1.335,2.389,2.389,0,0,0,.922.93,2.874,2.874,0,0,0,1.455.345,2.926,2.926,0,0,0,1.455-.337A2.325,2.325,0,0,0,16.208-2a2.762,2.762,0,0,0,.323-1.342,2.828,2.828,0,0,0-.315-1.335,2.347,2.347,0,0,0-.922-.952,2.867,2.867,0,0,0-1.463-.352,3.6,3.6,0,0,0-1.185.2,2.519,2.519,0,0,0-.975.593H10.635l.57-5.76H16.65v.975H11.82l.315-.39-.45,4.5L11.34-5.94a3.457,3.457,0,0,1,1.1-.735,3.626,3.626,0,0,1,1.44-.27,3.922,3.922,0,0,1,2.07.51,3.391,3.391,0,0,1,1.268,1.313,3.54,3.54,0,0,1,.427,1.688v.2a3.492,3.492,0,0,1-.435,1.687A3.38,3.38,0,0,1,15.923-.248,4.04,4.04,0,0,1,13.83.255ZM19.845,3V-7.935h.9V-4.53l-.27.03a4.612,4.612,0,0,1,.517-2.025,3.1,3.1,0,0,1,1.245-1.253A3.634,3.634,0,0,1,24-8.205a3.65,3.65,0,0,1,1.583.338,3.677,3.677,0,0,1,1.215.915,4.044,4.044,0,0,1,.765,1.32,4.623,4.623,0,0,1,.263,1.552v.21a4.508,4.508,0,0,1-.27,1.553A4.153,4.153,0,0,1,26.783-1a3.677,3.677,0,0,1-1.215.915,3.686,3.686,0,0,1-1.6.338,3.572,3.572,0,0,1-1.733-.428A3.268,3.268,0,0,1,20.962-1.44a4.394,4.394,0,0,1-.532-2.07l.54,1.125V3ZM23.82-.735a2.732,2.732,0,0,0,1.545-.428,2.769,2.769,0,0,0,.99-1.17A3.85,3.85,0,0,0,26.7-3.975a3.754,3.754,0,0,0-.353-1.658,2.841,2.841,0,0,0-1-1.155,2.705,2.705,0,0,0-1.53-.428,3.019,3.019,0,0,0-1.47.36,2.67,2.67,0,0,0-1.042,1.013A2.986,2.986,0,0,0,20.925-4.3v.735a2.816,2.816,0,0,0,.382,1.477,2.7,2.7,0,0,0,1.042,1A3.019,3.019,0,0,0,23.82-.735ZM28.965,0,31.9-4.185v.3l-2.76-4.05h1.23l2.1,3.12h.21l2-3.12h1.155l-2.6,3.93V-4.29L36.33,0H35.1L32.67-3.375h-.195L30.12,0ZM38.13,2.3l-.915-.33L38.52-1.65l.945.345ZM45.27,0V-1.665a2.953,2.953,0,0,1,.18-1.1,2.1,2.1,0,0,1,.63-.825,5.251,5.251,0,0,1,1.23-.72L49.455-5.31A3.346,3.346,0,0,0,50.7-6.255a2.386,2.386,0,0,0,.465-1.53,2.443,2.443,0,0,0-.653-1.807,2.422,2.422,0,0,0-1.792-.653,2.454,2.454,0,0,0-1.792.653,2.411,2.411,0,0,0-.668,1.807H45.165a3.751,3.751,0,0,1,.4-1.755,3.008,3.008,0,0,1,1.2-1.237,3.854,3.854,0,0,1,1.95-.458,3.8,3.8,0,0,1,1.95.458,3.073,3.073,0,0,1,1.185,1.215A3.491,3.491,0,0,1,52.26-7.89v.21a2.923,2.923,0,0,1-.668,1.958,5.1,5.1,0,0,1-1.747,1.3l-2.16,1a2.539,2.539,0,0,0-1.028.713,1.574,1.574,0,0,0-.263.938V-.435l-.33-.54H52.44V0ZM58.785.255A4.454,4.454,0,0,1,56.8-.15a3.584,3.584,0,0,1-1.35-1.133,4.959,4.959,0,0,1-.772-1.71,8.671,8.671,0,0,1-.247-2.123v-.7a7.751,7.751,0,0,1,.472-2.82,4.094,4.094,0,0,1,1.44-1.9,4.094,4.094,0,0,1,2.438-.69,4.06,4.06,0,0,1,2.43.69,4.114,4.114,0,0,1,1.432,1.9,7.751,7.751,0,0,1,.472,2.82v.7a8.671,8.671,0,0,1-.247,2.123,4.959,4.959,0,0,1-.772,1.71A3.584,3.584,0,0,1,60.75-.15,4.417,4.417,0,0,1,58.785.255Zm0-1.02a2.726,2.726,0,0,0,2.408-1.14A6.344,6.344,0,0,0,61.98-5.46a6.367,6.367,0,0,0-.8-3.638,2.754,2.754,0,0,0-2.393-1.118A2.77,2.77,0,0,0,56.377-9.1a6.3,6.3,0,0,0-.8,3.608,6.418,6.418,0,0,0,.787,3.578A2.736,2.736,0,0,0,58.785-.765ZM65.745,3V-7.935h.9V-4.53l-.27.03a4.612,4.612,0,0,1,.518-2.025,3.1,3.1,0,0,1,1.245-1.253A3.634,3.634,0,0,1,69.9-8.205a3.65,3.65,0,0,1,1.582.338,3.677,3.677,0,0,1,1.215.915,4.044,4.044,0,0,1,.765,1.32,4.623,4.623,0,0,1,.262,1.552v.21a4.507,4.507,0,0,1-.27,1.553A4.153,4.153,0,0,1,72.682-1a3.677,3.677,0,0,1-1.215.915,3.686,3.686,0,0,1-1.6.338,3.572,3.572,0,0,1-1.732-.428A3.268,3.268,0,0,1,66.862-1.44a4.394,4.394,0,0,1-.533-2.07l.54,1.125V3ZM69.72-.735a2.732,2.732,0,0,0,1.545-.428,2.769,2.769,0,0,0,.99-1.17A3.85,3.85,0,0,0,72.6-3.975a3.754,3.754,0,0,0-.352-1.658,2.841,2.841,0,0,0-1-1.155,2.705,2.705,0,0,0-1.53-.428,3.019,3.019,0,0,0-1.47.36,2.67,2.67,0,0,0-1.042,1.013A2.986,2.986,0,0,0,66.825-4.3v.735a2.816,2.816,0,0,0,.382,1.477,2.7,2.7,0,0,0,1.042,1A3.019,3.019,0,0,0,69.72-.735ZM74.865,0,77.8-4.185v.3l-2.76-4.05h1.23l2.1,3.12h.21l2-3.12h1.155l-2.6,3.93V-4.29L82.23,0H81L78.57-3.375h-.195L76.02,0ZM94.2,0,89.565-4.92a14.8,14.8,0,0,1-1.028-1.23,3.827,3.827,0,0,1-.548-1.012,3.279,3.279,0,0,1-.165-1.057,3.157,3.157,0,0,1,.353-1.56,2.209,2.209,0,0,1,1.118-.953,5.151,5.151,0,0,1,1.98-.322q.525,0,1.125.045t1.125.1v.99q-.33-.03-.787-.068t-.9-.06q-.443-.022-.772-.023a2.349,2.349,0,0,0-1.665.48,1.835,1.835,0,0,0-.5,1.38,2.568,2.568,0,0,0,.33,1.3A7.405,7.405,0,0,0,90.27-5.58L95.52,0ZM90.345.255a4.3,4.3,0,0,1-1.92-.413A3.269,3.269,0,0,1,87.1-1.3a2.941,2.941,0,0,1-.48-1.658v-.18a3.16,3.16,0,0,1,.607-1.913A4.573,4.573,0,0,1,88.74-6.375l.57.8a2.919,2.919,0,0,0-1.162,1.042,2.689,2.689,0,0,0-.442,1.493,2.159,2.159,0,0,0,.368,1.283,2.339,2.339,0,0,0,.967.787,3.143,3.143,0,0,0,1.305.27,2.912,2.912,0,0,0,1.9-.638A3.919,3.919,0,0,0,93.435-3.2a9.6,9.6,0,0,0,.4-2.993h1.005a11.544,11.544,0,0,1-.285,2.678,6.123,6.123,0,0,1-.855,2.033A3.924,3.924,0,0,1,92.287-.2,4.079,4.079,0,0,1,90.345.255ZM91.98-6.03v-.9h3.8v.9ZM102.885,0V-10.365l.5.39H100.4v-.975h3.615V0Zm7.755.255a4,4,0,0,1-2.085-.5,3.35,3.35,0,0,1-1.275-1.328,3.739,3.739,0,0,1-.435-1.77h1.1a2.719,2.719,0,0,0,.322,1.335,2.389,2.389,0,0,0,.923.93,2.874,2.874,0,0,0,1.455.345,2.926,2.926,0,0,0,1.455-.337,2.325,2.325,0,0,0,.923-.93,2.762,2.762,0,0,0,.322-1.342,2.828,2.828,0,0,0-.315-1.335,2.347,2.347,0,0,0-.923-.952,2.867,2.867,0,0,0-1.463-.352,3.6,3.6,0,0,0-1.185.2,2.519,2.519,0,0,0-.975.593h-1.035l.57-5.76h5.445v.975h-4.83l.315-.39-.45,4.5-.345-.075a3.457,3.457,0,0,1,1.1-.735,3.626,3.626,0,0,1,1.44-.27,3.922,3.922,0,0,1,2.07.51,3.391,3.391,0,0,1,1.268,1.313,3.54,3.54,0,0,1,.427,1.688v.2a3.492,3.492,0,0,1-.435,1.687,3.38,3.38,0,0,1-1.283,1.305A4.04,4.04,0,0,1,110.64.255ZM116.655,3V-7.935h.9V-4.53l-.27.03a4.612,4.612,0,0,1,.518-2.025,3.1,3.1,0,0,1,1.245-1.253,3.634,3.634,0,0,1,1.762-.428,3.65,3.65,0,0,1,1.582.338,3.677,3.677,0,0,1,1.215.915,4.044,4.044,0,0,1,.765,1.32,4.623,4.623,0,0,1,.262,1.552v.21a4.507,4.507,0,0,1-.27,1.553A4.153,4.153,0,0,1,123.592-1a3.677,3.677,0,0,1-1.215.915,3.686,3.686,0,0,1-1.6.338,3.572,3.572,0,0,1-1.732-.428,3.268,3.268,0,0,1-1.275-1.268,4.394,4.394,0,0,1-.533-2.07l.54,1.125V3ZM120.63-.735a2.732,2.732,0,0,0,1.545-.428,2.769,2.769,0,0,0,.99-1.17,3.85,3.85,0,0,0,.345-1.642,3.754,3.754,0,0,0-.352-1.658,2.841,2.841,0,0,0-1-1.155,2.705,2.705,0,0,0-1.53-.428,3.019,3.019,0,0,0-1.47.36,2.67,2.67,0,0,0-1.042,1.013,2.986,2.986,0,0,0-.382,1.538v.735a2.816,2.816,0,0,0,.382,1.477,2.7,2.7,0,0,0,1.042,1A3.019,3.019,0,0,0,120.63-.735ZM125.775,0l2.94-4.185v.3l-2.76-4.05h1.23l2.1,3.12h.21l2-3.12h1.155l-2.6,3.93V-4.29L133.14,0h-1.23l-2.43-3.375h-.195L126.93,0Z" transform="translate(16267 15251.2)" fill="#262626"/>
    <path id="Path_1027" data-name="Path 1027" d="M4.455.255A4.113,4.113,0,0,1,2.423-.21,3.169,3.169,0,0,1,1.155-1.47,3.566,3.566,0,0,1,.72-3.21h1.1A2.371,2.371,0,0,0,2.52-1.4a2.7,2.7,0,0,0,1.935.668,3.034,3.034,0,0,0,1.387-.3,2.162,2.162,0,0,0,.915-.855A2.521,2.521,0,0,0,7.08-3.18a2.426,2.426,0,0,0-.705-1.815,2.606,2.606,0,0,0-1.9-.69,2.675,2.675,0,0,0-.825.112A2.9,2.9,0,0,0,3.03-5.3l-.615-1.05L6.78-9.735l-.12-.24H1.155v-.975H7.71v1.62L3.84-6.315,3.105-6.3a3.548,3.548,0,0,1,.615-.2,3.438,3.438,0,0,1,.8-.082,4.035,4.035,0,0,1,1.973.45,3.185,3.185,0,0,1,1.253,1.2,3.23,3.23,0,0,1,.435,1.65v.21A3.255,3.255,0,0,1,7.74-1.44,3.242,3.242,0,0,1,6.48-.21,4.07,4.07,0,0,1,4.455.255Zm9.375,0a4,4,0,0,1-2.085-.5A3.35,3.35,0,0,1,10.47-1.575a3.739,3.739,0,0,1-.435-1.77h1.1a2.719,2.719,0,0,0,.323,1.335,2.389,2.389,0,0,0,.922.93,2.874,2.874,0,0,0,1.455.345,2.926,2.926,0,0,0,1.455-.337A2.325,2.325,0,0,0,16.208-2a2.762,2.762,0,0,0,.323-1.342,2.828,2.828,0,0,0-.315-1.335,2.347,2.347,0,0,0-.922-.952,2.867,2.867,0,0,0-1.463-.352,3.6,3.6,0,0,0-1.185.2,2.519,2.519,0,0,0-.975.593H10.635l.57-5.76H16.65v.975H11.82l.315-.39-.45,4.5L11.34-5.94a3.457,3.457,0,0,1,1.1-.735,3.626,3.626,0,0,1,1.44-.27,3.922,3.922,0,0,1,2.07.51,3.391,3.391,0,0,1,1.268,1.313,3.54,3.54,0,0,1,.427,1.688v.2a3.492,3.492,0,0,1-.435,1.687A3.38,3.38,0,0,1,15.923-.248,4.04,4.04,0,0,1,13.83.255ZM19.845,3V-7.935h.9V-4.53l-.27.03a4.612,4.612,0,0,1,.517-2.025,3.1,3.1,0,0,1,1.245-1.253A3.634,3.634,0,0,1,24-8.205a3.65,3.65,0,0,1,1.583.338,3.677,3.677,0,0,1,1.215.915,4.044,4.044,0,0,1,.765,1.32,4.623,4.623,0,0,1,.263,1.552v.21a4.508,4.508,0,0,1-.27,1.553A4.153,4.153,0,0,1,26.783-1a3.677,3.677,0,0,1-1.215.915,3.686,3.686,0,0,1-1.6.338,3.572,3.572,0,0,1-1.733-.428A3.268,3.268,0,0,1,20.962-1.44a4.394,4.394,0,0,1-.532-2.07l.54,1.125V3ZM23.82-.735a2.732,2.732,0,0,0,1.545-.428,2.769,2.769,0,0,0,.99-1.17A3.85,3.85,0,0,0,26.7-3.975a3.754,3.754,0,0,0-.353-1.658,2.841,2.841,0,0,0-1-1.155,2.705,2.705,0,0,0-1.53-.428,3.019,3.019,0,0,0-1.47.36,2.67,2.67,0,0,0-1.042,1.013A2.986,2.986,0,0,0,20.925-4.3v.735a2.816,2.816,0,0,0,.382,1.477,2.7,2.7,0,0,0,1.042,1A3.019,3.019,0,0,0,23.82-.735ZM28.965,0,31.9-4.185v.3l-2.76-4.05h1.23l2.1,3.12h.21l2-3.12h1.155l-2.6,3.93V-4.29L36.33,0H35.1L32.67-3.375h-.195L30.12,0ZM38.13,2.3l-.915-.33L38.52-1.65l.945.345ZM45.27,0V-1.665a2.953,2.953,0,0,1,.18-1.1,2.1,2.1,0,0,1,.63-.825,5.251,5.251,0,0,1,1.23-.72L49.455-5.31A3.346,3.346,0,0,0,50.7-6.255a2.386,2.386,0,0,0,.465-1.53,2.443,2.443,0,0,0-.653-1.807,2.422,2.422,0,0,0-1.792-.653,2.454,2.454,0,0,0-1.792.653,2.411,2.411,0,0,0-.668,1.807H45.165a3.751,3.751,0,0,1,.4-1.755,3.008,3.008,0,0,1,1.2-1.237,3.854,3.854,0,0,1,1.95-.458,3.8,3.8,0,0,1,1.95.458,3.073,3.073,0,0,1,1.185,1.215A3.491,3.491,0,0,1,52.26-7.89v.21a2.923,2.923,0,0,1-.668,1.958,5.1,5.1,0,0,1-1.747,1.3l-2.16,1a2.539,2.539,0,0,0-1.028.713,1.574,1.574,0,0,0-.263.938V-.435l-.33-.54H52.44V0ZM58.785.255A4.454,4.454,0,0,1,56.8-.15a3.584,3.584,0,0,1-1.35-1.133,4.959,4.959,0,0,1-.772-1.71,8.671,8.671,0,0,1-.247-2.123v-.7a7.751,7.751,0,0,1,.472-2.82,4.094,4.094,0,0,1,1.44-1.9,4.094,4.094,0,0,1,2.438-.69,4.06,4.06,0,0,1,2.43.69,4.114,4.114,0,0,1,1.432,1.9,7.751,7.751,0,0,1,.472,2.82v.7a8.671,8.671,0,0,1-.247,2.123,4.959,4.959,0,0,1-.772,1.71A3.584,3.584,0,0,1,60.75-.15,4.417,4.417,0,0,1,58.785.255Zm0-1.02a2.726,2.726,0,0,0,2.408-1.14A6.344,6.344,0,0,0,61.98-5.46a6.367,6.367,0,0,0-.8-3.638,2.754,2.754,0,0,0-2.393-1.118A2.77,2.77,0,0,0,56.377-9.1a6.3,6.3,0,0,0-.8,3.608,6.418,6.418,0,0,0,.787,3.578A2.736,2.736,0,0,0,58.785-.765ZM65.745,3V-7.935h.9V-4.53l-.27.03a4.612,4.612,0,0,1,.518-2.025,3.1,3.1,0,0,1,1.245-1.253A3.634,3.634,0,0,1,69.9-8.205a3.65,3.65,0,0,1,1.582.338,3.677,3.677,0,0,1,1.215.915,4.044,4.044,0,0,1,.765,1.32,4.623,4.623,0,0,1,.262,1.552v.21a4.507,4.507,0,0,1-.27,1.553A4.153,4.153,0,0,1,72.682-1a3.677,3.677,0,0,1-1.215.915,3.686,3.686,0,0,1-1.6.338,3.572,3.572,0,0,1-1.732-.428A3.268,3.268,0,0,1,66.862-1.44a4.394,4.394,0,0,1-.533-2.07l.54,1.125V3ZM69.72-.735a2.732,2.732,0,0,0,1.545-.428,2.769,2.769,0,0,0,.99-1.17A3.85,3.85,0,0,0,72.6-3.975a3.754,3.754,0,0,0-.352-1.658,2.841,2.841,0,0,0-1-1.155,2.705,2.705,0,0,0-1.53-.428,3.019,3.019,0,0,0-1.47.36,2.67,2.67,0,0,0-1.042,1.013A2.986,2.986,0,0,0,66.825-4.3v.735a2.816,2.816,0,0,0,.382,1.477,2.7,2.7,0,0,0,1.042,1A3.019,3.019,0,0,0,69.72-.735ZM74.865,0,77.8-4.185v.3l-2.76-4.05h1.23l2.1,3.12h.21l2-3.12h1.155l-2.6,3.93V-4.29L82.23,0H81L78.57-3.375h-.195L76.02,0ZM94.2,0,89.565-4.92a14.8,14.8,0,0,1-1.028-1.23,3.827,3.827,0,0,1-.548-1.012,3.279,3.279,0,0,1-.165-1.057,3.157,3.157,0,0,1,.353-1.56,2.209,2.209,0,0,1,1.118-.953,5.151,5.151,0,0,1,1.98-.322q.525,0,1.125.045t1.125.1v.99q-.33-.03-.787-.068t-.9-.06q-.443-.022-.772-.023a2.349,2.349,0,0,0-1.665.48,1.835,1.835,0,0,0-.5,1.38,2.568,2.568,0,0,0,.33,1.3A7.405,7.405,0,0,0,90.27-5.58L95.52,0ZM90.345.255a4.3,4.3,0,0,1-1.92-.413A3.269,3.269,0,0,1,87.1-1.3a2.941,2.941,0,0,1-.48-1.658v-.18a3.16,3.16,0,0,1,.607-1.913A4.573,4.573,0,0,1,88.74-6.375l.57.8a2.919,2.919,0,0,0-1.162,1.042,2.689,2.689,0,0,0-.442,1.493,2.159,2.159,0,0,0,.368,1.283,2.339,2.339,0,0,0,.967.787,3.143,3.143,0,0,0,1.305.27,2.912,2.912,0,0,0,1.9-.638A3.919,3.919,0,0,0,93.435-3.2a9.6,9.6,0,0,0,.4-2.993h1.005a11.544,11.544,0,0,1-.285,2.678,6.123,6.123,0,0,1-.855,2.033A3.924,3.924,0,0,1,92.287-.2,4.079,4.079,0,0,1,90.345.255ZM91.98-6.03v-.9h3.8v.9ZM102.885,0V-10.365l.5.39H100.4v-.975h3.615V0Zm7.755.255a4,4,0,0,1-2.085-.5,3.35,3.35,0,0,1-1.275-1.328,3.739,3.739,0,0,1-.435-1.77h1.1a2.719,2.719,0,0,0,.322,1.335,2.389,2.389,0,0,0,.923.93,2.874,2.874,0,0,0,1.455.345,2.926,2.926,0,0,0,1.455-.337,2.325,2.325,0,0,0,.923-.93,2.762,2.762,0,0,0,.322-1.342,2.828,2.828,0,0,0-.315-1.335,2.347,2.347,0,0,0-.923-.952,2.867,2.867,0,0,0-1.463-.352,3.6,3.6,0,0,0-1.185.2,2.519,2.519,0,0,0-.975.593h-1.035l.57-5.76h5.445v.975h-4.83l.315-.39-.45,4.5-.345-.075a3.457,3.457,0,0,1,1.1-.735,3.626,3.626,0,0,1,1.44-.27,3.922,3.922,0,0,1,2.07.51,3.391,3.391,0,0,1,1.268,1.313,3.54,3.54,0,0,1,.427,1.688v.2a3.492,3.492,0,0,1-.435,1.687,3.38,3.38,0,0,1-1.283,1.305A4.04,4.04,0,0,1,110.64.255ZM116.655,3V-7.935h.9V-4.53l-.27.03a4.612,4.612,0,0,1,.518-2.025,3.1,3.1,0,0,1,1.245-1.253,3.634,3.634,0,0,1,1.762-.428,3.65,3.65,0,0,1,1.582.338,3.677,3.677,0,0,1,1.215.915,4.044,4.044,0,0,1,.765,1.32,4.623,4.623,0,0,1,.262,1.552v.21a4.507,4.507,0,0,1-.27,1.553A4.153,4.153,0,0,1,123.592-1a3.677,3.677,0,0,1-1.215.915,3.686,3.686,0,0,1-1.6.338,3.572,3.572,0,0,1-1.732-.428,3.268,3.268,0,0,1-1.275-1.268,4.394,4.394,0,0,1-.533-2.07l.54,1.125V3ZM120.63-.735a2.732,2.732,0,0,0,1.545-.428,2.769,2.769,0,0,0,.99-1.17,3.85,3.85,0,0,0,.345-1.642,3.754,3.754,0,0,0-.352-1.658,2.841,2.841,0,0,0-1-1.155,2.705,2.705,0,0,0-1.53-.428,3.019,3.019,0,0,0-1.47.36,2.67,2.67,0,0,0-1.042,1.013,2.986,2.986,0,0,0-.382,1.538v.735a2.816,2.816,0,0,0,.382,1.477,2.7,2.7,0,0,0,1.042,1A3.019,3.019,0,0,0,120.63-.735ZM125.775,0l2.94-4.185v.3l-2.76-4.05h1.23l2.1,3.12h.21l2-3.12h1.155l-2.6,3.93V-4.29L133.14,0h-1.23l-2.43-3.375h-.195L126.93,0Z" transform="translate(16286 15368.2)" fill="#262626"/>
    <path id="Path_829" data-name="Path 829" d="M44.156,0H62.7L39.444-53.2H21.812L-1.444,0H16.8l3.572-9.272H40.584ZM25.308-22.192l5.168-13.376,5.168,13.376Zm58.368-20.14c-6.46,0-13.832,1.672-18.7,4.712L70.452-26.3a18.753,18.753,0,0,1,10.64-3.268c4.864,0,7.3,1.672,7.828,4.864H82c-12.92,0-19,4.484-19,12.54C63-5.016,68.248.76,78.432.76c5.852,0,9.8-2.052,11.78-6.232V0h15.96V-22.344C106.172-36.176,97.964-42.332,83.676-42.332ZM83.6-9.576c-2.584,0-4.1-1.444-4.1-3.344,0-2.28,1.6-3.5,5.244-3.5H89v2.888A5.436,5.436,0,0,1,83.6-9.576Z" transform="translate(15947 15136.2)" fill="#262626" stroke="rgba(0,0,0,0)" stroke-width="1"/>
    <path id="Path_821" data-name="Path 821" d="M17.94,0,17.9-14H14.02L9.58-6.54,5.02-14H1.14V0h4.3V-6.16l3.04,4.9h2.08L13.6-6.38,13.64,0Zm7.92.2c3.72,0,6.36-2.36,6.36-5.68s-2.64-5.66-6.36-5.66c-3.7,0-6.36,2.34-6.36,5.66S22.16.2,25.86.2Zm0-3.52c-1,0-1.78-.74-1.78-2.16s.78-2.14,1.78-2.14,1.78.72,1.78,2.14S26.86-3.32,25.86-3.32Zm15.38-7.82a4.557,4.557,0,0,0-3.3,1.28v-1.08h-4.3V0h4.52V-5.14c0-1.62.78-2.2,1.7-2.2.82,0,1.34.52,1.34,1.88V0h4.52V-6.24C45.72-9.68,43.76-11.14,41.24-11.14ZM54.66-3.52a1.844,1.844,0,0,1-1.02.3.939.939,0,0,1-.94-1.06V-7.04h2.24v-3.3H52.7V-13.4H48.18v3.06h-1.5v3.3h1.5v2.8C48.18-1.22,49.94.2,52.96.2a5.839,5.839,0,0,0,2.78-.58ZM61.16.2c3.8,0,5.66-1.72,5.66-3.7,0-4.38-6.28-2.9-6.28-4.04,0-.26.32-.52,1.48-.52a6.481,6.481,0,0,1,3.16.8l1.24-2.98a10.32,10.32,0,0,0-4.46-.9c-3.68,0-5.6,1.68-5.6,3.74,0,4.38,6.3,2.88,6.3,4,0,.32-.3.52-1.4.52a7.916,7.916,0,0,1-3.82-.98L56.2-.88A10.976,10.976,0,0,0,61.16.2ZM79.82-5.48c0-3.7-2.78-5.66-6.02-5.66-3.54,0-6.2,2.34-6.2,5.66C67.6-2.22,70.2.2,74.22.2A6.089,6.089,0,0,0,79-1.56L76.64-3.94a3.342,3.342,0,0,1-2.28.8,2.116,2.116,0,0,1-2.2-1.28h7.6C79.78-4.74,79.82-5.16,79.82-5.48ZM73.84-8.06A1.7,1.7,0,0,1,75.6-6.6H72.08A1.684,1.684,0,0,1,73.84-8.06Zm11.7-1.7v-1.18h-4.3V0h4.52V-4.86a2.074,2.074,0,0,1,2.32-2.36,6.264,6.264,0,0,1,1,.08v-4A4.494,4.494,0,0,0,85.54-9.76Zm9.12,0v-1.18h-4.3V0h4.52V-4.86A2.074,2.074,0,0,1,97.2-7.22a6.264,6.264,0,0,1,1,.08v-4A4.494,4.494,0,0,0,94.66-9.76Zm9.62-1.38A9.925,9.925,0,0,0,99.36-9.9l1.44,2.98a4.935,4.935,0,0,1,2.8-.86c1.28,0,1.92.44,2.06,1.28h-1.82c-3.4,0-5,1.18-5,3.3,0,1.88,1.38,3.4,4.06,3.4A3.085,3.085,0,0,0,106-1.44V0h4.2V-5.88C110.2-9.52,108.04-11.14,104.28-11.14Zm-.02,8.62c-.68,0-1.08-.38-1.08-.88,0-.6.42-.92,1.38-.92h1.12v.76A1.431,1.431,0,0,1,104.26-2.52Zm14.88-1a1.844,1.844,0,0,1-1.02.3.939.939,0,0,1-.94-1.06V-7.04h2.24v-3.3h-2.24V-13.4h-4.52v3.06h-1.5v3.3h1.5v2.8c0,3.02,1.76,4.44,4.78,4.44a5.839,5.839,0,0,0,2.78-.58Z" transform="translate(16081 15097.2)" fill="#262626" stroke="rgba(0,0,0,0)" stroke-width="1"/>
    <path id="Path_825" data-name="Path 825" d="M6.357-5.029H4.5V0H1.074V-14.219h5.6A6.246,6.246,0,0,1,10.625-13.1a3.8,3.8,0,0,1,1.426,3.17,4.616,4.616,0,0,1-.6,2.458,4.263,4.263,0,0,1-1.88,1.58L12.539-.147V0H8.867ZM4.5-7.666H6.67A1.946,1.946,0,0,0,8.14-8.18a1.987,1.987,0,0,0,.493-1.434,2.01,2.01,0,0,0-.5-1.444,1.928,1.928,0,0,0-1.465-.524H4.5Zm9.053,2.285A6.236,6.236,0,0,1,14.17-8.2a4.4,4.4,0,0,1,1.768-1.9,5.323,5.323,0,0,1,2.705-.664,4.858,4.858,0,0,1,3.74,1.47,5.64,5.64,0,0,1,1.367,4v.117a5.472,5.472,0,0,1-1.372,3.921A4.871,4.871,0,0,1,18.662.2a4.927,4.927,0,0,1-3.623-1.353,5.29,5.29,0,0,1-1.475-3.667Zm3.291.205A3.932,3.932,0,0,0,17.3-3.027a1.529,1.529,0,0,0,1.357.684q1.758,0,1.8-2.705v-.332q0-2.842-1.816-2.842-1.65,0-1.787,2.451ZM35.01-5.2A6.44,6.44,0,0,1,33.936-1.2,3.6,3.6,0,0,1,30.908.2a3.122,3.122,0,0,1-2.6-1.279L28.174,0H25.225V-15h3.291v5.283a3.013,3.013,0,0,1,2.373-1.045,3.6,3.6,0,0,1,3.047,1.416A6.473,6.473,0,0,1,35.01-5.361Zm-3.3-.21A4.3,4.3,0,0,0,31.3-7.574a1.366,1.366,0,0,0-1.245-.648,1.576,1.576,0,0,0-1.543.848v4.192a1.585,1.585,0,0,0,1.563.838,1.4,1.4,0,0,0,1.475-1.131A8.121,8.121,0,0,0,31.709-5.405Zm4.336.024A6.236,6.236,0,0,1,36.66-8.2a4.4,4.4,0,0,1,1.768-1.9,5.323,5.323,0,0,1,2.705-.664,4.858,4.858,0,0,1,3.74,1.47,5.64,5.64,0,0,1,1.367,4v.117a5.472,5.472,0,0,1-1.372,3.921A4.871,4.871,0,0,1,41.152.2a4.927,4.927,0,0,1-3.623-1.353,5.29,5.29,0,0,1-1.475-3.667Zm3.291.205a3.932,3.932,0,0,0,.459,2.148,1.529,1.529,0,0,0,1.357.684q1.758,0,1.8-2.705v-.332q0-2.842-1.816-2.842-1.65,0-1.787,2.451Zm12.188-8.018v2.627h1.738v2.285H51.523v4.834a1.234,1.234,0,0,0,.215.83,1.152,1.152,0,0,0,.85.234,4.828,4.828,0,0,0,.82-.059V-.088A6.074,6.074,0,0,1,51.553.2a3.448,3.448,0,0,1-2.51-.8,3.282,3.282,0,0,1-.811-2.432V-8.281H46.885v-2.285h1.348v-2.627Zm2.324,7.813A6.236,6.236,0,0,1,54.463-8.2a4.4,4.4,0,0,1,1.768-1.9,5.323,5.323,0,0,1,2.705-.664,4.858,4.858,0,0,1,3.74,1.47,5.64,5.64,0,0,1,1.367,4v.117a5.472,5.472,0,0,1-1.372,3.921A4.871,4.871,0,0,1,58.955.2a4.927,4.927,0,0,1-3.623-1.353,5.29,5.29,0,0,1-1.475-3.667Zm3.291.205A3.932,3.932,0,0,0,57.6-3.027a1.529,1.529,0,0,0,1.357.684q1.758,0,1.8-2.705v-.332q0-2.842-1.816-2.842-1.65,0-1.787,2.451Z" transform="translate(16081 15211.2)" fill="#262626" stroke="rgba(0,0,0,0)" stroke-width="1"/>
    <path id="Path_822" data-name="Path 822" d="M8.1.2A8,8,0,0,1,4.248-.713,6.565,6.565,0,0,1,1.6-3.306,7.7,7.7,0,0,1,.645-7.178,7.721,7.721,0,0,1,1.6-11.06a6.565,6.565,0,0,1,2.646-2.593A8,8,0,0,1,8.1-14.561,7.8,7.8,0,0,1,12.549-13.3a6.493,6.493,0,0,1,2.607,3.452L11.68-8.623A3.458,3.458,0,0,0,10.356-10.5,3.8,3.8,0,0,0,8.1-11.182a3.593,3.593,0,0,0-2.705,1.094,4.015,4.015,0,0,0-1.055,2.91A4,4,0,0,0,5.391-4.272,3.6,3.6,0,0,0,8.1-3.184a3.8,3.8,0,0,0,2.261-.684A3.458,3.458,0,0,0,11.68-5.742l3.477,1.221a6.493,6.493,0,0,1-2.607,3.452A7.8,7.8,0,0,1,8.1.2ZM26.973-5.283l-.039.82H19.551a2.031,2.031,0,0,0,.713,1.416,2.3,2.3,0,0,0,1.494.488,1.734,1.734,0,0,0,1.816-1.1l3.281.42A4.379,4.379,0,0,1,25.029-.7a5.757,5.757,0,0,1-3.252.9,6.007,6.007,0,0,1-4.229-1.411,5.088,5.088,0,0,1-1.533-3.94,5.149,5.149,0,0,1,1.543-3.965,5.781,5.781,0,0,1,4.1-1.436,6.759,6.759,0,0,1,2.1.308,4.88,4.88,0,0,1,1.67.928,4.041,4.041,0,0,1,1.128,1.65A6.7,6.7,0,0,1,26.973-5.283ZM21.68-8.1a1.845,1.845,0,0,0-2.031,1.377h3.828a1.667,1.667,0,0,0-.625-1.021A1.906,1.906,0,0,0,21.68-8.1Zm10.5-.693a3.572,3.572,0,0,1,1.4-1.167,4.362,4.362,0,0,1,2.041-.5v3.115a8.024,8.024,0,0,0-1.479.112,2.5,2.5,0,0,0-.991.405,1.6,1.6,0,0,0-.586.8,3.99,3.99,0,0,0-.176,1.294V0h-3.6V-10.342h3.4Zm15,3.506-.039.82H39.756a2.031,2.031,0,0,0,.713,1.416,2.3,2.3,0,0,0,1.494.488,1.734,1.734,0,0,0,1.816-1.1l3.281.42A4.379,4.379,0,0,1,45.234-.7a5.757,5.757,0,0,1-3.252.9,6.007,6.007,0,0,1-4.229-1.411,5.088,5.088,0,0,1-1.533-3.94,5.149,5.149,0,0,1,1.543-3.965,5.781,5.781,0,0,1,4.1-1.436,6.759,6.759,0,0,1,2.1.308,4.88,4.88,0,0,1,1.67.928,4.041,4.041,0,0,1,1.128,1.65A6.7,6.7,0,0,1,47.178-5.283ZM41.885-8.1a1.845,1.845,0,0,0-2.031,1.377h3.828a1.667,1.667,0,0,0-.625-1.021A1.906,1.906,0,0,0,41.885-8.1ZM55.43-10.537a5.222,5.222,0,0,1,1.953.366,4.923,4.923,0,0,1,1.611,1.035,4.663,4.663,0,0,1,1.094,1.7,6.314,6.314,0,0,1,.4,2.295,6.275,6.275,0,0,1-.4,2.29,4.718,4.718,0,0,1-1.094,1.7A4.884,4.884,0,0,1,57.383-.1,5.222,5.222,0,0,1,55.43.264a4.776,4.776,0,0,1-1.8-.322,2.569,2.569,0,0,1-1.211-.928L52.344,0H48.984V-15h3.564v5.537a2.715,2.715,0,0,1,1.2-.8A4.941,4.941,0,0,1,55.43-10.537Zm-.84,7.881a2.26,2.26,0,0,0,1.675-.664,2.465,2.465,0,0,0,.659-1.816,2.465,2.465,0,0,0-.659-1.816,2.26,2.26,0,0,0-1.675-.664,2.272,2.272,0,0,0-1.685.664,2.465,2.465,0,0,0-.659,1.816,2.465,2.465,0,0,0,.659,1.816A2.272,2.272,0,0,0,54.59-2.656ZM65.645-8.789a3.572,3.572,0,0,1,1.4-1.167,4.362,4.362,0,0,1,2.041-.5v3.115a8.024,8.024,0,0,0-1.479.112,2.5,2.5,0,0,0-.991.405,1.6,1.6,0,0,0-.586.8,3.99,3.99,0,0,0-.176,1.294V0h-3.6V-10.342h3.4Zm6.68-2.549a1.907,1.907,0,0,1-1.387-.566,1.858,1.858,0,0,1-.576-1.377,1.82,1.82,0,0,1,.576-1.353,1.915,1.915,0,0,1,1.387-.562,1.848,1.848,0,0,1,1.348.562,1.836,1.836,0,0,1,.566,1.353,1.874,1.874,0,0,1-.566,1.377A1.841,1.841,0,0,1,72.324-11.338ZM70.508,0V-10.342h3.584V0ZM87.148.2a8.12,8.12,0,0,1-2.886-.488A5.224,5.224,0,0,1,82.1-1.787,4.582,4.582,0,0,1,81.045-4.2L84.9-5.078a2.418,2.418,0,0,0,.728,1.714,2.417,2.417,0,0,0,1.675.581,1.752,1.752,0,0,0,1.133-.332,1.149,1.149,0,0,0,.41-.947,1.125,1.125,0,0,0-.435-.859,3.14,3.14,0,0,0-.845-.552q-.41-.171-1.426-.513-.059-.02-.093-.034a.689.689,0,0,0-.088-.029.506.506,0,0,1-.093-.034q-.537-.176-.884-.3t-.845-.352a5.887,5.887,0,0,1-.815-.435,6.385,6.385,0,0,1-.684-.532,2.763,2.763,0,0,1-.571-.674,3.746,3.746,0,0,1-.347-.835,3.648,3.648,0,0,1-.142-1.03,3.826,3.826,0,0,1,1.455-3.149,5.9,5.9,0,0,1,3.809-1.167,8.431,8.431,0,0,1,1.9.21,7.018,7.018,0,0,1,1.738.654,4.218,4.218,0,0,1,1.416,1.24,4.641,4.641,0,0,1,.8,1.86l-3.574.879a1.914,1.914,0,0,0-2.041-1.865,2.259,2.259,0,0,0-1.274.317,1.042,1.042,0,0,0-.474.923.681.681,0,0,0,.127.391,1.259,1.259,0,0,0,.313.317,2.757,2.757,0,0,0,.527.273q.342.142.62.239t.747.244q.283.088.43.137.42.137.708.239t.7.269a6.76,6.76,0,0,1,.7.322q.288.156.645.376a3.953,3.953,0,0,1,.605.449,5.049,5.049,0,0,1,.5.537,2.985,2.985,0,0,1,.4.64,3.775,3.775,0,0,1,.244.752,4.064,4.064,0,0,1,.093.879,4.342,4.342,0,0,1-.454,2.021,3.671,3.671,0,0,1-1.24,1.4,5.971,5.971,0,0,1-1.763.786A8.029,8.029,0,0,1,87.148.2ZM103.77-2.617A8.989,8.989,0,0,0,104-.3V0h-3.252l-.215-1.064a3.079,3.079,0,0,1-1.426.947A5.752,5.752,0,0,1,97.227.2a5.208,5.208,0,0,1-.947-.083A3.479,3.479,0,0,1,95.4-.181a2.592,2.592,0,0,1-.742-.527,2.362,2.362,0,0,1-.5-.82,3.225,3.225,0,0,1-.19-1.147,3.162,3.162,0,0,1,.2-1.143,2.656,2.656,0,0,1,.508-.85,3.15,3.15,0,0,1,.82-.62,6.456,6.456,0,0,1,1.006-.449q.5-.171,1.191-.347l1.66-.42a2.292,2.292,0,0,0,.815-.327.574.574,0,0,0,.229-.474.668.668,0,0,0-.244-.537,1.189,1.189,0,0,0-.537-.264,3.292,3.292,0,0,0-.645-.059,2,2,0,0,0-1.2.322,1.626,1.626,0,0,0-.581,1.084l-3.135-.518a3.705,3.705,0,0,1,1.611-2.48,6.629,6.629,0,0,1,3.525-.781q.488,0,.908.034a7.18,7.18,0,0,1,.9.137,4.4,4.4,0,0,1,.869.273,3.431,3.431,0,0,1,.752.464,2.709,2.709,0,0,1,.61.684,3.413,3.413,0,0,1,.391.957,5.075,5.075,0,0,1,.146,1.27Zm-5.4.479a2.232,2.232,0,0,0,1.514-.63,2.208,2.208,0,0,0,.7-1.733l-2.334.781a2.513,2.513,0,0,0-.674.317.563.563,0,0,0-.234.483.666.666,0,0,0,.293.571A1.225,1.225,0,0,0,98.369-2.139Zm14.648-8.4a4.3,4.3,0,0,1,3,.928,3.412,3.412,0,0,1,1.011,2.646V0h-3.574V-6.2a1.412,1.412,0,0,0-.444-1.162,1.776,1.776,0,0,0-1.157-.361q-2.119,0-2.139,2.324V0h-3.564V-10.342h3.564v1.064A4.363,4.363,0,0,1,113.018-10.537ZM123.252.2A6.306,6.306,0,0,1,120.1-.518a3.069,3.069,0,0,1-1.548-2.158l2.939-.82a1.859,1.859,0,0,0,.7,1,1.973,1.973,0,0,0,1.074.283q1.1,0,1.1-.684a.7.7,0,0,0-.327-.581,2.222,2.222,0,0,0-.752-.352l-1.143-.3a10.046,10.046,0,0,1-1.2-.386,5.356,5.356,0,0,1-.82-.4,3.451,3.451,0,0,1-.674-.547,2.222,2.222,0,0,1-.493-.806,3.136,3.136,0,0,1-.171-1.069,2.708,2.708,0,0,1,1.177-2.383,5.4,5.4,0,0,1,3.12-.811,6.793,6.793,0,0,1,1.943.254,3.5,3.5,0,0,1,1.484.884,3.165,3.165,0,0,1,.85,1.616l-2.7.586a1.8,1.8,0,0,0-.64-.811,1.752,1.752,0,0,0-.942-.234,1.786,1.786,0,0,0-.791.146.457.457,0,0,0-.293.42.439.439,0,0,0,.122.308,1.03,1.03,0,0,0,.391.234q.269.1.518.171t.7.176q.449.107.732.186a9.249,9.249,0,0,1,1.2.425,5.278,5.278,0,0,1,1.035.62,2.605,2.605,0,0,1,.8,1,3.319,3.319,0,0,1,.283,1.411,3.186,3.186,0,0,1-.366,1.563,2.666,2.666,0,0,1-1.016,1.04,5.147,5.147,0,0,1-1.436.557A7.7,7.7,0,0,1,123.252.2Z" transform="translate(16081 15328.2)" fill="#262626" stroke="rgba(0,0,0,0)" stroke-width="1"/>
    <path id="Path_826" data-name="Path 826" d="M10.1,0,7.53-3.6a3.255,3.255,0,0,0,2.4-3.3c0-2.25-1.62-3.6-4.29-3.6H1.71V0H2.82V-3.33H5.64a7.474,7.474,0,0,0,.84-.045L8.88,0ZM5.61-4.275H2.82V-9.54H5.61c2.1,0,3.21.96,3.21,2.64C8.82-5.25,7.71-4.275,5.61-4.275Zm13.605.33A3.76,3.76,0,0,0,15.39-7.95a3.8,3.8,0,0,0-3.855,4.005,3.907,3.907,0,0,0,4.14,4.02,3.884,3.884,0,0,0,3.045-1.29l-.6-.69A3.11,3.11,0,0,1,15.7-.87,2.921,2.921,0,0,1,12.6-3.615h6.6C19.2-3.735,19.215-3.855,19.215-3.945ZM15.39-7.035A2.744,2.744,0,0,1,18.195-4.41H12.6A2.741,2.741,0,0,1,15.39-7.035ZM27.675-7.89v1.515a3.561,3.561,0,0,0-3.12-1.575,3.752,3.752,0,0,0-3.96,3.81A3.776,3.776,0,0,0,24.555-.3,3.551,3.551,0,0,0,27.63-1.83V-.825c0,1.95-.915,2.865-2.91,2.865a4.7,4.7,0,0,1-3.1-1.08l-.54.81A5.5,5.5,0,0,0,24.75,2.985c2.61,0,3.945-1.23,3.945-3.945V-7.89ZM24.66-1.245a2.82,2.82,0,0,1-2.985-2.9A2.809,2.809,0,0,1,24.66-7.02a2.821,2.821,0,0,1,3,2.88A2.833,2.833,0,0,1,24.66-1.245ZM37.725-7.89v4.14A2.566,2.566,0,0,1,35.04-.885c-1.5,0-2.37-.855-2.37-2.535V-7.89H31.6v4.575a3.056,3.056,0,0,0,3.33,3.39A3.138,3.138,0,0,0,37.77-1.44V0h1.02V-7.89ZM41.775,0H42.84V-11.13H41.775ZM48.57-7.95a5.01,5.01,0,0,0-3.21,1.065l.48.8a4.019,4.019,0,0,1,2.625-.93c1.47,0,2.235.735,2.235,2.085v.48H48.195c-2.265,0-3.045,1.02-3.045,2.235,0,1.365,1.1,2.3,2.88,2.3A2.962,2.962,0,0,0,50.745-1.23V0h1.02V-4.89C51.765-6.93,50.61-7.95,48.57-7.95ZM48.195-.765c-1.26,0-1.995-.57-1.995-1.485,0-.81.495-1.41,2.025-1.41H50.7v1.29A2.524,2.524,0,0,1,48.195-.765Zm7.485-5.58V-7.89H54.66V0h1.065V-4.02c0-1.86,1.005-2.91,2.655-2.91.075,0,.165.015.255.015V-7.95A2.975,2.975,0,0,0,55.68-6.345Z" transform="translate(16081 15136.2)" fill="#262626" stroke="rgba(0,0,0,0)" stroke-width="1"/>
    <path id="Path_827" data-name="Path 827" d="M5.149-4.314h-2.5V0H1.23V-10.664h3.53a4.178,4.178,0,0,1,2.772.82A2.951,2.951,0,0,1,8.5-7.456,2.871,2.871,0,0,1,7.965-5.72a3.214,3.214,0,0,1-1.5,1.106l2.5,4.526V0H7.463Zm-2.5-1.15H4.8a2.437,2.437,0,0,0,1.666-.543A1.836,1.836,0,0,0,7.09-7.46,1.933,1.933,0,0,0,6.5-8.979a2.5,2.5,0,0,0-1.7-.536H2.644ZM13.55.146A3.463,3.463,0,0,1,10.928-.912,3.928,3.928,0,0,1,9.917-3.743v-.249a4.756,4.756,0,0,1,.45-2.106,3.514,3.514,0,0,1,1.26-1.45,3.167,3.167,0,0,1,1.754-.524,2.968,2.968,0,0,1,2.4,1.018,4.408,4.408,0,0,1,.857,2.915v.564H11.272a2.817,2.817,0,0,0,.685,1.893,2.153,2.153,0,0,0,1.666.721,2.36,2.36,0,0,0,1.216-.293,3.055,3.055,0,0,0,.872-.776l.828.645A3.328,3.328,0,0,1,13.55.146Zm-.168-7.1a1.807,1.807,0,0,0-1.377.6,2.9,2.9,0,0,0-.688,1.674h3.97v-.1a2.581,2.581,0,0,0-.557-1.6A1.7,1.7,0,0,0,13.381-6.958Zm4.5,2.93a4.658,4.658,0,0,1,.857-2.948,2.741,2.741,0,0,1,2.271-1.095,2.726,2.726,0,0,1,2.263,1.025l.066-.879H24.58V-.19a3.224,3.224,0,0,1-.912,2.424,3.365,3.365,0,0,1-2.45.886,4.076,4.076,0,0,1-1.677-.366,2.887,2.887,0,0,1-1.252-1l.7-.813a2.65,2.65,0,0,0,2.131,1.077,2.076,2.076,0,0,0,1.542-.557A2.128,2.128,0,0,0,23.218-.11V-.791A2.785,2.785,0,0,1,21,.146,2.707,2.707,0,0,1,18.746-.974,4.9,4.9,0,0,1,17.886-4.028Zm1.362.154A3.553,3.553,0,0,0,19.8-1.769,1.785,1.785,0,0,0,21.335-1a1.985,1.985,0,0,0,1.882-1.165V-5.786A2.008,2.008,0,0,0,21.35-6.921a1.8,1.8,0,0,0-1.545.769A3.87,3.87,0,0,0,19.248-3.875ZM31.516-.784a2.878,2.878,0,0,1-2.322.93,2.464,2.464,0,0,1-1.93-.736,3.186,3.186,0,0,1-.67-2.179V-7.925h1.355v5.12q0,1.8,1.465,1.8a2.028,2.028,0,0,0,2.065-1.157V-7.925h1.355V0H31.545ZM36.365,0H35.01V-11.25h1.355Zm7.061,0a2.846,2.846,0,0,1-.19-.835,3.023,3.023,0,0,1-2.256.981,2.8,2.8,0,0,1-1.923-.663A2.145,2.145,0,0,1,38.306-2.2a2.24,2.24,0,0,1,.941-1.923A4.437,4.437,0,0,1,41.895-4.8h1.318v-.623a1.522,1.522,0,0,0-.425-1.132,1.707,1.707,0,0,0-1.252-.421,1.976,1.976,0,0,0-1.216.366,1.079,1.079,0,0,0-.491.886H38.467a1.87,1.87,0,0,1,.421-1.146,2.874,2.874,0,0,1,1.143-.875,3.844,3.844,0,0,1,1.586-.322,3.133,3.133,0,0,1,2.146.685A2.47,2.47,0,0,1,44.568-5.5v3.647a4.459,4.459,0,0,0,.278,1.736V0ZM41.177-1.033a2.381,2.381,0,0,0,1.208-.33,1.994,1.994,0,0,0,.828-.857V-3.845H42.151q-2.49,0-2.49,1.458a1.234,1.234,0,0,0,.425,1A1.633,1.633,0,0,0,41.177-1.033Zm9.346-5.676a4.061,4.061,0,0,0-.667-.051,1.786,1.786,0,0,0-1.809,1.135V0H46.692V-7.925H48.01l.022.916a2.11,2.11,0,0,1,1.89-1.062,1.384,1.384,0,0,1,.6.1Z" transform="translate(16081 15251.2)" fill="#262626" stroke="rgba(0,0,0,0)" stroke-width="1"/>
    <path id="Path_828" data-name="Path 828" d="M7.163,0,4.482-4.658H3.032V0H1.575V-10.356H5.061a3.987,3.987,0,0,1,1.406.231,2.545,2.545,0,0,1,.992.637,2.713,2.713,0,0,1,.568.934,3.362,3.362,0,0,1,.19,1.15,2.683,2.683,0,0,1-.6,1.794,2.7,2.7,0,0,1-1.67.894L8.87,0ZM3.032-9.1v3.325H4.863a2.123,2.123,0,0,0,1.465-.443,1.551,1.551,0,0,0,.491-1.212,1.577,1.577,0,0,0-.491-1.216A2.089,2.089,0,0,0,4.863-9.1Zm13.63,5.332-.022.374H11.023A2.456,2.456,0,0,0,11.7-1.626a2.2,2.2,0,0,0,1.589.615,2.094,2.094,0,0,0,1.157-.33,2.156,2.156,0,0,0,.791-.923l1.274.249A3.221,3.221,0,0,1,15.267-.436,3.458,3.458,0,0,1,13.3.139,3.58,3.58,0,0,1,10.653-.868,3.726,3.726,0,0,1,9.646-3.625a3.734,3.734,0,0,1,1.011-2.758,3.513,3.513,0,0,1,2.6-1.014,3.336,3.336,0,0,1,2.468.93A3.683,3.683,0,0,1,16.663-3.765Zm-3.4-2.563a2.207,2.207,0,0,0-1.443.472,2.215,2.215,0,0,0-.74,1.4h4.167a2.043,2.043,0,0,0-.623-1.392A1.972,1.972,0,0,0,13.264-6.328Zm10.525-.923h1.355V-.4a3.964,3.964,0,0,1-.948,2.86,3.483,3.483,0,0,1-2.633.985A3.48,3.48,0,0,1,18,1.216L19.167.659a2.327,2.327,0,0,0,2.344,1.633,2.031,2.031,0,0,0,1.659-.685,2.931,2.931,0,0,0,.568-1.923V-1.582a2.521,2.521,0,0,1-1.011.992,2.977,2.977,0,0,1-1.479.377A3.149,3.149,0,0,1,19.966-.48a3.245,3.245,0,0,1-1.055-.736,3.454,3.454,0,0,1-.71-1.146,3.973,3.973,0,0,1-.264-1.454,3.561,3.561,0,0,1,.97-2.571A3.143,3.143,0,0,1,21.262-7.4a2.939,2.939,0,0,1,1.494.388,2.489,2.489,0,0,1,1,1.033ZM21.57-1.4a2.121,2.121,0,0,0,1.615-.714,2.417,2.417,0,0,0,.663-1.7,2.421,2.421,0,0,0-.659-1.707,2.122,2.122,0,0,0-1.619-.71,2.128,2.128,0,0,0-1.608.692,2.411,2.411,0,0,0-.656,1.725,2.407,2.407,0,0,0,.659,1.721A2.127,2.127,0,0,0,21.57-1.4ZM32.227-7.251h1.406V0h-1.34l-.037-.937a2.377,2.377,0,0,1-.919.795,2.834,2.834,0,0,1-1.278.282A2.573,2.573,0,0,1,28.2-.516a2.449,2.449,0,0,1-.685-1.857V-7.251h1.414v4.57a1.628,1.628,0,0,0,.432,1.241,1.549,1.549,0,0,0,1.106.406,1.716,1.716,0,0,0,1.263-.483,1.994,1.994,0,0,0,.494-1.458ZM36.152,0V-11.25h1.414V0ZM41.77.139a2.929,2.929,0,0,1-1.11-.2,1.746,1.746,0,0,1-.8-.656,1.966,1.966,0,0,1-.311-1.132,2.106,2.106,0,0,1,.2-.952,1.654,1.654,0,0,1,.6-.659,3.846,3.846,0,0,1,.857-.41A7.456,7.456,0,0,1,42.3-4.131l1.143-.2q.659-.125.659-.667a1.188,1.188,0,0,0-.439-1.022,1.794,1.794,0,0,0-1.1-.326,1.833,1.833,0,0,0-1.113.322,1.375,1.375,0,0,0-.52,1l-1.267-.256A2.285,2.285,0,0,1,40.6-6.855a3.5,3.5,0,0,1,2.032-.527,4.71,4.71,0,0,1,.857.073,2.914,2.914,0,0,1,.765.256,2.134,2.134,0,0,1,.63.465,2.083,2.083,0,0,1,.417.725,3,3,0,0,1,.157,1.007v2.937a1.185,1.185,0,0,0,.165.736.7.7,0,0,0,.56.194h.11V0h-.681a1.242,1.242,0,0,1-1.406-.974h-.066a2.461,2.461,0,0,1-1.036.842A3.329,3.329,0,0,1,41.77.139Zm.322-1.121a1.939,1.939,0,0,0,1.527-.67,2.636,2.636,0,0,0,.59-1.805l-1.9.388a2.413,2.413,0,0,0-1.047.377.868.868,0,0,0-.344.736.853.853,0,0,0,.326.732A1.384,1.384,0,0,0,42.092-.981Zm7.31-5.01a2.123,2.123,0,0,1,.9-.959,2.784,2.784,0,0,1,1.406-.381v1.3a2.437,2.437,0,0,0-1.692.52,2.191,2.191,0,0,0-.571,1.692V0H48.04V-7.251H49.4Z" transform="translate(16081 15368.2)" fill="#262626" stroke="rgba(0,0,0,0)" stroke-width="1"/>
    <path id="Path_818" data-name="Path 818" d="M4.665.15C7.545.15,8.91-1.29,8.91-2.97c0-3.855-6.225-2.4-6.225-4.635,0-.795.66-1.425,2.28-1.425a5.835,5.835,0,0,1,2.895.825L8.475-9.72a6.638,6.638,0,0,0-3.495-.93C2.1-10.65.75-9.21.75-7.515c0,3.9,6.24,2.415,6.24,4.68,0,.78-.69,1.365-2.325,1.365A5.818,5.818,0,0,1,1.2-2.625L.525-1.11A6.766,6.766,0,0,0,4.665.15Zm13.53-4.11a3.906,3.906,0,0,0-4.05-4.14A3.984,3.984,0,0,0,10-4.005C10-1.62,11.745.105,14.43.105A4.06,4.06,0,0,0,17.655-1.2l-1-1.155a2.87,2.87,0,0,1-2.175.87,2.424,2.424,0,0,1-2.6-1.92h6.285C18.18-3.585,18.195-3.81,18.195-3.96ZM14.145-6.6A2.18,2.18,0,0,1,16.41-4.65H11.865A2.214,2.214,0,0,1,14.145-6.6ZM30.1-8.1a3.739,3.739,0,0,0-3,1.335A3,3,0,0,0,24.4-8.1,3.318,3.318,0,0,0,21.78-6.99V-8.01H19.995V0H21.87V-4.065c0-1.59.84-2.4,2.085-2.4,1.14,0,1.8.69,1.8,2.115V0H27.63V-4.065c0-1.59.855-2.4,2.085-2.4,1.14,0,1.8.69,1.8,2.115V0H33.39V-4.59C33.39-7.005,32.04-8.1,30.1-8.1Zm6.63-1.23a1.151,1.151,0,0,0,1.2-1.17,1.116,1.116,0,0,0-1.2-1.08,1.142,1.142,0,0,0-1.2,1.125A1.142,1.142,0,0,0,36.735-9.33ZM35.79,0h1.875V-8.01H35.79ZM48.7-8.1A3.33,3.33,0,0,0,46.14-7.035v-4.1H44.265V0H46.05V-1.035A3.3,3.3,0,0,0,48.7.105a3.9,3.9,0,0,0,4.065-4.11A3.89,3.89,0,0,0,48.7-8.1Zm-.21,6.6A2.341,2.341,0,0,1,46.11-4.005,2.341,2.341,0,0,1,48.495-6.51a2.33,2.33,0,0,1,2.37,2.505A2.33,2.33,0,0,1,48.495-1.5ZM58.155.105a4.039,4.039,0,0,0,4.275-4.11,4.028,4.028,0,0,0-4.275-4.1,4.032,4.032,0,0,0-4.26,4.1A4.044,4.044,0,0,0,58.155.105Zm0-1.605a2.33,2.33,0,0,1-2.37-2.505,2.33,2.33,0,0,1,2.37-2.505A2.333,2.333,0,0,1,60.54-4.005,2.333,2.333,0,0,1,58.155-1.5ZM64.23,0H66.1V-11.13H64.23ZM74.535-11.13v4.11a3.28,3.28,0,0,0-2.58-1.08,3.886,3.886,0,0,0-4.05,4.1,3.9,3.9,0,0,0,4.05,4.11,3.3,3.3,0,0,0,2.655-1.14V0h1.8V-11.13ZM72.18-1.5a2.341,2.341,0,0,1-2.385-2.505A2.341,2.341,0,0,1,72.18-6.51a2.341,2.341,0,0,1,2.385,2.505A2.341,2.341,0,0,1,72.18-1.5Z" transform="translate(16156 15136.2)" fill="#262626" stroke="rgba(0,0,0,0)" stroke-width="1"/>
    <path id="Path_823" data-name="Path 823" d="M3.486-10.664,6.563-2.49l3.069-8.174h2.4V0H10.181V-3.516l.183-4.7L7.214,0H5.889L2.747-8.21,2.93-3.516V0H1.084V-10.664ZM17.534.146A3.682,3.682,0,0,1,14.791-.919,3.866,3.866,0,0,1,13.74-3.757v-.22A4.755,4.755,0,0,1,14.2-6.1a3.484,3.484,0,0,1,1.285-1.454,3.4,3.4,0,0,1,1.846-.52,3.11,3.11,0,0,1,2.5,1.033,4.367,4.367,0,0,1,.883,2.922V-3.4H15.535a2.38,2.38,0,0,0,.656,1.553,1.968,1.968,0,0,0,1.447.571,2.41,2.41,0,0,0,1.992-.989l.959.916a3.2,3.2,0,0,1-1.271,1.1A3.978,3.978,0,0,1,17.534.146Zm-.212-6.79a1.5,1.5,0,0,0-1.183.513A2.657,2.657,0,0,0,15.564-4.7h3.391v-.132a2.163,2.163,0,0,0-.476-1.351A1.487,1.487,0,0,0,17.322-6.643ZM21.76-4.021a4.712,4.712,0,0,1,.85-2.941,2.722,2.722,0,0,1,2.278-1.11,2.587,2.587,0,0,1,2.036.879V-11.25H28.7V0H27.092L27-.82a2.624,2.624,0,0,1-2.131.967A2.707,2.707,0,0,1,22.621-.974,4.884,4.884,0,0,1,21.76-4.021Zm1.78.154a3.3,3.3,0,0,0,.465,1.886,1.509,1.509,0,0,0,1.322.677,1.681,1.681,0,0,0,1.6-.974V-5.662a1.655,1.655,0,0,0-1.582-.952,1.52,1.52,0,0,0-1.333.685A3.674,3.674,0,0,0,23.54-3.867ZM32.454,0h-1.78V-7.925h1.78Zm-1.89-9.983a.945.945,0,0,1,.26-.681.982.982,0,0,1,.743-.271,1,1,0,0,1,.747.271.937.937,0,0,1,.264.681.916.916,0,0,1-.264.67,1,1,0,0,1-.747.267.99.99,0,0,1-.743-.267A.923.923,0,0,1,30.564-9.983ZM39.192-.776a2.76,2.76,0,0,1-2.227.923,2.46,2.46,0,0,1-1.952-.754,3.209,3.209,0,0,1-.663-2.183V-7.925h1.78v5.112q0,1.509,1.252,1.509a1.759,1.759,0,0,0,1.75-.93V-7.925h1.78V0H39.236ZM44.4-7.925l.051.828a2.852,2.852,0,0,1,2.285-.974,2.191,2.191,0,0,1,2.175,1.216,2.811,2.811,0,0,1,2.432-1.216,2.471,2.471,0,0,1,1.952.725,3.192,3.192,0,0,1,.656,2.139V0H52.17V-5.156a1.576,1.576,0,0,0-.33-1.106,1.443,1.443,0,0,0-1.091-.352,1.482,1.482,0,0,0-.992.326,1.719,1.719,0,0,0-.538.853L49.226,0h-1.78V-5.215a1.27,1.27,0,0,0-1.428-1.4,1.567,1.567,0,0,0-1.516.872V0h-1.78V-7.925Z" transform="translate(16148 15251.2)" fill="#262626" stroke="rgba(0,0,0,0)" stroke-width="1"/>
    <path id="Path_824" data-name="Path 824" d="M13.015,0H11.279l-.688-8.247L7.6,0H6.5L3.516-8.232,2.82,0H1.077l.835-10.444H4.351L7.039-3.062l2.71-7.383h2.439ZM21.9-3.809l-.022.425h-5.6a2.223,2.223,0,0,0,.645,1.611,2.1,2.1,0,0,0,1.487.557,2.02,2.02,0,0,0,1.095-.3,1.893,1.893,0,0,0,.729-.857l1.538.264A3.238,3.238,0,0,1,20.493-.454,3.66,3.66,0,0,1,18.42.139,3.777,3.777,0,0,1,15.659-.879a3.745,3.745,0,0,1-1.04-2.805,3.76,3.76,0,0,1,1.04-2.805,3.694,3.694,0,0,1,2.71-1.025,3.508,3.508,0,0,1,2.556.941A3.71,3.71,0,0,1,21.9-3.809ZM18.376-6.262a2.15,2.15,0,0,0-1.329.4,1.944,1.944,0,0,0-.7,1.219h3.86a1.776,1.776,0,0,0-.586-1.208A1.876,1.876,0,0,0,18.376-6.262ZM29.019-11.25H30.7V0H29.092l-.044-1.172a2.371,2.371,0,0,1-.985.981,3.007,3.007,0,0,1-1.469.359A3.4,3.4,0,0,1,25.243-.1a3.412,3.412,0,0,1-1.11-.758,3.5,3.5,0,0,1-.754-1.216,4.451,4.451,0,0,1-.278-1.6,4.4,4.4,0,0,1,.278-1.589,3.5,3.5,0,0,1,.754-1.212,3.4,3.4,0,0,1,1.113-.758,3.408,3.408,0,0,1,1.348-.271,3.046,3.046,0,0,1,1.439.341,2.366,2.366,0,0,1,.985.934ZM25.411-1.926a2.049,2.049,0,0,0,1.556.667,2.017,2.017,0,0,0,1.553-.681,2.474,2.474,0,0,0,.623-1.736,2.455,2.455,0,0,0-.626-1.729,2.02,2.02,0,0,0-1.549-.681,2.054,2.054,0,0,0-1.556.663,2.439,2.439,0,0,0-.626,1.747A2.453,2.453,0,0,0,25.411-1.926Zm8.544-6.848a1.006,1.006,0,0,1-.732-.3.988.988,0,0,1-.308-.729.994.994,0,0,1,.3-.729,1,1,0,0,1,.736-.3,1,1,0,0,1,.725.3.988.988,0,0,1,.308.729.988.988,0,0,1-.308.729A1,1,0,0,1,33.955-8.774ZM33.091,0V-7.368h1.692V0ZM41.9-7.368h1.685V0h-1.6l-.044-.923A2.636,2.636,0,0,1,39.668.139,2.727,2.727,0,0,1,37.72-.524a2.467,2.467,0,0,1-.7-1.886V-7.368h1.7v4.592a1.511,1.511,0,0,0,.406,1.161,1.484,1.484,0,0,0,1.051.377A1.709,1.709,0,0,0,41.415-1.7,1.935,1.935,0,0,0,41.9-3.135Zm12.209-.139A2.589,2.589,0,0,1,55.92-6.9a2.22,2.22,0,0,1,.674,1.732V0H54.9V-4.695a1.447,1.447,0,0,0-.366-1.073,1.258,1.258,0,0,0-.923-.363,1.381,1.381,0,0,0-1.058.436,1.916,1.916,0,0,0-.406,1.344V0H50.435V-4.658a1.5,1.5,0,0,0-.37-1.1,1.268,1.268,0,0,0-.941-.374,1.37,1.37,0,0,0-1.062.45,2.035,2.035,0,0,0-.41,1.4V0H45.974V-7.368h1.677v.908a2.377,2.377,0,0,1,2.08-1.047,2.793,2.793,0,0,1,1.318.3,1.952,1.952,0,0,1,.85.853A2.446,2.446,0,0,1,54.111-7.507Z" transform="translate(16149 15368.2)" fill="#262626" stroke="rgba(0,0,0,0)" stroke-width="1"/>
    <path id="Path_815" data-name="Path 815" d="M3.99-2.3v-1.92H8.655v-2.22H3.99v-1.77H9.285v-2.3H1.05V0H9.48V-2.3ZM19.365,0,16.26-4.17l3-3.96H16.245l-1.5,2.055L13.305-8.13H10.1l3,4.065L10.005,0H13.1l1.56-2.13L16.11,0ZM25.14-2.325a1.56,1.56,0,0,1-.87.255A.826.826,0,0,1,23.415-3V-5.7h1.86V-7.83h-1.86V-9.945h-2.85V-7.83H19.38V-5.7h1.185v2.73c0,2.085,1.215,3.105,3.3,3.105a3.831,3.831,0,0,0,1.98-.465Zm4.515-4.83V-8.13H26.94V0h2.85V-3.735a1.774,1.774,0,0,1,1.95-2.01,5.19,5.19,0,0,1,.645.045V-8.265A3.328,3.328,0,0,0,29.655-7.155Zm7.305-1.11a6.832,6.832,0,0,0-3.585.945l.96,1.935a3.788,3.788,0,0,1,2.2-.7c1.125,0,1.68.465,1.725,1.29h-1.62c-2.52,0-3.615.93-3.615,2.43,0,1.41,1.08,2.505,3.03,2.505a2.463,2.463,0,0,0,2.4-1.185V0h2.655V-4.515C41.115-7.1,39.6-8.265,36.96-8.265Zm-.1,6.6c-.675,0-1.065-.345-1.065-.825s.33-.825,1.245-.825h1.23v.705A1.4,1.4,0,0,1,36.855-1.665Zm15.54-6.6a3.022,3.022,0,0,0-2.265.84V-11.13H47.28V0h2.715V-.81a2.933,2.933,0,0,0,2.4.945,3.947,3.947,0,0,0,3.99-4.215A3.93,3.93,0,0,0,52.395-8.265Zm-.6,6.135a1.735,1.735,0,0,1-1.71-1.95A1.717,1.717,0,0,1,51.795-6,1.717,1.717,0,0,1,53.5-4.08,1.735,1.735,0,0,1,51.795-2.13ZM61.785.135c2.685,0,4.59-1.755,4.59-4.215,0-2.445-1.9-4.185-4.59-4.185-2.655,0-4.59,1.74-4.59,4.185A4.262,4.262,0,0,0,61.785.135Zm0-2.265a1.735,1.735,0,0,1-1.71-1.95A1.717,1.717,0,0,1,61.785-6a1.709,1.709,0,0,1,1.71,1.92A1.727,1.727,0,0,1,61.785-2.13ZM67.695,0h2.85V-11.13h-2.85ZM78.18-11.13v3.705a2.964,2.964,0,0,0-2.25-.84A3.933,3.933,0,0,0,71.925-4.08,3.95,3.95,0,0,0,75.93.135,2.921,2.921,0,0,0,78.315-.81V0H81.03V-11.13Zm-1.65,9a1.727,1.727,0,0,1-1.71-1.95A1.709,1.709,0,0,1,76.53-6a1.707,1.707,0,0,1,1.695,1.92A1.725,1.725,0,0,1,76.53-2.13Z" transform="translate(16250 15136.2)" fill="#262626" stroke="rgba(0,0,0,0)" stroke-width="1"/>
    <path id="Path_819" data-name="Path 819" d="M.952,0V-10.664H4.688a4.9,4.9,0,0,1,2.944.743,2.542,2.542,0,0,1,1,2.179,2.409,2.409,0,0,1-.4,1.381,2.327,2.327,0,0,1-1.121.875A2.251,2.251,0,0,1,8.4-4.658a2.447,2.447,0,0,1,.472,1.523A2.814,2.814,0,0,1,7.9-.806,4.418,4.418,0,0,1,5.1,0Zm2.2-4.644v2.878H5.032a1.816,1.816,0,0,0,1.212-.37A1.268,1.268,0,0,0,6.68-3.157,1.339,1.339,0,0,0,5.164-4.644Zm0-1.553H4.775q1.663-.029,1.663-1.326a1.225,1.225,0,0,0-.421-1.044,2.215,2.215,0,0,0-1.329-.319H3.149Zm6.907,2.161a4.7,4.7,0,0,1,.454-2.1,3.324,3.324,0,0,1,1.307-1.428A3.814,3.814,0,0,1,13.8-8.071a3.609,3.609,0,0,1,2.618.981,3.939,3.939,0,0,1,1.132,2.666l.015.542A4.142,4.142,0,0,1,16.545-.956a3.539,3.539,0,0,1-2.732,1.1,3.556,3.556,0,0,1-2.736-1.1A4.215,4.215,0,0,1,10.056-3.94Zm2.117.15A2.962,2.962,0,0,0,12.6-2.158a1.4,1.4,0,0,0,1.216.6,1.4,1.4,0,0,0,1.2-.591,3.241,3.241,0,0,0,.432-1.889,2.933,2.933,0,0,0-.432-1.716A1.4,1.4,0,0,0,13.8-6.365a1.382,1.382,0,0,0-1.2.605A3.3,3.3,0,0,0,12.173-3.885ZM21.1,0H18.977V-11.25H21.1Zm1.414-4.021a4.776,4.776,0,0,1,.831-2.952,2.7,2.7,0,0,1,2.274-1.1,2.427,2.427,0,0,1,1.912.864V-11.25h2.124V0H27.744l-.1-.842a2.491,2.491,0,0,1-2.036.989,2.69,2.69,0,0,1-2.245-1.1A4.93,4.93,0,0,1,22.515-4.021Zm2.117.158a3.128,3.128,0,0,0,.388,1.709,1.265,1.265,0,0,0,1.128.594,1.416,1.416,0,0,0,1.384-.829V-5.521a1.4,1.4,0,0,0-1.37-.829Q24.631-6.35,24.631-3.863Z" transform="translate(16219 15251.2)" fill="#262626" stroke="rgba(0,0,0,0)" stroke-width="1"/>
    <path id="Path_816" data-name="Path 816" d="M8.042-10.583h2.2V0h-2.2V-4.351H3.567V0H1.37V-10.583h2.2v4.321H8.042Zm11.7,6.709-.022.505H14.136a1.949,1.949,0,0,0,.6,1.377,1.921,1.921,0,0,0,1.326.476,1.851,1.851,0,0,0,.992-.26,1.6,1.6,0,0,0,.634-.758l1.934.286A3.287,3.287,0,0,1,18.3-.483a3.92,3.92,0,0,1-2.227.63A4.076,4.076,0,0,1,13.143-.89a3.781,3.781,0,0,1-1.088-2.875,3.8,3.8,0,0,1,1.091-2.875A3.955,3.955,0,0,1,16.011-7.69a3.78,3.78,0,0,1,2.7.959A3.764,3.764,0,0,1,19.739-3.875ZM16.025-6.2a1.667,1.667,0,0,0-1.831,1.45h3.457a1.586,1.586,0,0,0-.52-1.077A1.648,1.648,0,0,0,16.025-6.2ZM27.517-2.043A7.044,7.044,0,0,0,27.7-.205V0H25.73l-.168-.82A2.448,2.448,0,0,1,24.507-.1a3.887,3.887,0,0,1-1.362.242,3.582,3.582,0,0,1-.7-.066,2.39,2.39,0,0,1-.634-.223,1.923,1.923,0,0,1-.524-.392,1.718,1.718,0,0,1-.352-.6,2.378,2.378,0,0,1-.132-.817,2.265,2.265,0,0,1,.139-.817,1.914,1.914,0,0,1,.366-.612,2.221,2.221,0,0,1,.593-.447,4.539,4.539,0,0,1,.747-.322,8.926,8.926,0,0,1,.894-.234l1.238-.278a1.365,1.365,0,0,0,.56-.238.475.475,0,0,0,.165-.377A.777.777,0,0,0,25.133-6a1.727,1.727,0,0,0-.9-.22,1.291,1.291,0,0,0-1.472,1.15L20.9-5.405a2.528,2.528,0,0,1,1.091-1.718,4.337,4.337,0,0,1,2.366-.553q3.164,0,3.164,2.717ZM23.8-1.282a1.7,1.7,0,0,0,1.3-.546,2.3,2.3,0,0,0,.505-1.615l-1.787.505a2.112,2.112,0,0,0-.751.308.632.632,0,0,0-.26.542.7.7,0,0,0,.278.6A1.152,1.152,0,0,0,23.8-1.282ZM34.321-7.529h2.234L33.347,0H31.516L28.345-7.529h2.219L32.439-2.38Zm8.525,0h2.161L40.364,3.545H38.225L39.946-.308l-3.1-7.222h2.3l1.794,4.951Z" transform="translate(16223 15368.2)" fill="#262626" stroke="rgba(0,0,0,0)" stroke-width="1"/>
    <path id="Path_830" data-name="Path 830" d="M34.771-10.094H16.922L13.8,0H-.111L19.705-54.031H31.951L51.916,0H37.926ZM20.039-20.15H31.654l-5.826-18.74ZM77.893,0a14.12,14.12,0,0,1-1.187-3.6A11.629,11.629,0,0,1,67.057.742,14.246,14.246,0,0,1,57.408-2.69a10.926,10.926,0,0,1-3.971-8.628q0-6.531,4.824-9.871t14.027-3.34h3.859v-2.126q0-5.556-4.787-5.556-4.453,0-4.453,4.4H54.4a11.211,11.211,0,0,1,4.954-9.452q4.954-3.632,12.636-3.632t12.135,3.748a13.031,13.031,0,0,1,4.564,10.279V-9.092Q88.766-3.562,90.4-.631V0Zm-7.83-8.164a6.976,6.976,0,0,0,3.878-1,6.28,6.28,0,0,0,2.208-2.264v-6.42H72.512q-6.531,0-6.531,5.863a3.58,3.58,0,0,0,1.15,2.765A4.163,4.163,0,0,0,70.063-8.164Z" transform="translate(15946 15251.2)" fill="#262626" stroke="rgba(0,0,0,0)" stroke-width="1"/>
    <path id="Path_831" data-name="Path 831" d="M43.566,0,40.041-10.094H18.221L14.732,0H.371L20.447-54.551h17.4L57.928,0Zm-21.3-21.746H36L29.131-41.488Zm75.406,11.8a34.159,34.159,0,0,0,.891,8.795V0H86.205l-.816-4.045a11.7,11.7,0,0,1-5.418,3.6A21.859,21.859,0,0,1,72.809.742a19.79,19.79,0,0,1-3.6-.315A13.222,13.222,0,0,1,65.851-.687a9.848,9.848,0,0,1-2.82-2,8.977,8.977,0,0,1-1.893-3.117,12.254,12.254,0,0,1-.724-4.36,12.017,12.017,0,0,1,.742-4.342,10.092,10.092,0,0,1,1.93-3.229A11.971,11.971,0,0,1,66.2-20.095,24.533,24.533,0,0,1,70.025-21.8q1.893-.649,4.527-1.317l6.309-1.6a8.71,8.71,0,0,0,3.1-1.243,2.181,2.181,0,0,0,.872-1.8A2.537,2.537,0,0,0,83.9-29.8a4.517,4.517,0,0,0-2.041-1,12.511,12.511,0,0,0-2.449-.223A7.589,7.589,0,0,0,74.868-29.8,6.177,6.177,0,0,0,72.66-25.68L60.748-27.646q1.41-6.457,6.123-9.426t13.4-2.969q1.855,0,3.451.13a27.285,27.285,0,0,1,3.433.52,16.707,16.707,0,0,1,3.3,1.039,13.038,13.038,0,0,1,2.857,1.763,10.3,10.3,0,0,1,2.319,2.6,12.971,12.971,0,0,1,1.484,3.637,19.286,19.286,0,0,1,.557,4.824ZM77.15-8.127A8.481,8.481,0,0,0,82.9-10.521a8.392,8.392,0,0,0,2.672-6.587l-8.869,2.969a9.549,9.549,0,0,0-2.561,1.206,2.14,2.14,0,0,0-.891,1.837,2.532,2.532,0,0,0,1.113,2.171A4.656,4.656,0,0,0,77.15-8.127Z" transform="translate(15946 15368.2)" fill="#262626" stroke="rgba(0,0,0,0)" stroke-width="1"/>
    <path id="Path_814" data-name="Path 814" d="M0,0H2V19H0Z" transform="translate(16340 15121.2)" fill="#262626"/>
    <path id="Path_820" data-name="Path 820" d="M0,0H2V18H0Z" transform="translate(16257 15237.2)" fill="#262626"/>
    <path id="Path_817" data-name="Path 817" d="M0,0H2V18H0Z" transform="translate(16276 15354.2)" fill="#262626"/>
  </g>
</svg>
