<svg xmlns="http://www.w3.org/2000/svg" width="235" height="357" viewBox="0 0 235 357">
  <g id="Define" transform="translate(-2874 -4177)">
    <path id="Path_835" data-name="Path 835" d="M20,0H215a20,20,0,0,1,20,20V337a20,20,0,0,1-20,20H20A20,20,0,0,1,0,337V20A20,20,0,0,1,20,0Z" transform="translate(2874 4177)" fill="#fff"/>
    <path id="Path_838" data-name="Path 838" d="M8.625-17.5a7.9,7.9,0,0,1,5.987,2.525A8.716,8.716,0,0,1,17-8.75a8.728,8.728,0,0,1-2.387,6.213A7.877,7.877,0,0,1,8.625,0H1.75V-17.5Zm0,14.75a5.234,5.234,0,0,0,4.037-1.7,6.109,6.109,0,0,0,1.563-4.3,6.1,6.1,0,0,0-1.562-4.313A5.252,5.252,0,0,0,8.625-14.75h-4v12ZM21.575-5.1A3.433,3.433,0,0,0,22.95-2.913a4.42,4.42,0,0,0,2.625.763A3.664,3.664,0,0,0,28.8-3.7l2.225,1.3A6.188,6.188,0,0,1,25.55.325a6.684,6.684,0,0,1-4.925-1.863A6.364,6.364,0,0,1,18.75-6.25a6.432,6.432,0,0,1,1.85-4.688,6.362,6.362,0,0,1,4.75-1.887A5.845,5.845,0,0,1,29.862-10.9a6.674,6.674,0,0,1,1.763,4.675,8.352,8.352,0,0,1-.1,1.125ZM21.55-7.3H28.9a3.6,3.6,0,0,0-1.263-2.3,3.636,3.636,0,0,0-2.312-.775,3.8,3.8,0,0,0-2.5.825A3.721,3.721,0,0,0,21.55-7.3Zm22.5-5.2V0h-2.7V-9.9H37.2V0H34.5V-9.9H32.6v-2.6h1.9v-.25q0-5.075,5.65-5.075a12.69,12.69,0,0,1,2.775.325v2.475a18.585,18.585,0,0,0-2.775-.2,3.675,3.675,0,0,0-2.225.55A2.273,2.273,0,0,0,37.2-12.75v.25Zm9.7-.325a4.607,4.607,0,0,1,3.475,1.375A5.213,5.213,0,0,1,58.55-7.675V0h-2.7V-7.4a2.91,2.91,0,0,0-.75-2.15,2.77,2.77,0,0,0-2.05-.75,3.086,3.086,0,0,0-2.3.888A3.725,3.725,0,0,0,49.875-6.7V0h-2.7V-12.5h2.7v1.6A4.256,4.256,0,0,1,53.75-12.825ZM63.575-5.1A3.433,3.433,0,0,0,64.95-2.913a4.42,4.42,0,0,0,2.625.763A3.664,3.664,0,0,0,70.8-3.7l2.225,1.3A6.188,6.188,0,0,1,67.55.325a6.684,6.684,0,0,1-4.925-1.863A6.364,6.364,0,0,1,60.75-6.25a6.432,6.432,0,0,1,1.85-4.688,6.362,6.362,0,0,1,4.75-1.887A5.845,5.845,0,0,1,71.863-10.9a6.674,6.674,0,0,1,1.762,4.675,8.352,8.352,0,0,1-.1,1.125ZM63.55-7.3H70.9a3.6,3.6,0,0,0-1.262-2.3,3.636,3.636,0,0,0-2.312-.775,3.8,3.8,0,0,0-2.5.825A3.721,3.721,0,0,0,63.55-7.3Z" transform="translate(2955 4385)" fill="#262626"/>
    <path id="Define-2" data-name="Define" d="M2.8,70.359A42.449,42.449,0,0,1,59.858,16.492a7.447,7.447,0,0,1,.527-2.817C61.995,10.392,71.444,2.085,73.263.411a1.786,1.786,0,0,1,1.9-.242,1.754,1.754,0,0,1,1.046,1.61V14.618l1.079-1.184a2.414,2.414,0,0,1,3.573,3.219l-2.725,2.989,15.99.262a1.773,1.773,0,0,1,1.61,1.079,1.754,1.754,0,0,1-.306,1.9c-1.61,1.852-10.3,11.269-13.474,12.7a8.092,8.092,0,0,1-1.649.41A42.451,42.451,0,1,1,2.8,70.359ZM11.92,33.3a37.588,37.588,0,1,0,63.355,3.5,2.4,2.4,0,0,1-.25-1.076,80.04,80.04,0,0,1-9.959-1.75l-.693.76a30.046,30.046,0,1,1-3.554-3.246l.821-.9c-.465-2.2-1.091-5.475-1.468-8.621a2.412,2.412,0,0,1-.5-.217A37.575,37.575,0,0,0,11.92,33.3Zm7.16,12.28a25.233,25.233,0,1,0,42.038-7.27l-4.89,5.364a17.95,17.95,0,1,1-3.557-3.246l4.9-5.369a25.144,25.144,0,0,0-15.115-5.08v.048h-.065A25.238,25.238,0,0,0,19.08,45.583Zm10.236,9.646A13.136,13.136,0,1,0,52.929,47.3L48.09,52.607a6.207,6.207,0,1,1-3.563-3.243l4.842-5.311A13.138,13.138,0,0,0,29.316,55.229ZM80.507,32.38c1.417-.675,6-5.134,9.658-8.982l-13.746-.24a1.766,1.766,0,0,1-1.121-.4l-7.457,8.181C73.556,32.147,79.329,32.943,80.507,32.38ZM63.525,15.269c-.593,1.171.029,6.565,1.077,12.079L72.668,18.5V5.756C68.756,9.345,64.265,13.8,63.525,15.269Z" transform="translate(2944 4227)" fill="#8bd9a1"/>
    <path id="Path_837" data-name="Path 837" d="M10.9,15V4.8h1.14V15ZM7.475,5.085V4.05h7.98V5.085Zm12.5,10.17a4.279,4.279,0,0,1-1.793-.352,3.914,3.914,0,0,1-1.305-.945,4.244,4.244,0,0,1-1.087-2.828v-.21a4.176,4.176,0,0,1,.285-1.508A4.113,4.113,0,0,1,16.9,8.085a4.05,4.05,0,0,1,1.313-.937,4.62,4.62,0,0,1,3.54,0,4.05,4.05,0,0,1,1.313.937,4.008,4.008,0,0,1,.817,1.328,4.276,4.276,0,0,1,.278,1.508v.21a4.319,4.319,0,0,1-.27,1.5,4.07,4.07,0,0,1-.8,1.327,3.9,3.9,0,0,1-1.312.945A4.331,4.331,0,0,1,19.97,15.255Zm0-1.005a3.01,3.01,0,0,0,1.672-.443,2.907,2.907,0,0,0,1.043-1.17,3.789,3.789,0,0,0-.008-3.24A2.839,2.839,0,0,0,21.62,8.243a3.369,3.369,0,0,0-3.285,0A2.839,2.839,0,0,0,17.278,9.4a3.789,3.789,0,0,0-.007,3.24,2.907,2.907,0,0,0,1.042,1.17A2.982,2.982,0,0,0,19.97,14.25ZM29.48,18.1q-.555,0-1.118-.052t-1.073-.128v-.96q.54.075,1.132.128t1.118.052a4.542,4.542,0,0,0,1.815-.3,1.839,1.839,0,0,0,.967-.952,4.245,4.245,0,0,0,.292-1.717v-1.59l.42-1.11a4.239,4.239,0,0,1-.48,1.957,3.153,3.153,0,0,1-1.215,1.253,3.458,3.458,0,0,1-1.74.435,3.527,3.527,0,0,1-2.745-1.238,4.25,4.25,0,0,1-.765-1.312,4.445,4.445,0,0,1-.27-1.545v-.21a4.34,4.34,0,0,1,.27-1.523A4.084,4.084,0,0,1,26.855,8a3.518,3.518,0,0,1,1.208-.885,3.794,3.794,0,0,1,1.582-.323,3.506,3.506,0,0,1,1.83.465A3.267,3.267,0,0,1,32.7,8.55a4.286,4.286,0,0,1,.472,1.935l-.36-.195V7.065H33.7V14.13a5.317,5.317,0,0,1-.42,2.295A2.594,2.594,0,0,1,31.933,17.7,6.189,6.189,0,0,1,29.48,18.1Zm.315-4.02a2.941,2.941,0,0,0,1.448-.352,2.622,2.622,0,0,0,1.012-1,2.93,2.93,0,0,0,.375-1.5V10.5a2.67,2.67,0,0,0-.382-1.44,2.7,2.7,0,0,0-1.012-.96,2.949,2.949,0,0,0-1.44-.345,2.714,2.714,0,0,0-1.515.42,2.756,2.756,0,0,0-.99,1.132,3.653,3.653,0,0,0-.345,1.613,3.671,3.671,0,0,0,.352,1.635,2.7,2.7,0,0,0,1,1.125A2.761,2.761,0,0,0,29.8,14.085Zm10.035,1.17a4.125,4.125,0,0,1-1.77-.352,3.433,3.433,0,0,1-1.23-.945,4.012,4.012,0,0,1-.713-1.327,4.994,4.994,0,0,1-.232-1.515V10.9a4.945,4.945,0,0,1,.232-1.5,3.928,3.928,0,0,1,.713-1.32,3.524,3.524,0,0,1,1.208-.937,3.863,3.863,0,0,1,1.7-.353,3.666,3.666,0,0,1,2.077.555A3.553,3.553,0,0,1,43.07,8.767a4.175,4.175,0,0,1,.42,1.852V11.2H36.4v-.87H42.71l-.285.435a3.676,3.676,0,0,0-.308-1.553,2.429,2.429,0,0,0-.9-1.05,2.671,2.671,0,0,0-1.478-.383A2.61,2.61,0,0,0,38.2,8.22a2.665,2.665,0,0,0-.922,1.155,4.127,4.127,0,0,0-.308,1.635,4.253,4.253,0,0,0,.308,1.642,2.59,2.59,0,0,0,.945,1.177,3.215,3.215,0,0,0,3.292-.038,1.926,1.926,0,0,0,.795-1.117h1.05a2.967,2.967,0,0,1-.63,1.372,3.179,3.179,0,0,1-1.215.892A4.23,4.23,0,0,1,39.83,15.255Zm8.7-.165a3.83,3.83,0,0,1-1.425-.24,1.829,1.829,0,0,1-.93-.818,3.127,3.127,0,0,1-.33-1.553V4.56h1.08v8.085A1.414,1.414,0,0,0,47.3,13.7a1.458,1.458,0,0,0,1.065.367H49.79v1.02ZM44.42,7.92V7.065h5.37V7.92ZM51.965,15V4.05H53.09v6.2l-.33.255a5.3,5.3,0,0,1,.322-1.935,2.734,2.734,0,0,1,.975-1.282A2.793,2.793,0,0,1,55.7,6.825h.06a2.608,2.608,0,0,1,2.182.945,4.15,4.15,0,0,1,.743,2.625V15h-1.11V10.155a2.338,2.338,0,0,0-.585-1.68,2.071,2.071,0,0,0-1.575-.615,2.195,2.195,0,0,0-1.695.682,2.538,2.538,0,0,0-.63,1.792V15Zm12.84.255a4.125,4.125,0,0,1-1.77-.352,3.433,3.433,0,0,1-1.23-.945,4.012,4.012,0,0,1-.713-1.327,4.994,4.994,0,0,1-.232-1.515V10.9a4.945,4.945,0,0,1,.232-1.5,3.928,3.928,0,0,1,.713-1.32,3.524,3.524,0,0,1,1.208-.937,3.863,3.863,0,0,1,1.7-.353,3.666,3.666,0,0,1,2.077.555,3.553,3.553,0,0,1,1.253,1.418,4.175,4.175,0,0,1,.42,1.852V11.2h-7.1v-.87h6.315l-.285.435a3.676,3.676,0,0,0-.307-1.553,2.43,2.43,0,0,0-.9-1.05,2.671,2.671,0,0,0-1.478-.383,2.61,2.61,0,0,0-1.545.435,2.665,2.665,0,0,0-.922,1.155,4.127,4.127,0,0,0-.308,1.635,4.253,4.253,0,0,0,.308,1.642,2.59,2.59,0,0,0,.945,1.177,3.215,3.215,0,0,0,3.292-.038,1.926,1.926,0,0,0,.8-1.117h1.05a2.967,2.967,0,0,1-.63,1.372,3.179,3.179,0,0,1-1.215.892A4.23,4.23,0,0,1,64.805,15.255ZM70.625,15V7.065h.9V10.38h-.09A3.7,3.7,0,0,1,72.2,7.807a3.113,3.113,0,0,1,2.4-.832h.255v1.02H74.39a2.68,2.68,0,0,0-1.965.668,2.635,2.635,0,0,0-.675,1.957V15Zm11.76,0L84.08,7.32h1.575L87.62,15h-.975L84.68,7.365h.36L83.33,15Zm-.645,0v-.915h1.365V15Zm-.27,0-2.3-7.935h1.08L82.52,15Zm5.43,0v-.915h1.335V15Zm.585,0,1.98-7.935H90.5L88.475,15Zm8.265.255a4.125,4.125,0,0,1-1.77-.352,3.433,3.433,0,0,1-1.23-.945,4.011,4.011,0,0,1-.712-1.327,4.993,4.993,0,0,1-.233-1.515V10.9a4.945,4.945,0,0,1,.233-1.5,3.928,3.928,0,0,1,.712-1.32,3.524,3.524,0,0,1,1.208-.937,3.863,3.863,0,0,1,1.7-.353,3.666,3.666,0,0,1,2.077.555A3.553,3.553,0,0,1,98.99,8.767a4.175,4.175,0,0,1,.42,1.852V11.2h-7.1v-.87H98.63l-.285.435a3.676,3.676,0,0,0-.307-1.553,2.43,2.43,0,0,0-.9-1.05,2.671,2.671,0,0,0-1.478-.383,2.61,2.61,0,0,0-1.545.435,2.665,2.665,0,0,0-.923,1.155,4.127,4.127,0,0,0-.308,1.635,4.253,4.253,0,0,0,.308,1.642,2.59,2.59,0,0,0,.945,1.177,3.215,3.215,0,0,0,3.292-.038,1.926,1.926,0,0,0,.8-1.117h1.05a2.967,2.967,0,0,1-.63,1.372,3.179,3.179,0,0,1-1.215.892A4.23,4.23,0,0,1,95.75,15.255Zm12.57,0a3.794,3.794,0,0,1-1.582-.323,3.659,3.659,0,0,1-1.23-.9,4.12,4.12,0,0,1-.795-1.32,4.483,4.483,0,0,1-.278-1.583v-.21a4.507,4.507,0,0,1,.27-1.552,4.153,4.153,0,0,1,.772-1.32,3.635,3.635,0,0,1,2.813-1.253,3.518,3.518,0,0,1,1.77.435,3.256,3.256,0,0,1,1.23,1.253,4.216,4.216,0,0,1,.5,2l-.5-.93V4.05h1.125V15h-.9V11.475h.36a4.356,4.356,0,0,1-.518,2.092,3.2,3.2,0,0,1-1.275,1.267A3.686,3.686,0,0,1,108.32,15.255Zm.15-.99a2.976,2.976,0,0,0,1.463-.36,2.6,2.6,0,0,0,1.027-1.028,3.085,3.085,0,0,0,.375-1.537v-.72a2.86,2.86,0,0,0-.375-1.477,2.662,2.662,0,0,0-1.027-1,3.007,3.007,0,0,0-1.478-.36,2.742,2.742,0,0,0-1.537.428,2.811,2.811,0,0,0-1.005,1.163,3.767,3.767,0,0,0-.353,1.65,3.772,3.772,0,0,0,.36,1.68,2.742,2.742,0,0,0,1.02,1.148A2.826,2.826,0,0,0,108.47,14.265Zm10.17.99a4.125,4.125,0,0,1-1.77-.352,3.433,3.433,0,0,1-1.23-.945,4.011,4.011,0,0,1-.712-1.327,4.993,4.993,0,0,1-.233-1.515V10.9a4.945,4.945,0,0,1,.233-1.5,3.928,3.928,0,0,1,.712-1.32,3.524,3.524,0,0,1,1.208-.937,3.863,3.863,0,0,1,1.7-.353,3.666,3.666,0,0,1,2.077.555,3.553,3.553,0,0,1,1.253,1.418,4.175,4.175,0,0,1,.42,1.852V11.2h-7.1v-.87h6.315l-.285.435a3.676,3.676,0,0,0-.307-1.553,2.43,2.43,0,0,0-.9-1.05,2.671,2.671,0,0,0-1.478-.383,2.61,2.61,0,0,0-1.545.435,2.665,2.665,0,0,0-.923,1.155,4.127,4.127,0,0,0-.308,1.635,4.253,4.253,0,0,0,.308,1.642,2.59,2.59,0,0,0,.945,1.177,3.215,3.215,0,0,0,3.292-.038,1.926,1.926,0,0,0,.8-1.117h1.05a2.967,2.967,0,0,1-.63,1.372,3.179,3.179,0,0,1-1.215.892A4.23,4.23,0,0,1,118.64,15.255ZM124.685,15V6.36a2.4,2.4,0,0,1,.645-1.845,2.752,2.752,0,0,1,1.935-.6h.915v.96h-1.125a1.3,1.3,0,0,0-.96.33,1.258,1.258,0,0,0-.33.93V15ZM123.53,7.935v-.87h4.6v.87ZM130.205,15V7.065h1.125V15Zm-1.23-7.035v-.9h2.355v.9Zm1.47-2.37a.766.766,0,0,1-.6-.217.789.789,0,0,1-.2-.547.789.789,0,0,1,.2-.547.936.936,0,0,1,1.2,0,.79.79,0,0,1,.2.547.789.789,0,0,1-.2.547A.766.766,0,0,1,130.445,5.595ZM134.27,15V7.065h.9V10.4h-.18a4.959,4.959,0,0,1,.33-1.905,2.641,2.641,0,0,1,.99-1.23,2.966,2.966,0,0,1,1.665-.435h.045a2.665,2.665,0,0,1,2.235.938,4.174,4.174,0,0,1,.735,2.633V15h-1.11V10.155a2.387,2.387,0,0,0-.57-1.665,2.035,2.035,0,0,0-1.59-.63,2.252,2.252,0,0,0-1.687.652,2.352,2.352,0,0,0-.637,1.718V15Zm12.84.255a4.125,4.125,0,0,1-1.77-.352,3.433,3.433,0,0,1-1.23-.945,4.011,4.011,0,0,1-.713-1.327,4.994,4.994,0,0,1-.232-1.515V10.9a4.945,4.945,0,0,1,.232-1.5,3.928,3.928,0,0,1,.713-1.32,3.524,3.524,0,0,1,1.207-.937,3.863,3.863,0,0,1,1.7-.353,3.666,3.666,0,0,1,2.077.555,3.553,3.553,0,0,1,1.252,1.418,4.176,4.176,0,0,1,.42,1.852V11.2h-7.1v-.87h6.315l-.285.435a3.676,3.676,0,0,0-.308-1.553,2.429,2.429,0,0,0-.9-1.05,2.671,2.671,0,0,0-1.477-.383,2.61,2.61,0,0,0-1.545.435,2.665,2.665,0,0,0-.923,1.155,4.127,4.127,0,0,0-.307,1.635,4.253,4.253,0,0,0,.307,1.642,2.59,2.59,0,0,0,.945,1.177,3.215,3.215,0,0,0,3.292-.038,1.926,1.926,0,0,0,.795-1.117h1.05a2.967,2.967,0,0,1-.63,1.372,3.179,3.179,0,0,1-1.215.892A4.23,4.23,0,0,1,147.11,15.255Zm12.195-.165a3.83,3.83,0,0,1-1.425-.24,1.829,1.829,0,0,1-.93-.818,3.127,3.127,0,0,1-.33-1.553V4.56h1.08v8.085a1.414,1.414,0,0,0,.375,1.057,1.458,1.458,0,0,0,1.065.367h1.425v1.02ZM155.2,7.92V7.065h5.37V7.92ZM162.74,15V4.05h1.125v6.2l-.33.255a5.3,5.3,0,0,1,.322-1.935,2.734,2.734,0,0,1,.975-1.282,2.793,2.793,0,0,1,1.643-.457h.06a2.608,2.608,0,0,1,2.182.945,4.15,4.15,0,0,1,.743,2.625V15h-1.11V10.155a2.338,2.338,0,0,0-.585-1.68,2.071,2.071,0,0,0-1.575-.615,2.195,2.195,0,0,0-1.695.682,2.538,2.538,0,0,0-.63,1.792V15Zm12.84.255a4.125,4.125,0,0,1-1.77-.352,3.433,3.433,0,0,1-1.23-.945,4.011,4.011,0,0,1-.713-1.327,4.994,4.994,0,0,1-.232-1.515V10.9a4.945,4.945,0,0,1,.232-1.5,3.928,3.928,0,0,1,.713-1.32,3.524,3.524,0,0,1,1.207-.937,3.863,3.863,0,0,1,1.7-.353,3.666,3.666,0,0,1,2.078.555,3.553,3.553,0,0,1,1.252,1.418,4.175,4.175,0,0,1,.42,1.852V11.2h-7.095v-.87h6.315l-.285.435a3.676,3.676,0,0,0-.308-1.553,2.429,2.429,0,0,0-.9-1.05,2.671,2.671,0,0,0-1.478-.383,2.61,2.61,0,0,0-1.545.435,2.665,2.665,0,0,0-.923,1.155,4.127,4.127,0,0,0-.307,1.635,4.253,4.253,0,0,0,.307,1.642,2.59,2.59,0,0,0,.945,1.177,3.215,3.215,0,0,0,3.292-.038,1.926,1.926,0,0,0,.795-1.117h1.05a2.967,2.967,0,0,1-.63,1.372,3.179,3.179,0,0,1-1.215.892A4.23,4.23,0,0,1,175.58,15.255ZM31.272,34V25.45a2.4,2.4,0,0,1,.645-1.845,2.752,2.752,0,0,1,1.935-.6h1.005v.96H33.642a1.3,1.3,0,0,0-.96.33,1.258,1.258,0,0,0-.33.93V34Zm-1.155-7.005v-.87h4.905v.87ZM36.6,34V26.065h.9V29.38h-.09a3.7,3.7,0,0,1,.765-2.573,3.113,3.113,0,0,1,2.4-.833h.255v1.02h-.465a2.68,2.68,0,0,0-1.965.668,2.635,2.635,0,0,0-.675,1.957V34Zm10.845,0V31.615h-.18V28.8a1.855,1.855,0,0,0-.465-1.358,1.943,1.943,0,0,0-1.44-.472q-.45,0-.908.015t-.87.038q-.413.023-.728.052v-.99l.675-.06q.345-.03.713-.038t.713-.008a5.314,5.314,0,0,1,1.957.3A2.064,2.064,0,0,1,48,27.212a3.547,3.547,0,0,1,.345,1.688V34Zm-2.685.21a3.485,3.485,0,0,1-1.485-.3,2.262,2.262,0,0,1-1-.87,2.574,2.574,0,0,1-.353-1.38,2.391,2.391,0,0,1,.368-1.35,2.3,2.3,0,0,1,1.065-.847,4.359,4.359,0,0,1,1.688-.292h2.325v.855h-2.4a2.078,2.078,0,0,0-1.448.458,1.537,1.537,0,0,0-.5,1.192,1.479,1.479,0,0,0,.525,1.193,2.141,2.141,0,0,0,1.425.443,2.86,2.86,0,0,0,1.065-.2,1.894,1.894,0,0,0,.855-.69,2.444,2.444,0,0,0,.375-1.342l.33.465a3.234,3.234,0,0,1-.42,1.478,2.3,2.3,0,0,1-.975.892A3.249,3.249,0,0,1,44.757,34.21Zm6.39-.21V26.05h.9V29.4h-.18a5.236,5.236,0,0,1,.308-1.89,2.66,2.66,0,0,1,.922-1.237,2.6,2.6,0,0,1,1.56-.442H54.7a2.637,2.637,0,0,1,1.56.435,2.569,2.569,0,0,1,.915,1.23,5.4,5.4,0,0,1,.3,1.905h-.36a5.236,5.236,0,0,1,.308-1.89,2.483,2.483,0,0,1,2.5-1.68h.045a2.672,2.672,0,0,1,1.568.435,2.594,2.594,0,0,1,.93,1.23,5.283,5.283,0,0,1,.307,1.905V34H61.647V29.14a2.528,2.528,0,0,0-.51-1.665,1.8,1.8,0,0,0-1.47-.615A2.01,2.01,0,0,0,58.1,27.5a2.461,2.461,0,0,0-.577,1.718V34H56.4V29.14a2.528,2.528,0,0,0-.51-1.665,1.8,1.8,0,0,0-1.47-.615,2.01,2.01,0,0,0-1.568.637,2.461,2.461,0,0,0-.577,1.718V34Zm17.745.255a4.125,4.125,0,0,1-1.77-.353,3.433,3.433,0,0,1-1.23-.945,4.011,4.011,0,0,1-.712-1.328,4.993,4.993,0,0,1-.233-1.515V29.9a4.945,4.945,0,0,1,.233-1.5,3.928,3.928,0,0,1,.712-1.32,3.524,3.524,0,0,1,1.208-.937,3.863,3.863,0,0,1,1.7-.353,3.666,3.666,0,0,1,2.077.555,3.553,3.553,0,0,1,1.253,1.418,4.175,4.175,0,0,1,.42,1.852V30.2h-7.1v-.87h6.315l-.285.435a3.676,3.676,0,0,0-.307-1.553,2.43,2.43,0,0,0-.9-1.05,2.671,2.671,0,0,0-1.478-.382,2.61,2.61,0,0,0-1.545.435,2.665,2.665,0,0,0-.923,1.155,4.127,4.127,0,0,0-.308,1.635,4.253,4.253,0,0,0,.308,1.642,2.59,2.59,0,0,0,.945,1.178,3.215,3.215,0,0,0,3.292-.038,1.926,1.926,0,0,0,.8-1.118h1.05a2.967,2.967,0,0,1-.63,1.373,3.179,3.179,0,0,1-1.215.892A4.23,4.23,0,0,1,68.893,34.255ZM76.872,34l1.695-7.68h1.575L82.107,34h-.975l-1.965-7.635h.36L77.817,34Zm-.645,0v-.915h1.365V34Zm-.27,0-2.3-7.935h1.08L77.007,34Zm5.43,0v-.915h1.335V34Zm.585,0,1.98-7.935h1.035L82.962,34Zm8.505.255a4.279,4.279,0,0,1-1.793-.353,3.914,3.914,0,0,1-1.305-.945,4.244,4.244,0,0,1-1.088-2.828v-.21a4.176,4.176,0,0,1,.285-1.508,4.113,4.113,0,0,1,.825-1.327,4.05,4.05,0,0,1,1.313-.937,4.62,4.62,0,0,1,3.54,0,4.05,4.05,0,0,1,1.313.938,4.009,4.009,0,0,1,.818,1.327,4.276,4.276,0,0,1,.277,1.508v.21a4.319,4.319,0,0,1-.27,1.5,4.07,4.07,0,0,1-.8,1.328,3.9,3.9,0,0,1-1.312.945A4.331,4.331,0,0,1,90.478,34.255Zm0-1.005a3.01,3.01,0,0,0,1.673-.443,2.907,2.907,0,0,0,1.042-1.17,3.789,3.789,0,0,0-.007-3.24,2.839,2.839,0,0,0-1.057-1.155,3.369,3.369,0,0,0-3.285,0A2.839,2.839,0,0,0,87.785,28.4a3.789,3.789,0,0,0-.007,3.24,2.907,2.907,0,0,0,1.043,1.17A2.982,2.982,0,0,0,90.478,33.25Zm6.48.75V26.065h.9V29.38h-.09a3.7,3.7,0,0,1,.765-2.573,3.113,3.113,0,0,1,2.4-.833h.255v1.02h-.465a2.68,2.68,0,0,0-1.965.668,2.635,2.635,0,0,0-.675,1.957V34ZM108.4,34l-3.195-3.72h-1.29l3.765-4.215h1.2l-3.375,3.765.075-.615L109.723,34ZM103,34V23.05h1.125V34Zm15.285.255a4.279,4.279,0,0,1-1.793-.353,3.914,3.914,0,0,1-1.305-.945A4.244,4.244,0,0,1,114.1,30.13v-.21a4.176,4.176,0,0,1,.285-1.508,4.113,4.113,0,0,1,.825-1.327,4.05,4.05,0,0,1,1.313-.937,4.62,4.62,0,0,1,3.54,0,4.05,4.05,0,0,1,1.313.938,4.009,4.009,0,0,1,.818,1.327,4.276,4.276,0,0,1,.277,1.508v.21a4.319,4.319,0,0,1-.27,1.5,4.07,4.07,0,0,1-.8,1.328,3.9,3.9,0,0,1-1.312.945A4.331,4.331,0,0,1,118.287,34.255Zm0-1.005a3.01,3.01,0,0,0,1.673-.443A2.907,2.907,0,0,0,121,31.638a3.789,3.789,0,0,0-.007-3.24,2.839,2.839,0,0,0-1.057-1.155,3.369,3.369,0,0,0-3.285,0,2.839,2.839,0,0,0-1.058,1.155,3.789,3.789,0,0,0-.007,3.24,2.907,2.907,0,0,0,1.043,1.17A2.982,2.982,0,0,0,118.287,33.25Zm6.705.75V25.45a2.4,2.4,0,0,1,.645-1.845,2.752,2.752,0,0,1,1.935-.6h1v.96h-1.215a1.3,1.3,0,0,0-.96.33,1.258,1.258,0,0,0-.33.93V34Zm-1.155-7.005v-.87h4.9v.87Zm12.93,7.1a3.83,3.83,0,0,1-1.425-.24,1.829,1.829,0,0,1-.93-.817,3.127,3.127,0,0,1-.33-1.553V23.56h1.08v8.085a1.414,1.414,0,0,0,.375,1.057,1.458,1.458,0,0,0,1.065.368h1.425v1.02Zm-4.11-7.17v-.855h5.37v.855ZM140.2,34V23.05h1.125v6.195L141,29.5a5.3,5.3,0,0,1,.322-1.935,2.734,2.734,0,0,1,.975-1.282,2.793,2.793,0,0,1,1.643-.457H144a2.608,2.608,0,0,1,2.182.945,4.15,4.15,0,0,1,.743,2.625V34h-1.11V29.155a2.338,2.338,0,0,0-.585-1.68,2.071,2.071,0,0,0-1.575-.615,2.195,2.195,0,0,0-1.695.682,2.538,2.538,0,0,0-.63,1.792V34Zm12.84.255a4.125,4.125,0,0,1-1.77-.353,3.433,3.433,0,0,1-1.23-.945,4.011,4.011,0,0,1-.713-1.328,4.993,4.993,0,0,1-.232-1.515V29.9a4.945,4.945,0,0,1,.232-1.5,3.928,3.928,0,0,1,.713-1.32,3.524,3.524,0,0,1,1.207-.937,3.863,3.863,0,0,1,1.7-.353,3.666,3.666,0,0,1,2.077.555,3.553,3.553,0,0,1,1.252,1.418,4.176,4.176,0,0,1,.42,1.852V30.2h-7.1v-.87h6.315l-.285.435a3.676,3.676,0,0,0-.308-1.553,2.429,2.429,0,0,0-.9-1.05,2.671,2.671,0,0,0-1.477-.382,2.61,2.61,0,0,0-1.545.435,2.665,2.665,0,0,0-.923,1.155,4.127,4.127,0,0,0-.307,1.635,4.253,4.253,0,0,0,.307,1.642,2.59,2.59,0,0,0,.945,1.178,3.215,3.215,0,0,0,3.292-.038,1.926,1.926,0,0,0,.795-1.118h1.05a2.967,2.967,0,0,1-.63,1.373,3.179,3.179,0,0,1-1.215.892A4.23,4.23,0,0,1,153.043,34.255Zm-146.1,19a4.125,4.125,0,0,1-1.77-.353,3.433,3.433,0,0,1-1.23-.945A4.011,4.011,0,0,1,3.23,50.63,4.993,4.993,0,0,1,3,49.115V48.9a4.945,4.945,0,0,1,.232-1.5,3.928,3.928,0,0,1,.713-1.32,3.524,3.524,0,0,1,1.207-.937,3.863,3.863,0,0,1,1.7-.353,3.666,3.666,0,0,1,2.077.555,3.553,3.553,0,0,1,1.253,1.418,4.175,4.175,0,0,1,.42,1.852V49.2h-7.1v-.87H9.822l-.285.435a3.676,3.676,0,0,0-.307-1.553,2.43,2.43,0,0,0-.9-1.05,2.671,2.671,0,0,0-1.477-.382,2.61,2.61,0,0,0-1.545.435,2.665,2.665,0,0,0-.923,1.155,4.127,4.127,0,0,0-.307,1.635,4.253,4.253,0,0,0,.307,1.643A2.59,2.59,0,0,0,5.33,51.83a2.8,2.8,0,0,0,1.613.435,2.774,2.774,0,0,0,1.68-.472,1.926,1.926,0,0,0,.8-1.118h1.05a2.967,2.967,0,0,1-.63,1.373,3.179,3.179,0,0,1-1.215.892A4.23,4.23,0,0,1,6.942,53.255ZM11.772,53l2.94-4.185v.3l-2.76-4.05h1.23l2.1,3.12h.21l2-3.12h1.155l-2.6,3.93V48.71L19.137,53h-1.23l-2.43-3.375h-.2L12.927,53Zm9.18,3V45.065h.9V48.47l-.27.03a4.612,4.612,0,0,1,.517-2.025,3.1,3.1,0,0,1,1.245-1.252,3.862,3.862,0,0,1,3.345-.09,3.677,3.677,0,0,1,1.215.915,4.044,4.044,0,0,1,.765,1.32,4.623,4.623,0,0,1,.263,1.552v.21a4.508,4.508,0,0,1-.27,1.552A4.153,4.153,0,0,1,27.89,52a3.635,3.635,0,0,1-2.813,1.253,3.572,3.572,0,0,1-1.733-.428A3.268,3.268,0,0,1,22.07,51.56a4.394,4.394,0,0,1-.532-2.07l.54,1.125V56Zm3.975-3.735a2.732,2.732,0,0,0,1.545-.427,2.769,2.769,0,0,0,.99-1.17,3.85,3.85,0,0,0,.345-1.642,3.754,3.754,0,0,0-.353-1.658,2.841,2.841,0,0,0-1-1.155,2.705,2.705,0,0,0-1.53-.428,3.019,3.019,0,0,0-1.47.36,2.67,2.67,0,0,0-1.042,1.013,2.986,2.986,0,0,0-.382,1.537v.735a2.816,2.816,0,0,0,.382,1.478,2.7,2.7,0,0,0,1.042,1A3.019,3.019,0,0,0,24.927,52.265Zm9.6.99a4.125,4.125,0,0,1-1.77-.353,3.433,3.433,0,0,1-1.23-.945,4.011,4.011,0,0,1-.712-1.327,4.993,4.993,0,0,1-.233-1.515V48.9a4.945,4.945,0,0,1,.233-1.5,3.928,3.928,0,0,1,.712-1.32,3.524,3.524,0,0,1,1.207-.937,3.863,3.863,0,0,1,1.7-.353,3.666,3.666,0,0,1,2.078.555,3.553,3.553,0,0,1,1.252,1.418,4.175,4.175,0,0,1,.42,1.852V49.2H31.092v-.87h6.315l-.285.435a3.676,3.676,0,0,0-.307-1.553,2.43,2.43,0,0,0-.9-1.05,2.671,2.671,0,0,0-1.478-.382,2.61,2.61,0,0,0-1.545.435,2.665,2.665,0,0,0-.923,1.155,4.127,4.127,0,0,0-.307,1.635,4.253,4.253,0,0,0,.307,1.643,2.59,2.59,0,0,0,.945,1.178,3.215,3.215,0,0,0,3.292-.038,1.926,1.926,0,0,0,.8-1.118h1.05a2.967,2.967,0,0,1-.63,1.373,3.179,3.179,0,0,1-1.215.892A4.23,4.23,0,0,1,34.527,53.255ZM40.347,53V45.065h.9V48.38h-.09a3.7,3.7,0,0,1,.765-2.573,3.113,3.113,0,0,1,2.4-.833h.255v1.02h-.465a2.68,2.68,0,0,0-1.965.667,2.635,2.635,0,0,0-.675,1.958V53Zm6.465,0V45.065h1.11V53Zm-1.275-7.035v-.9h2.385v.9Zm1.515-2.37a.791.791,0,0,1-.608-.218.841.841,0,0,1,0-1.095.791.791,0,0,1,.608-.218.766.766,0,0,1,.6.218.866.866,0,0,1,0,1.095A.766.766,0,0,1,47.052,43.6Zm7.14,9.66a4.125,4.125,0,0,1-1.77-.353,3.433,3.433,0,0,1-1.23-.945,4.012,4.012,0,0,1-.713-1.327,4.993,4.993,0,0,1-.232-1.515V48.9a4.945,4.945,0,0,1,.232-1.5,3.928,3.928,0,0,1,.713-1.32,3.524,3.524,0,0,1,1.208-.937,3.863,3.863,0,0,1,1.7-.353,3.666,3.666,0,0,1,2.077.555,3.553,3.553,0,0,1,1.253,1.418,4.175,4.175,0,0,1,.42,1.852V49.2h-7.1v-.87h6.315l-.285.435a3.676,3.676,0,0,0-.308-1.553,2.429,2.429,0,0,0-.9-1.05,2.671,2.671,0,0,0-1.478-.382,2.61,2.61,0,0,0-1.545.435,2.665,2.665,0,0,0-.922,1.155,4.127,4.127,0,0,0-.308,1.635,4.253,4.253,0,0,0,.308,1.643,2.59,2.59,0,0,0,.945,1.178,3.215,3.215,0,0,0,3.292-.038,1.926,1.926,0,0,0,.795-1.118h1.05a2.967,2.967,0,0,1-.63,1.373,3.179,3.179,0,0,1-1.215.892A4.23,4.23,0,0,1,54.192,53.255ZM60.012,53V45.065h.9V48.4h-.18a4.959,4.959,0,0,1,.33-1.905,2.641,2.641,0,0,1,.99-1.23,2.966,2.966,0,0,1,1.665-.435h.045A2.665,2.665,0,0,1,66,45.763a4.174,4.174,0,0,1,.735,2.632V53h-1.11V48.155a2.387,2.387,0,0,0-.57-1.665,2.035,2.035,0,0,0-1.59-.63,2.252,2.252,0,0,0-1.687.653,2.352,2.352,0,0,0-.637,1.717V53Zm12.87.255a4.037,4.037,0,0,1-1.748-.353,3.516,3.516,0,0,1-1.237-.96,4.263,4.263,0,0,1-.743-1.343,4.626,4.626,0,0,1-.248-1.485V48.9a4.6,4.6,0,0,1,.248-1.493,4.1,4.1,0,0,1,.743-1.32,3.6,3.6,0,0,1,1.237-.945,3.962,3.962,0,0,1,1.717-.353,4.127,4.127,0,0,1,1.763.36,3.178,3.178,0,0,1,1.253,1.02,3.128,3.128,0,0,1,.57,1.56h-1.08a2.232,2.232,0,0,0-.772-1.373,2.571,2.571,0,0,0-1.733-.548,2.707,2.707,0,0,0-1.567.428,2.639,2.639,0,0,0-.937,1.155,4.016,4.016,0,0,0-.315,1.612,4.086,4.086,0,0,0,.315,1.613,2.57,2.57,0,0,0,2.535,1.627,2.937,2.937,0,0,0,1.282-.263,2.358,2.358,0,0,0,.885-.712,1.991,1.991,0,0,0,.4-.99h1.08a2.862,2.862,0,0,1-.562,1.568,3.355,3.355,0,0,1-1.3,1.035A4.2,4.2,0,0,1,72.882,53.255Zm9.03,0a4.125,4.125,0,0,1-1.77-.353,3.433,3.433,0,0,1-1.23-.945A4.011,4.011,0,0,1,78.2,50.63a4.993,4.993,0,0,1-.233-1.515V48.9a4.945,4.945,0,0,1,.233-1.5,3.928,3.928,0,0,1,.712-1.32,3.524,3.524,0,0,1,1.208-.937,3.863,3.863,0,0,1,1.7-.353,3.666,3.666,0,0,1,2.077.555,3.553,3.553,0,0,1,1.253,1.418,4.175,4.175,0,0,1,.42,1.852V49.2h-7.1v-.87h6.315l-.285.435a3.676,3.676,0,0,0-.307-1.553,2.43,2.43,0,0,0-.9-1.05,2.671,2.671,0,0,0-1.478-.382,2.61,2.61,0,0,0-1.545.435,2.665,2.665,0,0,0-.923,1.155,4.127,4.127,0,0,0-.308,1.635,4.253,4.253,0,0,0,.308,1.643A2.59,2.59,0,0,0,80.3,51.83a3.215,3.215,0,0,0,3.292-.038,1.926,1.926,0,0,0,.8-1.118h1.05a2.967,2.967,0,0,1-.63,1.373,3.179,3.179,0,0,1-1.215.892A4.23,4.23,0,0,1,81.912,53.255ZM96.058,53V50.615h-.18v-2.82a1.855,1.855,0,0,0-.465-1.357,1.943,1.943,0,0,0-1.44-.472q-.45,0-.907.015t-.87.037q-.413.023-.728.053v-.99l.675-.06q.345-.03.712-.038t.713-.007a5.314,5.314,0,0,1,1.958.3,2.064,2.064,0,0,1,1.088.938,3.547,3.547,0,0,1,.345,1.688V53Zm-2.685.21a3.485,3.485,0,0,1-1.485-.3,2.262,2.262,0,0,1-1-.87,2.574,2.574,0,0,1-.353-1.38,2.391,2.391,0,0,1,.368-1.35,2.3,2.3,0,0,1,1.065-.847,4.359,4.359,0,0,1,1.688-.293h2.325v.855h-2.4a2.078,2.078,0,0,0-1.447.457,1.537,1.537,0,0,0-.5,1.193,1.479,1.479,0,0,0,.525,1.193,2.141,2.141,0,0,0,1.425.443,2.86,2.86,0,0,0,1.065-.2,1.894,1.894,0,0,0,.855-.69,2.444,2.444,0,0,0,.375-1.342l.33.465a3.234,3.234,0,0,1-.42,1.478,2.3,2.3,0,0,1-.975.892A3.249,3.249,0,0,1,93.372,53.21Zm6.39-.21V45.065h.9V48.4h-.18a4.959,4.959,0,0,1,.33-1.905,2.641,2.641,0,0,1,.99-1.23,2.966,2.966,0,0,1,1.665-.435h.045a2.665,2.665,0,0,1,2.235.938,4.174,4.174,0,0,1,.735,2.632V53h-1.11V48.155a2.387,2.387,0,0,0-.57-1.665,2.035,2.035,0,0,0-1.59-.63,2.252,2.252,0,0,0-1.687.653,2.352,2.352,0,0,0-.637,1.717V53Zm12.78.255a3.794,3.794,0,0,1-1.582-.323,3.659,3.659,0,0,1-1.23-.9,4.12,4.12,0,0,1-.795-1.32,4.483,4.483,0,0,1-.278-1.583v-.21a4.507,4.507,0,0,1,.27-1.552,4.153,4.153,0,0,1,.772-1.32,3.635,3.635,0,0,1,2.813-1.253,3.518,3.518,0,0,1,1.77.435,3.256,3.256,0,0,1,1.23,1.252,4.216,4.216,0,0,1,.5,2l-.5-.93V42.05h1.125V53h-.9V49.475h.36a4.356,4.356,0,0,1-.518,2.093,3.2,3.2,0,0,1-1.275,1.267A3.686,3.686,0,0,1,112.543,53.255Zm.15-.99a2.976,2.976,0,0,0,1.463-.36,2.6,2.6,0,0,0,1.027-1.028,3.085,3.085,0,0,0,.375-1.537v-.72a2.86,2.86,0,0,0-.375-1.477,2.662,2.662,0,0,0-1.027-1,3.007,3.007,0,0,0-1.478-.36,2.742,2.742,0,0,0-1.537.428,2.811,2.811,0,0,0-1.005,1.162,4.069,4.069,0,0,0,.007,3.33,2.742,2.742,0,0,0,1.02,1.147A2.826,2.826,0,0,0,112.693,52.265Zm14.445.99a3.546,3.546,0,0,1-1.838-.465,3.227,3.227,0,0,1-1.23-1.305,4.353,4.353,0,0,1-.472-1.935h.345V53h-.9V42.05h1.125v5.475l-.435,1a4.4,4.4,0,0,1,.488-2.033,3.163,3.163,0,0,1,1.23-1.267,3.53,3.53,0,0,1,1.762-.435A3.618,3.618,0,0,1,130,46.025a3.959,3.959,0,0,1,.765,1.313,4.668,4.668,0,0,1,.262,1.567v.21a4.507,4.507,0,0,1-.27,1.552,4.245,4.245,0,0,1-.772,1.327,3.61,3.61,0,0,1-1.223.923A3.771,3.771,0,0,1,127.138,53.255Zm-.12-.99a2.7,2.7,0,0,0,1.545-.435,2.83,2.83,0,0,0,.99-1.17,3.837,3.837,0,0,0,.345-1.65,3.754,3.754,0,0,0-.352-1.657,2.7,2.7,0,0,0-2.528-1.568,3.019,3.019,0,0,0-1.47.36,2.67,2.67,0,0,0-1.042,1.013,2.986,2.986,0,0,0-.382,1.537v.735a2.816,2.816,0,0,0,.382,1.478,2.7,2.7,0,0,0,1.042,1A3.019,3.019,0,0,0,127.018,52.265Zm9.6.99a4.125,4.125,0,0,1-1.77-.353,3.433,3.433,0,0,1-1.23-.945,4.011,4.011,0,0,1-.713-1.327,4.993,4.993,0,0,1-.232-1.515V48.9a4.945,4.945,0,0,1,.232-1.5,3.928,3.928,0,0,1,.713-1.32,3.524,3.524,0,0,1,1.207-.937,3.863,3.863,0,0,1,1.7-.353,3.666,3.666,0,0,1,2.078.555,3.553,3.553,0,0,1,1.252,1.418,4.175,4.175,0,0,1,.42,1.852V49.2h-7.095v-.87H139.5l-.285.435a3.676,3.676,0,0,0-.308-1.553,2.429,2.429,0,0,0-.9-1.05,2.671,2.671,0,0,0-1.478-.382,2.61,2.61,0,0,0-1.545.435,2.665,2.665,0,0,0-.923,1.155,4.127,4.127,0,0,0-.307,1.635,4.253,4.253,0,0,0,.307,1.643,2.59,2.59,0,0,0,.945,1.178,3.215,3.215,0,0,0,3.292-.038,1.926,1.926,0,0,0,.795-1.118h1.05a2.967,2.967,0,0,1-.63,1.373,3.179,3.179,0,0,1-1.215.892A4.23,4.23,0,0,1,136.618,53.255Zm8.85,2.85q-.555,0-1.118-.052t-1.072-.128v-.96q.54.075,1.133.127t1.117.053a4.542,4.542,0,0,0,1.815-.3,1.839,1.839,0,0,0,.967-.952,4.245,4.245,0,0,0,.292-1.718v-1.59l.42-1.11a4.239,4.239,0,0,1-.48,1.958,3.153,3.153,0,0,1-1.215,1.253,3.458,3.458,0,0,1-1.74.435,3.527,3.527,0,0,1-2.745-1.237,4.25,4.25,0,0,1-.765-1.312,4.445,4.445,0,0,1-.27-1.545v-.21a4.34,4.34,0,0,1,.27-1.522,4.085,4.085,0,0,1,.765-1.29,3.518,3.518,0,0,1,1.208-.885,3.794,3.794,0,0,1,1.582-.323,3.506,3.506,0,0,1,1.83.465,3.267,3.267,0,0,1,1.223,1.29,4.286,4.286,0,0,1,.473,1.935l-.36-.195V45.065h.885V52.13a5.317,5.317,0,0,1-.42,2.295A2.594,2.594,0,0,1,147.92,55.7,6.189,6.189,0,0,1,145.468,56.1Zm.315-4.02a2.941,2.941,0,0,0,1.447-.353,2.622,2.622,0,0,0,1.012-1,2.93,2.93,0,0,0,.375-1.5V48.5a2.67,2.67,0,0,0-.382-1.44,2.7,2.7,0,0,0-1.012-.96,2.949,2.949,0,0,0-1.44-.345,2.714,2.714,0,0,0-1.515.42,2.756,2.756,0,0,0-.99,1.132,3.954,3.954,0,0,0,.008,3.248,2.7,2.7,0,0,0,1,1.125A2.761,2.761,0,0,0,145.783,52.085Zm7.14.915V45.065h1.11V53Zm-1.275-7.035v-.9h2.385v.9Zm1.515-2.37a.791.791,0,0,1-.607-.218.841.841,0,0,1,0-1.095.791.791,0,0,1,.607-.218.766.766,0,0,1,.6.218.866.866,0,0,1,0,1.095A.766.766,0,0,1,153.163,43.6Zm3.825,9.4V45.065h.9V48.4h-.18a4.959,4.959,0,0,1,.33-1.905,2.641,2.641,0,0,1,.99-1.23,2.966,2.966,0,0,1,1.665-.435h.045a2.665,2.665,0,0,1,2.235.938,4.174,4.174,0,0,1,.735,2.632V53H162.6V48.155a2.387,2.387,0,0,0-.57-1.665,2.035,2.035,0,0,0-1.59-.63,2.252,2.252,0,0,0-1.687.653,2.352,2.352,0,0,0-.637,1.717V53Zm15.9.09a3.83,3.83,0,0,1-1.425-.24,1.829,1.829,0,0,1-.93-.817,3.127,3.127,0,0,1-.33-1.553V42.56h1.08v8.085a1.414,1.414,0,0,0,.375,1.057,1.458,1.458,0,0,0,1.065.368h1.425v1.02Zm-4.11-7.17v-.855h5.37v.855ZM179.8,53.255a4.279,4.279,0,0,1-1.792-.353,3.914,3.914,0,0,1-1.3-.945,4.244,4.244,0,0,1-1.088-2.827v-.21a4.176,4.176,0,0,1,.285-1.507,4.113,4.113,0,0,1,.825-1.327,4.05,4.05,0,0,1,1.313-.937,4.62,4.62,0,0,1,3.54,0,4.05,4.05,0,0,1,1.313.938,4.008,4.008,0,0,1,.817,1.327,4.275,4.275,0,0,1,.278,1.507v.21a4.319,4.319,0,0,1-.27,1.5,4.07,4.07,0,0,1-.8,1.327,3.9,3.9,0,0,1-1.312.945A4.331,4.331,0,0,1,179.8,53.255Zm0-1.005a3.01,3.01,0,0,0,1.673-.443,2.907,2.907,0,0,0,1.043-1.17,3.789,3.789,0,0,0-.008-3.24,2.839,2.839,0,0,0-1.057-1.155,3.369,3.369,0,0,0-3.285,0A2.839,2.839,0,0,0,177.11,47.4a3.789,3.789,0,0,0-.008,3.24,2.907,2.907,0,0,0,1.042,1.17A2.982,2.982,0,0,0,179.8,52.25ZM28.22,72V63.45a2.4,2.4,0,0,1,.645-1.845A2.752,2.752,0,0,1,30.8,61h1v.96H30.59a1.3,1.3,0,0,0-.96.33,1.258,1.258,0,0,0-.33.93V72Zm-1.155-7v-.87H31.97V65ZM37.1,72.255a4.279,4.279,0,0,1-1.792-.353A3.914,3.914,0,0,1,34,70.957a4.244,4.244,0,0,1-1.087-2.827v-.21a4.176,4.176,0,0,1,.285-1.507,4.113,4.113,0,0,1,.825-1.327,4.05,4.05,0,0,1,1.313-.937,4.62,4.62,0,0,1,3.54,0,4.05,4.05,0,0,1,1.313.938,4.008,4.008,0,0,1,.817,1.327,4.276,4.276,0,0,1,.278,1.507v.21a4.319,4.319,0,0,1-.27,1.5,4.07,4.07,0,0,1-.8,1.327A3.9,3.9,0,0,1,38.9,71.9,4.331,4.331,0,0,1,37.1,72.255Zm0-1a3.01,3.01,0,0,0,1.673-.442,2.907,2.907,0,0,0,1.043-1.17,3.789,3.789,0,0,0-.008-3.24,2.839,2.839,0,0,0-1.057-1.155,3.369,3.369,0,0,0-3.285,0A2.839,2.839,0,0,0,34.407,66.4a3.789,3.789,0,0,0-.007,3.24,2.907,2.907,0,0,0,1.042,1.17A2.982,2.982,0,0,0,37.1,71.25Zm6.48.75V64.065h.9V67.38h-.09a3.7,3.7,0,0,1,.765-2.572,3.113,3.113,0,0,1,2.4-.833h.255V65h-.465a2.68,2.68,0,0,0-1.965.667A2.635,2.635,0,0,0,44.7,67.62V72Zm6.045,0V64.05h.9v3.345h-.18a5.236,5.236,0,0,1,.308-1.89,2.66,2.66,0,0,1,.922-1.237,2.6,2.6,0,0,1,1.56-.443h.045a2.637,2.637,0,0,1,1.56.435,2.569,2.569,0,0,1,.915,1.23,5.4,5.4,0,0,1,.3,1.9h-.36A5.236,5.236,0,0,1,55.9,65.5a2.483,2.483,0,0,1,2.5-1.68h.045a2.672,2.672,0,0,1,1.567.435,2.594,2.594,0,0,1,.93,1.23,5.283,5.283,0,0,1,.308,1.9V72H60.125V67.14a2.528,2.528,0,0,0-.51-1.665,1.8,1.8,0,0,0-1.47-.615,2.01,2.01,0,0,0-1.567.637A2.461,2.461,0,0,0,56,67.215V72H54.875V67.14a2.528,2.528,0,0,0-.51-1.665,1.8,1.8,0,0,0-1.47-.615,2.01,2.01,0,0,0-1.567.637,2.461,2.461,0,0,0-.577,1.717V72Zm19.26,0V69.615H68.7v-2.82a1.855,1.855,0,0,0-.465-1.357,1.943,1.943,0,0,0-1.44-.473q-.45,0-.907.015t-.87.038q-.413.022-.728.052v-.99l.675-.06q.345-.03.712-.037t.713-.007a5.313,5.313,0,0,1,1.958.3,2.064,2.064,0,0,1,1.088.938,3.547,3.547,0,0,1,.345,1.688V72Zm-2.685.21a3.485,3.485,0,0,1-1.485-.3,2.262,2.262,0,0,1-1-.87,2.574,2.574,0,0,1-.353-1.38,2.391,2.391,0,0,1,.368-1.35,2.3,2.3,0,0,1,1.065-.847,4.359,4.359,0,0,1,1.688-.293H68.81v.855h-2.4a2.078,2.078,0,0,0-1.447.457,1.537,1.537,0,0,0-.5,1.193,1.479,1.479,0,0,0,.525,1.192,2.141,2.141,0,0,0,1.425.442,2.86,2.86,0,0,0,1.065-.2,1.9,1.9,0,0,0,.855-.69,2.444,2.444,0,0,0,.375-1.343l.33.465a3.234,3.234,0,0,1-.42,1.478,2.3,2.3,0,0,1-.975.893A3.249,3.249,0,0,1,66.2,72.21ZM72.665,72V61.05H73.79V72ZM71.51,61.965V61.05h2.28v.915ZM77.12,72V64.065h1.11V72Zm-1.275-7.035v-.9H78.23v.9ZM77.36,62.6a.791.791,0,0,1-.607-.218.841.841,0,0,1,0-1.095.791.791,0,0,1,.607-.218.766.766,0,0,1,.6.218.866.866,0,0,1,0,1.095A.766.766,0,0,1,77.36,62.6ZM80.63,72V70.695l4.6-5.745-.045.255-.21-.33.165.09h-4.56v-.9H86.18V65.37L81.56,71.1l.045-.225.225.33-.165-.105H86.4V72Zm11.085.255a4.125,4.125,0,0,1-1.77-.353,3.433,3.433,0,0,1-1.23-.945A4.011,4.011,0,0,1,88,69.63a4.993,4.993,0,0,1-.233-1.515V67.9A4.945,4.945,0,0,1,88,66.4a3.928,3.928,0,0,1,.712-1.32,3.524,3.524,0,0,1,1.208-.937,3.863,3.863,0,0,1,1.7-.353,3.666,3.666,0,0,1,2.077.555,3.553,3.553,0,0,1,1.253,1.418,4.175,4.175,0,0,1,.42,1.853v.585h-7.1v-.87h6.315l-.285.435A3.676,3.676,0,0,0,94,66.217a2.43,2.43,0,0,0-.9-1.05,2.672,2.672,0,0,0-1.478-.382,2.61,2.61,0,0,0-1.545.435,2.665,2.665,0,0,0-.923,1.155,4.127,4.127,0,0,0-.308,1.635,4.253,4.253,0,0,0,.308,1.642A2.59,2.59,0,0,0,90.1,70.83a3.215,3.215,0,0,0,3.292-.037,1.926,1.926,0,0,0,.8-1.118h1.05a2.967,2.967,0,0,1-.63,1.372,3.179,3.179,0,0,1-1.215.893A4.23,4.23,0,0,1,91.715,72.255Zm12.195-.165a3.83,3.83,0,0,1-1.425-.24,1.829,1.829,0,0,1-.93-.817,3.127,3.127,0,0,1-.33-1.552V61.56h1.08v8.085a1.415,1.415,0,0,0,.375,1.058,1.458,1.458,0,0,0,1.065.368h1.425v1.02ZM99.8,64.92v-.855h5.37v.855ZM107.345,72V61.05h1.125v6.2l-.33.255a5.3,5.3,0,0,1,.323-1.935,2.734,2.734,0,0,1,.975-1.283,2.793,2.793,0,0,1,1.643-.458h.06a2.608,2.608,0,0,1,2.183.945,4.15,4.15,0,0,1,.743,2.625V72h-1.11V67.155a2.338,2.338,0,0,0-.585-1.68,2.071,2.071,0,0,0-1.575-.615,2.195,2.195,0,0,0-1.695.682,2.538,2.538,0,0,0-.63,1.793V72Zm12.84.255a4.125,4.125,0,0,1-1.77-.353,3.433,3.433,0,0,1-1.23-.945,4.011,4.011,0,0,1-.712-1.327,4.993,4.993,0,0,1-.233-1.515V67.9a4.945,4.945,0,0,1,.233-1.5,3.928,3.928,0,0,1,.712-1.32,3.524,3.524,0,0,1,1.208-.937,3.863,3.863,0,0,1,1.7-.353,3.666,3.666,0,0,1,2.077.555,3.553,3.553,0,0,1,1.253,1.418,4.175,4.175,0,0,1,.42,1.853v.585h-7.1v-.87h6.315l-.285.435a3.676,3.676,0,0,0-.307-1.552,2.43,2.43,0,0,0-.9-1.05,2.672,2.672,0,0,0-1.478-.382,2.61,2.61,0,0,0-1.545.435,2.665,2.665,0,0,0-.923,1.155,4.127,4.127,0,0,0-.308,1.635,4.253,4.253,0,0,0,.308,1.642,2.59,2.59,0,0,0,.945,1.178,3.215,3.215,0,0,0,3.292-.037,1.926,1.926,0,0,0,.8-1.118h1.05a2.967,2.967,0,0,1-.63,1.372,3.179,3.179,0,0,1-1.215.893A4.23,4.23,0,0,1,120.185,72.255Zm12.06-.03a2.64,2.64,0,0,1-2.175-.923,3.972,3.972,0,0,1-.75-2.572V64.05h1.11v4.9a2.362,2.362,0,0,0,.548,1.643,1.945,1.945,0,0,0,1.523.607,2.13,2.13,0,0,0,1.628-.645,2.413,2.413,0,0,0,.607-1.725V64.05h1.125V72h-.9V68.685h.18a5.109,5.109,0,0,1-.315,1.9,2.579,2.579,0,0,1-.945,1.215,2.771,2.771,0,0,1-1.59.427Zm9.06,0a3.66,3.66,0,0,1-2.355-.667,2.228,2.228,0,0,1-.84-1.793h1.05a1.522,1.522,0,0,0,.518,1.035,2.319,2.319,0,0,0,1.628.465,2.455,2.455,0,0,0,1.6-.442,1.349,1.349,0,0,0,.533-1.073,1.058,1.058,0,0,0-.442-.908,2.655,2.655,0,0,0-1.283-.412l-.9-.09a3.258,3.258,0,0,1-1.747-.667,1.844,1.844,0,0,1-.667-1.507,2.121,2.121,0,0,1,.36-1.23,2.365,2.365,0,0,1,1.012-.817,3.733,3.733,0,0,1,1.538-.292,3.379,3.379,0,0,1,2.077.6,2.045,2.045,0,0,1,.817,1.71h-1.05a1.253,1.253,0,0,0-.48-.96,2.077,2.077,0,0,0-1.365-.39,2.044,2.044,0,0,0-1.388.405,1.273,1.273,0,0,0-.457.99,1.071,1.071,0,0,0,.345.817,1.825,1.825,0,0,0,1.08.4l.9.09a4.016,4.016,0,0,1,1.958.69,1.852,1.852,0,0,1,.757,1.59,2.144,2.144,0,0,1-.4,1.268,2.609,2.609,0,0,1-1.118.878A4.162,4.162,0,0,1,141.305,72.225Zm8.745.03a4.125,4.125,0,0,1-1.77-.353,3.433,3.433,0,0,1-1.23-.945,4.011,4.011,0,0,1-.713-1.327,4.993,4.993,0,0,1-.232-1.515V67.9a4.945,4.945,0,0,1,.232-1.5,3.928,3.928,0,0,1,.713-1.32,3.524,3.524,0,0,1,1.207-.937,3.863,3.863,0,0,1,1.7-.353,3.666,3.666,0,0,1,2.078.555,3.553,3.553,0,0,1,1.252,1.418,4.175,4.175,0,0,1,.42,1.853v.585h-7.095v-.87h6.315l-.285.435a3.676,3.676,0,0,0-.308-1.552,2.429,2.429,0,0,0-.9-1.05,2.672,2.672,0,0,0-1.478-.382,2.61,2.61,0,0,0-1.545.435,2.665,2.665,0,0,0-.923,1.155,4.127,4.127,0,0,0-.307,1.635,4.253,4.253,0,0,0,.307,1.642,2.59,2.59,0,0,0,.945,1.178,3.215,3.215,0,0,0,3.292-.037,1.926,1.926,0,0,0,.795-1.118h1.05a2.967,2.967,0,0,1-.63,1.372,3.179,3.179,0,0,1-1.215.893A4.23,4.23,0,0,1,150.05,72.255ZM155.87,72V64.065h.9V67.38h-.09a3.7,3.7,0,0,1,.765-2.572,3.113,3.113,0,0,1,2.4-.833h.255V65h-.465a2.68,2.68,0,0,0-1.965.667A2.635,2.635,0,0,0,157,67.62V72ZM63.515,94.045v-1h.9a1.146,1.146,0,0,0,.893-.338,1.387,1.387,0,0,0,.307-.967v-8.67h1.08v8.46a3.7,3.7,0,0,1-.247,1.485,1.511,1.511,0,0,1-.787.795,3.6,3.6,0,0,1-1.44.24Zm.81-10.08v-.9h2.37v.9Zm1.5-2.5a.791.791,0,0,1-.608-.217.841.841,0,0,1,0-1.1.791.791,0,0,1,.608-.217.766.766,0,0,1,.6.217.866.866,0,0,1,0,1.1A.766.766,0,0,1,65.825,81.46Zm7.35,9.795a4.279,4.279,0,0,1-1.793-.353,3.914,3.914,0,0,1-1.305-.945A4.244,4.244,0,0,1,68.99,87.13v-.21a4.176,4.176,0,0,1,.285-1.507,4.113,4.113,0,0,1,.825-1.327,4.05,4.05,0,0,1,1.313-.937,4.62,4.62,0,0,1,3.54,0,4.05,4.05,0,0,1,1.313.938,4.008,4.008,0,0,1,.818,1.327,4.276,4.276,0,0,1,.277,1.507v.21a4.319,4.319,0,0,1-.27,1.5,4.07,4.07,0,0,1-.8,1.327,3.894,3.894,0,0,1-1.312.945A4.331,4.331,0,0,1,73.175,91.255Zm0-1a3.01,3.01,0,0,0,1.673-.442,2.907,2.907,0,0,0,1.042-1.17,3.789,3.789,0,0,0-.007-3.24,2.839,2.839,0,0,0-1.057-1.155,3.369,3.369,0,0,0-3.285,0A2.839,2.839,0,0,0,70.482,85.4a3.789,3.789,0,0,0-.007,3.24,2.907,2.907,0,0,0,1.043,1.17A2.982,2.982,0,0,0,73.175,90.25Zm9.225.975a2.64,2.64,0,0,1-2.175-.923,3.972,3.972,0,0,1-.75-2.572V83.05h1.11v4.9a2.362,2.362,0,0,0,.548,1.643,1.945,1.945,0,0,0,1.522.607,2.13,2.13,0,0,0,1.628-.645,2.413,2.413,0,0,0,.607-1.725V83.05h1.125V91h-.9V87.685h.18a5.11,5.11,0,0,1-.315,1.9,2.579,2.579,0,0,1-.945,1.215,2.771,2.771,0,0,1-1.59.427ZM88.955,91V83.065h.9V86.38h-.09a3.7,3.7,0,0,1,.765-2.572,3.113,3.113,0,0,1,2.4-.833h.255V84H92.72a2.68,2.68,0,0,0-1.965.667,2.635,2.635,0,0,0-.675,1.958V91ZM95,91V83.065h.9v3.33h-.18a4.959,4.959,0,0,1,.33-1.9,2.641,2.641,0,0,1,.99-1.23,2.966,2.966,0,0,1,1.665-.435h.045a2.665,2.665,0,0,1,2.235.938,4.175,4.175,0,0,1,.735,2.632V91h-1.11V86.155a2.387,2.387,0,0,0-.57-1.665,2.035,2.035,0,0,0-1.59-.63,2.252,2.252,0,0,0-1.687.652,2.352,2.352,0,0,0-.637,1.717V91Zm12.84.255a4.125,4.125,0,0,1-1.77-.353,3.433,3.433,0,0,1-1.23-.945,4.011,4.011,0,0,1-.712-1.327,4.993,4.993,0,0,1-.233-1.515V86.9a4.945,4.945,0,0,1,.233-1.5,3.928,3.928,0,0,1,.712-1.32,3.524,3.524,0,0,1,1.208-.937,3.863,3.863,0,0,1,1.7-.353,3.666,3.666,0,0,1,2.077.555,3.553,3.553,0,0,1,1.253,1.418,4.175,4.175,0,0,1,.42,1.853v.585h-7.1v-.87h6.315l-.285.435a3.676,3.676,0,0,0-.307-1.552,2.43,2.43,0,0,0-.9-1.05,2.672,2.672,0,0,0-1.478-.382,2.61,2.61,0,0,0-1.545.435,2.665,2.665,0,0,0-.923,1.155,4.127,4.127,0,0,0-.308,1.635,4.253,4.253,0,0,0,.308,1.642,2.59,2.59,0,0,0,.945,1.178,3.215,3.215,0,0,0,3.292-.037,1.926,1.926,0,0,0,.8-1.118h1.05a2.967,2.967,0,0,1-.63,1.372,3.179,3.179,0,0,1-1.215.893A4.23,4.23,0,0,1,107.84,91.255ZM112.9,94.09v-1h1.02a2.809,2.809,0,0,0,.9-.128,1.36,1.36,0,0,0,.63-.442,2.711,2.711,0,0,0,.435-.87l2.67-8.58h1.1l-2.79,8.895a3.342,3.342,0,0,1-.66,1.238,2.42,2.42,0,0,1-1.005.682,3.938,3.938,0,0,1-1.335.21Zm2.58-3.285V89.86H116.9v.945Zm-.135,0-2.88-7.74h1.155l2.775,7.74ZM120.8,91V89.515h1.41V91Z" transform="translate(2898 4415)" fill="#262626"/>
  </g>
</svg>
