<svg xmlns="http://www.w3.org/2000/svg" width="235" height="357" viewBox="0 0 235 357">
  <g id="Emphathise" transform="translate(-2579 -4177)">
    <path id="Path_832" data-name="Path 832" d="M20,0H215a20,20,0,0,1,20,20V337a20,20,0,0,1-20,20H20A20,20,0,0,1,0,337V20A20,20,0,0,1,20,0Z" transform="translate(2579 4177)" fill="#fff"/>
    <path id="Path_833" data-name="Path 833" d="M4.625-2.75h7.75V0H1.75V-17.5h10.5v2.75H4.625v4.55h7v2.725h-7Zm23.85-10.075A4.5,4.5,0,0,1,31.9-11.45a5.165,5.165,0,0,1,1.3,3.7V0H30.5V-7.575a2.88,2.88,0,0,0-.65-2.013,2.283,2.283,0,0,0-1.775-.713,2.533,2.533,0,0,0-1.987.825A3.615,3.615,0,0,0,25.35-7V0h-2.7V-7.575a3,3,0,0,0-.613-2.013A2.167,2.167,0,0,0,20.3-10.3a2.6,2.6,0,0,0-2,.838A3.505,3.505,0,0,0,17.525-7V0h-2.7V-12.5h2.7V-11A4,4,0,0,1,21.1-12.825a3.827,3.827,0,0,1,3.55,1.975A4.214,4.214,0,0,1,28.475-12.825Zm14.7,0a5.862,5.862,0,0,1,4.4,1.913A6.5,6.5,0,0,1,49.4-6.25a6.491,6.491,0,0,1-1.825,4.675,5.88,5.88,0,0,1-4.4,1.9,5.079,5.079,0,0,1-4.375-2.1V5H36.1V-12.5h2.7v1.8A5.058,5.058,0,0,1,43.175-12.825Zm-3.25,9.438A3.809,3.809,0,0,0,42.75-2.25a3.809,3.809,0,0,0,2.825-1.138A3.9,3.9,0,0,0,46.7-6.25a3.9,3.9,0,0,0-1.125-2.863A3.809,3.809,0,0,0,42.75-10.25a3.809,3.809,0,0,0-2.825,1.138A3.9,3.9,0,0,0,38.8-6.25,3.9,3.9,0,0,0,39.925-3.388ZM61.75-12.5h2.7V0h-2.7V-1.8A5.058,5.058,0,0,1,57.375.325a5.862,5.862,0,0,1-4.4-1.913A6.5,6.5,0,0,1,51.15-6.25a6.491,6.491,0,0,1,1.825-4.675,5.88,5.88,0,0,1,4.4-1.9,5.079,5.079,0,0,1,4.375,2.1ZM54.975-3.388A3.809,3.809,0,0,0,57.8-2.25a3.809,3.809,0,0,0,2.825-1.138A3.9,3.9,0,0,0,61.75-6.25a3.9,3.9,0,0,0-1.125-2.863A3.809,3.809,0,0,0,57.8-10.25a3.809,3.809,0,0,0-2.825,1.138A3.9,3.9,0,0,0,53.85-6.25,3.9,3.9,0,0,0,54.975-3.388ZM74.575-9.9h-3.1v6a1.5,1.5,0,0,0,.35,1.112,1.569,1.569,0,0,0,1.037.375,17.088,17.088,0,0,0,1.713-.013V0q-3.1.375-4.45-.538T68.775-3.9v-6h-2.3v-2.6h2.3v-2.7l2.7-.8v3.5h3.1ZM83.6-12.825a4.607,4.607,0,0,1,3.475,1.375A5.213,5.213,0,0,1,88.4-7.675V0H85.7V-7.4a2.91,2.91,0,0,0-.75-2.15,2.77,2.77,0,0,0-2.05-.75,3.086,3.086,0,0,0-2.3.888A3.725,3.725,0,0,0,79.725-6.7V0h-2.7V-17.5h2.7v6.6A4.256,4.256,0,0,1,83.6-12.825Zm10.262-2.063a1.658,1.658,0,0,1-1.212.513,1.658,1.658,0,0,1-1.213-.513,1.658,1.658,0,0,1-.513-1.213,1.678,1.678,0,0,1,.5-1.212,1.645,1.645,0,0,1,1.225-.512,1.645,1.645,0,0,1,1.225.512,1.678,1.678,0,0,1,.5,1.212A1.658,1.658,0,0,1,93.863-14.888ZM91.3,0V-12.5H94V0Zm8.175-9.067a1.085,1.085,0,0,0,.693.975,10.177,10.177,0,0,0,1.662.657l1.988.612a3.441,3.441,0,0,1,1.7,1.161,3.3,3.3,0,0,1,.682,2.137A3.319,3.319,0,0,1,104.813-.7,5.711,5.711,0,0,1,101.325.325,6.182,6.182,0,0,1,98.15-.45,4.545,4.545,0,0,1,96.225-2.6L98.55-3.95a2.652,2.652,0,0,0,2.775,1.8q2.125,0,2.125-1.4a1.109,1.109,0,0,0-.687-.975,9.041,9.041,0,0,0-1.657-.674l-1.987-.612a3.563,3.563,0,0,1-1.705-1.126A3.082,3.082,0,0,1,96.725-9a3.378,3.378,0,0,1,1.313-2.775,5.057,5.057,0,0,1,3.262-1.05,5.5,5.5,0,0,1,2.763.688,4.677,4.677,0,0,1,1.862,1.913L103.65-8.95a2.361,2.361,0,0,0-2.35-1.425,2.38,2.38,0,0,0-1.3.333A1.083,1.083,0,0,0,99.475-9.067Zm10.9,3.967a3.433,3.433,0,0,0,1.375,2.188,4.42,4.42,0,0,0,2.625.763A3.664,3.664,0,0,0,117.6-3.7l2.225,1.3A6.188,6.188,0,0,1,114.35.325a6.684,6.684,0,0,1-4.925-1.863A6.364,6.364,0,0,1,107.55-6.25a6.432,6.432,0,0,1,1.85-4.688,6.362,6.362,0,0,1,4.75-1.887,5.845,5.845,0,0,1,4.513,1.925,6.674,6.674,0,0,1,1.762,4.675,8.352,8.352,0,0,1-.1,1.125Zm-.025-2.2h7.35a3.6,3.6,0,0,0-1.263-2.3,3.636,3.636,0,0,0-2.312-.775,3.8,3.8,0,0,0-2.5.825A3.721,3.721,0,0,0,110.35-7.3Z" transform="translate(2636 4385)" fill="#262626"/>
    <path id="Empathise" d="M45.767,82.227C30.3,72.681,19.125,63.3,10.562,52.7,4.2,44.832.774,37.025.081,28.638A26.821,26.821,0,0,1,14.216,2.882,25.757,25.757,0,0,1,41.983,5.715,26.874,26.874,0,0,1,48.6,14.1a23.719,23.719,0,0,1,6.648-8.178c8.322-6.438,17.5-7.661,26.545-3.509S96.167,14.279,97.1,24.678c.693,7.71-1.61,15.164-7.051,23.438s-13.1,16-23.728,23.969c-3.219,2.383-6.52,4.588-9.755,6.73L51.9,81.953a5.859,5.859,0,0,1-3.316,1.127A5.356,5.356,0,0,1,45.767,82.227ZM16.518,7.212A22.246,22.246,0,0,0,4.83,28.235c.611,7.325,3.686,14.327,9.417,21.426,8.29,10.157,19.076,19.205,34.046,28.461.29.177.354.209.885-.161,1.61-1.079,3.219-2.125,4.733-3.221,3.219-2.092,6.438-4.281,9.513-6.567C73.6,60.543,80.778,53.3,86.043,45.4c4.829-7.309,6.841-13.763,6.246-20.331-.774-8.693-4.991-14.859-12.525-18.3S65.1,4.348,58.209,9.691a21.751,21.751,0,0,0-7.195,11.269,2.4,2.4,0,0,1-4.523.194l-.452-1.047c-.24-.611-.435-1.078-.627-1.61a23.75,23.75,0,0,0-6.52-9.175,20.264,20.264,0,0,0-12.9-4.394h-.017A20.714,20.714,0,0,0,16.518,7.212ZM33.1,60.092A15.525,15.525,0,0,1,45.212,44.949a8.049,8.049,0,1,1,6.806,0A15.524,15.524,0,0,1,64.133,60.092Zm51.5-33.723a16.227,16.227,0,0,0-9.756-14.263,1.894,1.894,0,1,1,1.61-3.429A20.011,20.011,0,0,1,88.377,26.03a1.883,1.883,0,0,1-1.707,2.044h-.219A1.864,1.864,0,0,1,84.594,26.369ZM25.983,4.927h.064Z" transform="translate(2648 4235)" fill="#8bd9a1"/>
    <path id="Path_834" data-name="Path 834" d="M5.3,15V4.05H6.44V15Zm7.83,3V7.065h.9v3.4l-.27.03a4.612,4.612,0,0,1,.517-2.025,3.1,3.1,0,0,1,1.245-1.253,3.862,3.862,0,0,1,3.345-.09,3.676,3.676,0,0,1,1.215.915,4.044,4.044,0,0,1,.765,1.32,4.623,4.623,0,0,1,.262,1.552v.21a4.507,4.507,0,0,1-.27,1.553A4.153,4.153,0,0,1,20.068,14a3.635,3.635,0,0,1-2.812,1.253,3.572,3.572,0,0,1-1.733-.427,3.268,3.268,0,0,1-1.275-1.268,4.394,4.394,0,0,1-.533-2.07l.54,1.125V18Zm3.975-3.735a2.732,2.732,0,0,0,1.545-.428,2.769,2.769,0,0,0,.99-1.17,3.85,3.85,0,0,0,.345-1.642,3.754,3.754,0,0,0-.352-1.657,2.841,2.841,0,0,0-1-1.155,2.705,2.705,0,0,0-1.53-.428,3.019,3.019,0,0,0-1.47.36,2.67,2.67,0,0,0-1.042,1.012,2.986,2.986,0,0,0-.383,1.538v.735a2.816,2.816,0,0,0,.383,1.477,2.7,2.7,0,0,0,1.042,1A3.019,3.019,0,0,0,17.105,14.265Zm9.03.96A2.64,2.64,0,0,1,23.96,14.3a3.972,3.972,0,0,1-.75-2.573V7.05h1.11v4.905a2.362,2.362,0,0,0,.548,1.642,1.945,1.945,0,0,0,1.522.608,2.13,2.13,0,0,0,1.628-.645,2.413,2.413,0,0,0,.608-1.725V7.05H29.75V15h-.9V11.685h.18a5.11,5.11,0,0,1-.315,1.9A2.579,2.579,0,0,1,27.77,14.8a2.771,2.771,0,0,1-1.59.428Zm9.435-.135a3.83,3.83,0,0,1-1.425-.24,1.829,1.829,0,0,1-.93-.818,3.127,3.127,0,0,1-.33-1.553V4.56h1.08v8.085A1.414,1.414,0,0,0,34.34,13.7a1.458,1.458,0,0,0,1.065.367H36.83v1.02ZM31.46,7.92V7.065h5.37V7.92ZM42.5,15V7.05h.9V10.4h-.18a5.236,5.236,0,0,1,.308-1.89,2.66,2.66,0,0,1,.922-1.237,2.6,2.6,0,0,1,1.56-.443h.045a2.637,2.637,0,0,1,1.56.435,2.569,2.569,0,0,1,.915,1.23,5.4,5.4,0,0,1,.3,1.905h-.36a5.236,5.236,0,0,1,.308-1.89,2.483,2.483,0,0,1,2.5-1.68h.045a2.672,2.672,0,0,1,1.568.435,2.594,2.594,0,0,1,.93,1.23,5.283,5.283,0,0,1,.307,1.905V15H53V10.14a2.528,2.528,0,0,0-.51-1.665,1.8,1.8,0,0,0-1.47-.615,2.01,2.01,0,0,0-1.568.637,2.461,2.461,0,0,0-.577,1.718V15H47.75V10.14a2.528,2.528,0,0,0-.51-1.665,1.8,1.8,0,0,0-1.47-.615A2.01,2.01,0,0,0,44.2,8.5a2.461,2.461,0,0,0-.577,1.718V15Zm13.665,3.09v-1h1.02a2.809,2.809,0,0,0,.9-.128,1.36,1.36,0,0,0,.63-.443,2.711,2.711,0,0,0,.435-.87l2.67-8.58h1.1l-2.79,8.9a3.342,3.342,0,0,1-.66,1.238,2.42,2.42,0,0,1-1.005.683,3.938,3.938,0,0,1-1.335.21Zm2.58-3.285V13.86H60.17v.945Zm-.135,0-2.88-7.74h1.155l2.775,7.74Zm8.73.42a3.66,3.66,0,0,1-2.355-.668,2.228,2.228,0,0,1-.84-1.793h1.05a1.522,1.522,0,0,0,.518,1.035,2.319,2.319,0,0,0,1.628.465,2.455,2.455,0,0,0,1.6-.443,1.349,1.349,0,0,0,.533-1.073,1.058,1.058,0,0,0-.442-.908,2.655,2.655,0,0,0-1.283-.412l-.9-.09a3.258,3.258,0,0,1-1.747-.668,1.844,1.844,0,0,1-.668-1.508,2.121,2.121,0,0,1,.36-1.23A2.365,2.365,0,0,1,65.8,7.117a3.733,3.733,0,0,1,1.538-.293,3.379,3.379,0,0,1,2.077.6,2.045,2.045,0,0,1,.817,1.71h-1.05a1.253,1.253,0,0,0-.48-.96,2.077,2.077,0,0,0-1.365-.39,2.044,2.044,0,0,0-1.388.405,1.273,1.273,0,0,0-.457.99A1.071,1.071,0,0,0,65.84,10a1.825,1.825,0,0,0,1.08.4l.9.09a4.016,4.016,0,0,1,1.958.69,1.852,1.852,0,0,1,.757,1.59,2.144,2.144,0,0,1-.4,1.268,2.609,2.609,0,0,1-1.118.877A4.162,4.162,0,0,1,67.34,15.225Zm8.745.03a4.125,4.125,0,0,1-1.77-.352,3.433,3.433,0,0,1-1.23-.945,4.011,4.011,0,0,1-.712-1.327,4.993,4.993,0,0,1-.233-1.515V10.9a4.945,4.945,0,0,1,.233-1.5,3.928,3.928,0,0,1,.712-1.32,3.524,3.524,0,0,1,1.208-.937A3.863,3.863,0,0,1,76,6.795a3.666,3.666,0,0,1,2.077.555,3.553,3.553,0,0,1,1.253,1.418,4.175,4.175,0,0,1,.42,1.852V11.2h-7.1v-.87h6.315l-.285.435a3.676,3.676,0,0,0-.307-1.553,2.43,2.43,0,0,0-.9-1.05A2.671,2.671,0,0,0,76,7.785a2.61,2.61,0,0,0-1.545.435,2.665,2.665,0,0,0-.923,1.155,4.127,4.127,0,0,0-.308,1.635,4.253,4.253,0,0,0,.308,1.642,2.59,2.59,0,0,0,.945,1.177,3.215,3.215,0,0,0,3.292-.038,1.926,1.926,0,0,0,.8-1.117h1.05a2.967,2.967,0,0,1-.63,1.372,3.179,3.179,0,0,1-1.215.892A4.23,4.23,0,0,1,76.085,15.255ZM81.98,15V4.05h1.125V15ZM80.825,4.965V4.05h2.28v.915ZM86.24,15V6.45A2.4,2.4,0,0,1,86.885,4.6,2.752,2.752,0,0,1,88.82,4h1v.96H88.61a1.3,1.3,0,0,0-.96.33,1.258,1.258,0,0,0-.33.93V15ZM85.085,7.995v-.87h4.9v.87ZM95.555,15V7.065h1.11V15ZM94.28,7.965v-.9h2.385v.9ZM95.8,5.595a.791.791,0,0,1-.607-.217.772.772,0,0,1-.2-.547.772.772,0,0,1,.2-.547.791.791,0,0,1,.607-.218.766.766,0,0,1,.6.218.789.789,0,0,1,.2.547.789.789,0,0,1-.2.547A.766.766,0,0,1,95.8,5.595ZM99.62,15V7.065h.9V10.4h-.18a4.959,4.959,0,0,1,.33-1.905,2.641,2.641,0,0,1,.99-1.23,2.966,2.966,0,0,1,1.665-.435h.045a2.665,2.665,0,0,1,2.235.938,4.175,4.175,0,0,1,.735,2.633V15h-1.11V10.155a2.387,2.387,0,0,0-.57-1.665,2.035,2.035,0,0,0-1.59-.63,2.252,2.252,0,0,0-1.687.652,2.352,2.352,0,0,0-.637,1.718V15Zm15.9.09a3.83,3.83,0,0,1-1.425-.24,1.829,1.829,0,0,1-.93-.818,3.127,3.127,0,0,1-.33-1.553V4.56h1.08v8.085a1.414,1.414,0,0,0,.375,1.057,1.458,1.458,0,0,0,1.065.367h1.425v1.02Zm-4.11-7.17V7.065h5.37V7.92ZM118.955,15V4.05h1.125v6.2l-.33.255a5.3,5.3,0,0,1,.323-1.935,2.734,2.734,0,0,1,.975-1.282,2.793,2.793,0,0,1,1.643-.457h.06a2.608,2.608,0,0,1,2.183.945,4.15,4.15,0,0,1,.743,2.625V15h-1.11V10.155a2.338,2.338,0,0,0-.585-1.68,2.071,2.071,0,0,0-1.575-.615,2.195,2.195,0,0,0-1.695.682,2.538,2.538,0,0,0-.63,1.792V15Zm12.84.255a4.125,4.125,0,0,1-1.77-.352,3.433,3.433,0,0,1-1.23-.945,4.012,4.012,0,0,1-.712-1.327,4.993,4.993,0,0,1-.233-1.515V10.9a4.945,4.945,0,0,1,.233-1.5,3.928,3.928,0,0,1,.712-1.32A3.525,3.525,0,0,1,130,7.147a3.863,3.863,0,0,1,1.7-.353,3.666,3.666,0,0,1,2.077.555,3.553,3.553,0,0,1,1.253,1.418,4.175,4.175,0,0,1,.42,1.852V11.2h-7.1v-.87h6.315l-.285.435a3.676,3.676,0,0,0-.307-1.553,2.429,2.429,0,0,0-.9-1.05,2.671,2.671,0,0,0-1.477-.383,2.61,2.61,0,0,0-1.545.435,2.665,2.665,0,0,0-.923,1.155,4.127,4.127,0,0,0-.307,1.635,4.253,4.253,0,0,0,.307,1.642,2.59,2.59,0,0,0,.945,1.177,3.215,3.215,0,0,0,3.293-.038,1.926,1.926,0,0,0,.795-1.117h1.05a2.967,2.967,0,0,1-.63,1.372,3.179,3.179,0,0,1-1.215.892A4.23,4.23,0,0,1,131.8,15.255Zm12.06-.03a2.64,2.64,0,0,1-2.175-.923,3.972,3.972,0,0,1-.75-2.573V7.05h1.11v4.905a2.362,2.362,0,0,0,.548,1.642,1.945,1.945,0,0,0,1.523.608,2.13,2.13,0,0,0,1.628-.645,2.413,2.413,0,0,0,.607-1.725V7.05h1.125V15h-.9V11.685h.18a5.109,5.109,0,0,1-.315,1.9,2.579,2.579,0,0,1-.945,1.215,2.771,2.771,0,0,1-1.59.428Zm9.06,0a3.66,3.66,0,0,1-2.355-.668,2.228,2.228,0,0,1-.84-1.793h1.05a1.522,1.522,0,0,0,.518,1.035,2.319,2.319,0,0,0,1.628.465,2.455,2.455,0,0,0,1.6-.443,1.349,1.349,0,0,0,.533-1.073,1.058,1.058,0,0,0-.442-.908,2.655,2.655,0,0,0-1.283-.412l-.9-.09a3.258,3.258,0,0,1-1.747-.668,1.844,1.844,0,0,1-.667-1.508,2.121,2.121,0,0,1,.36-1.23,2.365,2.365,0,0,1,1.012-.818,3.733,3.733,0,0,1,1.538-.293,3.379,3.379,0,0,1,2.077.6,2.045,2.045,0,0,1,.817,1.71h-1.05a1.253,1.253,0,0,0-.48-.96,2.077,2.077,0,0,0-1.365-.39,2.044,2.044,0,0,0-1.388.405,1.273,1.273,0,0,0-.457.99,1.071,1.071,0,0,0,.345.817,1.825,1.825,0,0,0,1.08.4l.9.09a4.016,4.016,0,0,1,1.958.69,1.852,1.852,0,0,1,.757,1.59,2.144,2.144,0,0,1-.4,1.268,2.609,2.609,0,0,1-1.118.877A4.162,4.162,0,0,1,152.915,15.225Zm8.745.03a4.125,4.125,0,0,1-1.77-.352,3.433,3.433,0,0,1-1.23-.945,4.011,4.011,0,0,1-.713-1.327,4.994,4.994,0,0,1-.232-1.515V10.9a4.945,4.945,0,0,1,.232-1.5,3.928,3.928,0,0,1,.713-1.32,3.524,3.524,0,0,1,1.207-.937,3.863,3.863,0,0,1,1.7-.353,3.666,3.666,0,0,1,2.078.555A3.553,3.553,0,0,1,164.9,8.767a4.175,4.175,0,0,1,.42,1.852V11.2h-7.095v-.87h6.315l-.285.435a3.676,3.676,0,0,0-.308-1.553,2.429,2.429,0,0,0-.9-1.05,2.671,2.671,0,0,0-1.478-.383,2.61,2.61,0,0,0-1.545.435,2.665,2.665,0,0,0-.923,1.155,4.127,4.127,0,0,0-.307,1.635,4.253,4.253,0,0,0,.307,1.642,2.59,2.59,0,0,0,.945,1.177,3.215,3.215,0,0,0,3.292-.038,1.926,1.926,0,0,0,.795-1.117h1.05a2.967,2.967,0,0,1-.63,1.372,3.179,3.179,0,0,1-1.215.892A4.23,4.23,0,0,1,161.66,15.255ZM167.48,15V7.065h.9V10.38h-.09a3.7,3.7,0,0,1,.765-2.572,3.113,3.113,0,0,1,2.4-.832h.255v1.02h-.465a2.68,2.68,0,0,0-1.965.668,2.635,2.635,0,0,0-.675,1.957V15Zm8.55.225a3.66,3.66,0,0,1-2.355-.668,2.228,2.228,0,0,1-.84-1.793h1.05A1.522,1.522,0,0,0,174.4,13.8a2.319,2.319,0,0,0,1.628.465,2.455,2.455,0,0,0,1.6-.443,1.349,1.349,0,0,0,.533-1.073,1.058,1.058,0,0,0-.442-.908,2.655,2.655,0,0,0-1.283-.412l-.9-.09a3.258,3.258,0,0,1-1.747-.668,1.844,1.844,0,0,1-.667-1.508,2.121,2.121,0,0,1,.36-1.23,2.365,2.365,0,0,1,1.012-.818,3.733,3.733,0,0,1,1.538-.293,3.379,3.379,0,0,1,2.077.6,2.045,2.045,0,0,1,.817,1.71h-1.05a1.253,1.253,0,0,0-.48-.96,2.077,2.077,0,0,0-1.365-.39,2.044,2.044,0,0,0-1.388.405,1.273,1.273,0,0,0-.457.99,1.071,1.071,0,0,0,.345.817,1.825,1.825,0,0,0,1.08.4l.9.09a4.016,4.016,0,0,1,1.958.69,1.852,1.852,0,0,1,.757,1.59,2.144,2.144,0,0,1-.4,1.268,2.609,2.609,0,0,1-1.118.877A4.162,4.162,0,0,1,176.03,15.225Zm4.965-7.245V4.05h.975V7.98ZM20.143,34.225a3.66,3.66,0,0,1-2.355-.667,2.228,2.228,0,0,1-.84-1.792H18a1.522,1.522,0,0,0,.517,1.035,2.319,2.319,0,0,0,1.627.465,2.455,2.455,0,0,0,1.6-.443,1.349,1.349,0,0,0,.532-1.072,1.058,1.058,0,0,0-.443-.908,2.655,2.655,0,0,0-1.282-.412l-.9-.09a3.258,3.258,0,0,1-1.747-.667,1.844,1.844,0,0,1-.668-1.508,2.121,2.121,0,0,1,.36-1.23,2.365,2.365,0,0,1,1.013-.817,3.733,3.733,0,0,1,1.537-.292,3.379,3.379,0,0,1,2.078.6,2.045,2.045,0,0,1,.817,1.71h-1.05a1.253,1.253,0,0,0-.48-.96,2.077,2.077,0,0,0-1.365-.39,2.043,2.043,0,0,0-1.387.4,1.273,1.273,0,0,0-.458.99,1.071,1.071,0,0,0,.345.817,1.825,1.825,0,0,0,1.08.4l.9.09a4.016,4.016,0,0,1,1.958.69,1.852,1.852,0,0,1,.757,1.59,2.144,2.144,0,0,1-.4,1.268,2.609,2.609,0,0,1-1.118.877A4.162,4.162,0,0,1,20.143,34.225ZM25.573,34V23.05H26.7v6.195l-.33.255a5.3,5.3,0,0,1,.323-1.935,2.734,2.734,0,0,1,.975-1.282,2.793,2.793,0,0,1,1.642-.457h.06a2.608,2.608,0,0,1,2.183.945,4.15,4.15,0,0,1,.743,2.625V34h-1.11V29.155a2.338,2.338,0,0,0-.585-1.68,2.071,2.071,0,0,0-1.575-.615,2.195,2.195,0,0,0-1.695.682,2.538,2.538,0,0,0-.63,1.792V34Zm13.08.255A4.279,4.279,0,0,1,36.86,33.9a3.914,3.914,0,0,1-1.305-.945,4.244,4.244,0,0,1-1.087-2.828v-.21a4.176,4.176,0,0,1,.285-1.508,4.113,4.113,0,0,1,.825-1.327,4.05,4.05,0,0,1,1.313-.937,4.62,4.62,0,0,1,3.54,0,4.05,4.05,0,0,1,1.313.938,4.008,4.008,0,0,1,.818,1.327,4.276,4.276,0,0,1,.278,1.508v.21a4.319,4.319,0,0,1-.27,1.5,4.07,4.07,0,0,1-.8,1.328,3.9,3.9,0,0,1-1.312.945A4.331,4.331,0,0,1,38.653,34.255Zm0-1.005a3.01,3.01,0,0,0,1.672-.443,2.907,2.907,0,0,0,1.043-1.17,3.789,3.789,0,0,0-.008-3.24A2.839,2.839,0,0,0,40.3,27.243a3.369,3.369,0,0,0-3.285,0A2.839,2.839,0,0,0,35.96,28.4a3.789,3.789,0,0,0-.007,3.24A2.907,2.907,0,0,0,37,32.807,2.982,2.982,0,0,0,38.653,33.25Zm9.795,1.005a4.125,4.125,0,0,1-1.77-.353,3.433,3.433,0,0,1-1.23-.945,4.012,4.012,0,0,1-.713-1.328,4.993,4.993,0,0,1-.232-1.515V29.9a4.945,4.945,0,0,1,.232-1.5,3.928,3.928,0,0,1,.713-1.32,3.524,3.524,0,0,1,1.208-.937,3.863,3.863,0,0,1,1.7-.353,3.666,3.666,0,0,1,2.077.555,3.553,3.553,0,0,1,1.252,1.418,4.175,4.175,0,0,1,.42,1.852V30.2h-7.1v-.87h6.315l-.285.435a3.676,3.676,0,0,0-.308-1.553,2.429,2.429,0,0,0-.9-1.05,2.671,2.671,0,0,0-1.478-.382,2.61,2.61,0,0,0-1.545.435,2.665,2.665,0,0,0-.922,1.155,4.127,4.127,0,0,0-.308,1.635,4.253,4.253,0,0,0,.308,1.642,2.59,2.59,0,0,0,.945,1.178,3.215,3.215,0,0,0,3.292-.038,1.926,1.926,0,0,0,.795-1.118h1.05a2.967,2.967,0,0,1-.63,1.373,3.179,3.179,0,0,1-1.215.892A4.23,4.23,0,0,1,48.448,34.255Zm8.325-.03a3.66,3.66,0,0,1-2.355-.667,2.228,2.228,0,0,1-.84-1.792h1.05a1.522,1.522,0,0,0,.518,1.035,2.319,2.319,0,0,0,1.627.465,2.455,2.455,0,0,0,1.6-.443A1.349,1.349,0,0,0,58.9,31.75a1.058,1.058,0,0,0-.443-.908,2.655,2.655,0,0,0-1.282-.412l-.9-.09a3.258,3.258,0,0,1-1.748-.667,1.844,1.844,0,0,1-.667-1.508,2.121,2.121,0,0,1,.36-1.23,2.365,2.365,0,0,1,1.013-.817,3.733,3.733,0,0,1,1.537-.292,3.379,3.379,0,0,1,2.077.6,2.045,2.045,0,0,1,.818,1.71h-1.05a1.253,1.253,0,0,0-.48-.96,2.077,2.077,0,0,0-1.365-.39,2.043,2.043,0,0,0-1.387.4,1.273,1.273,0,0,0-.458.99,1.071,1.071,0,0,0,.345.817,1.825,1.825,0,0,0,1.08.4l.9.09a4.016,4.016,0,0,1,1.958.69,1.852,1.852,0,0,1,.757,1.59,2.144,2.144,0,0,1-.4,1.268,2.609,2.609,0,0,1-1.118.877A4.162,4.162,0,0,1,56.772,34.225Zm11.805-.135a3.83,3.83,0,0,1-1.425-.24,1.829,1.829,0,0,1-.93-.817,3.127,3.127,0,0,1-.33-1.553V23.56h1.08v8.085a1.414,1.414,0,0,0,.375,1.057,1.458,1.458,0,0,0,1.065.368h1.425v1.02Zm-4.11-7.17v-.855h5.37v.855Zm11.025,7.335A4.279,4.279,0,0,1,73.7,33.9a3.914,3.914,0,0,1-1.305-.945,4.244,4.244,0,0,1-1.088-2.828v-.21a4.176,4.176,0,0,1,.285-1.508,4.113,4.113,0,0,1,.825-1.327,4.05,4.05,0,0,1,1.313-.937,4.62,4.62,0,0,1,3.54,0,4.05,4.05,0,0,1,1.313.938,4.009,4.009,0,0,1,.818,1.327,4.276,4.276,0,0,1,.277,1.508v.21a4.319,4.319,0,0,1-.27,1.5,4.07,4.07,0,0,1-.8,1.328,3.9,3.9,0,0,1-1.312.945A4.331,4.331,0,0,1,75.493,34.255Zm0-1.005a3.01,3.01,0,0,0,1.673-.443,2.907,2.907,0,0,0,1.042-1.17A3.789,3.789,0,0,0,78.2,28.4a2.839,2.839,0,0,0-1.057-1.155,3.369,3.369,0,0,0-3.285,0A2.839,2.839,0,0,0,72.8,28.4a3.789,3.789,0,0,0-.007,3.24,2.907,2.907,0,0,0,1.043,1.17A2.982,2.982,0,0,0,75.493,33.25Zm12.72.975a2.64,2.64,0,0,1-2.175-.922,3.972,3.972,0,0,1-.75-2.573V26.05H86.4v4.905a2.362,2.362,0,0,0,.548,1.642,1.945,1.945,0,0,0,1.522.608A2.13,2.13,0,0,0,90.1,32.56a2.413,2.413,0,0,0,.607-1.725V26.05h1.125V34h-.9V30.685h.18a5.11,5.11,0,0,1-.315,1.9,2.579,2.579,0,0,1-.945,1.215,2.771,2.771,0,0,1-1.59.427ZM94.768,34V26.065h.9V29.4h-.18a4.959,4.959,0,0,1,.33-1.905,2.641,2.641,0,0,1,.99-1.23,2.966,2.966,0,0,1,1.665-.435h.045a2.665,2.665,0,0,1,2.235.938,4.174,4.174,0,0,1,.735,2.632V34h-1.11V29.155a2.387,2.387,0,0,0-.57-1.665,2.035,2.035,0,0,0-1.59-.63,2.252,2.252,0,0,0-1.687.652,2.352,2.352,0,0,0-.637,1.718V34Zm12.78.255a3.794,3.794,0,0,1-1.582-.323,3.659,3.659,0,0,1-1.23-.9,4.12,4.12,0,0,1-.795-1.32,4.483,4.483,0,0,1-.278-1.583v-.21a4.508,4.508,0,0,1,.27-1.552,4.153,4.153,0,0,1,.772-1.32,3.635,3.635,0,0,1,2.813-1.253,3.518,3.518,0,0,1,1.77.435,3.256,3.256,0,0,1,1.23,1.253,4.216,4.216,0,0,1,.5,2l-.5-.93V23.05h1.125V34h-.9V30.475h.36a4.356,4.356,0,0,1-.518,2.093,3.2,3.2,0,0,1-1.275,1.267A3.686,3.686,0,0,1,107.548,34.255Zm.15-.99a2.976,2.976,0,0,0,1.463-.36,2.6,2.6,0,0,0,1.027-1.027,3.085,3.085,0,0,0,.375-1.538v-.72a2.86,2.86,0,0,0-.375-1.477,2.662,2.662,0,0,0-1.027-1,3.007,3.007,0,0,0-1.478-.36,2.742,2.742,0,0,0-1.537.427,2.811,2.811,0,0,0-1.005,1.163,4.069,4.069,0,0,0,.007,3.33,2.742,2.742,0,0,0,1.02,1.148A2.826,2.826,0,0,0,107.7,33.265Zm10.17.99a4.125,4.125,0,0,1-1.77-.353,3.433,3.433,0,0,1-1.23-.945,4.011,4.011,0,0,1-.712-1.328,4.993,4.993,0,0,1-.233-1.515V29.9a4.945,4.945,0,0,1,.233-1.5,3.928,3.928,0,0,1,.712-1.32,3.524,3.524,0,0,1,1.208-.937,3.863,3.863,0,0,1,1.7-.353,3.666,3.666,0,0,1,2.077.555,3.553,3.553,0,0,1,1.253,1.418,4.175,4.175,0,0,1,.42,1.852V30.2h-7.1v-.87h6.315l-.285.435a3.676,3.676,0,0,0-.307-1.553,2.43,2.43,0,0,0-.9-1.05,2.671,2.671,0,0,0-1.478-.382,2.61,2.61,0,0,0-1.545.435,2.665,2.665,0,0,0-.923,1.155A4.127,4.127,0,0,0,115,30.01a4.253,4.253,0,0,0,.308,1.642,2.59,2.59,0,0,0,.945,1.178,3.215,3.215,0,0,0,3.292-.038,1.926,1.926,0,0,0,.8-1.118h1.05a2.967,2.967,0,0,1-.63,1.373,3.179,3.179,0,0,1-1.215.892A4.23,4.23,0,0,1,117.868,34.255Zm5.82-.255V26.065h.9V29.38h-.09a3.7,3.7,0,0,1,.765-2.573,3.113,3.113,0,0,1,2.4-.833h.255v1.02h-.465a2.68,2.68,0,0,0-1.965.668,2.635,2.635,0,0,0-.675,1.957V34Zm8.55.225a3.66,3.66,0,0,1-2.355-.667,2.228,2.228,0,0,1-.84-1.792h1.05a1.522,1.522,0,0,0,.518,1.035,2.319,2.319,0,0,0,1.628.465,2.455,2.455,0,0,0,1.6-.443,1.349,1.349,0,0,0,.533-1.072,1.058,1.058,0,0,0-.442-.908,2.655,2.655,0,0,0-1.283-.412l-.9-.09a3.258,3.258,0,0,1-1.747-.667,1.844,1.844,0,0,1-.667-1.508,2.121,2.121,0,0,1,.36-1.23,2.365,2.365,0,0,1,1.012-.817,3.733,3.733,0,0,1,1.538-.292,3.379,3.379,0,0,1,2.077.6,2.045,2.045,0,0,1,.817,1.71h-1.05a1.253,1.253,0,0,0-.48-.96,2.077,2.077,0,0,0-1.365-.39,2.044,2.044,0,0,0-1.388.4,1.273,1.273,0,0,0-.457.99,1.071,1.071,0,0,0,.345.817,1.825,1.825,0,0,0,1.08.4l.9.09a4.016,4.016,0,0,1,1.958.69,1.852,1.852,0,0,1,.757,1.59,2.144,2.144,0,0,1-.4,1.268,2.609,2.609,0,0,1-1.118.877A4.162,4.162,0,0,1,132.238,34.225Zm8.31-.135a3.83,3.83,0,0,1-1.425-.24,1.829,1.829,0,0,1-.93-.817,3.127,3.127,0,0,1-.33-1.553V23.56h1.08v8.085a1.414,1.414,0,0,0,.375,1.057,1.458,1.458,0,0,0,1.065.368h1.425v1.02Zm-4.11-7.17v-.855h5.37v.855ZM148.783,34V31.615h-.18V28.8a1.855,1.855,0,0,0-.465-1.358,1.943,1.943,0,0,0-1.44-.472q-.45,0-.908.015t-.87.038q-.413.023-.727.052v-.99l.675-.06q.345-.03.713-.038t.712-.008a5.314,5.314,0,0,1,1.958.3,2.064,2.064,0,0,1,1.087.938,3.547,3.547,0,0,1,.345,1.688V34Zm-2.685.21a3.485,3.485,0,0,1-1.485-.3,2.262,2.262,0,0,1-1-.87,2.574,2.574,0,0,1-.352-1.38,2.391,2.391,0,0,1,.368-1.35,2.3,2.3,0,0,1,1.065-.847,4.359,4.359,0,0,1,1.688-.292h2.325v.855h-2.4a2.078,2.078,0,0,0-1.447.458,1.537,1.537,0,0,0-.5,1.192,1.479,1.479,0,0,0,.525,1.193,2.141,2.141,0,0,0,1.425.443,2.86,2.86,0,0,0,1.065-.2,1.894,1.894,0,0,0,.855-.69,2.444,2.444,0,0,0,.375-1.342l.33.465a3.234,3.234,0,0,1-.42,1.478,2.3,2.3,0,0,1-.975.892A3.249,3.249,0,0,1,146.1,34.21Zm6.39-.21V26.065h.9V29.4h-.18a4.959,4.959,0,0,1,.33-1.905,2.641,2.641,0,0,1,.99-1.23,2.966,2.966,0,0,1,1.665-.435h.045a2.665,2.665,0,0,1,2.235.938,4.174,4.174,0,0,1,.735,2.632V34H158.1V29.155a2.387,2.387,0,0,0-.57-1.665,2.035,2.035,0,0,0-1.59-.63,2.252,2.252,0,0,0-1.687.652,2.352,2.352,0,0,0-.637,1.718V34Zm12.78.255a3.794,3.794,0,0,1-1.583-.323,3.659,3.659,0,0,1-1.23-.9,4.12,4.12,0,0,1-.8-1.32,4.483,4.483,0,0,1-.277-1.583v-.21a4.507,4.507,0,0,1,.27-1.552,4.154,4.154,0,0,1,.772-1.32,3.635,3.635,0,0,1,2.813-1.253,3.518,3.518,0,0,1,1.77.435,3.256,3.256,0,0,1,1.23,1.253,4.216,4.216,0,0,1,.5,2l-.5-.93V23.05h1.125V34h-.9V30.475h.36a4.356,4.356,0,0,1-.518,2.093,3.2,3.2,0,0,1-1.275,1.267A3.686,3.686,0,0,1,165.268,34.255Zm.15-.99a2.976,2.976,0,0,0,1.462-.36,2.6,2.6,0,0,0,1.028-1.027,3.085,3.085,0,0,0,.375-1.538v-.72a2.86,2.86,0,0,0-.375-1.477,2.662,2.662,0,0,0-1.028-1,3.007,3.007,0,0,0-1.477-.36,2.742,2.742,0,0,0-1.538.427,2.811,2.811,0,0,0-1,1.163,4.069,4.069,0,0,0,.007,3.33,2.742,2.742,0,0,0,1.02,1.148A2.826,2.826,0,0,0,165.417,33.265ZM53.48,53.09a3.83,3.83,0,0,1-1.425-.24,1.829,1.829,0,0,1-.93-.817,3.127,3.127,0,0,1-.33-1.553V42.56h1.08v8.085A1.414,1.414,0,0,0,52.25,51.7a1.458,1.458,0,0,0,1.065.368H54.74v1.02Zm-4.11-7.17v-.855h5.37v.855ZM56.915,53V42.05H58.04v6.195l-.33.255a5.3,5.3,0,0,1,.323-1.935,2.734,2.734,0,0,1,.975-1.282,2.793,2.793,0,0,1,1.642-.458h.06a2.608,2.608,0,0,1,2.182.945,4.15,4.15,0,0,1,.743,2.625V53h-1.11V48.155a2.338,2.338,0,0,0-.585-1.68,2.071,2.071,0,0,0-1.575-.615,2.195,2.195,0,0,0-1.695.682,2.538,2.538,0,0,0-.63,1.792V53Zm12.84.255a4.125,4.125,0,0,1-1.77-.353,3.433,3.433,0,0,1-1.23-.945,4.011,4.011,0,0,1-.712-1.327,4.993,4.993,0,0,1-.233-1.515V48.9a4.945,4.945,0,0,1,.233-1.5,3.928,3.928,0,0,1,.712-1.32,3.524,3.524,0,0,1,1.208-.937,3.863,3.863,0,0,1,1.7-.353,3.666,3.666,0,0,1,2.077.555,3.553,3.553,0,0,1,1.253,1.418,4.175,4.175,0,0,1,.42,1.852V49.2h-7.1v-.87h6.315l-.285.435a3.676,3.676,0,0,0-.307-1.553,2.43,2.43,0,0,0-.9-1.05,2.671,2.671,0,0,0-1.478-.382,2.61,2.61,0,0,0-1.545.435,2.665,2.665,0,0,0-.923,1.155,4.127,4.127,0,0,0-.308,1.635,4.253,4.253,0,0,0,.308,1.643,2.59,2.59,0,0,0,.945,1.178,3.215,3.215,0,0,0,3.292-.038,1.926,1.926,0,0,0,.8-1.118h1.05a2.967,2.967,0,0,1-.63,1.373,3.179,3.179,0,0,1-1.215.892A4.23,4.23,0,0,1,69.755,53.255ZM75.995,53V45.065H77.1V53ZM74.72,45.965v-.9H77.1v.9Zm1.515-2.37a.791.791,0,0,1-.607-.218.841.841,0,0,1,0-1.095.791.791,0,0,1,.607-.218.766.766,0,0,1,.6.218.866.866,0,0,1,0,1.095A.766.766,0,0,1,76.235,43.6ZM80.06,53V45.065h.9V48.38h-.09a3.7,3.7,0,0,1,.765-2.573,3.113,3.113,0,0,1,2.4-.833h.255v1.02h-.465a2.68,2.68,0,0,0-1.965.667,2.635,2.635,0,0,0-.675,1.958V53Zm9.54,0V45.065h.9V48.4h-.18a4.959,4.959,0,0,1,.33-1.905,2.641,2.641,0,0,1,.99-1.23,2.966,2.966,0,0,1,1.665-.435h.045a2.665,2.665,0,0,1,2.235.938A4.174,4.174,0,0,1,96.32,48.4V53H95.21V48.155a2.387,2.387,0,0,0-.57-1.665,2.035,2.035,0,0,0-1.59-.63,2.252,2.252,0,0,0-1.687.653,2.352,2.352,0,0,0-.637,1.717V53Zm12.84.255a4.125,4.125,0,0,1-1.77-.353,3.433,3.433,0,0,1-1.23-.945,4.011,4.011,0,0,1-.712-1.327,4.993,4.993,0,0,1-.233-1.515V48.9a4.945,4.945,0,0,1,.233-1.5,3.928,3.928,0,0,1,.712-1.32,3.524,3.524,0,0,1,1.208-.937,3.863,3.863,0,0,1,1.7-.353,3.666,3.666,0,0,1,2.077.555,3.553,3.553,0,0,1,1.253,1.418,4.175,4.175,0,0,1,.42,1.852V49.2H99v-.87h6.315l-.285.435a3.676,3.676,0,0,0-.307-1.553,2.43,2.43,0,0,0-.9-1.05,2.671,2.671,0,0,0-1.478-.382,2.61,2.61,0,0,0-1.545.435,2.665,2.665,0,0,0-.923,1.155,4.127,4.127,0,0,0-.308,1.635,4.253,4.253,0,0,0,.308,1.643,2.59,2.59,0,0,0,.945,1.178,3.215,3.215,0,0,0,3.292-.038,1.926,1.926,0,0,0,.8-1.118h1.05a2.967,2.967,0,0,1-.63,1.373,3.179,3.179,0,0,1-1.215.892A4.23,4.23,0,0,1,102.44,53.255Zm9.135,0a4.125,4.125,0,0,1-1.77-.353,3.433,3.433,0,0,1-1.23-.945,4.011,4.011,0,0,1-.712-1.327,4.993,4.993,0,0,1-.233-1.515V48.9a4.945,4.945,0,0,1,.233-1.5,3.928,3.928,0,0,1,.712-1.32,3.524,3.524,0,0,1,1.208-.937,3.863,3.863,0,0,1,1.7-.353,3.666,3.666,0,0,1,2.077.555,3.553,3.553,0,0,1,1.253,1.418,4.175,4.175,0,0,1,.42,1.852V49.2h-7.1v-.87h6.315l-.285.435a3.676,3.676,0,0,0-.307-1.553,2.43,2.43,0,0,0-.9-1.05,2.671,2.671,0,0,0-1.478-.382,2.61,2.61,0,0,0-1.545.435,2.665,2.665,0,0,0-.923,1.155,4.127,4.127,0,0,0-.308,1.635,4.253,4.253,0,0,0,.308,1.643,2.59,2.59,0,0,0,.945,1.178,3.215,3.215,0,0,0,3.292-.038,1.926,1.926,0,0,0,.8-1.118h1.05a2.967,2.967,0,0,1-.63,1.373,3.179,3.179,0,0,1-1.215.892A4.23,4.23,0,0,1,111.575,53.255Zm9.075,0a3.794,3.794,0,0,1-1.582-.323,3.659,3.659,0,0,1-1.23-.9,4.12,4.12,0,0,1-.795-1.32,4.483,4.483,0,0,1-.278-1.583v-.21a4.507,4.507,0,0,1,.27-1.552,4.153,4.153,0,0,1,.772-1.32,3.635,3.635,0,0,1,2.813-1.253,3.518,3.518,0,0,1,1.77.435,3.256,3.256,0,0,1,1.23,1.252,4.216,4.216,0,0,1,.5,2l-.5-.93V42.05h1.125V53h-.9V49.475h.36a4.356,4.356,0,0,1-.518,2.093,3.2,3.2,0,0,1-1.275,1.267A3.686,3.686,0,0,1,120.65,53.255Zm.15-.99a2.976,2.976,0,0,0,1.463-.36,2.6,2.6,0,0,0,1.027-1.028,3.085,3.085,0,0,0,.375-1.537v-.72a2.86,2.86,0,0,0-.375-1.477,2.662,2.662,0,0,0-1.027-1,3.007,3.007,0,0,0-1.478-.36,2.742,2.742,0,0,0-1.537.428,2.811,2.811,0,0,0-1.005,1.162,4.069,4.069,0,0,0,.007,3.33,2.742,2.742,0,0,0,1.02,1.147A2.826,2.826,0,0,0,120.8,52.265Zm9.36.96a3.66,3.66,0,0,1-2.355-.667,2.228,2.228,0,0,1-.84-1.792h1.05a1.522,1.522,0,0,0,.518,1.035,2.319,2.319,0,0,0,1.628.465,2.455,2.455,0,0,0,1.6-.443,1.349,1.349,0,0,0,.533-1.072,1.058,1.058,0,0,0-.442-.908,2.655,2.655,0,0,0-1.283-.412l-.9-.09a3.258,3.258,0,0,1-1.747-.667,1.844,1.844,0,0,1-.667-1.507,2.121,2.121,0,0,1,.36-1.23,2.365,2.365,0,0,1,1.012-.818,3.733,3.733,0,0,1,1.538-.292,3.379,3.379,0,0,1,2.077.6,2.045,2.045,0,0,1,.817,1.71h-1.05a1.253,1.253,0,0,0-.48-.96,2.077,2.077,0,0,0-1.365-.39,2.044,2.044,0,0,0-1.388.4,1.273,1.273,0,0,0-.457.99,1.071,1.071,0,0,0,.345.817,1.825,1.825,0,0,0,1.08.4l.9.09a4.016,4.016,0,0,1,1.958.69,1.852,1.852,0,0,1,.757,1.59,2.144,2.144,0,0,1-.4,1.268,2.609,2.609,0,0,1-1.118.877A4.162,4.162,0,0,1,130.16,53.225ZM135.215,53V51.515h1.41V53Z" transform="translate(2603 4415)" fill="#262626"/>
  </g>
</svg>
