<svg xmlns="http://www.w3.org/2000/svg" width="235" height="357" viewBox="0 0 235 357">
  <g id="Ideate" transform="translate(-3169 -4177)">
    <path id="Path_840" data-name="Path 840" d="M20,0H215a20,20,0,0,1,20,20V337a20,20,0,0,1-20,20H20A20,20,0,0,1,0,337V20A20,20,0,0,1,20,0Z" transform="translate(3169 4177)" fill="#fff"/>
    <path id="Path_845" data-name="Path 845" d="M1.75-17.5H4.625V0H1.75Zm16.1,0h2.7V0h-2.7V-1.8A5.058,5.058,0,0,1,13.475.325a5.862,5.862,0,0,1-4.4-1.913A6.5,6.5,0,0,1,7.25-6.25a6.491,6.491,0,0,1,1.825-4.675,5.88,5.88,0,0,1,4.4-1.9,5.079,5.079,0,0,1,4.375,2.1ZM11.075-3.388A3.809,3.809,0,0,0,13.9-2.25a3.809,3.809,0,0,0,2.825-1.138A3.9,3.9,0,0,0,17.85-6.25a3.9,3.9,0,0,0-1.125-2.863A3.809,3.809,0,0,0,13.9-10.25a3.809,3.809,0,0,0-2.825,1.138A3.9,3.9,0,0,0,9.95-6.25,3.9,3.9,0,0,0,11.075-3.388ZM25.825-5.1A3.433,3.433,0,0,0,27.2-2.913a4.42,4.42,0,0,0,2.625.763A3.664,3.664,0,0,0,33.05-3.7l2.225,1.3A6.188,6.188,0,0,1,29.8.325a6.684,6.684,0,0,1-4.925-1.863A6.364,6.364,0,0,1,23-6.25a6.432,6.432,0,0,1,1.85-4.688,6.362,6.362,0,0,1,4.75-1.887A5.845,5.845,0,0,1,34.112-10.9a6.674,6.674,0,0,1,1.763,4.675,8.352,8.352,0,0,1-.1,1.125ZM25.8-7.3h7.35a3.6,3.6,0,0,0-1.263-2.3,3.636,3.636,0,0,0-2.312-.775,3.8,3.8,0,0,0-2.5.825A3.721,3.721,0,0,0,25.8-7.3Zm22.275-5.2h2.7V0h-2.7V-1.8A5.058,5.058,0,0,1,43.7.325a5.862,5.862,0,0,1-4.4-1.913A6.5,6.5,0,0,1,37.475-6.25,6.491,6.491,0,0,1,39.3-10.925a5.88,5.88,0,0,1,4.4-1.9,5.079,5.079,0,0,1,4.375,2.1ZM41.3-3.388A3.809,3.809,0,0,0,44.125-2.25,3.809,3.809,0,0,0,46.95-3.388,3.9,3.9,0,0,0,48.075-6.25,3.9,3.9,0,0,0,46.95-9.113a3.809,3.809,0,0,0-2.825-1.138A3.809,3.809,0,0,0,41.3-9.113,3.9,3.9,0,0,0,40.175-6.25,3.9,3.9,0,0,0,41.3-3.388ZM60.9-9.9H57.8v6a1.5,1.5,0,0,0,.35,1.112,1.569,1.569,0,0,0,1.038.375A17.088,17.088,0,0,0,60.9-2.425V0q-3.1.375-4.45-.538T55.1-3.9v-6H52.8v-2.6h2.3v-2.7l2.7-.8v3.5h3.1Zm4.075,4.8A3.433,3.433,0,0,0,66.35-2.913a4.42,4.42,0,0,0,2.625.763A3.664,3.664,0,0,0,72.2-3.7l2.225,1.3A6.188,6.188,0,0,1,68.95.325a6.684,6.684,0,0,1-4.925-1.863A6.364,6.364,0,0,1,62.15-6.25,6.432,6.432,0,0,1,64-10.938a6.362,6.362,0,0,1,4.75-1.887A5.845,5.845,0,0,1,73.262-10.9a6.674,6.674,0,0,1,1.762,4.675,8.352,8.352,0,0,1-.1,1.125ZM64.95-7.3H72.3a3.6,3.6,0,0,0-1.262-2.3,3.636,3.636,0,0,0-2.312-.775,3.8,3.8,0,0,0-2.5.825A3.721,3.721,0,0,0,64.95-7.3Z" transform="translate(3249 4385)" fill="#262626"/>
    <path id="Ideate-2" data-name="Ideate" d="M11.655,79.862V79.25a2.451,2.451,0,0,1,.048-.482V69.044c0-6.44-1.61-8.982-5.023-14.182l-1.449-2.3A34.113,34.113,0,0,1,0,34.306,34.706,34.706,0,0,1,32.469.051,34.319,34.319,0,0,1,63.393,52.56l-1.465,2.3c-3.332,5.2-5.007,7.807-5.007,14.182V79.25a2.433,2.433,0,0,1-.036.417,22.942,22.942,0,0,1-22.919,22.507A22.328,22.328,0,0,1,11.655,79.862ZM33.967,97.28A18.046,18.046,0,0,0,51.819,81.713H16.661A17.434,17.434,0,0,0,33.967,97.28ZM52.092,76.8V69.044c0-7.792,2.3-11.382,5.762-16.79.468-.708.934-1.465,1.449-2.254A29.474,29.474,0,0,0,32.711,4.879,29.814,29.814,0,0,0,4.829,34.306,29.5,29.5,0,0,0,9.32,49.951l1.433,2.256c3.477,5.408,5.779,9,5.779,16.79V76.8H26.57L20.687,46.867a9.838,9.838,0,0,1-2.206-.568,1.707,1.707,0,0,1,1.32-3.14,6.241,6.241,0,0,0,4.34.005c-2.406-3.888-1.168-6.123-.4-7.007a4.3,4.3,0,0,1,5.634-.693,3.853,3.853,0,0,1,1.683,2.854,4.191,4.191,0,0,1,.957-2.145,4.314,4.314,0,0,1,5.586-.708,3.868,3.868,0,0,1,1.611,2.424,4.121,4.121,0,0,1,.868-1.716,4.329,4.329,0,0,1,5.585-.708c1.449,1,2.463,3.108.95,6.085a11.866,11.866,0,0,1-1.207,1.893,6.277,6.277,0,0,0,3.349-.267A1.707,1.707,0,0,1,50.1,46.3a9.842,9.842,0,0,1-2.153.561c0,.012,0,.023,0,.035L42.06,76.8Zm-13.861,0,5.924-30.135a8.894,8.894,0,0,1-1.545-.562A1.726,1.726,0,0,1,42.429,46a8.794,8.794,0,0,1-4.1.991,9.133,9.133,0,0,1-3.558-.693A1.707,1.707,0,0,1,34.354,46a8.8,8.8,0,0,1-4.106.986,9.276,9.276,0,0,1-3.558-.693,1.7,1.7,0,0,1-.487-.334l-.21.11-.06.031a1.719,1.719,0,0,1-.411.182,8.869,8.869,0,0,1-1.037.355L30.334,76.8Zm2.255-33.644a9.084,9.084,0,0,1-1.323-3.274,7.187,7.187,0,0,1-.626,1.665A11.768,11.768,0,0,1,37.3,43.5,5.869,5.869,0,0,0,40.486,43.159Zm-8.081,0a8.48,8.48,0,0,1-1.374-3.727,6.814,6.814,0,0,1-.7,2.118,11.728,11.728,0,0,1-1.173,1.939A5.824,5.824,0,0,0,32.4,43.159Zm10.254-4.765c-.29.323-.274,1.159.417,2.463a7,7,0,0,0,.516-.869c.322-.643.548-1.449.177-1.705a.939.939,0,0,0-.5-.129h-.044A.786.786,0,0,0,42.659,38.394Zm-8.081,0c-.274.323-.274,1.159.435,2.463a7.255,7.255,0,0,0,.5-.869c.339-.643.564-1.449.177-1.705a.923.923,0,0,0-.482-.129h-.032A.854.854,0,0,0,34.578,38.394Zm-8.21,0c-.29.323-.274,1.159.419,2.463.177-.274.354-.564.516-.869.338-.643.546-1.449.177-1.705a.947.947,0,0,0-.5-.129h-.026A.838.838,0,0,0,26.368,38.394Zm30.016-3.61a1.867,1.867,0,0,1-.54-1.331A20.93,20.93,0,0,0,33.8,12.606a1.883,1.883,0,1,1-.193-3.749,24.628,24.628,0,0,1,25.949,24.6,1.856,1.856,0,0,1-3.177,1.331Z" transform="translate(3252 4225)" fill="#8bd9a1"/>
    <path id="Path_842" data-name="Path 842" d="M6.747,15,3.717,4.05h1.17L7.632,14.265l-.525-.3H8.562l-.57.3L10.227,4.53h1.08L8.847,15Zm6.585,0-2.7-10.47h1.11l2.49,9.735-.555-.3h1.485l-.57.3L17.067,4.05h1.14L15.432,15Zm9.825.255a4.125,4.125,0,0,1-1.77-.352,3.433,3.433,0,0,1-1.23-.945,4.011,4.011,0,0,1-.712-1.327,4.993,4.993,0,0,1-.233-1.515V10.9a4.945,4.945,0,0,1,.233-1.5,3.928,3.928,0,0,1,.712-1.32,3.524,3.524,0,0,1,1.208-.937,3.863,3.863,0,0,1,1.7-.353,3.666,3.666,0,0,1,2.077.555A3.553,3.553,0,0,1,26.4,8.767a4.175,4.175,0,0,1,.42,1.852V11.2h-7.1v-.87h6.315l-.285.435a3.676,3.676,0,0,0-.307-1.553,2.429,2.429,0,0,0-.9-1.05,2.671,2.671,0,0,0-1.478-.383,2.61,2.61,0,0,0-1.545.435A2.665,2.665,0,0,0,20.6,9.375a4.127,4.127,0,0,0-.307,1.635,4.253,4.253,0,0,0,.307,1.642,2.59,2.59,0,0,0,.945,1.177,2.8,2.8,0,0,0,1.612.435,2.774,2.774,0,0,0,1.68-.473,1.926,1.926,0,0,0,.8-1.117h1.05a2.967,2.967,0,0,1-.63,1.372,3.179,3.179,0,0,1-1.215.892A4.23,4.23,0,0,1,23.157,15.255ZM34.692,15l1.695-7.68h1.575L39.927,15h-.975L36.987,7.365h.36L35.637,15Zm-.645,0v-.915h1.365V15Zm-.27,0-2.3-7.935h1.08L34.827,15Zm5.43,0v-.915h1.335V15Zm.585,0,1.98-7.935h1.035L40.782,15Zm5.5,0V7.065h1.11V15ZM44.022,7.965v-.9h2.385v.9Zm1.515-2.37a.791.791,0,0,1-.608-.217.772.772,0,0,1-.2-.547.772.772,0,0,1,.2-.547.791.791,0,0,1,.608-.218.766.766,0,0,1,.6.218.789.789,0,0,1,.195.547.789.789,0,0,1-.195.547A.766.766,0,0,1,45.537,5.595ZM49.437,15V4.05h1.125V15ZM48.282,4.965V4.05h2.28v.915ZM53.547,15V4.05h1.125V15ZM52.392,4.965V4.05h2.28v.915ZM64.107,18.1q-.555,0-1.118-.052t-1.072-.128v-.96q.54.075,1.132.128t1.118.052a4.542,4.542,0,0,0,1.815-.3,1.839,1.839,0,0,0,.967-.952,4.245,4.245,0,0,0,.292-1.717v-1.59l.42-1.11a4.239,4.239,0,0,1-.48,1.957,3.153,3.153,0,0,1-1.215,1.253,3.457,3.457,0,0,1-1.74.435,3.527,3.527,0,0,1-2.745-1.238,4.25,4.25,0,0,1-.765-1.312,4.445,4.445,0,0,1-.27-1.545v-.21a4.34,4.34,0,0,1,.27-1.523A4.084,4.084,0,0,1,61.482,8a3.518,3.518,0,0,1,1.208-.885,3.794,3.794,0,0,1,1.582-.323,3.506,3.506,0,0,1,1.83.465,3.267,3.267,0,0,1,1.223,1.29,4.286,4.286,0,0,1,.472,1.935l-.36-.195V7.065h.885V14.13a5.317,5.317,0,0,1-.42,2.295A2.594,2.594,0,0,1,66.56,17.7,6.189,6.189,0,0,1,64.107,18.1Zm.315-4.02a2.941,2.941,0,0,0,1.448-.352,2.622,2.622,0,0,0,1.012-1,2.93,2.93,0,0,0,.375-1.5V10.5a2.67,2.67,0,0,0-.382-1.44,2.7,2.7,0,0,0-1.012-.96,2.949,2.949,0,0,0-1.44-.345,2.714,2.714,0,0,0-1.515.42,2.756,2.756,0,0,0-.99,1.132,3.653,3.653,0,0,0-.345,1.613,3.671,3.671,0,0,0,.353,1.635,2.7,2.7,0,0,0,1,1.125A2.761,2.761,0,0,0,64.422,14.085Zm10.035,1.17a4.125,4.125,0,0,1-1.77-.352,3.433,3.433,0,0,1-1.23-.945,4.011,4.011,0,0,1-.712-1.327,4.993,4.993,0,0,1-.233-1.515V10.9a4.945,4.945,0,0,1,.233-1.5,3.928,3.928,0,0,1,.712-1.32,3.524,3.524,0,0,1,1.208-.937,3.863,3.863,0,0,1,1.7-.353,3.666,3.666,0,0,1,2.077.555A3.553,3.553,0,0,1,77.7,8.767a4.175,4.175,0,0,1,.42,1.852V11.2h-7.1v-.87h6.315l-.285.435a3.676,3.676,0,0,0-.307-1.553,2.43,2.43,0,0,0-.9-1.05,2.671,2.671,0,0,0-1.478-.383,2.61,2.61,0,0,0-1.545.435A2.665,2.665,0,0,0,71.9,9.375a4.127,4.127,0,0,0-.308,1.635,4.253,4.253,0,0,0,.308,1.642,2.59,2.59,0,0,0,.945,1.177,3.215,3.215,0,0,0,3.292-.038,1.926,1.926,0,0,0,.8-1.117h1.05a2.967,2.967,0,0,1-.63,1.372,3.179,3.179,0,0,1-1.215.892A4.23,4.23,0,0,1,74.457,15.255ZM80.277,15V7.065h.9V10.4H81a4.959,4.959,0,0,1,.33-1.905,2.641,2.641,0,0,1,.99-1.23,2.966,2.966,0,0,1,1.665-.435h.045a2.665,2.665,0,0,1,2.235.938A4.175,4.175,0,0,1,87,10.4V15h-1.11V10.155a2.387,2.387,0,0,0-.57-1.665,2.035,2.035,0,0,0-1.59-.63,2.252,2.252,0,0,0-1.687.652A2.352,2.352,0,0,0,81.4,10.23V15Zm12.84.255a4.125,4.125,0,0,1-1.77-.352,3.433,3.433,0,0,1-1.23-.945A4.011,4.011,0,0,1,89.4,12.63a4.993,4.993,0,0,1-.233-1.515V10.9A4.945,4.945,0,0,1,89.4,9.4a3.928,3.928,0,0,1,.712-1.32,3.524,3.524,0,0,1,1.208-.937,3.863,3.863,0,0,1,1.7-.353A3.666,3.666,0,0,1,95.1,7.35a3.553,3.553,0,0,1,1.253,1.418,4.175,4.175,0,0,1,.42,1.852V11.2h-7.1v-.87H96l-.285.435A3.676,3.676,0,0,0,95.4,9.217a2.43,2.43,0,0,0-.9-1.05,2.671,2.671,0,0,0-1.478-.383,2.61,2.61,0,0,0-1.545.435,2.665,2.665,0,0,0-.923,1.155,4.127,4.127,0,0,0-.308,1.635,4.253,4.253,0,0,0,.308,1.642A2.59,2.59,0,0,0,91.5,13.83a3.215,3.215,0,0,0,3.292-.038,1.926,1.926,0,0,0,.8-1.117h1.05a2.967,2.967,0,0,1-.63,1.372,3.179,3.179,0,0,1-1.215.892A4.23,4.23,0,0,1,93.117,15.255ZM98.938,15V7.065h.9V10.38h-.09a3.7,3.7,0,0,1,.765-2.572,3.113,3.113,0,0,1,2.4-.832h.255v1.02H102.7a2.68,2.68,0,0,0-1.965.668,2.635,2.635,0,0,0-.675,1.957V15Zm10.845,0V12.615h-.18V9.8a1.855,1.855,0,0,0-.465-1.358,1.943,1.943,0,0,0-1.44-.473q-.45,0-.907.015t-.87.038q-.413.023-.728.052V7.08l.675-.06q.345-.03.712-.037t.713-.008a5.314,5.314,0,0,1,1.958.3,2.064,2.064,0,0,1,1.088.938,3.547,3.547,0,0,1,.345,1.688V15Zm-2.685.21a3.485,3.485,0,0,1-1.485-.3,2.262,2.262,0,0,1-1-.87,2.574,2.574,0,0,1-.353-1.38,2.391,2.391,0,0,1,.368-1.35,2.3,2.3,0,0,1,1.065-.847,4.359,4.359,0,0,1,1.688-.292h2.325v.855h-2.4a2.078,2.078,0,0,0-1.447.458,1.537,1.537,0,0,0-.5,1.193,1.479,1.479,0,0,0,.525,1.193,2.141,2.141,0,0,0,1.425.442,2.86,2.86,0,0,0,1.065-.2,1.9,1.9,0,0,0,.855-.69,2.444,2.444,0,0,0,.375-1.342l.33.465a3.234,3.234,0,0,1-.42,1.477,2.3,2.3,0,0,1-.975.892A3.249,3.249,0,0,1,107.1,15.21Zm9.27-.12a3.83,3.83,0,0,1-1.425-.24,1.829,1.829,0,0,1-.93-.818,3.127,3.127,0,0,1-.33-1.553V4.56h1.08v8.085a1.414,1.414,0,0,0,.375,1.057,1.458,1.458,0,0,0,1.065.367h1.425v1.02Zm-4.11-7.17V7.065h5.37V7.92Zm10.785,7.335a4.125,4.125,0,0,1-1.77-.352,3.433,3.433,0,0,1-1.23-.945,4.011,4.011,0,0,1-.712-1.327,4.993,4.993,0,0,1-.233-1.515V10.9a4.945,4.945,0,0,1,.233-1.5,3.928,3.928,0,0,1,.712-1.32,3.524,3.524,0,0,1,1.208-.937,3.863,3.863,0,0,1,1.7-.353,3.666,3.666,0,0,1,2.077.555,3.553,3.553,0,0,1,1.253,1.418,4.175,4.175,0,0,1,.42,1.852V11.2h-7.1v-.87h6.315l-.285.435a3.676,3.676,0,0,0-.307-1.553,2.43,2.43,0,0,0-.9-1.05,2.671,2.671,0,0,0-1.478-.383,2.61,2.61,0,0,0-1.545.435,2.665,2.665,0,0,0-.923,1.155,4.127,4.127,0,0,0-.308,1.635,4.253,4.253,0,0,0,.308,1.642,2.59,2.59,0,0,0,.945,1.177,3.215,3.215,0,0,0,3.292-.038,1.926,1.926,0,0,0,.8-1.117h1.05a2.967,2.967,0,0,1-.63,1.372,3.179,3.179,0,0,1-1.215.892A4.23,4.23,0,0,1,123.042,15.255Zm11.82-.03a3.66,3.66,0,0,1-2.355-.668,2.228,2.228,0,0,1-.84-1.793h1.05a1.522,1.522,0,0,0,.518,1.035,2.319,2.319,0,0,0,1.628.465,2.455,2.455,0,0,0,1.6-.443,1.349,1.349,0,0,0,.533-1.073,1.058,1.058,0,0,0-.442-.908,2.655,2.655,0,0,0-1.283-.412l-.9-.09a3.258,3.258,0,0,1-1.747-.668,1.844,1.844,0,0,1-.667-1.508,2.121,2.121,0,0,1,.36-1.23,2.365,2.365,0,0,1,1.012-.818,3.733,3.733,0,0,1,1.538-.293,3.379,3.379,0,0,1,2.077.6,2.045,2.045,0,0,1,.817,1.71h-1.05a1.253,1.253,0,0,0-.48-.96,2.077,2.077,0,0,0-1.365-.39,2.044,2.044,0,0,0-1.388.405,1.273,1.273,0,0,0-.457.99,1.071,1.071,0,0,0,.345.817,1.825,1.825,0,0,0,1.08.4l.9.09a4.016,4.016,0,0,1,1.958.69,1.852,1.852,0,0,1,.757,1.59,2.144,2.144,0,0,1-.4,1.268,2.609,2.609,0,0,1-1.118.877A4.162,4.162,0,0,1,134.863,15.225Zm8.745.03a4.125,4.125,0,0,1-1.77-.352,3.433,3.433,0,0,1-1.23-.945,4.011,4.011,0,0,1-.713-1.327,4.994,4.994,0,0,1-.232-1.515V10.9a4.945,4.945,0,0,1,.232-1.5,3.928,3.928,0,0,1,.713-1.32,3.524,3.524,0,0,1,1.207-.937,3.863,3.863,0,0,1,1.7-.353,3.666,3.666,0,0,1,2.078.555,3.553,3.553,0,0,1,1.252,1.418,4.175,4.175,0,0,1,.42,1.852V11.2h-7.095v-.87h6.315l-.285.435a3.676,3.676,0,0,0-.308-1.553,2.429,2.429,0,0,0-.9-1.05,2.671,2.671,0,0,0-1.478-.383,2.61,2.61,0,0,0-1.545.435,2.665,2.665,0,0,0-.923,1.155,4.127,4.127,0,0,0-.307,1.635,4.253,4.253,0,0,0,.307,1.642,2.59,2.59,0,0,0,.945,1.177,3.215,3.215,0,0,0,3.292-.038,1.926,1.926,0,0,0,.795-1.117h1.05a2.967,2.967,0,0,1-.63,1.372,3.179,3.179,0,0,1-1.215.892A4.23,4.23,0,0,1,143.607,15.255Zm7.53-.255-2.79-7.935H149.5L152.263,15Zm.3,0v-.915h1.425V15Zm.615,0,2.415-7.935h1.11L153.118,15Zm8.7.255a4.125,4.125,0,0,1-1.77-.352,3.433,3.433,0,0,1-1.23-.945,4.011,4.011,0,0,1-.713-1.327,4.994,4.994,0,0,1-.232-1.515V10.9a4.945,4.945,0,0,1,.232-1.5,3.928,3.928,0,0,1,.713-1.32,3.524,3.524,0,0,1,1.207-.937,3.863,3.863,0,0,1,1.7-.353,3.666,3.666,0,0,1,2.078.555,3.553,3.553,0,0,1,1.252,1.418,4.175,4.175,0,0,1,.42,1.852V11.2h-7.095v-.87h6.315l-.285.435a3.676,3.676,0,0,0-.308-1.553,2.429,2.429,0,0,0-.9-1.05,2.671,2.671,0,0,0-1.478-.383,2.61,2.61,0,0,0-1.545.435,2.665,2.665,0,0,0-.923,1.155,4.127,4.127,0,0,0-.307,1.635,4.253,4.253,0,0,0,.307,1.642,2.59,2.59,0,0,0,.945,1.177,3.215,3.215,0,0,0,3.292-.038,1.926,1.926,0,0,0,.795-1.117h1.05a2.967,2.967,0,0,1-.63,1.372,3.179,3.179,0,0,1-1.215.892A4.23,4.23,0,0,1,160.753,15.255Zm5.82-.255V7.065h.9V10.38h-.09a3.7,3.7,0,0,1,.765-2.572,3.113,3.113,0,0,1,2.4-.832h.255v1.02h-.465a2.68,2.68,0,0,0-1.965.668,2.635,2.635,0,0,0-.675,1.957V15Zm10.845,0V12.615h-.18V9.8a1.855,1.855,0,0,0-.465-1.358,1.943,1.943,0,0,0-1.44-.473q-.45,0-.908.015t-.87.038q-.413.023-.727.052V7.08l.675-.06q.345-.03.713-.037t.712-.008a5.314,5.314,0,0,1,1.958.3,2.064,2.064,0,0,1,1.087.938,3.547,3.547,0,0,1,.345,1.688V15Zm-2.685.21a3.485,3.485,0,0,1-1.485-.3,2.262,2.262,0,0,1-1-.87,2.574,2.574,0,0,1-.352-1.38,2.391,2.391,0,0,1,.368-1.35,2.3,2.3,0,0,1,1.065-.847,4.359,4.359,0,0,1,1.688-.292h2.325v.855h-2.4a2.078,2.078,0,0,0-1.447.458,1.537,1.537,0,0,0-.5,1.193,1.479,1.479,0,0,0,.525,1.193,2.141,2.141,0,0,0,1.425.442,2.86,2.86,0,0,0,1.065-.2,1.9,1.9,0,0,0,.855-.69,2.444,2.444,0,0,0,.375-1.342l.33.465a3.234,3.234,0,0,1-.42,1.477,2.3,2.3,0,0,1-.975.892A3.249,3.249,0,0,1,174.733,15.21ZM181.2,15V4.05h1.125V15ZM180.043,4.965V4.05h2.28v.915ZM29.488,34V26.065H30.6V34Zm-1.275-7.035v-.9H30.6v.9Zm1.515-2.37a.791.791,0,0,1-.608-.218.841.841,0,0,1,0-1.095.791.791,0,0,1,.608-.218.766.766,0,0,1,.6.218.866.866,0,0,1,0,1.095A.766.766,0,0,1,29.728,24.595Zm7.08,9.66a3.794,3.794,0,0,1-1.583-.323,3.659,3.659,0,0,1-1.23-.9,4.12,4.12,0,0,1-.795-1.32,4.483,4.483,0,0,1-.278-1.583v-.21a4.507,4.507,0,0,1,.27-1.552,4.153,4.153,0,0,1,.772-1.32,3.635,3.635,0,0,1,2.813-1.253,3.518,3.518,0,0,1,1.77.435,3.256,3.256,0,0,1,1.23,1.253,4.216,4.216,0,0,1,.495,2l-.495-.93V23.05H40.9V34H40V30.475h.36a4.356,4.356,0,0,1-.517,2.093,3.2,3.2,0,0,1-1.275,1.267A3.686,3.686,0,0,1,36.808,34.255Zm.15-.99a2.976,2.976,0,0,0,1.463-.36,2.6,2.6,0,0,0,1.027-1.027,3.085,3.085,0,0,0,.375-1.538v-.72a2.86,2.86,0,0,0-.375-1.477,2.662,2.662,0,0,0-1.027-1,3.007,3.007,0,0,0-1.478-.36,2.742,2.742,0,0,0-1.538.427,2.811,2.811,0,0,0-1,1.163,4.069,4.069,0,0,0,.007,3.33,2.742,2.742,0,0,0,1.02,1.148A2.826,2.826,0,0,0,36.958,33.265Zm10.17.99a4.125,4.125,0,0,1-1.77-.353,3.433,3.433,0,0,1-1.23-.945,4.012,4.012,0,0,1-.713-1.328,4.993,4.993,0,0,1-.232-1.515V29.9a4.945,4.945,0,0,1,.232-1.5,3.928,3.928,0,0,1,.713-1.32,3.524,3.524,0,0,1,1.208-.937,3.863,3.863,0,0,1,1.7-.353,3.666,3.666,0,0,1,2.077.555,3.553,3.553,0,0,1,1.253,1.418,4.175,4.175,0,0,1,.42,1.852V30.2h-7.1v-.87h6.315l-.285.435a3.676,3.676,0,0,0-.308-1.553,2.429,2.429,0,0,0-.9-1.05,2.671,2.671,0,0,0-1.478-.382,2.61,2.61,0,0,0-1.545.435,2.665,2.665,0,0,0-.922,1.155,4.127,4.127,0,0,0-.308,1.635,4.253,4.253,0,0,0,.308,1.642,2.59,2.59,0,0,0,.945,1.178,3.215,3.215,0,0,0,3.292-.038,1.926,1.926,0,0,0,.795-1.118h1.05a2.967,2.967,0,0,1-.63,1.373,3.179,3.179,0,0,1-1.215.892A4.23,4.23,0,0,1,47.128,34.255ZM57.778,34V31.615H57.6V28.8a1.855,1.855,0,0,0-.465-1.358,1.943,1.943,0,0,0-1.44-.472q-.45,0-.908.015t-.87.038q-.413.023-.728.052v-.99l.675-.06q.345-.03.713-.038t.713-.008a5.314,5.314,0,0,1,1.957.3,2.064,2.064,0,0,1,1.088.938,3.547,3.547,0,0,1,.345,1.688V34Zm-2.685.21a3.485,3.485,0,0,1-1.485-.3,2.262,2.262,0,0,1-1-.87,2.574,2.574,0,0,1-.353-1.38,2.391,2.391,0,0,1,.368-1.35,2.3,2.3,0,0,1,1.065-.847,4.359,4.359,0,0,1,1.688-.292H57.7v.855H55.3a2.078,2.078,0,0,0-1.448.458,1.537,1.537,0,0,0-.5,1.192,1.479,1.479,0,0,0,.525,1.193,2.141,2.141,0,0,0,1.425.443,2.86,2.86,0,0,0,1.065-.2,1.894,1.894,0,0,0,.855-.69,2.444,2.444,0,0,0,.375-1.342l.33.465a3.234,3.234,0,0,1-.42,1.478,2.3,2.3,0,0,1-.975.892A3.249,3.249,0,0,1,55.093,34.21Zm8.9.015a3.66,3.66,0,0,1-2.355-.667,2.228,2.228,0,0,1-.84-1.792h1.05A1.522,1.522,0,0,0,62.36,32.8a2.319,2.319,0,0,0,1.627.465,2.455,2.455,0,0,0,1.6-.443,1.349,1.349,0,0,0,.533-1.072,1.058,1.058,0,0,0-.443-.908,2.655,2.655,0,0,0-1.283-.412l-.9-.09a3.258,3.258,0,0,1-1.748-.667,1.844,1.844,0,0,1-.667-1.508,2.121,2.121,0,0,1,.36-1.23,2.365,2.365,0,0,1,1.013-.817,3.733,3.733,0,0,1,1.537-.292,3.379,3.379,0,0,1,2.077.6,2.045,2.045,0,0,1,.818,1.71h-1.05a1.253,1.253,0,0,0-.48-.96,2.077,2.077,0,0,0-1.365-.39,2.043,2.043,0,0,0-1.387.4,1.273,1.273,0,0,0-.458.99,1.071,1.071,0,0,0,.345.817,1.825,1.825,0,0,0,1.08.4l.9.09a4.016,4.016,0,0,1,1.957.69,1.852,1.852,0,0,1,.757,1.59,2.144,2.144,0,0,1-.4,1.268,2.609,2.609,0,0,1-1.118.877A4.162,4.162,0,0,1,63.988,34.225Zm11.805-.135a3.83,3.83,0,0,1-1.425-.24,1.829,1.829,0,0,1-.93-.817,3.127,3.127,0,0,1-.33-1.553V23.56h1.08v8.085a1.414,1.414,0,0,0,.375,1.057,1.458,1.458,0,0,0,1.065.368h1.425v1.02Zm-4.11-7.17v-.855h5.37v.855Zm11.025,7.335a4.279,4.279,0,0,1-1.793-.353,3.914,3.914,0,0,1-1.305-.945,4.244,4.244,0,0,1-1.088-2.828v-.21a4.176,4.176,0,0,1,.285-1.508,4.113,4.113,0,0,1,.825-1.327,4.05,4.05,0,0,1,1.313-.937,4.62,4.62,0,0,1,3.54,0,4.05,4.05,0,0,1,1.313.938,4.009,4.009,0,0,1,.818,1.327,4.276,4.276,0,0,1,.277,1.508v.21a4.319,4.319,0,0,1-.27,1.5,4.07,4.07,0,0,1-.8,1.328,3.9,3.9,0,0,1-1.312.945A4.331,4.331,0,0,1,82.708,34.255Zm0-1.005a3.01,3.01,0,0,0,1.673-.443,2.907,2.907,0,0,0,1.042-1.17,3.789,3.789,0,0,0-.007-3.24,2.839,2.839,0,0,0-1.057-1.155,3.369,3.369,0,0,0-3.285,0A2.839,2.839,0,0,0,80.015,28.4a3.789,3.789,0,0,0-.007,3.24,2.907,2.907,0,0,0,1.043,1.17A2.982,2.982,0,0,0,82.708,33.25Zm12.48.975a3.66,3.66,0,0,1-2.355-.667,2.228,2.228,0,0,1-.84-1.792h1.05A1.522,1.522,0,0,0,93.56,32.8a2.319,2.319,0,0,0,1.628.465,2.455,2.455,0,0,0,1.6-.443,1.349,1.349,0,0,0,.533-1.072,1.058,1.058,0,0,0-.443-.908,2.655,2.655,0,0,0-1.283-.412l-.9-.09a3.258,3.258,0,0,1-1.748-.667,1.844,1.844,0,0,1-.667-1.508,2.121,2.121,0,0,1,.36-1.23,2.365,2.365,0,0,1,1.012-.817,3.733,3.733,0,0,1,1.537-.292,3.379,3.379,0,0,1,2.077.6,2.045,2.045,0,0,1,.818,1.71h-1.05a1.253,1.253,0,0,0-.48-.96,2.077,2.077,0,0,0-1.365-.39,2.043,2.043,0,0,0-1.387.4,1.273,1.273,0,0,0-.458.99,1.071,1.071,0,0,0,.345.817,1.825,1.825,0,0,0,1.08.4l.9.09a4.016,4.016,0,0,1,1.957.69,1.852,1.852,0,0,1,.757,1.59,2.144,2.144,0,0,1-.4,1.268,2.609,2.609,0,0,1-1.118.877A4.162,4.162,0,0,1,95.188,34.225Zm8.985.03a4.279,4.279,0,0,1-1.793-.353,3.914,3.914,0,0,1-1.305-.945,4.244,4.244,0,0,1-1.088-2.828v-.21a4.176,4.176,0,0,1,.285-1.508,4.113,4.113,0,0,1,.825-1.327,4.05,4.05,0,0,1,1.313-.937,4.62,4.62,0,0,1,3.54,0,4.05,4.05,0,0,1,1.313.938,4.009,4.009,0,0,1,.818,1.327,4.276,4.276,0,0,1,.277,1.508v.21a4.319,4.319,0,0,1-.27,1.5,4.07,4.07,0,0,1-.8,1.328,3.9,3.9,0,0,1-1.312.945A4.331,4.331,0,0,1,104.173,34.255Zm0-1.005a3.01,3.01,0,0,0,1.673-.443,2.907,2.907,0,0,0,1.042-1.17,3.789,3.789,0,0,0-.007-3.24,2.839,2.839,0,0,0-1.057-1.155,3.369,3.369,0,0,0-3.285,0A2.839,2.839,0,0,0,101.48,28.4a3.789,3.789,0,0,0-.007,3.24,2.907,2.907,0,0,0,1.043,1.17A2.982,2.982,0,0,0,104.173,33.25Zm6.555.75V23.05h1.125V34Zm-1.155-10.035V23.05h2.28v.915ZM116.532,34l-2.79-7.935H114.9L117.657,34Zm.3,0v-.915h1.425V34Zm.615,0,2.415-7.935h1.11L118.512,34Zm8.7.255a4.125,4.125,0,0,1-1.77-.353,3.433,3.433,0,0,1-1.23-.945,4.011,4.011,0,0,1-.712-1.328,4.993,4.993,0,0,1-.233-1.515V29.9a4.945,4.945,0,0,1,.233-1.5,3.928,3.928,0,0,1,.712-1.32,3.524,3.524,0,0,1,1.208-.937,3.863,3.863,0,0,1,1.7-.353,3.666,3.666,0,0,1,2.077.555,3.553,3.553,0,0,1,1.253,1.418,4.175,4.175,0,0,1,.42,1.852V30.2h-7.1v-.87h6.315l-.285.435a3.676,3.676,0,0,0-.307-1.553,2.429,2.429,0,0,0-.9-1.05,2.671,2.671,0,0,0-1.478-.382,2.61,2.61,0,0,0-1.545.435,2.665,2.665,0,0,0-.923,1.155,4.127,4.127,0,0,0-.308,1.635,4.253,4.253,0,0,0,.308,1.642,2.59,2.59,0,0,0,.945,1.178,3.215,3.215,0,0,0,3.292-.038,1.926,1.926,0,0,0,.8-1.118h1.05a2.967,2.967,0,0,1-.63,1.373,3.179,3.179,0,0,1-1.215.892A4.23,4.23,0,0,1,126.147,34.255Zm12.87,0a4.279,4.279,0,0,1-1.792-.353,3.914,3.914,0,0,1-1.3-.945,4.244,4.244,0,0,1-1.088-2.828v-.21a4.176,4.176,0,0,1,.285-1.508,4.113,4.113,0,0,1,.825-1.327,4.05,4.05,0,0,1,1.313-.937,4.62,4.62,0,0,1,3.54,0,4.05,4.05,0,0,1,1.313.938,4.008,4.008,0,0,1,.817,1.327,4.275,4.275,0,0,1,.278,1.508v.21a4.319,4.319,0,0,1-.27,1.5,4.07,4.07,0,0,1-.8,1.328,3.9,3.9,0,0,1-1.312.945A4.331,4.331,0,0,1,139.018,34.255Zm0-1.005a3.01,3.01,0,0,0,1.673-.443,2.907,2.907,0,0,0,1.043-1.17,3.789,3.789,0,0,0-.008-3.24,2.839,2.839,0,0,0-1.057-1.155,3.369,3.369,0,0,0-3.285,0,2.839,2.839,0,0,0-1.057,1.155,3.789,3.789,0,0,0-.008,3.24,2.907,2.907,0,0,0,1.042,1.17A2.982,2.982,0,0,0,139.018,33.25Zm9.225.975a2.64,2.64,0,0,1-2.175-.922,3.972,3.972,0,0,1-.75-2.573V26.05h1.11v4.905a2.362,2.362,0,0,0,.548,1.642,1.945,1.945,0,0,0,1.523.608,2.13,2.13,0,0,0,1.628-.645,2.413,2.413,0,0,0,.607-1.725V26.05h1.125V34h-.9V30.685h.18a5.109,5.109,0,0,1-.315,1.9,2.579,2.579,0,0,1-.945,1.215,2.771,2.771,0,0,1-1.59.427ZM154.8,34V26.065h.9V29.38h-.09a3.7,3.7,0,0,1,.765-2.573,3.113,3.113,0,0,1,2.4-.833h.255v1.02h-.465a2.68,2.68,0,0,0-1.965.668,2.635,2.635,0,0,0-.675,1.957V34ZM57.042,56V45.065h.9V48.47l-.27.03a4.612,4.612,0,0,1,.518-2.025,3.1,3.1,0,0,1,1.245-1.252,3.862,3.862,0,0,1,3.345-.09,3.677,3.677,0,0,1,1.215.915,4.044,4.044,0,0,1,.765,1.32,4.623,4.623,0,0,1,.263,1.552v.21a4.507,4.507,0,0,1-.27,1.552A4.153,4.153,0,0,1,63.98,52a3.635,3.635,0,0,1-2.813,1.253,3.572,3.572,0,0,1-1.732-.428A3.268,3.268,0,0,1,58.16,51.56a4.394,4.394,0,0,1-.532-2.07l.54,1.125V56Zm3.975-3.735a2.732,2.732,0,0,0,1.545-.427,2.769,2.769,0,0,0,.99-1.17,3.85,3.85,0,0,0,.345-1.642,3.754,3.754,0,0,0-.353-1.658,2.841,2.841,0,0,0-1-1.155,2.705,2.705,0,0,0-1.53-.428,3.019,3.019,0,0,0-1.47.36A2.67,2.67,0,0,0,58.5,47.158a2.986,2.986,0,0,0-.382,1.537v.735a2.816,2.816,0,0,0,.382,1.478,2.7,2.7,0,0,0,1.042,1A3.019,3.019,0,0,0,61.017,52.265ZM67.3,53V45.065h.9V48.38h-.09a3.7,3.7,0,0,1,.765-2.573,3.113,3.113,0,0,1,2.4-.833h.255v1.02h-.465a2.68,2.68,0,0,0-1.965.667,2.635,2.635,0,0,0-.675,1.958V53Zm9.5.255A4.279,4.279,0,0,1,75,52.9a3.914,3.914,0,0,1-1.305-.945,4.244,4.244,0,0,1-1.088-2.827v-.21a4.176,4.176,0,0,1,.285-1.507,4.113,4.113,0,0,1,.825-1.327,4.05,4.05,0,0,1,1.313-.937,4.62,4.62,0,0,1,3.54,0,4.05,4.05,0,0,1,1.313.938,4.008,4.008,0,0,1,.818,1.327,4.276,4.276,0,0,1,.277,1.507v.21a4.319,4.319,0,0,1-.27,1.5,4.07,4.07,0,0,1-.8,1.327A3.9,3.9,0,0,1,78.6,52.9,4.331,4.331,0,0,1,76.8,53.255Zm0-1.005a3.01,3.01,0,0,0,1.673-.443,2.907,2.907,0,0,0,1.042-1.17A3.789,3.789,0,0,0,79.5,47.4a2.839,2.839,0,0,0-1.057-1.155,3.369,3.369,0,0,0-3.285,0A2.839,2.839,0,0,0,74.1,47.4a3.789,3.789,0,0,0-.007,3.24,2.907,2.907,0,0,0,1.043,1.17A2.982,2.982,0,0,0,76.8,52.25Zm10.575,1.005a3.546,3.546,0,0,1-1.838-.465,3.227,3.227,0,0,1-1.23-1.305,4.353,4.353,0,0,1-.472-1.935h.345V53h-.9V42.05H84.4v5.475l-.435,1a4.4,4.4,0,0,1,.488-2.033,3.163,3.163,0,0,1,1.23-1.267,3.53,3.53,0,0,1,1.762-.435,3.618,3.618,0,0,1,2.783,1.23,3.959,3.959,0,0,1,.765,1.313,4.668,4.668,0,0,1,.262,1.567v.21a4.507,4.507,0,0,1-.27,1.552,4.245,4.245,0,0,1-.772,1.327,3.61,3.61,0,0,1-1.223.923A3.771,3.771,0,0,1,87.372,53.255Zm-.12-.99A2.7,2.7,0,0,0,88.8,51.83a2.83,2.83,0,0,0,.99-1.17,3.837,3.837,0,0,0,.345-1.65,3.754,3.754,0,0,0-.352-1.657,2.7,2.7,0,0,0-2.528-1.568,3.019,3.019,0,0,0-1.47.36,2.67,2.67,0,0,0-1.042,1.013,2.986,2.986,0,0,0-.382,1.537v.735a2.816,2.816,0,0,0,.382,1.478,2.7,2.7,0,0,0,1.042,1A3.019,3.019,0,0,0,87.252,52.265Zm6.36.735V42.05h1.125V53ZM92.458,42.965V42.05h2.28v.915Zm8.505,10.29a4.125,4.125,0,0,1-1.77-.353,3.433,3.433,0,0,1-1.23-.945,4.011,4.011,0,0,1-.712-1.327,4.993,4.993,0,0,1-.233-1.515V48.9a4.945,4.945,0,0,1,.233-1.5,3.928,3.928,0,0,1,.712-1.32,3.524,3.524,0,0,1,1.208-.937,3.863,3.863,0,0,1,1.7-.353,3.666,3.666,0,0,1,2.077.555,3.553,3.553,0,0,1,1.253,1.418,4.175,4.175,0,0,1,.42,1.852V49.2h-7.1v-.87h6.315l-.285.435a3.676,3.676,0,0,0-.307-1.553,2.43,2.43,0,0,0-.9-1.05,2.671,2.671,0,0,0-1.478-.382,2.61,2.61,0,0,0-1.545.435,2.665,2.665,0,0,0-.923,1.155A4.127,4.127,0,0,0,98.1,49.01a4.253,4.253,0,0,0,.308,1.643,2.59,2.59,0,0,0,.945,1.178,3.215,3.215,0,0,0,3.292-.038,1.926,1.926,0,0,0,.8-1.118h1.05a2.967,2.967,0,0,1-.63,1.373,3.179,3.179,0,0,1-1.215.892A4.23,4.23,0,0,1,100.963,53.255Zm5.82-.255V45.05h.9V48.4h-.18a5.236,5.236,0,0,1,.307-1.89,2.66,2.66,0,0,1,.923-1.237,2.6,2.6,0,0,1,1.56-.443h.045a2.637,2.637,0,0,1,1.56.435,2.569,2.569,0,0,1,.915,1.23,5.4,5.4,0,0,1,.3,1.905h-.36a5.236,5.236,0,0,1,.307-1.89,2.483,2.483,0,0,1,2.5-1.68h.045a2.672,2.672,0,0,1,1.567.435,2.594,2.594,0,0,1,.93,1.23,5.283,5.283,0,0,1,.308,1.905V53h-1.125V48.14a2.528,2.528,0,0,0-.51-1.665,1.8,1.8,0,0,0-1.47-.615,2.01,2.01,0,0,0-1.567.637,2.461,2.461,0,0,0-.577,1.718V53h-1.125V48.14a2.528,2.528,0,0,0-.51-1.665,1.8,1.8,0,0,0-1.47-.615,2.01,2.01,0,0,0-1.567.637,2.461,2.461,0,0,0-.577,1.718V53Zm16.935.225a3.66,3.66,0,0,1-2.355-.667,2.228,2.228,0,0,1-.84-1.792h1.05a1.522,1.522,0,0,0,.517,1.035,2.319,2.319,0,0,0,1.628.465,2.455,2.455,0,0,0,1.6-.443,1.349,1.349,0,0,0,.532-1.072,1.058,1.058,0,0,0-.442-.908,2.655,2.655,0,0,0-1.283-.412l-.9-.09a3.258,3.258,0,0,1-1.747-.667,1.844,1.844,0,0,1-.667-1.507,2.121,2.121,0,0,1,.36-1.23,2.365,2.365,0,0,1,1.012-.818,3.733,3.733,0,0,1,1.537-.292,3.379,3.379,0,0,1,2.077.6,2.045,2.045,0,0,1,.818,1.71h-1.05a1.253,1.253,0,0,0-.48-.96,2.077,2.077,0,0,0-1.365-.39,2.043,2.043,0,0,0-1.387.4,1.273,1.273,0,0,0-.458.99,1.071,1.071,0,0,0,.345.817,1.825,1.825,0,0,0,1.08.4l.9.09a4.016,4.016,0,0,1,1.957.69,1.852,1.852,0,0,1,.757,1.59,2.144,2.144,0,0,1-.4,1.268,2.609,2.609,0,0,1-1.118.877A4.162,4.162,0,0,1,123.718,53.225ZM128.772,53V51.515h1.41V53Z" transform="translate(3193 4415)" fill="#262626"/>
  </g>
</svg>
