<svg xmlns="http://www.w3.org/2000/svg" width="235" height="357" viewBox="0 0 235 357">
  <g id="Iterate" transform="translate(-3169 -4598)">
    <path id="Path_841" data-name="Path 841" d="M20,0H215a20,20,0,0,1,20,20V337a20,20,0,0,1-20,20H20A20,20,0,0,1,0,337V20A20,20,0,0,1,20,0Z" transform="translate(3169 4598)" fill="#fff"/>
    <path id="Path_846" data-name="Path 846" d="M1.75-17.5H4.625V0H1.75ZM14.925-9.9h-3.1v6a1.5,1.5,0,0,0,.35,1.112,1.569,1.569,0,0,0,1.038.375,17.088,17.088,0,0,0,1.712-.013V0q-3.1.375-4.45-.538T9.125-3.9v-6h-2.3v-2.6h2.3v-2.7l2.7-.8v3.5h3.1ZM19-5.1a3.433,3.433,0,0,0,1.375,2.188A4.42,4.42,0,0,0,23-2.15,3.664,3.664,0,0,0,26.225-3.7L28.45-2.4A6.188,6.188,0,0,1,22.975.325,6.684,6.684,0,0,1,18.05-1.538,6.364,6.364,0,0,1,16.175-6.25a6.432,6.432,0,0,1,1.85-4.688,6.362,6.362,0,0,1,4.75-1.887A5.845,5.845,0,0,1,27.288-10.9,6.674,6.674,0,0,1,29.05-6.225a8.352,8.352,0,0,1-.1,1.125Zm-.025-2.2h7.35a3.6,3.6,0,0,0-1.263-2.3,3.636,3.636,0,0,0-2.312-.775,3.8,3.8,0,0,0-2.5.825A3.721,3.721,0,0,0,18.975-7.3Zm15.15-3.1a3.824,3.824,0,0,1,3.85-2.325V-9.8a4,4,0,0,0-2.7.738A3.187,3.187,0,0,0,34.125-6.3V0h-2.7V-12.5h2.7ZM49.3-12.5H52V0H49.3V-1.8A5.058,5.058,0,0,1,44.925.325a5.862,5.862,0,0,1-4.4-1.913A6.5,6.5,0,0,1,38.7-6.25a6.491,6.491,0,0,1,1.825-4.675,5.88,5.88,0,0,1,4.4-1.9,5.079,5.079,0,0,1,4.375,2.1ZM42.525-3.388A3.809,3.809,0,0,0,45.35-2.25a3.809,3.809,0,0,0,2.825-1.138A3.9,3.9,0,0,0,49.3-6.25a3.9,3.9,0,0,0-1.125-2.863A3.809,3.809,0,0,0,45.35-10.25a3.809,3.809,0,0,0-2.825,1.138A3.9,3.9,0,0,0,41.4-6.25,3.9,3.9,0,0,0,42.525-3.388ZM62.125-9.9h-3.1v6a1.5,1.5,0,0,0,.35,1.112,1.569,1.569,0,0,0,1.038.375,17.088,17.088,0,0,0,1.712-.013V0q-3.1.375-4.45-.538T56.325-3.9v-6h-2.3v-2.6h2.3v-2.7l2.7-.8v3.5h3.1ZM66.2-5.1a3.433,3.433,0,0,0,1.375,2.188A4.42,4.42,0,0,0,70.2-2.15,3.664,3.664,0,0,0,73.425-3.7L75.65-2.4A6.188,6.188,0,0,1,70.175.325,6.684,6.684,0,0,1,65.25-1.538,6.364,6.364,0,0,1,63.375-6.25a6.432,6.432,0,0,1,1.85-4.688,6.362,6.362,0,0,1,4.75-1.887A5.845,5.845,0,0,1,74.488-10.9,6.674,6.674,0,0,1,76.25-6.225a8.352,8.352,0,0,1-.1,1.125Zm-.025-2.2h7.35a3.6,3.6,0,0,0-1.263-2.3,3.636,3.636,0,0,0-2.312-.775,3.8,3.8,0,0,0-2.5.825A3.721,3.721,0,0,0,66.175-7.3Z" transform="translate(3248 4806)" fill="#262626"/>
    <path id="Iterate-2" data-name="Iterate" d="M89.542,60.818a2.32,2.32,0,0,1-2.053-1.248A2.295,2.295,0,0,1,88.5,56.483l6.241-3.234-.873-.322a63.247,63.247,0,0,1-16.105-9.985A112.222,112.222,0,0,1,66.136,31.814c-5.447,6.081-22.493,23.434-38.6,23.434a26.936,26.936,0,1,1,0-53.859c16.132,0,33.15,17.367,38.612,23.447,1.006-1.1,2.295-2.577,3.449-3.785a2.316,2.316,0,1,1,3.328,3.22c-1.262,1.316-2.724,2.953-3.745,4.107A106.478,106.478,0,0,0,80.672,39.438a58.342,58.342,0,0,0,14.87,9.288c.349.147.7.255,1.047.376L93.233,42.23A2.309,2.309,0,0,1,97.368,40.2l5.6,11.489a2.3,2.3,0,0,1-1.02,3.046L90.589,60.563a2.262,2.262,0,0,1-1.041.255ZM11.424,12.378A22.346,22.346,0,0,0,27.577,50.712h-.041c14.44,0,30.922-17.152,35.593-22.333C58.446,23.2,42.059,6.033,27.577,6.033c-.183,0-.366-.007-.549-.007A22.346,22.346,0,0,0,11.424,12.378ZM110.6,52.018a2.3,2.3,0,0,1,1.489-2.543,22.346,22.346,0,0,0-7.368-43.444h0c-5.543,0-12.146,2.645-19.3,7.651l7.395,1.343a2.3,2.3,0,0,1-.43,4.55h-.43L79.879,17.292A2.261,2.261,0,0,1,77.585,15.1a1.347,1.347,0,0,1,0-.228.558.558,0,0,1,0-.147v-.148L79.718,1.992a2.295,2.295,0,1,1,4.523.765L83.059,9.736c7.892-5.5,15.166-8.294,21.675-8.294l-.013.027a26.936,26.936,0,0,1,8.885,52.342,2.52,2.52,0,0,1-.765.121A2.293,2.293,0,0,1,110.6,52.018Z" transform="translate(3220.5 4665.5)" fill="#8bd9a1" stroke="#8bd9a1" stroke-width="1"/>
    <path id="Path_844" data-name="Path 844" d="M27.535,15,24.5,4.05h1.17L28.42,14.265l-.525-.3H29.35l-.57.3L31.015,4.53h1.08L29.635,15Zm6.585,0L31.42,4.53h1.11l2.49,9.735-.555-.3H35.95l-.57.3L37.855,4.05h1.14L36.22,15Zm9.825.255a4.125,4.125,0,0,1-1.77-.352,3.433,3.433,0,0,1-1.23-.945,4.012,4.012,0,0,1-.713-1.327A4.994,4.994,0,0,1,40,11.115V10.9a4.945,4.945,0,0,1,.232-1.5,3.928,3.928,0,0,1,.713-1.32,3.524,3.524,0,0,1,1.208-.937,3.863,3.863,0,0,1,1.7-.353,3.666,3.666,0,0,1,2.077.555,3.553,3.553,0,0,1,1.253,1.418,4.175,4.175,0,0,1,.42,1.852V11.2h-7.1v-.87h6.315l-.285.435a3.676,3.676,0,0,0-.308-1.553,2.429,2.429,0,0,0-.9-1.05,2.671,2.671,0,0,0-1.478-.383,2.61,2.61,0,0,0-1.545.435,2.665,2.665,0,0,0-.922,1.155,4.127,4.127,0,0,0-.308,1.635,4.253,4.253,0,0,0,.308,1.642,2.59,2.59,0,0,0,.945,1.177,3.215,3.215,0,0,0,3.292-.038,1.926,1.926,0,0,0,.795-1.117h1.05a2.967,2.967,0,0,1-.63,1.372,3.179,3.179,0,0,1-1.215.892A4.23,4.23,0,0,1,43.945,15.255Zm11.82-.03a3.66,3.66,0,0,1-2.355-.668,2.228,2.228,0,0,1-.84-1.793h1.05a1.522,1.522,0,0,0,.518,1.035,2.319,2.319,0,0,0,1.627.465,2.455,2.455,0,0,0,1.6-.443,1.349,1.349,0,0,0,.533-1.073,1.058,1.058,0,0,0-.443-.908,2.655,2.655,0,0,0-1.282-.412l-.9-.09a3.258,3.258,0,0,1-1.748-.668,1.844,1.844,0,0,1-.667-1.508,2.121,2.121,0,0,1,.36-1.23,2.365,2.365,0,0,1,1.013-.818,3.733,3.733,0,0,1,1.537-.293,3.379,3.379,0,0,1,2.077.6,2.045,2.045,0,0,1,.818,1.71H57.61a1.253,1.253,0,0,0-.48-.96,2.077,2.077,0,0,0-1.365-.39,2.043,2.043,0,0,0-1.387.405,1.273,1.273,0,0,0-.458.99,1.071,1.071,0,0,0,.345.817,1.825,1.825,0,0,0,1.08.4l.9.09a4.016,4.016,0,0,1,1.958.69,1.852,1.852,0,0,1,.757,1.59,2.144,2.144,0,0,1-.4,1.268,2.609,2.609,0,0,1-1.118.877A4.162,4.162,0,0,1,55.765,15.225Zm8.745.03a4.125,4.125,0,0,1-1.77-.352,3.433,3.433,0,0,1-1.23-.945A4.012,4.012,0,0,1,60.8,12.63a4.994,4.994,0,0,1-.232-1.515V10.9A4.945,4.945,0,0,1,60.8,9.4a3.928,3.928,0,0,1,.713-1.32,3.524,3.524,0,0,1,1.208-.937,3.863,3.863,0,0,1,1.7-.353A3.666,3.666,0,0,1,66.5,7.35,3.553,3.553,0,0,1,67.75,8.767a4.175,4.175,0,0,1,.42,1.852V11.2h-7.1v-.87H67.39l-.285.435A3.676,3.676,0,0,0,66.8,9.217a2.43,2.43,0,0,0-.9-1.05,2.671,2.671,0,0,0-1.477-.383,2.61,2.61,0,0,0-1.545.435,2.665,2.665,0,0,0-.922,1.155,4.127,4.127,0,0,0-.308,1.635,4.253,4.253,0,0,0,.308,1.642A2.59,2.59,0,0,0,62.9,13.83a3.215,3.215,0,0,0,3.292-.038,1.926,1.926,0,0,0,.795-1.117h1.05a2.967,2.967,0,0,1-.63,1.372,3.179,3.179,0,0,1-1.215.892A4.23,4.23,0,0,1,64.51,15.255Zm9.135,0a4.125,4.125,0,0,1-1.77-.352,3.433,3.433,0,0,1-1.23-.945,4.011,4.011,0,0,1-.712-1.327,4.993,4.993,0,0,1-.233-1.515V10.9a4.945,4.945,0,0,1,.233-1.5,3.928,3.928,0,0,1,.712-1.32,3.524,3.524,0,0,1,1.208-.937,3.863,3.863,0,0,1,1.7-.353,3.666,3.666,0,0,1,2.077.555,3.553,3.553,0,0,1,1.253,1.418,4.175,4.175,0,0,1,.42,1.852V11.2h-7.1v-.87h6.315l-.285.435a3.676,3.676,0,0,0-.307-1.553,2.43,2.43,0,0,0-.9-1.05,2.671,2.671,0,0,0-1.478-.383,2.61,2.61,0,0,0-1.545.435,2.665,2.665,0,0,0-.923,1.155,4.127,4.127,0,0,0-.308,1.635,4.253,4.253,0,0,0,.308,1.642,2.59,2.59,0,0,0,.945,1.177,3.215,3.215,0,0,0,3.292-.038,1.926,1.926,0,0,0,.8-1.117h1.05a2.967,2.967,0,0,1-.63,1.372,3.179,3.179,0,0,1-1.215.892A4.23,4.23,0,0,1,73.645,15.255ZM84.865,15,81.67,11.28H80.38l3.765-4.215h1.2L81.97,10.83l.075-.615L86.185,15Zm-5.4,0V4.05H80.59V15Zm14.61.09a3.83,3.83,0,0,1-1.425-.24,1.829,1.829,0,0,1-.93-.818,3.127,3.127,0,0,1-.33-1.553V4.56h1.08v8.085a1.414,1.414,0,0,0,.375,1.057,1.458,1.458,0,0,0,1.065.367h1.425v1.02Zm-4.11-7.17V7.065h5.37V7.92ZM97.51,15V4.05h1.125v6.2l-.33.255a5.3,5.3,0,0,1,.323-1.935A2.734,2.734,0,0,1,99.6,7.282a2.793,2.793,0,0,1,1.643-.457h.06a2.608,2.608,0,0,1,2.183.945,4.15,4.15,0,0,1,.743,2.625V15h-1.11V10.155a2.338,2.338,0,0,0-.585-1.68,2.071,2.071,0,0,0-1.575-.615,2.195,2.195,0,0,0-1.695.682,2.538,2.538,0,0,0-.63,1.792V15Zm12.84.255a4.125,4.125,0,0,1-1.77-.352,3.433,3.433,0,0,1-1.23-.945,4.011,4.011,0,0,1-.712-1.327,4.993,4.993,0,0,1-.233-1.515V10.9a4.945,4.945,0,0,1,.233-1.5,3.928,3.928,0,0,1,.712-1.32,3.524,3.524,0,0,1,1.208-.937,3.863,3.863,0,0,1,1.7-.353,3.666,3.666,0,0,1,2.077.555,3.553,3.553,0,0,1,1.253,1.418,4.175,4.175,0,0,1,.42,1.852V11.2h-7.1v-.87h6.315l-.285.435a3.676,3.676,0,0,0-.307-1.553,2.43,2.43,0,0,0-.9-1.05,2.671,2.671,0,0,0-1.478-.383,2.61,2.61,0,0,0-1.545.435,2.665,2.665,0,0,0-.923,1.155,4.127,4.127,0,0,0-.308,1.635,4.253,4.253,0,0,0,.308,1.642,2.59,2.59,0,0,0,.945,1.177,3.215,3.215,0,0,0,3.292-.038,1.926,1.926,0,0,0,.8-1.117h1.05a2.967,2.967,0,0,1-.63,1.372,3.179,3.179,0,0,1-1.215.892A4.23,4.23,0,0,1,110.35,15.255ZM121.885,15l1.695-7.68h1.575L127.12,15h-.975L124.18,7.365h.36L122.83,15Zm-.645,0v-.915h1.365V15Zm-.27,0-2.3-7.935h1.08L122.02,15Zm5.43,0v-.915h1.335V15Zm.585,0,1.98-7.935H130L127.975,15Zm9.87,0V12.615h-.18V9.8a1.855,1.855,0,0,0-.465-1.358,1.943,1.943,0,0,0-1.44-.473q-.45,0-.908.015t-.87.038q-.413.023-.727.052V7.08l.675-.06q.345-.03.713-.037t.712-.008a5.314,5.314,0,0,1,1.958.3,2.064,2.064,0,0,1,1.087.938,3.547,3.547,0,0,1,.345,1.688V15Zm-2.685.21a3.485,3.485,0,0,1-1.485-.3,2.262,2.262,0,0,1-1-.87,2.574,2.574,0,0,1-.352-1.38,2.391,2.391,0,0,1,.368-1.35,2.3,2.3,0,0,1,1.065-.847,4.359,4.359,0,0,1,1.688-.292h2.325v.855h-2.4a2.078,2.078,0,0,0-1.447.458,1.537,1.537,0,0,0-.5,1.193,1.479,1.479,0,0,0,.525,1.193,2.141,2.141,0,0,0,1.425.442,2.86,2.86,0,0,0,1.065-.2,1.9,1.9,0,0,0,.855-.69,2.444,2.444,0,0,0,.375-1.342l.33.465a3.234,3.234,0,0,1-.42,1.477,2.3,2.3,0,0,1-.975.892A3.249,3.249,0,0,1,134.17,15.21Zm5.67,2.88v-1h1.02a2.809,2.809,0,0,0,.9-.128,1.36,1.36,0,0,0,.63-.443,2.711,2.711,0,0,0,.435-.87l2.67-8.58h1.1l-2.79,8.9a3.342,3.342,0,0,1-.66,1.238,2.42,2.42,0,0,1-1.005.683,3.938,3.938,0,0,1-1.335.21Zm2.58-3.285V13.86h1.425v.945Zm-.135,0-2.88-7.74h1.155l2.775,7.74Zm8.73.42a3.66,3.66,0,0,1-2.355-.668,2.228,2.228,0,0,1-.84-1.793h1.05a1.522,1.522,0,0,0,.518,1.035,2.319,2.319,0,0,0,1.628.465,2.455,2.455,0,0,0,1.6-.443,1.349,1.349,0,0,0,.533-1.073,1.058,1.058,0,0,0-.442-.908,2.655,2.655,0,0,0-1.283-.412l-.9-.09a3.258,3.258,0,0,1-1.747-.668,1.844,1.844,0,0,1-.667-1.508,2.121,2.121,0,0,1,.36-1.23,2.365,2.365,0,0,1,1.012-.818,3.733,3.733,0,0,1,1.538-.293,3.379,3.379,0,0,1,2.077.6,2.045,2.045,0,0,1,.817,1.71h-1.05a1.253,1.253,0,0,0-.48-.96,2.077,2.077,0,0,0-1.365-.39,2.044,2.044,0,0,0-1.388.405,1.273,1.273,0,0,0-.457.99,1.071,1.071,0,0,0,.345.817,1.825,1.825,0,0,0,1.08.4l.9.09a4.016,4.016,0,0,1,1.958.69,1.852,1.852,0,0,1,.757,1.59,2.144,2.144,0,0,1-.4,1.268,2.609,2.609,0,0,1-1.118.877A4.162,4.162,0,0,1,151.015,15.225ZM26.785,34.09a3.83,3.83,0,0,1-1.425-.24,1.829,1.829,0,0,1-.93-.817,3.127,3.127,0,0,1-.33-1.553V23.56h1.08v8.085a1.414,1.414,0,0,0,.375,1.057,1.458,1.458,0,0,0,1.065.368h1.425v1.02Zm-4.11-7.17v-.855h5.37v.855ZM30.22,34V23.05h1.125v6.195l-.33.255a5.3,5.3,0,0,1,.323-1.935,2.734,2.734,0,0,1,.975-1.282,2.793,2.793,0,0,1,1.643-.457h.06a2.608,2.608,0,0,1,2.182.945A4.15,4.15,0,0,1,36.94,29.4V34H35.83V29.155a2.338,2.338,0,0,0-.585-1.68,2.071,2.071,0,0,0-1.575-.615,2.195,2.195,0,0,0-1.695.682,2.538,2.538,0,0,0-.63,1.792V34Zm9.525,0V26.065h.9V29.38h-.09a3.7,3.7,0,0,1,.765-2.573,3.113,3.113,0,0,1,2.4-.833h.255v1.02H43.51a2.68,2.68,0,0,0-1.965.668,2.635,2.635,0,0,0-.675,1.957V34Zm9.495.255a4.279,4.279,0,0,1-1.793-.353,3.914,3.914,0,0,1-1.305-.945,4.244,4.244,0,0,1-1.087-2.828v-.21a4.176,4.176,0,0,1,.285-1.508,4.113,4.113,0,0,1,.825-1.327,4.05,4.05,0,0,1,1.313-.937,4.62,4.62,0,0,1,3.54,0,4.05,4.05,0,0,1,1.313.938,4.008,4.008,0,0,1,.818,1.327,4.276,4.276,0,0,1,.278,1.508v.21a4.319,4.319,0,0,1-.27,1.5,4.07,4.07,0,0,1-.8,1.328,3.9,3.9,0,0,1-1.312.945A4.331,4.331,0,0,1,49.24,34.255Zm0-1.005a3.01,3.01,0,0,0,1.672-.443,2.907,2.907,0,0,0,1.043-1.17,3.789,3.789,0,0,0-.008-3.24,2.839,2.839,0,0,0-1.057-1.155,3.369,3.369,0,0,0-3.285,0A2.839,2.839,0,0,0,46.547,28.4a3.789,3.789,0,0,0-.007,3.24,2.907,2.907,0,0,0,1.042,1.17A2.982,2.982,0,0,0,49.24,33.25Zm9.225.975A2.64,2.64,0,0,1,56.29,33.3a3.972,3.972,0,0,1-.75-2.573V26.05h1.11v4.905A2.362,2.362,0,0,0,57.2,32.6a1.945,1.945,0,0,0,1.523.608,2.13,2.13,0,0,0,1.627-.645,2.413,2.413,0,0,0,.607-1.725V26.05H62.08V34h-.9V30.685h.18a5.11,5.11,0,0,1-.315,1.9A2.579,2.579,0,0,1,60.1,33.8a2.771,2.771,0,0,1-1.59.427ZM68.05,37.1q-.555,0-1.118-.052t-1.072-.128v-.96q.54.075,1.132.127t1.118.053a4.542,4.542,0,0,0,1.815-.3,1.839,1.839,0,0,0,.967-.952,4.245,4.245,0,0,0,.292-1.718v-1.59l.42-1.11a4.239,4.239,0,0,1-.48,1.957,3.153,3.153,0,0,1-1.215,1.253,3.458,3.458,0,0,1-1.74.435,3.527,3.527,0,0,1-2.745-1.237,4.25,4.25,0,0,1-.765-1.312,4.445,4.445,0,0,1-.27-1.545v-.21a4.34,4.34,0,0,1,.27-1.522A4.085,4.085,0,0,1,65.425,27a3.519,3.519,0,0,1,1.208-.885,3.794,3.794,0,0,1,1.582-.323,3.506,3.506,0,0,1,1.83.465,3.268,3.268,0,0,1,1.223,1.29,4.286,4.286,0,0,1,.472,1.935l-.36-.195V26.065h.885V33.13a5.317,5.317,0,0,1-.42,2.295A2.594,2.594,0,0,1,70.5,36.7,6.189,6.189,0,0,1,68.05,37.1Zm.315-4.02a2.941,2.941,0,0,0,1.448-.353,2.622,2.622,0,0,0,1.012-1,2.93,2.93,0,0,0,.375-1.5V29.5a2.67,2.67,0,0,0-.382-1.44,2.7,2.7,0,0,0-1.012-.96,2.949,2.949,0,0,0-1.44-.345,2.714,2.714,0,0,0-1.515.42,2.756,2.756,0,0,0-.99,1.132,3.954,3.954,0,0,0,.007,3.248,2.7,2.7,0,0,0,1,1.125A2.761,2.761,0,0,0,68.365,33.085Zm6.72.915V23.05H76.21v6.195l-.33.255a5.3,5.3,0,0,1,.323-1.935,2.734,2.734,0,0,1,.975-1.282,2.793,2.793,0,0,1,1.643-.457h.06a2.608,2.608,0,0,1,2.183.945,4.15,4.15,0,0,1,.743,2.625V34h-1.11V29.155a2.338,2.338,0,0,0-.585-1.68,2.071,2.071,0,0,0-1.575-.615,2.195,2.195,0,0,0-1.695.682,2.538,2.538,0,0,0-.63,1.792V34Zm15.24,0,1.695-7.68H93.6L95.56,34h-.975L92.62,26.365h.36L91.27,34Zm-.645,0v-.915h1.365V34Zm-.27,0-2.3-7.935h1.08L90.46,34Zm5.43,0v-.915h1.335V34Zm.585,0,1.98-7.935H98.44L96.415,34Zm5.085,0V23.05h1.125v6.195l-.33.255a5.3,5.3,0,0,1,.323-1.935,2.734,2.734,0,0,1,.975-1.282,2.793,2.793,0,0,1,1.643-.457h.06a2.608,2.608,0,0,1,2.183.945,4.15,4.15,0,0,1,.743,2.625V34h-1.11V29.155a2.338,2.338,0,0,0-.585-1.68,2.071,2.071,0,0,0-1.575-.615,2.195,2.195,0,0,0-1.695.682,2.538,2.538,0,0,0-.63,1.792V34Zm9.945,0V26.065h1.11V34Zm-1.275-7.035v-.9h2.385v.9Zm1.515-2.37a.791.791,0,0,1-.607-.218.841.841,0,0,1,0-1.095.791.791,0,0,1,.607-.218.766.766,0,0,1,.6.218.866.866,0,0,1,0,1.095A.766.766,0,0,1,110.695,24.595Zm7.17,9.66a4.037,4.037,0,0,1-1.748-.353,3.516,3.516,0,0,1-1.237-.96,4.263,4.263,0,0,1-.743-1.343,4.626,4.626,0,0,1-.248-1.485V29.9a4.6,4.6,0,0,1,.248-1.493,4.1,4.1,0,0,1,.743-1.32,3.6,3.6,0,0,1,1.237-.945,3.962,3.962,0,0,1,1.718-.353,4.127,4.127,0,0,1,1.762.36,3.178,3.178,0,0,1,1.253,1.02,3.128,3.128,0,0,1,.57,1.56h-1.08a2.232,2.232,0,0,0-.772-1.373,2.571,2.571,0,0,0-1.732-.548,2.707,2.707,0,0,0-1.568.428,2.639,2.639,0,0,0-.937,1.155,4.016,4.016,0,0,0-.315,1.613,4.086,4.086,0,0,0,.315,1.612,2.57,2.57,0,0,0,2.535,1.628,2.937,2.937,0,0,0,1.283-.263,2.358,2.358,0,0,0,.885-.712,1.991,1.991,0,0,0,.4-.99h1.08a2.862,2.862,0,0,1-.562,1.568,3.355,3.355,0,0,1-1.3,1.035A4.2,4.2,0,0,1,117.865,34.255ZM123.58,34V23.05h1.125v6.195l-.33.255a5.3,5.3,0,0,1,.323-1.935,2.734,2.734,0,0,1,.975-1.282,2.793,2.793,0,0,1,1.643-.457h.06a2.608,2.608,0,0,1,2.182.945A4.15,4.15,0,0,1,130.3,29.4V34h-1.11V29.155a2.338,2.338,0,0,0-.585-1.68,2.071,2.071,0,0,0-1.575-.615,2.195,2.195,0,0,0-1.695.682,2.538,2.538,0,0,0-.63,1.792V34Zm15.24,0,1.695-7.68h1.575L144.055,34h-.975l-1.965-7.635h.36L139.765,34Zm-.645,0v-.915h1.365V34Zm-.27,0-2.295-7.935h1.08L138.955,34Zm5.43,0v-.915h1.335V34Zm.585,0,1.98-7.935h1.035L144.91,34Zm8.265.255a4.125,4.125,0,0,1-1.77-.353,3.433,3.433,0,0,1-1.23-.945,4.011,4.011,0,0,1-.713-1.328,4.993,4.993,0,0,1-.232-1.515V29.9a4.945,4.945,0,0,1,.232-1.5,3.928,3.928,0,0,1,.713-1.32,3.524,3.524,0,0,1,1.207-.937,3.863,3.863,0,0,1,1.7-.353,3.666,3.666,0,0,1,2.078.555,3.553,3.553,0,0,1,1.252,1.418,4.175,4.175,0,0,1,.42,1.852V30.2H148.75v-.87h6.315l-.285.435a3.676,3.676,0,0,0-.308-1.553,2.429,2.429,0,0,0-.9-1.05,2.671,2.671,0,0,0-1.478-.382,2.61,2.61,0,0,0-1.545.435,2.665,2.665,0,0,0-.923,1.155,4.127,4.127,0,0,0-.307,1.635,4.253,4.253,0,0,0,.307,1.642,2.59,2.59,0,0,0,.945,1.178,3.215,3.215,0,0,0,3.292-.038,1.926,1.926,0,0,0,.795-1.118h1.05a2.967,2.967,0,0,1-.63,1.373,3.179,3.179,0,0,1-1.215.892A4.23,4.23,0,0,1,152.185,34.255ZM13.57,53V45.065h1.11V53ZM12.3,45.965v-.9H14.68v.9ZM13.81,43.6a.791.791,0,0,1-.608-.218.841.841,0,0,1,0-1.095.791.791,0,0,1,.608-.218.766.766,0,0,1,.6.218.866.866,0,0,1,0,1.095A.766.766,0,0,1,13.81,43.6Zm7.08,9.66a3.794,3.794,0,0,1-1.582-.323,3.659,3.659,0,0,1-1.23-.9,4.12,4.12,0,0,1-.8-1.32,4.483,4.483,0,0,1-.278-1.583v-.21a4.508,4.508,0,0,1,.27-1.552,4.153,4.153,0,0,1,.773-1.32,3.635,3.635,0,0,1,2.813-1.253,3.518,3.518,0,0,1,1.77.435,3.256,3.256,0,0,1,1.23,1.252,4.216,4.216,0,0,1,.495,2l-.495-.93V42.05h1.125V53h-.9V49.475h.36a4.356,4.356,0,0,1-.517,2.093,3.2,3.2,0,0,1-1.275,1.267A3.686,3.686,0,0,1,20.89,53.255Zm.15-.99A2.976,2.976,0,0,0,22.5,51.9a2.6,2.6,0,0,0,1.028-1.028,3.085,3.085,0,0,0,.375-1.537v-.72a2.86,2.86,0,0,0-.375-1.477,2.662,2.662,0,0,0-1.028-1,3.007,3.007,0,0,0-1.477-.36,2.742,2.742,0,0,0-1.538.428,2.811,2.811,0,0,0-1.005,1.162,4.069,4.069,0,0,0,.007,3.33,2.742,2.742,0,0,0,1.02,1.147A2.826,2.826,0,0,0,21.04,52.265Zm10.17.99a4.125,4.125,0,0,1-1.77-.353,3.433,3.433,0,0,1-1.23-.945A4.011,4.011,0,0,1,27.5,50.63a4.993,4.993,0,0,1-.233-1.515V48.9a4.945,4.945,0,0,1,.233-1.5,3.928,3.928,0,0,1,.712-1.32,3.524,3.524,0,0,1,1.208-.937,3.863,3.863,0,0,1,1.7-.353,3.666,3.666,0,0,1,2.078.555,3.553,3.553,0,0,1,1.252,1.418,4.175,4.175,0,0,1,.42,1.852V49.2h-7.1v-.87H34.09l-.285.435a3.676,3.676,0,0,0-.307-1.553,2.429,2.429,0,0,0-.9-1.05,2.671,2.671,0,0,0-1.477-.382,2.61,2.61,0,0,0-1.545.435,2.665,2.665,0,0,0-.923,1.155,4.127,4.127,0,0,0-.307,1.635,4.253,4.253,0,0,0,.307,1.643A2.59,2.59,0,0,0,29.6,51.83a3.215,3.215,0,0,0,3.292-.038,1.926,1.926,0,0,0,.8-1.118h1.05a2.967,2.967,0,0,1-.63,1.373,3.179,3.179,0,0,1-1.215.892A4.23,4.23,0,0,1,31.21,53.255ZM37.03,53V45.065h.9V48.4h-.18a4.959,4.959,0,0,1,.33-1.905,2.641,2.641,0,0,1,.99-1.23,2.966,2.966,0,0,1,1.665-.435h.045a2.665,2.665,0,0,1,2.235.938A4.174,4.174,0,0,1,43.75,48.4V53H42.64V48.155a2.387,2.387,0,0,0-.57-1.665,2.035,2.035,0,0,0-1.59-.63,2.252,2.252,0,0,0-1.687.653,2.352,2.352,0,0,0-.637,1.717V53Zm12.4.09a3.83,3.83,0,0,1-1.425-.24,1.829,1.829,0,0,1-.93-.817,3.127,3.127,0,0,1-.33-1.553V42.56h1.08v8.085A1.414,1.414,0,0,0,48.2,51.7a1.458,1.458,0,0,0,1.065.368h1.425v1.02Zm-4.11-7.17v-.855h5.37v.855ZM53.29,53V45.065H54.4V53Zm-1.275-7.035v-.9H54.4v.9ZM53.53,43.6a.791.791,0,0,1-.608-.218.841.841,0,0,1,0-1.095.791.791,0,0,1,.608-.218.766.766,0,0,1,.6.218.866.866,0,0,1,0,1.095A.766.766,0,0,1,53.53,43.6ZM57.58,53V44.45a2.4,2.4,0,0,1,.645-1.845A2.752,2.752,0,0,1,60.16,42h1.005v.96H59.95a1.3,1.3,0,0,0-.96.33,1.258,1.258,0,0,0-.33.93V53Zm-1.155-7.005v-.87h4.9v.87ZM62.5,56.09V55.085h1.02a2.809,2.809,0,0,0,.9-.127,1.36,1.36,0,0,0,.63-.443,2.711,2.711,0,0,0,.435-.87l2.67-8.58h1.1l-2.79,8.9A3.342,3.342,0,0,1,65.8,55.2a2.42,2.42,0,0,1-1,.683,3.938,3.938,0,0,1-1.335.21Zm2.58-3.285V51.86H66.5v.945Zm-.135,0-2.88-7.74H63.22l2.775,7.74Zm12.645.285a3.83,3.83,0,0,1-1.425-.24,1.829,1.829,0,0,1-.93-.817,3.127,3.127,0,0,1-.33-1.553V42.56h1.08v8.085A1.414,1.414,0,0,0,76.36,51.7a1.458,1.458,0,0,0,1.065.368H78.85v1.02Zm-4.11-7.17v-.855h5.37v.855ZM81.025,53V42.05H82.15v6.195l-.33.255a5.3,5.3,0,0,1,.323-1.935,2.734,2.734,0,0,1,.975-1.282,2.793,2.793,0,0,1,1.643-.458h.06A2.608,2.608,0,0,1,87,45.77a4.15,4.15,0,0,1,.743,2.625V53h-1.11V48.155a2.338,2.338,0,0,0-.585-1.68,2.071,2.071,0,0,0-1.575-.615,2.195,2.195,0,0,0-1.695.682,2.538,2.538,0,0,0-.63,1.792V53Zm12.84.255a4.125,4.125,0,0,1-1.77-.353,3.433,3.433,0,0,1-1.23-.945,4.011,4.011,0,0,1-.712-1.327,4.993,4.993,0,0,1-.233-1.515V48.9a4.945,4.945,0,0,1,.233-1.5,3.928,3.928,0,0,1,.712-1.32,3.524,3.524,0,0,1,1.208-.937,3.863,3.863,0,0,1,1.7-.353,3.666,3.666,0,0,1,2.077.555A3.553,3.553,0,0,1,97.1,46.768a4.175,4.175,0,0,1,.42,1.852V49.2h-7.1v-.87h6.315l-.285.435a3.676,3.676,0,0,0-.307-1.553,2.43,2.43,0,0,0-.9-1.05,2.671,2.671,0,0,0-1.478-.382,2.61,2.61,0,0,0-1.545.435,2.665,2.665,0,0,0-.923,1.155A4.127,4.127,0,0,0,91,49.01a4.253,4.253,0,0,0,.308,1.643,2.59,2.59,0,0,0,.945,1.178,3.215,3.215,0,0,0,3.292-.038,1.926,1.926,0,0,0,.8-1.118h1.05a2.967,2.967,0,0,1-.63,1.373,3.179,3.179,0,0,1-1.215.892A4.23,4.23,0,0,1,93.865,53.255Zm11.82-.03a3.66,3.66,0,0,1-2.355-.667,2.228,2.228,0,0,1-.84-1.792h1.05a1.522,1.522,0,0,0,.517,1.035,2.319,2.319,0,0,0,1.628.465,2.455,2.455,0,0,0,1.6-.443,1.349,1.349,0,0,0,.533-1.072,1.058,1.058,0,0,0-.443-.908,2.655,2.655,0,0,0-1.283-.412l-.9-.09a3.258,3.258,0,0,1-1.748-.667,1.844,1.844,0,0,1-.667-1.507,2.121,2.121,0,0,1,.36-1.23,2.365,2.365,0,0,1,1.012-.818,3.733,3.733,0,0,1,1.537-.292,3.379,3.379,0,0,1,2.077.6,2.045,2.045,0,0,1,.818,1.71h-1.05a1.253,1.253,0,0,0-.48-.96,2.077,2.077,0,0,0-1.365-.39,2.043,2.043,0,0,0-1.387.4,1.273,1.273,0,0,0-.458.99,1.071,1.071,0,0,0,.345.817,1.825,1.825,0,0,0,1.08.4l.9.09a4.016,4.016,0,0,1,1.957.69,1.852,1.852,0,0,1,.757,1.59,2.144,2.144,0,0,1-.4,1.268,2.609,2.609,0,0,1-1.118.877A4.162,4.162,0,0,1,105.685,53.225Zm8.775.03a4.037,4.037,0,0,1-1.748-.353,3.516,3.516,0,0,1-1.237-.96,4.263,4.263,0,0,1-.743-1.343,4.626,4.626,0,0,1-.248-1.485V48.9a4.6,4.6,0,0,1,.248-1.493,4.1,4.1,0,0,1,.743-1.32,3.6,3.6,0,0,1,1.237-.945,3.962,3.962,0,0,1,1.717-.353,4.127,4.127,0,0,1,1.763.36,3.178,3.178,0,0,1,1.253,1.02,3.128,3.128,0,0,1,.57,1.56h-1.08a2.232,2.232,0,0,0-.772-1.373,2.571,2.571,0,0,0-1.733-.548,2.707,2.707,0,0,0-1.567.428,2.639,2.639,0,0,0-.937,1.155,4.016,4.016,0,0,0-.315,1.612,4.086,4.086,0,0,0,.315,1.613,2.57,2.57,0,0,0,2.535,1.627,2.937,2.937,0,0,0,1.282-.263,2.358,2.358,0,0,0,.885-.712,1.991,1.991,0,0,0,.4-.99h1.08a2.862,2.862,0,0,1-.562,1.568,3.355,3.355,0,0,1-1.3,1.035A4.2,4.2,0,0,1,114.46,53.255Zm9.27,0a4.279,4.279,0,0,1-1.793-.353,3.914,3.914,0,0,1-1.305-.945,4.244,4.244,0,0,1-1.088-2.827v-.21a4.176,4.176,0,0,1,.285-1.507,4.113,4.113,0,0,1,.825-1.327,4.05,4.05,0,0,1,1.313-.937,4.62,4.62,0,0,1,3.54,0,4.05,4.05,0,0,1,1.313.938,4.008,4.008,0,0,1,.818,1.327,4.276,4.276,0,0,1,.277,1.507v.21a4.319,4.319,0,0,1-.27,1.5,4.07,4.07,0,0,1-.8,1.327,3.9,3.9,0,0,1-1.312.945A4.331,4.331,0,0,1,123.73,53.255Zm0-1.005a3.01,3.01,0,0,0,1.673-.443,2.907,2.907,0,0,0,1.042-1.17,3.789,3.789,0,0,0-.007-3.24,2.839,2.839,0,0,0-1.057-1.155,3.369,3.369,0,0,0-3.285,0,2.839,2.839,0,0,0-1.058,1.155,3.789,3.789,0,0,0-.007,3.24,2.907,2.907,0,0,0,1.043,1.17A2.982,2.982,0,0,0,123.73,52.25ZM130.21,56V45.065h.9V48.47l-.27.03a4.612,4.612,0,0,1,.517-2.025,3.1,3.1,0,0,1,1.245-1.252,3.862,3.862,0,0,1,3.345-.09,3.677,3.677,0,0,1,1.215.915,4.044,4.044,0,0,1,.765,1.32,4.623,4.623,0,0,1,.262,1.552v.21a4.507,4.507,0,0,1-.27,1.552,4.153,4.153,0,0,1-.772,1.32,3.635,3.635,0,0,1-2.812,1.253,3.572,3.572,0,0,1-1.732-.428,3.268,3.268,0,0,1-1.275-1.267,4.394,4.394,0,0,1-.533-2.07l.54,1.125V56Zm3.975-3.735a2.732,2.732,0,0,0,1.545-.427,2.769,2.769,0,0,0,.99-1.17,3.85,3.85,0,0,0,.345-1.642,3.754,3.754,0,0,0-.352-1.658,2.841,2.841,0,0,0-1-1.155,2.705,2.705,0,0,0-1.53-.428,3.019,3.019,0,0,0-1.47.36,2.67,2.67,0,0,0-1.043,1.013,2.986,2.986,0,0,0-.382,1.537v.735a2.816,2.816,0,0,0,.382,1.478,2.7,2.7,0,0,0,1.043,1A3.019,3.019,0,0,0,134.185,52.265Zm9.6.99a4.125,4.125,0,0,1-1.77-.353,3.433,3.433,0,0,1-1.23-.945,4.011,4.011,0,0,1-.713-1.327,4.993,4.993,0,0,1-.232-1.515V48.9a4.945,4.945,0,0,1,.232-1.5,3.928,3.928,0,0,1,.713-1.32,3.524,3.524,0,0,1,1.207-.937,3.863,3.863,0,0,1,1.7-.353,3.666,3.666,0,0,1,2.077.555,3.553,3.553,0,0,1,1.252,1.418,4.175,4.175,0,0,1,.42,1.852V49.2h-7.1v-.87h6.315l-.285.435a3.676,3.676,0,0,0-.308-1.553,2.429,2.429,0,0,0-.9-1.05,2.671,2.671,0,0,0-1.477-.382,2.61,2.61,0,0,0-1.545.435,2.665,2.665,0,0,0-.923,1.155,4.127,4.127,0,0,0-.307,1.635,4.253,4.253,0,0,0,.307,1.643,2.59,2.59,0,0,0,.945,1.178,3.215,3.215,0,0,0,3.292-.038,1.926,1.926,0,0,0,.795-1.118h1.05a2.967,2.967,0,0,1-.63,1.373,3.179,3.179,0,0,1-1.215.892A4.23,4.23,0,0,1,143.785,53.255Zm12.87,0a4.279,4.279,0,0,1-1.792-.353,3.914,3.914,0,0,1-1.3-.945,4.244,4.244,0,0,1-1.088-2.827v-.21a4.176,4.176,0,0,1,.285-1.507,4.113,4.113,0,0,1,.825-1.327,4.05,4.05,0,0,1,1.313-.937,4.62,4.62,0,0,1,3.54,0,4.05,4.05,0,0,1,1.313.938,4.008,4.008,0,0,1,.817,1.327,4.275,4.275,0,0,1,.278,1.507v.21a4.319,4.319,0,0,1-.27,1.5,4.07,4.07,0,0,1-.8,1.327,3.9,3.9,0,0,1-1.312.945A4.331,4.331,0,0,1,156.655,53.255Zm0-1.005a3.01,3.01,0,0,0,1.673-.443,2.907,2.907,0,0,0,1.043-1.17,3.789,3.789,0,0,0-.008-3.24,2.839,2.839,0,0,0-1.057-1.155,3.369,3.369,0,0,0-3.285,0,2.839,2.839,0,0,0-1.057,1.155,3.789,3.789,0,0,0-.008,3.24A2.907,2.907,0,0,0,155,51.807,2.982,2.982,0,0,0,156.655,52.25Zm6.705.75V44.45A2.4,2.4,0,0,1,164,42.6a2.752,2.752,0,0,1,1.935-.6h1.005v.96H165.73a1.3,1.3,0,0,0-.96.33,1.258,1.258,0,0,0-.33.93V53ZM162.2,45.995v-.87h4.9v.87ZM27.595,72.255a4.125,4.125,0,0,1-1.77-.353,3.433,3.433,0,0,1-1.23-.945,4.011,4.011,0,0,1-.712-1.327,4.993,4.993,0,0,1-.233-1.515V67.9a4.945,4.945,0,0,1,.233-1.5,3.928,3.928,0,0,1,.712-1.32,3.524,3.524,0,0,1,1.208-.937,3.863,3.863,0,0,1,1.7-.353,3.666,3.666,0,0,1,2.077.555,3.553,3.553,0,0,1,1.253,1.418,4.175,4.175,0,0,1,.42,1.853v.585h-7.1v-.87h6.315l-.285.435a3.676,3.676,0,0,0-.307-1.552,2.43,2.43,0,0,0-.9-1.05,2.672,2.672,0,0,0-1.478-.382,2.61,2.61,0,0,0-1.545.435,2.665,2.665,0,0,0-.923,1.155,4.127,4.127,0,0,0-.307,1.635,4.253,4.253,0,0,0,.307,1.642,2.59,2.59,0,0,0,.945,1.178,3.215,3.215,0,0,0,3.292-.037,1.926,1.926,0,0,0,.8-1.118h1.05a2.967,2.967,0,0,1-.63,1.372,3.179,3.179,0,0,1-1.215.893A4.23,4.23,0,0,1,27.595,72.255ZM33.415,72V64.065h.9v3.33h-.18a4.959,4.959,0,0,1,.33-1.9,2.641,2.641,0,0,1,.99-1.23,2.966,2.966,0,0,1,1.665-.435h.045a2.665,2.665,0,0,1,2.235.937,4.174,4.174,0,0,1,.735,2.632V72h-1.11V67.155a2.387,2.387,0,0,0-.57-1.665,2.035,2.035,0,0,0-1.59-.63,2.252,2.252,0,0,0-1.687.652,2.352,2.352,0,0,0-.638,1.717V72Zm9.525,0V61.05h1.125v6.2l-.33.255a5.3,5.3,0,0,1,.322-1.935,2.734,2.734,0,0,1,.975-1.283,2.793,2.793,0,0,1,1.642-.458h.06a2.608,2.608,0,0,1,2.182.945,4.15,4.15,0,0,1,.743,2.625V72H48.55V67.155a2.338,2.338,0,0,0-.585-1.68,2.071,2.071,0,0,0-1.575-.615,2.195,2.195,0,0,0-1.695.682,2.538,2.538,0,0,0-.63,1.793V72Zm14.355,0V69.615h-.18v-2.82a1.855,1.855,0,0,0-.465-1.357,1.943,1.943,0,0,0-1.44-.473q-.45,0-.908.015t-.87.038q-.413.022-.728.052v-.99l.675-.06q.345-.03.713-.037t.713-.007a5.313,5.313,0,0,1,1.957.3,2.064,2.064,0,0,1,1.088.938,3.547,3.547,0,0,1,.345,1.688V72Zm-2.685.21a3.485,3.485,0,0,1-1.485-.3,2.262,2.262,0,0,1-1-.87,2.574,2.574,0,0,1-.353-1.38,2.391,2.391,0,0,1,.368-1.35,2.3,2.3,0,0,1,1.065-.847,4.359,4.359,0,0,1,1.688-.293H57.22v.855h-2.4a2.078,2.078,0,0,0-1.448.457,1.537,1.537,0,0,0-.5,1.193,1.479,1.479,0,0,0,.525,1.192,2.141,2.141,0,0,0,1.425.442,2.86,2.86,0,0,0,1.065-.2,1.9,1.9,0,0,0,.855-.69,2.444,2.444,0,0,0,.375-1.343l.33.465a3.234,3.234,0,0,1-.42,1.478,2.3,2.3,0,0,1-.975.893A3.249,3.249,0,0,1,54.61,72.21ZM61,72V64.065h.9v3.33h-.18a4.959,4.959,0,0,1,.33-1.9,2.641,2.641,0,0,1,.99-1.23,2.966,2.966,0,0,1,1.665-.435h.045a2.665,2.665,0,0,1,2.235.937,4.175,4.175,0,0,1,.735,2.632V72H66.61V67.155a2.387,2.387,0,0,0-.57-1.665,2.035,2.035,0,0,0-1.59-.63,2.252,2.252,0,0,0-1.687.652,2.352,2.352,0,0,0-.637,1.717V72Zm12.87.255a4.037,4.037,0,0,1-1.748-.353,3.516,3.516,0,0,1-1.237-.96,4.263,4.263,0,0,1-.743-1.342,4.626,4.626,0,0,1-.248-1.485V67.9a4.6,4.6,0,0,1,.248-1.493,4.1,4.1,0,0,1,.743-1.32,3.6,3.6,0,0,1,1.237-.945,3.962,3.962,0,0,1,1.717-.353,4.127,4.127,0,0,1,1.763.36,3.178,3.178,0,0,1,1.253,1.02,3.128,3.128,0,0,1,.57,1.56h-1.08a2.232,2.232,0,0,0-.772-1.372,2.571,2.571,0,0,0-1.733-.548,2.707,2.707,0,0,0-1.567.427,2.639,2.639,0,0,0-.937,1.155,4.016,4.016,0,0,0-.315,1.613,4.086,4.086,0,0,0,.315,1.612A2.57,2.57,0,0,0,73.87,71.25a2.937,2.937,0,0,0,1.282-.262,2.358,2.358,0,0,0,.885-.713,1.991,1.991,0,0,0,.4-.99h1.08a2.862,2.862,0,0,1-.562,1.567,3.355,3.355,0,0,1-1.3,1.035A4.2,4.2,0,0,1,73.87,72.255Zm9.03,0a4.125,4.125,0,0,1-1.77-.353,3.433,3.433,0,0,1-1.23-.945,4.011,4.011,0,0,1-.712-1.327,4.993,4.993,0,0,1-.233-1.515V67.9a4.945,4.945,0,0,1,.233-1.5,3.928,3.928,0,0,1,.712-1.32,3.524,3.524,0,0,1,1.208-.937,3.863,3.863,0,0,1,1.7-.353,3.666,3.666,0,0,1,2.077.555,3.553,3.553,0,0,1,1.253,1.418,4.175,4.175,0,0,1,.42,1.853v.585h-7.1v-.87H85.78l-.285.435a3.676,3.676,0,0,0-.307-1.552,2.43,2.43,0,0,0-.9-1.05,2.672,2.672,0,0,0-1.478-.382,2.61,2.61,0,0,0-1.545.435,2.665,2.665,0,0,0-.923,1.155,4.127,4.127,0,0,0-.308,1.635,4.253,4.253,0,0,0,.308,1.642,2.59,2.59,0,0,0,.945,1.178,3.215,3.215,0,0,0,3.292-.037,1.926,1.926,0,0,0,.8-1.118h1.05a2.967,2.967,0,0,1-.63,1.372,3.179,3.179,0,0,1-1.215.893A4.23,4.23,0,0,1,82.9,72.255ZM88.72,72V64.05h.9v3.345h-.18a5.236,5.236,0,0,1,.307-1.89,2.66,2.66,0,0,1,.923-1.237,2.6,2.6,0,0,1,1.56-.443h.045a2.637,2.637,0,0,1,1.56.435,2.569,2.569,0,0,1,.915,1.23,5.4,5.4,0,0,1,.3,1.9h-.36A5.236,5.236,0,0,1,95,65.5a2.483,2.483,0,0,1,2.5-1.68h.045a2.672,2.672,0,0,1,1.567.435,2.594,2.594,0,0,1,.93,1.23,5.283,5.283,0,0,1,.308,1.9V72H99.22V67.14a2.528,2.528,0,0,0-.51-1.665,1.8,1.8,0,0,0-1.47-.615,2.01,2.01,0,0,0-1.567.637,2.461,2.461,0,0,0-.577,1.717V72H93.97V67.14a2.528,2.528,0,0,0-.51-1.665,1.8,1.8,0,0,0-1.47-.615,2.01,2.01,0,0,0-1.567.637,2.461,2.461,0,0,0-.577,1.717V72Zm17.745.255a4.125,4.125,0,0,1-1.77-.353,3.433,3.433,0,0,1-1.23-.945,4.011,4.011,0,0,1-.712-1.327,4.993,4.993,0,0,1-.233-1.515V67.9a4.945,4.945,0,0,1,.233-1.5,3.928,3.928,0,0,1,.712-1.32,3.524,3.524,0,0,1,1.208-.937,3.863,3.863,0,0,1,1.7-.353,3.666,3.666,0,0,1,2.077.555,3.553,3.553,0,0,1,1.253,1.418,4.175,4.175,0,0,1,.42,1.853v.585h-7.1v-.87h6.315l-.285.435a3.676,3.676,0,0,0-.307-1.552,2.43,2.43,0,0,0-.9-1.05,2.672,2.672,0,0,0-1.478-.382,2.61,2.61,0,0,0-1.545.435,2.665,2.665,0,0,0-.923,1.155,4.127,4.127,0,0,0-.308,1.635,4.253,4.253,0,0,0,.308,1.642,2.59,2.59,0,0,0,.945,1.178,3.215,3.215,0,0,0,3.292-.037,1.926,1.926,0,0,0,.8-1.118h1.05a2.967,2.967,0,0,1-.63,1.372,3.179,3.179,0,0,1-1.215.893A4.23,4.23,0,0,1,106.465,72.255Zm5.82-.255V64.065h.9v3.33h-.18a4.959,4.959,0,0,1,.33-1.9,2.641,2.641,0,0,1,.99-1.23,2.966,2.966,0,0,1,1.665-.435h.045a2.665,2.665,0,0,1,2.235.937,4.175,4.175,0,0,1,.735,2.632V72H117.9V67.155a2.387,2.387,0,0,0-.57-1.665,2.035,2.035,0,0,0-1.59-.63,2.252,2.252,0,0,0-1.687.652,2.352,2.352,0,0,0-.637,1.717V72Zm12.4.09a3.83,3.83,0,0,1-1.425-.24,1.829,1.829,0,0,1-.93-.817,3.127,3.127,0,0,1-.33-1.552V61.56h1.08v8.085a1.415,1.415,0,0,0,.375,1.058,1.458,1.458,0,0,0,1.065.368h1.425v1.02Zm-4.11-7.17v-.855h5.37v.855Zm9.99,7.305a3.66,3.66,0,0,1-2.355-.667,2.228,2.228,0,0,1-.84-1.793h1.05a1.522,1.522,0,0,0,.518,1.035,2.319,2.319,0,0,0,1.628.465,2.455,2.455,0,0,0,1.6-.442,1.349,1.349,0,0,0,.533-1.073,1.058,1.058,0,0,0-.442-.908,2.655,2.655,0,0,0-1.283-.412l-.9-.09a3.258,3.258,0,0,1-1.747-.667,1.844,1.844,0,0,1-.667-1.507,2.121,2.121,0,0,1,.36-1.23,2.365,2.365,0,0,1,1.012-.817,3.733,3.733,0,0,1,1.538-.292,3.379,3.379,0,0,1,2.077.6,2.045,2.045,0,0,1,.817,1.71h-1.05a1.253,1.253,0,0,0-.48-.96,2.077,2.077,0,0,0-1.365-.39,2.044,2.044,0,0,0-1.388.405,1.273,1.273,0,0,0-.457.99,1.071,1.071,0,0,0,.345.817,1.825,1.825,0,0,0,1.08.4l.9.09a4.016,4.016,0,0,1,1.958.69,1.852,1.852,0,0,1,.757,1.59,2.144,2.144,0,0,1-.4,1.268,2.609,2.609,0,0,1-1.118.878A4.162,4.162,0,0,1,130.57,72.225Zm13.02.03a3.547,3.547,0,0,1-1.838-.465,3.227,3.227,0,0,1-1.23-1.305,4.353,4.353,0,0,1-.473-1.935h.345V72h-.9V61.05h1.125v5.475l-.435,1a4.4,4.4,0,0,1,.488-2.033,3.163,3.163,0,0,1,1.23-1.267,3.529,3.529,0,0,1,1.762-.435,3.618,3.618,0,0,1,2.783,1.23,3.958,3.958,0,0,1,.765,1.313,4.668,4.668,0,0,1,.262,1.567v.21a4.507,4.507,0,0,1-.27,1.553A4.245,4.245,0,0,1,146.433,71a3.61,3.61,0,0,1-1.223.923A3.772,3.772,0,0,1,143.59,72.255Zm-.12-.99a2.7,2.7,0,0,0,1.545-.435,2.83,2.83,0,0,0,.99-1.17,3.837,3.837,0,0,0,.345-1.65A3.754,3.754,0,0,0,146,66.353a2.7,2.7,0,0,0-2.528-1.568,3.019,3.019,0,0,0-1.47.36,2.67,2.67,0,0,0-1.043,1.013,2.986,2.986,0,0,0-.382,1.537v.735a2.816,2.816,0,0,0,.382,1.478,2.7,2.7,0,0,0,1.043,1A3.019,3.019,0,0,0,143.47,71.265Zm5.445,3.825v-1h1.02a2.809,2.809,0,0,0,.9-.128,1.36,1.36,0,0,0,.63-.442,2.711,2.711,0,0,0,.435-.87l2.67-8.58h1.1l-2.79,8.895a3.342,3.342,0,0,1-.66,1.238,2.42,2.42,0,0,1-1.005.682,3.938,3.938,0,0,1-1.335.21Zm2.58-3.285V70.86h1.425v.945Zm-.135,0-2.88-7.74h1.155l2.775,7.74ZM9,91V83.065h1.11V91ZM7.727,83.965v-.9h2.385v.9ZM9.242,81.6a.791.791,0,0,1-.608-.217.841.841,0,0,1,0-1.1.791.791,0,0,1,.608-.217.766.766,0,0,1,.6.217.866.866,0,0,1,0,1.1A.766.766,0,0,1,9.242,81.6Zm6.705,9.495a3.83,3.83,0,0,1-1.425-.24,1.829,1.829,0,0,1-.93-.817,3.127,3.127,0,0,1-.33-1.552V80.56h1.08v8.085a1.415,1.415,0,0,0,.375,1.058,1.458,1.458,0,0,0,1.065.368h1.425v1.02Zm-4.11-7.17v-.855h5.37v.855Zm10.785,7.335a4.125,4.125,0,0,1-1.77-.353,3.433,3.433,0,0,1-1.23-.945,4.011,4.011,0,0,1-.712-1.327,4.993,4.993,0,0,1-.233-1.515V86.9a4.945,4.945,0,0,1,.233-1.5,3.928,3.928,0,0,1,.712-1.32,3.524,3.524,0,0,1,1.208-.937,3.863,3.863,0,0,1,1.7-.353,3.666,3.666,0,0,1,2.077.555,3.553,3.553,0,0,1,1.253,1.418,4.175,4.175,0,0,1,.42,1.853v.585H19.187v-.87H25.5l-.285.435a3.676,3.676,0,0,0-.307-1.552,2.43,2.43,0,0,0-.9-1.05,2.672,2.672,0,0,0-1.477-.382,2.61,2.61,0,0,0-1.545.435,2.665,2.665,0,0,0-.923,1.155,4.127,4.127,0,0,0-.307,1.635,4.253,4.253,0,0,0,.307,1.642,2.59,2.59,0,0,0,.945,1.178,2.8,2.8,0,0,0,1.613.435,2.774,2.774,0,0,0,1.68-.472,1.926,1.926,0,0,0,.8-1.118h1.05a2.967,2.967,0,0,1-.63,1.372,3.179,3.179,0,0,1-1.215.893A4.23,4.23,0,0,1,22.622,91.255ZM28.442,91V83.065h.9V86.38h-.09a3.7,3.7,0,0,1,.765-2.572,3.113,3.113,0,0,1,2.4-.833h.255V84h-.465a2.68,2.68,0,0,0-1.965.667,2.635,2.635,0,0,0-.675,1.958V91Zm10.845,0V88.615h-.18v-2.82a1.855,1.855,0,0,0-.465-1.357,1.943,1.943,0,0,0-1.44-.473q-.45,0-.908.015t-.87.038q-.413.022-.728.052v-.99l.675-.06q.345-.03.713-.037t.713-.007a5.313,5.313,0,0,1,1.957.3,2.064,2.064,0,0,1,1.088.938,3.547,3.547,0,0,1,.345,1.688V91Zm-2.685.21a3.485,3.485,0,0,1-1.485-.3,2.262,2.262,0,0,1-1-.87,2.574,2.574,0,0,1-.353-1.38,2.391,2.391,0,0,1,.368-1.35,2.3,2.3,0,0,1,1.065-.847,4.359,4.359,0,0,1,1.688-.293h2.325v.855h-2.4a2.078,2.078,0,0,0-1.448.457,1.537,1.537,0,0,0-.5,1.193,1.479,1.479,0,0,0,.525,1.192,2.141,2.141,0,0,0,1.425.442,2.86,2.86,0,0,0,1.065-.2,1.9,1.9,0,0,0,.855-.69,2.444,2.444,0,0,0,.375-1.343l.33.465a3.234,3.234,0,0,1-.42,1.478,2.3,2.3,0,0,1-.975.893A3.249,3.249,0,0,1,36.6,91.21Zm9.27-.12a3.83,3.83,0,0,1-1.425-.24,1.829,1.829,0,0,1-.93-.817,3.127,3.127,0,0,1-.33-1.552V80.56h1.08v8.085a1.415,1.415,0,0,0,.375,1.058,1.458,1.458,0,0,0,1.065.368h1.425v1.02Zm-4.11-7.17v-.855h5.37v.855ZM49.727,91V83.065h1.11V91Zm-1.275-7.035v-.9h2.385v.9Zm1.515-2.37a.791.791,0,0,1-.608-.217.841.841,0,0,1,0-1.1.791.791,0,0,1,.608-.217.766.766,0,0,1,.6.217.866.866,0,0,1,0,1.1A.766.766,0,0,1,49.967,81.6ZM53.792,91V83.065h.9v3.33h-.18a4.959,4.959,0,0,1,.33-1.9,2.641,2.641,0,0,1,.99-1.23,2.966,2.966,0,0,1,1.665-.435h.045a2.665,2.665,0,0,1,2.235.938,4.175,4.175,0,0,1,.735,2.632V91H59.4V86.155a2.387,2.387,0,0,0-.57-1.665,2.035,2.035,0,0,0-1.59-.63,2.252,2.252,0,0,0-1.687.652,2.352,2.352,0,0,0-.637,1.717V91Zm12.555,3.105q-.555,0-1.118-.053t-1.073-.127v-.96q.54.075,1.132.128t1.118.052a4.542,4.542,0,0,0,1.815-.3,1.839,1.839,0,0,0,.967-.952,4.245,4.245,0,0,0,.293-1.717v-1.59l.42-1.11a4.239,4.239,0,0,1-.48,1.958,3.153,3.153,0,0,1-1.215,1.252,3.457,3.457,0,0,1-1.74.435,3.527,3.527,0,0,1-2.745-1.238,4.25,4.25,0,0,1-.765-1.312,4.445,4.445,0,0,1-.27-1.545v-.21a4.34,4.34,0,0,1,.27-1.523A4.085,4.085,0,0,1,63.722,84a3.519,3.519,0,0,1,1.207-.885,3.794,3.794,0,0,1,1.583-.323,3.506,3.506,0,0,1,1.83.465,3.267,3.267,0,0,1,1.222,1.29,4.286,4.286,0,0,1,.473,1.935l-.36-.195V83.065h.885V90.13a5.316,5.316,0,0,1-.42,2.3A2.594,2.594,0,0,1,68.8,93.7,6.189,6.189,0,0,1,66.347,94.105Zm.315-4.02a2.941,2.941,0,0,0,1.447-.353,2.622,2.622,0,0,0,1.013-1,2.93,2.93,0,0,0,.375-1.5V86.5a2.67,2.67,0,0,0-.382-1.44A2.7,2.7,0,0,0,68.1,84.1a2.949,2.949,0,0,0-1.44-.345,2.714,2.714,0,0,0-1.515.42,2.756,2.756,0,0,0-.99,1.132,3.955,3.955,0,0,0,.007,3.247,2.7,2.7,0,0,0,1,1.125A2.761,2.761,0,0,0,66.662,90.085Zm13.77,1.17A4.279,4.279,0,0,1,78.64,90.9a3.914,3.914,0,0,1-1.305-.945,4.244,4.244,0,0,1-1.088-2.827v-.21a4.176,4.176,0,0,1,.285-1.507,4.113,4.113,0,0,1,.825-1.327,4.05,4.05,0,0,1,1.313-.937,4.62,4.62,0,0,1,3.54,0,4.05,4.05,0,0,1,1.313.938,4.008,4.008,0,0,1,.818,1.327,4.276,4.276,0,0,1,.277,1.507v.21a4.319,4.319,0,0,1-.27,1.5,4.07,4.07,0,0,1-.8,1.327,3.894,3.894,0,0,1-1.312.945A4.331,4.331,0,0,1,80.433,91.255Zm0-1a3.01,3.01,0,0,0,1.673-.442,2.907,2.907,0,0,0,1.042-1.17,3.789,3.789,0,0,0-.007-3.24,2.839,2.839,0,0,0-1.057-1.155,3.369,3.369,0,0,0-3.285,0A2.839,2.839,0,0,0,77.74,85.4a3.789,3.789,0,0,0-.007,3.24,2.907,2.907,0,0,0,1.043,1.17A2.982,2.982,0,0,0,80.433,90.25Zm6.48.75V83.065h.9v3.33h-.18a4.959,4.959,0,0,1,.33-1.9,2.641,2.641,0,0,1,.99-1.23,2.966,2.966,0,0,1,1.665-.435h.045a2.665,2.665,0,0,1,2.235.938,4.175,4.175,0,0,1,.735,2.632V91h-1.11V86.155a2.387,2.387,0,0,0-.57-1.665,2.035,2.035,0,0,0-1.59-.63,2.252,2.252,0,0,0-1.687.652,2.352,2.352,0,0,0-.637,1.717V91Zm15.525.225a3.66,3.66,0,0,1-2.355-.667,2.228,2.228,0,0,1-.84-1.793h1.05a1.522,1.522,0,0,0,.517,1.035,2.319,2.319,0,0,0,1.628.465,2.455,2.455,0,0,0,1.6-.442,1.349,1.349,0,0,0,.533-1.073,1.058,1.058,0,0,0-.443-.908,2.655,2.655,0,0,0-1.283-.412l-.9-.09a3.258,3.258,0,0,1-1.748-.667,1.844,1.844,0,0,1-.667-1.507,2.121,2.121,0,0,1,.36-1.23,2.365,2.365,0,0,1,1.012-.817,3.733,3.733,0,0,1,1.537-.293,3.379,3.379,0,0,1,2.077.6,2.045,2.045,0,0,1,.818,1.71h-1.05a1.253,1.253,0,0,0-.48-.96,2.077,2.077,0,0,0-1.365-.39,2.044,2.044,0,0,0-1.387.405,1.273,1.273,0,0,0-.458.99,1.071,1.071,0,0,0,.345.817,1.825,1.825,0,0,0,1.08.4l.9.09a4.016,4.016,0,0,1,1.957.69,1.852,1.852,0,0,1,.757,1.59,2.144,2.144,0,0,1-.4,1.268,2.609,2.609,0,0,1-1.118.878A4.162,4.162,0,0,1,102.438,91.225Zm8.985.03a4.279,4.279,0,0,1-1.793-.353,3.914,3.914,0,0,1-1.305-.945,4.244,4.244,0,0,1-1.088-2.827v-.21a4.176,4.176,0,0,1,.285-1.507,4.113,4.113,0,0,1,.825-1.327,4.05,4.05,0,0,1,1.313-.937,4.62,4.62,0,0,1,3.54,0,4.05,4.05,0,0,1,1.313.938,4.008,4.008,0,0,1,.818,1.327,4.276,4.276,0,0,1,.277,1.507v.21a4.319,4.319,0,0,1-.27,1.5,4.07,4.07,0,0,1-.8,1.327,3.894,3.894,0,0,1-1.312.945A4.331,4.331,0,0,1,111.423,91.255Zm0-1a3.01,3.01,0,0,0,1.673-.442,2.907,2.907,0,0,0,1.042-1.17,3.789,3.789,0,0,0-.007-3.24,2.839,2.839,0,0,0-1.057-1.155,3.369,3.369,0,0,0-3.285,0A2.839,2.839,0,0,0,108.73,85.4a3.789,3.789,0,0,0-.007,3.24,2.907,2.907,0,0,0,1.043,1.17A2.982,2.982,0,0,0,111.423,90.25Zm6.555.75V80.05H119.1V91Zm-1.155-10.035V80.05h2.28v.915Zm7.935,10.26a2.64,2.64,0,0,1-2.175-.923,3.972,3.972,0,0,1-.75-2.572V83.05h1.11v4.9a2.362,2.362,0,0,0,.548,1.643,1.945,1.945,0,0,0,1.522.607,2.13,2.13,0,0,0,1.627-.645,2.413,2.413,0,0,0,.608-1.725V83.05h1.125V91h-.9V87.685h.18a5.11,5.11,0,0,1-.315,1.9,2.579,2.579,0,0,1-.945,1.215,2.771,2.771,0,0,1-1.59.427Zm9.435-.135a3.83,3.83,0,0,1-1.425-.24,1.829,1.829,0,0,1-.93-.817,3.127,3.127,0,0,1-.33-1.552V80.56h1.08v8.085a1.415,1.415,0,0,0,.375,1.058,1.458,1.458,0,0,0,1.065.368h1.425v1.02Zm-4.11-7.17v-.855h5.37v.855ZM138.048,91V83.065h1.11V91Zm-1.275-7.035v-.9h2.385v.9Zm1.515-2.37a.791.791,0,0,1-.607-.217.841.841,0,0,1,0-1.1.791.791,0,0,1,.607-.217.766.766,0,0,1,.6.217.866.866,0,0,1,0,1.1A.766.766,0,0,1,138.288,81.6Zm7.38,9.66a4.279,4.279,0,0,1-1.792-.353,3.914,3.914,0,0,1-1.3-.945,4.244,4.244,0,0,1-1.088-2.827v-.21a4.176,4.176,0,0,1,.285-1.507,4.113,4.113,0,0,1,.825-1.327,4.05,4.05,0,0,1,1.313-.937,4.62,4.62,0,0,1,3.54,0,4.05,4.05,0,0,1,1.313.938,4.008,4.008,0,0,1,.817,1.327,4.275,4.275,0,0,1,.278,1.507v.21a4.319,4.319,0,0,1-.27,1.5,4.07,4.07,0,0,1-.8,1.327,3.894,3.894,0,0,1-1.312.945A4.331,4.331,0,0,1,145.667,91.255Zm0-1a3.01,3.01,0,0,0,1.673-.442,2.907,2.907,0,0,0,1.043-1.17,3.789,3.789,0,0,0-.008-3.24,2.839,2.839,0,0,0-1.057-1.155,3.369,3.369,0,0,0-3.285,0,2.839,2.839,0,0,0-1.057,1.155,3.789,3.789,0,0,0-.008,3.24,2.907,2.907,0,0,0,1.042,1.17A2.982,2.982,0,0,0,145.667,90.25Zm6.48.75V83.065h.9v3.33h-.18a4.959,4.959,0,0,1,.33-1.9,2.641,2.641,0,0,1,.99-1.23,2.966,2.966,0,0,1,1.665-.435h.045a2.665,2.665,0,0,1,2.235.938,4.174,4.174,0,0,1,.735,2.632V91h-1.11V86.155a2.387,2.387,0,0,0-.57-1.665,2.035,2.035,0,0,0-1.59-.63,2.252,2.252,0,0,0-1.687.652,2.352,2.352,0,0,0-.637,1.717V91Zm12.03.225a3.66,3.66,0,0,1-2.355-.667,2.228,2.228,0,0,1-.84-1.793h1.05a1.522,1.522,0,0,0,.518,1.035,2.319,2.319,0,0,0,1.628.465,2.455,2.455,0,0,0,1.6-.442,1.349,1.349,0,0,0,.533-1.073,1.058,1.058,0,0,0-.442-.908,2.655,2.655,0,0,0-1.283-.412l-.9-.09a3.258,3.258,0,0,1-1.747-.667,1.844,1.844,0,0,1-.667-1.507,2.121,2.121,0,0,1,.36-1.23,2.365,2.365,0,0,1,1.012-.817,3.733,3.733,0,0,1,1.538-.293,3.379,3.379,0,0,1,2.077.6,2.045,2.045,0,0,1,.817,1.71h-1.05a1.253,1.253,0,0,0-.48-.96,2.077,2.077,0,0,0-1.365-.39,2.044,2.044,0,0,0-1.388.405,1.273,1.273,0,0,0-.457.99,1.071,1.071,0,0,0,.345.817,1.825,1.825,0,0,0,1.08.4l.9.09a4.016,4.016,0,0,1,1.958.69,1.852,1.852,0,0,1,.757,1.59,2.144,2.144,0,0,1-.4,1.268,2.609,2.609,0,0,1-1.118.878A4.162,4.162,0,0,1,164.178,91.225ZM169.232,91V89.515h1.41V91Z" transform="translate(3193 4836)" fill="#262626"/>
  </g>
</svg>
