<svg xmlns="http://www.w3.org/2000/svg" width="235" height="357" viewBox="0 0 235 357">
  <g id="Prototype" transform="translate(-3464 -4177)">
    <path id="Path_847" data-name="Path 847" d="M20,0H215a20,20,0,0,1,20,20V337a20,20,0,0,1-20,20H20A20,20,0,0,1,0,337V20A20,20,0,0,1,20,0Z" transform="translate(3464 4177)" fill="#fff"/>
    <path id="Path_849" data-name="Path 849" d="M8.2-17.5a5.638,5.638,0,0,1,4.138,1.65A5.545,5.545,0,0,1,14-11.75a5.556,5.556,0,0,1-1.662,4.088A5.616,5.616,0,0,1,8.2-6H4.625V0H1.75V-17.5Zm0,8.8a2.78,2.78,0,0,0,2.1-.863,3.037,3.037,0,0,0,.825-2.188,3.037,3.037,0,0,0-.825-2.187A2.78,2.78,0,0,0,8.2-14.8H4.625v6.1Zm10.575-1.7a3.824,3.824,0,0,1,3.85-2.325V-9.8a4,4,0,0,0-2.7.738A3.187,3.187,0,0,0,18.775-6.3V0h-2.7V-12.5h2.7ZM29.95.325a6.407,6.407,0,0,1-4.675-1.9A6.312,6.312,0,0,1,23.35-6.25a6.312,6.312,0,0,1,1.925-4.675,6.407,6.407,0,0,1,4.675-1.9,6.4,6.4,0,0,1,4.688,1.9A6.333,6.333,0,0,1,36.55-6.25a6.333,6.333,0,0,1-1.913,4.675A6.4,6.4,0,0,1,29.95.325Zm-2.775-3.75A3.771,3.771,0,0,0,29.95-2.3a3.771,3.771,0,0,0,2.775-1.125A3.831,3.831,0,0,0,33.85-6.25a3.831,3.831,0,0,0-1.125-2.825A3.771,3.771,0,0,0,29.95-10.2a3.771,3.771,0,0,0-2.775,1.125A3.831,3.831,0,0,0,26.05-6.25,3.831,3.831,0,0,0,27.175-3.425ZM45.725-9.9h-3.1v6a1.5,1.5,0,0,0,.35,1.112,1.569,1.569,0,0,0,1.038.375,17.088,17.088,0,0,0,1.712-.013V0q-3.1.375-4.45-.538T39.925-3.9v-6h-2.3v-2.6h2.3v-2.7l2.7-.8v3.5h3.1ZM53.575.325a6.407,6.407,0,0,1-4.675-1.9A6.312,6.312,0,0,1,46.975-6.25,6.312,6.312,0,0,1,48.9-10.925a6.407,6.407,0,0,1,4.675-1.9,6.4,6.4,0,0,1,4.688,1.9A6.333,6.333,0,0,1,60.175-6.25a6.333,6.333,0,0,1-1.913,4.675A6.4,6.4,0,0,1,53.575.325ZM50.8-3.425A3.771,3.771,0,0,0,53.575-2.3,3.771,3.771,0,0,0,56.35-3.425,3.831,3.831,0,0,0,57.475-6.25,3.831,3.831,0,0,0,56.35-9.075,3.771,3.771,0,0,0,53.575-10.2,3.771,3.771,0,0,0,50.8-9.075,3.831,3.831,0,0,0,49.675-6.25,3.831,3.831,0,0,0,50.8-3.425ZM69.35-9.9h-3.1v6a1.5,1.5,0,0,0,.35,1.112,1.569,1.569,0,0,0,1.037.375,17.088,17.088,0,0,0,1.713-.013V0q-3.1.375-4.45-.538T63.55-3.9v-6h-2.3v-2.6h2.3v-2.7l2.7-.8v3.5h3.1Zm11.125-2.6H83.35L78.55.4q-1.8,4.85-6.1,4.6V2.475a2.921,2.921,0,0,0,2.05-.538A4.371,4.371,0,0,0,75.775.025l.125-.25L70.6-12.5h2.95l3.727,9.074Zm11.65-.325a5.862,5.862,0,0,1,4.4,1.913A6.5,6.5,0,0,1,98.35-6.25a6.491,6.491,0,0,1-1.825,4.675,5.88,5.88,0,0,1-4.4,1.9,5.079,5.079,0,0,1-4.375-2.1V5h-2.7V-12.5h2.7v1.8A5.058,5.058,0,0,1,92.125-12.825Zm-3.25,9.438A3.809,3.809,0,0,0,91.7-2.25a3.809,3.809,0,0,0,2.825-1.138A3.9,3.9,0,0,0,95.65-6.25a3.9,3.9,0,0,0-1.125-2.863A3.809,3.809,0,0,0,91.7-10.25a3.809,3.809,0,0,0-2.825,1.138A3.9,3.9,0,0,0,87.75-6.25,3.9,3.9,0,0,0,88.875-3.388ZM102.925-5.1A3.433,3.433,0,0,0,104.3-2.913a4.42,4.42,0,0,0,2.625.763A3.664,3.664,0,0,0,110.15-3.7l2.225,1.3A6.188,6.188,0,0,1,106.9.325a6.684,6.684,0,0,1-4.925-1.863A6.364,6.364,0,0,1,100.1-6.25a6.432,6.432,0,0,1,1.85-4.688,6.362,6.362,0,0,1,4.75-1.887,5.845,5.845,0,0,1,4.513,1.925,6.674,6.674,0,0,1,1.762,4.675,8.352,8.352,0,0,1-.1,1.125ZM102.9-7.3h7.35a3.6,3.6,0,0,0-1.263-2.3,3.636,3.636,0,0,0-2.312-.775,3.8,3.8,0,0,0-2.5.825A3.721,3.721,0,0,0,102.9-7.3Z" transform="translate(3525 4385)" fill="#262626"/>
    <path id="Prototype-2" data-name="Prototype" d="M21.939,88.987.48,31.484q-.061-.082-.116-.17A2.414,2.414,0,0,1,.08,29.426L3.3,16.129,6.052,4.7a6.085,6.085,0,0,1,9.5-3.541l9.659,6.825a2.432,2.432,0,0,1,.348.3l10.726,7.649A2.412,2.412,0,0,1,37.371,17.7l21.48,57.512a18.142,18.142,0,0,1-10.64,23.309l-2.947,1.111A18.137,18.137,0,0,1,21.939,88.987Zm21.6,6.117,2.945-1.11a13.281,13.281,0,0,0,8.431-15L27.393,89.272A13.315,13.315,0,0,0,43.543,95.1Zm-17.635-9.3,27.864-10.4-.679-1.819L25.213,83.946ZM23.9,80.421,51.782,70.082,50.9,67.724,30.526,75.291a1.876,1.876,0,0,1-.3.143,2.047,2.047,0,0,1-.3.08l-6.9,2.564Zm-2.184-5.852,5.423-2.024L12.756,34.017,6.068,32.649Zm8.948-3.34,10.6-3.958L26.8,28.547l-7.086-2.324L16.2,32.512Zm14.13-5.275,4.782-1.785L33.994,22.453l-3.6,4.973ZM13.135,30.232l3.9-7.18a1.881,1.881,0,0,1,2.237-.885l8.274,2.689,3.931-5.439a2.418,2.418,0,0,1,.117-.9L23.421,12.7l-15.7,5.875L5.366,28.66Z" transform="translate(3552 4225)" fill="#8bd9a1"/>
    <path id="Path_848" data-name="Path 848" d="M27.215,15,24.185,4.05h1.17L28.1,14.265l-.525-.3H29.03l-.57.3L30.7,4.53h1.08L29.315,15ZM33.8,15,31.1,4.53h1.11l2.49,9.735-.555-.3H35.63l-.57.3L37.535,4.05h1.14L35.9,15Zm9.825.255a4.125,4.125,0,0,1-1.77-.352,3.433,3.433,0,0,1-1.23-.945,4.012,4.012,0,0,1-.713-1.327,4.994,4.994,0,0,1-.232-1.515V10.9a4.945,4.945,0,0,1,.232-1.5,3.928,3.928,0,0,1,.713-1.32,3.524,3.524,0,0,1,1.208-.937,3.863,3.863,0,0,1,1.7-.353,3.666,3.666,0,0,1,2.077.555,3.553,3.553,0,0,1,1.253,1.418,4.175,4.175,0,0,1,.42,1.852V11.2h-7.1v-.87h6.315l-.285.435a3.676,3.676,0,0,0-.308-1.553,2.429,2.429,0,0,0-.9-1.05,2.671,2.671,0,0,0-1.478-.383,2.61,2.61,0,0,0-1.545.435,2.665,2.665,0,0,0-.922,1.155,4.127,4.127,0,0,0-.308,1.635,4.253,4.253,0,0,0,.308,1.642,2.59,2.59,0,0,0,.945,1.177,3.215,3.215,0,0,0,3.292-.038,1.926,1.926,0,0,0,.795-1.117h1.05a2.967,2.967,0,0,1-.63,1.372,3.179,3.179,0,0,1-1.215.892A4.23,4.23,0,0,1,43.625,15.255ZM55.16,15l1.695-7.68H58.43L60.4,15H59.42L57.455,7.365h.36L56.1,15Zm-.645,0v-.915H55.88V15Zm-.27,0-2.3-7.935h1.08L55.3,15Zm5.43,0v-.915H61.01V15Zm.585,0,1.98-7.935h1.035L61.25,15Zm5.5,0V7.065h1.11V15ZM64.49,7.965v-.9h2.385v.9ZM66,5.595a.791.791,0,0,1-.607-.217.772.772,0,0,1-.2-.547.772.772,0,0,1,.2-.547A.791.791,0,0,1,66,4.065a.766.766,0,0,1,.6.218.789.789,0,0,1,.2.547.789.789,0,0,1-.2.547A.766.766,0,0,1,66,5.595ZM69.9,15V4.05H71.03V15ZM68.75,4.965V4.05h2.28v.915ZM74.015,15V4.05H75.14V15ZM72.86,4.965V4.05h2.28v.915ZM84.8,15.255a3.794,3.794,0,0,1-1.582-.323,3.659,3.659,0,0,1-1.23-.9,4.12,4.12,0,0,1-.795-1.32,4.483,4.483,0,0,1-.278-1.583v-.21a4.507,4.507,0,0,1,.27-1.552,4.153,4.153,0,0,1,.772-1.32A3.635,3.635,0,0,1,84.77,6.795a3.518,3.518,0,0,1,1.77.435,3.256,3.256,0,0,1,1.23,1.253,4.216,4.216,0,0,1,.5,2l-.5-.93V4.05h1.125V15h-.9V11.475h.36a4.356,4.356,0,0,1-.518,2.092,3.2,3.2,0,0,1-1.275,1.267A3.686,3.686,0,0,1,84.8,15.255Zm.15-.99a2.976,2.976,0,0,0,1.463-.36,2.6,2.6,0,0,0,1.027-1.028,3.085,3.085,0,0,0,.375-1.537v-.72a2.86,2.86,0,0,0-.375-1.477,2.662,2.662,0,0,0-1.027-1,3.007,3.007,0,0,0-1.478-.36,2.742,2.742,0,0,0-1.537.428,2.811,2.811,0,0,0-1.005,1.163,3.767,3.767,0,0,0-.353,1.65,3.772,3.772,0,0,0,.36,1.68,2.742,2.742,0,0,0,1.02,1.148A2.826,2.826,0,0,0,84.95,14.265Zm10.17.99a4.125,4.125,0,0,1-1.77-.352,3.433,3.433,0,0,1-1.23-.945,4.011,4.011,0,0,1-.712-1.327,4.993,4.993,0,0,1-.233-1.515V10.9a4.945,4.945,0,0,1,.233-1.5,3.928,3.928,0,0,1,.712-1.32,3.524,3.524,0,0,1,1.208-.937,3.863,3.863,0,0,1,1.7-.353,3.666,3.666,0,0,1,2.077.555A3.553,3.553,0,0,1,98.36,8.767a4.175,4.175,0,0,1,.42,1.852V11.2h-7.1v-.87H98l-.285.435a3.676,3.676,0,0,0-.307-1.553,2.43,2.43,0,0,0-.9-1.05,2.671,2.671,0,0,0-1.478-.383,2.61,2.61,0,0,0-1.545.435,2.665,2.665,0,0,0-.923,1.155,4.127,4.127,0,0,0-.308,1.635,4.253,4.253,0,0,0,.308,1.642,2.59,2.59,0,0,0,.945,1.177,3.215,3.215,0,0,0,3.292-.038,1.926,1.926,0,0,0,.8-1.117h1.05a2.967,2.967,0,0,1-.63,1.372,3.179,3.179,0,0,1-1.215.892A4.23,4.23,0,0,1,95.12,15.255Zm8.325-.03a3.66,3.66,0,0,1-2.355-.668,2.228,2.228,0,0,1-.84-1.793h1.05a1.522,1.522,0,0,0,.517,1.035,2.319,2.319,0,0,0,1.628.465,2.455,2.455,0,0,0,1.6-.443,1.349,1.349,0,0,0,.532-1.073,1.058,1.058,0,0,0-.442-.908,2.655,2.655,0,0,0-1.283-.412l-.9-.09a3.258,3.258,0,0,1-1.747-.668,1.844,1.844,0,0,1-.667-1.508,2.121,2.121,0,0,1,.36-1.23,2.365,2.365,0,0,1,1.012-.818,3.733,3.733,0,0,1,1.537-.293,3.379,3.379,0,0,1,2.077.6,2.045,2.045,0,0,1,.818,1.71h-1.05a1.253,1.253,0,0,0-.48-.96,2.077,2.077,0,0,0-1.365-.39,2.043,2.043,0,0,0-1.387.405,1.273,1.273,0,0,0-.458.99,1.071,1.071,0,0,0,.345.817,1.825,1.825,0,0,0,1.08.4l.9.09a4.016,4.016,0,0,1,1.957.69,1.852,1.852,0,0,1,.757,1.59,2.144,2.144,0,0,1-.4,1.268,2.609,2.609,0,0,1-1.118.877A4.162,4.162,0,0,1,103.445,15.225Zm5.85-.225V7.065h1.11V15ZM108.02,7.965v-.9H110.4v.9Zm1.515-2.37a.791.791,0,0,1-.607-.217.772.772,0,0,1-.2-.547.772.772,0,0,1,.2-.547.791.791,0,0,1,.607-.218.766.766,0,0,1,.6.218.789.789,0,0,1,.2.547.789.789,0,0,1-.2.547A.766.766,0,0,1,109.535,5.595ZM116.39,18.1q-.555,0-1.118-.052t-1.073-.128v-.96q.54.075,1.132.128t1.118.052a4.542,4.542,0,0,0,1.815-.3,1.839,1.839,0,0,0,.967-.952,4.245,4.245,0,0,0,.293-1.717v-1.59l.42-1.11a4.239,4.239,0,0,1-.48,1.957,3.153,3.153,0,0,1-1.215,1.253,3.457,3.457,0,0,1-1.74.435,3.527,3.527,0,0,1-2.745-1.238A4.25,4.25,0,0,1,113,12.57a4.445,4.445,0,0,1-.27-1.545v-.21A4.34,4.34,0,0,1,113,9.292,4.084,4.084,0,0,1,113.765,8a3.519,3.519,0,0,1,1.207-.885,3.794,3.794,0,0,1,1.583-.323,3.506,3.506,0,0,1,1.83.465,3.267,3.267,0,0,1,1.222,1.29,4.286,4.286,0,0,1,.473,1.935l-.36-.195V7.065h.885V14.13a5.317,5.317,0,0,1-.42,2.295,2.594,2.594,0,0,1-1.342,1.275A6.189,6.189,0,0,1,116.39,18.1Zm.315-4.02a2.941,2.941,0,0,0,1.447-.352,2.622,2.622,0,0,0,1.013-1,2.93,2.93,0,0,0,.375-1.5V10.5a2.67,2.67,0,0,0-.382-1.44,2.7,2.7,0,0,0-1.013-.96,2.949,2.949,0,0,0-1.44-.345,2.714,2.714,0,0,0-1.515.42,2.756,2.756,0,0,0-.99,1.132,3.653,3.653,0,0,0-.345,1.613,3.671,3.671,0,0,0,.353,1.635,2.7,2.7,0,0,0,1,1.125A2.761,2.761,0,0,0,116.705,14.085Zm6.72.915V7.065h.9V10.4h-.18a4.959,4.959,0,0,1,.33-1.905,2.641,2.641,0,0,1,.99-1.23,2.966,2.966,0,0,1,1.665-.435h.045a2.665,2.665,0,0,1,2.235.938,4.174,4.174,0,0,1,.735,2.633V15h-1.11V10.155a2.387,2.387,0,0,0-.57-1.665,2.035,2.035,0,0,0-1.59-.63,2.252,2.252,0,0,0-1.687.652,2.352,2.352,0,0,0-.637,1.718V15Zm17.85,0V12.615h-.18V9.8a1.855,1.855,0,0,0-.465-1.358,1.943,1.943,0,0,0-1.44-.473q-.45,0-.908.015t-.87.038q-.413.023-.727.052V7.08l.675-.06q.345-.03.713-.037t.712-.008a5.314,5.314,0,0,1,1.958.3,2.064,2.064,0,0,1,1.087.938,3.547,3.547,0,0,1,.345,1.688V15Zm-2.685.21a3.485,3.485,0,0,1-1.485-.3,2.262,2.262,0,0,1-1-.87,2.574,2.574,0,0,1-.352-1.38,2.391,2.391,0,0,1,.368-1.35,2.3,2.3,0,0,1,1.065-.847,4.359,4.359,0,0,1,1.688-.292H141.2v.855h-2.4a2.078,2.078,0,0,0-1.447.458,1.537,1.537,0,0,0-.5,1.193,1.479,1.479,0,0,0,.525,1.193,2.141,2.141,0,0,0,1.425.442,2.86,2.86,0,0,0,1.065-.2,1.9,1.9,0,0,0,.855-.69,2.444,2.444,0,0,0,.375-1.342l.33.465a3.234,3.234,0,0,1-.42,1.477,2.3,2.3,0,0,1-.975.892A3.249,3.249,0,0,1,138.59,15.21Zm6.39-.21V7.065h.9V10.4h-.18a4.959,4.959,0,0,1,.33-1.905,2.641,2.641,0,0,1,.99-1.23,2.966,2.966,0,0,1,1.665-.435h.045a2.665,2.665,0,0,1,2.235.938A4.174,4.174,0,0,1,151.7,10.4V15h-1.11V10.155a2.387,2.387,0,0,0-.57-1.665,2.035,2.035,0,0,0-1.59-.63,2.252,2.252,0,0,0-1.687.652,2.352,2.352,0,0,0-.637,1.718V15Zm12.78.255a3.794,3.794,0,0,1-1.583-.323,3.659,3.659,0,0,1-1.23-.9,4.12,4.12,0,0,1-.8-1.32,4.483,4.483,0,0,1-.277-1.583v-.21a4.507,4.507,0,0,1,.27-1.552,4.154,4.154,0,0,1,.772-1.32,3.635,3.635,0,0,1,2.813-1.253,3.518,3.518,0,0,1,1.77.435,3.256,3.256,0,0,1,1.23,1.253,4.216,4.216,0,0,1,.495,2l-.495-.93V4.05h1.125V15h-.9V11.475h.36a4.356,4.356,0,0,1-.518,2.092,3.2,3.2,0,0,1-1.275,1.267A3.686,3.686,0,0,1,157.76,15.255Zm.15-.99a2.976,2.976,0,0,0,1.462-.36,2.6,2.6,0,0,0,1.028-1.028,3.085,3.085,0,0,0,.375-1.537v-.72a2.86,2.86,0,0,0-.375-1.477,2.662,2.662,0,0,0-1.028-1,3.007,3.007,0,0,0-1.477-.36,2.742,2.742,0,0,0-1.538.428,2.811,2.811,0,0,0-1,1.163,3.767,3.767,0,0,0-.353,1.65,3.771,3.771,0,0,0,.36,1.68,2.742,2.742,0,0,0,1.02,1.148A2.826,2.826,0,0,0,157.91,14.265ZM21.253,34.255a4.037,4.037,0,0,1-1.747-.353,3.516,3.516,0,0,1-1.237-.96,4.263,4.263,0,0,1-.743-1.343,4.626,4.626,0,0,1-.247-1.485V29.9a4.6,4.6,0,0,1,.247-1.493,4.1,4.1,0,0,1,.743-1.32,3.6,3.6,0,0,1,1.237-.945,3.962,3.962,0,0,1,1.718-.353,4.127,4.127,0,0,1,1.763.36,3.178,3.178,0,0,1,1.252,1.02,3.128,3.128,0,0,1,.57,1.56h-1.08a2.232,2.232,0,0,0-.772-1.373,2.571,2.571,0,0,0-1.733-.548,2.707,2.707,0,0,0-1.568.428,2.639,2.639,0,0,0-.937,1.155A4.016,4.016,0,0,0,18.4,30.01a4.086,4.086,0,0,0,.315,1.612,2.57,2.57,0,0,0,2.535,1.628,2.937,2.937,0,0,0,1.283-.263,2.358,2.358,0,0,0,.885-.712,1.991,1.991,0,0,0,.4-.99H24.9a2.862,2.862,0,0,1-.562,1.568,3.355,3.355,0,0,1-1.3,1.035A4.2,4.2,0,0,1,21.253,34.255ZM26.968,34V26.065h.9V29.38h-.09a3.7,3.7,0,0,1,.765-2.573,3.113,3.113,0,0,1,2.4-.833H31.2v1.02h-.465a2.68,2.68,0,0,0-1.965.668,2.635,2.635,0,0,0-.675,1.957V34Zm9.255.255a4.125,4.125,0,0,1-1.77-.353,3.433,3.433,0,0,1-1.23-.945,4.012,4.012,0,0,1-.713-1.328,4.993,4.993,0,0,1-.232-1.515V29.9a4.945,4.945,0,0,1,.232-1.5,3.928,3.928,0,0,1,.713-1.32,3.524,3.524,0,0,1,1.208-.937,3.863,3.863,0,0,1,1.7-.353,3.666,3.666,0,0,1,2.077.555,3.553,3.553,0,0,1,1.253,1.418,4.175,4.175,0,0,1,.42,1.852V30.2h-7.1v-.87H39.1l-.285.435a3.676,3.676,0,0,0-.308-1.553,2.429,2.429,0,0,0-.9-1.05,2.671,2.671,0,0,0-1.478-.382,2.61,2.61,0,0,0-1.545.435,2.665,2.665,0,0,0-.922,1.155,4.127,4.127,0,0,0-.308,1.635,4.253,4.253,0,0,0,.308,1.642,2.59,2.59,0,0,0,.945,1.178,3.215,3.215,0,0,0,3.292-.038,1.926,1.926,0,0,0,.795-1.118h1.05a2.967,2.967,0,0,1-.63,1.373,3.179,3.179,0,0,1-1.215.892A4.23,4.23,0,0,1,36.223,34.255ZM46.873,34V31.615h-.18V28.8a1.855,1.855,0,0,0-.465-1.358,1.943,1.943,0,0,0-1.44-.472q-.45,0-.908.015t-.87.038q-.413.023-.728.052v-.99l.675-.06q.345-.03.713-.038t.713-.008a5.314,5.314,0,0,1,1.957.3,2.064,2.064,0,0,1,1.088.938,3.547,3.547,0,0,1,.345,1.688V34Zm-2.685.21a3.485,3.485,0,0,1-1.485-.3,2.262,2.262,0,0,1-1-.87,2.574,2.574,0,0,1-.353-1.38,2.391,2.391,0,0,1,.368-1.35,2.3,2.3,0,0,1,1.065-.847,4.359,4.359,0,0,1,1.688-.292H46.8v.855H44.4a2.078,2.078,0,0,0-1.448.458,1.537,1.537,0,0,0-.5,1.192,1.479,1.479,0,0,0,.525,1.193,2.141,2.141,0,0,0,1.425.443,2.86,2.86,0,0,0,1.065-.2,1.894,1.894,0,0,0,.855-.69,2.444,2.444,0,0,0,.375-1.342l.33.465a3.234,3.234,0,0,1-.42,1.478,2.3,2.3,0,0,1-.975.892A3.249,3.249,0,0,1,44.188,34.21Zm9.27-.12a3.83,3.83,0,0,1-1.425-.24,1.829,1.829,0,0,1-.93-.817,3.127,3.127,0,0,1-.33-1.553V23.56h1.08v8.085a1.414,1.414,0,0,0,.375,1.057,1.458,1.458,0,0,0,1.065.368h1.425v1.02Zm-4.11-7.17v-.855h5.37v.855Zm10.785,7.335a4.125,4.125,0,0,1-1.77-.353,3.433,3.433,0,0,1-1.23-.945,4.012,4.012,0,0,1-.713-1.328,4.993,4.993,0,0,1-.232-1.515V29.9a4.945,4.945,0,0,1,.232-1.5,3.928,3.928,0,0,1,.713-1.32,3.524,3.524,0,0,1,1.208-.937,3.863,3.863,0,0,1,1.7-.353,3.666,3.666,0,0,1,2.077.555,3.553,3.553,0,0,1,1.253,1.418,4.175,4.175,0,0,1,.42,1.852V30.2H56.7v-.87h6.315l-.285.435a3.676,3.676,0,0,0-.308-1.553,2.429,2.429,0,0,0-.9-1.05,2.671,2.671,0,0,0-1.478-.382,2.61,2.61,0,0,0-1.545.435,2.665,2.665,0,0,0-.922,1.155,4.127,4.127,0,0,0-.308,1.635,4.253,4.253,0,0,0,.308,1.642,2.59,2.59,0,0,0,.945,1.178,3.215,3.215,0,0,0,3.292-.038,1.926,1.926,0,0,0,.795-1.118h1.05a2.967,2.967,0,0,1-.63,1.373,3.179,3.179,0,0,1-1.215.892A4.23,4.23,0,0,1,60.133,34.255ZM74.278,34V31.615H74.1V28.8a1.855,1.855,0,0,0-.465-1.358,1.943,1.943,0,0,0-1.44-.472q-.45,0-.907.015t-.87.038q-.413.023-.728.052v-.99l.675-.06q.345-.03.712-.038t.713-.008a5.314,5.314,0,0,1,1.958.3,2.064,2.064,0,0,1,1.088.938,3.547,3.547,0,0,1,.345,1.688V34Zm-2.685.21a3.485,3.485,0,0,1-1.485-.3,2.262,2.262,0,0,1-1-.87,2.574,2.574,0,0,1-.353-1.38,2.391,2.391,0,0,1,.368-1.35,2.3,2.3,0,0,1,1.065-.847,4.359,4.359,0,0,1,1.688-.292H74.2v.855H71.8a2.078,2.078,0,0,0-1.447.458,1.537,1.537,0,0,0-.5,1.192,1.479,1.479,0,0,0,.525,1.193,2.141,2.141,0,0,0,1.425.443,2.86,2.86,0,0,0,1.065-.2,1.894,1.894,0,0,0,.855-.69,2.444,2.444,0,0,0,.375-1.342l.33.465a3.234,3.234,0,0,1-.42,1.478,2.3,2.3,0,0,1-.975.892A3.249,3.249,0,0,1,71.593,34.21Zm6.39-.21V26.065h.9V29.4H78.7a4.959,4.959,0,0,1,.33-1.905,2.641,2.641,0,0,1,.99-1.23,2.966,2.966,0,0,1,1.665-.435h.045a2.665,2.665,0,0,1,2.235.938A4.174,4.174,0,0,1,84.7,29.4V34h-1.11V29.155a2.387,2.387,0,0,0-.57-1.665,2.035,2.035,0,0,0-1.59-.63,2.252,2.252,0,0,0-1.687.652,2.352,2.352,0,0,0-.637,1.718V34Zm13.44,0V26.065h1.11V34Zm-1.275-7.035v-.9h2.385v.9Zm1.515-2.37a.791.791,0,0,1-.607-.218.841.841,0,0,1,0-1.095.791.791,0,0,1,.607-.218.766.766,0,0,1,.6.218.866.866,0,0,1,0,1.095A.766.766,0,0,1,91.663,24.595ZM95.488,34V26.065h.9V29.4h-.18a4.959,4.959,0,0,1,.33-1.905,2.641,2.641,0,0,1,.99-1.23,2.966,2.966,0,0,1,1.665-.435h.045a2.665,2.665,0,0,1,2.235.938,4.174,4.174,0,0,1,.735,2.632V34H101.1V29.155a2.387,2.387,0,0,0-.57-1.665,2.035,2.035,0,0,0-1.59-.63,2.252,2.252,0,0,0-1.687.652,2.352,2.352,0,0,0-.637,1.718V34Zm12.4.09a3.83,3.83,0,0,1-1.425-.24,1.829,1.829,0,0,1-.93-.817,3.127,3.127,0,0,1-.33-1.553V23.56h1.08v8.085a1.414,1.414,0,0,0,.375,1.057,1.458,1.458,0,0,0,1.065.368h1.425v1.02Zm-4.11-7.17v-.855h5.37v.855Zm10.785,7.335a4.125,4.125,0,0,1-1.77-.353,3.433,3.433,0,0,1-1.23-.945,4.011,4.011,0,0,1-.712-1.328,4.993,4.993,0,0,1-.233-1.515V29.9a4.945,4.945,0,0,1,.233-1.5,3.928,3.928,0,0,1,.712-1.32,3.524,3.524,0,0,1,1.208-.937,3.863,3.863,0,0,1,1.7-.353,3.666,3.666,0,0,1,2.077.555,3.553,3.553,0,0,1,1.253,1.418,4.175,4.175,0,0,1,.42,1.852V30.2h-7.1v-.87h6.315l-.285.435a3.676,3.676,0,0,0-.307-1.553,2.43,2.43,0,0,0-.9-1.05,2.671,2.671,0,0,0-1.478-.382,2.61,2.61,0,0,0-1.545.435,2.665,2.665,0,0,0-.923,1.155,4.127,4.127,0,0,0-.308,1.635,4.253,4.253,0,0,0,.308,1.642,2.59,2.59,0,0,0,.945,1.178,3.215,3.215,0,0,0,3.292-.038,1.926,1.926,0,0,0,.8-1.118h1.05a2.967,2.967,0,0,1-.63,1.373,3.179,3.179,0,0,1-1.215.892A4.23,4.23,0,0,1,114.568,34.255Zm5.82-.255V26.065h.9V29.38h-.09a3.7,3.7,0,0,1,.765-2.573,3.113,3.113,0,0,1,2.4-.833h.255v1.02h-.465a2.68,2.68,0,0,0-1.965.668,2.635,2.635,0,0,0-.675,1.957V34Zm10.845,0V31.615h-.18V28.8a1.855,1.855,0,0,0-.465-1.358,1.943,1.943,0,0,0-1.44-.472q-.45,0-.908.015t-.87.038q-.413.023-.728.052v-.99l.675-.06q.345-.03.713-.038t.712-.008a5.314,5.314,0,0,1,1.958.3,2.064,2.064,0,0,1,1.087.938,3.547,3.547,0,0,1,.345,1.688V34Zm-2.685.21a3.485,3.485,0,0,1-1.485-.3,2.262,2.262,0,0,1-1-.87,2.574,2.574,0,0,1-.353-1.38,2.391,2.391,0,0,1,.368-1.35,2.3,2.3,0,0,1,1.065-.847,4.359,4.359,0,0,1,1.687-.292h2.325v.855h-2.4a2.078,2.078,0,0,0-1.447.458,1.537,1.537,0,0,0-.5,1.192,1.479,1.479,0,0,0,.525,1.193,2.141,2.141,0,0,0,1.425.443,2.86,2.86,0,0,0,1.065-.2,1.894,1.894,0,0,0,.855-.69,2.444,2.444,0,0,0,.375-1.342l.33.465a3.234,3.234,0,0,1-.42,1.478,2.3,2.3,0,0,1-.975.892A3.249,3.249,0,0,1,128.548,34.21Zm9.735.045a4.037,4.037,0,0,1-1.747-.353,3.516,3.516,0,0,1-1.238-.96,4.264,4.264,0,0,1-.743-1.343,4.626,4.626,0,0,1-.247-1.485V29.9a4.6,4.6,0,0,1,.247-1.493,4.1,4.1,0,0,1,.743-1.32,3.6,3.6,0,0,1,1.238-.945,3.962,3.962,0,0,1,1.717-.353,4.127,4.127,0,0,1,1.762.36,3.178,3.178,0,0,1,1.253,1.02,3.128,3.128,0,0,1,.57,1.56h-1.08a2.232,2.232,0,0,0-.772-1.373,2.571,2.571,0,0,0-1.732-.548,2.707,2.707,0,0,0-1.568.428,2.639,2.639,0,0,0-.937,1.155,4.016,4.016,0,0,0-.315,1.613,4.086,4.086,0,0,0,.315,1.612,2.57,2.57,0,0,0,2.535,1.628,2.937,2.937,0,0,0,1.283-.263,2.358,2.358,0,0,0,.885-.712,1.992,1.992,0,0,0,.4-.99h1.08a2.862,2.862,0,0,1-.562,1.568,3.355,3.355,0,0,1-1.3,1.035A4.205,4.205,0,0,1,138.283,34.255Zm8.6-.165a3.83,3.83,0,0,1-1.425-.24,1.829,1.829,0,0,1-.93-.817,3.127,3.127,0,0,1-.33-1.553V23.56h1.08v8.085a1.414,1.414,0,0,0,.375,1.057,1.458,1.458,0,0,0,1.065.368h1.425v1.02Zm-4.11-7.17v-.855h5.37v.855ZM150.733,34V26.065h1.11V34Zm-1.275-7.035v-.9h2.385v.9Zm1.515-2.37a.791.791,0,0,1-.607-.218.841.841,0,0,1,0-1.095.791.791,0,0,1,.607-.218.766.766,0,0,1,.6.218.866.866,0,0,1,0,1.095A.766.766,0,0,1,150.973,24.595ZM156.568,34l-2.79-7.935h1.155L157.693,34Zm.3,0v-.915h1.425V34Zm.615,0,2.415-7.935h1.11L158.548,34Zm8.7.255a4.125,4.125,0,0,1-1.77-.353,3.433,3.433,0,0,1-1.23-.945,4.011,4.011,0,0,1-.713-1.328,4.993,4.993,0,0,1-.232-1.515V29.9a4.945,4.945,0,0,1,.232-1.5,3.928,3.928,0,0,1,.713-1.32,3.524,3.524,0,0,1,1.207-.937,3.863,3.863,0,0,1,1.7-.353,3.666,3.666,0,0,1,2.078.555,3.553,3.553,0,0,1,1.252,1.418,4.175,4.175,0,0,1,.42,1.852V30.2h-7.095v-.87h6.315l-.285.435a3.676,3.676,0,0,0-.308-1.553,2.429,2.429,0,0,0-.9-1.05,2.671,2.671,0,0,0-1.478-.382,2.61,2.61,0,0,0-1.545.435,2.665,2.665,0,0,0-.923,1.155,4.127,4.127,0,0,0-.307,1.635,4.253,4.253,0,0,0,.307,1.642,2.59,2.59,0,0,0,.945,1.178,3.215,3.215,0,0,0,3.292-.038,1.926,1.926,0,0,0,.795-1.118h1.05a2.967,2.967,0,0,1-.63,1.373,3.179,3.179,0,0,1-1.215.892A4.23,4.23,0,0,1,166.183,34.255ZM54.958,56V45.065h.9V48.47l-.27.03a4.612,4.612,0,0,1,.518-2.025,3.1,3.1,0,0,1,1.245-1.252,3.862,3.862,0,0,1,3.345-.09,3.677,3.677,0,0,1,1.215.915,4.044,4.044,0,0,1,.765,1.32,4.623,4.623,0,0,1,.263,1.552v.21a4.507,4.507,0,0,1-.27,1.552A4.153,4.153,0,0,1,61.9,52a3.635,3.635,0,0,1-2.813,1.253,3.572,3.572,0,0,1-1.732-.428,3.268,3.268,0,0,1-1.275-1.267,4.394,4.394,0,0,1-.532-2.07l.54,1.125V56Zm3.975-3.735a2.732,2.732,0,0,0,1.545-.427,2.769,2.769,0,0,0,.99-1.17,3.85,3.85,0,0,0,.345-1.642,3.754,3.754,0,0,0-.353-1.658,2.841,2.841,0,0,0-1-1.155,2.705,2.705,0,0,0-1.53-.428,3.019,3.019,0,0,0-1.47.36,2.67,2.67,0,0,0-1.042,1.013,2.986,2.986,0,0,0-.382,1.537v.735a2.816,2.816,0,0,0,.382,1.478,2.7,2.7,0,0,0,1.042,1A3.019,3.019,0,0,0,58.932,52.265ZM65.217,53V45.065h.9V48.38h-.09a3.7,3.7,0,0,1,.765-2.573,3.113,3.113,0,0,1,2.4-.833h.255v1.02h-.465a2.68,2.68,0,0,0-1.965.667,2.635,2.635,0,0,0-.675,1.958V53Zm9.5.255A4.279,4.279,0,0,1,72.92,52.9a3.914,3.914,0,0,1-1.305-.945,4.244,4.244,0,0,1-1.088-2.827v-.21a4.176,4.176,0,0,1,.285-1.507,4.113,4.113,0,0,1,.825-1.327,4.05,4.05,0,0,1,1.313-.937,4.62,4.62,0,0,1,3.54,0,4.05,4.05,0,0,1,1.313.938,4.008,4.008,0,0,1,.818,1.327A4.276,4.276,0,0,1,78.9,48.92v.21a4.319,4.319,0,0,1-.27,1.5,4.07,4.07,0,0,1-.8,1.327,3.9,3.9,0,0,1-1.312.945A4.331,4.331,0,0,1,74.713,53.255Zm0-1.005a3.01,3.01,0,0,0,1.673-.443,2.907,2.907,0,0,0,1.042-1.17,3.789,3.789,0,0,0-.007-3.24,2.839,2.839,0,0,0-1.057-1.155,3.369,3.369,0,0,0-3.285,0A2.839,2.839,0,0,0,72.02,47.4a3.789,3.789,0,0,0-.007,3.24,2.907,2.907,0,0,0,1.043,1.17A2.982,2.982,0,0,0,74.713,52.25Zm9.36.84a3.83,3.83,0,0,1-1.425-.24,1.829,1.829,0,0,1-.93-.817,3.127,3.127,0,0,1-.33-1.553V42.56h1.08v8.085a1.414,1.414,0,0,0,.375,1.057,1.458,1.458,0,0,0,1.065.368h1.425v1.02Zm-4.11-7.17v-.855h5.37v.855Zm11.025,7.335a4.279,4.279,0,0,1-1.793-.353,3.914,3.914,0,0,1-1.305-.945A4.244,4.244,0,0,1,86.8,49.13v-.21a4.176,4.176,0,0,1,.285-1.507,4.113,4.113,0,0,1,.825-1.327,4.05,4.05,0,0,1,1.313-.937,4.62,4.62,0,0,1,3.54,0,4.05,4.05,0,0,1,1.313.938,4.008,4.008,0,0,1,.818,1.327,4.276,4.276,0,0,1,.277,1.507v.21a4.319,4.319,0,0,1-.27,1.5,4.07,4.07,0,0,1-.8,1.327,3.9,3.9,0,0,1-1.312.945A4.331,4.331,0,0,1,90.987,53.255Zm0-1.005a3.01,3.01,0,0,0,1.673-.443,2.907,2.907,0,0,0,1.042-1.17,3.789,3.789,0,0,0-.007-3.24,2.839,2.839,0,0,0-1.057-1.155,3.369,3.369,0,0,0-3.285,0A2.839,2.839,0,0,0,88.295,47.4a3.789,3.789,0,0,0-.007,3.24,2.907,2.907,0,0,0,1.043,1.17A2.982,2.982,0,0,0,90.987,52.25Zm9.36.84a3.83,3.83,0,0,1-1.425-.24,1.829,1.829,0,0,1-.93-.817,3.127,3.127,0,0,1-.33-1.553V42.56h1.08v8.085a1.414,1.414,0,0,0,.375,1.057,1.458,1.458,0,0,0,1.065.368h1.425v1.02Zm-4.11-7.17v-.855h5.37v.855Zm6.84,10.17V55.085h1.02a2.809,2.809,0,0,0,.9-.127,1.36,1.36,0,0,0,.63-.443,2.711,2.711,0,0,0,.435-.87l2.67-8.58h1.1l-2.79,8.9a3.342,3.342,0,0,1-.66,1.237,2.42,2.42,0,0,1-1.005.683,3.938,3.938,0,0,1-1.335.21Zm2.58-3.285V51.86h1.425v.945Zm-.135,0-2.88-7.74H103.8l2.775,7.74ZM111.792,56V45.065h.9V48.47l-.27.03a4.612,4.612,0,0,1,.518-2.025,3.1,3.1,0,0,1,1.245-1.252,3.862,3.862,0,0,1,3.345-.09,3.677,3.677,0,0,1,1.215.915,4.044,4.044,0,0,1,.765,1.32,4.623,4.623,0,0,1,.262,1.552v.21a4.507,4.507,0,0,1-.27,1.552A4.153,4.153,0,0,1,118.73,52a3.635,3.635,0,0,1-2.812,1.253,3.572,3.572,0,0,1-1.732-.428,3.268,3.268,0,0,1-1.275-1.267,4.394,4.394,0,0,1-.533-2.07l.54,1.125V56Zm3.975-3.735a2.732,2.732,0,0,0,1.545-.427,2.769,2.769,0,0,0,.99-1.17,3.85,3.85,0,0,0,.345-1.642,3.754,3.754,0,0,0-.352-1.658,2.841,2.841,0,0,0-1-1.155,2.705,2.705,0,0,0-1.53-.428,3.019,3.019,0,0,0-1.47.36,2.67,2.67,0,0,0-1.042,1.013,2.986,2.986,0,0,0-.382,1.537v.735a2.816,2.816,0,0,0,.382,1.478,2.7,2.7,0,0,0,1.042,1A3.019,3.019,0,0,0,115.767,52.265Zm9.6.99a4.125,4.125,0,0,1-1.77-.353,3.433,3.433,0,0,1-1.23-.945,4.011,4.011,0,0,1-.712-1.327,4.993,4.993,0,0,1-.233-1.515V48.9a4.945,4.945,0,0,1,.233-1.5,3.928,3.928,0,0,1,.712-1.32,3.524,3.524,0,0,1,1.208-.937,3.863,3.863,0,0,1,1.7-.353,3.666,3.666,0,0,1,2.077.555,3.553,3.553,0,0,1,1.252,1.418,4.175,4.175,0,0,1,.42,1.852V49.2h-7.095v-.87h6.315l-.285.435a3.676,3.676,0,0,0-.307-1.553,2.43,2.43,0,0,0-.9-1.05,2.671,2.671,0,0,0-1.478-.382,2.61,2.61,0,0,0-1.545.435,2.665,2.665,0,0,0-.923,1.155,4.127,4.127,0,0,0-.308,1.635,4.253,4.253,0,0,0,.308,1.643,2.59,2.59,0,0,0,.945,1.178,3.215,3.215,0,0,0,3.292-.038,1.926,1.926,0,0,0,.8-1.118h1.05a2.967,2.967,0,0,1-.63,1.373,3.179,3.179,0,0,1-1.215.892A4.23,4.23,0,0,1,125.368,53.255Zm5.49-.255V51.515h1.41V53Z" transform="translate(3488 4415)" fill="#262626"/>
  </g>
</svg>
