<svg xmlns="http://www.w3.org/2000/svg" width="39.5" height="39.5" viewBox="0 0 39.5 39.5">
  <g id="Behance" transform="translate(0.75 0.75)">
    <g id="Capa_1" data-name="Capa 1" transform="translate(0 0)">
      <g id="Group_38" data-name="Group 38">
        <rect id="Rectangle_107" data-name="Rectangle 107" width="38" height="38" rx="19" fill="none" stroke="#fff" stroke-miterlimit="10" stroke-width="1.5"/>
        <g id="Group_37" data-name="Group 37" transform="translate(8.287 12.212)">
          <path id="Path_423" data-name="Path 423" d="M16.928,26.069a3.754,3.754,0,0,0,1.508-.659,3.994,3.994,0,0,0,1.548-3.175,3.5,3.5,0,0,0-.519-1.947,3,3,0,0,0-1.538-1.178,3.135,3.135,0,0,0,1-.749,3,3,0,0,0,.619-2,3.435,3.435,0,0,0-.609-2A4.084,4.084,0,0,0,15.48,13H9.05V26.259h5.991a8.606,8.606,0,0,0,1.887-.19ZM11.706,15.256h2.9a4.912,4.912,0,0,1,1.568.21,1.188,1.188,0,0,1,.719,1.228,1.258,1.258,0,0,1-.539,1.168,2.676,2.676,0,0,1-1.358.329H11.706Zm0,8.686V20.4h3.285a3.325,3.325,0,0,1,1.328.22,1.428,1.428,0,0,1,.849,1.428,1.677,1.677,0,0,1-.879,1.667,3.225,3.225,0,0,1-1.3.27Z" transform="translate(-9.05 -12.981)" fill="#fff"/>
          <g id="Group_36" data-name="Group 36" transform="translate(11.682 0.737)">
            <path id="Path_424" data-name="Path 424" d="M22.238,25.385A5.352,5.352,0,0,0,25.7,26.594a4.792,4.792,0,0,0,3.7-1.438,3.225,3.225,0,0,0,.949-1.777H27.729a2.087,2.087,0,0,1-.529.679,2.187,2.187,0,0,1-1.428.449,2.586,2.586,0,0,1-1.418-.369,2.356,2.356,0,0,1-1-2.077h7.169a12.61,12.61,0,0,0-.09-1.947,4.822,4.822,0,0,0-.779-2,4.064,4.064,0,0,0-1.707-1.458,5.531,5.531,0,0,0-2.306-.459,4.762,4.762,0,0,0-3.524,1.368,5.342,5.342,0,0,0-1.348,3.914A4.792,4.792,0,0,0,22.238,25.385Zm1.837-6.54a2,2,0,0,1,1.538-.569,2.236,2.236,0,0,1,1.528.539,2.107,2.107,0,0,1,.679,1.548H23.386a2.716,2.716,0,0,1,.689-1.518Z" transform="translate(-20.75 -13.724)" fill="#fff"/>
            <rect id="Rectangle_108" data-name="Rectangle 108" width="5.781" height="1.338" transform="translate(1.797)" fill="#fff"/>
          </g>
        </g>
      </g>
    </g>
  </g>
</svg>
