<svg xmlns="http://www.w3.org/2000/svg" width="39.5" height="39.5" viewBox="0 0 39.5 39.5">
  <g id="Dribbble" transform="translate(0.75 0.75)">
    <g id="Capa_1" data-name="Capa 1" transform="translate(0 0)">
      <g id="Group_39" data-name="Group 39">
        <rect id="Rectangle_109" data-name="Rectangle 109" width="38" height="38" rx="19" fill="none" stroke="#fff" stroke-miterlimit="10" stroke-width="1.5"/>
        <path id="Path_425" data-name="Path 425" d="M19.761,7.65A12.111,12.111,0,1,0,31.872,19.761,12.111,12.111,0,0,0,19.761,7.65Zm0,2.107a9.984,9.984,0,0,1,6.1,2.087,12.211,12.211,0,0,1-4.992,3.714,46.326,46.326,0,0,0-3.524-5.481,9.984,9.984,0,0,1,2.416-.319Zm-4.513,1.088a43.761,43.761,0,0,1,3.564,5.431,32.388,32.388,0,0,1-8.766,1.118,10.074,10.074,0,0,1,5.2-6.55ZM9.757,19.761V19.5A33.816,33.816,0,0,0,19.8,18.173c.24.469.459,1,.679,1.438a15.615,15.615,0,0,0-8.417,6.54,9.924,9.924,0,0,1-2.306-6.39Zm9.984,9.984a9.984,9.984,0,0,1-6.14-2.117,13.578,13.578,0,0,1,7.668-6.09,39.688,39.688,0,0,1,2.067,7.528,9.794,9.794,0,0,1-3.574.7Zm5.551-1.687a41.116,41.116,0,0,0-1.937-6.989,19.968,19.968,0,0,1,6.26.2,9.984,9.984,0,0,1-4.3,6.809Zm-2.746-8.986c-.24-.569-.5-1.128-.769-1.7a14.357,14.357,0,0,0,5.6-4.114,9.984,9.984,0,0,1,2.336,5.891,21.686,21.686,0,0,0-7.149-.03Z" transform="translate(-0.761 -0.761)" fill="#fff"/>
      </g>
    </g>
  </g>
</svg>
