<svg xmlns="http://www.w3.org/2000/svg" width="39.5" height="39.5" viewBox="0 0 39.5 39.5">
  <g id="Instagram" transform="translate(-0.03 -0.06)">
    <g id="Capa_1" data-name="Capa 1" transform="translate(0.78 0.81)">
      <g id="Group_41" data-name="Group 41">
        <path id="Path_426" data-name="Path 426" d="M19.78,38.81h0a19,19,0,0,1-19-19h0a19,19,0,0,1,19-19h0a19,19,0,0,1,19,19h0A19,19,0,0,1,19.78,38.81Z" transform="translate(-0.78 -0.81)" fill="none" stroke="#fff" stroke-miterlimit="10" stroke-width="1.5"/>
        <g id="Group_40" data-name="Group 40" transform="translate(8.57 8.52)">
          <path id="Path_427" data-name="Path 427" d="M19.78,11.23c2.79,0,3.12,0,4.22.06a5.38,5.38,0,0,1,1.93.36,3.12,3.12,0,0,1,1.2.78,3,3,0,0,1,.78,1.2,5.38,5.38,0,0,1,.36,1.93c.05,1.1.06,1.43.06,4.22s0,3.12-.06,4.22a5.38,5.38,0,0,1-.36,1.93,3.45,3.45,0,0,1-2,2,5.38,5.38,0,0,1-1.93.36c-1.1.05-1.43.06-4.22.06s-3.12,0-4.22-.06a5.38,5.38,0,0,1-1.93-.36,3,3,0,0,1-1.2-.78,3.12,3.12,0,0,1-.78-1.2A5.38,5.38,0,0,1,11.29,24c0-1.1-.06-1.43-.06-4.22s0-3.12.06-4.22a5.38,5.38,0,0,1,.36-1.93,3.45,3.45,0,0,1,2-2,5.38,5.38,0,0,1,1.93-.36c1.1,0,1.43-.06,4.22-.06m0-1.88c-2.83,0-3.19,0-4.3.06a7.83,7.83,0,0,0-2.5.5A5.4,5.4,0,0,0,9.89,13a7.83,7.83,0,0,0-.48,2.53c-.05,1.11-.06,1.47-.06,4.3s0,3.19.06,4.3a8,8,0,0,0,.48,2.54,5.42,5.42,0,0,0,3.11,3,7.57,7.57,0,0,0,2.53.48c1.11.05,1.47.06,4.3.06s3.19,0,4.3-.06a7.69,7.69,0,0,0,2.54-.48,5.44,5.44,0,0,0,3.05-3.05,8,8,0,0,0,.48-2.54c.05-1.11.06-1.47.06-4.3s0-3.19-.06-4.3A7.83,7.83,0,0,0,29.67,13a5.42,5.42,0,0,0-3.05-3.06,8,8,0,0,0-2.54-.48c-1.11-.05-1.47-.06-4.3-.06" transform="translate(-9.35 -9.33)" fill="#fff"/>
          <path id="Path_428" data-name="Path 428" d="M19.78,14.42a5.36,5.36,0,1,0,5.36,5.36,5.36,5.36,0,0,0-5.36-5.36m0,8.84a3.48,3.48,0,1,1,3.48-3.48,3.48,3.48,0,0,1-3.48,3.48" transform="translate(-9.35 -9.33)" fill="#fff"/>
          <path id="Path_429" data-name="Path 429" d="M26.6,14.21a1.23,1.23,0,1,0,0,.04" transform="translate(-9.35 -9.33)" fill="#fff"/>
        </g>
      </g>
    </g>
  </g>
</svg>
