<svg xmlns="http://www.w3.org/2000/svg" width="39.5" height="39.5" viewBox="0 0 39.5 39.5">
  <g id="LinkedIn" transform="translate(0.75 0.75)">
    <g id="Capa_1" data-name="Capa 1" transform="translate(0 0)">
      <g id="Group_44" data-name="Group 44">
        <rect id="Rectangle_110" data-name="Rectangle 110" width="38" height="38" rx="19" fill="none" stroke="#fff" stroke-miterlimit="10" stroke-width="1.5"/>
        <g id="Group_43" data-name="Group 43" transform="translate(10.004 8.407)">
          <g id="Group_42" data-name="Group 42">
            <rect id="Rectangle_111" data-name="Rectangle 111" width="3.934" height="12.7" transform="translate(0.379 6.36)" fill="#fff"/>
            <path id="Path_430" data-name="Path 430" d="M13.1,13.863a2.346,2.346,0,1,0-2.326-2.346A2.346,2.346,0,0,0,13.1,13.863Z" transform="translate(-10.77 -9.17)" fill="#fff"/>
          </g>
          <path id="Path_431" data-name="Path 431" d="M21.384,21.57c0-1.787.819-2.846,2.4-2.846s2.137,1,2.137,2.846v6.669h3.914V20.252c0-3.4-1.927-5.052-4.623-5.052a4.413,4.413,0,0,0-3.824,2.1V15.539H17.61v12.7h3.774Z" transform="translate(-10.781 -9.18)" fill="#fff"/>
        </g>
      </g>
    </g>
  </g>
</svg>
