<svg xmlns="http://www.w3.org/2000/svg" width="138.031" height="68.005" viewBox="0 0 138.031 68.005">
  <path id="Path_870" data-name="Path 870" d="M70.026,68V60.582H96.749V68Zm34.146-7.423V14.557H130.9V60.582Zm-68.293,0v-19.3H62.6v19.3Zm-8.843-7.423L8.7,21.981H28.455V53.159ZM0,53.159V21.981H1.323L19.659,53.159ZM70.026,41.281V33.858H96.749v7.423ZM35.879,33.858v-19.3H62.6v19.3Zm34.147-19.3V7.134H96.749v7.423ZM131.941,6.09A3.437,3.437,0,0,1,130.9,3.568a3.436,3.436,0,0,1,1.045-2.523,3.568,3.568,0,0,1,5.045,0,3.435,3.435,0,0,1,1.045,2.523,3.437,3.437,0,0,1-1.045,2.523,3.57,3.57,0,0,1-5.045,0Zm.221-4.839a3.165,3.165,0,0,0-.95,2.317,3.163,3.163,0,0,0,.95,2.316,3.236,3.236,0,0,0,4.593,0,3.163,3.163,0,0,0,.95-2.316,3.165,3.165,0,0,0-.95-2.317,3.236,3.236,0,0,0-4.593,0Zm.961,3.661a1.823,1.823,0,0,1-.562-1.345,1.825,1.825,0,0,1,.562-1.345,1.873,1.873,0,0,1,1.37-.557,1.9,1.9,0,0,1,.956.247,1.709,1.709,0,0,1,.67.68l-.679.394a.957.957,0,0,0-.956-.553,1.055,1.055,0,0,0-.814.336,1.132,1.132,0,0,0-.31.8,1.131,1.131,0,0,0,.31.8,1.055,1.055,0,0,0,.814.336,1.183,1.183,0,0,0,.581-.148.873.873,0,0,0,.384-.414l.68.4a1.762,1.762,0,0,1-.675.675,1.9,1.9,0,0,1-.96.251A1.87,1.87,0,0,1,133.124,4.912Z" fill="#fff"/>
</svg>
