<svg xmlns="http://www.w3.org/2000/svg" width="138.031" height="68.005" viewBox="0 0 138.031 68.005">
  <g id="Group_2" data-name="Group 2" transform="translate(-1523.57 -910.05)">
    <path id="Path_435" data-name="Path 435" d="M1488.053,813.457h-19.659V782.279h1.323l18.336,31.177Zm7.377,0-18.336-31.177h19.755v31.177h-1.42Z" transform="translate(55.175 149.752)" fill="#262626"/>
    <path id="Rectangle_34" data-name="Rectangle 34" d="M0,0H26.724V19.3H0Z" transform="translate(1559.449 924.608)" fill="#262626"/>
    <path id="Rectangle_24" data-name="Rectangle 24" d="M0,0H26.724V19.3H0Z" transform="translate(1559.449 951.332)" fill="#262626"/>
    <path id="Rectangle_26" data-name="Rectangle 26" d="M0,0H26.724V46.024H0Z" transform="translate(1627.742 924.608)" fill="#262626"/>
    <path id="Rectangle_37" data-name="Rectangle 37" d="M0,0H7.423V26.724H0Z" transform="translate(1620.319 917.185) rotate(90)" fill="#262626"/>
    <path id="Rectangle_23" data-name="Rectangle 23" d="M0,0H7.423V26.724H0Z" transform="translate(1620.319 970.632) rotate(90)" fill="#262626"/>
    <path id="Rectangle_32" data-name="Rectangle 32" d="M0,0H7.423V26.724H0Z" transform="translate(1620.319 943.908) rotate(90)" fill="#262626"/>
    <path id="Path_436" data-name="Path 436" d="M-21.022-47.31a3.437,3.437,0,0,1-2.523,1.045,3.437,3.437,0,0,1-2.523-1.045,3.437,3.437,0,0,1-1.045-2.523,3.437,3.437,0,0,1,1.045-2.523A3.437,3.437,0,0,1-23.545-53.4a3.437,3.437,0,0,1,2.523,1.045,3.437,3.437,0,0,1,1.045,2.523A3.437,3.437,0,0,1-21.022-47.31Zm-2.523.749a3.115,3.115,0,0,0,2.291-.956,3.162,3.162,0,0,0,.951-2.316,3.162,3.162,0,0,0-.951-2.316,3.115,3.115,0,0,0-2.291-.956,3.126,3.126,0,0,0-2.3.956,3.162,3.162,0,0,0-.951,2.316,3.162,3.162,0,0,0,.951,2.316A3.126,3.126,0,0,0-23.545-46.561Zm.03-1.37a1.872,1.872,0,0,1-1.37-.557,1.825,1.825,0,0,1-.562-1.345,1.825,1.825,0,0,1,.562-1.345,1.872,1.872,0,0,1,1.37-.557,1.9,1.9,0,0,1,.956.246,1.711,1.711,0,0,1,.67.68l-.68.394a.956.956,0,0,0-.956-.552,1.057,1.057,0,0,0-.813.335,1.134,1.134,0,0,0-.31.8,1.134,1.134,0,0,0,.31.8,1.057,1.057,0,0,0,.813.335,1.177,1.177,0,0,0,.581-.148.868.868,0,0,0,.384-.414l.68.4a1.754,1.754,0,0,1-.675.675A1.9,1.9,0,0,1-23.516-47.931Z" transform="translate(1681.578 963.45)" fill="#262626"/>
  </g>
</svg>
