<svg xmlns="http://www.w3.org/2000/svg" width="176" height="176" viewBox="0 0 176 176">
  <g id="Legal251" transform="translate(-2383 -4647)">
    <rect id="Rectangle_276" data-name="Rectangle 276" width="176" height="176" rx="20" transform="translate(2383 4647)" fill="#fff"/>
    <g id="Legal251-2" data-name="Legal251" transform="translate(2411 4721.996)">
      <g id="LEGAL" transform="translate(0 8.286)">
        <path id="Path_797" data-name="Path 797" d="M3.028,227.51H7.352L5.072,240.434H13.2l-.749,4.249H0Z" transform="translate(0 -227.18)"/>
        <path id="Path_798" data-name="Path 798" d="M426.568,227.51h13.013l-.753,4.271h-8.669l-.435,2.466h7.126l-.7,3.985h-7.126l-.388,2.2H437.3l-.75,4.249H423.54Z" transform="translate(-407.507 -227.18)"/>
        <path id="Path_799" data-name="Path 799" d="M899.737,226.276h8.17l-1.768,10.018h-3.411l.284-1.607a4.9,4.9,0,0,1-2.059,1.453,7.083,7.083,0,0,1-2.562.485,7.809,7.809,0,0,1-3.352-.7,7.135,7.135,0,0,1-3.965-4.745,7.966,7.966,0,0,1-.105-3.468,9.744,9.744,0,0,1,1.328-3.468,11.77,11.77,0,0,1,5.638-4.745,9.577,9.577,0,0,1,3.6-.7,7.627,7.627,0,0,1,3.889.98,7.149,7.149,0,0,1,2.647,2.609L904.1,224.8a3.5,3.5,0,0,0-1.348-1.287,4.03,4.03,0,0,0-1.968-.474,5,5,0,0,0-1.867.363,5.788,5.788,0,0,0-1.641.991,5.953,5.953,0,0,0-1.239,1.487,5.384,5.384,0,0,0-.681,1.827,4.43,4.43,0,0,0,.038,1.828,3.727,3.727,0,0,0,.715,1.486,3.558,3.558,0,0,0,1.292.991,4.08,4.08,0,0,0,1.739.363,4.694,4.694,0,0,0,2.178-.53,5.849,5.849,0,0,0,1.795-1.431l.086-.485h-4.108Z" transform="translate(-857.107 -218.79)"/>
        <path id="Path_800" data-name="Path 800" d="M1385.815,227.51l3.815,17.174h-4.736l-.492-2.51h-6.669l-1.377,2.51h-4.736l9.894-17.174Zm-3.145,5.636-2.758,5.042h3.715Z" transform="translate(-1319.699 -227.18)"/>
        <path id="Path_801" data-name="Path 801" d="M1937.649,227.51h4.323l-2.279,12.924h8.125l-.75,4.249H1934.62Z" transform="translate(-1861.387 -227.18)"/>
      </g>
      <g id="_251" data-name="251" transform="translate(88.449 9.725)">
        <circle id="Ellipse_84" data-name="Ellipse 84" cx="4.713" cy="4.713" r="4.713" fill="#f8951d"/>
        <circle id="Ellipse_85" data-name="Ellipse 85" cx="4.713" cy="4.713" r="4.713" transform="translate(11.034)" fill="#f8951d"/>
        <circle id="Ellipse_86" data-name="Ellipse 86" cx="4.713" cy="4.713" r="4.713" transform="translate(22.126)" fill="#f8951d"/>
        <g id="_2" data-name="2" transform="translate(2.799 2.125)">
          <path id="Path_802" data-name="Path 802" d="M2414.112,318.046h-3.6v-.969l1.76-1.635q.151-.141.265-.253a2.083,2.083,0,0,0,.181-.205.762.762,0,0,0,.105-.183.506.506,0,0,0,.035-.186.4.4,0,0,0-.128-.3.493.493,0,0,0-.351-.119.573.573,0,0,0-.4.144.537.537,0,0,0-.16.42v.148h-1.243v-.148a1.838,1.838,0,0,1,.166-.8,1.69,1.69,0,0,1,.427-.564,1.771,1.771,0,0,1,.587-.331,2.016,2.016,0,0,1,.643-.109,1.931,1.931,0,0,1,.667.114,1.689,1.689,0,0,1,.555.33,1.6,1.6,0,0,1,.382.523,1.633,1.633,0,0,1,.144.7,1.582,1.582,0,0,1-.1.581,2.209,2.209,0,0,1-.255.475,2.825,2.825,0,0,1-.334.391l-.335.324-.421.385h1.416Z" transform="translate(-2410.51 -312.949)" fill="#fff"/>
        </g>
        <g id="_5" data-name="5" transform="translate(13.841 2.249)">
          <path id="Path_803" data-name="Path 803" d="M2705.63,317.484h-1.8l-.056.481a.926.926,0,0,1,.282-.089,2.552,2.552,0,0,1,.337-.019,1.538,1.538,0,0,1,1.453.988,1.818,1.818,0,0,1-.025,1.349,1.642,1.642,0,0,1-.392.554,1.857,1.857,0,0,1-.594.364,2.024,2.024,0,0,1-.74.133,2.086,2.086,0,0,1-.609-.086,2.16,2.16,0,0,1-.944-.58,2.556,2.556,0,0,1-.322-.416l1.052-.627a1.317,1.317,0,0,0,.375.355.844.844,0,0,0,.443.12.642.642,0,0,0,.454-.151.491.491,0,0,0,.164-.374.653.653,0,0,0-.024-.171.519.519,0,0,0-.081-.165.4.4,0,0,0-.151-.123.519.519,0,0,0-.233-.048.82.82,0,0,0-.349.082,1.338,1.338,0,0,0-.375.285l-1.045-.5.465-2.642h2.717Z" transform="translate(-2702.22 -316.21)" fill="#fff"/>
        </g>
        <g id="_1" data-name="1" transform="translate(25.651 2.28)">
          <path id="Path_804" data-name="Path 804" d="M3014.2,317.41l1.068-.37h.837v4.893h-1.242v-3.45l-.662.232Z" transform="translate(-3014.2 -317.04)" fill="#fff"/>
        </g>
      </g>
      <g id="Base" transform="translate(90.512 20.665)">
        <path id="Path_805" data-name="Path 805" d="M2469.5,545.81h16.58a2.423,2.423,0,0,1,2.423,2.423H2467.08A2.422,2.422,0,0,1,2469.5,545.81Z" transform="translate(-2464.204 -545.81)"/>
        <path id="Path_806" data-name="Path 806" d="M2393.5,616.81h22.372a2.423,2.423,0,0,1,2.423,2.423h-27.217A2.422,2.422,0,0,1,2393.5,616.81Z" transform="translate(-2391.081 -614.122)"/>
      </g>
      <g id="Hammer" transform="translate(91.549 0.004)">
        <path id="Path_807" data-name="Path 807" d="M2608.744.773l-.084-.311a.616.616,0,0,0-.754-.436l-4,1.07a.616.616,0,0,0-.436.754l.083.311a.615.615,0,0,0,.7.449l4.118-1.1a.616.616,0,0,0,.38-.736Z" transform="translate(-2596.444 -0.004)"/>
        <path id="Path_808" data-name="Path 808" d="M2651.741,161.473l-.083-.311a.616.616,0,0,0-.754-.436l-4,1.07a.617.617,0,0,0-.438.756l.083.311a.616.616,0,0,0,.7.449l4.118-1.1A.615.615,0,0,0,2651.741,161.473Z" transform="translate(-2637.812 -154.621)"/>
        <path id="Path_809" data-name="Path 809" d="M2418.491,60.859a1.782,1.782,0,0,0,.174.168l.042.035.041.031c.027.022.053.038.08.058a1.609,1.609,0,0,0,.3.166,1.1,1.1,0,0,0,.539.085c.042,0,.083-.012.124-.02l.124-.023c.081-.015.163-.032.245-.048l.244-.052.244-.055c.162-.038.323-.076.485-.116l.242-.061.241-.063c.16-.043.321-.086.481-.131l.479-.137.479-.142.476-.147.476-.151.474-.155.474-.159.472-.163c.158-.055.315-.11.472-.167l.47-.171-.065-.243.695-.284.367,1.367,4.1-1.1-.9-3.362-4.106,1.1.366,1.367-.743.1-.065-.243c-.165.028-.329.058-.492.088l-.492.091-.492.1-.489.1-.489.1-.488.107-.483.111-.485.116q-.243.058-.484.121c-.162.041-.322.084-.482.127l-.24.066-.24.068c-.16.046-.32.093-.479.142-.079.024-.158.049-.238.076s-.158.05-.238.076-.157.052-.236.08l-.118.042c-.037.014-.079.027-.117.044a1.1,1.1,0,0,0-.424.343,1.565,1.565,0,0,0-.178.295.964.964,0,0,0-.04.09l-.02.047-.018.051a1.763,1.763,0,0,0-.069.232Z" transform="translate(-2418.491 -53.707)"/>
      </g>
      <g id="Spark" transform="translate(99.591 7.551)">
        <rect id="Rectangle_262" data-name="Rectangle 262" width="1.544" height="0.379" transform="matrix(0.904, -0.428, 0.428, 0.904, 5.534, 0.662)"/>
        <rect id="Rectangle_263" data-name="Rectangle 263" width="1.544" height="0.379" transform="matrix(0.904, -0.428, 0.428, 0.904, 0.159, 2.933)"/>
        <rect id="Rectangle_264" data-name="Rectangle 264" width="1.544" height="0.379" transform="matrix(0.997, -0.074, 0.074, 0.997, 5.83, 1.425)"/>
        <rect id="Rectangle_265" data-name="Rectangle 265" width="1.544" height="0.379" transform="matrix(0.997, -0.074, 0.074, 0.997, 0, 1.576)"/>
      </g>
    </g>
  </g>
</svg>
