<svg xmlns="http://www.w3.org/2000/svg" width="176" height="176" viewBox="0 0 176 176">
  <g id="Madhav_Srishti" data-name="Madhav Srishti" transform="translate(-3327 -4647)">
    <rect id="Rectangle_285" data-name="Rectangle 285" width="176" height="176" rx="20" transform="translate(3327 4647)" fill="#fff"/>
    <g id="Group_3197" data-name="Group 3197" transform="translate(5311.1 4980.683)">
      <path id="Path_9501" data-name="Path 9501" d="M47.184,61.969c-3.314-4.9-8.759-3.075-13.259-8.527a13.468,13.468,0,0,1-3.14-6.447A2.776,2.776,0,0,0,30.61,46h.067c0,2.229,3.415,6.2,5.3,7.695C40.239,57.1,47.184,56.889,47.184,61.969Z" transform="translate(-1943.343 -300.563)" fill="#008a82" fill-rule="evenodd"/>
      <path id="Path_9502" data-name="Path 9502" d="M41.532,54.422c-1.574-1.291-3.853-2.734-5.253-4.615-1-1.335-1.152-3.447-2.063-4.542-1.45-1.748-5.8-4.267-5.544-7.765-.4,2.718,2,7.931,5.451,11.863C36.394,51.944,39.278,53.974,41.532,54.422Z" transform="translate(-1943.004 -299.107)" fill="#008a82" fill-rule="evenodd"/>
      <path id="Path_9503" data-name="Path 9503" d="M28.91,33.63v.116c.3,4.094-.075,3.314,3.2,7.069,1.658,1.848,4.143,3.314,4.143,6.223,0-9-6.265-7.583-7.193-12.24a5.544,5.544,0,0,1-.149-1.169Z" transform="translate(-1943.052 -298.444)" fill="#008a82" fill-rule="evenodd"/>
      <path id="Path_9504" data-name="Path 9504" d="M30.022,29.81c-1.384,1.658-.406,4.218,1.042,5.569,1.989,1.864,5.039,2.485,5.188,6.63.265-1.152,1.185-2.485-1.541-5.1C33,35.3,31.926,35.18,30.443,33.084a3.969,3.969,0,0,1-.555-2.817S30.047,29.777,30.022,29.81Z" transform="translate(-1943.129 -297.789)" fill="#008a82" fill-rule="evenodd"/>
      <path id="Path_9505" data-name="Path 9505" d="M31.5,26.367a4.97,4.97,0,0,0-.224,4.467,8.113,8.113,0,0,0,1.807,2.676c1.574,1.608,3.953,2.768,4.359,5.188v.149c0-2.047-.829-3.249-2.793-5.13a15.43,15.43,0,0,1-3.314-5.1C31.123,27.834,31.8,25.936,31.5,26.367Z" transform="translate(-1943.384 -297.189)" fill="#008a82" fill-rule="evenodd"/>
      <path id="Path_9506" data-name="Path 9506" d="M33.015,23.07c-.953.282-.9,3.489-.357,4.7,1.11,2.485,3.314,4.235,4.97,7.054a10.376,10.376,0,0,1,.745,2.055,19.193,19.193,0,0,0-.24-2.428,6.63,6.63,0,0,0-.9-2.038c-.829-1.425-2.2-2.412-3.489-4.558a5.8,5.8,0,0,1-.882-4.433C32.875,23.327,33.041,23.07,33.015,23.07Z" transform="translate(-1943.627 -296.635)" fill="#008a82" fill-rule="evenodd"/>
      <path id="Path_9507" data-name="Path 9507" d="M35.207,20.1c-2.676,7.566,3.862,8.129,3.862,13.607.663-1.169.075-3.314-.447-4.143C36.917,26.646,33.964,23.614,35.207,20.1Z" transform="translate(-1944.021 -296.126)" fill="#008a82" fill-rule="evenodd"/>
      <path id="Path_9508" data-name="Path 9508" d="M38.44,15a13.259,13.259,0,0,1,1.028,2.485c.829,3.58.116,8.395,3.423,11.494a5.932,5.932,0,0,1-.671-1.658,18.074,18.074,0,0,1-.514-3.887,14.508,14.508,0,0,0-1.732-6.97s-.216-.365-.257-.464A15.2,15.2,0,0,0,38.44,15Z" transform="translate(-1944.685 -295.253)" fill="#008a82" fill-rule="evenodd"/>
      <path id="Path_9509" data-name="Path 9509" d="M39.62,12.72c.216,1.343,2.2,2.66,2.437,6.58a27.554,27.554,0,0,0,.7,6.422,11.51,11.51,0,0,0,1.268,2.353,9.348,9.348,0,0,1-.986-5.337c.16-2.485.216-6.58-1.956-8.751Z" transform="translate(-1944.887 -294.862)" fill="#008a82" fill-rule="evenodd"/>
      <path id="Path_9510" data-name="Path 9510" d="M41.429,11.439c2.13.953,2.254,4.856,2.565,7.923.149,1.434,2.138,7.454,2.122,7.535,0-2.917-.87-4.691-.779-8.436C45.493,12.085,41.313,11.39,41.429,11.439Z" transform="translate(-1945.197 -294.642)" fill="#008a82" fill-rule="evenodd"/>
      <path id="Path_9511" data-name="Path 9511" d="M42.48,9.61c2.942,1.443,3.978,4.309,4.061,7.3,0,1.484.829,7.285,1.658,8.436a1,1,0,0,0,.365.382,6.058,6.058,0,0,1-.489-2.859c.531-3.572-.08-8.561-2.412-11.5C44.726,10.223,43.889,10.306,42.48,9.61Z" transform="translate(-1945.377 -294.329)" fill="#008a82" fill-rule="evenodd"/>
      <path id="Path_9512" data-name="Path 9512" d="M45.11,5.33C46.386,6,48.424,15.1,49.054,16.8c.4,1.077.713,7.682.9,7.781C49.7,16.593,50.679,14.8,48.177,9.4c-.3-.63-1.848-3.423-2.485-3.646a5.27,5.27,0,0,0-.58-.422Z" transform="translate(-1945.827 -293.596)" fill="#008a82" fill-rule="evenodd"/>
      <path id="Path_9513" data-name="Path 9513" d="M50.578,0c-.1.953-1.011,2.645-1.069,4.2-.08,2.1.928,5.544,1.4,7.3a54.672,54.672,0,0,0,1-7.019,9.115,9.115,0,0,0-.754-3.206C51.142,1.218,50.578,0,50.578,0Z" transform="translate(-1946.581 -292.683)" fill="#008a82" fill-rule="evenodd"/>
      <path id="Path_9514" data-name="Path 9514" d="M37.283,16.53c-1.658,4.008-.92,6.538.422,8.809,1.152,1.931,2.85,3.663,2.76,6.182a5.8,5.8,0,0,0,0-4.458,22.831,22.831,0,0,1-2.485-5.428,23.2,23.2,0,0,1-.729-3.895C37.2,16.761,37.49,16.065,37.283,16.53Z" transform="translate(-1944.323 -295.489)" fill="#008a82" fill-rule="evenodd"/>
      <path id="Path_9515" data-name="Path 9515" d="M51.29,61.969c3.314-4.9,8.759-3.075,13.259-8.527A13.4,13.4,0,0,0,67.7,46.995,2.485,2.485,0,0,1,67.864,46H67.8c0,2.229-3.415,6.2-5.312,7.695C58.235,57.1,51.29,56.889,51.29,61.969Z" transform="translate(-1946.886 -300.563)" fill="#008a82" fill-rule="evenodd"/>
      <path id="Path_9516" data-name="Path 9516" d="M57.69,54.422c1.583-1.291,3.855-2.734,5.262-4.615,1-1.335,1.152-3.447,2.063-4.542,1.443-1.748,5.8-4.267,5.544-7.765.39,2.718-2,7.931-5.461,11.863C62.845,51.944,59.942,53.974,57.69,54.422Z" transform="translate(-1947.982 -299.107)" fill="#008a82" fill-rule="evenodd"/>
      <path id="Path_9517" data-name="Path 9517" d="M71.493,33.63v.116c-.3,4.094.075,3.314-3.206,7.069-1.608,1.848-4.094,3.314-4.094,6.223,0-9,6.257-7.583,7.193-12.24A5.535,5.535,0,0,0,71.493,33.63Z" transform="translate(-1949.096 -298.444)" fill="#008a82" fill-rule="evenodd"/>
      <path id="Path_9518" data-name="Path 9518" d="M70.377,29.81c1.384,1.658.406,4.218-1.042,5.569-1.989,1.864-5.039,2.485-5.188,6.63-.265-1.152-1.194-2.485,1.541-5.1,1.707-1.608,2.785-1.732,4.267-3.828a3.969,3.969,0,0,0,.641-2.817,4.359,4.359,0,0,1-.216-.456Z" transform="translate(-1949.026 -297.789)" fill="#008a82" fill-rule="evenodd"/>
      <path id="Path_9519" data-name="Path 9519" d="M69.04,26.367a4.97,4.97,0,0,1,.224,4.467,8.006,8.006,0,0,1-1.815,2.676C65.875,35.119,63.5,36.279,63.09,38.7v.149c0-2.047.829-3.249,2.793-5.13a15.563,15.563,0,0,0,3.314-5.1C69.413,27.834,68.734,25.936,69.04,26.367Z" transform="translate(-1948.908 -297.189)" fill="#008a82" fill-rule="evenodd"/>
      <path id="Path_9520" data-name="Path 9520" d="M67.62,23.07c.945.282.9,3.489.357,4.7-1.11,2.485-3.314,4.235-4.97,7.054a10.524,10.524,0,0,0-.754,2.055A22.266,22.266,0,0,1,62.5,34.45a6.63,6.63,0,0,1,.9-2.038c.829-1.425,2.187-2.412,3.48-4.558a5.8,5.8,0,0,0,.882-4.433C67.753,23.327,67.587,23.07,67.62,23.07Z" transform="translate(-1948.764 -296.635)" fill="#008a82" fill-rule="evenodd"/>
      <path id="Path_9521" data-name="Path 9521" d="M65.7,20.1c2.676,7.566-3.872,8.129-3.872,13.607-.655-1.169-.067-3.314.456-4.143C63.992,26.646,66.943,23.614,65.7,20.1Z" transform="translate(-1948.642 -296.126)" fill="#008a82" fill-rule="evenodd"/>
      <path id="Path_9522" data-name="Path 9522" d="M62.532,15a13.126,13.126,0,0,0-1.011,2.485c-.829,3.58-.124,8.395-3.431,11.494a5.6,5.6,0,0,0,.663-1.658,17.924,17.924,0,0,0,.522-3.887,14.411,14.411,0,0,1,1.732-6.97A5.1,5.1,0,0,0,61.256,16a15.2,15.2,0,0,1,1.276-1Z" transform="translate(-1948.051 -295.253)" fill="#008a82" fill-rule="evenodd"/>
      <path id="Path_9523" data-name="Path 9523" d="M61.376,12.72c-.216,1.343-2.2,2.66-2.437,6.58a27.991,27.991,0,0,1-.7,6.422A11.925,11.925,0,0,1,57,28.075a9.422,9.422,0,0,0,.986-5.337c-.16-2.485-.216-6.58,1.956-8.751Z" transform="translate(-1947.865 -294.862)" fill="#008a82" fill-rule="evenodd"/>
      <path id="Path_9524" data-name="Path 9524" d="M59.5,11.439c-2.171.953-2.254,4.856-2.577,7.935-.149,1.434-2.138,7.454-2.113,7.535,0-2.917.829-4.691.779-8.436C55.443,12.085,59.616,11.39,59.5,11.439Z" transform="translate(-1947.489 -294.642)" fill="#008a82" fill-rule="evenodd"/>
      <path id="Path_9525" data-name="Path 9525" d="M58.154,9.61c-2.934,1.443-3.969,4.309-4.061,7.3,0,1.484-.829,7.285-1.658,8.436a.986.986,0,0,1-.357.382,6.29,6.29,0,0,0,.489-2.859c-.531-3.572.075-8.561,2.412-11.5C55.917,10.223,56.745,10.306,58.154,9.61Z" transform="translate(-1947.021 -294.329)" fill="#008a82" fill-rule="evenodd"/>
      <path id="Path_9526" data-name="Path 9526" d="M55.781,5.33C54.513,6,52.466,15.1,51.844,16.8c-.4,1.077-.713,7.682-.9,7.781C51.2,16.593,50.22,14.8,52.722,9.4c.29-.63,1.848-3.423,2.485-3.646a5.8,5.8,0,0,1,.572-.422Z" transform="translate(-1946.828 -293.596)" fill="#008a82" fill-rule="evenodd"/>
      <path id="Path_9527" data-name="Path 9527" d="M63.678,16.53c1.658,4.008.911,6.538-.431,8.809-1.16,1.931-2.85,3.663-2.76,6.182a5.8,5.8,0,0,1,0-4.458,22.83,22.83,0,0,0,2.485-5.428A23.2,23.2,0,0,0,63.7,17.74C63.752,16.761,63.462,16.065,63.678,16.53Z" transform="translate(-1948.385 -295.489)" fill="#008a82" fill-rule="evenodd"/>
      <path id="Path_9528" data-name="Path 9528" d="M49.041,30.7h.075c4.831,0,9.115,5.428,9.115,11.8,0,7.947-4.483,8.138-8.113,12.331a3.9,3.9,0,0,0-1,1.924A3.87,3.87,0,0,0,48.1,54.832C44.433,50.639,40,50.448,40,42.5,40,36.128,44.2,30.7,49.041,30.7Z" transform="translate(-1944.953 -297.942)" fill="#008a82" fill-rule="evenodd"/>
      <path id="Path_9529" data-name="Path 9529" d="M19.52,53c3.986-.431,5.967,8.767,12.969,10.856a3.778,3.778,0,0,0,3.464-.39c.522-.506.091-1.052-.995-1.144-3.14-.24-8.767-2.485-6.339-6.63,2.072,3.936,12.016.854,16.748,12.281-8.743,2.725-12.091,1.658-16.906-1.848C25.056,63.637,20.431,56.942,19.52,53Z" transform="translate(-1941.444 -301.759)" fill="#ffcb00" fill-rule="evenodd"/>
      <path id="Path_9530" data-name="Path 9530" d="M77.035,53c-3.986-.431-5.967,8.767-12.969,10.856a3.767,3.767,0,0,1-3.464-.39c-.522-.506-.1-1.052.995-1.144,3.132-.24,8.767-2.485,6.332-6.63-2.089,3.88-12.017.829-16.748,12.232,8.743,2.725,12.091,1.658,16.913-1.848C71.5,63.637,76.124,56.942,77.035,53Z" transform="translate(-1946.867 -301.759)" fill="#ffcb00" fill-rule="evenodd"/>
      <path id="Path_9531" data-name="Path 9531" d="M43.145,41.329c-.514-1.591-.779-3.108-.107-3.249.2-.042.348,2.279,1.566,3.7a2.361,2.361,0,0,0,1.8.829c2.03.307,3.108-.613,3.157-.149,0,.3-.829.737-1.492,1.085-.506.256-.887.348-1.194.829-.945,1.392.075,3.539,1.094,4.905.531.7,1.011,1.177.721,1.4s-.995-.132-2.014-1.351a20.37,20.37,0,0,1-1.467-2.271c-.713-.282-1.144,2.718-1.042,3.92.05.655-.9,1.3-.911-.531a38.179,38.179,0,0,1,.191-4.641c.232-2.138.646-1.964.307-3.091C43.649,42.356,43.352,41.958,43.145,41.329Z" transform="translate(-1945.404 -299.206)" fill="#ffcb00" fill-rule="evenodd"/>
      <path id="Path_9532" data-name="Path 9532" d="M46.836,39.32a1.326,1.326,0,1,1-1.326,1.318A1.326,1.326,0,0,1,46.836,39.32Z" transform="translate(-1945.896 -299.418)" fill="#ffcb00" fill-rule="evenodd"/>
      <path id="Path_9533" data-name="Path 9533" d="M57.444,41.329c.514-1.591.779-3.108.1-3.249-.191-.042-.34,2.279-1.558,3.7a2.361,2.361,0,0,1-1.8.829c-2.03.307-3.108-.613-3.157-.149,0,.3.787.737,1.492,1.085.506.256.887.348,1.185.829.953,1.392-.067,3.539-1.094,4.905-.522.7-1,1.177-.721,1.4s1-.132,2.022-1.351a20.37,20.37,0,0,0,1.467-2.271c.713-.282,1.144,2.718,1.042,3.92-.05.655.9,1.3.911-.531a38.177,38.177,0,0,0-.191-4.641c-.224-2.138-.655-1.964-.307-3.091C56.937,42.356,57.237,41.958,57.444,41.329Z" transform="translate(-1946.842 -299.206)" fill="#ffcb00" fill-rule="evenodd"/>
      <path id="Path_9534" data-name="Path 9534" d="M54.634,39.32a1.326,1.326,0,1,0,1.318,1.318A1.326,1.326,0,0,0,54.634,39.32Z" transform="translate(-1947.231 -299.418)" fill="#ffcb00" fill-rule="evenodd"/>
      <path id="Path_9535" data-name="Path 9535" d="M50.795,44.38a.995.995,0,1,1-.995.995.995.995,0,0,1,.995-.995Z" transform="translate(-1946.631 -300.285)" fill="#ffcb00" fill-rule="evenodd"/>
      <path id="Path_9536" data-name="Path 9536" d="M50.4,46.721a2.594,2.594,0,0,1-2.378-1.459c-.572-.561-.7,0-.191.745a11.908,11.908,0,0,1,1.259,1.956c.08.531.24,4.417.191,4.624,0,.34.555.382.588-.382A4.97,4.97,0,0,1,50.4,50.4a5.063,5.063,0,0,1,.522,1.807c0,.762.561.721.588.382-.05-.207.107-4.094.191-4.624a11.908,11.908,0,0,1,1.259-1.956c.514-.729.382-1.309-.182-.745A2.6,2.6,0,0,1,50.4,46.721Z" transform="translate(-1946.239 -300.398)" fill="#ffcb00" fill-rule="evenodd"/>
      <path id="Path_9537" data-name="Path 9537" d="M49.159,32.52h1.9V34.8h2.279v1.9H51.057v2.279h-1.9V36.7H46.88V34.8h2.279Z" transform="translate(-1946.131 -298.254)" fill="#ffcb00" fill-rule="evenodd"/>
      <rect id="Rectangle_2952" data-name="Rectangle 2952" width="50.882" height="1.948" transform="translate(-1938.1 -205.537)" fill="#ffcb00"/>
      <rect id="Rectangle_2953" data-name="Rectangle 2953" width="19.814" height="1.948" transform="translate(-1873.47 -205.537)" fill="#ffcb00"/>
      <path id="Path_9538" data-name="Path 9538" d="M75.2,80.128l3.367,3.738a2.926,2.926,0,0,1,.829.1.829.829,0,0,1,.489.282V80.1Zm-3.182,0v6.356a.7.7,0,0,0,.232.522.745.745,0,0,0,1.268-.522,2.362,2.362,0,0,1,.506-1.459,2.768,2.768,0,0,1,1.384-.97Zm-4.334,0V77.137H84.44v2.991h-1.2v7.454H79.871a.63.63,0,0,0-.34-.531,1.434,1.434,0,0,0-.812-.2H77.632a.745.745,0,0,0-.522.224.737.737,0,0,0-.224.531v4.143a1.085,1.085,0,0,0,.34.829,1.069,1.069,0,0,0,.829.332h.671a1.144,1.144,0,0,0,1.122-1.122V90.6h3.367v2.221a3,3,0,0,1-2.991,2.991h-3.71a3,3,0,0,1-2.991-2.991V89.849a.945.945,0,0,1-.539.282,4.028,4.028,0,0,1-.962.091,3.472,3.472,0,0,1-2.366-.829,2.735,2.735,0,0,1-1-2.118V80.128Zm-5.611,0V77.137H64.5a1.363,1.363,0,0,1-.7-.555,1.74,1.74,0,0,1-.265-.936V70.78a2.886,2.886,0,0,1,.887-2.113,2.85,2.85,0,0,1,2.113-.882h9.945a2.983,2.983,0,0,1,2.991,2.991v5.237H76.165v-4.14a1.052,1.052,0,0,0-.34-.779,1.085,1.085,0,0,0-.829-.34H68.061a1.1,1.1,0,0,0-.787.34,1.042,1.042,0,0,0-.332.779V75.62a1.873,1.873,0,0,0,.282,1.06.77.77,0,0,0,.655.431h.555V80.1H66.942v15.7H63.57V80.128ZM53.294,102.2V99.578a4.061,4.061,0,0,1,.882-2.611,2.627,2.627,0,0,1,2.113-1.11h5.039v2.991h-3.55a1.1,1.1,0,0,0-.829.34,1.069,1.069,0,0,0-.332.787v1.492a.641.641,0,0,0,.332.531,1.408,1.408,0,0,0,.829.224h.745a1.16,1.16,0,0,0,1.144-1.11v-.37H62.98v1.864a2.617,2.617,0,0,1-2.619,2.619h-3.7a3.48,3.48,0,0,1-2.378-.829,2.751,2.751,0,0,1-.986-2.2ZM48.951,80.128V77.137H62.641v2.991h-1.5v15.7H57.774v-7.1H55.523V85.738h2.244V80.127H54.785v4.865a2.485,2.485,0,0,1-.539,1.591,1.658,1.658,0,0,1-1.335.646,1.658,1.658,0,0,1,1.335.655,2.485,2.485,0,0,1,.539,1.624v2.244a1.085,1.085,0,0,0,.34.829,1.06,1.06,0,0,0,.779.332h.561V95.9H54.039a2.353,2.353,0,0,1-1.832-.953,3.075,3.075,0,0,1-.787-2.13V89.849a1.052,1.052,0,0,0-.34-.779,1.069,1.069,0,0,0-.829-.34h-.745V85.738h.745a.962.962,0,0,0,.829-.431,1.658,1.658,0,0,0,.34-1.06V80.1ZM35.12,90.222a.713.713,0,0,0,.216.531.746.746,0,0,0,.531.224h.745a.762.762,0,0,0,.745-.754V85.366H36.235a1.077,1.077,0,0,0-.787.332,1.094,1.094,0,0,0-.332.787ZM30.736,80.128V77.137H42.263v2.991H40.719v15.7H37.352V93.777a5.114,5.114,0,0,1-.539.132,2.7,2.7,0,0,1-.58.058H34.747a3.016,3.016,0,0,1-3-2.991V85.738a3.472,3.472,0,0,1,.887-2.378,2.725,2.725,0,0,1,2.113-.986h1.864l.745,2.428V80.128Zm-4.143,15.7V93.214a1.492,1.492,0,0,1-.489.547,1.122,1.122,0,0,1-.63.207H22.516a3,3,0,0,1-2.991-2.991V87.23a1.74,1.74,0,0,1,.539-1.251,2.13,2.13,0,0,1,1.326-.613,2.1,2.1,0,0,1-1.326-.621,1.723,1.723,0,0,1-.539-1.251V77.907a1.823,1.823,0,0,1,.539-1.326,1.79,1.79,0,0,1,1.326-.539h1.5a1.856,1.856,0,0,1,1.873,1.864v3.738H22.888v1.127a1.077,1.077,0,0,0,.332.829,1.094,1.094,0,0,0,.787.332h.754v2.926h-.729a1.1,1.1,0,0,0-.787.337,1.077,1.077,0,0,0-.332.829v1.864a1.077,1.077,0,0,0,.332.834,1.1,1.1,0,0,0,.787.34h1.5a1.1,1.1,0,0,0,.787-.34,1.077,1.077,0,0,0,.332-.829V80.128h-.745V77.137h5.585v2.991h-1.5v15.7Zm-12.381,0v-15.7H12.721V77.137h6.356v2.991H17.585v15.7ZM0,80.128V77.137H13.5v2.991H12.008v15.7H8.642v-7.1H5.652v1.492A1.856,1.856,0,0,1,3.779,92.1H2.656A1.844,1.844,0,0,1,.825,90.222V85.738h1.5V80.127Zm5.652,5.611H8.643V80.128H5.652Z" transform="translate(-1938.1 -304.294)" fill="#008a82" fill-rule="evenodd"/>
    </g>
  </g>
</svg>
