<svg xmlns="http://www.w3.org/2000/svg" width="176" height="176" viewBox="0 0 176 176">
  <g id="MarketMe" transform="translate(-2619 -4647)">
    <rect id="Rectangle_277" data-name="Rectangle 277" width="176" height="176" rx="20" transform="translate(2619 4647)" fill="#fff"/>
    <g id="Group_8" data-name="Group 8" transform="translate(2145 4306)">
      <path id="Path_42" data-name="Path 42" d="M10.366-90.08v-13.961H12.8l5.04,11.51H16.759l5.02-11.51H24.19V-90.08H21.484l-.02-9.432.706.176-3.9,9.255H16.288l-3.981-9.256.746-.176v9.432Zm20.355.157a4.226,4.226,0,0,1-2.294-.627,4.144,4.144,0,0,1-1.55-1.784,6.25,6.25,0,0,1-.549-2.707,6.351,6.351,0,0,1,.559-2.735,4.4,4.4,0,0,1,1.549-1.843,4.037,4.037,0,0,1,2.284-.657,3.851,3.851,0,0,1,2.118.588A2.947,2.947,0,0,1,34.093-98.1l-.235.157v-2.078H36.78v9.942H33.858v-2.039l.235.039a2.857,2.857,0,0,1-1.255,1.588,3.949,3.949,0,0,1-2.117.569Zm.863-2.255a2.028,2.028,0,0,0,1.677-.746,3.38,3.38,0,0,0,.6-2.157,3.421,3.421,0,0,0-.6-2.167A2.017,2.017,0,0,0,31.583-98a2.041,2.041,0,0,0-1.7.784,3.435,3.435,0,0,0-.618,2.177,3.3,3.3,0,0,0,.6,2.128,2.084,2.084,0,0,0,1.716.735Zm7.588,2.1v-7.1q0-.706-.029-1.422t-.127-1.422H41.8l.314,2.628L41.8-97.55a3.11,3.11,0,0,1,1.128-2.02,3.241,3.241,0,0,1,2.03-.686,2.768,2.768,0,0,1,.6.059,3.005,3.005,0,0,1,.461.137L46-97.354a3.45,3.45,0,0,0-1.451-.335,2.663,2.663,0,0,0-1.324.294,2.017,2.017,0,0,0-.8.833,2.719,2.719,0,0,0-.284,1.284v5.2Zm14.9,0-4.412-5.059L53.9-100h3.549l-4.882,5.51.137-1.353,5,5.765Zm-6.863,0v-14.432h2.961V-90.08ZM67.1-91.139a5.462,5.462,0,0,1-1.765.892,7.022,7.022,0,0,1-2.1.324,6.147,6.147,0,0,1-2.872-.627,4.4,4.4,0,0,1-1.854-1.784,5.537,5.537,0,0,1-.647-2.745,5.663,5.663,0,0,1,.627-2.707A4.645,4.645,0,0,1,60.2-99.62a4.818,4.818,0,0,1,2.539-.657,4.566,4.566,0,0,1,2.412.618,4.071,4.071,0,0,1,1.569,1.745,6.056,6.056,0,0,1,.549,2.677v.431h-6.8l.039-1.471h5l-.765.608a2.947,2.947,0,0,0-.48-1.892,1.725,1.725,0,0,0-1.441-.637,1.867,1.867,0,0,0-1.579.735,3.506,3.506,0,0,0-.559,2.147A3.607,3.607,0,0,0,61.34-92.9a2.543,2.543,0,0,0,2.01.746,4.87,4.87,0,0,0,1.549-.255,5.16,5.16,0,0,0,1.412-.726Zm.746-6.667v-2.216h7.373v2.216Zm7.373,5.334V-90.2a3.832,3.832,0,0,1-.823.216,6.247,6.247,0,0,1-.882.059,3.644,3.644,0,0,1-2.814-1.049,4.127,4.127,0,0,1-.971-2.912v-8.471l2.961-.961v9.373A1.792,1.792,0,0,0,72.9-93a1.2,1.2,0,0,0,.569.5,1.968,1.968,0,0,0,.765.147,3.558,3.558,0,0,0,.461-.029Q74.919-92.413,75.214-92.472Zm1.745,2.392v-13.961h2.432l5.039,11.51H83.351l5.02-11.51h2.412V-90.08H88.077l-.02-9.432.706.176-3.9,9.255H82.881L78.9-99.335l.746-.176v9.432Zm25.2-1.059a5.462,5.462,0,0,1-1.765.892,7.022,7.022,0,0,1-2.1.324,6.147,6.147,0,0,1-2.872-.627,4.4,4.4,0,0,1-1.854-1.784,5.536,5.536,0,0,1-.647-2.745,5.663,5.663,0,0,1,.628-2.707,4.645,4.645,0,0,1,1.716-1.833,4.818,4.818,0,0,1,2.539-.657,4.566,4.566,0,0,1,2.412.618,4.071,4.071,0,0,1,1.569,1.745,6.056,6.056,0,0,1,.549,2.677v.431h-6.8l.039-1.471h5l-.765.608a2.947,2.947,0,0,0-.48-1.892,1.725,1.725,0,0,0-1.441-.637,1.867,1.867,0,0,0-1.579.735,3.506,3.506,0,0,0-.559,2.147A3.607,3.607,0,0,0,96.4-92.9a2.543,2.543,0,0,0,2.01.746,4.87,4.87,0,0,0,1.549-.255,5.16,5.16,0,0,0,1.412-.726Z" transform="translate(519.667 526.517)" fill="#4467c3"/>
      <g id="Group_6" data-name="Group 6" transform="translate(502 418)">
        <path id="Path_3" data-name="Path 3" d="M2.714,0H19.772a2.714,2.714,0,0,1,2.714,2.714V19.772a2.714,2.714,0,0,1-2.714,2.714H2.714A2.714,2.714,0,0,1,0,19.772V2.714A2.714,2.714,0,0,1,2.714,0Z" transform="translate(0 0)" fill="#4467c3"/>
        <g id="Group_2" data-name="Group 2" transform="translate(5.109 3.452)">
          <path id="Path_6" data-name="Path 6" d="M446.182-660.425l.848,10.173H435.383l.811-10.394h9.73Z" transform="translate(-435.042 665.347)" fill="#4467c3"/>
          <g id="Group_3" data-name="Group 3" transform="translate(0)">
            <path id="Path_4" data-name="Path 4" d="M28.549,63.864a.384.384,0,0,0-.373-.354H18.118a.383.383,0,0,0-.373.354L17,74.3a.458.458,0,0,0,.093.279.351.351,0,0,0,.279.112H28.922a.379.379,0,0,0,.279-.112.324.324,0,0,0,.093-.279Zm-3.167-.354ZM17.764,73.942l.689-9.686h9.37l.689,9.686Z" transform="translate(-17 -59.226)" fill="#fff"/>
            <path id="Path_5" data-name="Path 5" d="M63.616,14.341V11.48a2.98,2.98,0,1,0-5.961,0v2.861ZM58.4,11.48a2.235,2.235,0,1,1,4.471,0v2.861H58.4Zm-.746,2.049v2.422a.373.373,0,0,0,.746,0V13.529h4.471v2.422a.373.373,0,0,0,.746,0V13.529Z" transform="translate(-54.696 -8.5)" fill="#fff"/>
            <path id="Path_7" data-name="Path 7" d="M.537,1474.05a.881.881,0,0,1,.343-1.693h.257v-1.636H.591a.078.078,0,0,1-.078-.078v-.468a.078.078,0,0,1,.078-.078H2.755l-1.567-1.568a.078.078,0,0,1,0-.11l.331-.332a.078.078,0,0,1,.11,0l2.007,2.007h.541a.078.078,0,0,1,.078.078v.468a.078.078,0,0,1-.078.078H3.633v2.807a.078.078,0,0,1-.078.078H3.087a.078.078,0,0,1-.078-.078v-.547H1.761v.267h0a.882.882,0,0,1-1.224.8Zm.086-.812a.257.257,0,1,0,.515.008h0v-.265H.88a.258.258,0,0,0-.257.257Zm2.386-.881v-1.636H1.761v1.636Z" transform="translate(3.922 -1460.527)" fill="#fff"/>
          </g>
        </g>
      </g>
    </g>
  </g>
</svg>
